<?xml version="1.0" encoding="utf-8"?>
<!-- Generator: Adobe Illustrator 27.9.2, SVG Export Plug-In . SVG Version: 6.00 Build 0)  -->
<svg version="1.1" id="katman_1" xmlns="http://www.w3.org/2000/svg" xmlns:xlink="http://www.w3.org/1999/xlink" x="0px" y="0px"
	 viewBox="0 0 2336 640.3" style="enable-background:new 0 0 2336 640.3;" xml:space="preserve">
<style type="text/css">
	.st0{fill:#1C1E1D;}
	.st1{fill:none;}
</style>
<g>
	<g id="编组">
		<g>
			<path id="Fill-77" class="st0" d="M667.6,175.2c-22.9-18.9-54.2-28.2-94.3-28.2h-99.6v14h97.8c34,0,64.7,6.9,83.6,23.3
				c18.9,16.5,32.9,40.5,32.9,70.3c0,28.9-12.4,50-31.8,66.2c-19.3,16.2-54.5,23.3-89.4,23.3H454.6v14h113.2
				c42,0,74.9-9.1,98.7-27.3c23.6-18.2,35.6-44,35.6-77.1C702,219.9,690.5,193.9,667.6,175.2"/>
		</g>
		<g>
			<path id="Fill-79" class="st0" d="M659.1,195.2c-14.2-10.9-30.5-19.6-76.7-19.6h-76.9v13.6c0,0,34.5-0.4,75.1,0
				c39.3,0.4,53.8,4.9,67.1,14.7c16.9,12.4,27.6,28,27.6,49.6c0,20.9-10.7,35.6-27.8,48.2c-17.3,12.9-44,12.9-54.9,13.3
				c-4,0-57.1,0-57.1,0v13.6c0,0,26.2,0.4,42.7,0c37.3-0.9,59.6-3.1,80.3-18.5c19.3-14.5,29.6-33.3,29.6-57.4
				C688,221.2,672,205.4,659.1,195.2"/>
		</g>
		<g>
			<path id="Fill-80" class="st0" d="M652.2,213.2c-10.7-6.7-20-11.1-64.2-11.1h-55.4v8.9h53.8c39.1,0,53.8,6.9,58.5,9.8
				c8.9,5.3,20.5,14.2,20.5,32c0,11.3-6.7,25.8-16.7,31.3c-9.1,5.1-25.8,9.8-54.9,9.8H413.2v8.9h181c35.3,0,47.4-4,59.8-10.9
				c12.4-6.9,20.9-21.1,20.9-39.1C674.9,232.3,663.6,220.3,652.2,213.2"/>
		</g>
	</g>
	<path id="Fill-81" class="st0" d="M687.4,311.7c-22.9-18.9-54.2-28.2-94.3-28.2h-66.7v14h64.7c34,0,64.7,7.1,83.6,23.3
		s33.1,40.5,33.1,70.3c0,28.9-12.2,50-31.8,66.2c-19.6,16.2-54.5,23.3-89.4,23.3H474.4v14h113.2c42,0,74.9-9.1,98.7-27.3
		c23.8-18.2,35.6-44,35.6-77.1C721.6,356.6,710.3,330.6,687.4,311.7"/>
	<path id="Fill-82" class="st0" d="M678.9,331.7c-14.2-10.7-30.5-19.6-76.7-19.6H497.7v13.6c0,0,62-0.4,102.7,0
		c39.3,0.4,53.8,4.9,67.1,14.7c16.9,12.4,27.6,28,27.6,49.6c0,20.9-10.7,35.6-27.8,48.2c-17.3,12.9-44,12.9-54.9,13.3
		c-4,0-57.1,0-57.1,0v13.6c0,0,26.5,0.4,42.7,0c37.3-0.9,59.6-3.1,80.3-18.5c19.3-14.5,29.6-33.3,29.6-57.4
		C707.8,357.9,692,341.9,678.9,331.7"/>
	<polygon id="Fill-83" class="st0" points="520,378 618,378 618,370.4 520,370.4 	"/>
	<polygon id="Fill-84" class="st0" points="560.4,404.4 617.3,404.4 617.3,398 560.4,398 	"/>
	<polygon id="Fill-85" class="st0" points="474.4,378 503.3,378 503.3,370.4 474.4,370.4 	"/>
	<polygon id="Fill-86" class="st0" points="456.1,404.9 544.4,404.9 544.4,397.3 456.1,397.3 	"/>
	<polygon id="Fill-87" class="st0" points="477.9,210.3 512.4,210.3 512.4,204.1 477.9,204.1 	"/>
	<polygon id="Fill-88" class="st0" points="454.1,261 532.6,261 532.6,253.9 454.1,253.9 	"/>
	<polygon id="Fill-89" class="st0" points="456.1,464.2 539.1,464.2 539.1,455.3 456.1,455.3 	"/>
	<polygon id="Fill-90" class="st0" points="435.7,493.8 456.4,493.8 456.4,480.7 435.7,480.7 	"/>
	<polygon id="Fill-91" class="st0" points="487.3,238.8 617.5,238.8 617.5,231.7 487.3,231.7 	"/>
	<polygon id="Fill-92" class="st0" points="552.4,261 615.1,261 615.1,253.9 552.4,253.9 	"/>
	<path id="Fill-93" class="st0" d="M672,351.1c-10.7-6.4-20-10.9-64.2-10.9h-70.3v8.7h68.9c39.1,0,54,6.7,58.5,9.3
		c8.7,5.1,20.5,13.6,20.5,30.9c0,11.1-6.7,24.9-16.7,30.2c-9.1,4.9-25.8,9.3-54.9,9.3H433v8.7h181c35.3,0,47.4-3.8,59.8-10.4
		c12.4-6.7,20.7-20.2,20.7-37.8C694.7,369.7,683.4,358.2,672,351.1"/>
	<path id="Fill-94" class="st0" d="M857.4,331.7v79.4h43.4c18.7,0,33.3-3.6,43.6-10.7c10-6.4,15.8-17.6,15.6-29.6
		c0-26-22-39.1-65.8-39.1L857.4,331.7L857.4,331.7z M857.4,237.2v71.1h32.7c17.6,0,31.1-3.3,41.1-10.2c9.8-6.2,15.6-17.3,15.1-28.9
		c0-21.3-17.3-32.2-52.2-32.2L857.4,237.2z M825.4,434.4V213.9H903c23.6,0,42.2,4.7,56,14c13.8,9.3,20.7,21.6,20.7,36.5
		c0.2,12-4.2,23.8-12.4,32.7c-8.4,9.3-19.8,15.8-34.5,19.8v0.7c18.5,1.8,33.1,7.3,44,16.9c10.9,9.1,16.9,22.7,16.5,36.9
		c0,18.9-8.4,34-25.1,45.8c-16.7,11.8-37.8,17.6-63.4,17.6h-79.4V434.4z"/>
	<path id="Fill-95" class="st0" d="M1028.8,434.4h31.1V277h-31.1V434.4z M1044.6,236.8c-5.1,0.2-10.2-1.6-14.2-4.7
		c-3.8-2.7-6-7.1-5.8-11.6c0-4.7,2.2-9.1,5.8-11.8c4-3.1,9.1-4.9,14.2-4.7c5.3-0.2,10.4,1.6,14.5,4.7c6.4,4.7,7.8,13.6,3.3,20
		c-0.9,1.3-2,2.4-3.3,3.3C1055.1,235.4,1050,237,1044.6,236.8L1044.6,236.8z"/>
	<path id="Fill-96" class="st0" d="M1197.6,432.9c-7.3,3.3-17.1,4.9-29.1,4.9c-34,0-51.1-15.3-51.1-46.2v-93.2H1084v-21.6h33.3
		v-38.5l31.1-8.2v46.7h48.9v21.6h-48.9v88.7c0,10.4,2.2,18,6.7,22.7s11.8,6.7,22,6.7c7.1,0.2,14.2-1.6,20.2-5.3L1197.6,432.9"/>
	<path id="Fill-97" class="st0" d="M1480.6,434.4h-29.1V298.4c0.2-13.1,0.9-26.5,2.4-39.6h-0.7c-1.8,6.7-4.4,13.3-7.6,19.6
		l-85.6,155.8h-14.5l-85.4-154.7c-3.3-6.7-5.8-13.6-7.6-20.9h-0.7c1.1,13.1,1.6,26.5,1.3,39.8v135.8h-28.2V231.4h38.9l76.9,141.4
		c4.4,7.8,8.4,16,11.6,24.5h1.1c5.1-11.1,9.1-19.3,12-24.9l78.5-140.9h36.7v203"/>
	<path id="Fill-98" class="st0" d="M1638.9,354.6l-46.9,5.3c-14.5,1.6-25.3,4.4-32.7,8.7c-7.3,4.2-11.1,11.6-11.1,22
		c0,7.6,3.8,14.7,10.2,18.9c6.7,4.9,15.8,7.3,27.1,7.3c15.6,0,28.2-4.4,38.2-13.1c9.8-8.2,15.3-20.5,15.1-33.3V354.6z M1670,434.4
		h-31.1v-24.7h-0.7c-13.6,18.9-33.6,28.2-59.8,28.2c-19.3,0-34.5-4.2-45.6-12.4c-10.7-7.6-16.7-20-16.5-33.1
		c0-29.3,21.3-46.5,64.2-51.4l58.2-6.7c0-26.7-13.3-40-40-40c-22.7-0.2-44.7,6.4-63.4,19.3v-25.8c19.1-9.8,41.1-14.7,66-14.7
		c45.8,0,68.5,19.6,68.5,58.7V434.4L1670,434.4z"/>
	<path id="Fill-99" class="st0" d="M1814.5,302.4c-5.6-3.3-13.3-5.1-23.6-5.1c-12.9-0.2-25.1,5.3-33.3,15.3
		c-8.9,10.2-13.3,24-13.3,41.6v80.3h-31.1V277h31.1v32.5h0.7c4-10.4,11.1-19.6,20.5-26c8.9-6.2,19.6-9.3,30.7-9.3
		c6.2-0.2,12.7,0.4,18.7,2.2L1814.5,302.4"/>
	<path id="Fill-100" class="st0" d="M1923,432.9c-7.3,3.3-17.1,4.9-29.1,4.9c-34,0-51.1-15.3-51.1-46.2v-93.2h-33.3v-21.6h33.3
		v-38.5l31.1-8.2v46.7h48.9v21.6h-48.9v88.7c0,10.4,2.2,18,6.7,22.7s11.8,6.7,22,6.7c7.1,0.2,14.2-1.6,20.2-5.3L1923,432.9"/>
	<rect x="371" y="88.9" class="st1" width="1594" height="462.4"/>
</g>
</svg>
