<?xml version="1.0" encoding="utf-8"?>
<!-- Generator: Adobe Illustrator 27.9.2, SVG Export Plug-In . SVG Version: 6.00 Build 0)  -->
<svg version="1.1" id="Calque_1" xmlns="http://www.w3.org/2000/svg" xmlns:xlink="http://www.w3.org/1999/xlink" x="0px" y="0px"
	 viewBox="0 0 982.7 344.7" style="enable-background:new 0 0 982.7 344.7;" xml:space="preserve">
<style type="text/css">
	.st0{fill:#FCFAE2;}
	.st1{fill:#DFDDC0;}
	.st2{fill:#010101;}
</style>
<g>
	<g>
		<path class="st0" d="M982.7,219.3c-0.3,10.6-1.1,21.2-3.2,31.6c-2.1,8.7-4.8,17.4-8.5,25.5c-2.6,5-5.2,9.9-8,14.7
			c-5.4,9.6-11.2,18.3-21,24c-9.2,5.4-19.1,10.1-29.5,12.6c-7,1.7-14,3.1-21.2,3.6c-7.1,0.4-14.3,0.6-21.5,0.3
			c-7.2-0.4-14.6-1-21.3-3.8c-6.7-3-12.7-7.6-18-12.7c-1-1.1-2-2.3-3-3.5c-7.8,0.4-15.6,0.6-23.3,0.8c-13.3,0.1-26.6-0.1-39.9,0.5
			c-13.8,0.5-27.5,1-41.3,1.1c-66.3,0.5-132.6,0.1-198.9-1c-5.8,0-11.6,0-17.4,0c-21.7,0-43.3-0.1-65,0.7
			c-13.7,0.7-27.4,0.3-41.1,0.8c-13.8,0.8-27.6,0.5-41.4,0.7c-10.1,0.1-20.3,0.8-30.4,0.7c-6.5,0-13-0.6-19.6-0.7
			c-6.9-0.1-13.8-0.4-20.7-0.7c-13.4-0.6-26.7-2.1-40-2.6c-9.2-0.2-18.3-0.2-27.5-0.2c-13.4,0.1-26.8,0.1-40.2-0.7
			c-7.6-0.7-15.1-1.7-22.8-1.4c-4.1,4-8.4,7.7-12.4,11.7c-8.6,8.8-13.5,13.3-25.5,17.5c-7.3,2.7-14.8,5.9-22.8,5.9
			c-0.6,0-1.2,0-1.9-0.1c-5.1-0.4-10.1-1.5-15.1-2.3c-5.2-0.8-10.3-2-15.2-3.8c-7.9-2.5-14.7-7.3-21.7-11.7
			c-10-5.7-16.5-11.4-22.3-21.5c-5-8.8-7.6-18.8-10.2-28.5c-3.5-13.6-4.1-28-1.7-41.9c1.3-6.8,3.4-13.4,6-19.7
			c1.3-3.2,2.5-6.5,4.6-9.3c4.2-5.6,10-9.6,16.1-12.8c6.7-3.8,13-8.1,19.2-12.6c-2-1.2-4-2.3-5.9-3.5c-3.9-2.5-7.4-5.5-11-8.5
			c-7.8-6.2-15.4-13-20.7-21.6c-3.4-5.5-6.1-11.5-8.7-17.5c-4.1-9.5-8.4-19.3-8.9-29.7C-0.5,86,3.4,72.6,7.6,59.6
			c3.3-11.4,7-23.2,15.1-32.3c2.9-3.4,6.9-5.5,10.6-7.9c5.4-3.6,11.2-6.6,17.3-8.7C58.3,7.7,66.4,5.7,74.7,5
			C79.8,4.4,84.9,3.8,90,3.8c3.4,0,6.7,0.3,10,1c5.9,1.2,11.7,2.8,17.5,4.5c5.4,1.7,10.8,3.1,15.6,6c4,2.5,7.1,6,10.3,9.4
			c3.2,3.4,6.3,6.7,8.8,10.7c2.9,4.9,4.4,10.5,5.9,15.9c0.8,2.8,1.3,5.8,2.5,8.5c0.1,0.3,0.1,0.7,0,1c0.4,0.1,0.9,0.1,1.2,0.1
			c4.7,0.3,9.4,0.4,14,1c5.5,0.7,11.2,1.6,16.8,1.9c7.2,0.5,14.5,0.5,21.8,0.4c4.9,0,9.8-0.1,14.7,0.1c7.2,0.3,14.4,1.1,21.6,1.3
			c16.4,0.4,32.9,0.1,49.3,0.6c20.3,0.5,40.7,0.2,61,0.4c13.7,0,27.3,0.4,41,0.5c13.4,0.1,26.8-0.6,40.2-0.8
			c13.5-0.5,27-0.7,40.4,0.1c6.6,0.3,13.3,0.9,19.9,1.1c13.2,0.4,26.4,0.3,39.6,0.3c16.7,0.1,33.5-0.2,50.2-0.5
			c17.2-0.3,34.4-0.6,51.6-0.5c13.9-0.2,27.8,0.5,41.6,1.2c12.8,0.4,25.6,0.4,38.3,0.1c13.4-0.4,26.8-1.4,40.3-1.5
			c20-0.1,39.9-0.3,59.9-1.2c0.5,0,1-0.1,1.5-0.1c0-0.1,0.1-0.2,0.1-0.4c0.6-2.4,1.2-4.8,1.8-7.1c2.7-10.1,6.3-20,10.9-29.4
			c4.5-9.9,11.6-18.2,21.4-22.9c5.9-3,12.5-4,19-4.5c8.3-0.6,16.7-1.4,24.9-0.2c8.1,1,15.3,5,22.3,8.8c8.6,4.6,17.9,8.4,25.5,14.8
			c5.1,4.3,8.5,10.1,11.3,16.1c2.8,6,5.4,12,7.3,18.3c4.4,15.8,3.7,32.8,0.5,48.7c-2.7,13-6,26.3-13.3,37.5c-2,3.1-3.9,6.5-6.9,8.8
			c-2.5,1.8-5.2,3.2-8.1,3.7c6.7,1.1,13.1,4,18.2,8.4C976.2,178.8,982.7,199.4,982.7,219.3z"/>
	</g>
	<g>
		<path class="st1" d="M979.2,215c0.2,2.1,0.2,4.3,0,6.4c-0.4,3.7-0.2,7.4-0.5,11c-0.3,4.3-1.1,8.6-1.8,12.9
			c-0.3,2.5-0.8,5.3-1.4,7.7c-0.7,4.3-1.5,8.7-3.6,12.6c-2,4.2-3.8,8.8-5.6,13c-0.8,2.5-1.7,5-2.8,7.3c-2.3,4.3-5.3,8.3-8.4,12.1
			c-1.4,1.9-2.6,3.9-4.2,5.6c-2,2.3-4.5,4.2-6.9,6.2c-2.5,2-4.8,3.6-7.5,5.1c-3.3,1.7-6.3,3.8-9.8,5.2c-4,1.4-7.8,2.8-11.8,4
			c-4.6,1-9.2,2.2-13.9,3c-3.6,0.6-7.6,0.5-11.1,0.8c-4.6,0.3-9.2,1.2-13.9,0.9c-6.9-0.1-13.9-1-20.6-2.5c-3.9-0.6-7.7-1.5-11.3-3.2
			c-2.9-1.1-5.8-2.5-8.1-4.6c-2.7-2.9-5.9-5.3-8.3-8.4c-0.9-2.1-3.3-1-5-1.5c-0.2,0.1-0.4,0.3-0.6,0.3c-5.2,0.8-10.5,1.1-15.8,1.3
			c-6.6,0-13.2-0.3-19.8,0.1c-4.4,0.5-8.9,0.8-13.3,1.2c-5.4,0.4-10.8,0.2-16.2,0.2c-10.1-0.2-20.2,0.4-30.3,0.6
			c-10.1,0.1-20.2,0.1-30.2,0.1c-7.1,0-14.2-0.1-21.4,0c-7.1,0.2-14.2,0.6-21.3,0.2c-8.7-0.2-17.4-0.1-26.1-0.3
			c-10.3,0.1-20.5,0.1-30.8-0.5c-8.6,0-17.2-0.1-25.7-0.2c-12,0.2-24,0.3-36,0.3c-8.1,0.2-16.2-0.5-24.4-0.6
			c-5.5,0-10.9,0.4-16.4,0.2c-10.7-0.4-21.2-0.7-31.9-0.5c-0.2,0.6-0.7,1-1.3,1.1c-2.8,0.3-5.6,0.1-8.5,0.1
			c-5.5,0-10.9-0.1-16.4-0.1c-5.5,0.1-11,0.4-16.6,0.3c-11.1,0-22.2-0.3-33.2,0.1c-5.8,0-11.6,0-17.5,0.1
			c-5.8,0.1-11.6,0.5-17.3,0.5c-17.4,0.2-34.8,0.2-52.2,0.2c-13.2,0.2-26.5-1-39.6-2c-7.7-0.7-15.3-1.4-23-1.3
			c-4.2,0-8.4,0.1-12.6,0.2c-4.3,0-8.6-0.5-12.9-0.6c-8.2-0.3-16.3-1.3-24.4-1.1c-5.6,0-11.3,0.4-16.9-0.3
			c-3.7-0.5-7.4-0.8-10.9-1.7c-0.7-0.1-1.6-0.3-2.2-0.6c-2.3,2.5-5.1,4.6-7.4,7.2c-1.8,2-3.4,4.2-5.2,6.3c-1.9,2.2-4.2,4-6.6,5.6
			c-3.2,1.8-5.8,4.4-8.7,6.6c-2.2,1.5-4.6,2.8-7,4c-3.5,2-7.2,3.7-11.2,4.6c-4.4,1.2-8.8,2.8-13.5,2.4c-2.1,0-3.8-0.2-5.7-0.3
			c-8.6-0.2-16.9-1.6-24.9-4.9c-3.7-1.8-7.4-3.3-11.2-4.9c-3.9-1.5-7.4-3.9-11.1-6c-2.5-1.4-4.9-2.8-7.2-4.5
			c-4.2-3.3-7.8-7.4-10.9-11.6c-3.1-4.4-5.1-9.4-6.5-14.6c-0.2-0.9-0.7-1.9-0.7-2.8c-2.2-3-4.5-6-5.8-9.5c-0.4-1.2-1.2-2.6-1-3.8
			c0.6-1.5,2.2-0.4,2.7,0.6c1.2,2.2,2.3,4.4,3.7,6.5c1.4,1.9,3,3.8,4.3,5.7c1.2,1.7,2.2,3.4,3.5,5c1.9,2.1,4.3,3.6,6.5,5.3
			c6,4.7,12.7,8.6,19.9,11.3c5.4,1.8,10.9,3.3,16.4,4.6c11.7,2.4,24.1,4.1,35.8,0.8c3.3-1.1,6.5-2.1,9.7-3.5c2.3-1.2,4.7-2.4,7-3.5
			c2.1-1,4.1-2,6-3.3c1.7-1.2,3.3-2.5,5-3.6c2.7-1.9,5.6-3.5,8.1-5.6c1.4-1.2,2.5-2.7,3.7-4.1c3.1-3.5,7-6.2,9.7-10
			c1.7-2.7,3-5.6,4.6-8.4c3.1-5.8,6.5-11.5,9-17.7c2.1-6,3.2-12.2,4.8-18.3c0.5-1.8,1.3-3.6,1.3-5.5c0.3-2.1,3.6-1.8,3.4,0.5
			c-0.1,0.7-0.2,1.4-0.4,2c0.1,0.6,0.1,1.3,0.2,1.8c1,6.9,1.9,13.9,3.7,20.6c0.4,2.2,1,2.3,3,2.7c1.8,0.4,3.6,0.7,5.4,1
			c11.6,1.6,23.3,2.8,35.1,3c27,1.3,54,0.4,81,0.3c19.9,0.2,39.8-0.5,59.7,0.4c7.3,0.3,14.7,0.3,22,0.6c3.8,0,8-0.1,11.7-0.4
			c3.2-0.3,6.3-0.7,9.5-0.8c7.7-0.4,15.5,0.8,23.2,1.4c21.4,0.8,42.9,0.3,64.3,0.5c38-2.1,76-0.2,114-0.5c16.3-0.2,32.6,0,48.9,0.1
			c10.1,0,20.3-0.2,30.4,0.1c17.7,1,35.4,0.3,53.1,0.5c17.6,0,35.2-0.1,52.8-1.1c1.3-0.1,2.5-0.2,3.8-0.2c0.1,0,0.1,0,0.2,0
			c0.4,0,0.8-0.1,1.2-0.2c1.8-0.2,3-1.7,4-3c1.5-2.1,3.8-3.5,5-5.7c0.4-1.2,0.2-3.1,1.9-3.2c0.1,0,0.2,0,0.2,0
			c0.8-2.9,1.2-5.9,1.9-8.8c0.4-2.2,0.8-4.4,1.4-6.6c0-1-0.3-2,0.3-2.9c0,0,0,0,0,0c0.6-0.7,1.7-0.7,2.2,0c0.4,0.5,0.4,1.2,0.4,1.8
			c0.3,3.5,1.1,6.9,2.3,10.2c1.3,3.3,2.3,6.8,4.3,9.8c1.2,1.7,2.5,3.3,3.9,4.8c2.6,3.1,4.3,6.3,6.9,9.3c3.8,3.8,7.6,7.6,12.3,10.1
			c4.9,2.3,9.8,4.6,15,6c4.6,1.6,9,2.8,13.7,3.8c7.7,2.3,16.3,1.9,24.1,0.5c5.5-1.2,11.1-2.5,16.4-4.3c5.1-1.4,9.9-3.7,14.8-5.8
			c3.7-1.8,6.7-4.7,10.1-6.9c3.7-2.4,6.2-6,8.8-9.4c1.5-2,3.2-3.9,4.6-6c2.8-4.3,4.5-8.8,6.9-13.2c1.7-3.5,3.7-6.8,5.5-10.2
			c2.3-4.5,3.5-9.4,4.6-14.3c1.1-4.3,2.8-8.5,3.1-13c0.1-2.8,0-5.8,0.3-8.6c0.2-1.4-0.2-2.9,0-4.3c0.1-0.3,0.2-0.6,0.3-0.9
			c0.4-0.9,1.8-0.9,2.4-0.2c0.6,0.8,0.6,1.9,0.5,2.9c-0.1,1.2,0,2.4-0.1,3.5c-0.2,1.9-0.2,3.9-0.3,5.8c0,0,0,0.1,0.1,0.1
			C979.4,211.5,979,213.3,979.2,215z"/>
		<path class="st1" d="M72.2,297.5c-3.1-2-3.9-5.3-1.4-8.1c2.2-2.1,5.8-1.3,8.3-0.3c4.8,1.8,4.3,7.1,0,9.2
			C76.9,299.3,74.2,298.9,72.2,297.5z"/>
		<path class="st1" d="M103.1,286.8c-3.4-0.3-3.1-4.7,0.3-4.2c-0.4-2.3,2.9-3,3.3-0.7C107.2,284.2,105.8,287.1,103.1,286.8z"/>
		<path class="st1" d="M868.6,242.7C868.6,242.7,868.6,242.7,868.6,242.7c0.7-0.5,1.3-0.8,2.1-0.9c-0.2-0.3-0.5-0.6-0.8-0.7
			c0,0,0,0,0,0c0,0-0.1,0-0.1,0.1c0,0-0.1,0.1-0.1,0.1C869.4,241.9,868.8,242.1,868.6,242.7z M865.5,247.3c-1-2-1.2-4.7,0.5-6.5
			c2-3.7,5.9-3.9,7.8,0C877.8,247.8,870.5,255.5,865.5,247.3z"/>
		<path class="st1" d="M943.8,214.8c-0.7-1.1,0.4-2.7,1.5-2.9c0.7-0.1,1.4,0.3,1.6,1C948.5,215.2,945.1,217,943.8,214.8z"/>
		<path class="st1" d="M950.2,194.7c0-2.1,3.2-2.1,3.2,0C953.4,196.8,950.2,196.8,950.2,194.7z"/>
		<path class="st1" d="M959.6,206.6c0-1.9,2.8-1.9,2.8,0C962.4,208.5,959.7,208.5,959.6,206.6z"/>
		<path class="st1" d="M956.8,225.7c0-1.6,2.4-1.6,2.5,0C959.2,227.3,956.8,227.3,956.8,225.7z"/>
		<path class="st1" d="M59.2,274.3c3,5.8,0.7,14-6.9,12.9c-6.1-0.6-11.5-3.8-15.8-8.1c-3-3-4.8-7.7-3.4-11.9
			c0.6-1.3,1.3-2.9,2.3-3.9c1-0.9,2.5-1.3,3.8-1.4C47.4,261.7,55.6,267,59.2,274.3z"/>
		<path class="st1" d="M869.6,262.3c1.4,6.3-2.8,10.9-9.2,10.1c-5.4-0.8-16-7.4-12.1-13.8c2.4-3.2,6.8-3.8,10.5-3.6
			C863.9,255.2,868.6,256.6,869.6,262.3z"/>
		<path class="st1" d="M940.1,230.1c4.1,4.1,3,11.1-0.8,15.1c-3.1,3.4-7.8,4.9-10.7,8.5c-2.6,2.9-4,6.5-6,9.8
			c-2.3,3.6-5.1,7.1-8.7,9.6c-2.6,1.6-5.9,2.1-8.9,1.8c-5-0.4-9.7-3-13.2-6.7c-2.3,0.5-2.9-2.7-3.7-4.2c-1.1-2.6-0.8-5.4-0.5-8.1
			c0.4-5.9,4.6-11,10.6-12c5.1-1.1,11.7,0.9,15.6-3.5c2.7-3.2,4.3-7.4,7.7-10C926.5,226.3,935.1,225,940.1,230.1z"/>
	</g>
	<g>
		<path class="st2" d="M693.8,71.1c-34.1-1.6-68.2-1.8-102.3-0.8c-26.9,0.5-53.8,0.6-80.8,0.3c-13.5,0-27-1.5-40.5-1.7
			c-19.9-0.3-39.7,0.9-59.6,1.2c-13.6,0.1-27.2-0.4-40.9-0.4c-27-0.3-54.1,0-81.1-0.7c-12.4-0.2-24.7,0.1-37.1-0.2
			c-8.8-0.2-17.5-1.3-26.3-1.3c-12.9,0-25.8,0.4-38.7-0.9c-3.3-0.3-6.5-0.9-9.7-1.3c-5.9-0.9-12-0.9-17.9-1.7
			c-0.6-0.1-1.2-0.2-1.6-0.7c-0.5-0.6-0.3-1.6,0.4-2c1.1-0.5,3,0,4.1,0c4.7,0.3,9.4,0.4,14,1c5.5,0.7,11.2,1.6,16.8,1.9
			c12.2,0.8,24.3,0.2,36.5,0.5c7.2,0.3,14.4,1.1,21.6,1.3c16.4,0.4,32.9,0.1,49.3,0.6c20.3,0.5,40.7,0.2,61,0.4
			c13.7,0,27.3,0.4,41,0.5c13.4,0.1,26.8-0.6,40.2-0.8c13.5-0.5,27-0.7,40.4,0.1c6.6,0.3,13.3,0.9,19.9,1.1
			c13.2,0.4,26.4,0.3,39.6,0.3c33.9,0.3,67.9-1.3,101.8-1c13.9-0.2,27.8,0.5,41.6,1.2c12.8,0.4,25.6,0.4,38.3,0.1
			c13.4-0.4,26.8-1.4,40.3-1.5c20-0.1,39.9-0.3,59.9-1.2c1.3-0.1,2.5-0.2,3.8-0.2c0.7,0,1.4,0.6,1.5,1.3c0.1,0.8-0.5,1.6-1.3,1.7
			c-6.2,0.6-12.5,0.6-18.8,0.8c-19.2,0.8-38.5,0.4-57.7,1C732.3,70.8,713,71.6,693.8,71.1z"/>
		<path class="st2" d="M95.5,344.7c-5.1-0.4-10.1-1.5-15.1-2.3c-5.2-0.8-10.3-2-15.2-3.8c-7.9-2.5-14.7-7.3-21.7-11.7
			c-10-5.7-16.5-11.4-22.3-21.5c-5-8.8-7.6-18.8-10.2-28.5c-3.5-13.6-4.1-28-1.7-41.9c1.3-6.8,3.4-13.4,6-19.7
			c1.3-3.2,2.5-6.5,4.6-9.3c4.2-5.6,10-9.6,16.1-12.8c6.7-3.8,13-8.1,19.2-12.6c-2-1.2-4-2.3-5.9-3.5c-3.9-2.5-7.4-5.5-11-8.5
			c-7.8-6.2-15.4-13-20.7-21.6c-3.4-5.5-6.1-11.5-8.7-17.5c-4.1-9.5-8.4-19.3-8.9-29.7C-0.5,86,3.4,72.6,7.6,59.6
			c3.3-11.4,7-23.2,15.1-32.3c2.9-3.4,6.9-5.5,10.6-7.9c5.4-3.6,11.2-6.6,17.3-8.7C58.3,7.7,66.4,5.7,74.7,5c8.4-0.9,17-2,25.4-0.1
			c5.9,1.2,11.7,2.8,17.5,4.5c5.4,1.7,10.8,3.1,15.6,6c4,2.5,7.1,6,10.3,9.4c3.2,3.4,6.3,6.7,8.8,10.7c2.9,4.9,4.4,10.5,5.9,15.9
			c0.8,2.8,1.3,5.8,2.5,8.5c0.3,0.6,0,1.3-0.6,1.7c-0.6,0.4-1.3,0.2-1.8-0.2c-1.5-1.9-1.7-4.5-2.5-6.8c-1.8-6.4-3.4-13-7.1-18.6
			c-2.5-3.6-5.7-6.8-8.6-10c-2.4-2.6-4.9-5.2-7.9-7.3c-4.1-2.7-8.8-4-13.4-5.4c-6.2-1.9-12.9-3.8-19.2-5.1C94.9,7,89.8,6.9,85.1,7.3
			c-6.6,0.5-13.1,1.1-19.6,2.3c-7.7,1.7-15.2,4.5-22.4,7.9c-3.8,1.9-7.3,4.2-10.9,6.5c-1.7,1.1-3.5,2.1-5,3.4
			C17,37.1,13.5,51.3,9.6,64.3c-4,12.7-7.4,26-5.7,39.3c1.2,8.2,4.6,15.8,7.8,23.4c4,9.5,8.4,18.9,15.3,26.5
			c4.4,5.1,9.8,9.2,14.9,13.5c4.2,3.6,8.6,7,13.5,9.6c0.9,0.6,1.9,1.1,2.8,1.6c0.6,0.3,1.2,0.4,1.7,0.9c0.8,0.7,0.6,2.1-0.3,2.6
			c-2.8,1.5-5.3,3.5-7.9,5.4c-6.6,4.7-13.7,8.5-20.6,12.7c-3.5,2.4-6.7,5.5-9.1,9c-1.4,2.2-2.4,4.7-3.3,7.1
			c-2.9,7.3-5.2,14.9-6.3,22.7c-1.1,8.7-1.1,17.5,0,26.1c0.8,5.5,2.1,11,3.6,16.3c3.3,12.2,7.5,24.3,16.6,33.3
			c4.6,4.9,10.7,7.9,16.3,11.5c3.4,2.2,6.8,4.5,10.4,6.3c8.5,4.2,17.7,6.2,27,7.6c3.2,0.6,6.4,1.1,9.7,1.4c8,0.5,15.6-2.9,23-5.6
			c4.3-1.6,8.6-3.3,12.4-5.9c6.3-4.5,11.3-10.5,17.1-15.6c6.9-6.4,14.2-12.7,18.9-20.9c3.1-5.3,5.7-11,7-16.9
			c1.4-7.2,1.5-14.5,1.7-21.7c0.1-3.9,0.2-7.8-0.1-11.7c-0.3-4-0.9-7.9-1.5-11.9c-0.2-1.8,2.4-2.1,2.7-0.4c0.6,3.5,1.2,6.9,1.7,10.4
			c0.7,6.9,0.2,13.8,0,20.7c-0.3,10.3-1.5,19.4-6.4,28.7c-1.5,3.2-3.4,6.2-5.4,9.1c-5.9,8.3-14.1,14.6-21.3,21.8
			c-8.6,8.8-13.5,13.3-25.5,17.5C112.2,341.8,104.1,345.2,95.5,344.7z"/>
		<path class="st2" d="M829.4,308.3c0.8,1,1.7,2,2.5,3c-9.2,0.7-18.5,0.8-27.8,1.1c-13.3,0.1-26.6-0.1-39.9,0.5
			c-13.8,0.5-27.5,1-41.3,1.1c-66.3,0.5-132.6,0.1-198.9-1c-27.5,0-54.9-0.3-82.4,0.7c-13.7,0.7-27.4,0.3-41.1,0.8
			c-13.8,0.8-27.6,0.5-41.4,0.7c-10.1,0.1-20.3,0.8-30.4,0.7c-6.5,0-13-0.6-19.6-0.7c-6.9-0.1-13.8-0.4-20.7-0.7
			c-13.4-0.6-26.7-2.1-40-2.6c-22.6-0.6-45.2,0.5-67.7-0.8c-7.7-0.7-15.5-1.8-23.2-1.4c-0.5,0.3-1.1,0.1-1.7,0
			c-0.8-0.3-1.1-1.4-0.6-2.1c1-1.3,2.9-1,4.3-1.2c7.4-0.4,15.2,1,22.6,1.5c13.1,0.7,26.3,0.5,39.5,0.7c13,0,26.1-0.3,39.1,0.9
			c14.8,1.2,29.6,2.3,44.5,2.6c6.8,0.1,13.6,0.5,20.4,0.7c7,0.1,14,0,21-0.3c17.2-0.7,34.4,0,51.6-0.9c10.4-0.5,20.8-0.4,31.2-0.5
			c20.4-0.8,40.9-1.3,61.3-1.2c13.8,0.1,27.6-0.2,41.3,0.2c7,0.2,14.1,0.3,21.1,0.4c34.7,0,69.5,0.8,104.2,0.8
			c38.3,0.2,76.6,0.1,114.9-1.6c18.3-0.4,36.7,0,55-1C827.9,308.4,828.6,308.4,829.4,308.3z"/>
		<path class="st2" d="M939.6,157.6c-1,0-2,0-3.1,0c-0.7,0-1.2-0.5-1.3-1.2c-0.1-0.7,0.4-1.4,1.2-1.5c4.4-0.5,9-1.6,12.5-4.7
			c10.3-11.5,14.6-26.9,17.8-41.7c1.3-5.9,2.2-11.8,2.6-17.8c1.1-15.6-0.6-29.3-7.3-43.6c-3.1-7.2-6.3-14.7-12.3-19.9
			c-3.8-3.4-8-5.6-12.4-8c-7-3.6-14-7.2-21-10.9c-10.5-5.5-21.5-5.2-33-4.4c-9.2,0.5-18.7,1.5-26.4,7c-4.2,2.9-8,6.5-10.9,10.7
			c-5.1,7.9-8.5,16.3-11.7,25c-1.9,5.1-3.3,10.3-4.7,15.6c-0.5,1.6-0.8,3.2-1.5,4.8c-0.2,0.5-0.6,0.9-1.2,1.1
			c-0.6,0.2-1.3-0.1-1.6-0.6c-0.5-0.8,0.1-1.8,0.2-2.7c0.6-2.4,1.2-4.8,1.8-7.1c2.7-10.1,6.3-20,10.9-29.4
			c4.5-9.9,11.6-18.2,21.4-22.9c5.9-3,12.5-4,19-4.5c8.3-0.6,16.7-1.4,24.9-0.2c8.1,1,15.3,5,22.3,8.8c8.6,4.6,17.9,8.4,25.5,14.8
			c5.1,4.3,8.5,10.1,11.3,16.1c2.8,6,5.4,12,7.3,18.3c4.4,15.8,3.7,32.8,0.5,48.7c-2.7,13-6,26.3-13.3,37.5c-2,3.1-3.9,6.5-6.9,8.8
			C947,155.9,943.6,157.6,939.6,157.6z"/>
		<path class="st2" d="M869.8,331.7c-7.2-0.4-14.6-1-21.3-3.8c-6.7-3-12.7-7.6-18-12.7c-5.1-5.5-9.4-12-12.8-18.6
			c-3.6-6.5-5.2-13.7-6-21c-0.9-8.8-1.9-18-0.1-26.7c1.3-5.7,2.5-11.5,4.2-17.1c0.7-1.7,3.4-1,3.2,0.9c-1.3,5.7-2.8,11.3-4,17
			c-1.1,5.6-0.9,11.4-0.5,17.1c0.6,7.3,1.2,14.7,3.5,21.7c3.6,9.3,8.9,17.7,15.7,24.9c5.4,4.9,11.3,9.6,18.3,12.1
			c8.4,2.7,17.3,2.9,26,2.9c11.3,0.1,22.6-1,33.5-3.9c7.2-1.7,14.1-4.7,20.7-7.9c6.5-3.2,12.9-7,17.8-12.5
			c6.1-7.1,10.3-15.5,14.8-23.6c4.1-7.1,6.9-14.9,9.2-22.8c2.9-9.4,4-19.2,4.7-28.9c2-21.4-2.9-45-19.8-59.4
			c-5.1-4.5-11.4-7.4-18-8.7c-1.2-0.3-2.5-0.4-3.8-0.5c-1.1-0.2-1.4-1.9-0.5-2.5c1.4-0.9,3.3-0.5,4.8-0.3c6.9,1,13.5,4,18.9,8.5
			c15.9,12.9,22.3,33.6,22.3,53.5c-0.3,10.6-1.1,21.2-3.2,31.6c-2.1,8.7-4.8,17.4-8.5,25.5c-2.6,5-5.2,9.9-8,14.7
			c-5.4,9.6-11.2,18.3-21,24c-9.2,5.4-19.1,10.1-29.5,12.6c-7,1.7-14,3.1-21.2,3.6C884.2,331.8,877,332,869.8,331.7z"/>
	</g>
</g>
</svg>
