<?xml version="1.0" encoding="utf-8"?>
<!-- Generator: Adobe Illustrator 27.9.2, SVG Export Plug-In . SVG Version: 6.00 Build 0)  -->
<svg version="1.1" id="katman_1" xmlns="http://www.w3.org/2000/svg" xmlns:xlink="http://www.w3.org/1999/xlink" x="0px" y="0px"
	 viewBox="0 0 2336 640.3" style="enable-background:new 0 0 2336 640.3;" xml:space="preserve">
<style type="text/css">
	.st0{fill:#FFFFFF;}
</style>
<g>
	<g>
		<path class="st0" d="M2101,376.5c0,46.2,0,92.4,0,138.6c-622,0-1244,0-1866,0c0-24.3,0-48.5,0-72.8c1.4-0.8,2.9-1.4,4.2-2.4
			c9.9-7.9,19.8-15.8,29.6-23.7c3.1-2.5,6.1-4.9,9.5-7.5c10.8,17.4,21.2,34.1,31.8,51.2c11.4-10.6,22.2-20.7,33.4-31
			c17.9,28.9,35.4,57.1,53.3,86c18.1-29.1,35.7-57.3,53.6-85.9c11.3,10.5,22.1,20.5,33.3,30.9c10.7-17.2,21.2-34,31.8-51.1
			c14.1,11.2,27.7,22.1,41.3,32.9c0.4-0.3,0.8-0.5,1.2-0.8c-1.3-3.4-2.6-6.9-4.1-10.3c-12.3-27.5-21.1-56-22.9-86.2
			c-1.4-23.7-1.5-47.5-1.9-71.2c-0.2-15-0.9-29.9-5.1-44.4c-3.1-10.5-6.9-20.7-13-30.4c-5.3,6-9.9,11.8-15.1,17.2
			c-5.2,5.5-6.5,11.1-3.1,18.1c3.6,7.5,4.5,15.6,2.7,23.8c-4.2,18.9-17.3,28.2-35.3,32.3c-4.1,0.9-8.3,1.7-12.6,2.5
			c0.2,3,0.7,5.5,0.5,8c-1,8.4,3.2,13.1,10.4,16.7c10.7,5.5,21,11.9,32.4,18.4c-8.7,4.6-16.6,8.9-24.6,12.9
			c-17,8.5-29,21.5-35.3,39.5c-9.4,26.8-18.5,53.6-27.8,80.4c-1.9,5.4-3.7,10.7-5.6,16.1c-2.3-3.1-3.5-6.1-4.5-9.2
			c-9-26.7-17.9-53.5-27-80.2c-8.1-23.7-23.1-41.1-46.7-50.7c-5.4-2.2-10.3-5.6-16-8.8c12.4-7.3,23.9-13.8,35.2-20.8
			c2.6-1.6,5.4-4.4,6.2-7.2c1.4-4.8,1.3-10.1,1.8-15.5c-5.9-1.1-11.3-1.9-16.7-3c-21.8-4.6-37.9-25.9-30-49.2
			c1.1-3.3,1.9-6.7,2.8-10.1c1.2-4.3,0.7-8.2-2.8-11.4c-1.3-1.2-2.4-2.8-3.6-4.2c-4.4-5.1-8.8-10.3-13.5-15.7
			c-9.7,17.3-16.5,34.6-16.9,53.9c-0.4,19.3-0.6,38.5-0.9,57.8c-0.4,30.2-3.7,60-13.2,88.8c-4.6,13.9-11.1,27.2-16.8,40.7
			c0-104.7,0-209.5,0-314.2c622,0,1244,0,1866,0c0,83.5,0,166.9,0,250.4c-0.6-0.8-1.3-1.5-1.8-2.3c-10.1-18-20.2-35.9-30.2-53.9
			c-0.5-0.9-0.8-2-1.1-2.8c3.9-2.2,7.7-4,11.1-6.3c14.2-10.2,20.2-29.6,14.8-47.8c-4.9-16.6-20.2-28.7-38.2-29.4
			c-13.8-0.5-27.7-0.2-41.5-0.3c-3.9,0-7.9,0-12,0c0,48.2,0,95.8,0,143.6c4.8,0,9.4,0,14.5,0c0-19.3,0-38.3,0-57.7
			c10.8,0,20.9,0.2,31-0.1c3.4-0.1,5,1.2,6.5,4c7.1,13.4,14.4,26.6,21.6,39.8c2.6,4.8,4.4,11.3,8.5,13.5
			C2088.7,378.3,2095.3,376.5,2101,376.5z M273.6,149.9c-0.5,0.3-0.9,0.7-1.4,1c2.5,4.9,4.5,10.1,7.5,14.7
			c22.4,34.8,53.3,60.4,89.5,79.8c2.6,1.4,7.1,1.4,9.7,0.1c11.8-6,23.2-6.4,34.9-0.1c4.1,2.2,7.8,2,11.7-0.5
			c9.2-6,18.6-11.7,27.7-17.9c27.3-18.6,50.8-40.9,65.8-70.9c0.7-1.5,1.4-3,2.1-4.5c-7.2,3.2-13.3,7.1-19.5,11
			c-8.2,5.2-8.8,5-16-1.2c-37.3-32.3-79.7-42.5-127.4-28.8c-18.9,5.4-34.8,16.3-49.8,28.6c-7.9,6.5-9.4,6.4-17.9,0.5
			C284.9,157.8,279.3,153.8,273.6,149.9z M632.1,379.3c15.5,0,30.4,0.2,45.4-0.1c10.6-0.2,21.4-0.2,31.8-1.9
			c23.6-3.8,41.3-16.1,50.4-38.9c5.9-14.7,6.4-30.1,4.8-45.6c-1.6-14.8-6.1-28.6-16.7-39.6c-12.6-13.1-28.8-18.5-46.3-19.2
			c-22.3-0.9-44.6-0.5-66.9-0.6c-0.8,0-1.5,0.3-2.4,0.5C632.1,282.3,632.1,330.4,632.1,379.3z M817.8,258.9c22.3,0,44.2,0,66.4,0
			c0-8.6,0-16.8,0-25.1c-33.9,0-67.4,0-100.9,0c0,48.7,0,96.9,0,145.3c33.8,0,67.2,0,101,0c0-8.5,0-16.7,0-25.6
			c-22.3,0-44.4,0-66.3,0c0-12.4,0-24.1,0-36.4c19.3,0,38.2,0,57.3,0c0-8.1,0-15.7,0-23.7c-19.3,0-38.2,0-57.4,0
			C817.8,281.8,817.8,270.7,817.8,258.9z M1038.8,379.3c-1.3-2.4-2.1-3.8-2.9-5.2c-13.6-22.6-27.2-45.3-40.9-67.8
			c-1.6-2.6-1.6-4.5,0-7.1c12.5-20.6,24.8-41.3,37.2-62c0.6-1,1.1-2.2,1.9-3.9c-10.8,0-21,0.2-31.1-0.1c-3.4-0.1-5.1,1.2-6.6,4
			c-6.9,11.9-14,23.8-21,35.6c-1.5,2.6-3.1,5.2-5,8.3c-1.6-2.7-2.9-4.6-4-6.6c-7.5-12.6-14.9-25.2-22.4-37.7
			c-0.8-1.4-2.5-3.3-3.8-3.3c-11.1-0.3-22.2-0.2-34-0.2c1.3,2.2,2,3.6,2.9,4.9c12.6,20.2,25.1,40.4,37.7,60.5c1.8,2.9,1.9,5,0,7.9
			c-14.2,22.5-28.2,45.1-42.3,67.6c-0.9,1.4-1.6,2.9-2.7,5c11.7,0,22.3,0.1,33-0.1c1.5,0,3.6-1.6,4.5-3c4.8-7.6,9.3-15.3,13.9-23
			c5.6-9.4,11.3-18.7,17.2-28.5c1.3,2.1,2.3,3.6,3.2,5.1c9.2,15.4,18.4,30.8,27.8,46.1c0.9,1.5,2.8,3.2,4.3,3.2
			C1016.2,379.5,1027,379.3,1038.8,379.3z M396.4,417.7c0.4,0,0.8,0,1.3,0.1c9.5-32,19.6-63.7,50.6-83.2c-2.9-1.7-4.5-3.1-6.3-3.7
			c-11.6-3.9-15.7-12.4-15-24c0-0.7-0.1-1.3-0.1-2c-1.1-11.3-2.6-22.5-9.1-32.2c-9.3-14-28.6-15.7-39.3-2.8
			c-3.9,4.7-6.7,10.8-8.2,16.7c-2.3,9.1-3.2,18.6-4.2,28c-0.7,6.2-3.2,10.6-9,13.3c-4,1.9-7.7,4.3-12.3,6.9
			c25.2,14.4,36.3,37.7,44.8,62.8C391.9,404.3,394.1,411,396.4,417.7z M1739.8,376.5c0-38.7,0-76.9,0-116.5c2,2.6,3.1,4,4.1,5.5
			c25.8,35.7,51.5,71.5,77.4,107.2c1.2,1.6,2.9,3.6,4.7,3.8c3.8,0.6,7.8,0.2,11.8,0.2c0-48.3,0-95.9,0-143.6c-5,0-9.7,0-15,0
			c0,38.8,0,77.2,0,116.6c-2.4-3.2-4-5.5-5.7-7.8c-25.5-35.3-51-70.7-76.5-106c-1-1.3-2.6-2.9-4-3.1c-3.7-0.4-7.5-0.1-11.4-0.1
			c0,48.3,0,95.9,0,143.7C1729.9,376.5,1734.3,376.5,1739.8,376.5z M1456.3,376.7c-11.6-20.7-22.7-40.5-33.8-60.4
			c1.2-0.6,1.8-0.8,2.4-1.1c18.1-8,28-24.9,25.7-44c-2.4-20.4-15-34.3-35.4-37.5c-9.5-1.5-19.3-0.8-28.9-1c-9.6-0.1-19.2,0-29,0
			c0,48.3,0,96,0,143.7c4.8,0,9.2,0,14.3,0c0-19.3,0-38.3,0-57.7c10.8,0,20.9,0.1,31-0.1c3.3-0.1,5,0.9,6.6,3.8
			c9,17,18.3,33.9,27.6,50.7c0.8,1.5,2.6,3.2,4.1,3.3C1445.8,376.9,1450.6,376.7,1456.3,376.7z M1072,332.4c0,1.4-0.1,2.4,0,3.4
			c0.4,2.3,0.8,4.6,1.4,6.8c5.8,19.4,18.9,31.1,38.5,34.7c21.3,3.9,41.6,1.3,56.3-16.9c15.7-19.5,9.1-45.7-13.8-56
			c-6.3-2.9-13.1-4.6-19.8-6.8c-11-3.6-22.6-6.1-33-10.8c-11.8-5.4-14.6-18.3-7.1-29c2.8-4,7.1-7.6,11.5-9.9
			c16.9-8.7,48.4-3.8,52.5,24.9c4.7,0,9.4,0,15.3,0c-1.6-5.7-2.4-11-4.6-15.7c-13.7-29.9-62.6-36.1-84.2-10.8
			c-15.9,18.6-11,43.5,10.9,54.1c6.4,3.1,13.3,5.1,20.1,7.2c10,3.1,20.4,5,30.1,8.9c16.8,6.8,20.1,25,7.6,38.1
			c-17,17.6-52.2,12.5-63.2-9.3c-2-3.9-3-8.4-4.6-12.9C1081.7,332.4,1077.1,332.4,1072,332.4z M1485.4,376.4c29.5,0,58.5,0,87.8,0
			c0-4.4,0-8.5,0-13.2c-24.5,0-48.7,0-72.9,0c0-17.8,0-35,0-52.6c21.7,0,43.2,0,64.8,0c0-4.6,0-8.8,0-13.5c-21.8,0-43.2,0-64.9,0
			c0-17.2,0-33.9,0-51.2c24.4,0,48.6,0,72.9,0c0-4.7,0-8.8,0-12.9c-29.4,0-58.5,0-87.8,0C1485.4,280.9,1485.4,328.4,1485.4,376.4z
			 M1620,310.5c22,0,43.4,0,64.9,0c0-4.6,0-8.7,0-13.3c-21.7,0-43.1,0-64.8,0c0-17.2,0-33.9,0-51.3c24.5,0,48.7,0,72.6,0
			c0-4.8,0-8.8,0-12.9c-29.4,0-58.3,0-87.4,0c0,48,0,95.7,0,143.3c29.4,0,58.5,0,87.4,0c0-4.5,0-8.6,0-13.1c-24.5,0-48.5,0-72.7,0
			C1620,345.5,1620,328.4,1620,310.5z M1957.7,310.7c0-4.9,0-8.9,0-13.6c-21.7,0-43.1,0-64.8,0c0-17.2,0-33.9,0-51.3
			c24.5,0,48.7,0,72.8,0c0-4.8,0-8.8,0-12.7c-29.4,0-58.5,0-87.4,0c0,48,0,95.6,0,143.2c29.4,0,58.5,0,87.4,0c0-4.5,0-8.6,0-13.1
			c-24.4,0-48.5,0-72.8,0c0-17.7,0-34.9,0-52.5c11,0,21.6,0,32.2,0C1935.9,310.7,1946.7,310.7,1957.7,310.7z M1319.5,332.8
			c-3.9,0-7.3,0.2-10.8,0c-2.8-0.2-3.9,0.9-5,3.5c-2.1,4.8-4.5,9.7-7.7,13.8c-15.2,19.4-59.6,24.6-77.2-10.1
			c-11.7-23.2-11.8-47.2-0.1-70.5c12.4-24.6,43.3-32.6,66.9-18.3c9.7,5.9,15.6,14.6,18.5,25.2c5.1,0,9.8,0,16,0
			c-3.3-7.4-5.6-14.4-9.3-20.5c-20-32.6-81.6-36.8-104.9,5.7c-10.4,18.9-11.9,39.1-8.9,60c5.8,40,37.5,62.9,77.3,56
			C1297.6,373.4,1315.9,355.6,1319.5,332.8z M471.7,239.7c-13.3,8.4-26.6,16.8-40.3,25.4c11,7.4,27.9,6.8,37.3-0.9
			C476.5,257.7,478,247.2,471.7,239.7z M321.6,239.4c-4.8,7.3-4.7,14.9,0,21.2c8.1,10.8,29.5,13.3,40.4,4.3
			C348.4,256.3,335,247.9,321.6,239.4z"/>
		<path d="M235,439.4c5.7-13.6,12.2-26.8,16.8-40.7c9.5-28.8,12.8-58.6,13.2-88.8c0.3-19.3,0.5-38.5,0.9-57.8
			c0.4-19.3,7.3-36.6,16.9-53.9c4.7,5.5,9.1,10.6,13.5,15.7c1.2,1.4,2.2,2.9,3.6,4.2c3.5,3.2,4.1,7,2.8,11.4
			c-1,3.4-1.7,6.8-2.8,10.1c-7.9,23.3,8.2,44.5,30,49.2c5.3,1.1,10.7,1.9,16.7,3c-0.5,5.4-0.4,10.7-1.8,15.5
			c-0.8,2.8-3.5,5.6-6.2,7.2c-11.3,7-22.8,13.6-35.2,20.8c5.7,3.2,10.6,6.6,16,8.8c23.6,9.6,38.6,27,46.7,50.7
			c9.1,26.7,18,53.5,27,80.2c1,3.1,2.3,6.1,4.5,9.2c1.9-5.4,3.7-10.7,5.6-16.1c9.3-26.8,18.4-53.7,27.8-80.4
			c6.3-18,18.3-31,35.3-39.5c8-4,15.9-8.3,24.6-12.9c-11.3-6.5-21.6-12.9-32.4-18.4c-7.2-3.7-11.3-8.3-10.4-16.7
			c0.3-2.4-0.3-4.9-0.5-8c4.2-0.8,8.4-1.6,12.6-2.5c17.9-4,31-13.4,35.3-32.3c1.8-8.2,1-16.3-2.7-23.8c-3.4-7-2.1-12.6,3.1-18.1
			c5.1-5.4,9.8-11.1,15.1-17.2c6.1,9.8,9.9,20,13,30.4c4.2,14.5,4.9,29.4,5.1,44.4c0.4,23.7,0.5,47.5,1.9,71.2
			c1.7,30.2,10.6,58.7,22.9,86.2c1.5,3.4,2.7,6.9,4.1,10.3c-0.4,0.3-0.8,0.5-1.2,0.8c-13.6-10.8-27.2-21.6-41.3-32.9
			c-10.7,17.1-21.1,33.9-31.8,51.1c-11.2-10.4-22.1-20.5-33.3-30.9c-17.8,28.6-35.4,56.9-53.6,85.9c-17.9-28.8-35.4-57.1-53.3-86
			c-11.1,10.4-22,20.5-33.4,31c-10.6-17.1-21-33.8-31.8-51.2c-3.3,2.6-6.4,5-9.5,7.5c-9.9,7.9-19.7,15.8-29.6,23.7
			c-1.3,1-2.8,1.6-4.2,2.4C235,441.4,235,440.4,235,439.4z"/>
		<path d="M2101,376.5c-5.7,0-12.3,1.8-16.7-0.6c-4.1-2.2-5.9-8.8-8.5-13.5c-7.3-13.2-14.6-26.5-21.6-39.8c-1.5-2.8-3.1-4.1-6.5-4
			c-10.1,0.3-20.3,0.1-31,0.1c0,19.4,0,38.4,0,57.7c-5.2,0-9.7,0-14.5,0c0-47.8,0-95.4,0-143.6c4.1,0,8,0,12,0
			c13.8,0.1,27.7-0.3,41.5,0.3c18,0.7,33.4,12.8,38.2,29.4c5.3,18.2-0.6,37.6-14.8,47.8c-3.3,2.4-7.2,4.1-11.1,6.3
			c0.3,0.8,0.6,1.9,1.1,2.8c10.1,18,20.1,35.9,30.2,53.9c0.5,0.8,1.2,1.5,1.8,2.3C2101,375.9,2101,376.2,2101,376.5z M2016.9,305
			c13.2,0,25.8,0.6,38.4-0.2c14.9-1,24.9-12.7,25.6-28.2c0.6-14.5-8.8-27.9-22.9-29.4c-13.4-1.4-27.1-0.3-41.1-0.3
			C2016.9,265.9,2016.9,285.2,2016.9,305z"/>
		<path d="M273.6,149.9c5.7,4,11.3,7.9,17,11.9c8.5,5.9,10,6,17.9-0.5c15-12.4,30.9-23.2,49.8-28.6c47.7-13.7,90.1-3.4,127.4,28.8
			c7.2,6.2,7.8,6.4,16,1.2c6.2-3.9,12.3-7.8,19.5-11c-0.7,1.5-1.3,3-2.1,4.5c-15,30-38.5,52.3-65.8,70.9
			c-9.1,6.2-18.5,11.8-27.7,17.9c-3.9,2.6-7.6,2.7-11.7,0.5c-11.6-6.3-23.1-5.8-34.9,0.1c-2.6,1.3-7.2,1.3-9.7-0.1
			c-36.2-19.4-67.1-45-89.5-79.8c-3-4.6-5-9.8-7.5-14.7C272.7,150.5,273.2,150.2,273.6,149.9z"/>
		<path d="M632.1,379.3c0-48.9,0-97.1,0-145.4c0.9-0.2,1.6-0.5,2.4-0.5c22.3,0.1,44.6-0.3,66.9,0.6c17.5,0.7,33.7,6.1,46.3,19.2
			c10.7,11,15.2,24.8,16.7,39.6c1.6,15.5,1.1,30.9-4.8,45.6c-9.1,22.8-26.8,35-50.4,38.9c-10.4,1.7-21.2,1.7-31.8,1.9
			C662.6,379.6,647.6,379.3,632.1,379.3z M667.3,258.3c0,32.6,0,63.9,0,95.2c7.9,0,15.4,0.4,22.9-0.1c18.2-1.1,31.9-12.3,36.6-29.5
			c3.3-12.3,3.2-24.7-0.1-36.9c-4-14.9-13.9-24.3-29-26.8C687.8,258.5,677.5,258.9,667.3,258.3z"/>
		<path d="M817.8,258.9c0,11.9,0,23,0,34.6c19.2,0,38.1,0,57.4,0c0,8.1,0,15.6,0,23.7c-19.1,0-38,0-57.3,0c0,12.3,0,24,0,36.4
			c21.9,0,44,0,66.3,0c0,8.9,0,17.1,0,25.6c-33.7,0-67.2,0-101,0c0-48.4,0-96.7,0-145.3c33.5,0,67,0,100.9,0c0,8.3,0,16.5,0,25.1
			C862,258.9,840.1,258.9,817.8,258.9z"/>
		<path d="M1038.8,379.3c-11.7,0-22.5,0.1-33.3-0.1c-1.5,0-3.4-1.8-4.3-3.2c-9.3-15.3-18.5-30.7-27.8-46.1c-0.9-1.5-1.9-3-3.2-5.1
			c-5.9,9.8-11.6,19.2-17.2,28.5c-4.6,7.7-9.1,15.4-13.9,23c-0.9,1.4-2.9,2.9-4.5,3c-10.7,0.3-21.3,0.1-33,0.1c1.1-2,1.8-3.6,2.7-5
			c14-22.6,28.1-45.2,42.3-67.6c1.9-3,1.9-5,0-7.9c-12.7-20.1-25.2-40.3-37.7-60.5c-0.8-1.4-1.6-2.8-2.9-4.9c11.8,0,22.9-0.1,34,0.2
			c1.3,0,2.9,1.9,3.8,3.3c7.6,12.5,15,25.1,22.4,37.7c1.2,2,2.4,3.9,4,6.6c1.9-3.1,3.5-5.7,5-8.3c7-11.9,14.1-23.7,21-35.6
			c1.6-2.7,3.3-4,6.6-4c10.1,0.2,20.3,0.1,31.1,0.1c-0.8,1.7-1.3,2.8-1.9,3.9c-12.4,20.7-24.7,41.4-37.2,62c-1.6,2.6-1.6,4.5,0,7.1
			c13.7,22.6,27.3,45.2,40.9,67.8C1036.7,375.5,1037.4,377,1038.8,379.3z"/>
		<path d="M396.4,417.7c-2.3-6.7-4.5-13.5-6.8-20.2c-8.5-25.1-19.7-48.4-44.8-62.8c4.6-2.6,8.4-5,12.3-6.9c5.7-2.7,8.3-7.1,9-13.3
			c1.1-9.4,1.9-18.9,4.2-28c1.5-5.9,4.3-12.1,8.2-16.7c10.7-12.9,30-11.2,39.3,2.8c6.5,9.8,8,21,9.1,32.2c0.1,0.7,0.2,1.3,0.1,2
			c-0.7,11.6,3.4,20,15,24c1.8,0.6,3.4,2,6.3,3.7c-31.1,19.5-41.2,51.2-50.6,83.2C397.2,417.8,396.8,417.8,396.4,417.7z"/>
		<path d="M1739.8,376.5c-5.5,0-9.9,0-14.6,0c0-47.8,0-95.5,0-143.7c3.8,0,7.6-0.3,11.4,0.1c1.5,0.2,3.1,1.7,4,3.1
			c25.5,35.3,51,70.6,76.5,106c1.7,2.3,3.3,4.6,5.7,7.8c0-39.4,0-77.8,0-116.6c5.3,0,10,0,15,0c0,47.6,0,95.2,0,143.6
			c-3.9,0-7.9,0.4-11.8-0.2c-1.7-0.3-3.5-2.2-4.7-3.8c-25.8-35.7-51.6-71.5-77.4-107.2c-1-1.4-2.2-2.9-4.1-5.5
			C1739.8,299.5,1739.8,337.7,1739.8,376.5z"/>
		<path d="M1456.3,376.7c-5.7,0-10.5,0.3-15.3-0.2c-1.5-0.1-3.3-1.9-4.1-3.3c-9.3-16.8-18.6-33.7-27.6-50.7c-1.6-3-3.3-3.9-6.6-3.8
			c-10.1,0.2-20.3,0.1-31,0.1c0,19.4,0,38.4,0,57.7c-5,0-9.5,0-14.3,0c0-47.7,0-95.4,0-143.7c9.7,0,19.4-0.1,29,0
			c9.6,0.1,19.4-0.5,28.9,1c20.4,3.2,33,17.1,35.4,37.5c2.3,19.1-7.6,36-25.7,44c-0.6,0.3-1.2,0.5-2.4,1.1
			C1433.6,336.2,1444.7,356,1456.3,376.7z M1372,247c0,19,0,38.4,0,58c13,0,25.5,0.5,37.9-0.1c14.7-0.8,25-12.1,25.9-27.3
			c1-14.9-8.1-28.6-22.4-30.2C1399.9,245.8,1386,247,1372,247z"/>
		<path d="M1072,332.4c5.1,0,9.7,0,14,0c1.6,4.5,2.6,9,4.6,12.9c10.9,21.8,46.2,26.9,63.2,9.3c12.6-13.1,9.3-31.3-7.6-38.1
			c-9.6-3.9-20.1-5.8-30.1-8.9c-6.8-2.1-13.7-4.1-20.1-7.2c-22-10.6-26.9-35.5-10.9-54.1c21.6-25.3,70.5-19.1,84.2,10.8
			c2.2,4.7,3,10,4.6,15.7c-5.9,0-10.6,0-15.3,0c-4.1-28.7-35.6-33.6-52.5-24.9c-4.4,2.3-8.7,5.9-11.5,9.9c-7.5,10.7-4.8,23.6,7.1,29
			c10.5,4.8,22,7.3,33,10.8c6.6,2.1,13.5,3.9,19.8,6.8c22.9,10.3,29.5,36.5,13.8,56c-14.6,18.2-34.9,20.8-56.3,16.9
			c-19.6-3.6-32.8-15.4-38.5-34.7c-0.7-2.2-1-4.5-1.4-6.8C1071.9,334.8,1072,333.8,1072,332.4z"/>
		<path d="M1485.4,376.4c0-48,0-95.5,0-143.3c29.3,0,58.3,0,87.8,0c0,4.1,0,8.1,0,12.9c-24.3,0-48.4,0-72.9,0c0,17.3,0,34,0,51.2
			c21.7,0,43.1,0,64.9,0c0,4.7,0,8.9,0,13.5c-21.6,0-43.1,0-64.8,0c0,17.6,0,34.8,0,52.6c24.2,0,48.4,0,72.9,0c0,4.7,0,8.8,0,13.2
			C1543.9,376.4,1514.9,376.4,1485.4,376.4z"/>
		<path d="M1620,310.5c0,17.9,0,35,0,52.6c24.2,0,48.3,0,72.7,0c0,4.6,0,8.6,0,13.1c-28.9,0-57.9,0-87.4,0c0-47.5,0-95.3,0-143.3
			c29.1,0,58,0,87.4,0c0,4.1,0,8.1,0,12.9c-24,0-48.2,0-72.6,0c0,17.4,0,34.1,0,51.3c21.7,0,43.1,0,64.8,0c0,4.7,0,8.7,0,13.3
			C1663.4,310.5,1642,310.5,1620,310.5z"/>
		<path d="M1957.7,310.7c-11,0-21.8,0-32.6,0c-10.6,0-21.3,0-32.2,0c0,17.6,0,34.8,0,52.5c24.3,0,48.4,0,72.8,0c0,4.5,0,8.6,0,13.1
			c-28.9,0-58,0-87.4,0c0-47.5,0-95.1,0-143.2c28.9,0,58,0,87.4,0c0,3.9,0,8,0,12.7c-24,0-48.2,0-72.8,0c0,17.4,0,34,0,51.3
			c21.7,0,43.1,0,64.8,0C1957.7,301.7,1957.7,305.8,1957.7,310.7z"/>
		<path d="M1319.5,332.8c-3.6,22.8-21.9,40.7-45.2,44.7c-39.8,7-71.5-16-77.3-56c-3-20.9-1.4-41.1,8.9-60
			c23.3-42.5,85-38.3,104.9-5.7c3.7,6.1,6,13.1,9.3,20.5c-6.2,0-10.9,0-16,0c-2.9-10.6-8.8-19.3-18.5-25.2
			c-23.6-14.3-54.5-6.3-66.9,18.3c-11.7,23.2-11.7,47.3,0.1,70.5c17.6,34.7,62,29.5,77.2,10.1c3.2-4.1,5.6-9,7.7-13.8
			c1.1-2.6,2.2-3.7,5-3.5C1312.2,332.9,1315.6,332.8,1319.5,332.8z"/>
		<path d="M471.7,239.7c6.3,7.5,4.9,18-3,24.5c-9.4,7.7-26.3,8.3-37.3,0.9C445,256.4,458.4,248,471.7,239.7z"/>
		<path d="M321.6,239.4c13.4,8.5,26.9,17,40.4,25.5c-10.9,8.9-32.3,6.5-40.4-4.3C316.9,254.3,316.8,246.7,321.6,239.4z"/>
		<path class="st0" d="M2016.9,305c0-19.8,0-39.1,0-58.1c13.9,0,27.6-1.1,41.1,0.3c14.1,1.5,23.5,14.9,22.9,29.4
			c-0.6,15.5-10.7,27.2-25.6,28.2C2042.7,305.6,2030,305,2016.9,305z"/>
		<path class="st0" d="M667.3,258.3c10.3,0.6,20.5,0.2,30.4,1.9c15.1,2.5,25,12,29,26.8c3.3,12.2,3.4,24.7,0.1,36.9
			c-4.7,17.2-18.4,28.4-36.6,29.5c-7.5,0.5-15,0.1-22.9,0.1C667.3,322.2,667.3,290.9,667.3,258.3z"/>
		<path class="st0" d="M1372,247c14,0,27.9-1.2,41.5,0.3c14.3,1.6,23.4,15.4,22.4,30.2c-1,15.2-11.2,26.5-25.9,27.3
			c-12.4,0.7-25,0.1-37.9,0.1C1372,285.4,1372,266,1372,247z"/>
	</g>
</g>
</svg>
