<?xml version="1.0" encoding="utf-8"?>
<!-- Generator: Adobe Illustrator 27.9.2, SVG Export Plug-In . SVG Version: 6.00 Build 0)  -->
<svg version="1.1" id="katman_1" xmlns="http://www.w3.org/2000/svg" xmlns:xlink="http://www.w3.org/1999/xlink" x="0px" y="0px"
	 viewBox="0 0 2336 640.3" style="enable-background:new 0 0 2336 640.3;" xml:space="preserve">
<style type="text/css">
	.st0{fill:#1D1D1B;}
	.st1{fill-rule:evenodd;clip-rule:evenodd;fill:#05A3C9;}
</style>
<g>
	<path class="st0" d="M1531.5,264.2c-33.3,4.1-57.9,23.1-66.9,51.3c-6.2,19.2-5.5,37.4,2.4,56c9.2,21.9,29.1,37.5,55.4,43.5
		c7.6,1.8,27.3,1.9,35.2,0.4c30.6-6,51.9-25,60.8-53.8c2.1-6.9,2.4-8.9,2.4-21.2s-0.3-14.3-2.4-21.2c-8.7-28.4-29.4-47.1-58.8-53.3
		C1553.4,264.6,1536.6,263.7,1531.5,264.2z M1550.1,301.6c11,2.9,21.5,10.1,26.2,18.4c7.4,12.6,7.2,29.3-0.6,41.3
		c-13.8,21.7-45.4,25.3-64.4,7.2c-15.8-15.1-16.4-39-1.3-55.2C1520.1,302.6,1536.1,298,1550.1,301.6z"/>
	<path class="st0" d="M1694.2,264.2c-33.3,4.1-57.9,23.1-66.9,51.3c-6.2,19.2-5.5,37.4,2.4,56c9.2,21.9,29.1,37.5,55.4,43.5
		c7.6,1.8,27.3,1.9,35.2,0.4c30.6-6,51.9-25,60.8-53.8c2.1-6.9,2.4-8.9,2.4-21.2s-0.3-14.3-2.4-21.2c-8.7-28.4-29.4-47.1-58.8-53.3
		C1716.1,264.6,1699.4,263.7,1694.2,264.2z M1712.9,301.6c11.1,2.9,21.5,10.1,26.2,18.4c7.4,12.6,7.2,29.3-0.6,41.3
		c-13.8,21.7-45.4,25.3-64.4,7.2c-15.8-15.1-16.4-39-1.3-55.2C1682.8,302.6,1698.8,298,1712.9,301.6z"/>
	<path class="st0" d="M1913.4,264.7c-19.4,2.8-34,15.2-38.7,33.1c-4.5,16.8-1.3,34.1,7.7,42.4c5.4,5,11.8,7.9,29.4,13.5
		c17,5.5,20.9,7.8,22.7,13.5c2,6.6-2.9,14.5-10.3,16.6c-4,1.1-11.7,1.1-16.7-0.1c-5.6-1.3-15.5-6.2-19.8-9.9c-1.9-1.8-4-3.1-4.4-3.1
		s-2.5,3.2-4.6,7.2c-2.9,5.6-3.9,6.8-4,5.3l-0.3-1.9h-22.7H1829v-57v-57h-18.7h-18.7v73.1v73.1h41.3h41.3v-4c0-2.2,0.2-4,0.4-4
		s3.6,1.6,7.5,3.4c12.2,5.7,20,7.4,35.2,7.4c14.8,0,21.7-1.3,30.9-5.7c7.2-3.5,17-13.2,20.3-19.9c6.5-13.5,7.4-31.8,2-43.4
		c-0.9-2.2-4.1-6.4-7.2-9.3c-6.4-6.4-13.3-9.9-30.9-15.5c-7-2.2-13.9-4.8-15.5-5.7c-5.6-3.5-6.8-11.1-2.4-15.9
		c7.7-8.3,21.5-7.5,35.8,2l2.8,1.8l7.6-14.6c4-7.9,7.4-14.6,7.2-14.7c-0.8-0.8-11.5-5.1-17.5-7
		C1937.8,264.4,1924.4,263,1913.4,264.7z"/>
	<path class="st0" d="M861.6,319.6V416h34.1c18.7,0,38.3-0.6,43.4-1.1c42.1-5.2,73.1-30.7,83.1-68.1c3.3-12.4,4-34.2,1.7-47.2
		c-4.8-25.2-17.9-45.5-38-59.3c-9-6.2-17.1-9.6-30.1-13.2c-10.2-2.7-11.8-2.7-52.2-3.3l-41.8-0.5L861.6,319.6L861.6,319.6z
		 M935.9,262.6c26.4,5.6,44,27.8,44,55.4c-0.1,18.3-5.7,34.2-16.3,44.6c-10.4,10.5-26,15.6-47.6,15.7h-10.3v-58.6v-58.6h11.4
		C923.4,261.1,931.8,261.9,935.9,262.6z"/>
	<path class="st0" d="M1039.7,319.7V416l81.1-0.1h81l20.9-29.4c11.6-16,21.3-29.2,21.5-29.2c0.5,0,10.2,13.2,21.6,29.4l21,29.4h26.3
		c14.4,0,26.2-0.4,26.2-0.7c0-0.4-15.5-22-34.2-48.1l-34.2-47.4l32.7-45.7c18.1-25,33.8-46.6,34.8-47.8c2.1-2.1,2.1-1.8,2.1,17.5
		v19.6h19.9h19.9v76.3v76.3h23.8h23.8v-76.3v-76.3l23.2-0.2l23.1-0.4l-12.4-19.6l-12.4-19.6l-81.3-0.1h-81.4L1266,253
		c-11.6,16-21.3,29.2-21.5,29.4c-0.4,0-10.1-13.2-21.5-29.4l-21-29.4h-81h-81.1v96.1H1039.7z M1182.8,271.6
		c18.6,25.8,33.9,47.4,33.9,48.1c0,0.7-15.2,22.5-34,48.5l-34.1,47.2l-0.4-18.4l-0.2-18.4H1116h-32.1v-21.6v-21.5h26h26V317v-18.3
		h-26h-26v-18.8v-18.8h32.1h32.1v-18.3c0-10.1,0.2-18.3,0.5-18.3C1148.8,224.6,1164.2,245.8,1182.8,271.6z"/>
	<path class="st1" d="M525.7,95.7c-30.1,15.7-54.9,29-54.8,29.5c0,1.4,72.3,38,74.9,37.9c1.1,0,9.6-4,18.8-8.7l16.7-8.6l18.3,9.4
		l18.3,9.4l29.9-13.5c45-20.2,49.7-22.5,48.9-23.1c-0.9-1-17.1-9.7-61-32.7c-21.2-11.1-41.7-22.1-45.6-24.3c-4-2.3-7.7-4-8.4-4
		S555.8,80,525.7,95.7z M393.5,164.2l-31.4,16.2v71.1c0,39.1,0.4,71.1,0.9,71.1c0.5,0,15.9-6.7,34.3-14.9l33.4-14.9v-75l16.3,8.8
		c12.6,6.9,25.1,13.6,37.7,20.5l21.5,11.6l9.5-4.3c6-2.7,11.9-5.5,17.9-8.2c4.6-2.2,15.9-7.2,25.1-11.3c9.2-4,17.7-8.2,18.9-9.1
		c1.6-1.2-18-12-72.3-40c-41-21.1-75.9-38.2-77.5-38.1C426.2,147.9,410.7,155.3,393.5,164.2z M702.3,168.7
		c-21.4,9.7-38.9,18-38.9,18.4c0,0.5,11.7,7.4,25.9,15.4c14.3,8,25.9,15,25.9,15.5c0,0.6-12.6,6.7-28,13.5
		c-15.4,7-54.4,24.6-86.7,39.1l-107.9,48.8c-27.2,12.2-51.7,23.3-54.4,24.6c-55.4,25.1-70.8,32.1-72.8,33.3
		c-2.1,1.2-2.5,8.2-2.9,43.3l-0.5,41.9l28,14.3l28,14.3l39-17.6c21.4-9.7,39-18.1,39-18.7s-4-3.2-8.7-5.7
		c-4.8-2.5-14.8-8.2-22.2-12.5c-7.3-4.3-14.7-8.3-16.3-8.8c-1.6-0.6-2.9-1.4-2.9-2.1c0-0.6,17.1-8.7,38.1-18.1
		c40.6-18.2,71.7-32.2,138.4-62.4c29.8-13.5,59.6-27,89.6-40.5c26.2-11.9,56.7-25.7,67.7-30.8l20-9.2l0.5-42.3l0.5-42.3l-28.4-14.5
		c-15.6-8-29.1-14.6-29.7-14.6C741.7,151.1,723.7,159.1,702.3,168.7z M792.1,321.5c-4.2,2.1-12.5,5.9-18.4,8.6
		c-5.9,2.6-17.2,7.7-25,11.3l-14.2,6.5l-0.3,37.2c-0.2,20.4-0.9,37.1-1.7,37c-1.7-0.3-28.3-13.9-55.1-28.3
		c-19.4-10.3-20.6-10.8-25.1-8.6c-2.6,1.3-18.3,8.4-34.9,15.6c-16.6,7.3-30.7,13.7-31.3,14.4c-0.7,0.6,32.6,18.6,74.1,40.2
		l75.3,39.1l32.2-16.7c17.7-9.1,32.7-17.5,33.4-18.5c1.6-2.4,1.4-141.8-0.1-141.6C800.2,317.8,796.3,319.4,792.1,321.5z M614,485.1
		c-5.6,2.4-11.2,4.8-16.7,7.2c-16.8,7.2-13.5,7.5-33.6-2.4c-13.4-6.7-19.1-8.7-21.6-7.7c-1.9,0.8-18,8-35.8,16.1
		c-17.8,8.1-33,14.8-33.8,14.8c-7.5,0,5,7.4,53,31.6l56.3,28.4l23.7-11.7c13-6.4,39.3-19.3,58.3-28.6c19.1-9.3,34.4-17.1,34.2-17.5
		c-0.3-0.3-16.3-8.5-35.6-18.3l-35-17.7L614,485.1z"/>
</g>
</svg>
