<?xml version="1.0" encoding="utf-8"?>
<!-- Generator: Adobe Illustrator 27.9.2, SVG Export Plug-In . SVG Version: 6.00 Build 0)  -->
<svg version="1.1" id="katman_1" xmlns="http://www.w3.org/2000/svg" xmlns:xlink="http://www.w3.org/1999/xlink" x="0px" y="0px"
	 viewBox="0 0 2336 640.3" style="enable-background:new 0 0 2336 640.3;" xml:space="preserve">
<style type="text/css">
	.st0{fill:#282828;}
</style>
<g>
	<path class="st0" d="M932.7,418.8v105h17.5v-46.6h49.7v46.6h17.5v-105h-17.5v43.5h-49.7v-43.5H932.7z M1081.4,462.1v-28.5h58.5
		v-14.8h-75.9v105h77.4V509h-59.9v-31.9h51.3v-15H1081.4z M1184.2,523.8h41.3c29.1,0,46.3-18.7,46.3-52.4s-17.8-52.6-46.7-52.6
		h-40.8V523.8z M1201.7,433.6h22.5c23.5,0,30.1,17.6,30.1,37.8s-6.6,37.6-30.1,37.6h-22.5V433.6z M1387.6,451.5h17.5
		c-3.2-20.1-17.9-35-45.2-35c-30.3,0-49.4,23.1-49.4,54.6c0,31.7,17,54.8,47.5,54.8c15.9,0,25.7-6,32.8-16.6h0.3l3.8,14.4h12v-55.1
		h-47.5v14.1h29.7c-0.1,16.7-13.4,28.2-30,28.2c-23.9,0-31.1-20-31.1-39.8c0-19.7,9.3-39.7,31.7-39.7
		C1375.3,431.6,1385,439,1387.6,451.5z M1469.3,462.1v-28.5h58.5v-14.8h-75.9v105h77.4V509h-59.9v-31.9h51.3v-15H1469.3z
		 M1646.3,464.2v-30.6h56v-14.8h-73.5v105h17.5v-44.7h45.4v-15H1646.3z M1824.9,488v-69.2h-17.3V488c0,15.9-7.9,23.1-24.1,23.1
		c-16,0-23.9-7.2-23.9-23.1v-69.2H1742V488c0,22.9,12.2,38,41.4,38C1812.7,526,1824.9,510.9,1824.9,488z M1870.2,523.8h17.5v-78.6
		h0.3l47.5,78.6h19.4v-105h-17.5v78.9h-0.3l-47.3-78.9h-19.5V523.8z M2001.4,523.8h41.3c29.1,0,46.3-18.7,46.3-52.4
		s-17.8-52.6-46.7-52.6h-40.8V523.8z M2018.9,433.6h22.5c23.5,0,30.1,17.6,30.1,37.8s-6.6,37.6-30.1,37.6h-22.5V433.6z"/>
	<path class="st0" d="M1100.3,217.9c5.7,0,10.9,1.9,15.3,6c4.1,4.4,6,9.3,6,15.4c0,29.6-10.4,54.6-31.4,75.4
		c-20.8,20.8-45.6,31.5-75.1,31.5c-29.5,0-54.4-10.4-75.1-31.5c-20.8-20.8-31.4-45.8-31.4-75.4c0-29.6,10.4-54.6,31.4-75.4
		c20.8-20.8,45.6-31.5,75.1-31.5c26,0,48.6,8.2,68.3,25c4.4,3.8,7.1,8.8,7.7,14.5c0.3,6-1.1,11-4.9,15.6c-3.8,4.4-8.7,6.9-14.5,7.4
		c-6,0.5-10.9-1.1-15.6-4.9c-11.7-9.9-25.4-15.1-41-15.1c-17.8,0-32.5,6.3-45.1,18.9c-12.6,12.3-18.9,27.4-18.9,45.3
		c0,17.8,6.3,32.6,18.9,45.3c12.3,12.6,27.3,18.9,45.1,18.9c13.7,0,26.2-3.8,37.2-11.8c10.9-8,18.6-18.1,23.2-30.7h-42.1
		c-6,0-10.9-2.2-15.3-6.3c-4.1-4.1-6-9.1-6-15.1c0-6,1.9-11,6-15.4c4.4-4.1,9.3-6,15.3-6H1100.3z"/>
	<path class="st0" d="M1258.5,346c-29.5,0-54.4-10.4-75.1-31.5c-20.8-20.8-31.4-45.8-31.4-75.4c0-29.6,10.4-54.6,31.4-75.4
		c20.8-20.8,45.6-31.5,75.1-31.5c29.5,0,54.4,10.4,75.1,31.5c20.8,20.8,31.4,45.8,31.4,75.4c0,29.6-10.4,54.6-31.4,75.4
		C1312.9,335.6,1288,346,1258.5,346z M1258.5,175.1c-17.8,0-32.5,6.3-45.1,18.9c-12.6,12.3-18.9,27.4-18.9,45.3
		c0,17.8,6.3,32.6,18.9,45.3c12.3,12.6,27.3,18.9,45.1,18.9c17.8,0,32.5-6.3,45.1-18.9c12.6-12.3,18.9-27.4,18.9-45.3
		c0-17.8-6.3-32.6-18.9-45.3C1291,181.4,1276.2,175.1,1258.5,175.1z"/>
	<path class="st0" d="M1396.8,175.1c-6,0-10.9-1.9-15.3-6c-4.1-4.4-6-9.3-6-15.4s1.9-11,6-15.4c4.4-4.1,9.3-6,15.3-6h145.9
		c6,0,10.9,1.9,15.3,6c4.1,4.4,6,9.3,6,15.4s-1.9,11-6,15.4c-4.4,4.1-9.3,6-15.3,6H1491v149.8c0,6-1.9,11-6,15.1
		c-4.4,4.4-9.3,6.3-15.3,6.3c-6,0-10.9-2.2-15-6.3c-4.4-4.1-6.3-9.1-6.3-15.1V175.1H1396.8z"/>
	<path class="st0" d="M1725.1,132.3c17.8,0,32.5,6.3,45.1,18.9c12.6,12.3,18.8,27.4,18.8,45.3c0,13.2-3.8,25.2-11.2,36.2
		c15.6,12.9,23.5,29.1,23.5,49.1c0,17.8-6.3,32.6-18.9,45.3c-12.3,12.6-27.3,18.9-45.1,18.9h-109.6c-6,0-10.9-2.2-15-6.3
		c-4.4-4.1-6.3-9.1-6.3-15.1V153.7c0-6,2.2-11,6.3-15.4c4.1-4.1,9-6,15-6H1725.1z M1649.2,217.9h76c6,0,10.9-2.2,15-6.3
		c4.4-4.1,6.3-9.1,6.3-15.1s-2.2-11-6.3-15.1c-4.1-4.4-9-6.3-15-6.3h-76V217.9z M1737.4,303.5c6,0,10.9-2.2,15-6.3
		c4.4-4.1,6.3-9.1,6.3-15.1s-2.2-11-6.3-15.1c-4.1-4.4-9-6.3-15-6.3h-88.3v42.8H1737.4z"/>
	<path class="st0" d="M1883.4,346c-6,0-10.9-1.9-15.3-6c-4.1-4.4-6-9.3-6-15.4V153.7c0-6,1.9-11,6-15.4c4.4-4.1,9.3-6,15.3-6
		c5.7,0,10.9,1.9,15.3,6c4.1,4.4,6,9.3,6,15.4v171.1c0,6-1.9,11-6,15.4C1894.3,344.1,1889.1,346,1883.4,346z"/>
	<path class="st0" d="M1962.3,175.1c-6,0-10.9-1.9-15.3-6c-4.1-4.4-6-9.3-6-15.4s1.9-11,6-15.4c4.4-4.1,9.3-6,15.3-6h145.9
		c6,0,10.9,1.9,15.3,6c4.1,4.4,6,9.3,6,15.4s-1.9,11-6,15.4c-4.4,4.1-9.3,6-15.3,6h-51.6v149.8c0,6-1.9,11-6,15.1
		c-4.4,4.4-9.3,6.3-15.3,6.3c-6,0-10.9-2.2-15-6.3c-4.4-4.1-6.3-9.1-6.3-15.1V175.1H1962.3z"/>
	<path class="st0" d="M233.1,343.3c14.7,0,26.6-11.9,26.6-26.7c0-14.7-11.9-26.7-26.6-26.7c-14.7,0-26.6,11.9-26.6,26.7
		C206.5,331.4,218.4,343.3,233.1,343.3z"/>
	<path class="st0" d="M417.5,451.7c14.7,0,26.6-11.9,26.6-26.7c0-14.7-11.9-26.7-26.6-26.7c-14.7,0-26.6,11.9-26.6,26.7
		C391,439.7,402.9,451.7,417.5,451.7z"/>
	<path class="st0" d="M799.6,296.6c-6.6-6.1-12.5-6.9-17.8-6.4c-1.1,0-1.9-0.3-2.9-0.3H496.3c12.2-60.6,65.9-106.2,129.7-106.2
		c35.1,0,68.3,13.6,93.3,38.4c10.1,10.1,26.6,10.9,36.9,1.3c11.2-10.4,11.4-27.8,0.8-38.4c-35.1-35.2-81.6-54.4-131-54.4
		c-43.9,0-84.5,15.5-116.2,41.4c-14.6,11.2-25.5,11.7-48.6,11.7h-44.4c-14.9,0-26.8,12.3-26.6,27.5c0.3,14.4,13,25.6,27.4,25.6H488
		l-26.8,4.8c-3.2,0.5-6.1,2.7-7.2,5.9c-3.7,9.6-6.4,19.7-9,29.9c-2.4,8.8-15.7,12.8-34.8,12.8h-96.5c-14.6,0-27.1,11.2-27.6,25.9
		c-0.5,14.9,11.7,27.5,26.6,27.5h166.7l-27.4,4.5c-4.8,0.8-7.7,5.3-6.6,10.1C464.1,441,537.7,503.2,626,503.2
		c99.1,0,180.5-78.7,185.3-177.2C811.5,314.8,807.5,304.1,799.6,296.6z M626,449.5c-64.1,0-117.5-45.6-129.7-106.2h259.4
		C743.2,403.9,689.8,449.5,626,449.5z"/>
</g>
</svg>
