<?xml version="1.0" encoding="utf-8"?>
<!-- Generator: Adobe Illustrator 27.9.2, SVG Export Plug-In . SVG Version: 6.00 Build 0)  -->
<svg version="1.1" id="Calque_1" xmlns="http://www.w3.org/2000/svg" xmlns:xlink="http://www.w3.org/1999/xlink" x="0px" y="0px"
	 viewBox="0 0 1920 364.9" style="enable-background:new 0 0 1920 364.9;" xml:space="preserve">
<style type="text/css">
	.st0{fill:#73377C;}
	.st1{fill:#A8736D;}
</style>
<path class="st0" d="M1920,364.9V88.3c-2.5,0.6-4.6,1.8-6.5,2.8c-4.7,2.6-9,5.4-14,7.9c-7.1,3.5-7.1,2.9-10.4-1.7
	c-2.4-4.1-4.1-8.4-6-12.6c-5.1-10.5-8.2-21.3-12-32.1c-1.8-3.7-3.5-13.7-13.5-11.8c-4.6,0.9-7.9,3.3-12.5,4.2
	c-0.9-0.5-1.5-1.3-2.1-1.9c-4.7-6.3-8.1-7.7-18.5-10.7c-1.3-0.3-3.1-0.2-4,0.5c-3.2,2.4-5.6,5.1-8,7.7c-3.5,4-6.8,8.1-9.7,12.3
	c-3.7,5.4-6.5,11-12.1,15.9c-1.4,1.1-2.9,2.3-5.1,2.7c-4.2,0.6-8.6,0.1-12.8,0.2c-15.4,0.1-18.7,1-25.8,8.9
	c-3.2,3.1-18,18-23.4,17.9c-8.5-0.5-16.4-3.2-25.2-2.9c-7.7,0.1-12.5,4-16.5,7.3c-2.5,2-5,3.9-7.8,5.7c-10.3,6.5-25.4,10-40.3,11.8
	c-7,0.8-14.2,0.8-21.2,1.5c-1,0.1-1.9,0.2-2.9,0.2c-5-1.2-10-2.3-15-3.5c-10.4-2-21.2-3.2-31.8-4.8c-11.1-1.7-21.9-4.1-33.2-5.5
	c-10.6-1.3-21.5-2.1-32.2-2.8c-32.3-2.9-64.9-1.7-97.4-2c-17.6-0.2-34.9-1.3-52.5-1.4c-12.1-0.3-24.3,0.5-36.2-1.1
	c-10.6-1.8-18.2-16.7-28.5-16.9c-5.2-0.4-12.3,3.1-16.8,2l0.1,0c-1.1-0.4-1.7-1.2-2.3-1.8c-1.1-1.3-2-2.7-2.9-4.1
	c-3.2-5.4-5.2-11.6-9.9-16.8c-1.2-1.2-3.6-0.9-5.7-0.7c-5.1,0.5-8.4,3-10.6,5.5c-7.3,8.1-12.6,16.8-21.6,24.4
	c-3.2,2.6-6.4,5.2-10.6,7.3c-2.1,0.9-4,1.8-6.8,1.9c-0.3,0-1,0-1.6,0l-0.5-0.1c-0.5-0.1-1.1-0.1-1.6-0.2c-7.8-1.6-14.6-4.5-22.4-6.1
	c-5.4-1.1-11.2-1.9-17-1.6c-5.8,0.2-11.2,1.6-16,3.3c-6.2,2.1-11.4,5.1-17.8,7.1c-5.3,1.5-11.1,2.3-17,2.4
	c-18.7,0.3-37.5-0.3-55.9-2.3c-21.9-2.1-43.5-4.7-65.1-7.7c-19.6-2.5-38.7-5.9-58-9c-26.1-3.9-51.8-8.7-77.1-14.1
	c-11.4-2.4-22.2-5.6-33.7-7.8c-9.9-2-20.4-3.4-29.6-6.4c-7-2-9.9-6.3-12.3-10.3c-1.9-3.2-3.8-6.6-5.7-10.1c-1.9-3.1-3.1-6.6-7.4-8.9
	c-4.4-2-10.3-0.6-15.3-1.1c-7.8-0.4-14.1-13.1-17-17.1c-2.1-3.2-4.3-6.5-7.4-9.4c-2.1-2.3-7.2-3.2-10-1c-4.8,4.1-6.5,9-9,13.6
	c-1.6,3.1-3.2,6.2-5.1,9.3c-5.3,9-7.7,6.8-18.7,11.9c-6.6,3.6-7.7,9.4-10.5,14.1c-1.4,2.7-2.8,5.3-4.4,7.9c-1.9,2.8-3.4,6.1-6.7,8.6
	c-5.2,2.9-18.6,1.7-25.7,1.9c-6.9,0.1-13.7,0.6-20.5,1.2c-5.6,0.4-10.9,0.8-14.3,3.7c-4.9,4.2-6.6,9.2-9.7,13.9
	c-8.3,13.7-18.6,21.6-43.5,26.3c-15,3.2-31.2,2.2-46.9,2.4c-21.1,0.1-42.2,0-63.3,0.3c-10,0-20,0.6-30,0.4
	c-7.1-0.3-14.1-0.9-21.2-1.5c-11.9-1.1-23.8-2.2-35.2-4.3c-10.4-1.9-20.8-3.9-31.3-5.6c-10.5-1.7-20.6-4.1-31.1-5.9
	c-9.2-1.7-18.9-2.7-27.4-5.4c-6.8-2.8-10.3-7.3-14.6-11.3c-2.1-2-4.2-4-7.5-5.4c-8.2-3.3-20.2,0.4-28.9,1.3
	c-2.6,0.2-5.8,0.7-7.8-0.5c-3.2-2.4-4.7-5.5-6.6-8.3c-5.1-7.5-9.2-15-13-22.8c-3.1-5.7-4.3-12-10.9-16.8c-8.7-4.7-16.8,3.9-20.5,7.6
	c-8.1,8.8-15.9,17.7-22.4,26.9c-4.3,6.2-7.6,12.6-12.7,18.6c-2.5,2.6-5.5,5.9-11.4,6.1c-9.6,0.2-19.4-1.6-28.9-0.3
	c-5.8,0.9-10.4,3.2-14.8,5.3c-4.1,2-8.3,3.9-12.8,5.7c-8.7,3.2-18.5,5.8-28.9,6.4c-3.6,0.1-7.1-0.1-10.6-0.2v258.8H1920z"/>
<path class="st1" d="M1920,364.9v-212c-4,0.6-8,1.4-11.9,2.5c-8.4,2.1-16.8,4-25.2,6c-7.7,0.9-15.6,0.5-23.4,0.3
	c-7.2-0.3-13.9-2.4-20.7-4c-15.5-2.6-31.1-5.5-46.3-9.3c-8.2-1.8-16.3-3.7-24.2-6.2c-5.2-1.3-10.5-2.4-16-1.7
	c-6.5,0.8-12.7,1.1-19.4,0.9c-1.6-0.1-3.2-0.3-4.8-0.7c-2.3-0.7-4.4-1.7-6.6-2.5c-4.4-1.6-9.1-3-12.7-5.7c-5-3.9-9.7-8.2-15.2-11.5
	c-4.7-2.4-9.4-4.9-14.3-7.1c-2.4-0.9-4.9-2.6-7.2-3.8c-3.9-1.8-7.2-4.3-11.1-6.2c-1-0.5-2-0.6-2.8-0.3c-1.4-0.9-2.8-1.7-4.4-2.2
	c-3.3-0.9-6.7-1.3-10.2-1.5c-1.7-2.9-3.7-5.7-6.1-8.3c-3.6-4-7.7-7.6-11.4-11.5c-6.3-7-12.7-14.7-22.9-17.7c-8.6-3-16.7-7-25.8-9.1
	c-20.8-4.8-42.7-6.5-64.1-4.4c-18.1,2-35.6,7-52.6,12.6c-9.8,3.6-19.1,8.2-28.4,12.7c-8,3.9-15.1,8.9-22.4,13.6
	c-6,3.8-12.2,7.6-17.4,12.2c-5.5,4.9-9.8,10.6-14,16.3c-0.7,1-1.8,2.5-3,4.2c-5,0.3-9.9,1.2-14.1,3.7c-3,1.8-4.7,4.7-7.5,6.8
	c-3.2,2.3-7,4-10.4,6.1c-4.7,2.8-8.4,6.4-11.4,10.5c-12.3,14.7-17.2,8.7-35.4,8.3c-4.8-0.3-9.6-0.6-14.5-0.9
	c-5.5-0.3-11.1-1.2-16.6-0.9c-8.8,0.4-16.6,3.9-24.6,6.5c-6.1,1.5-12.2,3-18.5,3.7c-11.6,0-23.2-1.5-34.8-2c-3.9-0.2-7.8-1-11.6,0.1
	c-1.5,0.4-3.5,1.3-3.2,2.9c0,0.1,0.1,0.2,0.1,0.3c-3.5,0.4-7,0.6-10.5,0.3c-0.8,0-1.7-0.1-2.5-0.2c-1.5-7.2-3.3-14.3-5.4-21.4
	c-1.7-8.9-3.9-17.8-7-26.5c-1.1-3.5-2.3-6.9-4-10.2c-4.4-8.1-11.2-15.3-19-21.3c-4.6-3.7-10.4-5.7-16.3-7.4
	c-8.3-2.6-16.9-4.2-25.5-6.1c-12.9-2.7-25.6-6-38.7-7.8c-6.4-0.8-12.8-1.5-19.2-1.9c-11.1-0.8-22.3,0-33.4,0.4
	c-9,0.3-18.1,0.8-27,2.1c-8.6,1.1-17,3.2-25.5,4.7c-30.3,5.2-60.9,11.3-88.8,22.8c-12,4.8-24.5,8.8-36.2,14.2
	c-11.8,5.2-23.9,10-34.8,16.6c-2.3,1.5-4.6,3-6.9,4.5c-1.4,0.1-2.8,0.2-4.2,0.3c-6.3,0.3-12.6,0.1-18.8,0.8
	c-5.3,0.8-10.4,1.8-15.8,2.4c-7.5,1.1-15.1,1.4-22.6,0.3c-7.7-2-15.6-3.9-23.1-6.8c-3.6-1.5-7.7-3.6-11.7-4.9
	c-6.4-2.1-13.3-2.8-20-3.6c-5.3-0.5-10.7-0.5-16.1-0.8c-2.4-0.2-4.8-0.3-7.2-0.4c-0.1-0.1-0.2-0.2-0.3-0.3
	c-3.7-3.8-7.6-7.9-12.9-10.2c-8.3-3.4-18-3.3-27.1-2.8c-13.6,1.2-27.3,2-40.7,4.1c-6.8,0.8-13.6,1.4-20.3,2.6
	c-10.3,2-20.7,3.8-31.4,3c-13.4-0.3-26.3-4.1-38.2-9.3c-8.4-3.7-17.2-5.9-26.2-8.6c-5-1.5-9.9-3.2-15.2-3.8
	c-12.3-0.7-23.7,3.3-35.9,4.8c-3.4-10.5-26.3,2.7-31.5,7c-9,6.6-16,14.9-20.7,24c-2.3-0.3-4.7-0.5-7-0.8c-0.7-0.1-1.5-0.2-2.2-0.3
	c-2.4-0.3-4.9-0.4-7.3-0.3c-5.9,0.6-16.1,2.8-16.9,8.8c0,0.1,0,0.2,0,0.3c-1.6,1.1-3.2,2.2-4.7,3.3c-2.5,1.7-5.1,3.2-7.3,5.1
	c-2.4,2-4.4,4.4-6.7,6.6c-3.2,3-7.1,5.2-10.7,7.8c-8.7,6.3-9.3,8.9-21.6,10.5c-4.8,0.9-9.7,0.8-14.5,1.2c-5.6,0.4-10.9,2-15.8,4.3
	c-7.6,3.1-12.9,8.9-18.7,13.8c-2.7,1.9-5.6,3.1-8.6,4.9c-3.9,2.3-7.5,5.1-12.1,6.6c-6.3,1.7-13,1.5-19.5,2.4
	c-6,0.6-11.8,1.1-17.9,1.4c-14,0.5-28,0.4-41.9-0.2c-6.2-0.4-12.3-1.1-18.5-0.9c-6.8,0.1-13.5-0.3-20.3-0.2
	c-11.8,0.4-23.5,1.1-35.3,1c-8.3,0-16.6,0.5-24.9,0.2c-0.1,0-0.2,0-0.2,0v163.3H1920z"/>
</svg>
