<?xml version="1.0" encoding="utf-8"?>
<!-- Generator: Adobe Illustrator 27.9.2, SVG Export Plug-In . SVG Version: 6.00 Build 0)  -->
<svg version="1.1" id="Calque_1" xmlns="http://www.w3.org/2000/svg" xmlns:xlink="http://www.w3.org/1999/xlink" x="0px" y="0px"
	 viewBox="0 0 219.3 244.1" style="enable-background:new 0 0 219.3 244.1;" xml:space="preserve">
<style type="text/css">
	.st0{fill:#8664C2;}
	.st1{fill:#83504A;}
	.st2{fill:#674541;}
	.st3{fill:#ECD002;}
	.st4{fill:#FDF08F;}
	.st5{fill:#FFFFFF;}
	.st6{fill:#ECD800;}
	.st7{fill:#2C2C2C;}
	.st8{fill:#7B7A6C;}
	.st9{fill:#C3A3FC;}
	.st10{fill:#DE8EE1;}
</style>
<g>
	<path class="st0" d="M212.8,64.3c0.9,4.2,1.2,8.6,1.1,12.9c-0.1,1.6-0.3,3.1-0.6,4.7c-0.4,2.4-0.9,4.8-1.8,7.1
		c-1.1,3.1-2.3,6.1-3.7,9c-1.6,3.8-3.5,7.6-6.5,10.6c-1.2,1.2-2.4,2.4-3.7,3.4c-0.9,0.7-1.9,1.3-2.7,2.1c-3,3.1-7,5-10.6,7.3
		c-0.2,0.1-0.3,0.2-0.5,0.3c0.3,0.4,0.6,0.8,1,1.2c2.9,3.5,5.8,7.2,8,11.3c1.7,3.3,2.8,6.8,3.6,10.4c0.6,2.7,1.2,5.5,1.2,8.3
		c0.1,2.7,0.2,5.5-0.1,8.2c-0.4,3.7-0.9,7.4-2,10.9c-0.6,2.1-1.6,4-2.5,5.9c-0.4,0.8-0.8,1.6-1.2,2.4c0,0.2,0,0.3,0,0.5
		c0.5,6.1-0.3,12.1-0.8,18.1c-0.1,2.2-0.4,4.4-0.4,6.7c0.3,1.6,2.2,2.5,3.3,3.5c3.2,2.6,6.2,5.4,9.8,7.4c1.4,0.8,2.8,1.7,4.1,2.8
		c1.1,1,2.4,1.9,3.7,2.8c5,3.9,14,9.8,1.7,10.9c-2.3,0.2-4.6,0.3-6.8,0.8c-1.2,0.2-2.4,0.3-3.7,0.4c-1.6,0.1-3.2,0.4-4.8,0.6
		c-2.3,0.2-4.7,0.1-7,0.1c-0.7,0-1.4,0.1-2.1,0.1c-0.8,0.1-1.5,0.1-2.3,0.1c-2.6-0.1-4.8-1.5-7.4-1.5c-2.3,2-4.9,3.7-7.8,4.4
		c-1.6,0.4-3.2,0.8-4.8,1.1c-1.7,0.3-3.4,0.3-5.1,0.4c-1.7,0-3.5,0.1-5.2,0.5c-0.9,0.2-1.7,0.5-2.5,0.8c-2.4,0.8-4.8,1.2-7.2,1.8
		c-2.7,0.6-5.4,1.6-8.1,1.6c-0.6,0-1.1,0-1.7-0.1c-3.1-0.5-5-2.7-6.4-5.3c-0.1-0.1-0.1-0.3-0.2-0.4c0-0.1-0.1-0.1-0.1-0.2
		c0,0,0-0.1-0.1-0.1c0-0.1-0.1-0.2-0.1-0.3c0-0.1-0.1-0.2-0.1-0.3c-0.1-0.2-0.2-0.4-0.3-0.6c0-0.1-0.1-0.2-0.1-0.3c0,0,0,0,0,0
		c-0.1-0.2-0.2-0.4-0.2-0.6c-0.1-0.3-0.2-0.6-0.3-0.8c-0.1-0.1-0.1-0.3-0.2-0.4c-0.1-0.3-0.3-0.7-0.4-1c-0.6-1.3-1.1-2.7-1.7-4
		c-1.6-3-3.1-6.1-4.7-9.2c-0.8-1.5-1.7-3-2.3-4.6c-1.2-3.2-2.3-6.4-3.5-9.6c-1.1-3.1-2.4-6.3-2.7-9.6c0-0.1,0-0.2,0-0.2
		c0-1,0.5-1.9,1.5-1.9c0.3,0,0.5,0.1,0.9,0.2c5.6,2.1,6.6,4.5,10.2,8.8c-0.8-2.2-1.3-4.5-1.8-6.7c-0.3-1.6-1.2-5.6,1.1-6.1
		c1,0.1,1.9,0.6,2.9,1c4.7,2.2,7.5,6.7,10.2,10.8c0-2.7,0.1-5.3,0.5-8c0,0-0.1-0.1-0.1-0.1c-1.2-1.2-1.6-3.1-2.8-4.3
		c-0.9-0.8-2.1-1.1-3.1-1.7c-0.3-0.2-0.5-0.6-0.5-0.9c0-0.8,0.8-1.1,1.3-1.4c0.4-0.3,0.8-0.6,1.2-1c1.8-2.2,2.8-5.1,2.6-7.9
		c-0.1-1.7-0.5-3.5-1.7-4.8c-1.6-1.9-4.2-2.3-6.4-3.2c-1.3-0.5-2.6-1-3.9-1.4c-0.2-0.1-0.5-0.1-0.7-0.2c0,0.3-0.3,0.5-0.7,0.4
		c-1.4-0.4-2.9-0.6-4.4-0.8c-5.1-0.9-10.2-0.7-15.3-0.7c-2.7,0-5.5-0.1-8.2-0.1c-2,0-3.8,0.1-5.7,0.3c-3.6,0.3-7.2,0.5-10.8,0.8
		c-2.4,0.2-4.8,0.7-7.1,1.2c-2,0.3-3.9,0.8-5.7,1.7c-2.5,1-4.2,2.6-4.7,5.3c-0.5,3-0.6,6.6,1.6,9c0.9,1.1,1.9,2.1,2.8,3.1
		c0.6,0.7,1.3,1.6,0.7,2.5c-0.2,0.4-0.5,0.6-0.9,0.8c-1.2,0.6-2.4,1-3.6,1.7c-1.8,1.2-3,3.1-4.2,4.9c-1.6,2.5-2.6,5.3-3.6,8
		c-1.2,3.7-1.6,7.7-1.4,11.6c0.1,1.9,0.3,3.9,0.7,5.8c0.2,1.2,0.5,2.4,1.2,3.5c0.6,1,1.5,1.8,2.3,2.6c0,0,0.1,0,0.1,0.1
		c0,0,0,0,0.1,0.1c0.4,0.4,0.8,0.8,1.1,1.2c1.3,1.5,2.6,3.2,4.3,4.3c3.2,2.1,6.9,2.6,10.4,3.5c2.8,0.6,5.7,1,8.6,1.4
		c0.5,0,1.1,0,1.6,0c0.2,0,0.3,0,0.5,0c1.1,0,2.3-0.1,3.4-0.2c0.2,0,0.5,0,0.7,0s0.5,0,0.7,0c0.2,0,0.3,0,0.5,0c0.1,0,0.3,0,0.4,0
		c0,0,0.1,0,0.1,0c0.1,0,0.2,0,0.3,0c0.1,0,0.2,0,0.2,0c0,0,0.1,0,0.1,0c0.1,0,0.2,0,0.3,0c0.2,0,0.3,0,0.5,0c0.1,0,0.1,0,0.2,0
		c3.9-0.1,7.7,0.4,11.6,0.6c2.5,0.1,5,0,7.5-0.2c1.6-0.1,3.2-0.3,4.9-0.1c2.5,0.1,5,0.4,7.5,0.2c0.1,0,0.2,0,0.2,0
		c0.1,0,0.2,0,0.2,0c0.2,0,0.3,0,0.5-0.1c0.1,0,0.1,0,0.2,0c1.2-0.2,2.3-0.4,3.5-0.6c0.1,0,0.2,0,0.3-0.1c0,0,0,0,0,0
		c0.2,0,0.4-0.1,0.6-0.1c0.2,0,0.4,0,0.6,0c0.3,0,0.6,0.4,0.7,0.7c0.3,1.5-1.6,1.5-2.6,1.7c-2.3,0.4-4.6,0.8-6.9,0.6
		c-2.4-0.1-4.8-0.4-7.3-0.3c-1.6,0.1-3.3,0.2-4.9,0.3c-4.1,0.2-8.1-0.2-12.2-0.5c-4-0.2-8.1,0.1-12.1,0.3c-1.6,0-3.2-0.2-4.8-0.5
		c-2.5-0.4-5-0.7-7.4-1.4c-4-0.9-8.2-1.9-11.3-4.8c-1.2-1.1-2.2-2.5-3.3-3.7c-0.2-0.2-0.4-0.4-0.6-0.6c-2.9,0.5-5.7,1.3-8.4,2.3
		c-1.5,0.4-3,0.8-4.4,1.1c-1.6,0.4-3.1,0.9-4.8,1.2c-3.3,0.5-6.6,0.7-9.9,1.3c-2.5,0.5-5.1,0.9-7.6,0.6c-3.2-0.3-6.6-1.3-8.7-3.8
		c-1-1.3-1.6-2.9-2.3-4.4c-1.6-3.8-2.2-7.9-3-11.9c-1.2-4.5-2.2-9-3.5-13.5c-0.7-2.9-1.8-5.7-2.6-8.7c-0.4-1.7-0.8-3.3-1-5
		c-0.2-1.7-0.3-5.1,1.5-6c1-0.4,2.3,0.6,3.1,1.1c2,1.4,2.9,3.7,4.2,5.6c0.9,1.4,1.9,2.6,2.9,3.9c1.4,1.9,2.7,3.9,3.9,6
		c-0.3-2.8-0.9-5.5-1.7-8.2c-0.8-3.1-1.9-6.3-1.8-9.6c0.3-5.4,3.5-3.8,5.8-0.6c1.3,2.1,2.5,4.2,3.7,6.3c1,1.9,2.3,3.4,3.3,5.2
		c0.9,1.6,1.7,3.2,2.4,4.8c0-4.3-0.9-8.5-0.9-12.8c0-1.5,0-3,0.2-4.4c0.1-0.6,0.2-1.4,0.9-1.6c1.1-0.4,2.8,2,3.7,2.7
		c1.1,1.1,2.3,2.1,3.4,3.2c3.1,3.1,4.4,7.3,5.6,11.4c0.2,0.7,0.4,1.3,0.6,2c0.3-0.5,0.5-1,0.8-1.5c1.6-2.8,4.3-4.7,6.9-6.5
		c1.3-0.9,2.4-1.9,3.8-2.7c1.4-0.8,2.9-1.2,4.5-1.7c1.5-0.4,2.9-0.9,4.4-1.3c-0.7-0.9-1.2-1.9-1.4-3.1c-0.7-3.4-0.4-8.6,2.1-11.3
		c1-1.1,2.2-1.8,3.5-2.4c-1.8-0.1-3.7-0.2-5.4-0.7c-0.5-0.1-1-0.2-1.5-0.5c-0.1,0.8-0.1,1.5-0.3,2.3c-0.4,2.3-0.3,5.1-2.2,6.7
		c-4.2,2.9-10.9,2.7-15.8,2.8c-3.3,0.2-6.6,0.7-9.9,0.3c-2.4-0.4-4.8-1.4-7-2.4c-2.3-1-4-3.2-4.7-5.6c-0.3-0.9-1.2-5.4-0.6-7v0
		c-0.2-0.9-0.2-1.8,0.2-2.6c0-0.1-0.1-0.1-0.1-0.2c-1-1.3-1.7-2.4-2.4-3.8c-0.7-1.2-1.2-2.4-1.5-3.7c-0.7-3.9,0.2-8.2,2.3-11.5
		c0.9-1.5,2.2-2.7,3.7-3.7c2.2-1.5,4.5-2.9,7.1-3.6c4-1.2,8.8,0.3,11.5,3.6c0.8,0.2,1.1,1.1,1.3,1.8c0.1,0,0.2,0,0.3,0
		c1.5-0.1,3,0.1,4.5,0.2c3.5,0.2,7,0.4,10.3,1.4c1.7,0.4,2.8,0.8,3.4,2c0.4-0.2,0.9-0.2,1.3-0.2c0.8,0,1.5,0.1,2.3,0.1
		c2.9,0.2,5.8,0.4,8.7,0.4c3.2,0,6.4,0.1,9.6,0.3c1.9,0.1,3.7,0.4,5.6,0.6c0-0.1,0-0.1,0-0.2c0.1-0.3,0.1-0.8,0.1-1.2
		c-2.1-0.1-4.3-0.2-6.4-0.5c-3.1-0.3-6.2-1.3-9.1-2.4c-3.1-0.9-6-2.2-8.7-4c-5.1-3.2-9.5-7-10.5-13.2c-0.8-0.2-1.6-0.3-2.4-0.5
		c-3.8-0.7-7.7-1.5-11.3-3.2c-1.2-0.5-2.4-1.2-3.6-1.9c-1.2-0.7-2.4-1.4-3.3-2.4c-2.8-3-4.9-6.7-5.9-10.7c-0.8-2.7-1.2-5.4-1-8.2
		c0.1-6.1,1.3-13.6,6.8-17.2c2.3-1.6,4.7-3.1,7.1-4.4c1.7-1,3.5-1.9,5.3-2.5c2-0.7,4-1.3,6.1-1.6c0.2,0,0.4-0.1,0.6-0.1
		c-0.4-0.3-0.9-0.6-1.3-1c-1.3-1-6.1-5-5.8-6.8c-2.8-1-5-2.8-4.9-6.1c0.4-3.4,1.6-5.8,3.5-7.6c-0.2-0.9,0.4-2.5,0.6-3.3
		c1-2.7,3-5,5.3-6.7c-0.1-0.1-0.2-0.3-0.2-0.5c0.1-0.9,0.7-1.6,1.2-2.3c0.8-1.2,1.6-2.5,2.6-3.5c1.2-0.9,2.7-1.5,4.1-2.2
		c1.2-0.6,2.5-0.9,3.7-1.2c0.2-1.8,1.6-4.4,2.1-5.7c1.7-4.2,4.1-8.1,7.2-11.5c2.3-2.5,4.6-4.9,7.3-7c2.8-2.1,6.3-2.9,9.6-3.7
		c2.5-0.6,5.1-0.2,7.6,0.1c1.7,0.3,3.4,0.6,5,1.3c2.2,1.1,4.2,2.7,6.1,4.2c2,1.6,3.5,3.6,4.8,5.7c0.2,0.4,0.6,1,0.9,1.6
		c2.6-2.9,5.3-4.2,9.4-5.2c3.6-0.8,7.3-1.3,11-1.3c1.1,0.1,2.2,0.1,3.3,0.4c0.3-0.3,0.6-0.6,0.9-0.8c2-1.6,4.3-2.8,6.6-4
		c1.5-0.8,3-1.6,4.5-2.3c3.2-1.3,6.5-2.2,10-2.4c5.9-0.6,11.8,0.9,17.2,3.2c2.2,0.9,4.4,1.7,6.5,2.9c2.1,1.2,4.1,2.8,5.9,4.4
		c3,2.4,5.3,5.6,7,9c1.5,3.1,2.2,6.5,2.8,9.9c0.5,2.9,1,5.9,0.5,8.9c0.4,0.2,0.9,0.4,1.3,0.6c1.5,0.7,3,1.5,4.4,2.4
		c2.2,1.3,3.8,3.3,5,5.5c1.8,3.1,3.4,6.3,4.8,9.7C211.5,59,212.4,61.6,212.8,64.3z M157.4,149.6c0.2-1.3-0.7-1.4-1.7-1.5
		c-1.5-0.2-3.2-0.7-4.7-0.1c-1.2,0.6-2.5,1.2-3.5,2.2c-0.5,0.5-1,0.9-1.5,1.4c-1.4,1.1-2.9,1.9-4.5,2.9c-0.4,0.3-0.8,0.5-1.2,0.7
		c0.1-0.1,0.2-0.1,0.3-0.2c1.1-0.9,2.2-2,3.3-3c0.9-0.8,2-1.4,2.9-2.1c0.6-0.4,1.3-1,0.9-1.8c-0.2-0.4-0.7-0.5-1.1-0.4
		c-1.4,0.1-2.8,0.2-4.2,0.3c-3.2,0.1-6.5,0.1-9.7,0.3c-8.2,0.5-16.5-0.7-24.7-0.7c-3.6,0-7.3,0.1-10.9-0.3c-2.7-0.2-5.3-0.6-8-0.7
		c-1.7-0.1-3.4,0.1-5.1,0c-3.6,0-7.2-0.4-10.9-0.8c-1.2-0.1-2.5-0.5-3.7-0.5c-1,0-1.9,0.1-2.9,0.2c-1.8,0.1-3.7,0.3-5.5,0.5
		c-0.2,0-0.5,0-0.8,0c0-0.4-0.2-0.8-0.7-0.9c-0.6,0.1-0.8,0.6-0.9,1.3c-0.1,0.1-0.1,0.2-0.1,0.4c0,0.1,0,0.3,0.1,0.4
		c0,0.7,0.1,1.4,0.1,1.8c0,1,0.1,2,0.1,2.9c0,0.3,0,0.6,0,1c-0.2,0-0.3,0-0.5,0.1c0-1.5,0-3.1-0.1-4.6c0-0.8-0.1-1.7-0.4-2.5
		c-0.5-1.7-2.2-2.3-3.7-3c-1.5-0.7-3.1-0.4-4.7-0.4c-2.3,0-4.5-0.6-6.8-1c-2.1-0.3-3,0.9-1.9,2.8c0.4,1,0.7,2,1.2,2.9
		c0.2,0.3,0.4,0.6,0.6,1c0,0.1,0.1,0.1,0.1,0.2c0.1,0.1,0.2,0.2,0.2,0.3c0.1,0.1,0.1,0.2,0.2,0.2c0,0,0,0,0,0
		c0.1,0.1,0.1,0.1,0.2,0.2c0,0.1,0.1,0.1,0.1,0.2c0.1,0.2,0.2,0.3,0.3,0.5c0.7,1.3,1.2,2.8,1.6,4.3c0.3,0.9,0.6,2.1,0.6,3.1
		c0,0.6,0,1.5-0.8,1.4c-1,0-2-0.2-2.9-0.6c-1.3-0.8-2.2-2.2-3.6-3c-1.6-1.1-2.6,0.5-1.5,1.9c1.3,1.7,2.6,3.5,2.6,5.7
		c0,0.6,0,1.4-0.4,1.9c-0.3,0.1-0.6,0-1,0c-1.6-0.2-3.3-0.4-4.7-1.2c-1.1-0.6-2-1.5-2.9-2.4c-0.4-0.4-0.6-1-1.2-1.1
		c-0.6-0.1-1,0.6-0.9,1.1c0.2,0.6,0.5,1.2,0.7,1.9c0.5,1.9,0.8,4-0.1,5.8c-0.6-0.1-1.2-0.3-1.7-0.5c0,0,0,0,0,0
		c-0.1,0-0.2-0.1-0.3-0.1c-0.1,0-0.2-0.1-0.3-0.1c-0.1,0-0.2-0.1-0.3-0.1c-0.1,0-0.2-0.1-0.3-0.1c-0.1,0-0.2-0.1-0.3-0.1
		c-0.1-0.1-0.2-0.1-0.3-0.2c-0.1-0.1-0.2-0.1-0.3-0.2c-0.2-0.1-0.4-0.2-0.6-0.3c-0.1,0-0.2-0.1-0.3-0.2c0,0,0,0,0,0
		c0,0-0.1-0.1-0.1-0.1c0,0-0.1-0.1-0.1-0.1c-0.4-0.2-0.7-0.5-1.1-0.7c-0.1-0.1-0.2-0.1-0.3-0.2c-1-0.6-2-1.1-3-1.7
		c0.1-0.5-0.4-1.1-0.9-0.9c-0.4,0.2-0.5,0.6-0.5,1c0,0.1,0,0.1,0,0.2c0,0.2,0,0.3,0,0.5c-0.1,2.5,0.3,5.1,1.5,7.3
		c0.9,1.5,2.2,2.6,3.6,3.5c1.1,0.8,2.4,1.5,3.7,1.9c0.1,0.2,0.2,0.4,0.4,0.5c1,0.6,2.1,0.6,3.2,0.6c2.2,0.1,4.4,0.4,6.6,0.4
		c1.5,0.1,3,0,4.5-0.4c1.6-0.2,3.1-0.5,4.6-0.9c2.6-0.5,5.4-0.9,7.8-2.2c0.9-0.7,1.5-1.8,1.9-2.8c0.6-2,0.8-4.1,0.9-6.2
		c0.3-4.1,0.7-8.2,1-12.2c0.1,0,0.1,0.1,0.2,0.1c0.5,0.1,1.1,0.2,1.6,0.3c2.2,0.3,4.5,0.7,6.7,1.1c2.4,0.5,4.8,0.4,7.3,0.5
		c1.2,0.1,2.4,0.2,3.6,0.3c3.7,0.2,7.4,0.9,11.1,0.9c4.5-0.1,9.1,0.4,13.6,0.4c2.8,0,5.5,0.1,8.3,0.2c3.2,0.1,6.3,0.5,9.5,0.6
		c2.3,0,4.7,0,7-0.1c3-0.3,5.9-0.8,9-0.6c0.1,0,0.1,0,0.2,0c0.5,0.2,1.2-0.4,1.6-0.7c0.4-0.3,0.8-0.6,1.2-0.8c0,0-0.1,0.1-0.1,0.1
		c-0.5,0.6,0.1,1.6,0.8,1c0.4,0.4,1,0.3,1.6,0.3c1.2,0.1,2.3,0.1,3.5,0.1c0.3,1,0.5,2,0.6,3c0.1,0.7,0.2,1.7,1,2
		c0.5,0.1,0.9-0.2,1.3-0.4c0.5-0.3,1.1-0.5,1.7-0.7c2.2-0.7,5.3-1.4,6.6-3.4c0.6-1,0.5-2.3,0.6-3.4C156.9,153,157,151.3,157.4,149.6
		z"/>
	<path d="M127.7,240.4c-0.2-0.3-0.2-0.7,0-1c0.2-0.3,0.6-0.3,0.9-0.3c0.5,0,1,0,1.5-0.2c0.8-0.6,1.7-0.2,1.5,0.9
		c-0.3,0.9-1.5,1.1-2.3,1.2C128.9,240.8,128.1,240.9,127.7,240.4z"/>
	<path class="st1" d="M80.6,168.2l-0.1,0l-0.1,0l-0.1,0l-0.1,0l-0.1,0l-0.1,0l-0.1,0l-0.1,0l-0.1,0l-0.1,0l-0.1,0l-0.1,0l-0.1,0
		l-0.1,0l-0.1,0l-0.1,0l-0.1,0l-0.1,0l-0.1,0l-0.1,0l-0.1,0l-0.1,0l-0.1,0l-0.1,0l-0.1,0l-0.1,0l-0.1,0l-0.1,0l-0.1,0l-0.1,0l-0.1,0
		l-0.1,0l-0.1,0l-0.1,0l-0.1,0l-0.1,0l-0.1,0l-0.1,0l-0.1,0l-0.1,0l-0.1,0l-0.1,0l-0.1,0l-0.1,0l-0.1,0l-0.1,0l-0.1,0l-0.1,0l-0.1,0
		l-0.1,0l-0.1,0l-0.1,0l-0.1,0l-0.1,0l-0.1,0l-0.1,0l-0.1,0l-0.1,0l-0.1,0l-0.1,0l-0.1,0l-0.1,0l-0.1,0l-0.1,0l-0.1,0l-0.1,0l-0.1,0
		l-0.1,0l-0.1,0l-0.1,0l-0.1,0l-0.1,0l-0.1,0l-0.1,0l-0.1,0l-0.1,0l-0.1,0l-0.1,0l-0.1,0l-0.1,0l-0.1,0l-0.1,0l-0.1,0l-0.1,0l-0.1,0
		l-0.1,0l-0.1,0l-0.1,0l-0.1,0l-0.1,0l-0.1,0l-0.1,0l-0.1,0l-0.1,0l-0.1,0l-0.1,0l-0.1,0l-0.1,0l-0.1,0l-0.1,0l-0.1,0l-0.1,0l-0.1,0
		l-0.1,0l-0.1,0l-0.1,0l-0.1,0l-0.1,0l-0.1,0l-0.1,0l-0.1,0l-0.1,0l-0.1,0l-0.1,0l-0.1,0l-0.1,0l-0.1,0l-0.1,0l-0.1,0l-0.1,0l-0.1,0
		l-0.8,1.1l0,0l0,0l-0.1,0.1l-0.1,0.1l-0.1,0.1l-0.1,0.1l-0.1,0.1l-0.1,0.1l-0.1,0.1l-0.1,0.1l-0.1,0.1l-0.1,0.1l-0.1,0.1l-0.1,0.1
		l-0.1,0.1l-0.1,0.1l-0.1,0.1l-0.1,0.1l-0.1,0.1l-0.1,0.1l-0.1,0.1l-0.1,0.1l-0.1,0.1l-0.1,0.1l0,0.1l0,0.1l0,0.1l0,0.1l0,0.1l0,0.1
		l0,0.1l0,0.1l0,0.1l0,0.1l0,0.1l0,0.1l0,0.1l0,0.1l0,0.1l0,0.1l0,0.1l0,0.1l0,0.1l0,0.1l0,0.1l0,0.1l0,0.1l0,0.1l0,0.1l0,0.1l0,0.1
		l0,0.1l0,0.1l0,0.1l0,0.1l0,0.1l0,0.1l0,0.1l0,0.1l0,0.1l0,0.1l0,0.1l0,0.1l0,0.1l0,0.1l0,0.1l0,0.1l0,0.1l0,0.1l0,0.1l0,0.1l0,0.1
		l0,0.1l0,0.1l0,0.1l0,0.1l0,0.1l0,0.1l0,0.1l0,0.1l0,0.1l0,0.1l0,0.1l0,0.1l0,0.1l0,0.1l0,0.1l0.1,0.1l0.1,0.1l0.1,0.1l0.1,0.1
		l0.1,0.1l0.1,0.1l0.1,0.1l0.1,0.1l0.1,0.1l0.1,0.1l0.1,0.1l0.1,0.1l0.1,0.1l0.1,0.1l0.1,0.1l0.1,0.1l0.1,0.1l0.1,0.1l0.1,0.1
		l0.1,0.1l0.1,0.1l0.1,0.1l0.1,0.1l0.1,0.1l0.1,0.1l0.1,0.1l0.1,0.1l0.1,0.1l0.1,0.1l0.1,0.1l0.1,0.1l0.1,0.1l0.1,0.1l0.1,0.1
		l0.1,0.1l0.1,0.1l0.1,0.1l0.1,0.1l0.1,0.1l0.1,0.1l0.1,0.1l0.1,0.1l0.1,0.1l0.1,0.1l0.1,0.1l0.1,0.1l0.1,0.1l0.1,0.1l0.1,0.1
		l0.1,0.1l0.1,0.1l0.1,0.1l0.1,0.1l0.1,0l0.1,0l0.1,0l0.1,0l0.1,0l0.1,0l0.1,0l0.1,0l0.1,0l0.1,0l0.1,0l0.1,0l0.1,0l0.1,0l0.1,0
		l0.1,0.1l0.1,0.1l0.1,0.1l0.1,0.1l0.1,0.1l0.1,0.1l0.1,0.1l0.1,0.1l0.1,0.1l0.1,0.1l0.1,0l0.1,0l0.1,0l0.1,0l0.1,0l0.1,0l0.1,0
		l0.1,0l0.1,0l0.1,0l0.1,0l0.1,0l0.1,0l0.1,0.1l0.1,0.1l0.1,0.1l0.1,0.1l0.1,0.1l0.1,0.1l0.2,0.1l0.2,0.1l0.2,0.1l0.1,0l0.1,0l0.1,0
		l0.1,0l0.1,0l0.1,0l0.1,0l0.1,0l0.1,0l0.1,0l0.1,0l0.1,0l0.1,0l0.1,0l0.2,0l0.2,0l0.2,0l0.2,0l0.2,0l0.2,0l0.2,0l0.2,0l0.1,0l0.1,0
		l0.1,0l0.1,0l0.1,0l0.1,0l0.1,0l0.1,0l0.1,0l0.1,0l0.2,0l0.2,0l0.2,0l0.2,0l0.2,0l0.2,0l0.2,0l0.2,0l0.2,0l0.2,0l0.2,0l0.2,0l0.2,0
		l0.2,0l0.2,0l0.2,0l0.2,0l0.2,0l0.2,0l0.2,0l0.2,0l0.2,0l0.2,0l0.2,0l0.2,0l0.2,0l0.2,0h0.2l0.2,0l0.2,0l0.2,0l0.2,0l0.2,0l0.3,0
		l0.3,0l0.2,0l0.2,0l0.2,0l0.2,0l0.2,0l0.2,0l0.2,0l0.3,0l0.3,0l0.3,0l0.3,0l0.3,0l0.3,0l0.2,0l0.2,0l0.2,0l0.2,0l0.2,0l0.2,0l0.2,0
		l0.2,0l0.2,0l0.2,0l0.2,0l0.2,0l0.2,0h0.2l0.2,0l0.2,0l0.2,0l0.2,0l0.1,0l0.1,0l0.1,0l0.1,0l0.1,0l0.2,0l0.2,0l0.2,0l0.2,0l0.2,0
		l0.2,0l0.2,0l0.2,0l0.2,0l0.1,0l0.1,0l0.1,0l0.1,0l0.1,0l0.1,0l0.1,0l0.1,0l0.1,0l0.1,0l0.1,0l0.1,0l0.1,0l0.2,0l0.2,0l0.2,0l0.2,0
		h0.2l0.2,0l0.2,0l0.2,0l0.1,0l0.1,0l0.1,0l0.1,0l0.1,0l0.1,0l0.1,0l0.1,0l0.1,0h0.1l0.2,0h0.2l0.2,0l0.2,0l0.2,0l0.2,0l0.2,0l0.2,0
		l0.2,0l0.2,0l0.2,0l0.2,0l0.2,0h0.2h0.2l0.2,0l0.2,0l0.2,0l0.2,0l0.2,0l0.2,0l0.2,0l0.2,0l0.2,0l0.2,0l0.2,0h0.2h0.2l0.2,0l0.2,0
		l0.2,0l0.2,0l0.2,0l0.2,0l0.2,0l0.2,0l0.2,0l0.2,0l0.2,0l0.2,0l0.2,0l0.2,0l0.2,0l0.2,0l0.2,0l0.2,0l0.2,0l0.2,0l0.3,0l0.3,0l0.3,0
		l0.3,0l0.3,0l0.2,0l0.2,0l0.2,0l0.2,0l0.3,0l0.3,0l0.3,0l0.3,0l0.3,0l0.3,0l0.3,0l0.2,0l0.2,0l0.2,0l0.2,0l0.3,0l0.3,0l0.3,0l0.3,0
		l0.3,0l0.3,0l0.2,0l0.2,0l0.2,0l0.2,0l0.2,0l0.2,0l0.2,0l0.2,0l0.2,0l0.2,0l0.2,0l0.2,0l0.2,0l0.2,0l0.2,0l0.2,0l0.2,0l0.2,0h0.1
		l0.1,0h0.1l0.1,0l0.1,0l0.1,0l0.1,0l0.1,0l0.1,0l0.1,0l0.1,0l0.1,0l0.1,0l0.2,0l0.2,0l0.1,0l0.1,0l0.1,0l0.1,0l0.1,0l0.1,0l0.1,0
		l0.1,0l0.1,0l0.1,0l0.1,0l0.1,0l0.1,0l0.1,0l0.1,0l0.1,0l0.1,0l0.1,0l0.1,0l0.1,0l0.1,0l0.1,0l0.1,0l0.1,0l0.1,0l0.1,0l0.1,0l0.1,0
		l0.1,0l0.1,0l0.1,0l0.1,0l0.1,0l0.1,0l0.1,0l0.1,0l0.1,0l0.1,0l0.1,0l0.1,0l0.1,0l0.1,0l0.1,0l0.1,0l0.1,0l0.1,0l0.1,0l0.1,0l0.1,0
		l0.1,0l0.1,0l0.1,0l0.1,0l0.1,0l0.1,0l0.1,0l0.1,0l0.1,0l0.1,0l0.1,0l0.1,0l0.1,0l0.1,0l0.1,0l0.1,0l0.1,0l0.1,0l0.1,0l0.1,0l0.1,0
		l0.1,0l0.1,0l0.1,0l0.1,0l0.1,0l0.1,0l0.1,0l0.1,0l0.1,0l0.1,0l0.1,0l0.1,0l0.1,0l0.1,0l0.1,0l0.1,0l0.1,0l0.1,0l0.1,0l0.1,0l0.1,0
		l0.1,0l0.1,0l0.1,0l0.1,0l0.1,0l0.1,0l0.1-0.1l0.1-0.1l0.1-0.1l0.1-0.1l0.1-0.1l0.1-0.1l0.1-0.1l0.1-0.1l0.1-0.1l0.1-0.1l0.1-0.1
		l0.1-0.1l0.1-0.1l0.1-0.1l0.1-0.1l0.1-0.1l0.1-0.1l0.1-0.1l0.1-0.1l0.1-0.1l0.1-0.1l0.1-0.1l0.1-0.1l0.1-0.1l0.1-0.1l0.1-0.1
		l0.1-0.1l0.1-0.1l0.1-0.1l0.1-0.1l0.1-0.1l0.1-0.1l0.1-0.1l0.1-0.1l0.1-0.1l0.1-0.1l0.1-0.1l0.1-0.1l0.1-0.1l0.1-0.1l0.1-0.1
		l0.1-0.1l0.1-0.1l0.1-0.1l0.1-0.1l0.1-0.1l0.1-0.1l0-0.1l0-0.1l0-0.1l0-0.1l0-0.1l0-0.1l0-0.1l0-0.1l0-0.1l0-0.1l0-0.1l0-0.1l0-0.1
		l0-0.1l0-0.1l0-0.1l0-0.1l0-0.1l0-0.1l0-0.1l0-0.1l0-0.1l0-0.1l0-0.1l0-0.1l0-0.1l0-0.1l0-0.1l0-0.1l0-0.1l0-0.1l0-0.1l0-0.1l0-0.1
		l0-0.1l0-0.1l0-0.1l0-0.1l0-0.1l0-0.1l0-0.1l0-0.1l0-0.1l0-0.1l0-0.1l0-0.1l0-0.1l0-0.1l0-0.1l0-0.1l0-0.1l0-0.1l0-0.1l0-0.1l0-0.1
		l0-0.1l0-0.1l0-0.1l0-0.1l0-0.1l0-0.1l0-0.1l0-0.1l0-0.1l0-0.1l0-0.1l0-0.1l-0.1-0.1l-0.1-0.1l-0.1,0l-0.1,0l-0.1,0l-0.1,0l-0.1,0
		l-0.1,0l-0.1,0l-0.1,0l-0.1,0l-0.1,0l-0.1,0l-0.1,0l-0.1,0l-0.1,0l-0.1,0l-0.1,0l-0.1,0l-0.1,0l-0.1,0l-0.1,0l-0.1,0l-0.1,0l-0.1,0
		l-0.1,0l-0.1,0l-0.1,0l-0.1,0l-0.1,0l-0.1,0l-0.1,0l-0.1,0l-0.1,0l-0.1,0l-0.1,0l-0.1,0l-0.1,0l-0.1,0l-0.1-0.1l-0.1-0.1l-0.1-0.1
		l-0.1-0.1l-0.1-0.1l-0.1-0.1l-0.1-0.1L131,172l-0.1-0.1l-0.1,0l-0.1,0l-0.1,0l-0.1,0l-0.1,0l-0.1,0l-0.1,0l-0.1,0l-0.1,0l-0.1,0
		l-0.1,0l-0.1,0l-0.1,0l-0.1,0l-0.1,0l-0.1,0l-0.1-0.1l-0.1-0.1l-0.1-0.1l-0.1-0.1l-0.1-0.1l-0.1-0.1l-0.1-0.1l-0.1,0l-0.1,0l-0.1,0
		l-0.1,0l-0.1,0l-0.1,0l-0.1,0l-0.1,0l-0.1,0l-0.1,0l-0.1,0l-0.1,0l-0.1,0l-0.1,0l-0.1,0l-0.1,0l-0.1,0l-0.1,0l-0.1,0l-0.1,0l-0.1,0
		l-0.1,0l-0.1,0l-0.1,0l-0.1,0l-0.1,0l-0.1,0l-0.1,0l-0.1,0l-0.1,0l-0.1,0l-0.1,0l-0.1,0l-0.1,0l-0.1,0l-0.1,0l-0.1,0l-0.1,0l-0.1,0
		l-0.1,0l-0.1,0l-0.1,0l-0.1,0l-0.1,0l-0.1,0l-0.1,0l-0.1,0l-0.1,0l-0.1,0l-0.1,0l-0.1,0l-0.1,0l-0.1,0l-0.1,0l-0.1,0l-0.1,0l-0.1,0
		l-0.1,0l-0.1,0l-0.1,0l-0.1,0l-0.1,0l-0.1,0l-0.1,0l-0.1,0l-0.1,0l-0.1,0l-0.1,0l-0.1,0l-0.1,0l-0.1,0l-0.1,0l-0.1,0l-0.1,0l-0.1,0
		l-0.1,0l-0.1,0l-0.1,0l-0.1,0l-0.1,0l-0.1,0l-0.1,0l-0.1,0l-0.1,0l-0.1,0l-0.1,0l-0.1,0l-0.1,0l-0.1,0l-0.1,0l-0.1,0l-0.1,0l-0.1,0
		l-0.1,0l-0.1,0l-0.1,0l-0.1,0l-0.1,0l-0.1,0l-0.1,0l-0.1,0l-0.1,0l-0.1,0l-0.1,0l-0.1,0l-0.1,0l-0.1,0l-0.1,0l-0.1,0l-0.1,0l-0.1,0
		l-0.1,0l-0.1,0l-0.1,0l-0.1,0l-0.1,0l-0.1,0l-0.1,0l-0.1,0l-0.1,0l-0.1,0l-0.1,0l-0.1,0l-0.1,0l-0.1,0l-0.1,0l-0.1,0l-0.1,0l-0.1,0
		l-0.1,0l-0.1,0l-0.1,0l-0.1,0l-0.1,0l-0.1,0l-0.1,0l-0.1,0l-0.1,0l-0.1,0l-0.1,0l-0.1,0l-0.1,0l-0.1,0l-0.1,0l-0.1,0l-0.1,0l-0.1,0
		l-0.1,0l-0.1,0l-0.1,0l-0.1,0l-0.1,0l-0.1,0l-0.1,0l-0.1,0l-0.1,0l-0.1,0l-0.1,0l-0.1,0l-0.1,0l-0.1,0l-0.1,0l-0.1,0l-0.1,0l-0.1,0
		l-0.1,0l-0.1,0l-0.1,0l-0.1,0l-0.1,0l-0.1,0l-0.1,0l-0.1,0l-0.1,0l-0.1,0l-0.1,0l-0.1,0l-0.1,0l-0.1,0l-0.1,0l-0.1,0l-0.1,0l-0.2,0
		l-0.2,0l-0.2,0l-0.2,0l-0.2,0l-0.1,0l-0.1,0l-0.1,0l-0.1,0l-0.1,0l-0.1,0l-0.1,0l-0.1,0l-0.1,0l-0.1,0l-0.1,0l-0.1,0l-0.1,0l-0.1,0
		l-0.1,0l-0.1,0l-0.1,0l-0.1,0l-0.1,0l-0.1,0l-0.1,0l-0.1,0l-0.1,0l-0.1,0l-0.1,0l-0.1,0l-0.1,0l-0.1,0l-0.1,0l-0.1,0l-0.1,0l-0.1,0
		l-0.1,0l-0.1,0l-0.1,0l-0.1,0l-0.1,0l-0.1,0l-0.1,0l-0.1,0l-0.1,0l-0.1,0l-0.1,0l-0.1,0l-0.1,0l-0.1,0l-0.1,0l-0.1,0l-0.1,0l-0.1,0
		l-0.1,0l-0.1,0l-0.1,0l-0.1,0l-0.1,0l-0.1,0l-0.1,0l-0.1,0l-0.1,0l-0.1,0l-0.1,0l-0.1,0l-0.1,0l-0.1,0l-0.1,0l-0.1,0l-0.1,0l-0.1,0
		l-0.1,0l-0.1,0l-0.1,0l-0.1,0l-0.1,0l-0.1,0h-0.1h-0.1l-0.1,0l-0.1,0l-0.1,0l-0.1,0l-0.1,0l-0.1,0l-0.1,0l-0.1,0l-0.1,0l-0.1,0
		l-0.1,0l-0.1,0l-0.1,0l-0.1,0h-0.1h-0.1H99l-0.1,0h-0.1h-0.1h-0.1l-0.1,0l-0.1,0l-0.1,0l-0.1,0l-0.1,0l-0.1,0l-0.1,0l-0.1,0l-0.1,0
		l-0.1,0l-0.2,0l-0.2,0l-0.2,0l-0.2,0l-0.1,0l-0.1,0l-0.1,0l-0.1,0l-0.1,0l-0.1,0l-0.1,0l-0.1,0l-0.1,0l-0.1,0l-0.1,0l-0.1,0l-0.1,0
		l-0.2,0l-0.2,0l-0.2,0l-0.2,0l-0.2,0l-0.2,0l-0.2,0l-0.2,0l-0.2,0l-0.1,0l-0.1,0l-0.1,0l-0.1,0l-0.1,0l-0.1,0l-0.1,0l-0.1,0l-0.1,0
		l-0.1,0l-0.1,0l-0.1,0l-0.1,0l-0.1,0l-0.2,0l-0.2,0l-0.2,0l-0.2,0l-0.1,0l-0.1,0l-0.1,0l-0.1,0l-0.1,0l-0.1,0l-0.1,0l-0.1,0l-0.1,0
		l-0.1,0l-0.1,0l-0.1,0l-0.1,0l-0.1,0l-0.1,0l-0.1,0l-0.1,0l-0.1,0l-0.1,0l-0.1,0l-0.1,0l-0.1,0l-0.1,0l-0.1,0l-0.1,0l-0.1,0l-0.1,0
		l-0.1,0l-0.1,0l-0.1,0l-0.1,0l-0.1,0l-0.1,0l-0.1,0l-0.1,0l-0.1,0l-0.1,0l-0.1,0l-0.1,0l-0.1,0l-0.1,0l-0.1,0l-0.1,0l-0.1,0l-0.1,0
		l-0.1,0l-0.1,0l-0.1,0l-0.1,0l-0.1,0l-0.1,0l-0.1,0l-0.1,0l-0.1,0l-0.1,0l-0.1,0l-0.1,0l-0.1,0l-0.1,0l-0.1,0l-0.1,0h-0.1l-0.1,0
		l-0.1,0l-0.1,0l-0.1,0l-0.1,0l-0.1,0l-0.1,0l-0.1,0l-0.1,0l-0.1,0l-0.1,0l-0.1,0l-0.1,0l-0.1,0l-0.1,0l-0.1,0l-0.1,0L80.6,168.2z
		 M103,240.1c-3.8-0.2-7.7-0.7-11.6-0.6c-0.9,0-1.7,0-2.6,0.1c-0.5,0-1,0.1-1.5,0.1c-0.6,0-1.3,0.1-1.9,0.1c-0.2,0-0.3,0-0.5,0
		c-0.3,0-0.6,0-1,0c-0.7,0-1.4,0-2.1,0c-2.9-0.4-5.8-0.8-8.6-1.4c-3.6-0.9-7.3-1.5-10.4-3.5c-1.7-1.1-3-2.7-4.3-4.3
		c-0.4-0.4-0.8-0.8-1.1-1.2c0,0,0,0-0.1-0.1c0,0,0,0-0.1-0.1c-0.8-0.8-1.6-1.6-2.3-2.6c-0.7-1-0.9-2.3-1.2-3.5
		c-0.4-1.9-0.6-3.8-0.7-5.8c-0.2-3.9,0.2-7.8,1.4-11.6c0.9-2.8,2-5.6,3.6-8c1.2-1.8,2.4-3.6,4.2-4.9c1.1-0.7,2.4-1,3.6-1.7
		c0.3-0.2,0.7-0.4,0.9-0.8c0.5-0.9-0.1-1.8-0.7-2.5c-0.9-1-1.9-2.1-2.8-3.1c-2.3-2.4-2.1-5.9-1.6-9c0.4-2.7,2.2-4.3,4.7-5.3
		c1.8-0.8,3.7-1.3,5.7-1.7c2.3-0.5,4.7-1,7.1-1.2c3.6-0.3,7.2-0.6,10.8-0.8c1.9-0.2,3.7-0.3,5.7-0.3c2.7,0,5.5,0.1,8.2,0.1
		c5.1,0.1,10.3-0.2,15.3,0.7c1.5,0.2,3,0.3,4.4,0.8c0.4,0.1,0.6-0.1,0.7-0.4c0.2,0,0.5,0.1,0.7,0.2c1.3,0.4,2.6,1,3.9,1.4
		c2.2,0.8,4.8,1.3,6.4,3.2c1.2,1.3,1.7,3.1,1.7,4.8c0.2,2.9-0.8,5.7-2.6,7.9c-0.3,0.4-0.7,0.7-1.2,1c-0.5,0.4-1.3,0.6-1.3,1.4
		c0,0.4,0.2,0.7,0.5,0.9c1,0.6,2.2,1,3.1,1.7c1.2,1.2,1.6,3.1,2.8,4.3c0,0,0.1,0.1,0.1,0.1c-0.3,2.6-0.5,5.3-0.5,8
		c-2.7-4.2-5.5-8.7-10.2-10.8c-0.9-0.4-1.8-1-2.9-1c-2.3,0.4-1.4,4.4-1.1,6.1c0.4,2.3,1,4.5,1.8,6.7c-3.6-4.3-4.6-6.7-10.2-8.8
		c-1.4-0.7-2.3,0.4-2.3,1.7c0,0.1,0,0.2,0,0.2c0.3,3.3,1.6,6.5,2.7,9.6c1.2,3.2,2.3,6.4,3.5,9.6c0.6,1.6,1.5,3.1,2.3,4.6
		c1.5,3.1,3.1,6.2,4.7,9.2c0.6,1.3,1.1,2.7,1.7,4c0,0.1,0.1,0.2,0.1,0.3c0,0.1,0.1,0.2,0.1,0.3c0.2,0.4,0.3,0.9,0.5,1.3
		c0,0.1,0.1,0.2,0.1,0.2c0,0,0,0.1,0,0.1c0.1,0.2,0.2,0.4,0.2,0.6c0,0,0,0,0,0c0,0.1,0.1,0.2,0.1,0.3c0,0.1,0.1,0.2,0.1,0.3
		c0,0.1,0.1,0.2,0.1,0.3c0.1,0.2,0.2,0.3,0.2,0.5c0,0,0,0.1,0.1,0.1c0,0.1,0.1,0.1,0.1,0.2c0.1,0.1,0.1,0.3,0.2,0.4
		c-0.5,0.3-1,0.4-1.5,0.5c-0.2,0-0.4,0-0.5,0.1c-0.1,0-0.1,0-0.2,0.1c0,0,0,0,0,0c-0.1,0-0.2,0-0.3,0.1c-0.2,0-0.3,0.1-0.5,0.1
		c-0.1,0-0.2,0-0.3,0.1s-0.2,0-0.3,0.1c-0.1,0-0.2,0-0.3,0.1c-0.5,0.1-0.9,0.2-1.4,0.2c-0.1,0-0.2,0-0.3,0c-0.1,0-0.2,0-0.3,0
		c-0.1,0-0.3,0-0.4,0.1c-0.1,0-0.2,0-0.2,0c-0.2,0-0.3,0-0.5,0.1c-2.5,0.2-5-0.1-7.5-0.2c-1.6-0.1-3.2,0-4.9,0.1
		c-1.7,0.1-3.3,0.2-5,0.2C104.6,240.1,103.8,240.1,103,240.1z"/>
	<path class="st2" d="M77.6,170.8c0.4,0.3,0.5,1.1,0,1.5c0,0-0.1,0-0.1,0.1c-0.2,0.1-0.4,0.2-0.5,0.2c-0.4,0-0.8,0.1-1.2,0.2
		c-0.1,0-0.2,0.1-0.4,0.1c0,0,0,0,0,0.1c0,0.3-0.2,0.6-0.5,0.8c-0.2,0.1-0.4,0.2-0.7,0.3c0.1,0.4-0.1,0.9-0.4,1.1
		c-0.6,0.3-1.1-0.4-1.6-0.5c-1.2-0.3-2.4,0-3.5,0.4c0,0,0,0,0,0c-1.1,0.2-2,0.6-2.7,1.3c-0.1,0-0.2-0.1-0.3-0.2
		c-0.7-0.8,0.2-1.6,0.8-2.1c-0.1-0.2-0.1-0.3-0.1-0.4c-0.1-0.7,0.7-1,1.4-1.2c0.2-0.2,0.5-0.4,0.8-0.5c0,0,0,0,0,0
		c0.5-0.2,1.1-0.2,1.6-0.2c0.7,0,1.5-0.1,2.2-0.1c1.6-0.1,3-0.9,4.6-0.9C77.2,170.5,77.5,170.6,77.6,170.8z"/>
	<path class="st2" d="M99,170c0.9,0.2,1,1.4,0.3,1.9c0,0-0.1,0-0.1,0.1c-1.1,0.9-2.3,2-3.8,1.6c-0.5-0.1-1-0.2-1.5-0.3
		c-0.5-0.1-0.9-0.6-0.8-1.1c-0.8-0.5-1.6-0.2-2.5-0.1c-0.1,0-0.2,0-0.3,0c-1,0-2.1,0.2-3,0.5c-0.3,0-0.6,0.1-0.9,0.1
		c-0.3,0.6-1,0.5-1.5,0.3c-0.4-0.1-0.8-0.3-0.9-0.8c-1.5,0-2.9,0.1-4.4,0.2c-0.7,0-1.3,0-2,0c-0.6,0-1.1,0.1-1.7,0.3c0,0,0,0,0,0
		c-0.1,0.1-0.2,0.2-0.4,0.2c-0.1,0-0.3-0.1-0.4-0.2c-0.4-0.5,0-1.1,0.5-1.3c0.6-0.3,1.3-0.5,2-0.6c0.7-0.1,1.5-0.1,2.2-0.2
		c1.8-0.2,3.6-0.4,5.5-0.2c1.1-0.7,2.4-0.4,3.6-0.7c0,0,0.1,0,0.1,0c1.5-0.2,3-0.5,4.5-0.2c0.1,0,0.2,0,0.3,0.1
		c0.6,0.1,1.3,0.1,1.5,0.7c0,0,0,0.1,0,0.1C96.6,170.3,97.7,169.7,99,170z"/>
	<path class="st2" d="M111.8,170.5c0.2,0.3,0.2,0.6,0.1,0.9c-0.1,0.2-0.2,0.3-0.4,0.4c0,0-0.1,0-0.1,0c-0.2,0-0.3,0.1-0.5,0.1
		c-0.8,0.1-1.2,0.5-1.4,0.8c-0.1,0-0.1,0.1-0.2,0.2c-0.3,0.4-0.6,0.7-0.9,1c-0.1,0-0.1,0-0.2,0c-0.8-0.1-1.4-0.7-2-1.2
		c-0.2-0.3-0.4-0.5-0.7-0.7c-0.6-0.3-1.4-0.4-2.1-0.4c-1.1-0.4-2.4-0.4-3.5,0c0,0-0.1,0-0.1,0.1c-0.1,0-0.2,0-0.3,0.1
		c-0.6,0.1-1.1,0.3-1.7,0.3c-0.4-0.1-0.6-0.6-0.5-0.9c-0.4,0-0.9,0.1-1.3,0.2c-0.2,0.1-0.5,0.1-0.7-0.1c-0.4-0.4-0.1-0.9,0.2-1.1
		c0.2-0.1,0.4-0.2,0.6-0.3c2.4-0.7,5-0.5,7.5-0.5c0.7,0,1.5,0.2,2.2,0.3c0.1,0,0.2,0,0.3,0c0.3,0,0.7,0.1,0.8,0.4
		c1.2-0.1,2.5-0.2,3.7-0.1C111,170.1,111.5,170.1,111.8,170.5z"/>
	<path class="st2" d="M118.3,172.2c0.2,0.3,0.2,0.6,0.1,0.9c-0.2,0.5-0.6,0.9-1.2,0.5c-0.2-0.1-0.3-0.3-0.3-0.5
		c-0.6-0.4-1.3-0.5-2-0.6c-0.1,0-0.1-0.1-0.2-0.1c-0.1,0-0.3,0-0.4-0.1c-0.1-0.1-0.2-0.1-0.2-0.2c-0.7-0.2-1.5-0.4-2.2-0.5
		c-1.8-0.4-3.6-0.7-5.4-0.4c-0.6,0.8-1.5-0.6-0.4-1.2c0.2-0.1,0.5-0.2,0.9-0.2c2.5-0.4,4.9,0.2,7.3,0.7c0.6,0.1,1.1,0.2,1.7,0.4
		c0.4,0.1,0.9,0.3,1.3,0.5C117.8,171.2,118.4,171.5,118.3,172.2z"/>
	<path class="st2" d="M132.3,175.8c0.2,0.8,0.4,2.1-0.2,2.7c-0.3,0.3-0.7,0.3-0.9,0c-0.2-0.2-0.3-0.4-0.4-0.6
		c-0.4-0.5-1-0.7-1.5-0.9c-0.3-0.2-0.6-0.3-0.9-0.4c-0.1-0.1-0.2-0.1-0.3-0.2c-1-0.6-1.5-1.9-2.6-2.3c-0.8-0.4-1.7-0.4-2.5-0.7
		c-1.2-0.3-2.4-0.5-3.6-0.5c-0.3,0-0.6,0-1,0c-0.3,0-0.7,0-1-0.1c-0.4-0.2-0.5-0.6-0.4-1c-0.3-0.1-0.7-0.1-1-0.2
		c-0.4-0.2-0.4-0.9,0-1.2c0.1-0.1,0.2-0.1,0.3-0.1c2,0,4,0.1,5.9,0.5c1.8,0.2,3.5,0.5,5.2,1c0.3,0.1,0.5,0.2,0.8,0.2
		c0.7,0.2,1.3,0.4,1.9,0.8c0.1,0.1,0.2,0.1,0.2,0.2C131,174,132,174.7,132.3,175.8z"/>
	<path class="st1" d="M91.7,186.1c0.5,0.1,0.6,0.7,0.4,1.1c-0.1,0.2-0.2,0.3-0.5,0.4c-0.1,0-0.1,0-0.2,0c-0.1,0-0.2,0-0.4,0
		c-1.5,0-3.1-0.2-4.6-0.3c-0.1,0-0.3,0-0.4,0c0,0,0,0,0,0.1c0,0.3,0,0.5-0.2,0.7c-0.2,0.2-0.5,0.3-0.9,0.3
		c-4.4-0.2-8.9-0.2-13.2-1.3c-0.8-0.2-1.7-0.5-1.2-1.5c-1.2-0.6-2.5-1-3.6-1.7c-0.5,0.9-1.1,0.1-1.7-0.3c-0.7-0.6-1.3-1.5-1.6-2.4
		c-0.7,0-0.9-0.8-0.9-1.4c-0.5-1.1-0.3-2.3-0.2-3.5c0.1-0.5,0.2-0.9,0.3-1.4c0.1-0.3,0.2-0.6,0.4-1c0.2-0.4,0.5-1,1-0.8c0,0,0,0,0,0
		c0.3,0.1,0.4,0.4,0.4,0.7c0,0.4-0.1,0.9-0.2,1.3c-0.1,0.6-0.2,1.2-0.3,1.8c0.2,0.9,0.4,1.7,0.4,2.6c0.2,0.2,0.4,0.4,0.6,0.6
		c0.1,0.2,0.1,0.4,0.3,0.6c0.2,0.2,0.3,0.2,0.5,0.2c0.1,0.1,0.1,0.1,0.2,0.2c1.1,1.2,2.7,1.9,4.3,2.3c0.5,0.2,1.1,0.4,1.6,0.6
		c1.1,0,2.2,0.4,3.3,0.5c2,0.3,4,0.5,6,0.6c0.7,0,1.5-0.1,2.2-0.1c1.6,0.2,3.2,0.2,4.7,0.2c0.6,0,1.2,0,1.8,0c0.1,0,0.1,0.1,0.1,0.2
		c0.1,0.1,0.1,0.3,0.1,0.6C90.9,186,91.3,186.1,91.7,186.1z"/>
	<path class="st1" d="M136,176.2c0.8,1.3,0.5,2.9-0.3,4.2c-0.3,0.5-0.7,1.5-1.4,1.1c-0.4,0.5-0.9,1-1.4,1.4
		c-0.8,0.6-1.5,1.3-2.5,1.6c-0.2,0.3-0.6,0.3-0.9,0.3c-0.6,0.1-1.1,0.2-1.7,0.3c-2.9,0.5-5.8,1-8.8,1.3c-1.5,0.1-3.2,0.6-4.7,0.8
		c-0.8,0.2-1.6,0.3-2.4,0.2c-0.8,0.3-1.7,0.4-2.6,0.5c-1.9,0.3-3.8,0.7-5.8,0.6c-1.2-0.1-2.3-0.3-3.4-0.5c-0.6,0-1.2,0-1.9,0
		c-2.3-0.1-4.5-0.4-6.8-0.5c-0.1,0-0.1,0-0.2,0c0,0-0.1,0-0.1,0c-1.7,0.3-3.3,0.5-5,0.4c0,0-0.1,0-0.1,0c-0.6,0-1.2-0.1-1.8-0.1
		c-0.4,0-0.9,0.1-1.3-0.1c-0.1-0.1-0.1-0.1-0.2-0.2c-0.1-0.3,0-0.8,0.4-0.8c1.5,0.1,3-0.4,4.5-0.5c0.2-0.3,0.6-0.4,1-0.4
		c0.6-0.1,1.1-0.2,1.7-0.3c0,0,0,0,0,0c0.5-0.1,1-0.1,1.5-0.2c1.1,0,2.3-0.1,3.4-0.1c0.6,0,1.1,0.1,1.7,0.1c0.9-0.1,1.9-0.2,2.9-0.2
		c0.5,0,1,0,1.5,0c1,0,2,0,2.9,0c1.1,0.1,2.3,0.3,3.4,0.4c0.8-0.2,1.5-0.4,2.3-0.7c2-0.1,4-0.2,6-0.4c2.2-0.2,4.4-0.8,6.6-1.1
		c1.8-0.3,3.6-0.5,5.3-1.1c0.7-0.2,1.4-0.6,1.9-1.1c0.3-0.2,0.6-0.5,0.8-0.8c0.2-0.1,0.3-0.2,0.4-0.4c0.5-0.3,1-0.7,1.4-1.2
		c1.3-1.1,0.4-2.7-0.4-3.8c-0.5-0.6-1.1-1.2-1.8-1.6c-0.2-0.1-0.3-0.2-0.5-0.2c-0.5-0.3-1.1-0.6-1.6-0.8c-2-0.8-4.1-1.3-6.1-1.6
		c-1.5-0.2-2.9-0.5-4.3-0.7c-1.7-0.2-3.6-0.2-5.2-0.4c-1.3-0.2-2.5-0.4-3.7-0.7c-0.7,0-1.6,0-2.3,0.1c-2.2,0.1-4.4,0.3-6.5,0.4
		c-2.1,0.1-4,0-6,0.2c-0.4,0-0.9,0.1-1.3,0.2c-0.8,0.1-1.7,0.2-2.5,0.2c-0.4,0.1-0.8,0-0.9-0.3c-0.1-0.1-0.1-0.2-0.1-0.4
		c-2.4,0.4-4.8,0.1-7.3,0.4c-1.1,0.1-2.2,0.3-3.4,0.4c-0.7,0.1-1.4,0.2-2.1,0.2c-0.3,0-0.7,0-0.9-0.3c-1.7,0-3.3,0.3-4.9,0.8
		c-0.3,0.3-0.7,0.3-1,0.5c-0.3,0.2-0.6,0.4-0.8,0.6c0,0,0,0,0,0c-0.4,0.3-0.9,0.6-1.3,1c-0.3,0.2-0.6,0.5-0.9,0.8
		c-0.3,0.3-0.7,0.7-1,1c-0.2,0.2-0.5,0.4-0.7,0.6c-0.3,0.2-0.6,0.3-0.9,0c-0.1,0.1-0.2,0.1-0.4,0.1c-0.2,0-0.3-0.2-0.4-0.3
		c0,0,0,0,0,0c-0.1-0.3-0.1-0.5-0.1-0.8c-0.1-0.3-0.1-0.7,0.3-0.8c0.2-0.1,0.3,0,0.4,0.1c0.6-1,1.3-1.9,2.1-2.6c1.1-1,2.4-1.6,4-1.5
		c1-0.3,2.1-0.6,3.1-0.8c0.9-0.2,1.9-0.3,2.8-0.4c0.4,0,0.7,0,1.1,0c1.2-0.1,2.3-0.1,3.5-0.2c0.7,0,1.3-0.1,2-0.2
		c0.8-0.1,1.9-0.7,2.4,0.1c0.9-0.1,1.8-0.1,2.7-0.2c1.5-0.1,3-0.5,4.5-0.8c0.7-0.1,1.5-0.3,2.2-0.3c1.9-0.2,3.9-0.2,5.8-0.1
		c0.7,0,1.3,0.1,2,0.1c1.4,0.1,2.8,0.2,4.1,0.2c0.8,0.1,1.7,0.2,2.5,0.3c1,0.1,2.1,0.2,3.1,0.3c0.5,0.1,1.3,0,1.5,0.6
		c1.6,0.2,3.2,0.1,4.7,0.3c0.4-0.3,0.9-0.2,1.3-0.2c1.6-0.1,3.2,0.1,4.7,0.4c3,0.6,6.1,1.5,8.6,3.4c0.6-0.3,0.8,0.3,1.1,0.7
		C134.4,173.7,135.3,174.9,136,176.2z"/>
	<path class="st3" d="M130.7,178.3c0.5,0.3,0.6,1.1,0.3,1.6c-0.1,0.2-0.2,0.3-0.4,0.4c-0.2,0.3-0.5,0.6-0.8,0.8
		c-0.6,0.5-1.2,0.9-1.9,1.1c-1.7,0.6-3.5,0.8-5.3,1.1c-2.2,0.3-4.4,0.8-6.6,1.1c-2,0.3-4,0.4-6,0.4c-0.7,0-1.5,0.1-2.2,0.1
		c-1.2,0.1-2.3,0.1-3.5,0.2c-1,0-1.9,0-2.9,0c-0.5,0-1,0-1.5,0c-1.5,0-3,0.1-4.5,0.1c-1.1,0-2.3,0.1-3.4,0.1c-0.5,0-1.1,0-1.6,0
		c-0.6,0-1.2,0-1.8,0c-1.6,0-3.2-0.1-4.7-0.2c-0.4-0.1-0.8-0.1-1.3-0.2c-1.4-0.1-2.7-0.1-4.1-0.3c-1.4-0.1-2.7-0.5-4.1-0.7
		c-1.2-0.1-2.4-0.2-3.7-0.5c-1.7-0.4-3.3-1-4.3-2.3c-0.1-0.1-0.1-0.1-0.2-0.2c0,0,0,0,0,0c-0.2,0-0.3,0-0.5-0.2
		c-0.1-0.2-0.2-0.4-0.3-0.6c-0.2-0.7,0-1.4,0-2.1c0.1-0.7,0.3-1.3,0.7-1.8c0.6-0.7,1.6-1.2,2.7-1.3c0,0,0,0,0,0
		c1.7-0.4,3.5,0.1,5.1,0.6c1.4-2.2,4.2-2.9,6.6-2.6c0.8,0,1.6-0.1,2.5-0.1c0.9,0.1,1.8,0.3,2.6,0.9c0.5-0.6,1.1-0.9,1.8-1.2
		c1-0.3,2.1-0.5,3-0.5c0.1,0,0.2,0,0.3,0c1.2,0.1,2.2,0.9,3,1.6c0.2,0.2,0.4,0.3,0.5,0.5c0.8-0.4,2.4,0,3.2,0c0.4-1,1.2-1.8,2.2-2.3
		c0,0,0.1-0.1,0.1-0.1c1.1-0.4,2.4-0.5,3.5,0c0.3,0.1,0.6,0.3,0.9,0.5c0,0,0.1,0.1,0.1,0.1c0.3,0,0.6,0.1,0.9,0.2
		c1,0.4,1.8,1.2,2.3,2.1c0.3-0.2,0.6-0.4,0.8-0.6c0.3-0.3,0.6-0.6,0.9-1c0.1-0.1,0.1-0.1,0.2-0.2c0.4-0.4,0.9-0.7,1.4-0.8
		c0.2-0.1,0.3-0.1,0.5-0.1c0,0,0.1,0,0.1,0c0.9-0.1,1.9,0.2,2.8,0.3c0.1,0,0.3,0.1,0.4,0.1c0.1,0,0.1,0,0.2,0.1
		c0.6,0.3,1.5,1,2.2,1.9c1.6-0.9,3.7-0.8,5.4-0.4c0.8,0.1,1.6,0.4,2.3,0.9c0.8,0,1.7,1,2,1.7c0.3,0,0.5,0,0.8,0c0.2,0,0.5,0,0.7,0.1
		c0.3,0.1,0.6,0.2,0.9,0.4C129.8,177.3,130.3,177.8,130.7,178.3z"/>
	<path class="st4" d="M73.7,183.1c-0.3-0.3-0.4-0.7-0.5-1.1c-0.4-1.1-0.9-2.3-1.1-3.5c-0.1-0.9-1-2.4,0.1-2.9
		c1.1-0.2,0.9,1.4,1.2,2.1c0.2,1.4,0.8,2.7,1.3,4C75.2,182.4,74.7,183.7,73.7,183.1z"/>
	<path class="st4" d="M76.1,182.7c-0.2-0.2-0.4-0.5-0.4-0.7c-0.2-0.7-0.4-1.4-0.6-2.1c-0.1-0.7-0.6-1.4-0.2-2.1
		c0.5-0.7,1.2-0.2,1.3,0.5c0.3,0.9,0.6,1.7,0.8,2.6c0.2,0.5,0.3,0.9,0.2,1.4C77.1,182.8,76.5,183,76.1,182.7z"/>
	<path class="st4" d="M79,178.8c-0.6-0.2-0.6-0.9-0.7-1.4c-0.2-0.9-0.4-1.7-0.7-2.5c-0.2-0.5-0.5-1-0.5-1.6c0-0.5,0.6-0.9,1-0.5
		c1,1.4,1.4,3,1.9,4.7C80.1,178,79.7,179,79,178.8z"/>
	<path class="st4" d="M81.5,177.8c-0.7-0.3-0.6-1.2-0.8-1.8c-0.3-1.1-0.8-2.2-1-3.3c-0.1-0.5,0.3-1,0.8-0.9c0.3,0.1,0.5,0.4,0.6,0.7
		c0.4,1.1,0.8,2.2,1.2,3.2c0.1,0.4,0.3,0.7,0.3,1.1C82.5,177.5,82,178.1,81.5,177.8z"/>
	<path class="st4" d="M84.7,184c-0.6-0.6-0.5-1.5-0.7-2.2c-0.2-0.8-0.5-1.5-0.8-2.3c-0.3-0.8-1.1-2-0.7-2.8c0.3-0.4,0.9-0.3,1,0.1
		c0.8,1.6,1.7,3.2,2.1,5c0.1,0.6,0.4,1.2,0.3,1.7C85.7,184.1,85.1,184.4,84.7,184z"/>
	<path class="st4" d="M87.7,184.2c-0.7-0.3-0.7-1.2-1-1.8c-0.6-1.6-1.2-3.1-1.8-4.7c-0.1-0.4-0.3-0.9-0.1-1.3
		c0.4-0.7,1.1-0.4,1.3,0.2c0.6,1.3,1,2.7,1.6,4c0.3,1,1.1,1.9,1,3C88.6,184,88.1,184.4,87.7,184.2z"/>
	<path class="st4" d="M88.1,183.9c-0.5-0.9-0.4-1.9-0.8-2.8c-0.4-1.2-1-2.3-1.4-3.5c-0.2-0.5-0.4-1.6,0.4-1.7
		c0.6,0.1,0.6,0.8,0.9,1.2c1,1.9,1.9,4,2.1,6.2C89.4,184.1,88.5,184.6,88.1,183.9z"/>
	<path class="st4" d="M94.4,180.7c-0.5-0.3-0.6-0.9-0.8-1.4c-0.2-0.5-0.4-1.1-0.5-1.5c-0.3-0.7-0.6-1.4-0.9-2
		c-0.2-0.4-0.4-0.8-0.1-1.2c0.2-0.2,0.4-0.4,0.7-0.3c0.3,0.1,0.4,0.4,0.6,0.7c0.4,0.7,0.8,1.4,1.1,2.2c0.3,0.7,0.6,1.4,0.8,2.1
		c0.1,0.3,0.1,0.7,0,0.9C95.1,180.6,94.7,180.9,94.4,180.7z"/>
	<path class="st4" d="M96.7,179.9c-0.5-1.1-0.9-2.1-1.4-3.2c-0.2-0.8-0.7-1.6-0.7-2.5c0-0.4,0.6-0.7,0.9-0.4
		c0.5,0.8,0.8,1.7,1.2,2.5c0.4,1,1,2,1.3,3C98.3,180.4,97.2,180.9,96.7,179.9z"/>
	<path class="st4" d="M98.3,181.1c-0.4-0.4-0.5-0.9-0.6-1.4c-0.1-0.5-0.2-0.9-0.4-1.4c-0.3-1.1-0.7-2.1-1.1-3.1
		c-0.2-0.4-0.4-0.9-0.3-1.3c0.1-0.5,0.7-0.8,1-0.3c1,1.8,1.6,3.9,2.3,5.9c0.1,0.3,0.3,0.6,0.2,1C99.4,181,98.7,181.6,98.3,181.1z"/>
	<path class="st4" d="M89.8,176.3c-0.5-0.9-0.8-1.9-1.2-2.9c-0.2-0.5-0.4-1.2,0.2-1.5c0.2-0.1,0.4,0,0.6,0.1
		c0.4,0.6,0.6,1.3,0.9,1.9c0.3,0.6,0.6,1.2,0.7,1.8C91.1,176.3,90.3,176.9,89.8,176.3z"/>
	<path class="st4" d="M100.3,185.6c-0.3-0.1-0.4-0.4-0.5-0.7c-0.2-0.6-0.4-1.1-0.6-1.7c-0.2-0.8-1.1-2-0.6-2.8c0.5-0.6,1,0,1.2,0.5
		c0.4,0.9,0.9,1.8,1.2,2.8c0.1,0.4,0.3,0.9,0.2,1.4C101.2,185.5,100.7,185.8,100.3,185.6z"/>
	<path class="st4" d="M97.8,185.5c-0.6-0.4-0.6-1.3-0.9-1.9c-0.2-0.5-0.3-1-0.5-1.5c-0.1-0.3-0.1-0.5-0.1-0.8
		c0.1-0.3,0.5-0.6,0.8-0.4c0.3,0.2,0.4,0.6,0.5,0.9C98,182.6,99.6,185.7,97.8,185.5z"/>
	<path class="st4" d="M105.9,180.8c-0.4-1.2-0.6-2.4-1.1-3.6c-0.2-0.8-0.7-1.6-0.6-2.4c0.1-0.2,0.3-0.4,0.5-0.5
		c0.2,0,0.5,0.1,0.6,0.3c0.3,0.6,0.5,1.2,0.7,1.8c0.4,1.1,0.8,2.3,1.1,3.4c0.1,0.6,0.6,1.2,0.3,1.8c-0.1,0.2-0.3,0.4-0.6,0.4
		C106.3,182.1,106.1,181.3,105.9,180.8z"/>
	<path class="st4" d="M109.5,182.3c-0.7-0.2-0.8-1.2-1.1-1.8c-0.6-1.8-1.3-3.5-1.7-5.3c-0.1-0.5-0.1-1.4,0.6-1.3
		c0.3,0.1,0.4,0.3,0.5,0.6c0.2,0.5,0.3,0.9,0.5,1.4c0.4,1.3,0.9,2.5,1.3,3.8c0.2,0.6,0.6,1.2,0.6,1.9
		C110.3,182,110,182.4,109.5,182.3z"/>
	<path class="st4" d="M110,182c-0.3-0.3-0.3-0.8-0.4-1.2c-0.2-0.8-0.5-1.5-0.8-2.3c-0.4-0.9-0.9-1.8-1.2-2.7
		c-0.2-0.4-0.3-0.9-0.1-1.3c0.2-0.3,0.6-0.4,0.9-0.1c0.2,0.2,0.2,0.5,0.4,0.7c0.8,1.7,1.8,3.3,2.2,5.1c0.1,0.5,0.4,1,0.2,1.5
		C111,182.2,110.3,182.5,110,182z"/>
	<path class="st4" d="M102.8,175.9c-0.6-0.9-1-1.8-1.5-2.8c-0.6-0.9,0.5-2.1,1.1-0.9c0.4,0.7,0.8,1.3,1.1,2c0.2,0.5,0.7,1.3,0.1,1.8
		C103.3,176.3,103,176.2,102.8,175.9z"/>
	<path class="st4" d="M114.3,179.5c-0.3-0.3-0.4-0.7-0.6-1.1c-0.3-0.9-0.4-1.6-0.7-2.4c-0.5-1.1-1.1-2.2-1.6-3.3
		c-0.2-0.4,0-0.9,0.4-1c0.4-0.1,0.7,0.4,0.9,0.8c0.9,1.4,1.7,2.9,2.2,4.5c0.2,0.6,0.5,1.1,0.6,1.7
		C115.5,179.4,114.8,180,114.3,179.5z"/>
	<path class="st4" d="M120,179.7c-0.5-0.6-0.4-1.5-0.7-2.1c-0.3-1-0.8-1.9-1.2-2.9c-0.1-0.3-0.2-0.7-0.1-1c0.1-0.4,0.6-0.6,0.9-0.4
		c0.2,0.3,0.3,0.6,0.6,0.9c0.7,1.1,1.1,2.3,1.5,3.5c0.1,0.5,0.3,1,0.3,1.5C121.2,179.8,120.5,180.1,120,179.7z"/>
	<path class="st4" d="M122.9,179.8c-0.5-0.1-0.7-0.7-0.8-1.2c-0.2-0.7-0.4-1.5-0.7-2.2c-0.2-0.8-1.7-3.1-0.1-3.2
		c0.5,0.1,0.6,0.8,0.9,1.1c0.5,0.9,0.9,1.8,1.2,2.7c0.2,0.5,0.3,0.9,0.4,1.4C124,179.1,123.5,179.9,122.9,179.8z"/>
	<path class="st4" d="M123.3,179.8c-0.3-0.4-0.4-0.9-0.5-1.3c-0.3-1.2-0.7-2.4-1.2-3.6c-0.1-0.4-0.3-0.8-0.2-1.2
		c0.1-0.4,0.7-0.7,1-0.3c0.3,0.4,0.5,0.8,0.7,1.3c0.4,1,0.8,2,1.1,3c0.2,0.7,0.7,1.8-0.1,2.4C123.8,180.1,123.5,180.1,123.3,179.8z"
		/>
	<path class="st4" d="M116.3,185.1c-0.6-0.3-0.6-0.9-0.8-1.4c-0.4-1-1.1-1.9-1.4-2.9c-0.2-0.5-0.4-1.1,0-1.5c0.6-0.5,1,0.3,1.2,0.7
		c0.5,1.2,2.4,3.4,1.9,4.7C117,185,116.6,185.3,116.3,185.1z"/>
	<path class="st4" d="M127.1,182.2c-0.5-0.5-0.6-1.2-0.9-1.8c-0.2-0.6-0.6-1.2-0.3-1.8c0.1-0.2,0.3-0.4,0.6-0.4
		c0.3,0,0.5,0.3,0.6,0.5c0.2,0.3,0.4,0.7,0.5,0.9c0.3,0.6,0.8,1.2,0.7,1.8C128.2,182.1,127.6,182.7,127.1,182.2z"/>
	<path class="st4" d="M118.5,184.1c-0.7-1.1-1.2-2.4-1.7-3.6c-0.1-0.4-0.4-0.8-0.3-1.2c0.2-0.8,1-0.7,1.2,0c0.4,0.9,0.9,1.8,1.5,2.7
		c0.3,0.4,0.5,0.9,0.6,1.4C119.8,184,119,184.6,118.5,184.1z"/>
	<path class="st5" d="M64.6,178.9c-0.2-0.3-0.2-0.8,0.1-1c0.8-0.8,1.6-1.5,2.5-2.1c1.1-0.7,2.5-1.2,3.8-1.4c0.9,0.1,1,1.4,0.3,1.8
		c-0.2,0.1-0.5,0.2-0.7,0.2c-1.7,0.3-3.3,1.2-4.6,2.3C65.6,179,65,179.5,64.6,178.9z"/>
	<path class="st5" d="M69.4,178.7c-0.2-0.1-0.3-0.4-0.3-0.6c0-0.8,0.9-1.1,1.5-1.4c0.9-0.4,2.8-1.3,3.7-0.5c0.3,0.3,0.3,0.9,0,1.2
		c-0.3,0.4-0.9,0.4-1.4,0.4c-0.4,0-0.7,0.1-1,0.2c-0.5,0.1-1.1,0.3-1.6,0.6C70,178.7,69.7,178.9,69.4,178.7z"/>
	<path class="st5" d="M74.2,176.3c-1.7-1.3,2.2-3.2,3.3-3.4c2.1-0.4,4.3-0.9,6.4-0.5c1,0.2,2.7,0.7,2.2,2c-0.5,1.1-1.4,0-2.2-0.2
		c-0.9-0.2-1.8-0.2-2.7-0.1c-1.9,0.3-3.9,0.3-5.5,1.4c-0.3,0.2-0.5,0.3-0.7,0.6C74.8,176.2,74.5,176.4,74.2,176.3z"/>
	<path class="st5" d="M79.8,181.4c-0.7-0.6,0.1-1.5,0.4-2.1c0.5-0.8,1.1-1.5,1.9-2c0.8-0.4,1.6-0.8,2.5-1c1.3-0.3,2.6-0.2,3.9,0.1
		c0.8,0.1,1.9,0.5,1.6,1.5c-0.3,1-1.1,0.6-1.8,0.3c-1.2-0.3-2.4-0.4-3.6-0.1c-0.6,0.2-1.3,0.4-1.9,0.7c-0.6,0.4-1.2,0.9-1.6,1.5
		C80.8,180.8,80.5,181.7,79.8,181.4z"/>
	<path class="st5" d="M86.3,174.5c-0.4-0.1-0.6-0.7-0.3-1c0.2-0.3,0.4-0.4,0.7-0.6c1.1-0.6,2.3-1,3.5-0.9c0.8,0,1.8-0.2,2.5,0.4
		c0.4,0.5,0.3,1.4-0.4,1.6c-0.4,0.1-0.9-0.1-1.3-0.2c-0.7-0.1-1.4-0.1-2.1-0.1c-0.5,0-1.1,0.2-1.6,0.4
		C87,174.3,86.6,174.6,86.3,174.5z"/>
	<path class="st5" d="M90,178.1c-0.8-0.3-0.3-1.2,0-1.6c0.5-0.6,0.9-1.3,1.6-1.7c1-0.6,2.1-0.6,3.2-0.8c0.6-0.1,1.2-0.2,1.8-0.2
		c0.7,0,1.7,0.5,1.5,1.4c-0.2,0.9-1,0.8-1.6,0.6c-0.9,0-1.6,0.1-2.4,0.2c-1.6,0.1-2.3,0.6-3.3,1.8C90.6,177.9,90.3,178.2,90,178.1z"
		/>
	<path class="st5" d="M99.8,177c-1.8-0.5-0.7-3.5,1-2.6C102.1,175.1,101.4,177.4,99.8,177z"/>
	<path class="st5" d="M99.3,173.9c-0.4-0.2-0.5-0.7-0.3-1.1c0.5-0.6,1.3-0.8,2-1.2c0.8-0.3,1.7-0.3,2.5-0.4c1,0,2.4,0.8,1.9,1.9
		c-0.2,0.4-0.6,0.7-1,0.5c-0.4-0.2-0.7-0.4-1-0.5c-0.9-0.2-2-0.1-2.9,0.3c-0.3,0.1-0.6,0.2-0.9,0.4
		C99.7,173.9,99.5,173.9,99.3,173.9z"/>
	<path class="st5" d="M108.7,177.2c-0.5-0.1-0.7-0.6-1.1-0.8c-1.5-0.4-3.1,0.2-4.6,0.5c-0.1,0-0.3,0.1-0.4,0
		c-0.3-0.1-0.5-0.4-0.4-0.7c0.1-0.7,1.2-0.9,1.8-1.2c0.7-0.2,1.3-0.5,1.9-0.7c0.6-0.1,1.3-0.1,1.9,0c0.6,0.1,1.1,0.5,1.5,0.9
		c0.2,0.2,0.5,0.4,0.6,0.7C110.1,176.6,109.4,177.4,108.7,177.2z"/>
	<path class="st5" d="M110.2,177.5c-0.2-0.7,0.4-2.3,1.3-1.7c0.9,0,1.1,1.2,0.6,1.8C111.5,178.2,110.5,178.5,110.2,177.5z"/>
	<path class="st5" d="M96.2,184.3c-0.7-0.2-0.9-1.1-0.9-1.7c0-0.7-0.2-1.8,0.7-1.9c0.9,0.1,0.6,1.3,0.8,1.9c0.2,0.4,0.4,0.8,0.2,1.2
		C96.9,184.2,96.6,184.4,96.2,184.3z"/>
	<path class="st5" d="M116.8,177.5c-1.1-0.3-0.6-1.9-0.1-2.5c0.4-0.5,1.1-0.8,1.7-1.1c0.5-0.3,1.1-0.5,1.7-0.4
		c0.7,0.2,1,1.1,0.5,1.7c-0.2,0.3-0.7,0.4-1,0.4c-0.9,0.1-2,0.4-2.1,1.5C117.4,177.4,117.1,177.6,116.8,177.5z"/>
	<path class="st5" d="M124,176.2c-0.4-0.2-0.9-0.3-1.3-0.6c-0.4-0.3-0.4-0.9-0.1-1.3c0.3-0.4,0.9-0.3,1.3-0.3c0.6,0.1,1.2,0.3,1.3,1
		C125.3,175.6,124.7,176.5,124,176.2z"/>
	<path class="st5" d="M114.8,181.5c-0.4,0-0.7-0.1-1.1-0.2c-0.3,0-0.6,0-0.8-0.3c-0.3-0.4-0.2-1.1,0.2-1.3c0.8-0.3,1.6,0,2.5-0.2
		c0.8-0.1,1.4-1.1,2.2-0.7c0.3,0.2,0.4,0.6,0.4,1c0,0.5-0.5,0.8-0.9,1C116.5,181.4,115.6,181.6,114.8,181.5z"/>
	<path class="st5" d="M113.4,174.3c-0.2-0.2-0.5-0.1-0.7-0.1c-0.8,0-1.1-1.2-0.5-1.7c0.2-0.3,0.6-0.4,0.9-0.2c0.4,0,0.8,0.1,1.2,0.3
		C115.2,173.2,114.5,174.8,113.4,174.3z"/>
	<path class="st5" d="M124,183c-0.5-0.5-0.5-1.3-0.5-1.9c0-0.4,0-0.9,0.3-1.3c0.2-0.3,0.6-0.3,0.9,0c0.3,0.5,0.3,1.1,0.5,1.6
		c0.1,0.4,0.3,0.9,0.1,1.3C125,183.1,124.4,183.4,124,183z"/>
	<path class="st6" d="M29.3,160c-0.1,0.1-0.2,0.2-0.2,0.3c-0.3,0.6,0.1,1.2,0.3,1.8c-0.1-0.4-0.3-0.7-0.4-1.1
		C28.9,160.6,29,160.2,29.3,160z"/>
	<path class="st6" d="M30,168.4c-0.1,0-0.2,0-0.3,0c0.1-0.3,0.2-0.6,0.3-0.9C30,167.8,30,168.1,30,168.4z"/>
	<path class="st6" d="M31,161c0.3,0.4,0.7,0.7,1,1c-0.4-0.1-0.7-0.3-1.1-0.3c-0.2-0.3-0.3-0.9-0.4-1.3C30.7,160.6,30.8,160.8,31,161
		z"/>
	<path class="st6" d="M38.9,155c0.9,0.5,1.6,1.3,2.3,2c-1-0.7-1.9-1.5-2.8-2.3C38.6,154.8,38.7,154.9,38.9,155z"/>
	<path class="st6" d="M39.4,164.6c0,0.2,0,0.4,0,0.6c-1.2-0.1-2.3-0.4-3.5-0.7c0-0.2,0-0.3,0-0.4c0.9,0.2,1.8,0.3,2.6,0.5
		C38.9,164.6,39.1,164.6,39.4,164.6z"/>
	<path class="st6" d="M46.3,156.9c0.2,0.7,0.1,1.1-0.2,1.3c0.1-0.3,0.1-0.7,0.1-0.9c0-0.7-0.1-1.4-0.3-2.1
		C46.1,155.7,46.3,156.3,46.3,156.9z"/>
	<path class="st7" d="M51.2,155.7c0.1,1.9,0.3,3.8,0,5.7c0,0.3-0.3,0.7-0.7,0.7c-0.2,0-0.3-0.1-0.4-0.2c-0.1,2-0.2,4-0.5,6
		c-0.3,4.3-3.4,6.2-7.4,6.4c-2.6,0.3-5.3,0.5-7.9,0.4c-2.2-0.2-4.5-0.5-6-2.3c-1-0.8-2.8-3.9-0.6-4.2c0,0,0.1-0.1,0.1-0.1
		c0,0,0.1-0.1,0.2-0.1c0.3-0.2,0.7,0,0.8,0.3c0.1,0,0.3,0,0.4,0c0.2,0,0.3,0,0.5,0c0.1,0,0.2,0,0.3,0c0-0.3,0-0.6-0.1-0.9
		c-0.1-1.7-0.4-3.3-0.5-5c0-0.1,0-0.2-0.1-0.3c-0.2-0.6-0.5-1.2-0.3-1.8c0-0.1,0.1-0.2,0.2-0.3c0,0,0,0,0,0c0.1-0.1,0.2-0.2,0.4-0.2
		c0.5,0,0.7,0.2,0.8,0.6c0.2,0.4,0.2,1,0.4,1.3c0.4,0.1,0.7,0.2,1.1,0.3c0.6,0.2,1.2,0.5,1.7,0.7c0.7,0.3,2.1,0.5,2.2,1.4
		c0,0.1,0,0.3,0,0.4c1.2,0.2,2.3,0.6,3.5,0.7c0-0.2,0-0.4,0-0.6c-0.3-3.4-2-6.5-2.9-9.7c0-0.9,0.9-1.1,1.5-0.5
		c0.1,0.1,0.3,0.2,0.4,0.3c0.9,0.8,1.8,1.6,2.8,2.3c0.2,0.1,0.4,0.3,0.6,0.4c1,0.4,3.4,1.4,4.2,0.7c0.3-0.2,0.3-0.6,0.2-1.3
		c0-0.5-0.1-1.1-0.4-1.8c-0.8-2.1-2.5-4.4-2.2-5.8c0-0.2,0.1-0.3,0.2-0.5c0.8-0.9,2.1-0.3,3.1-0.2c0.3,0,0.7,0.1,1,0.3
		c0.5-0.2,1,0.2,1.5,0.4c0.9,0.5,1.5,1.3,1.7,2.3C51.4,153,51.2,154.4,51.2,155.7z"/>
	<path class="st8" d="M58.6,148.4c0.1,1.5,0.1,3.1,0.1,4.6c-0.1,0-0.1,0.1-0.2,0.1c-0.3,0.3-0.2,0.8,0.1,1c-0.4,4.1-0.7,8.1-1,12.2
		c-0.1,2.1-0.3,4.2-0.9,6.2c-0.4,1.1-1,2.1-1.9,2.8c-2.4,1.3-5.2,1.7-7.8,2.2c-1.5,0.4-3,0.8-4.6,0.9c-1.5,0.3-3,0.5-4.5,0.4
		c-2.2,0-4.4-0.4-6.6-0.4c-1.1,0-2.2,0-3.2-0.6c-0.2-0.1-0.3-0.3-0.4-0.5c-1.4-0.4-2.6-1-3.7-1.9c-1.4-0.9-2.7-2-3.6-3.5
		c-1.2-2.2-1.6-4.8-1.5-7.3c0-0.1,0-0.3,0-0.5c0-0.1,0-0.1,0-0.2c0-0.4,0.2-0.8,0.5-1c0.5-0.3,1,0.4,0.9,0.9c1,0.6,2,1.1,3,1.7
		c0.1,0.1,0.2,0.1,0.3,0.2c0.4,0.2,0.7,0.5,1.1,0.7c0,0,0.1,0.1,0.1,0.1c0,0,0.1,0.1,0.1,0.1c0,0,0,0,0,0c0.1,0.1,0.2,0.1,0.3,0.2
		c0.2,0.1,0.4,0.2,0.6,0.3c0.1,0.1,0.2,0.1,0.3,0.2c0.1,0.1,0.2,0.1,0.3,0.2c0.1,0,0.2,0.1,0.3,0.1c0.1,0,0.2,0.1,0.3,0.1
		c0.1,0,0.2,0.1,0.3,0.1c0.1,0.1,0.2,0.1,0.3,0.1c0.1,0,0.2,0.1,0.3,0.1c0,0,0,0,0,0c0,0-0.1,0.1-0.1,0.1c-2.2,0.3-0.4,3.4,0.6,4.2
		c1.5,1.8,3.8,2.2,6,2.3c2.6,0.1,5.3-0.2,7.9-0.4c4-0.2,7.1-2.1,7.4-6.4c0.3-2,0.4-4,0.5-6c0.1,0.1,0.2,0.2,0.4,0.2
		c0.4,0,0.7-0.3,0.7-0.7c0.3-1.9,0.1-3.8,0-5.7c0-1.3,0.2-2.7-0.1-4.1c-0.2-1-0.8-1.8-1.7-2.3c-0.4-0.2-1-0.6-1.5-0.4
		c-0.3-0.1-0.7-0.2-1-0.3c-1-0.1-2.3-0.7-3.1,0.2c-0.1,0.1-0.2,0.3-0.2,0.5c0-0.1-0.1-0.1-0.1-0.2c0-0.1-0.1-0.1-0.2-0.2
		c0,0,0,0,0,0c-0.1-0.1-0.1-0.2-0.2-0.2c-0.1-0.1-0.2-0.2-0.2-0.3c0-0.1-0.1-0.1-0.1-0.2c-0.2-0.3-0.4-0.6-0.6-1
		c-0.5-0.9-0.8-1.9-1.2-2.9c-1.1-1.8-0.2-3.1,1.9-2.8c2.3,0.3,4.5,1,6.8,1c1.6,0,3.2-0.3,4.7,0.4c1.5,0.6,3.2,1.3,3.7,3
		C58.4,146.7,58.5,147.5,58.6,148.4z"/>
	<path class="st6" d="M148,148c0.4,0.8-0.3,1.4-0.9,1.8c-1,0.7-2,1.3-2.9,2.1c-1.2,0.9-2.2,2-3.3,3c-0.1,0.1-0.2,0.2-0.3,0.2
		c-0.4,0.3-0.8,0.6-1.2,0.9c-0.4,0.3-0.8,0.6-1.2,0.8c-0.4,0.3-1.1,0.9-1.6,0.7c-0.1,0-0.1,0-0.2,0c-3-0.1-6,0.3-9,0.6
		c-2.3,0.1-4.7,0.1-7,0.1c-3.2,0-6.3-0.4-9.5-0.6c-2.8-0.1-5.5-0.1-8.3-0.2c-4.5,0.1-9.1-0.4-13.6-0.4c-3.7,0.1-7.4-0.6-11.1-0.9
		c-1.2,0-2.4-0.2-3.6-0.3c-2.4-0.1-4.9,0-7.3-0.5c-2.2-0.5-4.5-0.8-6.7-1.1c-0.5-0.1-1.1-0.1-1.6-0.3c-0.1,0-0.1-0.1-0.2-0.1
		c-0.3-0.3-0.3-0.7-0.1-1c0-0.1,0.1-0.1,0.2-0.1c0.1-0.1,0.3-0.1,0.5-0.1c0-0.3,0-0.7,0-1c0-1-0.1-2-0.1-2.9
		c0.1-0.4-0.1-1.1-0.1-1.8c-0.1-0.1-0.1-0.3-0.1-0.4c0-0.2,0-0.3,0.1-0.4c0-0.7,0.2-1.2,0.9-1.3c0.5,0.1,0.7,0.4,0.7,0.9
		c0.3,0,0.6,0,0.8,0c1.8-0.1,3.7-0.3,5.5-0.5c1-0.1,1.9-0.2,2.9-0.2c1.3,0,2.5,0.4,3.7,0.5c3.6,0.4,7.2,0.8,10.9,0.8
		c1.7,0,3.4-0.2,5.1,0c2.7,0.1,5.4,0.5,8,0.7c3.6,0.4,7.3,0.4,10.9,0.3c8.2,0,16.5,1.1,24.7,0.7c3.2-0.2,6.5-0.2,9.7-0.3
		c1.4-0.1,2.8-0.2,4.2-0.3C147.3,147.6,147.8,147.6,148,148z"/>
	<path class="st7" d="M155.7,148.1c1,0.1,1.9,0.2,1.7,1.5c-0.4,1.7-0.6,3.4-0.7,5.1c-0.1,1.1,0,2.4-0.6,3.4c-1.3,2-4.4,2.7-6.6,3.4
		c-0.6,0.2-1.2,0.4-1.7,0.7c-0.4,0.2-0.8,0.5-1.3,0.4c-0.8-0.2-0.9-1.3-1-2c-0.1-1-0.2-2-0.6-3c-1.2-0.1-2.3-0.1-3.5-0.1
		c-0.5,0-1.2,0.1-1.6-0.3c-0.8,0.6-1.4-0.4-0.8-1c0,0,0.1-0.1,0.1-0.1c0.4-0.3,0.8-0.6,1.2-0.9c0.4-0.2,0.8-0.5,1.2-0.7
		c1.5-1.1,3-1.8,4.5-2.9c0.5-0.4,1-0.9,1.5-1.4c1-0.9,2.2-1.6,3.5-2.2C152.6,147.5,154.2,147.9,155.7,148.1z"/>
	<path class="st9" d="M204.3,74c0,0,0-0.1,0.1-0.1c0,0-0.1,0-0.1,0c0,0,0,0,0,0C204.2,73.9,204.2,73.9,204.3,74
		C204.2,74,204.3,74,204.3,74z M203.7,77.3c-1-0.8-1.4-2.1-1.8-3.3c-0.4-1.2-0.5-2.4-0.7-3.6c-0.4-2.3-0.3-5,1-7.1
		c1.6-2.4,4.1-1,5.1,1.1c1,2,1.1,4.3,1.1,6.4c-0.2,2.2-0.5,4.7-2.1,6.4C205.6,77.9,204.4,78,203.7,77.3z"/>
	<path class="st9" d="M200.2,57.6c-0.7-0.4-0.9-1.4-1-2.2c-0.6-0.8-0.4-2.5-0.1-3.4c0.3-0.9,1.4-1.4,2.1-0.6
		c0.7,0.9,0.8,2.1,0.9,3.2C202.2,55.7,201.8,58.3,200.2,57.6z"/>
	<path class="st9" d="M9.9,194.2c0.2,0.5,0.5,1,0.3,1.5c-0.4,1.2-1.9,0.8-2.8,1c-1.1,0.1-2.3,0.6-3.4,0.5c-0.3-0.1-0.5-0.3-0.6-0.6
		c-1.2-0.6-1.3-5.2-1.5-6.6c0-1.2-0.4-5,1.8-3.8c1.5,1.2,2.5,2.8,3.9,4.1C8.5,191.4,9.2,192.8,9.9,194.2z"/>
	<path class="st9" d="M20,188.4c1.2,1.8,2.3,3.2-0.6,3.9c-0.6,0.2-1.2,0.3-1.8,0.5c-0.5,0.1-1.1,0.2-1.4-0.3
		c-1.3,0.7-1.8-3.4-2.1-4.2c-0.4-1.6-0.6-3.2-0.5-4.8c0.1-0.9,0.2-2.5,1.3-2.5c1.3,0,3.1,4.5,3.9,5.6
		C19.2,187.1,19.6,187.7,20,188.4z"/>
	<path class="st9" d="M34.5,186.5c4.4,3.4,1.2,4.4-2.6,4.9c-0.9,0.1-1.8,0.5-2.7,0.3c-0.6,0-0.7-0.7-0.8-1.2
		c-0.1-1.1-0.2-2.2-0.2-3.3c-0.1-1.3,0-2.6-0.1-3.8c0-0.4-0.1-0.9,0.3-1.3c0.5-0.5,1.2,0,1.5,0.4c0.5,0.5,0.9,1,1.4,1.5
		C32.2,184.9,33.4,185.7,34.5,186.5z"/>
	<path class="st9" d="M134.9,166.4c0.1,0.9,0.1,1.9,0.1,2.8c0,0.4,0,0.8-0.2,1.1c-0.1,0.2-0.4,0.4-0.7,0.4c-0.2,0.2-0.5,0.2-0.8,0.1
		l0.1,0c-1.2-0.6-2.5-1-3.8-1.5c-1.2-0.4-2.3-1-3.5-1.4c-1-0.3-2.1-0.6-3.1-0.8c-1.3-0.3-2.8-0.5-4.1-0.7c-5.3-0.8-10.8-1-16.2-1
		c-3.7,0-7.4,0.1-11.1,0.1c-2,0.2-3.9,0.7-5.9,0.7c-0.2,0-0.4,0.1-0.6,0.1c-0.1,0.1-0.3,0.2-0.5,0c0,0,0,0,0,0c0,0,0,0,0,0
		c0,0,0,0,0,0c0,0,0,0,0,0c-0.7-0.5,0.3-2.4,0.4-3.2c0.4-1.6,1.4-5.3,3.1-5.8c0.8-0.2,1.5,0,2.3,0.1c2.2,0.2,4.4,0.5,6.6,0.6
		c2.2,0.2,4.4,0,6.7,0.1c1.5,0,2.9,0,4.4,0.2c1.1,0.1,2.3,0.1,3.4,0.1c4,0.3,8.1,0.4,12.2,0.2c2.1-0.1,4.3,0,6.4,0
		c1,0,2.1,0,3.1,0.4c1,0.6,1.1,2,1.3,3.1C134.6,163.5,134.8,165,134.9,166.4z"/>
	<path class="st9" d="M122.4,202.3c0,1.2-0.9,1.3-1.9,1.4c-1,0.1-1.9,0.3-2.9,0.5c-0.5,0.1-1.2,0.4-1.6-0.2
		c-0.4-0.4-0.6-0.9-0.8-1.4c-0.6-1.3-1.1-2.7-1.4-4.1c-0.1-1-0.7-3.3,0.8-3.4c0.4,0,0.7,0.2,1,0.4c0.7,0.5,1.3,1,1.9,1.5
		c1.3,1,2.4,2.3,3.5,3.4c0.4,0.4,0.7,0.8,1,1.2C122.2,201.8,122.3,202,122.4,202.3z"/>
	<path class="st9" d="M134.2,199.1c0.5,0.9-0.2,1.8-1.2,1.8c-0.8,0.2-1.6,0.3-2.5,0.4c-0.8,0.1-1.7,0.2-2.5,0.5
		c-0.7,0.2-1.7,0.8-2.1-0.2c-0.7-2.8-1.4-5.6-1.4-8.5c0-1.2,1-1.6,1.9-0.9C129.3,194.3,132.2,196.3,134.2,199.1z"/>
	<path class="st9" d="M147.4,198.2c0.2,1.2-0.8,1.5-1.8,1.4c-0.8,0-1.5,0-2.3,0.2c-1,0.1-2,0.5-3,0.6c-0.3,0.1-0.6-0.2-0.8-0.4
		c-1.1,0.2-0.9-1.3-0.8-2c0.2-1.6,0.5-3.2,0.7-4.9c0.2-1-0.2-2.9,1.1-3.3c0.9-0.2,3.3,3.1,3.7,3.8c0.6,1.2,1.3,2.3,2.2,3.3
		C146.8,197.4,147.3,197.6,147.4,198.2z"/>
	<path class="st5" d="M86.6,55.1c1.9,1.7,4.2,2.9,6.5,4c-6.6,3.1-7.1,4-14.3,4.4c0-3.9-1.4-7.9-4.1-10.8c-3-3.1-7.6-3.7-11.7-3.4
		c-2.9,0.2-5.8,1.2-8.4,2.6c-4.1,2.2-5.5,7.1-5.7,11.5c-1.5-0.1-3-0.4-4.5-0.8c-2.7-0.7-5.4-2.1-4.7-5.3c0.7-3.6,2.6-5.8,5.8-7.5
		c2.2-1.1,4.2-2,6.5-2.8c3.9-0.9,8-0.3,11.9-0.4c2.6,0,5.2,0,7.8,0.5c1.4,0.3,2.7,0.8,4,1.4c2.8,1.3,5.5,2.7,8,4.3
		C84.6,53.4,85.7,54.3,86.6,55.1z"/>
	<path class="st5" d="M60.7,58.4c1,1.4-0.9,2.8-2.2,2.9c-1.4,0.1-1.5-1-1.5-2c0.4-0.1,0.5-0.6,0.7-0.9c0.1-0.2,0.4-0.4,0.6-0.5
		C59.1,57.5,60.1,57.8,60.7,58.4z"/>
	<path class="st5" d="M130.5,60.6c0.9,1.2-0.2,2.8-1.6,2.9c-2.8,0.2-2.3-3.1-0.5-4.1C129.4,59.5,130,59.8,130.5,60.6z"/>
	<path class="st5" d="M166.4,52.6c2,0.9,3.8,2.1,5.8,3c-3.7,3.6-6.8,5.5-11.8,6.8c-2,0.7-4.1,1.2-6.2,1.7c0.6-0.4,0.3-1.3,0.1-2
		c-0.7-2.5-2.1-4.7-3.7-6.6c-0.5-0.7-1.1-1.3-1.7-1.8c-1.4-1.4-2.9-3-4.9-3.7c-2-0.7-4.2-0.7-6.3-0.7c-2.5,0.1-5,0.6-7.3,1.7
		c-2.8,1.3-6.7,2.7-8.5,5.3c-1.1,1.4-2.8,6.4-2.1,8.7c-0.8-0.1-1.5-0.2-2.3-0.4c-2.5-0.5-5.7-1.2-7.6-3.2c-1.2-1.5-1.2-3.5-0.3-5.1
		c2.4-4.6,5.3-5.7,10-7.1c3.5-1,7.1-2.1,10.8-2.4c1.4-0.1,2.9-0.2,4.3-0.1c2.1,0.1,4.1,0.4,6.2,0.6c1.7,0.2,3.5,0.2,5.2,0.5
		c2.4,0.4,4.8,0.6,7.2,1c2.5,0.5,4.9,1.3,7.4,1.8C162.8,51.1,164.6,51.7,166.4,52.6z"/>
	<path class="st5" d="M78,126.3c-0.2,0.2-0.3,0.4-0.5,0.6c-0.8,0.9-1.6,1.8-2.4,2.7c-1.2,1.2-2.1,2.9-3.8,3.5
		c-1.2,0.4-3.4-2-4.4-2.7c-0.9-0.8-1.8-1.6-2.6-2.5c-0.4-0.5-0.9-0.9-1.3-1.4c-0.2-0.2-0.4-0.4-0.6-0.6c2,0.1,3.9,0,5.9,0.1
		C71.6,125.9,74.8,126.1,78,126.3z"/>
	<path class="st5" d="M103.4,126.3c-0.3,0.4-0.6,0.8-0.9,1.1c-1.4,1.6-4.4,5.9-6.5,5.9c-0.6-0.1-1.2-0.4-1.7-0.7
		c-1.5-1-2.8-2.2-4.1-3.5c-0.8-0.9-1.6-1.8-2.3-2.7C93,126.4,98.2,126.4,103.4,126.3z"/>
	<path class="st5" d="M132.9,118c0,0.6-0.1,1.2-0.2,1.8c-0.5,2.1-1.3,4.2-2.4,6c-0.8,1.2-2,2.4-3.5,2.5c-2.3,0.1-4.5-0.8-6.5-1.9
		c-1.5-0.7-3-1.3-4.6-1.9c0.3-0.1,0.5-0.1,0.8-0.2c2.6-0.4,5-1.3,7.3-2.4C126.9,120.8,129.9,119.4,132.9,118z"/>
	<path class="st10" d="M153,94.4c1.4,4.8,1.7,10.4-0.3,15.1c-1.2,2.3-3.2,4.2-5.5,5.3c0-0.1,0-0.1,0-0.2c0.2-1,0.3-1.9,0.5-2.8
		c0.4-3,0.1-6.1-0.1-9.2c-0.1-1.1-0.2-2.2-0.4-3.4c-0.1-0.4-0.1-1-0.5-1.2c-0.3-0.2-0.8,0.1-0.8,0.4c-0.1,0.7,0.1,1.4,0.2,2
		c0.2,1.9,0.3,3.8,0.3,5.7c0.1,2.7-0.1,5.3-0.7,7.9c0,0.4-0.2,0.8-0.3,1.3c-1.4,0.3-2.8,0.4-4.2,0.4c-1.1,0-2.3,0-3.4-0.3
		c2.1-1.3,2-4.1,2.1-6.3c0.1-2.6,0.1-5.2,0.1-7.8c0-2.5-0.1-5.1,0.6-7.5c0.4-1.4,1.2-2.6,2.2-3.7c0.9-0.9,1.7-2,3-2.4
		c1.6-0.4,3.1,0.6,4.2,1.6C151.5,90.7,152.4,92.5,153,94.4z"/>
	<path d="M103.2,99.5c2.7,0,3.1,2.4,1.7,4.3c-1.1,1.6-2.8,2.6-4,4c-1,0.9-2,2.5-3.6,2.2c-1.3-0.5-1.1-2.2-0.8-3.3
		c0.7-2.5,2.2-4.7,4.1-6.3c0.3-0.2,0.8-0.5,1.2-0.4C102.2,99.7,102.7,99.6,103.2,99.5z"/>
	<path d="M50.5,99.9c0.9,1.1,1.5,2.6,1.4,4c-0.1,1.3-1.2,2.8-2.6,2.4c-0.9-0.3-1.8-0.7-2.7-1.2c-2.5-1.3-5.4-2.5-6.5-5.3
		c-0.5-1.4-0.2-3,0.9-4c0.5-0.5,1.5-0.8,2-0.2C45.7,96.4,48.6,97.6,50.5,99.9z"/>
	<path d="M212.8,64.3c0.9,4.2,1.2,8.6,1.1,12.9c-0.1,1.6-0.3,3.1-0.6,4.7c-0.4,2.4-0.9,4.8-1.8,7.1c-1.1,3.1-2.3,6.1-3.7,9
		c-1.6,3.8-3.5,7.6-6.5,10.6c-1.2,1.2-2.4,2.4-3.7,3.4c-0.9,0.7-1.9,1.3-2.7,2.1c-3,3.1-7,5-10.6,7.3c-2.8,1.9-5.8,3.4-8.8,4.9
		c-1.5,0.8-3.1,1.5-4.6,2.3c-2,1.1-3.9,2.3-6.1,3c-1.7,0.6-3.4,1.1-5,1.7c-1,0.4-2,0.8-3,1.1c-3,0.8-6,1.6-9,2.3
		c-3.1,0.9-6.1,1.9-9.2,2.7c-4.5,1.2-9,2-13.5,3.1c-2.9,0.7-5.8,1.6-8.7,2.2c-4.5,0.8-8.8,1-13.4,0.8c-4.5-0.2-9-0.7-13.5-0.9
		c-3.2-0.2-6.5-0.2-9.7-0.6c-3.1-0.3-6.2-1.3-9.1-2.4c-3.1-0.9-6-2.2-8.7-4c-5.1-3.2-9.5-7-10.5-13.2c-0.8-0.2-1.6-0.3-2.4-0.5
		c-3.8-0.7-7.7-1.5-11.3-3.2c-1.2-0.5-2.4-1.2-3.6-1.9c-1.2-0.7-2.4-1.4-3.3-2.4c-2.8-3-4.9-6.7-5.9-10.7c-0.8-2.7-1.2-5.4-1-8.2
		c0.1-6.1,1.3-13.6,6.8-17.2c2.3-1.6,4.7-3.1,7.1-4.4c1.7-1,3.5-1.9,5.3-2.5c2-0.7,4-1.3,6.1-1.6c0.2,0,0.4-0.1,0.6-0.1
		c-0.4-0.3-0.9-0.6-1.3-1c-1.3-1-6.1-5-5.8-6.8c-2.8-1-5-2.8-4.9-6.1c0.4-3.4,1.6-5.8,3.5-7.6c-0.2-0.9,0.4-2.5,0.6-3.3
		c1-2.7,3-5,5.3-6.7c-0.1-0.1-0.2-0.3-0.2-0.5c0.1-0.9,0.7-1.6,1.2-2.3c0.8-1.2,1.6-2.5,2.6-3.5c1.2-0.9,2.7-1.5,4.1-2.2
		c1.2-0.6,2.5-0.9,3.7-1.2c0.2-1.8,1.6-4.4,2.1-5.7c1.7-4.2,4.1-8.1,7.2-11.5c2.3-2.5,4.6-4.9,7.3-7c2.8-2.1,6.3-2.9,9.6-3.7
		c2.5-0.6,5.1-0.2,7.6,0.1c1.7,0.3,3.4,0.6,5,1.3c2.2,1.1,4.2,2.7,6.1,4.2c2,1.6,3.5,3.6,4.8,5.7c0.2,0.4,0.6,1,0.9,1.6
		c2.6-2.9,5.3-4.2,9.4-5.2c3.6-0.8,7.3-1.3,11-1.3c1.1,0.1,2.2,0.1,3.3,0.4c0.3-0.3,0.6-0.6,0.9-0.8c2-1.6,4.3-2.8,6.6-4
		c1.5-0.8,3-1.6,4.5-2.3c3.2-1.3,6.5-2.2,10-2.4c5.9-0.6,11.8,0.9,17.2,3.2c2.2,0.9,4.4,1.7,6.5,2.9c2.1,1.2,4.1,2.8,5.9,4.4
		c3,2.4,5.3,5.6,7,9c1.5,3.1,2.2,6.5,2.8,9.9c0.5,2.9,1,5.9,0.5,8.9c0.4,0.2,0.9,0.4,1.3,0.6c1.5,0.7,3,1.5,4.4,2.4
		c2.2,1.3,3.8,3.3,5,5.5c1.8,3.1,3.4,6.3,4.8,9.7C211.5,59,212.4,61.6,212.8,64.3z M212.2,77.3c0.2-6.8-0.7-13.7-3.4-19.9
		c-1-2.5-2-4.6-3.2-7c-1-1.9-2-3.7-3.4-5.4c-2.2-2.4-5.3-3.9-8.2-5.3c-0.1-0.1-0.2-0.1-0.3-0.1c-0.6-0.2-0.6-1-0.2-1.3
		c-0.2-2.2-0.2-4.4-0.5-6.5c-0.4-2.8-1-5.6-1.8-8.4c-1.2-3.6-3.2-6.9-5.8-9.6c-2.9-2.7-5.9-5.4-9.6-6.9c-2.3-1-4.6-1.9-6.9-2.8
		c-3-1.1-6.1-1.8-9.2-2.1c-4.9-0.3-9.9,0.6-14.4,2.6c-3,1.5-6.1,2.9-8.9,4.7c0,0,0,0,0,0c-2.7,1.7-4.5,4.3-6.4,6.8
		c-2.3,3-4.4,6.2-5.7,9.8c-0.6,1.7-1.2,3.3-1.6,5.1c-0.1,0.2-0.1,0.5-0.1,0.8c2-1.1,4.3-1.7,6.5-2.3c2.3-0.7,4.6-1.1,7-1.2
		c3.2-0.2,6.4,0.1,9.6,0.4c3.8,0.4,7.6,0.6,11.3,1.7c2.3,0.8,4.2,1.8,6.3,3c1.4,0.8,2.7,1.7,3.9,2.7c1.5,1.2,2.7,2.7,4,4.1
		c0.9,0.9,1.6,1.7,2.3,2.6c0.5,0.7-0.2,1.8-1,1.2c-2.2-2-4-4.4-6.1-6.4c-1.5-1.3-3.1-2.3-4.8-3.2c-2-1-3.8-1.9-5.9-2.5
		c-3.9-0.9-8-1.1-12-1.5c-4.5-0.5-9.2-0.4-13.6,0.7c-5.8,1.5-10,3.3-13.4,8.6c-0.1,0.2-0.2,0.4-0.4,0.6c0.1-0.1,0.2-0.1,0.3-0.2
		c2.8-1.8,5.6-3.5,8.7-4.7c1.8-0.7,3.8-1.2,5.6-1.7c2.8-0.7,5.6-0.8,8.4-0.9c2.1-0.1,3.9,0,5.9,0.4c2.2,0.3,4.4,0.6,6.6,1.2
		c1.8,0.4,3.5,1,5.1,1.8c1.4,0.7,2.8,1.6,4.2,2.3c2.2,1.1,4.5,2.1,6.6,3.4c1.9,1.2,3.3,2.9,4.9,4.3c1,0.9,1.9,1.8,2.8,2.7
		c0.5,0.5,0.3,1.4-0.4,1.6c-0.2,0-0.4-0.1-0.6-0.2c-1-0.9-1.9-1.8-2.8-2.7c-1.5-1.4-2.9-2.9-4.6-4c-2.1-1.3-4.3-2.3-6.5-3.4
		c-2.4-1.1-4.5-2.7-7.1-3.4c-2.1-0.6-4.2-1.2-6.4-1.5c-2.5-0.4-5.1-0.8-7.6-0.7c-2.7,0.1-5.4,0.2-8,0.9c-3.7,1-7.4,2.2-10.6,4.2
		c-2.7,1.6-5.5,3-7.2,5.6c-0.8,1.3-1.3,2.9-1.6,4.4c-0.1,0.4-0.1,0.9-0.2,1.3c1.1-1,2.3-1.7,3.7-2.2c2.2-0.9,4.5-1.5,6.8-2.2
		c3.9-1.2,7.9-1.9,11.9-1.9c3.4,0,6.8,0.7,10.2,0.8c1.6,0.1,3.1,0.4,4.7,0.6c3.1,0.4,6.1,0.8,9.1,1.7c4.4,0.9,8.5,2.3,12.3,4.6
		c0.9,0.5,1.9,1.1,2.8,1.6c0.3,0.2,0.8,0.3,1.1,0.7c0.3,0.4,0.2,0.9-0.2,1.1c0,0.2-0.1,0.3-0.2,0.4c-0.5,0.5-1,0.9-1.5,1.3
		c-1.6,1.5-3.4,3-5.4,4.1c-3.5,1.8-7.4,2.8-11.2,3.9c-4.5,1-9,1.4-13.6,1.5c-4,0.2-8,0.7-12,0.6c-2.5,0-4.9-0.2-7.4-0.5
		c-2.8-0.4-6.6-0.8-9.7-1.9c0.6,0.7,1.2,1.3,1.9,1.9c2.7,2.2,5.7,4.1,9.1,5c3.9,1,7.9,1.8,12,1.7c2.1,0,4.1-0.4,6.1-0.7
		c2.4-0.4,4.9-0.4,7.3-0.9c2-0.3,4-0.8,5.8-1.6c2.4-1.1,4.9-2.2,7.2-3.5c1.7-0.9,3.4-1.9,5-3.1c0.8-0.5,1.4,0.8,0.7,1.3
		c-2.2,2.2-5.1,3.4-7.9,4.8c-2.1,0.9-4.2,2.1-6.4,2.9c-2.9,1-6,1.3-9,1.6c-3.1,0.3-6.1,1.2-9.2,1.1c-3.1,0-6.1-0.5-9.1-1.2
		c-2.3-0.5-4.7-1-6.8-2.2c-2.4-1.2-4.6-2.7-6.5-4.6c-0.6-0.7-2.5-2.4-1.8-3.3c-0.9-0.5-1.7-1.1-2.4-1.8c-2.4-3-1.6-6.7,0.6-9.6
		c0.2-0.3,0.5-0.7,0.7-1c-0.4-1.4,0-2.9,0.3-4.3c0.5-2.2,1.6-4.2,3.2-5.8c0-0.6,0.5-1.4,0.7-1.9c1.3-2.8,3.4-5.3,5.9-7.2
		c0.3-0.2,0.6-0.4,0.9-0.6c-0.3-1.2,0.4-3.5,0.6-4.3c1.4-5,3.9-9.6,7.1-13.6c0.8-1.1,1.6-2.1,2.4-3.2c-0.3,0-0.6-0.1-0.9-0.1
		c-2.2-0.2-4.2,0.1-6.3,0.3c-4.5,0.6-9.4,1.3-12.8,4.6c-0.9,0.9-1.8,1.8-2.7,2.8c-0.3,0.3-0.7,1-1.2,0.6c-0.7-0.7,0.1-1.6,0.6-2.3
		c-0.5-0.9-0.9-1.8-1.5-2.6c-1.4-2.4-3.4-4.2-5.6-5.8c-4.3-3.5-6.8-3.8-12.2-4.3c-1.6-0.2-3.2,0.1-4.7,0.5c-1.9,0.5-3.8,1-5.6,1.8
		c-1.6,0.7-3,1.9-4.3,3.1c-2.7,2.5-5.4,5.1-7.6,8.1c-2.2,2.8-3.5,6-5,9.2c-0.5,1-0.9,2.1-1.3,3.1c1.3-0.3,2.6-0.7,3.9-0.8
		c1-0.1,1.9-0.1,2.8-0.1c3.1,0,6.2-0.1,9.2,0.8c1.5,0.5,3,1,4.4,1.6c2.3,1.1,4.4,2.6,6.1,4.5c1,1.2,2.1,2.4,3.1,3.5
		c0.6,0.6,0,1.9-0.9,1.3c-1.8-1.4-2.9-3.3-4.6-4.8c-2.5-2.3-5.8-3.5-9-4.5c-3.5-0.8-7.1-0.6-10.6-0.5c-1.7,0.1-3.4,0.7-5.1,1
		c0,0-0.1,0-0.1,0c0,0-0.1,0-0.1,0.1c-0.1,0-0.1,0-0.2,0c-2.6,0.5-5,1.6-7.2,2.9c-0.9,0.7-1.5,1.8-2.2,2.7c-0.3,0.4-0.6,0.9-1,1.3
		c0.1-0.1,0.2-0.1,0.3-0.2c1.3-0.9,2.6-1.8,4.1-2.4c1.5-0.6,3-0.9,4.6-1.2c3.1-0.5,6.3-1.1,9.5-1.1c1.5,0,3.1,0.1,4.6,0.3
		c1.8,0.3,3.4,1.3,5,2.1c2.2,1.3,4.7,2,6.9,3.4c0.7,0.4,1.3,0.9,2,1.3c1.5,0.9,2.9,2,4.2,3.2c1.7,1.3,3.3,2.5,4.5,4.2
		c0.2,0.3,0.2,0.8,0,1.1c-0.2,0.3-0.7,0.4-1,0.1c-0.7-0.7-1.4-1.4-2.2-2.1c-3.2-2.6-6.4-5.4-10.2-7.2c-1.3-0.6-2.6-1.1-3.8-1.7
		c-1.6-0.8-3.2-1.8-4.9-2.3c-3.1-0.7-6.3-0.5-9.5-0.1c-2.4,0.3-4.8,0.6-7.1,1.2c-2.5,0.5-4.6,1.9-6.6,3.3c-0.8,0.5-1.6,1-2.3,1.7
		c-1,0.9-1.8,1.9-2.5,3c-0.7,1-1.1,2.1-1.4,3.3c1.5-1.1,3.4-2,5.5-2.8c1.5-0.7,3.1-1.4,4.7-1.6c1.7-0.2,3.3-0.2,5-0.2
		c3.3,0.1,6.6,0,9.9,0.2c1.3,0.1,2.6,0.2,3.9,0.5c2.4,0.5,4.3,1.5,6.4,2.5c2.1,1.1,4.3,2.2,6.3,3.6c1.9,1.3,3.4,3,5.4,4.3
		c1.5,1,3.1,1.7,4.5,2.7c1-0.7,1.7,0.9,0.9,1.5c-1.2,0.9-2.6,1.4-3.9,2c-1.4,0.6-2.7,1.4-4.1,2c-2,0.9-4.1,1.2-6.3,1.4
		c-3.2,0.2-6.4,0.4-9.7,0.4c-6.5,0-13,0.1-19.5,0c-2.5,0-4.9-0.2-7.3-0.9c-0.1,0-0.2,0-0.3-0.1c0.2,0.3,0.4,0.5,0.6,0.7
		c1.7,1.9,3.7,3.6,5.8,5c1.5,1.1,3.4,1.7,5.3,1.9c3.6,0.5,7.3,1,11,1c2.1,0,4.3,0.2,6.4-0.3c2.9-0.9,5.6-2.3,8.6-3.1
		c1.6-0.4,3.1-0.8,4.4-1.7c1.1-0.7,2.1-1.6,3.2-2.4c0.8-0.5,1.4,0.7,0.8,1.2c-0.3,0.3-0.6,0.7-0.9,0.9c-1.5,1.3-3.2,2.4-5.1,3.1
		c-2.2,0.6-4.4,1.3-6.6,2.2c-3.3,1.5-5.3,2.1-9,2c-3.9,0-7.9-0.2-11.8-0.9c-2-0.2-3.6-0.6-5.1-1.2c-0.1,0.1-0.2,0.2-0.3,0.3
		c-3.5,0.3-7,1.5-10.2,2.9c-3.2,1.6-6.4,3.3-9.3,5.4c-1.4,1-2.8,2-3.7,3.6c-1.8,3-2.5,6.7-2.8,10c-0.1,1.7-0.1,3.3-0.1,5
		c0.2,2.3,0.8,4.5,1.4,6.6c0.7,2.1,1.8,4,3.1,5.7c0.8,1.1,1.6,2.2,2.7,3c4.3,3,9.3,4.9,14.5,5.8c3.9,0.7,7.7,1.8,11.7,2.1
		c4,0.3,7.9,0.2,11.9,0.3c2.7,0.1,5.4,0.4,8.1,0.5c5.3,0.2,10.7,0.1,16,0.2c2.7,0,5.3,0,8-0.1c3.2,0,6.5-0.4,9.6-1.1
		c2.7-0.6,5.5-0.9,8.1-2c4.9-1.9,9.6-4.1,14.3-6.4c3.2-1.4,2.9-1.7,3.3-5.2c0.2-3.9,0.1-7.8,0.3-11.6c0.1-2.7,0.5-5.4,2-7.7
		c1.2-1.6,2.5-3.5,4.3-4.3c2.2-0.9,4.5,0.4,6.1,1.9c2,1.8,3.2,4.4,3.9,7.1c0.5,2,0.8,4,0.8,6.1c1.1-1,2.1-2,3-3.1
		c1.1-1.2,2.1-2.4,3.2-3.6c1.6-1.6,3.4-3.1,4.8-4.9c0.5-0.6,1.1-1.3,1.5-2c0.3-0.5,0.6-1,0.9-1.5c0.1-0.2,0.3-0.3,0.5-0.4
		c0.9-0.3,1.4,0.9,1,1.5c-1.4,3-3.9,5.2-6.3,7.5c-2.4,2.2-4.4,4.8-6.8,7c-0.5,0.5-1.1,1-1.7,1.4c-0.1,0.1-0.2,0.1-0.3,0.2
		c-0.1,2.6-0.7,5.1-1.7,7.4c-1.2,2.4-3.2,4.3-5.6,5.7c-2.2,1.3-4.9,1.6-7.4,1.5c-1.9,0-3.8-0.2-5.5-1c-0.4,0.2-0.7,0.4-1.1,0.5
		c0.1,3-1,5.9-2.2,8.6c-1.3,2.9-3.7,5.1-7.1,4.5c-2.4-0.2-4.4-1.4-6.5-2.4c-1.4-0.6-2.8-1.2-4.2-1.8c-0.5-0.2-1.1-0.3-1.2-0.9
		c0,0,0-0.1,0-0.1c-2.6,0.5-5.1,1.1-7.8,1.2c-0.2,0.4-0.5,0.7-0.7,1c-0.7,0.8-1.4,1.7-2.1,2.6c-1.6,1.9-4.3,5.7-7,5.5
		c-2.4-0.1-6.2-4.4-7.8-6.2c-0.5-0.7-1.6-1.7-1.7-2.7c-1.9,0-3.8,0-5.7,0c-0.1,0-0.3,0-0.4,0c-0.2,0.4-0.6,0.8-0.9,1.1
		c-0.8,1-1.7,1.9-2.6,2.9c-1.8,1.9-3.8,5.7-6.8,4.4c-1.3-0.7-2.5-1.8-3.6-2.7c-1.5-1.3-2.9-2.8-4.2-4.3c-0.4-0.6-1.3-1.3-1.2-2.1
		c-1.4-0.1-2.8-0.2-4.2-0.4c-1.1-0.1-2.2-0.3-3.3-0.6c0.3,1.5,0.8,2.9,1.6,4.1c2.3,3.4,5.7,5.7,9.2,7.7c3.5,2.1,7.4,3.2,11.2,4.4
		c5.3,1.5,10.8,1.2,16.2,1.6c4.2,0.2,8.4,0.7,12.6,0.8c4,0.1,7.9-0.1,11.9-0.8c3.2-0.6,6.3-1.6,9.4-2.4c3-0.7,6-1.2,8.9-1.9
		c3.6-0.8,7-1.8,10.5-2.9c1.9-0.7,3.9-1.1,5.9-1.6c1.5-0.4,2.9-0.8,4.4-1.2c1.8-0.5,3.5-1.2,5.3-1.9c1.8-0.6,3.7-1.1,5.4-1.9
		c1.3-0.6,2.6-1.4,3.9-2.1c3.3-1.8,6.9-3.3,10.2-5.1c2-1.1,3.8-2.5,5.8-3.6c2.4-1.5,4.7-2.7,6.8-4.5c1.3-1.3,2.8-2.5,4.3-3.5
		c1.6-1.2,3-2.7,4.4-4.2c3-3.6,4.6-8,6.5-12.2c1.2-2.8,2.3-5.7,3.1-8.7C211.5,82.5,211.9,79.9,212.2,77.3z M172.2,55.6
		c-1.9-1-3.8-2.2-5.8-3c-1.8-0.8-3.7-1.5-5.6-2c-2.5-0.5-4.9-1.3-7.4-1.8c-2.4-0.4-4.8-0.6-7.2-1c-1.7-0.2-3.5-0.3-5.2-0.5
		c-2.1-0.2-4.1-0.5-6.2-0.6c-1.4,0-2.9,0-4.3,0.1c-3.7,0.4-7.3,1.4-10.8,2.4c-4.7,1.4-7.7,2.5-10,7.1c-0.8,1.7-0.9,3.7,0.3,5.1
		c1.9,1.9,5.1,2.6,7.6,3.2c0.8,0.1,1.5,0.2,2.3,0.4c-0.7-2.3,1-7.2,2.1-8.7c1.8-2.7,5.6-4,8.5-5.3c2.3-1,4.8-1.6,7.3-1.7
		c2.1,0,4.3,0,6.3,0.7c2,0.7,3.4,2.2,4.9,3.7c0.6,0.6,1.2,1.2,1.7,1.8c1.6,2,3,4.2,3.7,6.6c0.2,0.6,0.4,1.5-0.1,2
		c2.1-0.4,4.2-1,6.2-1.7C165.4,61.1,168.5,59.1,172.2,55.6z M152.7,109.5c2-4.7,1.8-10.3,0.3-15.1c-0.6-1.8-1.5-3.7-3-5
		c-1.2-1-2.6-2-4.2-1.6c-1.3,0.4-2.1,1.5-3,2.4c-0.9,1.1-1.7,2.3-2.2,3.7c-0.7,2.4-0.6,5-0.6,7.5c0,2.6,0,5.2-0.1,7.8
		c-0.2,2.2,0,5-2.1,6.3c1.1,0.3,2.2,0.3,3.4,0.3c1.4,0,2.8,0,4.2-0.4c0.1-0.5,0.2-1,0.3-1.3c0.6-2.6,0.7-5.3,0.7-7.9
		c0-1.9-0.1-3.8-0.3-5.7c0-0.7-0.3-1.4-0.2-2c0.1-0.4,0.5-0.6,0.8-0.4c0.4,0.3,0.4,0.8,0.5,1.2c0.2,1.1,0.3,2.2,0.4,3.4
		c0.2,3,0.5,6.1,0.1,9.2c-0.1,1-0.3,1.9-0.5,2.8c0,0.1,0,0.1,0,0.2C149.5,113.7,151.5,111.8,152.7,109.5z M132.7,119.8
		c0.1-0.6,0.2-1.2,0.2-1.8c-3,1.4-6,2.8-9,4c-2.4,1-4.8,1.9-7.3,2.4c-0.3,0.1-0.5,0.1-0.8,0.2c1.6,0.5,3.1,1.2,4.6,1.9
		c2,1.1,4.2,2,6.5,1.9c1.5-0.1,2.7-1.2,3.5-2.5C131.4,124,132.2,121.9,132.7,119.8z M129,63.5c1.4-0.1,2.5-1.6,1.6-2.9
		c-0.5-0.8-1.1-1.1-2.1-1.2C126.7,60.5,126.2,63.7,129,63.5z M102.5,127.4c0.3-0.4,0.6-0.7,0.9-1.1c-5.2,0.2-10.4,0.2-15.5,0.2
		c0.7,0.9,1.5,1.8,2.3,2.7c1.3,1.3,2.6,2.5,4.1,3.5c0.5,0.3,1.1,0.6,1.7,0.7C98.1,133.3,101.1,129,102.5,127.4z M93.1,59.1
		c-2.3-1.1-4.5-2.3-6.5-4c-0.9-0.8-2-1.7-2.9-2.3c-2.6-1.6-5.3-3-8-4.3c-1.3-0.6-2.6-1.1-4-1.4c-2.5-0.6-5.2-0.5-7.8-0.5
		c-4,0.1-8-0.5-11.9,0.4c-2.3,0.8-4.3,1.8-6.5,2.8c-3.2,1.7-5,3.9-5.8,7.5c-0.7,3.2,2,4.6,4.7,5.3c1.5,0.4,3,0.7,4.5,0.8
		c0.2-4.4,1.6-9.3,5.7-11.5c2.5-1.4,5.5-2.5,8.4-2.6c4.1-0.3,8.7,0.3,11.7,3.4c2.7,2.9,4.1,6.9,4.1,10.8
		C85.9,63.1,86.5,62.2,93.1,59.1z M77.5,126.9c0.2-0.2,0.4-0.4,0.5-0.6c-3.2-0.2-6.5-0.4-9.7-0.4c-2,0-3.9,0-5.9-0.1
		c0.2,0.2,0.4,0.4,0.6,0.6c0.4,0.5,0.9,0.9,1.3,1.4c0.8,0.9,1.7,1.7,2.6,2.5c0.9,0.7,3.2,3.1,4.4,2.7c1.7-0.6,2.6-2.3,3.8-3.5
		C75.9,128.7,76.7,127.8,77.5,126.9z M58.5,61.3c1.3-0.1,3.2-1.5,2.2-2.9c-0.6-0.6-1.6-0.9-2.3-0.5c-0.2,0.1-0.5,0.2-0.6,0.5
		c-0.2,0.3-0.3,0.7-0.7,0.9C57.1,60.3,57.2,61.4,58.5,61.3z"/>
	<path d="M27.2,166.5c0.5,0.3,1.1,0.7,1.7,1c0.1-2.9-0.8-5.7-1.6-8.4c-0.2-0.9-1.2-2.2-0.3-3c0.7-0.5,1.3,0.4,1.6,0.9
		c0.6,0.9,1.2,1.7,1.9,2.6c2,2.3,5,3.4,7.8,4.3c0.2-0.8,0-1.6-0.1-2.5c-0.4-2.4-1.3-4.7-2.3-6.9c-0.3-0.7-0.7-1.3-0.8-2
		c-0.1-0.6,0.3-1.3,1-1.2c0.5,0.1,0.9,0.5,1.3,0.8c2.3,2.2,4.4,5,7.8,5.3c0-1.6-0.6-3.1-1.3-4.6c-0.7-1.4-1.4-2.8-2.2-4.2
		c-0.8-1.4-1.7-2.7-2.3-4.2c-0.3-0.8-0.5-1.6-0.8-2.4c-0.1-0.4-0.3-0.8-0.6-1.1c-0.1-0.1-0.1-0.2-0.2-0.3c-0.4-0.5-1-1-1.5-1.4
		c-2.4-1.6-5.5-2.3-8.3-1.6c-3.1,0.8-5.9,2.6-8.4,4.6c-3.1,2.9-4.5,7.6-3.8,11.8c0.4,2,1.5,3.7,2.5,5.3c1.1,1.8,2.6,3.1,4.3,4.3
		C24.2,164.6,25.7,165.6,27.2,166.5z M29,169.6c-0.9-0.2-1.6-0.7-2.3-1.1c-1.5-0.8-2.9-1.8-4.3-2.8c-1.5-1.1-3.1-2.2-4.3-3.7
		c-1-1.3-1.7-2.4-2.4-3.8c-0.7-1.2-1.2-2.4-1.5-3.7c-0.7-3.9,0.2-8.2,2.3-11.5c0.9-1.5,2.2-2.7,3.7-3.7c2.2-1.5,4.5-2.9,7.1-3.6
		c4-1.2,8.8,0.3,11.5,3.6c0.8,0.2,1.1,1.2,1.4,1.9c0.3,1.1,0.6,2.1,1.1,3.1c1.5,2.8,3.3,5.4,4.5,8.4c0.8,1.9,2.6,7.4-1.3,6.5
		c-2.6-0.5-4.7-2.1-6.4-4c0.9,1.9,4.4,11.9-0.4,10.4c-3-0.9-5.9-2-8-4.4C29.9,162.8,31.9,169.6,29,169.6z"/>
	<path d="M30.3,179.8c-2.4-0.4-4.8-1.4-7-2.4c-2.3-1-4-3.2-4.7-5.6c-0.3-1.1-1.7-7.6,0-7.6c1.2,0.1,0.6,2.1,0.8,3
		c0.3,3.7,1.1,7.2,5,8.6c2.2,1,4.5,1.9,6.9,2.1c3.3,0.2,6.5-0.3,9.8-0.5c3.9-0.1,11.2-0.1,14.2-2.7c0.5-0.5,0.7-1.3,0.8-2
		c0.4-2.1,0.6-4.2,0.8-6.3c0.1-3.3,0.1-6.6,0.3-9.9c0.3-2.7,0.5-5.4,0.3-8.1c-0.1-1.1-0.1-2.2-0.6-3.2c-0.6-0.6-1.7-0.8-2.4-1
		c-3.6-0.9-7.3-1.2-11-1.5c-1-0.1-2.1-0.2-3.1-0.2c-0.4,0-1,0.2-1.2-0.3c-0.4-0.7,0.3-1.3,1.1-1.3c1.5-0.1,3,0.1,4.5,0.2
		c3.5,0.2,7,0.4,10.3,1.4c2.4,0.6,3.5,1.1,3.8,3.7c0.5,3.8,0.2,7.7-0.2,11.5c-0.3,4.1,0,8.2-0.6,12.2c-0.4,2.3-0.3,5.1-2.2,6.7
		c-4.2,2.9-10.9,2.7-15.8,2.8C36.9,179.7,33.6,180.2,30.3,179.8z"/>
	<path d="M18.3,166.2c-0.4-1.3-0.8-2.8-0.1-4.1c0.6-0.8,1.6,0.1,1.2,0.9c-0.1,1-0.2,2-0.1,3C19.4,166.6,18.5,166.9,18.3,166.2z"/>
	<path d="M34.6,175.2c-1.2-0.2-2.5-0.4-3.7-0.7c-0.8-0.2-1.6-0.4-2.3-0.9c-1.9-1.3-2.5-3.8-3-5.9c-0.1-0.5-0.1-1,0.2-1.4
		c0.3-0.3,0.8-0.2,0.9,0.2c0.2,1.3,0.6,2.3,1.1,3.5c0.5,1.1,1.3,2.1,2.6,2.4c3.7,0.8,7.6,1.7,11.4,0.9c4-1,6.4-1,7.5-5.5
		c0.7-3.2,0.9-6.6,1-9.8c0.1-2.1,0-4.2-0.4-6.3c-0.1-0.7-0.3-1.4-1.1-1.6c-1.2-0.5-2.6-0.4-3.9-0.4c-0.7,0-1.5,0.1-2.2,0.1
		c-1.1,0-1.1-2,0-2c2.2,0,4.5-0.3,6.5,0.5c2.3,0.8,2.2,3.6,2.4,5.6c0.2,2.1,0.2,4.4,0,6.4c-0.3,3.7-0.3,7.6-2,11
		c-1.1,2.1-3,2.9-5.2,3.4C41.3,175.6,37.9,175.8,34.6,175.2z"/>
	<path d="M143.6,158.7c-0.2-0.4-0.2-0.9,0.1-1.2c0.7-0.7,1.6-1.3,2.3-2c0.8-0.6,1.5-1.3,2.3-2c2.3-2,5.4-3,7.6-5.1
		c-3.4-0.1-6.8-0.1-10.2,0c-3.1,0.1-6.2,0.3-9.3,0.3c-5.2-0.1-10.4-0.1-15.6-0.3c-4.2-0.1-8.4,0-12.6,0c-4.2,0-8.3-0.1-12.5-0.3
		c-5.2,0-10.3-0.6-15.4-1.2c-3.2-0.2-6.4-0.3-9.5-0.4c-2.9-0.1-6-0.3-8.9-0.6c-1-0.1-2-0.2-3-0.3c-0.2,0-0.4,0-0.5-0.1
		c-0.4-0.1-0.5-0.6-0.4-0.9c0.3-0.7,1.1-0.6,1.7-0.6c0.8,0,1.5,0.1,2.3,0.1c2.9,0.2,5.8,0.4,8.7,0.4c3.2,0,6.4,0.1,9.6,0.3
		c2.6,0.2,5.1,0.6,7.7,0.9c5.1,0.4,10.3,0.4,15.4,0.6c5.3,0.2,10.6,0,15.8,0.1c6.2,0.1,12.4,0.3,18.7,0.3c4.1-0.2,8.1-0.4,12.2-0.4
		c1.7,0,3.3,0,5,0c1.1,0.1,2.3-0.2,3.2,0.4c0.5,0.4,0.5,1.1,0.1,1.6c-0.5,0.5-1,1.1-1.6,1.6c-1.6,1.5-3.7,2.3-5.5,3.5
		c-1.8,1.1-3.3,2.7-4.9,4c-0.6,0.5-1.2,1-1.9,1.4C144.2,159.3,143.8,159.1,143.6,158.7z"/>
	<path d="M136.3,159.4c-5.1,0-10.1-0.1-15.2-0.3c-8.9,0-17.8,0-26.6-0.8c-1.9-0.2-3.8-0.5-5.7-0.7c-1.8-0.1-3.5-0.1-5.3,0
		c-3.9,0.3-7.7,0.1-11.6-0.6c-1.6-0.3-3.1-0.3-4.7-0.5c-2.5-0.3-5-0.8-7.5-1.2c-0.3,0-0.6,0-0.8-0.2c-0.3-0.2-0.3-0.7-0.1-1
		c0.2-0.3,0.7-0.4,1-0.4c2.6,0.2,5.2,0.8,7.8,1c1.4,0.1,2.7,0.2,4.1,0.4c1.5,0.2,3,0.5,4.5,0.6c3.5,0.4,7.1-0.1,10.6-0.1
		c2.7,0,5.4,0.5,8.1,0.8c7,0.6,14.1,0.9,21.2,0.8c5.2-0.1,10.4,0.4,15.6,0.4c2.4,0,4.7,0,7.1,0c1.6,0,3.1-0.3,4.7-0.3
		c0.5,0,1,0.2,1,0.8c0,0.3-0.1,0.7-0.4,0.9c-0.6,0.3-1.6,0.2-2.2,0.3C140,159.3,138.2,159.4,136.3,159.4z"/>
	<path d="M145.7,164c-1.2-1.3-1.4-3.3-1.5-5c-2.1,0-4.3-0.2-6.3-0.8c-0.5-0.1-0.8-0.6-0.7-1c0.2-1.3,1.4-2.1,2.3-2.9
		c1.8-1.5,3.9-2.5,5.9-3.7c1.6-1,3-2.4,4.6-3.5c0.2-0.1,0.5-0.3,0.8-0.2c0.5,0.2,0.7,0.9,0.2,1.3c-0.9,0.4-1.6,1.2-2.3,1.8
		c-2.9,2.7-6.8,3.9-9.6,6.8c1.9,0.4,3.9,0.6,5.9,0.5c0.4,0,0.7,0.4,0.8,0.8c0.2,1.5,0,3.1,0.9,4.4c0.3,0.3,0.7-0.1,1.1-0.2
		c2-1,3.8-2.3,5.6-3.4c2.2-1.4,3.3-2.7,3.4-5.5c0-0.8,0.1-1.5,0-2.3c0-0.8-0.5-2.3,0.6-2.6c1.3-0.1,1,2,1.1,2.8
		c0,4.3-0.2,6.7-4.1,9.2c-1.2,0.8-2.4,1.5-3.7,2.3C149.3,163.4,147.1,165.3,145.7,164z"/>
	<path d="M155.3,208.3c-0.1-0.5,0.2-1.1,0.7-1.2c0.3,0,0.7-0.1,1-0.1c0.6-0.1,1.3-0.1,1.9-0.2c3.5-0.5,6.5-2.6,9.6-3.9
		c3.2-1.4,5.9-3.7,8.4-6.1c2-1.6,3.9-3.3,5.5-5.3c1.7-2.1,3-4.5,4.4-6.8c2.6-4.3,5.3-8.7,7-13.5c1.6-5,2.2-10.4,2.2-15.6
		c0-1.9-0.1-3.9-0.3-5.8c-0.2-1.9-0.7-3.8-1.1-5.7c-1.4-6.3-4.2-11.5-8.1-16.6c-1.1-1.5-2.2-2.9-3.3-4.4c-0.4-0.6-1-1-1-1.8
		c0-0.4,0.3-0.8,0.7-0.7c0.8,0.5,1.3,1.4,1.9,2c2.9,3.5,5.8,7.2,8,11.3c1.7,3.3,2.8,6.8,3.6,10.4c0.6,2.7,1.2,5.5,1.2,8.3
		c0.1,2.7,0.2,5.5-0.1,8.2c-0.4,3.7-0.9,7.4-2,10.9c-0.6,2.1-1.6,4-2.5,5.9c-1.2,2.4-2.6,4.7-4,7.1c-1.9,3.1-3.5,6.4-6,9.1
		c-1.6,1.9-3.7,3.5-5.5,5c-0.8,0.7-1.6,1.5-2.4,2.1c-1.6,1.2-3.1,2.3-4.9,3.2c-0.7,0.4-1.4,0.7-2.2,1c-1.2,0.5-2.5,1.3-3.7,1.8
		c-2.6,1.2-5.3,1.9-8.2,2C155.7,209.2,155.3,208.8,155.3,208.3z"/>
	<path d="M136.4,243.9c-5-0.8-7-6.2-8.6-10.3c-0.6-1.3-1.1-2.7-1.7-4c-1.6-3-3.1-6.1-4.7-9.2c-0.8-1.5-1.7-3-2.3-4.6
		c-1.2-3.2-2.3-6.4-3.5-9.6c-1.1-3.1-2.4-6.3-2.7-9.6c-0.1-1.4,0.8-2.7,2.3-1.9c5.6,2.1,6.6,4.5,10.2,8.8c-0.8-2.2-1.3-4.5-1.8-6.7
		c-0.3-1.6-1.2-5.6,1.1-6.1c1,0.1,1.9,0.6,2.9,1c4.7,2.2,7.5,6.7,10.2,10.8c0-3,0.2-6,0.6-8.9c0.3-1.4,0.4-5.2,1.9-5.6
		c1-0.2,1.7,1,2.3,1.6c1.2,1.5,2.4,3,3.6,4.5c1,1.2,2.2,2.2,3.3,3.4c1.2,1.2,2.1,2.6,2.8,4.1c0.8,1.4,1.5,2.9,2.2,4.4
		c0.8,1.5,1.6,3,2.1,4.5c0.6,1.7,1.2,3.3,1.5,5.1c0.7,3.5,0.9,7.1,1,10.8c0,0.5,0.2,0.8-0.1,1.1c-0.2,0.2-0.4,0.2-0.6,0.1
		c-0.4-0.2-0.5-0.7-0.5-1.1c-0.3-4.2-0.5-8.5-1.8-12.5c-0.7-2.3-1.6-4.7-2.8-6.8c-1.2-2.3-2.2-4.7-3.6-6.8c-1.1-1.6-2.6-2.8-3.9-4.2
		c-1.8-1.9-3.2-4.1-4.9-6c-0.4,1.4-0.5,3-0.7,4.4c-0.4,3.7-0.6,7.5-0.2,11.2c0,0.3,0.1,0.6,0.1,0.9c0,0.5-0.6,1-1.1,0.8
		c-0.5-0.2-0.6-0.7-0.8-1.1c-1.6-3.2-3.6-6.1-5.8-8.8c-1.9-2.3-4.4-3.9-7.1-4.8c-0.1,0.9,0.1,2.1,0.2,2.8c0.4,2.2,0.9,4.3,1.6,6.4
		c0.5,1.4,1,2.9,1.4,4.3c0.2,0.6,0.5,1.3,0.3,1.9c-0.1,0.4-0.5,0.8-0.9,0.7c-0.4,0-0.6-0.4-0.9-0.7c-0.4-0.5-0.7-1-1.1-1.5
		c-1-1.4-2-2.7-3.1-4c-0.9-1.2-1.8-2.4-2.9-3.4c-1.5-1.3-3.3-2.2-5-2.9c0.1,1.6,0.6,3.1,1.1,4.6c1.1,3.2,2.3,6.3,3.5,9.5
		c0.7,1.8,1.3,3.7,2.1,5.5c0.7,1.5,1.6,2.9,2.3,4.3c1.2,2.6,2.6,5.2,3.9,7.7c0.7,1.4,1.3,2.9,1.9,4.4c1.5,3.8,3.1,9.1,8,9.5
		c2.2,0.2,4.3-0.5,6.4-1c1.6-0.4,3.2-0.8,4.8-1.2c1.6-0.4,3.1-0.7,4.6-1.2c1.5-0.5,2.8-0.9,4.3-1.1c2.3-0.3,4.6-0.2,6.9-0.3
		c2-0.2,4-0.8,6-1.2c1.8-0.4,3.5-1.2,5-2.2c3.3-2.2,6.1-5.2,7.3-9c0.8-2.7,1-5.5,0.8-8.3c-0.2-3-1.3-5.9-3.1-8.3
		c-0.6-0.9-1.1-1.8-1.7-2.7c-0.2-0.4-0.2-0.9,0.1-1.2c0.3-0.3,0.9-0.3,1.1,0.1c1.9,2.7,4,5.5,4.7,8.9c0.8,3.2,0.6,6.6,0.1,9.9
		c-0.5,3.4-2.2,6.5-4.5,9c-2.6,2.6-5.7,4.9-9.3,5.8c-1.6,0.4-3.2,0.8-4.8,1.1c-1.7,0.3-3.4,0.3-5.1,0.4c-1.7,0-3.5,0.1-5.2,0.5
		c-0.9,0.2-1.7,0.5-2.5,0.8c-2.4,0.8-4.8,1.2-7.2,1.8C143,243.2,139.7,244.5,136.4,243.9z"/>
	<path d="M186.3,235c-2.7-0.1-5.1-1.6-7.8-1.5c-0.8,0-1.1-1-0.7-1.6c0.8-1.6,6.6,1,8.3,1c0.8,0,1.5,0,2.2-0.1
		c1.6-0.2,3.1-0.2,4.7-0.1c2.6,0.1,5.2-0.1,7.8-0.5c2.5-0.3,4.8-0.4,7.2-0.9c3.2-0.5,6.5-0.1,9.5-1.5c-1.4-2.1-3.7-3.5-5.6-5.1
		c-1.2-1-2.6-1.9-3.8-2.9c-1-0.9-2-1.8-3.2-2.5c-1.4-0.9-2.8-1.6-4.1-2.5c-2.8-1.8-5.3-4.1-7.9-6.2c-1.4-1-2.9-2-3.6-3.6
		c-0.5-0.9-0.4-2-0.3-3c0-0.9,0.1-1.8,0.2-2.7c0.3-4.8,1-9.6,1.4-14.5c0.1-1.8,0.1-3.7,0.1-5.5c0-0.6-0.1-1.3,0.1-1.9
		c0.2-0.5,0.9-0.6,1.1,0c0.1,0.4,0.1,0.8,0.1,1.2c0.5,6.1-0.3,12.1-0.8,18.1c-0.1,2.2-0.4,4.4-0.4,6.7c0.3,1.6,2.2,2.5,3.3,3.5
		c3.2,2.6,6.2,5.4,9.8,7.4c1.4,0.8,2.8,1.7,4.1,2.8c1.1,1,2.4,1.9,3.7,2.8c5,3.9,14,9.8,1.7,10.9c-2.3,0.2-4.6,0.3-6.8,0.8
		c-1.2,0.2-2.4,0.3-3.7,0.4c-1.6,0.1-3.2,0.4-4.8,0.6c-2.3,0.2-4.7,0.1-7,0.1C189.2,234.7,187.8,235,186.3,235z"/>
	<path d="M120.1,242.1c-2.4-0.1-4.8-0.4-7.3-0.3c-1.6,0.1-3.3,0.2-4.9,0.3c-4.1,0.2-8.1-0.2-12.2-0.5c-4-0.2-8.1,0.1-12.1,0.3
		c-1.6,0-3.2-0.2-4.8-0.5c-2.5-0.4-5-0.7-7.4-1.4c-4-0.9-8.2-1.9-11.3-4.8c-1.2-1.1-2.2-2.5-3.3-3.7c-0.6-0.6-1.2-1.1-1.7-1.7
		c-1.9-1.8-2.8-4.2-3.2-6.8c-0.4-2.5-0.7-5-0.7-7.5c0-6.7,1.9-13.4,5.5-19.2c2.5-3.8,3.8-5.2,8.1-6.9c-1.9-2.2-4.3-4.2-5-7.1
		c-0.7-3.4-0.4-8.6,2.1-11.3c1-1.1,2.4-1.9,3.7-2.5c2.9-1.3,6.2-1.8,9.3-2.4c2.4-0.5,4.9-0.6,7.3-0.8c2.4-0.2,4.9-0.4,7.2-0.5
		c5.2-0.7,10.4-0.2,15.5-0.2c5,0,10-0.1,14.9,1c1.4,0.3,3.1,0.3,4.2,1.4c0.3,0.4,0,1.1-0.6,0.9c-1.4-0.4-2.9-0.6-4.4-0.8
		c-5.1-0.9-10.2-0.7-15.3-0.7c-2.7,0-5.5-0.1-8.2-0.1c-2,0-3.8,0.1-5.7,0.3c-3.6,0.3-7.2,0.5-10.8,0.8c-2.4,0.2-4.8,0.7-7.1,1.2
		c-2,0.3-3.9,0.8-5.7,1.7c-2.5,1-4.2,2.6-4.7,5.3c-0.5,3-0.6,6.6,1.6,9c0.9,1.1,1.9,2.1,2.8,3.1c0.6,0.7,1.3,1.6,0.7,2.5
		c-0.2,0.4-0.5,0.6-0.9,0.8c-1.2,0.6-2.4,1-3.6,1.7c-1.8,1.2-3,3.1-4.2,4.9c0,0,0,0,0-0.1c-1.6,2.5-2.7,5.3-3.6,8.1
		c-1.2,3.7-1.6,7.7-1.4,11.6c0.1,1.9,0.3,3.9,0.7,5.8c0.2,1.2,0.5,2.4,1.2,3.5c1,1.5,2.4,2.6,3.6,3.9c1.3,1.5,2.6,3.2,4.3,4.3
		c3.2,2.1,6.9,2.6,10.4,3.5c2.8,0.6,5.7,1,8.6,1.4c3.2,0.2,6.4-0.3,9.5-0.3c3.9-0.1,7.7,0.4,11.6,0.6c2.5,0.1,5,0,7.5-0.2
		c1.6-0.1,3.2-0.3,4.9-0.1c2.5,0.1,5,0.4,7.5,0.2c1.9-0.2,3.7-0.5,5.6-0.8c0.2,0,0.4,0,0.6,0c0.3,0,0.6,0.4,0.7,0.7
		c0.3,1.5-1.6,1.5-2.6,1.7C124.7,241.9,122.4,242.3,120.1,242.1z"/>
	<path d="M138.2,194.5c-1.2-1.2-1.6-3.1-2.8-4.3c-0.9-0.8-2.1-1.1-3.1-1.7c-0.3-0.2-0.5-0.6-0.5-0.9c0-0.8,0.8-1.1,1.3-1.4
		c0.4-0.3,0.8-0.6,1.2-1c1.8-2.2,2.8-5.1,2.6-7.9c-0.1-1.7-0.5-3.5-1.7-4.8c-1.6-1.9-4.2-2.3-6.4-3.2c-1.3-0.5-2.6-1-3.9-1.4
		c-2-0.5-4-0.4-6-0.7c-0.8-0.1-1.7-0.3-2.1-1c-0.1-0.2-0.2-0.4-0.1-0.6c0.2-0.4,0.7-0.3,1-0.2c2.1,0.4,4.2,0.2,6.4,0.6
		c2.3,0.3,4.3,1.3,6.5,2c2.1,0.7,4.3,1.4,5.8,3.1c3.9,4.6,2.6,12.8-1.8,16.6c2.4,1.1,2.9,2.4,4,4.5c0.3,0.5,0.7,0.9,0.9,1.4
		C139.8,194.2,139,195.2,138.2,194.5z"/>
	<path d="M142.3,192.2c-0.2-0.2-0.3-0.6-0.1-0.9c0.2-0.4,0.8-0.4,1.2-0.6c1.4-0.4,2.8-0.8,4.1-1.4c1.4-0.6,2.6-1.4,3.8-2.2
		c1.2-0.8,2.4-1.5,3.6-2.3c2.9-1.8,5.5-4,7.7-6.5c1-1.2,1.9-2.6,2.8-3.9c0.3-0.5,0.7-1.1,1-1.6c0.3-0.6,0.6-1.2,0.9-1.7
		c0.1-0.2,0.2-0.3,0.4-0.4c0.7-0.2,1.2,0.7,1,1.3c-0.2,0.4-0.4,0.9-0.6,1.3c-0.6,1.1-1.3,2.2-2.1,3.2c-1,1.3-1.9,2.7-3,3.9
		c-3.2,3.5-7.1,6-11.1,8.4c-2.1,1.4-4.3,2.6-6.8,3.2c-0.8,0.2-1.6,0.4-2.4,0.5C142.6,192.4,142.4,192.4,142.3,192.2z"/>
	<path d="M149.9,201.5c-1.1-1,1.1-3.1,1.5-4.1c-1.4-0.1-2.8,0-4.2-0.1c-1.2-0.1-1.2-1.4,0-1.5c1.5-0.1,3-0.2,4.5-0.1
		c1.4-0.1,2.1,1.1,1.2,2.2c-0.4,0.7-0.8,1.4-1.2,2.1C151.4,200.6,150.8,202,149.9,201.5z"/>
	<path d="M153.6,206.3c-0.8-0.7,0.2-1.8,0.6-2.5c-0.6,0-1.2,0.2-1.8,0.1c-0.5-0.1-0.7-0.8-0.4-1.3c0.1-0.2,0.3-0.3,0.6-0.3
		c0.6-0.2,1.3-0.2,2-0.2c0.6,0,1.5-0.3,1.9,0.4c0.4,0.8-0.4,1.5-0.9,2.1C155,205.2,154.5,206.9,153.6,206.3z"/>
	<path d="M40.4,202.2c-0.4-0.2-0.5-0.8-0.4-1.2c0.4-1.1,1-2.3,1.6-3.3c1.6-2.8,4.3-4.7,6.9-6.5c1.3-0.9,2.4-1.9,3.8-2.7
		c1.4-0.8,2.9-1.2,4.5-1.7c1.5-0.5,3-1,4.6-1.4c1.1-0.3,1.4,1.3,0.4,1.6c-0.1,0.1-0.2,0.1-0.3,0.1c-2.8,1-5.7,1.7-8.4,3
		c-1.5,0.8-2.7,1.9-4.1,2.9c-1.7,1.3-3.5,2.4-4.9,4.1c-0.9,1.1-1.6,2.3-2.2,3.5C41.6,201.2,41.4,202.6,40.4,202.2z"/>
	<path d="M21.2,237.5c-3.2-0.3-6.6-1.3-8.7-3.8c-1-1.3-1.6-2.9-2.3-4.4c-1.6-3.8-2.2-7.9-3-11.9c-1.2-4.5-2.2-9-3.5-13.5
		c-0.7-2.9-1.8-5.7-2.6-8.7c-0.4-1.7-0.8-3.3-1-5c-0.2-1.7-0.3-5.1,1.5-6c1-0.4,2.3,0.6,3.1,1.1c2,1.4,2.9,3.7,4.2,5.6
		c0.9,1.4,1.9,2.6,2.9,3.9c1.4,1.9,2.7,3.9,3.9,6c-0.3-2.8-0.9-5.5-1.7-8.2c-0.8-3.1-1.9-6.3-1.8-9.6c0.3-5.4,3.5-3.8,5.8-0.6
		c1.3,2.1,2.5,4.2,3.7,6.3c1,1.9,2.3,3.4,3.3,5.2c0.9,1.6,1.7,3.2,2.4,4.8c0-4.3-0.9-8.5-0.9-12.8c0-1.5,0-3,0.2-4.4
		c0.1-0.6,0.2-1.4,0.9-1.6c1.1-0.4,2.8,2,3.7,2.7c1.1,1.1,2.3,2.1,3.4,3.2c3.1,3.1,4.4,7.3,5.6,11.4c1.3,3.9,2.3,8,2.7,12.1
		c0,0.6,0.4,1.3-0.1,1.7c-0.3,0.2-0.7,0-0.9-0.3c-0.3-0.7-0.4-1.5-0.6-2.3c-0.3-1.7-0.6-3.5-1-5.2c-0.6-2.4-1.4-4.8-2.1-7.1
		c-0.7-2.2-1.4-4.4-2.7-6.4c-1.2-1.9-2.8-3.4-4.5-4.9c-0.9-0.9-1.8-1.8-2.7-2.7c-0.3,2.9-0.2,5.9,0.1,8.9c0.3,2.4,0.6,4.9,0.6,7.4
		c0,1,0,2,0,3c0,0.6,0,1.3-0.5,1.5c-1.2,0.5-1.6-1.6-2-2.3c-1-2.2-2-4.5-3.3-6.6c-1.9-2.7-3.6-5.5-5.2-8.4c-0.9-1.6-2-3.4-3.7-4.3
		c-1.5,3.7,1.8,10.9,2.4,14.9c0.3,1.5,0.5,3,0.7,4.5c0.1,1,0.2,2.1,0.3,3.1c0.1,0.5,0.2,1,0,1.4c-0.2,0.4-0.6,0.7-1,0.5
		c-0.4-0.1-0.6-0.7-0.8-1c-0.2-0.3-0.3-0.7-0.5-1c-1.4-2.5-2.9-4.9-4.5-7.2c-1-1.4-2.1-2.6-3-4c-1.6-2.4-2.7-5.5-5.7-6.5
		c-0.8,1.8-0.4,3.9,0,5.8c0.6,3.5,1.9,6.8,2.9,10.1c1.3,4.8,2.5,9.6,3.8,14.4c1.1,4.7,1.7,9.6,3.9,14c0.5,1,1,2,1.9,2.7
		c2.4,1.9,5.7,2.4,8.7,2.5c2.1,0,4.2-0.5,6.3-0.8c2.7-0.4,5.4-0.6,8.1-1c2-0.3,3.9-0.9,5.8-1.4c2.6-0.6,4.9-1.3,7.4-2.1
		c1.5-0.4,3.1-0.8,4.7-1.1c0.4-0.1,0.9-0.2,1.3-0.2c0.2,0,0.4,0.1,0.5,0.2c0.5,0.5,0.3,1.4-0.4,1.6c-3.1,0.5-6.1,1.4-9.1,2.4
		c-1.5,0.4-3,0.8-4.4,1.1c-1.6,0.4-3.1,0.9-4.8,1.2c-3.3,0.5-6.6,0.7-9.8,1.3C26.3,237.4,23.7,237.9,21.2,237.5z"/>
	<path d="M3.5,198.2c-1-0.2-0.7-1.8,0.3-1.6c0,0,0,0,0,0c0,0,0,0,0.1,0c2-0.6,4-1.1,6-1.3c0.6,0,1.4-0.1,1.5,0.6
		c0,0.3-0.1,0.7-0.4,0.8c-1.1,0.2-2.3,0.2-3.4,0.5c-1,0.2-1.9,0.4-2.8,0.7C4.3,198.1,3.9,198.2,3.5,198.2z"/>
	<path d="M15.5,194c-0.4-0.1-0.5-0.7-0.3-1.1c0.5-0.7,1.3-0.9,2-1.2c0.8-0.3,1.7-0.6,2.5-0.8c0.7-0.2,1.5-0.5,2.3-0.3
		c0.5,0.2,0.5,0.9,0.2,1.2c-0.2,0.2-0.5,0.2-0.8,0.3c-0.7,0.1-1.4,0.2-2,0.4c-1.1,0.3-2.2,0.7-3.2,1.2
		C15.9,193.9,15.7,194.1,15.5,194z"/>
	<path d="M28.1,192.7c-0.4-0.1-0.5-0.6-0.4-1c0.1-0.4,0.6-0.6,1-0.7c2.4-1,5-1.6,7.6-1.8c0.3,0,0.5,0.3,0.6,0.5
		c0.2,1.3-1.7,1.2-2.5,1.3c-1.4,0.1-2.8,0.5-4.1,1c-0.5,0.2-1,0.4-1.5,0.6C28.5,192.7,28.3,192.8,28.1,192.7z"/>
	<path d="M116.5,204.9c-0.2-0.3-0.2-0.9,0.2-1.1c0.3-0.1,0.6-0.2,0.9-0.3c1.5-0.5,2.9-1.1,4.4-1.5c0.7-0.1,2.2-0.8,2.4,0.3
		c0,0.3-0.1,0.7-0.4,0.8c-1.4,0.3-2.8,0.8-4.1,1.3C119.1,204.6,116.9,205.7,116.5,204.9z"/>
	<path d="M127.3,203c-0.4,0-0.6-0.5-0.5-0.9c0.1-0.4,0.6-0.6,1-0.8c1.5-0.5,3-1.1,4.6-1.4c0.7,0,2.4-0.7,2.6,0.4
		c0,0.3-0.1,0.6-0.3,0.7c-0.9,0.3-1.9,0.2-2.8,0.5C130.2,202,128.8,202.6,127.3,203z"/>
	<path d="M139,201.2c-0.4-0.1-0.6-0.6-0.5-1c0.2-0.4,0.6-0.5,1-0.6c0.3-0.1,0.6-0.2,0.9-0.3c1.7-0.5,3.6-0.6,5.4-0.7
		c0.4,0,0.7-0.1,1.1-0.2c0.2-0.1,0.5-0.2,0.7-0.2c0.7,0,0.9,1.1,0.4,1.5c-1.1,0.6-2.4,0.4-3.6,0.6c-1.4,0.1-2.7,0.4-4.1,0.7
		C140,201,139.5,201.2,139,201.2z"/>
	<path d="M83.1,155.6c0.6,0,1.2-0.1,1.8-0.1c-0.7,1.5-1.4,3-2.1,4.5c-0.9,1.8-1.6,3.9-2.4,5.6c-0.2,0.5-0.6,1.4-1.3,1
		c-0.4-0.2-0.6-0.8-0.4-1.2c0.2-0.4,0.3-0.7,0.5-1c0.6-1.2,1.1-2.5,1.6-3.7C81.5,159,82.4,157.3,83.1,155.6z"/>
	<path d="M86.9,143.4c0.9,0.1,0.6,1.3,0.6,1.9c-0.1,0.9-0.2,1.7-0.3,2.6h0c-0.5,0-1-0.1-1.5-0.2c0.1-0.7,0.3-1.4,0.3-2.1
		C86.2,144.9,85.9,143.5,86.9,143.4z"/>
	<path d="M69.6,169c-3.2-0.3-6.5-0.1-9.7-0.9c-0.7-0.2-1.6-0.3-2.1-0.9c-0.3-0.4-0.2-1,0.2-1.2c0.5-0.2,1,0,1.5,0.1
		c1.2,0.3,2.5,0.5,3.7,0.6c2.4,0.2,4.9,0.1,7.3,0.4c0.6,0.2,0.7,1.1,0.2,1.5C70.4,169,70,169,69.6,169z"/>
	<path d="M125.9,240.5c0-0.4,0.2-0.8,0.6-0.9c0.5,0,1-0.3,1.5-0.4c0.7-0.2,1.5-0.3,2.1-0.7c0.3-0.2,0.5-0.4,0.8-0.4
		c0.7,0,1,1,0.7,1.6c-0.3,0.4-0.8,0.6-1.3,0.8c-0.9,0.3-1.8,0.3-2.7,0.6C127,241.2,126,241.4,125.9,240.5z"/>
	<path d="M110.6,184.1c3.4-0.3,6.9-0.6,10.3-1.4c2.3-0.4,4.5-0.9,6.7-1.4c1.7-0.4,4.3-1.8,4.7-3.7c0-1.8-1.5-3.2-2.9-4.2
		c-1.4-0.8-3-1-4.5-1.4c-2.2-0.5-4.4-0.8-6.5-1.1c-1.3-0.1-2.7-0.2-4-0.3c-7.4-0.6-14.9-0.7-22.3-0.3c-2.1,0-4.2,0-6.3,0.3
		c-2.1,0.2-4.4,0.3-6.5,0.4c-1.4,0.1-2.8,0.5-4.2,0.6c-1.7,0.2-3.4,0.3-5.1,0.7c-0.7,0.3-1.4,0.6-2.2,0.7c-0.9,1.1-1.7,2.3-2.1,3.7
		c-0.2,1.4,0.2,2.8,1.1,3.9c1.1,1.1,2.8,1.4,4.3,1.9c1.4,0.4,2.9,0.5,4.3,0.6c1.5,0.2,2.9,0.6,4.4,0.7c2.3,0.2,4.7,0.4,7.1,0.3
		c3.9,0,7.7,0.3,11.6,0.2C102.4,184.3,106.5,184.5,110.6,184.1z M103.7,186c-1.8,0-3.7,0-5.5,0c-2,0-4,0-6,0c-1.6,0-3.1-0.1-4.7-0.1
		c-1.6,0-3.1,0.1-4.7,0c-2.4-0.1-4.7-0.3-7-0.8c-1.5-0.3-3.1-0.3-4.6-0.6c-1.1-0.3-2.2-0.6-3.3-1c-1.2-0.4-2.3-1.2-2.9-2.3
		c-0.8-1.5-1.2-3.3-0.9-5c0.2-0.8,0.6-1.6,1.1-2.3c0.5-0.7,1-1.4,1.6-2c0.1-0.4,0.5-0.7,0.9-0.7c0.6,0,1.1-0.4,1.7-0.6
		c1.6-0.5,3.3-0.6,5-0.8c1.4-0.1,2.8-0.4,4.2-0.6c2-0.2,4-0.2,6-0.4c2.3-0.3,4.7-0.4,7-0.4c2.2,0,4.5-0.3,6.7-0.3
		c5.2,0,10.5,0,15.7,0.5c3.6,0.3,7.3,0.5,10.8,1.4c3.3,0.8,5.5,1,7.6,3.9c2.9,3.8,0.3,7.1-3.6,8.6c-1.4,0.5-3,0.7-4.5,1.1
		c-2.3,0.4-4.5,0.9-6.8,1.3c-4.3,0.6-8.7,1-13,1C104.3,186,104,186,103.7,186z"/>
	<path d="M91.5,175.1c-0.1,0.1-0.2,0.2-0.3,0.3c0,0-0.1,0-0.1,0.1c-3.3,4.9,4.3,4.9,7.4,4.8c1.5-0.1,2.3-0.5,3.1-1.7
		c0.8-1.5,0.6-2.3-0.9-3.2c-0.8-0.5-1.7-0.6-2.6-0.7c-0.9-0.1-1.8-0.1-2.7-0.1c-0.4,0-0.8,0-1.2,0c-0.2,0-0.4,0-0.5,0
		C92.8,174.6,92.1,174.7,91.5,175.1z M89.1,178.1c-0.2-1.4,0.4-2.8,1.3-3.8c0.6-1.2,2.2-1.2,3.4-1.3c1.3,0,2.6,0,3.9,0.1
		c1.5,0.1,3.1,0.4,4.2,1.5c2.3,1.7,1.2,4.9-0.8,6.3c-1.3,0.9-3.1,0.8-4.7,0.8C93.8,181.6,89.6,181.4,89.1,178.1z"/>
	<path d="M84.4,184.8c-1.2-0.1-2.5-0.4-3.5-1.2c-0.9-0.7-1.7-1.7-1.8-2.9c0-1.7,1-3.4,2.3-4.4c0.8-0.6,1.8-0.7,2.8-0.9
		c0.6-0.1,1.2-0.2,1.8-0.3c1-0.1,2,0.2,2.9,0.4c0.3,0.1,0.6,0.2,0.8,0.4c0.4,0.6-0.1,1.3-0.8,1.1c-1.4-0.3-2.8-0.5-4.2-0.1
		c-1,0.2-2.2,0.3-3,1c-0.7,0.8-1.7,2-1.3,3.1c0.8,1.5,2.5,2.1,4.1,2.2c1.7,0.1,3.4,0,5.1-0.3c0.7-0.1,1-0.8,1.3-1.4
		c0.2-0.4,0.2-0.8,0.3-1.2c0.3-0.7,1.1-0.5,1.2,0.2c0,1-0.8,2.9-1.7,3.5c-1,0.7-2.5,0.6-3.6,0.7c-0.6,0.1-1.3,0.1-1.9,0.1
		C85,184.8,84.7,184.8,84.4,184.8z"/>
	<path d="M106.8,183.2c-1.1-0.1-2.2-0.5-3.2-1.1c-0.8-0.5-1.9-1-2.2-2c-0.2-0.8,0.8-1.4,1.2-0.5c0,0.2,0.2,0.3,0.4,0.4
		c0.6,0.4,1.2,0.7,1.8,1c1.2,0.7,2.7,0.7,4,0.6c1,0,1.9-0.5,2.8-1.1c0.9-0.5,1.9-1.5,1.5-2.6c-0.3-0.5-0.8-0.8-1.2-1.1
		c-0.9-0.5-1.6-1.2-2.6-1.4c-2.1-0.5-4.3-0.5-6.2,0.5c-0.5,0.4-1.1,0-1.1-0.6c0.2-0.6,0.9-0.9,1.4-1.1c1-0.5,2.2-0.7,3.4-0.7
		c1.6,0.1,3.3,0.2,4.7,1.2c1.3,0.9,3.2,1.7,3.1,3.5c0.1,2.2-2,3.6-3.8,4.5c-0.9,0.4-1.8,0.5-2.8,0.5
		C107.6,183.2,107.2,183.2,106.8,183.2z"/>
	<path d="M117.3,174.8c-0.1,0.2-0.2,0.2-0.4,0.3c-0.4,0.5-0.4,1.3-0.2,1.9c0.7,1.8,4.1,1.9,5.7,2c1,0,2.1,0.1,2.9-0.4
		c0.7-0.6,1.5-1.6,0.9-2.5c-1.6-1.9-4.5-1.9-6.8-1.9C118.7,174.3,118,174.6,117.3,174.8z M122.4,180.6c-2.3-0.1-5.4-0.3-6.7-2.5
		c-0.6-1.1-0.6-2.6,0.1-3.7c-0.2-1.3,1.7-1.3,2.5-1.6c0.9-0.4,1.8-0.3,2.7-0.2c1.9,0.1,3.9,0.5,5.5,1.7c1.9,1.5,1.5,4.1-0.2,5.5
		c-0.9,0.7-2,0.9-3.1,0.9C122.9,180.7,122.7,180.7,122.4,180.6z"/>
	<path d="M108.2,174.4c-1.2-0.8,0.7-1.9,1.3-2.4c1.1-0.7,2.5-0.7,3.8-0.7c1.1,0,2.2,0.2,3.1,0.9c0.6,0.4,1.5,1.1,0.9,1.8
		c-0.4,0.5-0.9,0.1-1.3-0.2c-0.5-0.4-1-0.7-1.6-0.9c-0.9-0.2-1.8-0.1-2.7-0.1c-0.7,0.1-1.3,0.2-1.9,0.6c-0.4,0.3-0.8,0.5-1.2,0.8
		c-0.1,0.1-0.3,0.2-0.5,0.2C108.4,174.4,108.3,174.4,108.2,174.4z"/>
	<path d="M114.4,180.4c-0.4,0-0.8,0-1-0.4c-0.2-0.3-0.1-0.7,0.2-0.9c0.2-0.1,0.5-0.1,0.7-0.1c0.2,0,0.3,0,0.5,0
		c0.7-0.1,1.4-0.4,2-0.7c0.8-0.4,1.3,0.8,0.7,1.3c-0.3,0.3-0.6,0.4-1,0.5c-0.6,0.2-1.2,0.3-1.8,0.3
		C114.7,180.4,114.6,180.4,114.4,180.4z"/>
	<path d="M78.3,179.7c-1.7-0.2-3.4-0.8-4.6-1.9c-1.2-1.2-0.9-3.1,0.4-4.1c1.5-1.4,3.5-2,5.6-2.1c3-0.1,7-0.5,7.5,3.4
		c0.1,0.5,0,1-0.5,1.3c-0.6,0.3-1-0.4-0.9-0.9c0.3-2.4-3-2.3-4.7-2.2c-1.5,0.1-3,0.1-4.4,0.6c-0.9,0.5-2,1-2.5,2
		c-0.4,1.5,4,2.7,5.1,2.6c0.1-0.1,0.3-0.1,0.4,0c0.1,0,0.2,0,0.3,0c0.5,0.3,0.4,1.1-0.1,1.3c-0.2,0.1-0.5,0.1-0.8,0.1
		C78.9,179.7,78.6,179.7,78.3,179.7z"/>
	<path d="M76.7,183.8c-1.8-0.2-3.9-0.2-5.5-1.3c-1-0.8-2.1-1.6-2.7-2.8c-0.8-1.8,0.3-3.9,2-4.5c0.7-0.3,2.7-1.1,2.7,0.3
		c0,0.4-0.3,0.7-0.6,0.7c-0.4,0.1-0.8,0.2-1.2,0.3c-1.3,0.3-2.6,1.8-1.5,3c0.9,1,2,2,3.3,2.3c1.1,0.3,2.2,0.4,3.3,0.5
		c1.1,0.2,2.3,0,3.2-0.8c0.3-0.2,0.6,0,0.8,0.2c0.8,1.5-1.9,2.2-3.4,2.2C77.1,183.9,76.9,183.8,76.7,183.8z"/>
	<path d="M94.1,174.4c-0.3-0.4-0.7-0.9-1.3-1.1c-1.1-0.5-2.4-0.8-3.7-0.7c-0.7,0.1-1.4,0.2-2.1,0.5c-0.4,0.1-0.7,0.5-1.1,0.4
		c-0.3-0.1-0.4-0.3-0.4-0.6c0.1-1.2,2.3-1.6,3.3-1.7c1.4-0.2,2.9,0,4.2,0.6c0.7,0.3,1.4,0.8,1.9,1.5c0.4,0.5,0,1.3-0.5,1.3
		C94.5,174.6,94.3,174.5,94.1,174.4z"/>
	<path d="M107,174.6c-0.6-0.5-1-1.2-1.7-1.7c-1.1-0.6-2.4-0.7-3.6-0.6c-0.9,0-1.7,0.5-2.5,0.9c-0.4,0.2-0.8,0.5-1.2,0.5
		c-0.4-0.1-0.5-0.6-0.3-0.9c0.1-0.2,0.3-0.4,0.5-0.5c0.8-0.5,1.6-1,2.5-1.2c1.6-0.3,3.4-0.3,4.9,0.4c0.7,0.4,1.3,1,1.9,1.5
		c0.4,0.3,0.7,0.9,0.4,1.4c-0.1,0.2-0.3,0.3-0.5,0.3C107.2,174.6,107.1,174.6,107,174.6z"/>
	<path d="M94.9,184.6c-0.5-1-1-3.2,0-4c0.2-0.1,0.4-0.1,0.6,0c0.3,0.4,0.1,0.9,0.1,1.3c0.1,0.6,0.1,1.2,0.4,1.8
		c0.2,0.2,0.4,0.4,0.4,0.7c0.1,0.4-0.1,0.9-0.6,0.9C95.4,185.4,95.1,185,94.9,184.6z"/>
	<path d="M105,185.3c-0.7-0.4-0.2-1.3-0.2-1.9c0-0.3,0-0.6,0-0.9c0-0.2,0-0.5,0.2-0.6c1.1-0.5,1,1.3,1,2c0,0.5-0.2,1.5-0.8,1.5
		C105.2,185.4,105.1,185.4,105,185.3z"/>
	<path d="M112.6,185.1c-1.2-0.2-2.7-2.5-1.7-3.5c0.4-0.2,0.7,0.2,0.8,0.6c0.2,0.7,0.8,1.1,1.4,1.5c0.5,0.4,0.3,1.5-0.4,1.5
		C112.7,185.1,112.7,185.1,112.6,185.1z"/>
	<path d="M120.7,183.6c-0.7-0.4-0.3-1.2-0.2-1.8c0.1-0.4-0.1-0.8-0.2-1.1c-0.5-0.9,0.3-1.8,1-0.8c0.4,0.7,0.7,1.5,0.6,2.2
		c0,0.6-0.3,1.6-0.9,1.6C120.9,183.7,120.8,183.6,120.7,183.6z"/>
	<path d="M130.7,179.4c-0.3-0.4-0.6-0.8-1-1.2c-0.8-0.8-1.9-0.9-2.8-1.4c-0.2-0.2-0.3-0.5-0.2-0.7c0.3-0.6,1-0.4,1.5-0.3
		c0.6,0.1,1.1,0.3,1.6,0.6c0.5,0.3,0.9,0.8,1.4,1.2c0.4,0.4,0.8,0.9,1,1.4c0.2,0.5-0.1,1.2-0.7,1.3c0,0,0,0,0,0
		C131,180.3,130.8,179.8,130.7,179.4z"/>
	<path d="M123.1,182.8c-0.6-0.7-0.7-2.1-0.3-2.9c0.2-0.5,0.9-0.5,1.1-0.1c0.1,0.2,0.1,0.4,0,0.7c0,0.3,0,0.5,0.1,0.8
		c0.1,0.3,0.1,0.6,0.1,1c0,0.4-0.3,0.7-0.6,0.7C123.3,183,123.2,182.9,123.1,182.8z"/>
	<path d="M65,179.1c-1-0.7,0.3-2.7,1-3.3c1.4-1.3,3.5-2.1,5.4-2c0.9,0.1,1.8,0.5,2.5,1c0.5,0.3,0.4,1.2-0.2,1.4
		c-0.4,0.1-0.6-0.2-0.9-0.3c-0.7-0.5-1.5-0.8-2.4-0.6c-1.6,0.2-3.4,0.8-4.4,2.3c-0.2,0.4-0.4,0.8-0.5,1.2c0,0.2-0.2,0.5-0.5,0.5
		C65.1,179.1,65,179.1,65,179.1z"/>
	<path d="M78.1,181.8c-2.5-0.1-4.7-0.2-6.7-2c-0.9-0.7-0.8-2.1,0.1-2.7c0.5-0.4,1.2-0.4,1.8-0.3c0.5,0,0.5,0.8,0,0.8
		c-0.7-0.2-1.8,0-1.8,0.9c-0.1,0.3,0.3,0.6,0.4,0.7c0.4,0.3,0.8,0.6,1.2,0.9c0.9,0.6,2.1,0.7,3.2,0.9c0.2,0,0.4,0,0.6,0
		c0.5,0,1,0.1,1.5-0.1c0.1-0.1,0.3-0.1,0.4-0.1c0.4,0,0.5,0.7,0.2,0.9c-0.2,0.1-0.3,0.1-0.5,0.1C78.5,181.7,78.4,181.8,78.1,181.8
		C78.2,181.8,78.1,181.8,78.1,181.8z"/>
	<path d="M79.9,178c-0.1,0-0.1,0-0.2,0c-0.4,0-0.8,0-1.2-0.1c-0.8-0.1-1.4-0.6-2.1-0.9c-0.4-0.2-0.8-0.4-1-0.7
		c-0.5-1.5,1.4-2,2.5-2.2c0.9-0.1,1.8-0.2,2.7-0.3c1.3-0.3,2.8-0.2,4,0.6c0.3,0.2,0.5,0.5,0.6,0.8c0.1,0.7-0.6,0.9-0.9,0.2
		c-0.9-1.1-2.5-0.9-3.8-0.8c-1.1,0.2-3.9,0-4.5,1.1c0.7,0.5,1.6,0.8,2.4,1.1c0.7,0.2,1.3,0.1,1.9,0.2c0.2,0,0.4,0.2,0.4,0.4
		c-0.1,0.4-0.4,0.4-0.7,0.4C80,178,79.9,178,79.9,178z"/>
	<path d="M87.7,182.7c-1.6-0.1-3.4-0.1-4.9-0.8c-1-0.5-2.5-1.5-1.5-2.7c0.9-1,2.3-1.5,3.6-1.7c0.9-0.2,1.8-0.4,2.8-0.3
		c0.5,0.1,2.2,0.1,1.7,0.9c-0.1,0.1-0.2,0.1-0.3,0.1c-0.3-0.1-0.8-0.1-1.1-0.1c-0.9-0.1-1.8,0-2.7,0.2c-1,0.1-2,0.4-2.7,1
		c-0.3,0.2-0.8,0.4-0.7,0.8c0.4,0.5,1,0.8,1.6,1c0.7,0.3,1.4,0.3,2.1,0.5c0.9,0.1,1.7,0.3,2.6,0.2c0.6-0.1,1-0.5,1.4-0.9
		c0.4-0.3,0.6-0.6,0.8-1.1c0.1-0.2,0.3-0.3,0.5-0.2c0.9,0.8-1.4,2.2-1.9,2.6c-0.3,0.2-0.7,0.2-1,0.2
		C87.8,182.7,87.7,182.7,87.7,182.7z"/>
	<path d="M65.9,180.5c-0.8-0.4,0.8-2.7,1.3-3.1c0.3-0.3,0.8-0.5,1.3-0.5c0.3-0.1,0.8-0.1,0.8,0.3c0.1,0.5-0.4,0.5-0.8,0.5
		c-0.4,0-0.8,0.3-1.1,0.6c-0.4,0.5-0.8,1.1-1,1.7C66.3,180.2,66.2,180.5,65.9,180.5C66,180.5,66,180.5,65.9,180.5z"/>
	<path d="M86.5,174.9c-0.4-0.5,0.2-0.7,0.6-0.9c0.7-0.3,1.5-0.7,2.3-0.7c0.6-0.1,2.5,0.2,2.1,1.1c0,0.1-0.1,0.1-0.2,0.2
		c-0.1,0-0.2,0-0.3,0c-0.8-0.6-1.8-0.6-2.6-0.2c-0.5,0.2-0.9,0.4-1.4,0.6c-0.1,0-0.2,0.1-0.2,0.1C86.6,174.9,86.6,174.9,86.5,174.9z
		"/>
	<path d="M96.7,178.9c0.6,0.1,1.2,0.2,1.8,0.1c0.5-0.1,0.9-0.5,1.1-1c0.4-0.9-0.4-1.7-1.2-1.9c-1.2-0.3-2.5-0.5-3.8-0.5
		c-0.4,0-0.7,0.1-1.1,0.2c-0.4,0.1-0.7,0.2-1.1,0.2c-0.8,0.4-1.2,1.3-0.3,1.9c0.4,0.3,1,0.4,1.5,0.6
		C94.7,178.8,95.7,178.8,96.7,178.9z M97.2,179.8c-1.7-0.3-4.5-0.1-5.8-1.4c-1-1.1-0.4-2.6,0.9-3.1c0.2-0.3,0.6-0.3,0.9-0.3
		c0.5-0.1,1-0.2,1.6-0.2c0.8,0,1.7,0.2,2.5,0.3c0.7,0.1,1.5,0.2,2.1,0.6c1.5,0.9,1.2,3.1-0.2,4c-0.3,0.2-0.6,0.2-0.9,0.2
		C97.9,179.9,97.6,179.8,97.2,179.8z"/>
	<path d="M99.3,185.1c-1.1-0.4-2.2-1.1-2.8-2.3c-0.2-0.4-0.4-1-0.1-1.3c0.3-0.2,0.5,0.1,0.5,0.4c0.3,1.2,1.5,1.9,2.6,2.3
		c0.5,0.3,0.5,0.9-0.1,0.9C99.4,185.1,99.4,185.1,99.3,185.1z"/>
	<path d="M103,184.8c-0.4-0.4,0.2-0.9,0.3-1.3c0.2-0.6,0.1-1.3-0.1-1.9c-0.1-0.2-0.1-0.4,0.1-0.6c0.4-0.3,0.6,0.3,0.7,0.6
		c0.1,0.7,0.2,1.3,0,2c-0.1,0.4-0.3,1.2-0.7,1.2C103.2,184.9,103.1,184.9,103,184.8z"/>
	<path d="M105.6,180.5c-1.2-0.2-3.1-1-3.4-2.2c-0.1-0.4,0.4-0.7,0.7-0.4c1.1,2.1,4.9,2,6.9,1.5c0.4-0.1,1.1-0.3,0.7-0.8
		c-0.2-0.6-0.8-0.9-1.3-1.2c-1.7-1-4.5-0.7-6.3,0.1c-0.2,0.1-0.4,0.2-0.5,0.1c-0.3-0.1-0.3-0.5-0.1-0.7c0.8-0.4,1.7-0.7,2.6-0.9
		c1.5-0.2,3.1-0.3,4.5,0.4c0.9,0.5,1.8,1.2,2,2.3c0.1,1.2-1.3,1.6-2.3,1.7c-0.7,0.1-1.4,0.1-2.1,0.1
		C106.5,180.6,106.1,180.5,105.6,180.5z"/>
	<path d="M104.5,174.4c-0.8-0.6-1.7-0.9-2.6-0.7c-0.5,0.1-1,0.4-1.6,0.4c-0.2-0.1-0.3-0.4-0.1-0.5c0.2-0.1,0.4-0.2,0.6-0.3
		c0.8-0.3,1.8-0.6,2.7-0.3c0.6,0.2,1.8,0.5,1.5,1.3c-0.1,0.1-0.2,0.2-0.3,0.2C104.5,174.5,104.5,174.4,104.5,174.4z"/>
	<path d="M100.3,174.1C100.3,174.1,100.3,174.1,100.3,174.1C100.3,174.1,100.3,174.1,100.3,174.1
		C100.3,174.1,100.3,174.1,100.3,174.1C100.3,174.1,100.3,174.1,100.3,174.1z"/>
	<path d="M115.1,174.8c-0.7-0.6-1.7-0.6-2.6-0.4c-0.3,0.1-0.7,0.3-1,0.4c-0.2,0.1-0.4,0.3-0.7,0.2c-0.2,0-0.3-0.3-0.2-0.5
		c0.4-0.5,1.1-0.7,1.7-0.9c1.2-0.4,2.9-0.2,3.6,0.9c0.1,0.2,0,0.6-0.3,0.6C115.5,175.1,115.3,174.9,115.1,174.8z"/>
	<path d="M113.9,177.5c0.1-0.1,0.3-0.2,0.4,0c0.5,0,0.9-0.2,1.4-0.3c0.2,0,0.3,0.2,0.3,0.3c0.1,0.7-1.3,0.6-1.7,0.6c0,0,0,0,0,0
		C113.9,178.2,113.7,177.8,113.9,177.5z"/>
	<path d="M118.9,175.5c-0.8,0.4-1.2,0.8-0.3,1.4c0.5,0.4,1.2,0.4,1.8,0.5c0.7,0.1,1.5,0.3,2.2,0.2c0.6,0,2.1,0,2.1-0.8
		c-0.2-0.6-0.8-0.9-1.4-1c-0.8-0.3-1.6-0.3-2.4-0.3c-0.1,0-0.2,0-0.3,0c-0.2,0-0.3,0.1-0.4-0.1c-0.1,0-0.3,0-0.4,0
		c-0.1,0-0.2,0-0.3,0C119.4,175.5,119.1,175.5,118.9,175.5z M122.3,178.3c-0.1,0-0.2,0-0.3,0c-1.3-0.1-2.8-0.1-3.9-0.8
		c-0.6-0.4-1-1.2-0.6-1.9c0.3-0.5,0.8-0.7,1.2-0.9c0.3-0.1,0.7-0.1,1,0c0.2,0,0.4,0,0.5,0c0.1-0.1,0.2,0,0.3,0c0.1,0,0.1,0,0.2,0
		c0.4,0,0.7,0.1,1.1,0.1c0.9,0.1,1.8,0.2,2.5,0.7c0.8,0.4,1.2,1.5,0.5,2.2c-0.7,0.6-1.5,0.6-2.4,0.6
		C122.5,178.3,122.4,178.3,122.3,178.3z"/>
	<path d="M115.6,184.3c-1.3-0.3-3.2-1.4-3.4-2.8c-0.1-0.3,0.3-0.8,0.5-0.4c0.2,0.6,0.7,1.1,1.2,1.5c0.3,0.2,0.7,0.5,1.1,0.6
		c0.4,0.2,0.9,0.2,1.3,0.3c0.4,0.1,0.3,0.7-0.1,0.8c0,0-0.1,0-0.1,0C115.9,184.4,115.8,184.4,115.6,184.3z"/>
	<path d="M115,183.2C115,183.2,115,183.2,115,183.2C115,183.2,115,183.2,115,183.2C115,183.2,115,183.2,115,183.2
		C115,183.2,115,183.2,115,183.2z"/>
	<path d="M118.6,183.9c-0.4-0.2-0.2-0.7-0.1-1.1c0.3-1.1,0.4-2.2-0.4-3c-0.2-0.3,0.1-0.7,0.4-0.5c0.3,0.3,0.5,0.7,0.6,1
		c0.3,0.7,0.3,1.5,0.1,2.3c-0.1,0.4-0.1,1.3-0.6,1.3C118.7,183.9,118.6,183.9,118.6,183.9z"/>
	<path d="M125.6,182.4c-0.8-0.1-1.2-2.4-0.7-2.8c0.3-0.1,0.5,0.2,0.4,0.4c0,0.3,0,0.7,0.1,1c0.1,0.3,0.3,0.4,0.5,0.7
		C126.1,182,126,182.4,125.6,182.4C125.7,182.4,125.6,182.4,125.6,182.4z"/>
	<path d="M129.2,181c-0.1-0.8-0.6-1.5-1.2-2c-0.2-0.2-0.4-0.4-0.6-0.5c-0.3-0.2-0.6-0.4-0.4-0.8c0.3-0.4,0.8,0.1,1.1,0.3
		c0.6,0.4,1.2,0.9,1.6,1.5c0.2,0.4,0.4,0.9,0.4,1.3c0,0.3-0.2,0.4-0.4,0.4C129.4,181.2,129.2,181.2,129.2,181z"/>
	<path d="M109.5,184.2c0.1-0.7-0.4-1.3-0.3-1.9c0.1-0.4,0.7-0.2,0.6,0.2c0.1,0.6,0.4,1.2,0.4,1.8c0,0.3-0.2,0.4-0.4,0.4
		C109.7,184.7,109.5,184.5,109.5,184.2z"/>
	<path d="M92,184.7c-0.3-0.5,0.3-0.7,0.6-1c0.5-0.8,0.6-1.8,0.7-2.7c0-0.2,0.1-0.4,0.3-0.5c0.3-0.1,0.5,0.3,0.4,0.5
		c-0.2,1-0.1,2.2-0.7,3.1c-0.2,0.3-0.6,0.8-0.9,0.8C92.2,184.9,92.1,184.8,92,184.7z"/>
</g>
</svg>
