<?xml version="1.0" encoding="utf-8"?>
<!-- Generator: Adobe Illustrator 27.9.2, SVG Export Plug-In . SVG Version: 6.00 Build 0)  -->
<svg version="1.1" id="Calque_1" xmlns="http://www.w3.org/2000/svg" xmlns:xlink="http://www.w3.org/1999/xlink" x="0px" y="0px"
	 viewBox="0 0 235.3 218.8" style="enable-background:new 0 0 235.3 218.8;" xml:space="preserve">
<style type="text/css">
	.st0{fill:#8664C2;}
	.st1{fill:#AD936D;}
	.st2{fill:#C3A3FC;}
	.st3{fill:#FFFFFF;}
</style>
<g>
	<path class="st0" d="M197.8,130.6c0.3,4.5,0.1,8.9-0.1,13.4c-0.1,0.8,0.1,3-0.9,3c-0.5,0-0.7-0.5-0.7-0.9c0-3.2,0.3-6.4,0.3-9.6
		c0.1-5.4-0.6-10.8-1-16.3c-0.2-3.2-0.3-6.4-0.4-9.7c-0.1-2.1-0.4-4.1-0.5-6.2c0-0.6,0.1-1.5,0.8-1.6c0.5,0,0.8,0.6,0.5,1
		c0,1.7,0.4,3.5,0.5,5.2c0.3,3.8,0.4,7.7,0.7,11.5C197.2,124,197.6,127.3,197.8,130.6z"/>
	<path class="st0" d="M225.3,74.9c0.3,0.2,0.4,0.6,0.2,1c-0.1,0.2-0.3,0.4-0.5,0.5c-0.5,0.4-1,0.7-1.5,1.1c-2.9,2.3-6.2,3.9-9.4,5.7
		c-2.3,1.3-4.5,2.8-6.7,4.4c-2.3,1.6-4.4,3.5-6.2,5.6c-1.3,1.5-2.4,2.8-3.6,4.3c-1,1.1-1.8,2.9-3.5,2.7c-1.9-0.2-3.7-1-5.6-1.5
		c-3.1-0.7-6.2-1.3-9.3-1.9c-3.1-0.5-6.4-0.5-9.4-1.6c-0.6-0.2-1.1-0.4-1.7-0.6c-0.4-0.1-0.5-0.5-0.5-0.9c0-0.4,0.4-0.8,0.8-0.7
		c1.2,0.2,2.3,0.5,3.5,0.8c2.2,0.6,4.5,0.7,6.8,1c2.4,0.3,4.7,0.9,7.1,1.3c1.6,0.3,3.1,0.6,4.6,1c1.3,0.3,2.7,1,4.1,0.9
		c1-0.8,1.7-1.9,2.6-2.9c1.5-1.7,2.8-3.6,4.4-5.2c1.7-1.7,3.5-3.1,5.5-4.5c2-1.4,4.1-2.7,6.2-4c3.2-1.7,6.6-3.3,9.5-5.5
		C223.4,75.7,224.6,74.4,225.3,74.9z"/>
	<path class="st0" d="M235.3,107.1c0.1,1.6,0.1,3.3-0.1,4.9c-0.4,3.2-1.6,6.3-3,9.2c-0.3,0.6-0.6,1.1-0.9,1.7
		c-0.4,0.6-1,2.3-1.8,2.3c0,2.8-0.1,5.7,0.1,8.5c0.1,1.4,0.2,2.9-0.3,4.3c-0.2,0.5-0.4,1-0.7,1.5c-0.1,0.2-0.3,0.3-0.5,0.4
		c-0.4,0.1-0.7-0.1-1-0.2c-0.6,1.4-0.4,7.1-3,5.7c-0.9-0.7-1.5-1.7-2.3-2.5c-0.4,1.2-0.6,2.5-1,3.8c-0.2,0.8-0.5,1.9-1.5,1.9
		c-1-0.1-1.5-1.2-2.2-1.8c-0.6,1.3-1,2.6-1.3,3.9c-0.3,1.1-0.8,3.8-2.5,2.8c-1-0.9-1.6-2.1-2.6-3c-1.1,1.8-1.3,4-2.1,6
		c-0.2,0.7-1.1,1.5-1.8,0.9c-0.6-0.5-0.9-1.4-1.3-2.1c-0.6,1.6-2.2,7.8-4.7,5.4c-0.3-0.3-0.5-0.6-0.8-0.9c-0.4-0.5-0.9-1-1.3-1.5
		c-0.3,0.4-0.5,0.9-0.7,1.4c0.1,0.2,0.2,0.5,0.1,0.8c-0.2,1-0.9,2.2-2,1.4c-0.7-0.3-1.9-3.6-2.6-3.1c-0.8,0.6-1.7,1.4-2.7,0.9
		c-0.9-0.3-1.6-1.5-2.6-1.5c-0.9,0.3-1.7,1.2-2.7,1.2c-1.5-0.1-2.1-2.2-3-3.1c-0.4,0.3-0.7,0.8-1.1,1.1c-0.5,0.5-1,1.2-1.7,1.1
		c-0.9-0.1-1.5-0.8-2.2-1.3c-0.9-0.8-1.7-1.6-2.7-2.3c-1,0.7-1.5,1.9-2.5,2.5c-1.3,0.6-2.2-1.5-2.9-2.3c-0.6-0.8-1.1-1.7-1.9-2.3
		c-0.4-0.1-0.8,0.1-1.2,0.3c-0.9,0.4-1.8,1-2.7,1.5c-0.8,0.4-1.2-0.6-1.5-1.2c-0.8-1.9-0.8-4-0.9-6c-0.1-0.9-0.1-1.9-0.2-2.8
		c-0.7,0.3-1.4,0.6-2.1,0.9c-2.2,0.8-4.4,1.6-6.7,2.4c-1.6,0.4-3.1,0.6-4.7,1c-1.4,0.3-2.7,0.6-4.1,1c-0.1,0-0.1,0-0.2,0
		c1.1,1.7,2.3,3.3,3.1,5.2c1.4,3,2.6,6.1,3.7,9.2c1.9,4.7,2.9,9.7,3,14.8c0.1,2.4-0.2,4.8-0.7,7.1c-0.1,0.3-0.2,0.8-0.3,1.3
		c1,0.2,2,0.3,3,0.4c0.4-1.5,0.4-3.1,0.7-4.6c0.2-1.5,0.4-3,0.5-4.5c0.2-2.3,0-4.6,0.2-6.9c0.1-1.3,0.9-8,3.2-5.5
		c0.5,0.7,0.7,1.6,1.1,2.4c0.8,2.3,1.8,4.6,2.6,6.9c0.8-4.2,2.8-8,4.7-11.8c0.3-0.6,0.7-1.8,1.6-1.3c0.4,0.2,0.6,0.7,0.7,1.2
		c0.2,0.8,0.4,1.6,0.6,2.4c0.4,1.9,0.9,3.9,1.4,5.8c0.1,0.1,0.2,0.3,0.2,0.5c0,0.1,0,0.1,0,0.2c0.2,1,0.4,1.9,0.6,2.9
		c1.5-3.8,3.5-7.6,6.3-10.7c0.5-0.5,0.9-1.4,1.7-1.3c1.3,0.2,1.3,2.6,1.5,3.7c0.6,4.9,0.8,9.9,0.4,14.9c-0.6,6.6-1.3,13.1-2.3,19.7
		c-0.6,3.1-0.7,6.4-1.6,9.5c-0.7,2.9-3.4,3-5.9,3.5c-2.5,0.5-5,0.9-7.5,0.8c-1.7,0-3.5-0.1-5.2-0.3c-1.6-0.1-3.1-0.6-4.6-0.7
		c-1.5-0.1-2.9,0.1-4.4,0.3c-2.4,0.3-4.8,0.3-7.2,0c-1.1-0.2-2.2-0.3-3.3-0.4c-1.4-0.1-2.9,0-4.1-0.7c-0.3-0.1-0.4-0.4-0.4-0.7
		c-0.2,0.3-0.3,0.7-0.5,1c-1.5,2.6-3.9,3.4-6.7,3.7c-4.1,0.7-8.3,0.7-12.5,0.5c-2.5,0-5.1-0.5-7.6-0.7c-3.1-0.2-6.2-0.2-9.4-0.2
		c-1.7,0-3.4,0-5.1,0c-1.7,0-3.3-0.5-4.9-0.9c-1.8-0.4-3.6-0.7-5.4-1c-1-0.1-1.9,0.1-2.8,0.3c-1.2,0.2-2.2,0.3-3.4,0.3
		c-0.2,0-0.3-0.1-0.4-0.2c-2.6,0.7-5.2,1-7.8,1.4c-6.4,1.1-12.9,1.3-19.4,1.2c-2.8,0-5.6,0-8.3,0c-1.8,0.1-3.6,0.1-5.4,0.1
		c-1,0-2,0-3-0.1c-2-0.1-4-0.1-6-0.1c-1.3,0-2.7,0-4,0c-2.2,0-4.4,0-6.6,0C13,218.5,6.9,219.1,5,215c-0.9-1.9,0.3-3.4,1.6-4.7
		c2.9-3.2,6.8-5.4,10.1-8.2c2.3-2.3,5.3-3.8,7.9-5.7c1.1-0.9,2.1-1.8,3.2-2.7c1.7-1.5,3.6-2.8,5.3-4.2c1.1-0.9,1.7-1.8,2.1-2.9
		c-0.2,0.1-0.5,0.1-0.8-0.1c-2.2-2.1-7.7-5-7-8.5c0.4-1.1,1.3-1.8,2.1-2.6c0.6-0.6,1.2-1.2,1.9-1.7c2.1-1.7,4.3-3.4,6.4-5.2
		c0-0.1,0-0.2,0-0.3c0-0.2,0-0.3,0.1-0.5c-0.4-0.6-1-1-1.4-1.6c-1.1-1.3-2.1-2.6-3.4-3.7c-1.2-1.1-3.8-2.5-2.6-4.5
		c0.5-0.6,1.2-1.1,1.8-1.7c1.2-1.1,2.3-2.3,3.4-3.5c1.3-1.5,2.8-2.7,4.3-4.1c-1.9-2.7-3.9-5.3-5.3-8.2c-0.5-0.9-0.8-2.1-0.3-3
		c0.5-0.9,1.1-1.7,1.9-2.4c1.9-1.8,4.6-2.1,6.7-3.5c0,0,0,0,0,0c0.1-0.4,0.2-0.8,0.3-1.1c-3.6-0.2-7.2,0-10.7-0.6
		c-4.8-0.8-9-3.3-13.2-5.6c-2.1-1-4.4-1.9-6.3-3.3c-2.6-1.8-4.8-4.1-6.6-6.6c-3.7-5.4-5.8-11.8-6.4-18.3c-0.2-3.9,0.3-7.8,1.1-11.6
		c0.7-3.9,2-7.7,4.4-11c1.3-1.9,2.9-3.6,4.3-5.4c1-1.2,1.7-2.6,2.8-3.8c0.4-0.4,1.4-1.4,2.2-1.9c-0.1-0.7-0.1-1.5-0.2-2.3
		c-0.1-1.3-0.1-2.6-0.2-3.9c0,0,0,0,0,0.1c-0.4-5.1-0.4-10.2,0-15.3c0.2-3.4,0.8-6.8,1.7-10.2c0.4-1.7,0.9-3.3,1.5-4.9
		c0.9-2.4,2.2-4.6,3.6-6.7c1.5-2,3-4.1,4.9-5.9c1.3-1.2,2.7-2.1,4.1-3c1.4-0.9,2.8-1.9,4.2-2.7c2.2-1.3,4.6-2,6.9-2.8
		c2.3-0.8,4.7-1.6,7.2-2c1.6-0.3,3.3-0.5,4.9-0.5c2.5,0.1,4.9,0.5,7.3,1c3.2,0.9,6.4,1.9,9.3,3.4c2.4,1.5,4.1,4,5.6,6.5
		c0.9-0.5,2.4-0.7,3-1c0.9-0.2,1.9-0.5,2.8-0.8c1.6-0.4,3.2-0.5,4.8-0.7c1.6-0.2,3.3-0.4,4.9-0.3c1.2,0.1,2.3,0.1,3.5,0.3
		c0.1-0.1,0.2-0.2,0.2-0.3c1.3-1.7,2.8-3.2,4.2-4.7c1.8-1.8,4.2-2.8,6.6-3.6c1.6-0.6,3.1-1.2,4.8-1.5c3.3-0.6,6.8,0.3,9.8,1.8
		c2.1,1.2,4.4,2.1,6.3,3.6c1.9,1.6,2.8,4,3.9,6.2c1.2,2.5,1.9,4.8,2.6,7.3c0.3,0.9,0.6,1.9,0.8,2.8c0,0.1,0,0.1,0,0.2
		c1,0.3,2.1,0.7,3,1.4c0.8,0.5,2.9,2.4,3.1,3.7c1.5,0.9,3,2.1,4.2,3.4c1,1.2,1.8,2.6,2.3,4c0.2,0.8,1.1,3,0.8,4
		c0.7,0.7,1.3,1.6,1.6,2.6c0.6,2.4,0.9,5.2,0,7.5c0,1.2,0.1,2.3,0,3.4c0.4-0.2,0.9-0.4,1.3-0.5c3-1,5.9-1.7,9.1-2
		c2.1-0.2,4.3-0.4,6.4,0.1c5.2,1.3,9.8,5.2,11.6,10.3c0.8,2,1,4.1,1.2,6.2c0.2,2.1,0.3,4.2,0.3,6.3c0,2.5,0.2,5.3-1.2,7.6
		c-0.9,1.4-2.4,2.2-3.8,2.9c0.1,0.2,0.1,0.3,0.1,0.5c0.1,0.5,0.3,1,0.4,1.5c2.1-1.2,4.1-2.5,6.2-3.7c1.7-0.9,3.4-2,4.8-3.3
		c2.4-2.2,4.6-4.6,6.9-6.8c1.4-1.4,3-2.8,4.3-4.3c1.3-1.5,2.3-3.2,3.4-4.9c0.7-1,1.3-2.2,2.4-2.8c1.4-0.8,3-0.3,4.4,0.1
		c2.8,0.9,5,2.9,7.4,4.5c1.9,1.2,4,2,6.1,2.9c1.9,0.8,3.6,1.9,5.5,2.8c0.9,0.4,1.9,0.8,2.8,1.2c0.7,0.2,1.5,0.7,1.3,1.6
		c0,0.1,0,0.1-0.1,0.2c0.1,0.2,0.1,0.4,0.1,0.7c0.3,4.2,0.3,8.6,0.7,12.7c0.2,3.1,0.3,6.1,0.3,9.2c0,0.3,0,0.6-0.1,0.8
		c1.1,1.2,2,2.4,2.8,3.8C234.9,102,235.1,104.6,235.3,107.1z M229.1,94.3c0-0.2,0-0.5,0-0.7c0-2.3-0.1-4.5-0.3-6.8
		c-0.2-3.4-0.4-6.7-0.5-10.1c0-1.2-0.2-2.5-0.1-3.7c0-0.1,0-0.1,0-0.2c-0.1-0.1-0.3-0.1-0.4-0.2c-1.1-0.5-2.2-0.9-3.3-1.4
		c-1.8-0.8-3.4-1.8-5.2-2.6c-1.5-0.6-3-1.2-4.4-2c-2.7-1.3-4.8-3.6-7.5-4.8c-1-0.4-2.1-0.8-3.2-1c-0.8-0.1-1.4,0.2-1.9,0.8
		c-1.6,1.9-2.6,4.2-4.2,6.1c-1.5,1.9-3.3,3.6-5.1,5.3c-1.8,1.7-3.4,3.5-5.2,5.2c-1.2,1.2-2.5,2.3-3.9,3.3c-1.4,1-2.8,1.7-4.3,2.5
		c-1.7,1-3.4,2-5.1,3.1c-0.1,0.4-0.6,0.7-0.9,0.6c-0.1,0.1-0.3,0.2-0.4,0.2c-3.4,2-7.3,3.2-10.9,4.6c-0.3,0.1-0.6,0.3-0.8,0.5
		c-0.2,0.2-0.2,0.5-0.3,0.8c-0.1,0.8-0.2,1.5-0.3,2.3c-0.1,1.2-0.1,2.3-0.1,3.5c1.2-0.8,2.4-1.6,3.7-2.1c1.9-0.5,2.2,1.8,1.7,3.1
		c-0.7,2.7-2.1,5-3.5,7.4c2.4-1.1,4.7-2.2,7.1-3.2c0.7-0.3,1.5-0.6,2.2-0.9c0.5-0.2,1.1-0.5,1.7-0.2c2.5,1.2-1.4,7.6-2.4,9.2
		c1.3-0.9,4-3.4,5.4-1.7c0.6,0.8,0.6,1.9,0.5,2.9c-0.3,2.2-1.4,4.2-2.6,6c-1.9,3-4.7,5.2-7.5,7.3c-1.8,1.4-3.6,2.8-5.4,4.2
		c0.1,0.1,0.1,0.3,0.1,0.5c0.1,3,0.3,5.9,0.4,8.9c0,0.8,0.1,1.6,0.1,2.4c0,0,0,0,0,0c0,0.1,0,0.2,0,0.3c0.1,1.4,0.2,2.8,0.3,4.2
		c0.1,1.7,0.1,3.5,0.8,5.1c1.3-0.6,2.8-1.9,4.4-1.5c0.6,0.2,1,0.7,1.4,1.2c0.9,1.1,1.6,2.3,2.5,3.4c0.7-0.7,1.2-1.5,1.9-2.1
		c0.3-0.2,0.5-0.4,0.9-0.5c0.9-0.1,1.6,0.8,2.2,1.2c1,0.8,1.8,1.8,3,2.3c2.3-2.4,2.9-3.7,5-0.2c0.2,0.3,0.4,0.6,0.7,0.9
		c0.1,0.1,0.1,0.2,0.2,0.1c1.8-0.9,2.6-2,4.6-0.5c0.3,0.3,0.7,0.5,1,0.8c0.1,0.1,0.3,0.2,0.5,0.1c0.4-0.2,0.8-0.6,1.2-0.9
		c1.7-1,2.8,1.1,3.6,2.3c0,0,0,0,0,0c0.3-0.7,0.5-1.3,0.8-2c1.4-3,3.3,0.6,4.7,1.7c1.1-1.5,1.6-3.4,2.1-5.1c0.2-0.7,0.4-1.9,1.4-1.8
		c0.6,0.1,0.8,0.7,1.1,1.1c0.3,0.5,0.6,1,0.8,1.6c0.6-1.6,1.3-6.3,3.1-6.7c1.3-0.1,2.6,2.2,3.4,3.1c0.8-2,1.1-4.2,2.2-6.1
		c1.1-1.7,2.3,0.2,3.2,1.1c0.5-1.5,0.8-3,1.2-4.5c0.2-0.8,0.8-1.6,1.7-1.1c1.1,0.6,1.7,1.7,2.6,2.5c0.4-1.5,0.4-3,0.9-4.5
		c0.3-0.9,1-1.4,1.9-1.1c0.7-1.2,0.5-2.7,0.5-4c0-0.9-0.1-1.7-0.1-2.6c-0.1-2-0.1-4.1,0-6.1c-0.1-0.1-0.3-0.2-0.4-0.2
		c-4.4-2.9-7.2-4.9-9.8-9.6c-0.8-1.4-2.3-3.7,0-4.5c2-0.6,4.2-0.5,6.2-0.5c-2.5-2.3-5.1-4.5-6.6-7.5c-1.9-3.8,4.2-2.7,6.2-2.7
		c-1.3-1.2-2.5-2.4-3.5-3.9c-1.5-2.3-2.1-4.8,1.6-4.4c2.5,0.2,5.1,0.8,7.1,2.4C228.9,94.2,229,94.2,229.1,94.3z"/>
	<path class="st1" d="M229.1,93.6c0,0.2,0,0.5,0,0.7c-0.1-0.1-0.2-0.2-0.4-0.3c-2-1.6-4.6-2.1-7.1-2.4c-3.7-0.3-3.1,2.1-1.6,4.4
		c1,1.5,2.2,2.7,3.5,3.9c-2-0.1-8-1.1-6.2,2.7c1.5,3,4.2,5.3,6.6,7.5c-2.1,0.1-4.2,0-6.2,0.5c-2.3,0.8-0.8,3.1,0,4.5
		c2.6,4.8,5.3,6.7,9.8,9.6c0.1,0.1,0.2,0.2,0.4,0.2c0,2,0,4.1,0,6.1c0,0.9,0.1,1.7,0.1,2.6c0,1.3,0.2,2.8-0.5,4
		c-0.9-0.4-1.7,0.1-1.9,1.1c-0.5,1.4-0.5,3-0.9,4.5c-0.9-0.8-1.5-2-2.6-2.5c-0.8-0.4-1.5,0.4-1.7,1.1c-0.4,1.5-0.7,3.1-1.2,4.5
		c-0.9-0.9-2.1-2.8-3.2-1.1c-1,1.9-1.4,4.1-2.2,6.1c-0.8-0.9-2.1-3.2-3.4-3.1c-1.7,0.4-2.4,5.2-3.1,6.7c-0.3-0.5-0.5-1.1-0.8-1.6
		c-0.3-0.4-0.5-1-1.1-1.1c-1-0.1-1.2,1.1-1.4,1.8c-0.5,1.7-1,3.6-2.1,5.1c-1.4-1.1-3.2-4.7-4.7-1.7c-0.3,0.7-0.6,1.3-0.8,2
		c0,0,0,0,0,0c-0.8-1.3-1.9-3.4-3.6-2.3c-0.4,0.3-0.8,0.6-1.2,0.9c-0.2,0.1-0.3,0-0.5-0.1c-0.4-0.2-0.7-0.5-1-0.8
		c-2-1.5-2.8-0.4-4.6,0.5c-0.1,0-0.2-0.1-0.2-0.1c-0.2-0.3-0.5-0.6-0.7-0.9c-2.1-3.6-2.7-2.2-5,0.2c-1.1-0.5-2-1.6-3-2.3
		c-0.6-0.5-1.3-1.4-2.2-1.2c-0.3,0.1-0.6,0.2-0.9,0.5c-0.7,0.7-1.2,1.4-1.9,2.1c-0.9-1.1-1.6-2.3-2.5-3.4c-0.4-0.5-0.8-1-1.4-1.2
		c-1.6-0.4-3.1,0.9-4.4,1.5c-0.6-1.6-0.6-3.4-0.8-5.1c-0.1-1.3-0.2-2.7-0.3-4.2c0-0.1,0-0.2,0-0.3c0,0,0,0,0,0
		c0-0.8-0.1-1.6-0.1-2.4c-0.1-2.9-0.3-5.9-0.4-8.9c0-0.2,0-0.3-0.1-0.5c1.8-1.4,3.6-2.8,5.4-4.2c2.8-2.1,5.6-4.4,7.5-7.3
		c1.2-1.8,2.3-3.8,2.6-6c0.1-1,0.1-2.1-0.5-2.9c-1.4-1.7-4,0.8-5.4,1.7c1-1.6,4.9-8,2.4-9.2c-0.6-0.2-1.2,0-1.7,0.2
		c-0.7,0.3-1.5,0.6-2.2,0.9c-2.4,1-4.7,2.1-7.1,3.2c1.4-2.3,2.8-4.7,3.5-7.4c0.4-1.3,0.2-3.6-1.7-3.1c-1.3,0.6-2.6,1.3-3.7,2.1
		c0-1.2,0-2.3,0.1-3.5c0.1-0.8,0.1-1.5,0.3-2.3c0.1-0.3,0.1-0.6,0.3-0.8c0.2-0.2,0.5-0.4,0.8-0.5c3.7-1.4,7.5-2.6,10.9-4.6
		c0.1-0.1,0.3-0.2,0.4-0.2c0.4,0.1,0.8-0.1,0.9-0.6c1.7-1,3.4-2.1,5.1-3.1c1.4-0.8,2.9-1.6,4.3-2.5c1.4-1,2.6-2.1,3.9-3.3
		c1.8-1.7,3.4-3.5,5.2-5.2c1.8-1.7,3.6-3.3,5.1-5.3c1.6-1.9,2.7-4.2,4.2-6.1c0.4-0.6,1.1-0.9,1.9-0.8c1.1,0.1,2.2,0.5,3.2,1
		c2.7,1.3,4.8,3.5,7.5,4.8c1.4,0.8,3,1.3,4.4,2c1.8,0.8,3.5,1.8,5.2,2.6c1.1,0.5,2.2,0.9,3.3,1.4c0.1,0.1,0.3,0.1,0.4,0.2
		c0,0.1,0,0.1,0,0.2c-0.1,1.2,0.1,2.5,0.1,3.7c0.1,3.4,0.2,6.7,0.5,10.1C229,89.1,229.1,91.4,229.1,93.6z M225.6,75.9
		c0.1-0.4,0-0.7-0.2-1c-0.7-0.5-2,0.8-2.6,1.2c-2.9,2.2-6.2,3.8-9.5,5.5c-2.1,1.2-4.2,2.6-6.2,4c-1.9,1.3-3.8,2.8-5.5,4.5
		c-1.6,1.6-2.9,3.5-4.4,5.2c-0.9,0.9-1.6,2.1-2.6,2.9c-1.4,0.1-2.8-0.6-4.1-0.9c-1.5-0.4-3.1-0.8-4.6-1c-2.4-0.4-4.7-1-7.1-1.3
		c-2.3-0.3-4.6-0.4-6.8-1c-1.1-0.4-2.3-0.7-3.5-0.8c-0.4-0.1-0.7,0.3-0.8,0.7c0,0.4,0.1,0.8,0.5,0.9c0.6,0.2,1.1,0.4,1.7,0.6
		c3,1.1,6.2,1.1,9.4,1.6c3.1,0.6,6.2,1.2,9.3,1.9c1.9,0.5,3.7,1.3,5.6,1.5c1.7,0.2,2.6-1.6,3.5-2.7c1.3-1.5,2.4-2.8,3.6-4.3
		c1.8-2.1,3.9-4,6.2-5.6c2.2-1.6,4.4-3,6.7-4.4c3.2-1.8,6.5-3.4,9.4-5.7c0.5-0.4,1-0.7,1.5-1.1C225.3,76.3,225.5,76.1,225.6,75.9z
		 M197.7,144c0.2-4.5,0.4-8.9,0.1-13.4c-0.2-3.3-0.6-6.7-0.8-10c-0.2-3.8-0.4-7.7-0.7-11.5c-0.1-1.7-0.5-3.5-0.5-5.2
		c0.3-0.4,0-1-0.5-1c-0.7,0.1-0.8,1-0.8,1.6c0.1,2.1,0.4,4.1,0.5,6.2c0.1,3.2,0.2,6.4,0.4,9.7c0.4,5.4,1.1,10.8,1,16.3
		c0,3.2-0.3,6.4-0.3,9.6c0,0.4,0.3,0.9,0.7,0.9C197.8,146.9,197.6,144.8,197.7,144z"/>
	<path class="st2" d="M10.1,91.2C10,92,9.8,92.8,9.6,93.6c-0.1,0.4-0.2,0.7-0.3,1.1c0.5-1.2,0.7-2.5,0.7-3.7
		C10.1,91.1,10.1,91.2,10.1,91.2z M7.7,98.6c-1.6-0.5-2.2-3.7-2.2-5.1c0-2.1,0.3-6.6,2.3-7.7c1.1-1.4,3-0.7,3.7,0.7
		C13.2,89.1,11.8,98.9,7.7,98.6z"/>
	<path class="st2" d="M14,80c0.2,0,0.3-0.1,0.4-0.2c-0.2-0.1-0.4-0.4-0.5-0.6c0,0-0.1-0.1-0.1-0.1C13.9,79.4,13.9,79.7,14,80z
		 M13.5,81.7c-0.7-0.2-1.2-0.9-1.3-1.6c-0.4-1.6,0.2-3.2,1.2-4.5c0.8-1.1,2.6-2,3.7-0.9c0.9,1,0.6,2.5,0.4,3.7
		c-0.2,1-0.6,2.1-1.3,2.9C15.5,82,14.3,82.4,13.5,81.7z"/>
	<path class="st2" d="M13.8,80.6c-0.7-0.4-0.9-2,0-2.3c0.5-0.1,0.9,0.6,0.6,1c0,0.1,0.1,0.2,0.1,0.3C14.8,80.1,14.4,80.8,13.8,80.6z
		"/>
	<path class="st2" d="M9.3,94.4c-0.6-0.4-0.6-1.2-0.6-1.9c0-0.8-0.1-1.7,0.2-2.5c0.2-0.6,1-0.4,1.1,0.2c0,0.4,0,0.9,0,1.3
		c0.3-0.1,0.7,0.1,0.8,0.4c0.3,0.5,0.1,1-0.2,1.5C10.5,93.9,10,94.7,9.3,94.4z"/>
	<path class="st2" d="M158.5,172.3c0,0,0.1-0.1,0.1-0.1c0,0,0-0.1-0.1-0.1C158.6,172.2,158.5,172.2,158.5,172.3z M157.1,176.8
		c-0.5-0.8-0.2-1.9-0.2-2.8c0.1-0.9,0.2-1.8,0.3-2.6c0.1-0.7,0-1.4,0.2-2c0.3-0.9,1.3-0.8,1.7,0c0.8,1.4,1.3,2.9,2,4.3
		c0.4,0.7,0.6,1.7-0.1,2.2c-0.5,0.3-1.1,0.3-1.6,0.4c-0.5,0.1-1.2-0.1-1.3-0.6c-0.1,0.3,0,0.6-0.1,0.9
		C157.7,176.9,157.3,177.1,157.1,176.8z"/>
	<path class="st2" d="M166,172.8c-1.4-0.6,1-3.6,1.3-4.6c0.3-0.6,0.5-1.3,0.7-2c0.1-0.3,0.2-0.7,0.5-0.8c1.1-0.5,1.4,1.1,1.6,1.8
		c0.2,1.2,0.4,2.3,0.6,3.5c0.1,0.9-0.4,1.7-1.3,1.8c-0.9,0.2-1.9,0.3-2.9,0.2C166.3,172.8,166.2,172.8,166,172.8z"/>
	<path class="st2" d="M180.4,173.7c-0.9-0.2-1.7-0.4-2.5-0.7c-0.6-0.2-1.4-0.3-1.5-1c-0.7-0.6-0.1-1.4,0.3-2
		c0.8-1.1,1.4-2.3,2.2-3.4c0.2-0.3,0.5-0.5,0.9-0.5c0.6,0.1,0.8,0.7,1,1.3c0.3,0.8,0.5,1.6,0.7,2.4c0.2,0.8,0.4,1.5,0.5,2.3
		C182.2,173.1,181.5,174,180.4,173.7z"/>
	<path class="st2" d="M49.7,150.8c0.2-0.1,0.5-0.2,0.8-0.1c-0.2-0.6-0.6-0.4-0.9,0C49.6,150.8,49.6,150.8,49.7,150.8z M49,158.9
		c0.1,0,0.2,0,0.2-0.1C49.1,158.9,49,158.9,49,158.9C49,158.9,49,158.9,49,158.9z M48.7,160.5c-2-0.5-2.1-3.2-1.8-4.9
		c0-1.6,0.2-3.2,0.8-4.6c0.4-1.1,1.5-2.7,2.9-2.2c1.1,0.5,1.2,2,1.3,3C52.2,154.2,52.1,160.5,48.7,160.5z"/>
	<path class="st2" d="M44.6,171.1c-0.7-0.3-0.9-1.1-1.2-1.8c-0.2-0.4-0.1-0.9,0-1.3c0-0.6,0.1-1.2,0.2-1.7c0.2-1.1,0.6-2.4,1.7-2.9
		c1.6-0.4,2.2,1.7,2.1,2.9C47.2,167.8,46.7,171.6,44.6,171.1z"/>
	<path class="st2" d="M42.4,179.9c-0.4-0.1-0.6-0.6-0.7-1c0-0.1,0-0.2,0-0.4c-0.5-0.9-0.1-2.6,0.7-3.3c0.8-0.6,1.7,0.1,1.8,1
		C44.2,177.1,43.7,180.3,42.4,179.9z"/>
	<path class="st2" d="M49.1,152.2c0-0.2,0-0.4,0-0.6c0-0.4,0.3-0.6,0.4-0.9c0.8-1.3,2.2,0.2,1.2,1.1c-0.2,0.2-0.4,0.5-0.7,0.6
		C49.8,153,49.1,152.8,49.1,152.2z"/>
	<path class="st2" d="M146.4,165.1c0.6,3.9,1.1,7.8,1,11.8c0,2.2,0,4.5-0.1,6.7c-0.2,2.5-0.6,4.9-1.1,7.3c-0.8,3.6-1.9,7.3-4.1,10.2
		c-0.5,0.8-1,1.5-1.4,2.4c-0.2,0.5-0.5,1.3-1.2,1.2c-1.3-0.4-0.2-2.4,0-3.3c0.7-2.4,1.3-4.8,1.9-7.2c0.7-3.5,1-7,1.5-10.5
		c0.6-3.5,1.2-7,1.2-10.6c-1.9,0.1-3.9-0.2-5.7-1c-0.2,0.7-0.4,1.5-0.5,2.2c-0.1,0.5-0.6,1.1-1.2,0.8c-0.7-0.4-0.5-1.3-0.7-2
		c-0.1-0.8-0.2-1.7-0.4-2.4c-1.2-0.5-2.5-0.2-3.7-0.2c-0.9,0-1.8-0.4-2.7-0.7c-0.4,1.3-0.8,2.6-1.4,3.8c-0.2,0.4-0.8,0.6-1.2,0.2
		c-0.4-0.3-0.4-0.8-0.7-1.1c-2.7,0.4-5.4,0.3-8.1,0.4c-0.4,0.9-0.6,1.9-0.8,2.9c-0.3,1.4-0.6,2.9-0.8,4.3c-0.3,1.8-0.9,3.9-1.3,5.6
		c-0.3,1.4-0.6,2.8-0.7,4.2c-0.2,1.5-0.2,3-0.7,4.4c-0.5,0.8-1.2,0.6-1.8,0c-0.7-0.7-1.5-1.4-2.3-2c-1.3-1.1-2.5-2.4-3.8-3.6
		c-0.9-0.8-1.9-1.5-2.8-2.3c-0.9-0.7-1.7-1.5-2.6-2.3c-0.5-0.5-1.1-0.8-1.6-1.3c-0.1-0.2-0.2-0.4-0.2-0.6c0,0,0,0-0.1,0
		c-0.2,0.2-0.3,0.6-0.7,0.6c-0.3,0-0.4-0.2-0.5-0.5c-0.3-1.2,1.6-2.2,2.2-3.1c0.7-0.9,1.3-1.9,1.8-3c0.7-1.4,1.1-3,1.7-4.4
		c0.8-1.9,1.7-3.7,2.3-5.6c0.9-3,1.5-6,2.2-9c0.1-0.4,0.1-0.9,0.3-1.3c0.4-0.8,1.2-0.6,1.4,0.1c0.2-0.1,0.4-0.2,0.6-0.3
		c1.9-0.6,3.9-1.1,5.8-1.9c2.6-1,5.2-2.1,7.6-3.6c1-0.7,2.1-1.2,3.2-1.6c1.8-0.7,3.6-1.3,5.4-2.1c1-0.4,2-0.7,3-0.9
		c0.3-0.1,0.6-0.1,0.9,0c0.5,0.2,0.8,0.7,1.1,1.1c0.8,1,1.6,2,2.3,3.1c1.1,1.7,2,3.5,3.1,5.2C144.7,158.8,146,160.8,146.4,165.1z"/>
	<path class="st2" d="M39.9,151.1c0.9,0.6,0.2,3.1,0.3,4.1c-0.1,1.3-0.2,2.7-0.4,4c-0.1,1-0.2,2.1-0.3,3.1c-0.1,0.6,0,1.6-0.8,1.8
		c0.7,0.6,0.1,1.7-0.8,1.4c-0.6-0.3-1.1-0.8-1.6-1.3c-0.7-0.8-1.3-1.6-1.9-2.4c-0.9-1.2-2.9-2.4-1.9-4.1c0.8-1.3,2.2-2,3.1-3.3
		C36.4,153.4,38.6,150.3,39.9,151.1z"/>
	<path class="st2" d="M37.2,170.7c1.2,0.4,0.8,2,0.7,2.9c-0.2,1.5-0.5,3.1-0.6,4.6c-0.1,1.3-0.4,2.6-0.5,3.9c-0.1,0.6,0,1.4-0.6,1.8
		c0.5,0.5,0.1,1.5-0.6,1.3c-1.3-0.4-2.5-1.6-3.5-2.4c-0.9-0.8-2-1.5-2.6-2.6c-1.2-2,0.5-4,2-5.2c1-0.9,2.2-1.6,3.2-2.5
		c0.5-0.5,1-1,1.5-1.5C36.4,170.8,36.8,170.6,37.2,170.7z"/>
	<path class="st2" d="M42.4,133.3c1.3,0.4,0.2,3.7,0.1,4.7c-0.3,1.6-0.6,3.2-0.8,4.7c-0.2,0.6,0,1.6-0.5,2.1c0,0.1,0,0.3,0,0.5
		c0.3,0.2,0.6,0.5,0.5,0.9c-0.1,0.7-0.7,0.7-1.2,0.4c-0.1,0.1-0.3,0.1-0.4,0c-0.2-0.2-0.3-0.4-0.3-0.6c-1.9-2-4.4-5.2-4.4-7.9
		c0.3-1.8,2.3-2.5,3.8-3.2c0.8-0.4,1.6-0.9,2.3-1.4C41.8,133.3,42.1,133.2,42.4,133.3z"/>
	<path class="st3" d="M90.5,42.1c0.8,1.2,1.2,2.7,1.1,4.2c-0.2-0.3-0.3-0.5-0.4-0.7c-1-1.7-2.2-3.3-3.8-4.5c-5.5-4-7.3-4.8-13.9-2.6
		c-2.6,0.8-4.8,2.3-6.9,3.9c-2,1.8-3.4,4.3-4,6.9c-0.1,0.6-0.5,2.3-0.5,3.6c-2.3-0.1-4.4-0.3-6.7-0.5c-2,0-3.9-0.4-5.9-0.9
		c-1.8-0.5-3.5-1-5.1-1.9c-0.5-0.3-0.6-1-1-1.3c0.1-0.1,0.1-0.2,0.1-0.3c2.7-2.3,6.1-3.4,9.2-5.2c1.8-1.2,3.7-2.4,5.7-3.4
		c2-1,3.9-2.1,6.1-2.7c2.7-0.7,5.7-0.8,8.5-1.2c1.1-0.1,2.2-0.1,3.3-0.2c2,0,4.1-0.1,5.9,0.8c1.8,0.9,3.5,1.9,5.2,3
		C88.5,39.9,89.8,40.9,90.5,42.1z"/>
	<path class="st3" d="M95.5,95.4c-0.2,0.3-0.3,0.6-0.5,0.9c-1.4,2.7-3.4,5.5-6.8,3.9c-2.1-0.9-3.6-2.7-5.4-3.9
		c0.9-0.2,1.8-0.3,2.7-0.4c2.2-0.4,4.4-0.4,6.6-0.4C93.2,95.4,94.3,95.4,95.5,95.4z"/>
	<path class="st3" d="M114.1,93.3c-0.7,0.9-1.4,1.8-2.1,2.6c-2.1,2.3-4.9,4.5-7.9,2.3c-1.4-1-2.9-2-4.2-3c0.6,0,1.2-0.1,1.9-0.2
		c2.3-0.3,4.7-0.4,7-0.7C110.5,94.1,112.3,93.8,114.1,93.3z"/>
	<path class="st3" d="M133.7,89.5C133.7,89.5,133.7,89.5,133.7,89.5c-1,1.3-1.8,2.6-2.7,3.9c-0.9,1.5-2.3,3.4-4.3,2.6
		c-1.5-0.4-2.8-1.1-4.1-1.9c-0.8-0.5-2.1-1.5-3.4-2.3c3.6-0.8,7.2-1,10.8-1.7C131.3,89.9,132.5,89.7,133.7,89.5z"/>
	<path class="st3" d="M153.8,87.2c-0.4,0.5-0.7,1.1-0.9,1.4c-0.5,0.7-1.1,1.5-1.7,2.1c-0.8,0.8-1.5,2.1-2.5,2.8
		c-0.8,0.2-1.5-0.1-2.3-0.2c-2.1-0.5-3.9-1.8-5.7-3c-0.8-0.5-1.7-0.9-2.5-1.4c4.6-0.6,9.2-1,13.7-1.5
		C152.5,87.3,153.2,87.2,153.8,87.2z"/>
	<path class="st3" d="M166.4,85.3c0.2,0,0.4-0.1,0.7-0.1c-0.2,0.3-0.3,0.6-0.5,1c-0.4,0.8-0.9,1.6-1.4,2.3c-0.2,0.4-0.6,0.7-0.8,1.1
		c-1.7,0.6-2.9,0.9-3.8,1.7c-1.3-1.2-2.8-2.2-4.2-3.4c-0.2-0.2-0.6-0.5-0.9-0.7c0,0,0-0.1,0-0.1c1.6-0.1,3.1-0.3,4.6-0.6
		C162.3,86.1,164.3,85.6,166.4,85.3z"/>
	<path class="st3" d="M85.5,44.7c1,1.1,1,3.4-0.8,3.5c-1.2,0-2.8-0.8-3.1-2c-0.1-1.1,1.4-2,2.1-2.7c0.2,0.4,0.7,0.4,1.1,0.5
		C85,44.3,85.3,44.5,85.5,44.7z"/>
	<path class="st3" d="M147.3,41.9c0.3,1.1,0.5,2.4,0.5,3.7c-0.2-0.5-0.5-1-0.6-1.4c-0.7-1.4-1.7-2.6-2.9-3.6
		c-1.9-1.5-4.3-2.6-6.7-2.9c-2.6-0.2-5.2,0.4-7.5,1.6c-1.5,0.8-2.8,1.7-4.1,2.8c-2.1,1.6-3.7,3.7-4.7,6.1c-0.3,0.8-0.6,1.6-0.8,2.4
		c-0.1,0.4-0.2,0.7-0.2,1.1c-1.4-0.2-2.7-0.5-4.1-0.7c-1.9-0.4-3.8-0.6-5.7-1.3c-1.1-0.5-2.1-1.4-2.8-2.4c2.8-2.5,6.2-3.9,9.4-5.6
		c1.4-0.8,2.5-1.7,3.9-2.4c1.8-1,3.7-1.8,5.7-2.4c2-0.5,4-0.6,6.1-0.7c2.8,0,5.5,0.5,8.2,1.2C143.4,38,146.4,39.3,147.3,41.9z"/>
	<path class="st3" d="M141.3,44.9c1.3,1.4-0.2,3.6-1.9,3.6c-1.3,0.1-2.7-0.9-2.8-2.2c0-1.5,1.7-2.2,2.9-2.5c0.1,0.2,0.3,0.4,0.5,0.4
		C140.5,44.3,141,44.4,141.3,44.9z"/>
	<path d="M143.6,73.1c0.3,0.5,0,1.3-0.5,1.4c-0.3,0.2-0.7,0.3-1,0.3c-1.2-0.2-2.4-0.5-3.7-0.7c-1.6-0.3-3.8-0.7-4.2-2.5
		c-0.2-0.7,0.1-1.8,1-1.8c1.3-1.1,5.5,0.4,6.8,1.3C142.8,71.6,143.2,72.3,143.6,73.1z"/>
	<path d="M168.5,62.6c0.7,1.5-0.4,3-1.1,4.3c-1,1.4-2.4,3.6-4.4,3.2c-1.9-0.7-1-3.3-0.3-4.6c0.7-1.3,2.2-4.9,4.1-3.7
		C167.4,61.6,168.2,61.9,168.5,62.6z"/>
	<path d="M194.1,100.2c-1.9-0.2-3.7-1-5.6-1.5c-3.1-0.7-6.2-1.3-9.3-1.9c-3.1-0.5-6.4-0.5-9.4-1.6c-0.6-0.2-1.1-0.4-1.7-0.6
		c-0.4-0.1-0.5-0.5-0.5-0.9c0-0.4,0.4-0.8,0.8-0.7c1.2,0.2,2.3,0.5,3.5,0.8c2.2,0.6,4.5,0.7,6.8,1c2.4,0.3,4.7,0.9,7.1,1.3
		c1.6,0.3,3.1,0.6,4.6,1c1.3,0.3,2.7,1,4.1,0.9c1-0.8,1.7-1.9,2.6-2.9c1.5-1.7,2.8-3.6,4.4-5.2c1.7-1.7,3.5-3.1,5.5-4.5
		c2-1.4,4.1-2.7,6.2-4c3.2-1.7,6.6-3.3,9.5-5.5c0.7-0.4,1.9-1.7,2.6-1.2c0.3,0.2,0.4,0.6,0.2,1c-0.1,0.2-0.3,0.4-0.5,0.5
		c-0.5,0.4-1,0.7-1.5,1.1c-2.9,2.3-6.2,3.9-9.4,5.7c-2.3,1.3-4.5,2.8-6.7,4.4c-2.3,1.6-4.4,3.5-6.2,5.6c-1.3,1.5-2.4,2.8-3.6,4.3
		C196.7,98.6,195.8,100.4,194.1,100.2z"/>
	<path d="M196,146.1c0-3.2,0.3-6.4,0.3-9.6c0.1-5.4-0.6-10.8-1-16.3c-0.2-3.2-0.3-6.4-0.4-9.7c-0.1-2.1-0.4-4.1-0.5-6.2
		c0-0.6,0.1-1.5,0.8-1.6c0.5,0,0.8,0.6,0.5,1c0,1.7,0.4,3.5,0.5,5.2c0.3,3.8,0.4,7.7,0.7,11.5c0.3,3.3,0.7,6.6,0.8,10
		c0.3,4.5,0.1,8.9-0.1,13.4c-0.1,0.8,0.1,3-0.9,3C196.3,147,196,146.5,196,146.1z"/>
	<path d="M194.2,173c0.9-0.2,1.2-1.5,0.9-2.3c-0.1-0.6-0.8-0.9-0.9-1.5c-0.7,0.5-1.6,1.3-1.5,2.2C192.9,172.2,193.4,173,194.2,173z
		 M193.5,174.7c-1.6-0.6-2.7-2.5-2.3-4.1c0.1-1,2.6-4.1,3.4-2.3c0.6-0.4,1.3,0.4,1.6,0.9c0.5,0.9,0.7,2.1,0.4,3.2
		C196.2,173.7,195,175.2,193.5,174.7z"/>
	<path d="M207.4,165.2c0.7,0,1.2-0.8,0.5-1.3c-0.3-0.3-0.8-0.4-1.2-0.7c-0.3,0.3-0.7,0.6-0.8,1C206.1,164.8,206.8,165.2,207.4,165.2
		z M204.4,163.9c0-1.1,1.7-3,2.8-2.5c1.8,0,3.2,2.4,2.4,4C208.2,168.3,204.3,166.8,204.4,163.9z"/>
	<path d="M219.1,160.9c0.1,0,0.2,0,0.3-0.1c0,0,0,0-0.1,0c0,0,0,0-0.1,0c1.4-0.5,0.4-1.6-0.6-1.8c0,0.2-0.1,0.4-0.3,0.4
		c0,0-0.1,0-0.1,0C217.9,160.3,218.2,160.9,219.1,160.9z M218.1,162.7c-1.8-0.6-2.1-3-1.2-4.5c0-0.5,0.4-0.9,0.9-1
		c1.4-0.5,3,0.7,3.6,2C222.3,161.1,220.2,163.4,218.1,162.7z"/>
	<path d="M210.2,177.3c-1.8-0.4-2.4-2.8-1.4-4.2c0.4-0.6,1.1-1.1,1.8-0.9c1.5,0.2,2.8,1.8,2.3,3.4
		C212.7,176.7,211.4,177.6,210.2,177.3z"/>
	<path d="M192.6,184.6c-2.2-0.6-0.9-4,1.1-3c0.7,0.4,0.9,1.4,0.5,2.1c-0.2,0.3-0.4,0.6-0.8,0.7C193.3,184.6,192.9,184.7,192.6,184.6
		z"/>
	<path d="M198.7,179.9c0-1.2,1.6-1.2,1.6,0C200.4,181.1,198.7,181.1,198.7,179.9z"/>
	<path d="M184.7,163c0-1.3,1.7-1.3,1.7,0C186.4,164.2,184.6,164.2,184.7,163z"/>
	<path d="M173.2,162c-0.4-0.5-0.4-1.3,0.1-1.6c0.2-0.3,0.7-0.4,1-0.2C175.5,160.9,174.4,163.1,173.2,162z"/>
	<path d="M193.5,194c-1-0.1-1.2-1.5-0.5-2.1c0.1-0.1,0.2-0.2,0.3-0.3c0.7-0.5,1.4,0.3,1.4,1.1C194.7,193.4,194.2,194.1,193.5,194z"
		/>
	<path d="M224.7,154.6c-1.2-0.7-0.9-2.5-0.2-3.4c0.2-0.2,0.4-0.5,0.8-0.6c0.3,0,0.7,0,1,0.1C228.4,151.5,226.8,155.6,224.7,154.6z"
		/>
	<path d="M193.6,174.6c-1.9-0.8-2-3.9-0.8-5.3c0.6-0.6,1.5,0,1.3,0.8C197.3,169.6,196.4,175.3,193.6,174.6z"/>
	<path d="M206,165.7c-0.7-0.7-0.9-1.9-0.4-2.8c0.3-0.7,1.2-0.9,1.6-0.2c1.2-0.3,2,1,1.7,2.1C208.6,166,206.8,166.8,206,165.7z"/>
	<path d="M192.6,172.1c-0.8-1,0.3-2.5,1.5-2.2c0.6-1.4,2.1-0.5,1.8,0.7c-0.1,0.5-0.6,1.2-1.2,1.2c-0.4,0.1-0.7-0.1-1-0.1
		C193.8,172.3,193,172.5,192.6,172.1z"/>
	<path d="M235.3,107.1c0.1,1.6,0.1,3.3-0.1,4.9c-0.4,3.2-1.6,6.3-3,9.2c-0.3,0.6-0.6,1.1-0.9,1.7c-0.4,0.6-1,2.3-1.8,2.3
		c0,2.8-0.1,5.7,0.1,8.5c0.1,1.4,0.2,2.9-0.3,4.3c-0.2,0.5-0.4,1-0.7,1.5c-0.1,0.2-0.3,0.3-0.5,0.4c-0.4,0.1-0.7-0.1-1-0.2
		c-0.6,1.4-0.4,7.1-3,5.7c-0.9-0.7-1.5-1.7-2.3-2.5c-0.4,1.2-0.6,2.5-1,3.8c-0.2,0.8-0.5,1.9-1.5,1.9c-1-0.1-1.5-1.2-2.2-1.8
		c-0.6,1.3-1,2.6-1.3,3.9c-0.3,1.1-0.8,3.8-2.5,2.8c-1-0.9-1.6-2.1-2.6-3c-1.1,1.8-1.3,4-2.1,6c-0.2,0.7-1.1,1.5-1.8,0.9
		c-0.6-0.5-0.9-1.4-1.3-2.1c-0.6,1.6-2.2,7.8-4.7,5.4c-0.3-0.3-0.5-0.6-0.8-0.9c-0.4-0.5-0.9-1-1.3-1.5c-0.3,0.4-0.5,0.9-0.7,1.4
		c0.1,0.2,0.2,0.5,0.1,0.8c-0.2,1-0.9,2.2-2,1.4c-0.7-0.3-1.9-3.6-2.6-3.1c-0.8,0.6-1.7,1.4-2.7,0.9c-0.9-0.3-1.6-1.5-2.6-1.5
		c-0.9,0.3-1.7,1.2-2.7,1.2c-1.5-0.1-2.1-2.2-3-3.1c-0.4,0.3-0.7,0.8-1.1,1.1c-0.5,0.5-1,1.2-1.7,1.1c-0.9-0.1-1.5-0.8-2.2-1.3
		c-0.9-0.8-1.7-1.6-2.7-2.3c-1,0.7-1.5,1.9-2.5,2.5c-1.3,0.6-2.2-1.5-2.9-2.3c-0.6-0.8-1.1-1.7-1.9-2.3c-0.4-0.1-0.8,0.1-1.2,0.3
		c-0.9,0.4-1.8,1-2.7,1.5c-0.8,0.4-1.2-0.6-1.5-1.2c-0.8-1.9-0.8-4-0.9-6c-0.1-0.9-0.1-1.9-0.2-2.8c-0.7,0.3-1.4,0.6-2.1,0.9
		c-2.2,0.8-4.4,1.6-6.7,2.4c-1.6,0.4-3.1,0.6-4.7,1c-1.4,0.3-2.7,0.6-4.1,1c-0.1,0-0.1,0-0.2,0c1.1,1.7,2.3,3.3,3.1,5.2
		c1.4,3,2.6,6.1,3.7,9.2c1.9,4.7,2.9,9.7,3,14.8c0.1,2.4-0.2,4.8-0.7,7.1c-0.1,0.3-0.2,0.8-0.3,1.3c1,0.2,2,0.3,3,0.4
		c0.4-1.5,0.4-3.1,0.7-4.6c0.2-1.5,0.4-3,0.5-4.5c0.2-2.3,0-4.6,0.2-6.9c0.1-1.3,0.9-8,3.2-5.5c0.5,0.7,0.7,1.6,1.1,2.4
		c0.8,2.3,1.8,4.6,2.6,6.9c0.8-4.2,2.8-8,4.7-11.8c0.3-0.6,0.7-1.8,1.6-1.3c0.4,0.2,0.6,0.7,0.7,1.2c0.2,0.8,0.4,1.6,0.6,2.4
		c0.4,1.9,0.9,3.9,1.4,5.8c0.1,0.1,0.2,0.3,0.2,0.5c0,0.1,0,0.1,0,0.2c0.2,1,0.4,1.9,0.6,2.9c1.5-3.8,3.5-7.6,6.3-10.7
		c0.5-0.5,0.9-1.4,1.7-1.3c1.3,0.2,1.3,2.6,1.5,3.7c0.6,4.9,0.8,9.9,0.4,14.9c-0.6,6.6-1.3,13.1-2.3,19.7c-0.6,3.1-0.7,6.4-1.6,9.5
		c-0.7,2.9-3.4,3-5.9,3.5c-2.5,0.5-5,0.9-7.5,0.8c-1.7,0-3.5-0.1-5.2-0.3c-1.6-0.1-3.1-0.6-4.6-0.7c-1.5-0.1-2.9,0.1-4.4,0.3
		c-2.4,0.3-4.8,0.3-7.2,0c-1.1-0.2-2.2-0.3-3.3-0.4c-1.4-0.1-2.9,0-4.1-0.7c-0.3-0.1-0.4-0.4-0.4-0.7c-0.2,0.3-0.3,0.7-0.5,1
		c-1.5,2.6-3.9,3.4-6.7,3.7c-4.1,0.7-8.3,0.7-12.5,0.5c-2.5,0-5.1-0.5-7.6-0.7c-4.8-0.4-9.6-0.1-14.5-0.2c-1.7,0-3.3-0.5-4.9-0.9
		c-1.8-0.4-3.6-0.7-5.4-1c-1-0.1-1.9,0.1-2.8,0.3c-1.2,0.2-2.2,0.3-3.4,0.3c-0.2,0-0.3-0.1-0.4-0.2c-2.6,0.7-5.2,1-7.8,1.4
		c-6.4,1.1-12.9,1.3-19.4,1.2c-2.8,0-5.6,0-8.3,0c-2.8,0.1-5.5,0.2-8.3,0.1c-5.6-0.3-11.1,0-16.7-0.1C13,218.5,6.9,219.1,5,215
		c-0.9-1.9,0.3-3.4,1.6-4.7c2.9-3.2,6.8-5.4,10.1-8.2c2.3-2.3,5.3-3.8,7.9-5.7c1.1-0.9,2.1-1.8,3.2-2.7c1.7-1.5,3.6-2.8,5.3-4.2
		c1.1-0.9,1.7-1.8,2.1-2.9c-0.2,0.1-0.5,0.1-0.8-0.1c-2.2-2.1-7.7-5-7-8.5c0.4-1.1,1.3-1.8,2.1-2.6c0.6-0.6,1.2-1.2,1.9-1.7
		c2.1-1.7,4.3-3.4,6.4-5.2c0-0.1,0-0.2,0-0.3c0-0.2,0-0.3,0.1-0.5c-0.4-0.6-1-1-1.4-1.6c-1.1-1.3-2.1-2.6-3.4-3.7
		c-1.2-1.1-3.8-2.5-2.6-4.5c0.5-0.6,1.2-1.1,1.8-1.7c1.2-1.1,2.3-2.3,3.4-3.5c1.3-1.5,2.8-2.7,4.3-4.1c-1.9-2.7-3.9-5.3-5.3-8.2
		c-0.5-0.9-0.8-2.1-0.3-3c0.5-0.9,1.1-1.7,1.9-2.4c1.9-1.8,4.6-2.1,6.7-3.5c0,0,0,0,0,0c0.1-0.4,0.2-0.8,0.3-1.1
		c-3.6-0.2-7.2,0-10.7-0.6c-4.8-0.8-9-3.3-13.2-5.6c-2.1-1-4.4-1.9-6.3-3.3c-2.6-1.8-4.8-4.1-6.6-6.6c-3.7-5.4-5.8-11.8-6.4-18.3
		c-0.2-3.9,0.3-7.8,1.1-11.6c0.7-3.9,2-7.7,4.4-11c1.3-1.9,2.9-3.6,4.3-5.4c1-1.2,1.7-2.6,2.8-3.8c0.4-0.4,1.4-1.4,2.2-1.9
		c-0.1-0.7-0.1-1.5-0.2-2.3c-0.1-1.3-0.1-2.6-0.2-3.9c0,0,0,0,0,0.1c-0.4-5.1-0.4-10.2,0-15.3c0.2-3.4,0.8-6.8,1.7-10.2
		c0.4-1.7,0.9-3.3,1.5-4.9c0.9-2.4,2.2-4.6,3.6-6.7c1.5-2,3-4.1,4.9-5.9c1.3-1.2,2.7-2.1,4.1-3c1.4-0.9,2.8-1.9,4.2-2.7
		c2.2-1.3,4.6-2,6.9-2.8c2.3-0.8,4.7-1.6,7.2-2c1.6-0.3,3.3-0.5,4.9-0.5c2.5,0.1,4.9,0.5,7.3,1c3.2,0.9,6.4,1.9,9.3,3.4
		c2.4,1.5,4.1,4,5.6,6.5c0.9-0.5,2.4-0.7,3-1c0.9-0.2,1.9-0.5,2.8-0.8c1.6-0.4,3.2-0.5,4.8-0.7c1.6-0.2,3.3-0.4,4.9-0.3
		c1.2,0.1,2.3,0.1,3.5,0.3c0.1-0.1,0.2-0.2,0.2-0.3c1.3-1.7,2.8-3.2,4.2-4.7c1.8-1.8,4.2-2.8,6.6-3.6c1.6-0.6,3.1-1.2,4.8-1.5
		c3.3-0.6,6.8,0.3,9.8,1.8c2.1,1.2,4.4,2.1,6.3,3.6c1.9,1.6,2.8,4,3.9,6.2c1.2,2.5,1.9,4.8,2.6,7.3c0.3,0.9,0.6,1.9,0.8,2.8
		c0,0.1,0,0.1,0,0.2c1,0.3,2.1,0.7,3,1.4c0.8,0.5,2.9,2.4,3.1,3.7c1.5,0.9,3,2.1,4.2,3.4c1,1.2,1.8,2.6,2.3,4c0.2,0.8,1.1,3,0.8,4
		c0.7,0.7,1.3,1.6,1.6,2.6c0.6,2.4,0.9,5.2,0,7.5c0,1.2,0.1,2.3,0,3.4c0.4-0.2,0.9-0.4,1.3-0.5c3-1,5.9-1.7,9.1-2
		c2.1-0.2,4.3-0.4,6.4,0.1c5.2,1.3,9.8,5.2,11.6,10.3c0.8,2,1,4.1,1.2,6.2c0.2,2.1,0.3,4.2,0.3,6.3c0,2.5,0.2,5.3-1.2,7.6
		c-0.9,1.4-2.4,2.2-3.8,2.9c0.1,0.2,0.1,0.3,0.1,0.5c0.1,0.5,0.3,1,0.4,1.5c2.1-1.2,4.1-2.5,6.2-3.7c1.7-0.9,3.4-2,4.8-3.3
		c2.4-2.2,4.6-4.6,6.9-6.8c1.4-1.4,3-2.8,4.3-4.3c1.3-1.5,2.3-3.2,3.4-4.9c0.7-1,1.3-2.2,2.4-2.8c1.4-0.8,3-0.3,4.4,0.1
		c2.8,0.9,5,2.9,7.4,4.5c1.9,1.2,4,2,6.1,2.9c1.9,0.8,3.6,1.9,5.5,2.8c0.9,0.4,1.9,0.8,2.8,1.2c0.7,0.2,1.5,0.7,1.3,1.6
		c0,0.1,0,0.1-0.1,0.2c0.1,0.2,0.1,0.4,0.1,0.7c0.3,4.2,0.3,8.6,0.7,12.7c0.2,3.1,0.3,6.1,0.3,9.2c0,0.3,0,0.6-0.1,0.8
		c1.1,1.2,2,2.4,2.8,3.8C234.9,102,235.1,104.6,235.3,107.1z M233.5,110.9c0.1-2.8,0-5.7-0.7-8.5c-0.9-2.6-3.3-5.4-5.5-7
		c-2-1.2-4.4-1.7-6.7-1.8c0.8,2.2,2.7,3.7,4.4,5.3c0.8,0.7,2.3,1.8,1.3,2.9c-0.4,0.4-0.9,0.3-1.3,0.2c-2-0.1-4.1-0.4-6.1-0.2
		c1.3,2.5,3.6,4.4,5.6,6.3c0.7,0.6,1.4,1.1,1.9,1.9c0.4,0.6,0.4,1.5-0.3,1.9c-0.4,0.3-1,0.2-1.5,0.2c-2.1,0-4.3,0-6.4,0.4
		c0.9,1.8,2,3.6,3.2,5.2c2.1,2.3,4.6,3.9,7.1,5.6c0.1,0,0.2,0,0.3,0c1.5-2.4,2.7-5.1,3.6-7.7C233,114.2,233.4,112.6,233.5,110.9z
		 M229.1,94.3c0-0.2,0-0.5,0-0.7c0-2.3-0.1-4.5-0.3-6.8c-0.2-3.4-0.4-6.7-0.5-10.1c0-1.2-0.2-2.5-0.1-3.7c0-0.1,0-0.1,0-0.2
		c-0.1-0.1-0.3-0.1-0.4-0.2c-1.1-0.5-2.2-0.9-3.3-1.4c-1.8-0.8-3.4-1.8-5.2-2.6c-1.5-0.6-3-1.2-4.4-2c-2.7-1.3-4.8-3.6-7.5-4.8
		c-1-0.4-2.1-0.8-3.2-1c-0.8-0.1-1.4,0.2-1.9,0.8c-1.6,1.9-2.6,4.2-4.2,6.1c-1.5,1.9-3.3,3.6-5.1,5.3c-1.8,1.7-3.4,3.5-5.2,5.2
		c-1.2,1.2-2.5,2.3-3.9,3.3c-1.4,1-2.8,1.7-4.3,2.5c-1.7,1-3.4,2-5.1,3.1c-0.1,0.4-0.6,0.7-0.9,0.6c-0.1,0.1-0.3,0.2-0.4,0.2
		c-3.4,2-7.3,3.2-10.9,4.6c-0.3,0.1-0.6,0.3-0.8,0.5c-0.2,0.2-0.2,0.5-0.3,0.8c-0.1,0.8-0.2,1.5-0.3,2.3c-0.1,1.2-0.1,2.3-0.1,3.5
		c1.2-0.8,2.4-1.6,3.7-2.1c1.9-0.5,2.2,1.8,1.7,3.1c-0.7,2.7-2.1,5-3.5,7.4c2.4-1.1,4.7-2.2,7.1-3.2c0.7-0.3,1.5-0.6,2.2-0.9
		c0.5-0.2,1.1-0.5,1.7-0.2c2.5,1.2-1.4,7.6-2.4,9.2c1.3-0.9,4-3.4,5.4-1.7c0.6,0.8,0.6,1.9,0.5,2.9c-0.3,2.2-1.4,4.2-2.6,6
		c-1.9,3-4.7,5.2-7.5,7.3c-1.8,1.4-3.6,2.8-5.4,4.2c0.1,0.1,0.1,0.3,0.1,0.5c0.1,3,0.3,5.9,0.4,8.9c0,0.8,0.1,1.6,0.1,2.4
		c0,0,0,0,0,0c0,0.1,0,0.2,0,0.3c0.1,1.4,0.2,2.8,0.3,4.2c0.1,1.7,0.1,3.5,0.8,5.1c1.3-0.6,2.8-1.9,4.4-1.5c0.6,0.2,1,0.7,1.4,1.2
		c0.9,1.1,1.6,2.3,2.5,3.4c0.7-0.7,1.2-1.5,1.9-2.1c0.3-0.2,0.5-0.4,0.9-0.5c0.9-0.1,1.6,0.8,2.2,1.2c1,0.8,1.8,1.8,3,2.3
		c2.3-2.4,2.9-3.7,5-0.2c0.2,0.3,0.4,0.6,0.7,0.9c0.1,0.1,0.1,0.2,0.2,0.1c1.8-0.9,2.6-2,4.6-0.5c0.3,0.3,0.7,0.5,1,0.8
		c0.1,0.1,0.3,0.2,0.5,0.1c0.4-0.2,0.8-0.6,1.2-0.9c1.7-1,2.8,1.1,3.6,2.3c0,0,0,0,0,0c0.3-0.7,0.5-1.3,0.8-2c1.4-3,3.3,0.6,4.7,1.7
		c1.1-1.5,1.6-3.4,2.1-5.1c0.2-0.7,0.4-1.9,1.4-1.8c0.6,0.1,0.8,0.7,1.1,1.1c0.3,0.5,0.6,1,0.8,1.6c0.6-1.6,1.3-6.3,3.1-6.7
		c1.3-0.1,2.6,2.2,3.4,3.1c0.8-2,1.1-4.2,2.2-6.1c1.1-1.7,2.3,0.2,3.2,1.1c0.5-1.5,0.8-3,1.2-4.5c0.2-0.8,0.8-1.6,1.7-1.1
		c1.1,0.6,1.7,1.7,2.6,2.5c0.4-1.5,0.4-3,0.9-4.5c0.3-0.9,1-1.4,1.9-1.1c0.7-1.2,0.5-2.7,0.5-4c0-0.9-0.1-1.7-0.1-2.6
		c-0.1-2-0.1-4.1,0-6.1c-0.1-0.1-0.3-0.2-0.4-0.2c-4.4-2.9-7.2-4.9-9.8-9.6c-0.8-1.4-2.3-3.7,0-4.5c2-0.6,4.2-0.5,6.2-0.5
		c-2.5-2.3-5.1-4.5-6.6-7.5c-1.9-3.8,4.2-2.7,6.2-2.7c-1.3-1.2-2.5-2.4-3.5-3.9c-1.5-2.3-2.1-4.8,1.6-4.4c2.5,0.2,5.1,0.8,7.1,2.4
		C228.9,94.2,229,94.2,229.1,94.3z M181.1,180.8c0.1-2,0.1-4,0.1-6c-0.5-0.1-1-0.4-1.5-0.5c-1-0.3-2.1-0.6-3.1-1
		c-0.4-0.1-0.7-0.4-0.9-0.7c-0.1,0.2-0.2,0.5-0.3,0.7c-0.6,1.3-1.1,2.6-1.7,3.9c-0.2,0.6-0.9,1.3-1.5,0.8c-0.4-0.3-0.5-0.8-0.6-1.2
		c-0.3-1.1-0.5-2.3-0.7-3.4c-0.1,0-0.2,0-0.4,0c-0.4,0-0.9,0-1.3,0c-1,0-2,0.1-2.9,0.2c-0.4,0-0.8,0.1-1.2,0.1
		c-0.2,0.7-0.4,1.5-0.6,2.3c-0.2,1-0.3,1.9-0.3,2.9c0,0.7,0.1,2.3-1.1,2c-0.5-0.2-0.6-0.8-0.7-1.2c-0.2-0.8-0.4-1.6-0.6-2.5
		c-1,0.2-2.2,0.1-3.2,0.3c-0.3,0-0.7,0.1-1.1,0.1c0,1.5-0.2,2.9-0.4,4.4c-0.2,1.6-0.4,3.2-0.6,4.8c-0.2,1.2-0.3,3.3-1.9,3.1
		c-1.2-0.1-2.4-0.2-3.5-0.6c-0.2,1-0.6,2.1-0.8,2.7c-0.6,1.5-1.2,2.9-2,4.2c-1.2,2.1-2.9,3.9-4.5,5.7c-1.5,1.7-2.6,3.8-4,5.6
		c-0.5,0.5-1.5,2.2-2.4,2.4c0,0,0,0.1,0,0.1c-0.3,0.8-0.6,1.6-0.9,2.4c0.2-0.1,0.3-0.1,0.6,0c0.5,0.2,1,0.5,1.5,0.5
		c1.1,0,2.1,0,3.2,0.2c2.1,0.2,3.9,0.6,5.9,0.5c2.4,0,4.7-0.5,7.1-0.6c1.6,0,3.3,0.4,4.9,0.6c1.4,0.1,2.9,0.2,4.3,0.2
		c2.6,0.2,5.3,0,7.9-0.6c1.4-0.3,2.8-0.4,4.2-0.9c1.1-0.5,1.2-1.9,1.4-2.9c0.3-1.5,0.4-3,0.6-4.5c0.5-3.2,1-6.5,1.4-9.7
		C180.2,190.2,180.8,185.5,181.1,180.8z M181.1,173c-0.1-2.4-0.3-4.7-0.8-7c-1.6,1.7-3,3.5-4.1,5.6c0,0,0.1,0,0.1,0
		c0.5,0.2,1.2,0.3,1.7,0.5c0.7,0.2,1.3,0.4,1.9,0.5C180.2,172.7,180.7,172.8,181.1,173z M176.8,77.3c0.3-1.7,0.3-3.5,0.2-5.2
		c-0.2-4.7,0-9.7-2.6-13.8c-2.4-3.6-6.2-6.3-10.5-6.8c-4.8-0.2-9.7,0.7-14.3,2.2c-0.3,0.1-0.7,0.2-1,0.4c0,0,0,0,0,0
		c-0.4,1.4-1.3,2.6-3,3.6c-2.1,1.3-4.5,2.2-6.8,3.1c-2.9,1-6.1,1.1-9.1,1c-3-0.3-5.9-1.1-8.9-1.7c-2.9-0.5-5.9-0.8-8.4-2.5
		c-0.7-0.4-0.4-1.8,0.5-1.5c1.3,0.4,2.5,1,3.8,1.4c2.9,0.6,5.8,1,8.7,1.7c1.4,0.2,2.7,0.5,4.1,0.7c2.7,0.2,5.4,0,8-0.6
		c1.6-0.5,3.3-1.3,4.8-1.9c1.4-0.6,2.7-1.3,3.8-2.3c1.2-0.9,1.5-2.6,1.5-3.9c-2,1.9-5.8,2.4-8.3,3c-3.1,0.6-6.4,0.7-9.6,0.6
		c-2.9-0.2-5.9-0.6-8.8-0.9c-1.6-0.3-3.2-0.6-4.7-0.8c-2.3-0.5-4.8-0.6-6.9-1.8c-1-0.7-4.3-3-2.6-4.3c0.2-0.9,1.1-1.4,1.7-1.9
		c2.6-2.2,5.8-3.5,8.7-5.2c4-2.8,8.6-5.2,13.7-5.4c3.2-0.3,6.5,0.1,9.6,0.9c1.6,0.4,3.2,0.8,4.6,1.6c0.3,0.2,0.6,0.4,0.9,0.6
		c-0.4-1.7-1-4.3-3.4-6.3c-3.7-3.4-7.3-4.3-12.3-3.4c-2.9,0.6-5.6,1.5-8.4,2.7c-1.8,0.7-3.6,1.4-5.3,2.4c-2.7,1.6-5.2,3.4-7.6,5.4
		c-1,0.9-4,3.7-5.2,3.5c-0.3-0.1-0.4-0.6-0.3-0.9c0-0.1,0.1-0.2,0.2-0.3c0,0,0,0,0,0c2.4-1.4,4.3-3.6,6.4-5.4c2.5-2,5.2-3.9,8.1-5.2
		c6-2.5,12.7-5.8,19.2-4c-0.6-0.6-1.4-1.1-2.2-1.5c-2.7-1.1-5.7-1-8.5-0.4c-1.8,0.4-3.7,0.8-5.4,1.5c-2.8,1.3-5.3,3.2-8.1,4.6
		c-1.8,1-3.4,2.1-5,3.3c-0.8,0.6-1.7,1.3-2.5,1.9c-0.2,0.2-0.5,0.3-0.7,0.1c-1-0.9,1.2-2.1,1.7-2.7c1.8-1.5,3.7-3,5.8-4.1
		c1.4-0.8,2.8-1.5,4.1-2.4c1.7-1.2,3.6-2.3,5.6-3c3.2-1,6.8-1.9,10.1-1.5c-1-3.2-1.9-6.5-3.3-9.4c-0.9-1.8-1.6-3.7-3.1-5.1
		c-1.1-0.9-2.5-1.6-3.7-2.3c-2.6-1.5-5.3-2.7-8.3-2.9c-2.4-0.2-4.8,0.6-7,1.4c-1,0.4-2.1,0.7-3.1,1.1c-1.1,0.5-2.1,1.1-3,1.9
		C99.6,7.3,98.8,8.2,98,9c-0.5,0.5-1,1.1-1.5,1.6c1.5,0.3,3,0.8,4.3,1.5c2.3,1.2,4.6,2.2,6.9,3.4c0.7,0.4,0.4,1.8-0.5,1.5
		c-2.7-0.9-5.3-2.3-7.9-3.5c-2.9-1.2-6.1-1.6-9.2-1.6c-2.5,0.1-4.8,0.3-7.2,0.6c-2.1,0.4-4.2,0.9-6.3,1.3c0,0-0.1,0-0.1,0
		c1,2,2.1,4,2.9,6.1c0.2,0.5,0.4,1.3-0.1,1.7c0.6,0.2,1.2,0.5,1.8,0.8c1,0.7,1.7,1.6,2.5,2.4c0.4,0.6,1.2,1.3,1.3,2.1
		c1,0.6,1.9,1.3,2.7,2.1c1.2,1.1,2.2,2.4,2.8,3.9c0.5,1.2,0.8,2.5,1,3.8c0.1,1.3,0.5,2.5,0.4,3.8c0,0,0,0,0,0
		c1.1,1.7,1.7,3.7,1.4,5.8c-0.2,1.3-0.5,2.5-1.1,3.7c0,1.4-0.1,2.8-0.7,4.1c-0.4,0.8-0.7,1.7-1.2,2.4c-0.5,0.7-1.2,1.3-1.9,1.8
		c-1.2,0.9-2.5,1.6-3.9,2.3c-1.3,0.7-2.7,1.4-4.2,1.8c-2.3,0.5-4.7,0.6-7.1,0.7c-1.9,0-3.8-0.1-5.7-0.1c-0.2,0.7-1.3,1.1-1.8,1.6
		c-0.5,0.4-1,0.8-1.5,1.2c-1.1,1-2.2,2-3.5,2.8c-1.5,0.9-3.2,1.7-4.7,2.4c-0.6,0.3-1.2,0.5-1.8,0.8c-0.2,0.2-0.4,0.3-0.7,0.1
		c0,0,0,0,0,0c-0.7-0.7,0.2-1.4,0.8-1.7c0.7-0.4,1.4-0.7,2.1-1.1c1.1-0.6,2.2-1.2,3.2-1.8c1.9-1.3,3.5-3,5.3-4.4
		c-1.2,0-2.5,0-3.7-0.1c-3.4-0.4-6.8-1.1-10-2.3c-0.7-0.2-1.2-0.9-0.5-1.4c0.2-0.2,0.6,0,0.8,0c1,0.2,1.8,0.5,2.7,0.7
		c2.3,0.6,4.6,1.1,7,1.3c3.1,0.1,6.2-0.1,9.3-0.1c4,0,8.3,0.3,12-1.6c2.2-1.1,4.6-2.1,6.3-4c0.7-1.1,1.3-2.3,1.7-3.6
		c0-0.1,0-0.1,0-0.2c-1.7,1.1-4.2,1.2-6.1,1.7c-2.5,0.3-5.1,0.8-7.6,1c-3.2,0.3-6.4,0.3-9.7,0.3c-2.5,0-5.1-0.3-7.6-0.4
		c-1.1-0.1-2.2-0.2-3.3-0.3c-1.6-0.1-3.2-0.2-4.8-0.5c-2.1-0.4-10.6-2.4-9-5.4c-1.1-1,1.1-2.2,1.8-2.8c2-1.5,4.2-2.4,6.4-3.5
		c2.1-1,3.9-2.6,6-3.6c2.2-1.1,4.3-2.4,6.7-3.2c1.6-0.5,3.2-0.8,4.9-1c1.7-0.2,3.3-0.4,5-0.6c2.4-0.1,4.9-0.3,7.3,0.1
		c1.6,0.3,3.1,1.2,4.5,1.9c1.4,0.8,2.8,1.6,4.2,2.6c0.3,0.2,0.5,0.4,0.7,0.6c-0.3-2.1-0.5-4.2-1.7-5.9c-4.9-6.8-14.9-8.2-22.5-6.1
		c-4.5,1-8.6,3.4-12.7,5.4c-2.2,1.3-4.6,2.4-6.8,3.7c-2.3,1.5-4.2,3.3-6.2,5.1c-0.1,0.4-0.7,0.5-0.9,0.1c-0.5-1,1-2,1.6-2.6
		c1.8-1.7,3.6-3.5,5.7-4.7c4.4-2.4,8.7-4.8,13.2-6.9c3-1.3,6.3-2.3,9.6-2.8c4.2-0.5,8.7-0.1,12.6,1.5c-0.9-1-2-1.9-3.3-2.1
		c-2.6-0.6-5.2-0.7-7.8-1c-2.1-0.2-4.3-0.1-6.4,0.4c-1.2,0.3-2.3,0.9-3.4,1.4c-1.2,0.5-2.4,0.9-3.6,1.3c-2.5,0.9-4.9,2.1-7.2,3.4
		c-1.2,0.6-2.5,1.3-3.6,2.1c-1.2,0.8-2.5,1.6-3.6,2.6c-0.2,0.2-0.4,0.4-0.6,0.4c-0.2,0-0.4-0.1-0.5-0.3c-0.2-0.7,0.5-1.3,0.9-1.7
		c1.1-1,2.4-1.9,3.6-2.7c2-1.3,4-2.4,6.1-3.5c1.7-0.8,3.4-1.5,5.1-2.1c1.7-0.5,3.3-1.3,4.9-2c2.2-0.9,4.5-1.1,6.8-1.1
		c1.9,0.1,3.8,0.3,5.8,0.5c1,0.1,2.1,0.2,3.1,0.4c-0.2-0.4-0.4-1.1-0.5-1.5c-0.5-1.3-1.2-2.6-1.8-3.9c-1.4-2.6-3-5.2-5.2-7.2
		C69,7.5,66.9,7,65,6.3c-1.2-0.4-2.4-0.8-3.6-1.1c-7.2-1.9-12.5-1.2-19.4,1.3c-2.2,0.7-4.5,1.4-6.5,2.6c-1.8,1.1-3.3,2.1-5.1,3.3
		c-1.3,0.9-2.5,1.8-3.6,2.9c-1,1.1-1.9,2.2-2.8,3.4c-1.6,2-3,4.2-4.1,6.6c-1.4,3.3-2.3,6.8-3,10.3c-0.8,4.4-1,8.9-1.1,13.3
		c0,3.1,0.2,6.2,0.3,9.4c0,1.1,0.1,2.3,0.1,3.4c0,0.2,0,0.5,0,0.7c0.1,0.2,0.1,0.4,0,0.5C16,63.3,15.4,63.6,15,64
		c-0.5,0.5-1.1,1-1.5,1.6c-1.2,1.5-2.2,3.2-3.4,4.7C5.4,75.8,3.8,78.9,2.6,86c-0.6,3.2-1,6.3-0.8,9.6c0.2,2,0.6,3.9,1,5.8
		c2,8.2,7.1,16.2,15,19.6c0,0,0,0-0.1,0c0,0-0.1,0-0.1,0c2.6,1,4.8,2.6,7.3,3.7c6.8,3.5,10.7,3.3,18.1,3.6c2.5,0.1,5,0.6,7.5,1.1
		c1.5,0.3,3,0.4,4.5,0.6c1.5,0.2,3,0.5,4.5,0.6c2.4,0.2,4.9,0.2,7.3,0.2c5,0,10,0,15.1-0.1c2.5-0.1,4.9-0.4,7.4-0.4
		c2.5-0.1,5.1-0.2,7.6-0.5c3.4-0.2,6.7-0.6,10.1-1.2c3.3-0.4,6.5-1,9.7-1.7c1.7-0.3,3.4-0.5,5.1-0.9c0.7-0.1,1.5-0.4,2.2-0.5
		c0.1,0,0.2,0,0.3,0c2.5-1.7,5.1-3.2,7.7-4.8c2.9-1.9,5.3-4.4,8.1-6.4c2.9-1.9,5.6-4,8.4-6.2c2.8-2.1,5.7-4,8.6-6
		c0.8-0.5,1.5-1.1,2.3-1.6c0-0.4,0-0.8,0-1c0-1.6-0.1-3.3,0.1-4.9c0-0.8,0.2-1.5,0.3-2c-0.1-0.1-0.1-0.1-0.2-0.2c-1.1-1-2.4-2-3.5-3
		c-0.3-0.3-0.6-0.5-0.9-0.7c0,0-0.1,0-0.1-0.1c-0.2,0.2-0.3,0.4-0.5,0.6c-0.3,0.4-0.5,0.7-0.8,1.1c-1.1,1.4-2.2,2.9-3.5,4.2
		c-0.7,0.8-1.8,1-2.8,0.8c-1.6-0.2-3.2-0.8-4.6-1.6c-1.3-0.8-2.5-1.7-3.9-2.4c-1-0.5-1.9-1.1-2.9-1.4c-0.2-0.1-0.3,0.1-0.5,0.2
		c-0.3,0.3-0.6,0.7-0.9,1c-1.4,1.7-2.2,3.7-3.7,5.4c-1.2,1.4-2.9,1.9-4.6,1.3c-1.6-0.5-3.1-1.2-4.5-2.1c-0.8-0.5-1.6-1.1-2.4-1.7
		c-0.7-0.4-1.5-1-2.3-1c-2,1.2-3.1,3.4-4.7,5c-1.6,1.5-3.5,3-5.8,2.9c-1.7-0.1-3.1-1.1-4.5-2.1c-1.6-1.1-3.1-2.3-4.6-3.5
		c-1,1.4-1.6,3.1-2.7,4.5c-1.6,2.2-4.1,3.3-6.7,2.2c-1.5-0.6-2.8-1.6-4-2.7c-0.6-0.5-1.3-1.1-1.9-1.6c-0.5-0.4-1-0.7-1.4-1.2
		c-0.3,0.1-0.7,0.1-1,0.2c-1,0.2-2,0.4-3.1,0.6c-0.4,0.1-0.7-0.2-0.8-0.6c-0.1-0.4,0.1-0.9,0.5-1c2-0.8,4.1-1,6.2-1.4
		c2-0.4,4.1-0.7,6.1-0.9c1.9-0.1,3.8,0,5.7-0.1c0.9,0,1.8,0,2.7,0c0.2-0.1,0.4-0.1,0.6,0c2.1-0.1,4.1-0.3,6.1-0.6
		c2.2-0.3,4.5-0.3,6.7-0.7c2.2-0.4,4.3-1,6.4-1.7c3.1-0.9,6.3-1.3,9.5-1.7c3.1-0.4,6.2-1.2,9.3-1.5c5.2-0.8,10.5-1.3,15.7-1.9
		c3.7-0.3,7.5-0.5,11.2-1.3c2.2-0.5,4.4-0.8,6.5-1.4c2.1-0.5,4-1.4,5.8-2.5C175.8,79.6,176.6,78.5,176.8,77.3z M175.3,114.7
		c0.2-0.7,0.4-1.5,0.2-2.2c-1.8,0.3-5.8,4.4-7.1,4c-0.9-0.4-0.7-1.5-0.2-2.1c0.6-0.9,1.2-1.8,1.7-2.6c1.2-1.9,2.3-3.8,2.8-6
		c-2.2,0.8-4.4,1.8-6.6,2.7c-1.2,0.5-2.3,1.1-3.4,1.6c-0.6,0.2-1.4,0.7-2,0.4c-1.2-0.7-0.3-2.1,0.2-2.9c1.5-2.5,3.1-5,3.7-7.9
		c-1.4,0.7-2.7,1.5-4,2.4c-0.1,0.3-0.3,0.6-0.7,0.6c0,0-0.1,0-0.1,0c-0.8,0.5-1.5,1.1-2.3,1.6c-2.8,2-5.8,3.9-8.6,6
		c-2.7,2.2-5.6,4.1-8.4,6.1c-2.1,1.6-4,3.4-6.1,5c-2.1,1.6-4.4,2.9-6.6,4.3c-3.4,1.9-6.2,4.8-9.7,6.6c-2.3,1.2-4.7,2.3-7.1,3.3
		c-2.9,1.2-5.8,2.5-8.8,3.4c0,0,0,0,0,0c-0.6,0.1-0.9-0.8-0.5-1.2c0.8-0.5,1.7-0.8,2.5-1.2c2.3-1,4.8-2,7.1-3.1c2-0.9,4-1.8,5.9-2.8
		c1.4-0.8,2.7-1.7,4-2.7c-1.2,0.2-2.4,0.4-3.6,0.6c-2.4,0.4-4.7,0.9-7.1,1.2c-2.3,0.3-4.5,0.7-6.8,1c-3.3,0.5-6.6,0.6-9.9,0.9
		c-3.4,0.2-6.7,0.3-10.1,0.6c-4.3,0.3-8.7,0.2-13.1,0.3c-2.5,0.1-5,0.1-7.5,0.1c-1.9,0-3.7-0.1-5.6-0.3c-2.6-0.4-5.2-0.7-7.8-1.1
		c-1.8-0.3-3.6-0.7-5.4-0.9c-0.1,0.4-0.2,0.7-0.2,1.1c0,0,0,0,0,0c0,0.2,0,0.4-0.1,0.5c-0.8,3.6-1.5,7.3-1.9,11
		c-0.1,1.9-0.3,3.8-0.6,5.7c-0.5,4.7-1.3,9.3-1.7,14c-0.2,1.4-0.4,2.9-0.5,4.3c0.1,0.2,0.2,0.4,0.2,0.6c0.2,0.7-0.1,1.3-0.5,1.8
		c-0.1,0.6-0.1,1.3-0.2,1.9c-0.2,3.7-0.8,7.3-1.4,10.9c-0.5,2.7-0.6,5.9-2.7,8c-1.4,1.4-3,2.5-4.5,3.7c-1.9,1.4-3.6,3.2-5.5,4.6
		c-2.2,1.6-4.6,2.8-6.5,4.6c-1.6,1.6-3.3,2.7-5.1,4c-1.4,1.1-2.8,2.1-4.1,3.2c-0.7,0.7-1.4,1.4-2.1,2.1c-0.3,0.4-0.7,0.8-0.8,1.3
		c0.4,2.2,3.4,2.5,5.2,2.7c5.5,0.4,11.1,0.1,16.6,0.2c2.8,0,5.6,0.2,8.3,0.3c1.8,0.1,3.7-0.1,5.5-0.1c5.7,0,11.5,0.4,17.2,0
		c4.8-0.2,9.6-1.1,14.4-1.8c1.3-0.3,2.5-0.6,3.8-0.6c0.1,0,0.1,0,0.2,0c0.7-0.2,1.4-0.2,2.1-0.2c0.8-0.1,1.5-0.2,2.3-0.3
		c2.4-0.3,4.8,0.4,7.2,0.8c1.3,0.3,2.6,0.7,4,0.9c0.8,0.1,1.5,0,2.3,0c4,0,8.1-0.1,12.1,0.1c2.2,0.1,4.4,0.5,6.6,0.7
		c3.6,0.2,7.2,0.4,10.8,0.1c0.9-0.1,1.8-0.2,2.6-0.3c2-0.3,4.3-0.5,5.7-2.2c1.3-1.5,1.8-3.5,2.5-5.3c1.2-2.8,2.1-5.7,2.7-8.7
		c0.8-3.4,1.4-6.8,2-10.2c0.9-4.9,1.7-9.8,2.6-14.7c0.1-0.3,0.1-0.7,0.2-1c-0.1,0.1-0.3,0.2-0.5,0.1c-1.1-0.3-2.3-0.7-3.4-1.1
		c0,0,0,0,0,0c0,0,0,0,0,0c0,0,0,0,0,0c-0.2,0-0.3-0.2-0.4-0.3c-0.8,2.1-1.6,4.3-2.3,6.4c-0.3,0.9-0.5,1.9-0.9,2.8
		c-0.4,0.7-1.3,0.5-1.5-0.3c-0.1-0.9,0-1.8,0-2.6c0.1-2.5,0.2-5.1,0.3-7.6c0-0.1,0-0.2,0-0.3c-0.2,0-0.4,0-0.5,0
		c-1-0.1-2.1-0.4-3.1-0.6c-0.4-0.1-0.9-0.1-1.3-0.3c-0.5,1.4-1,2.9-1.4,4.4c-0.3,1.4-0.6,2.8-0.9,4.2c-0.2,0.7-0.2,1.6-0.8,2
		c-0.9,0.4-1.3-0.7-1.3-1.4c-0.1-1.9-0.2-3.8-0.3-5.7c-0.4-0.1-0.8-0.1-1.2-0.2c-0.9-0.1-1.7-0.1-2.6-0.1c-0.7,0-1.3,0-2-0.1
		c-0.2,0-0.3-0.1-0.4-0.2c-0.8,2.4-1.7,4.7-2.2,7.2c-0.6,2.7-1,5.1-1.3,7.8c-0.3,2.1-0.8,4.1-1.3,6.2c-0.1,0.2-0.1,0.5-0.1,0.7
		c0.1,0.2,0.2,0.3,0.2,0.5c0.1,0.4-0.1,0.8-0.4,1c-0.1,0.2-0.4,0.4-0.6,0.3c-0.3,0-0.5-0.3-0.6-0.6c-0.4-0.3-0.6-0.7-0.9-1.1
		c0,0,0,0,0,0c-2.9-3.2-6.6-5.5-9.8-8.4c-1.7-1.6-3.7-2.7-5.7-3.9c-1.1-0.7-2.1-1.4-3.3-1.9c-1.2-0.5-2.4-0.9-3.7-1.3
		c-3.7-1.1-7.4-2.4-11.3-2.4c-3.1,0-6.2,0-9.1,1c-1.5,0.5-2.9,1-4.4,1.6c-0.3,0.2-0.7,0.3-0.9,0.6c-0.6,0.6-1.2-0.4-0.8-0.9
		c0.8-1.4,3.4-2,4.8-2.6c2.7-1.1,5.6-1.6,8.5-1.6c1.8-0.1,3.5-0.1,5.3,0.1c1.5,0.2,3.2,0.7,4.5,1c2.5,0.7,4.9,1.4,7.3,2.3
		c1.6,0.6,3,1.6,4.4,2.5c1.5,0.8,2.9,1.7,4.2,2.8c3.2,2.9,6.8,5.2,9.9,8.2c0.4,0.4,0.7,0.7,1.1,1.1c0.3-1.9,0.8-3.8,1.1-5.7
		c0.5-4.8,1.5-9.5,3.2-14c0.7-2.4,1.6-4.8,2.5-7.1c0.6-1.6,1.2-3.1,2.1-4.5c0.3-0.4,0.6-0.9,1-1.2c2.4-1.4,3.5,5,3.8,6.5
		c0.3,1.6,0.3,3.2,0.4,4.8c0.2,0,0.4,0.1,0.5,0.1c0.5-1.8,1.2-3.6,1.9-5.3c0.7-2,1.6-3.9,3-5.5c2.5-2.9,4.2,1.1,4.3,3.4
		c0.2,3.6-0.2,7.3-0.3,10.9c1.2-3.4,2.4-6.7,4.1-9.9c0.8-1.4,1.8-2.6,3-3.6c1.3-1.1,2.4-0.1,2.6,1.4c0.4,2.2,0,4.4-0.4,6.5
		c-0.6,4.1-1.3,8.2-2,12.3c-1.3,7.5-2.4,15-4.4,22.4c0,0.1,0,0.1-0.1,0.2c0.8-1.3,1.6-2.6,2.5-3.8c1.7-2.2,3.7-4.1,5.2-6.5
		c0.9-1.5,1.6-3.1,2.3-4.7c0.2-0.6,0.5-1.3,0.7-1.9c0-0.3,0.1-0.7,0.2-0.9c0.3-1,0.6-2.1,0.8-3.1c0.5-2.3,0.5-4.7,0.3-7.1
		c-0.3-4.7-1.6-9.3-3.3-13.6c-1.7-4.3-3.2-8.7-6-12.4c-1.4-2-2.5-4.2-3.5-6.4c-3.8,1.9-7.8,3.5-11.8,5.1c-1.6,0.7-3,1.6-4.5,2.5
		c-1.5,0.9-3.2,1.5-4.8,2.1c-1.6,0.6-3.2,1.2-4.9,1.6c-2.8,0.8-5.6,1.6-8.6,1.8c-0.6,0.1-1.1,0.1-1.6,0.2c-0.4,0.1-0.7-0.2-0.8-0.6
		c-0.2-1.2,0.9-1.1,1.7-1.4c1.8-0.5,3.7-0.6,5.6-1.1c3.8-0.9,7.5-2,11-3.6c1.9-0.9,3.7-2.1,5.6-3.1c2.5-1.2,5.2-2,7.7-3.1
		c1.5-0.7,3.1-1.5,4.6-2.2c4.6-2.2,8.8-5.4,13.4-7.7c2.5-1.2,5.1-2.2,7.4-3.8c1.4-0.9,2.7-2,4.1-3c3.9-3.2,8.6-5.9,11.3-10.2
		C174.2,117.2,174.8,116,175.3,114.7z M172.9,85.9c0-0.3-0.1-0.6-0.2-1c-0.1-0.4-0.2-0.9-0.3-1.3c-1.2,0.5-2.5,0.9-3.8,1.2
		c0,0.2,0,0.5-0.1,0.6c-0.4,1.1-0.9,2.1-1.5,3.1C169,87.8,171,86.9,172.9,85.9z M169.9,171.8c0.2,0,0.3,0,0.5,0
		c-0.5-2.1-1.1-4.3-1.6-6.4c-1.2,2.3-2.3,4.5-3.2,6.8c0.2,0,0.4-0.1,0.6-0.1C167.4,171.9,168.7,171.8,169.9,171.8z M167.1,85.1
		c-0.2,0-0.4,0.1-0.7,0.1c-2.1,0.4-4.2,0.8-6.2,1.2c-1.5,0.3-3.1,0.4-4.6,0.6c0,0,0,0.1,0,0.1c0.4,0.2,0.7,0.5,0.9,0.7
		c1.4,1.1,2.9,2.1,4.2,3.4c0.9-0.7,2.1-1,3.8-1.7c0.2-0.4,0.6-0.8,0.8-1.1c0.5-0.8,0.9-1.5,1.4-2.3
		C166.7,85.8,166.9,85.5,167.1,85.1z M161.3,175.7L161.3,175.7c-0.9-2.5-2-4.9-2.9-7.4c-0.7,2-0.9,4.2-0.8,6.3c0,0.5,0,0.9,0,1.4
		c0.2,0,0.5,0,0.7-0.1C159.3,175.8,160.3,175.8,161.3,175.7z M160.7,142.7c-0.1-1.7-0.1-3.3-0.2-5c0-1.8-0.2-3.6-0.1-5.3
		c-1.9,1.3-3.9,2.5-6.1,3.4c-4.8,2-8.9,5-13.4,7.5c-0.4,0.3-0.9,0.5-1.3,0.7c0.3,0.6,0.5,1.2,0.9,1.7c0.5,1,1,1.9,1.6,2.9
		c0.2-0.2,0.5-0.2,0.8-0.3c1.2-0.4,2.4-0.6,3.5-0.9c1.5-0.4,3-0.7,4.4-1c1.5-0.4,2.9-1,4.4-1.6c1.5-0.5,2.9-1,4.3-1.6
		C160,143,160.4,142.9,160.7,142.7z M152.9,88.5c0.3-0.3,0.6-0.9,0.9-1.4c-0.6,0.1-1.2,0.1-1.9,0.2c-4.6,0.5-9.2,0.9-13.7,1.5
		c0.9,0.4,1.7,0.9,2.5,1.4c1.8,1.2,3.5,2.5,5.7,3c0.7,0.1,1.5,0.4,2.3,0.2c1-0.7,1.8-1.9,2.5-2.8C151.8,90,152.3,89.3,152.9,88.5z
		 M147.8,45.6c0-1.3-0.2-2.6-0.5-3.7c-0.9-2.5-3.9-3.8-6.3-4.5c-2.7-0.7-5.4-1.3-8.2-1.2c-2,0-4.1,0.2-6.1,0.7
		c-2,0.6-3.9,1.4-5.7,2.4c-1.4,0.8-2.6,1.6-3.9,2.4c-3.2,1.7-6.7,3.2-9.4,5.6c0.7,1,1.7,1.9,2.8,2.4c1.9,0.7,3.8,0.9,5.7,1.3
		c1.4,0.2,2.7,0.5,4.1,0.7c0-0.4,0.1-0.7,0.2-1.1c0.2-0.8,0.5-1.6,0.8-2.4c1-2.4,2.6-4.5,4.7-6.1c1.2-1.1,2.6-2,4.1-2.8
		c2.3-1.2,4.9-1.8,7.5-1.6c2.4,0.3,4.8,1.4,6.7,2.9c1.2,1,2.2,2.2,2.9,3.6C147.4,44.6,147.6,45,147.8,45.6z M143.8,171
		c0.3-2.2,0.9-4.5,0.4-6.7c-1.5,1.2-2.6,2.7-3.4,4.5c-0.4,0.9-0.9,1.9-1.3,2.9c0.5-0.2,1.2,0.2,1.7,0.3c0.7,0.2,1.3,0.4,2,0.6
		c0.2,0.1,0.3,0.2,0.4,0.3C143.6,172.2,143.7,171.6,143.8,171z M139.4,48.5c1.7,0,3.2-2.2,1.9-3.6c-0.4-0.4-0.9-0.6-1.4-0.7
		c-0.2-0.1-0.4-0.2-0.5-0.4c-1.2,0.4-2.8,1.1-2.9,2.5C136.7,47.6,138.1,48.5,139.4,48.5z M134.7,169.7c0.1-2.4,0.4-5.7-0.9-7.1
		c-1.9,1.5-2.6,4-3.6,6.2c0,0,0,0,0,0c0.3,0,0.6,0.1,0.9,0.1C132.3,169.2,133.5,169.3,134.7,169.7z M133.7,89.6
		C133.7,89.5,133.7,89.5,133.7,89.6c-1.2,0.1-2.4,0.3-3.6,0.6c-3.6,0.8-7.3,0.9-10.8,1.7c1.3,0.7,2.6,1.8,3.4,2.3
		c1.3,0.8,2.7,1.5,4.1,1.9c2,0.8,3.4-1.1,4.3-2.6C131.9,92.1,132.7,90.8,133.7,89.6z M126.8,174.3c0-0.1,0-0.2,0.1-0.2
		c0,0,0,0-0.1,0C126.8,174.1,126.8,174.2,126.8,174.3z M125,172c0-0.6-0.1-1.3-0.1-1.9c-0.2-2.4-0.6-4.9-1.7-7.1
		c-1.3,1.7-1.8,3.7-2.6,5.6c-0.4,1.1-0.8,2.1-1.2,3.2c0,0,0.1,0,0.1,0C121.3,171.8,123.2,171.8,125,172z M111.9,96
		c0.7-0.9,1.4-1.8,2.1-2.6c-1.8,0.5-3.6,0.8-5.4,1c-2.3,0.3-4.7,0.4-7,0.7c-0.6,0.1-1.2,0.1-1.9,0.2c1.4,1.1,2.8,2.1,4.2,3
		C107.1,100.4,109.9,98.3,111.9,96z M95,96.3c0.2-0.3,0.3-0.6,0.5-0.9c-1.1,0-2.2,0-3.3,0c-2.2,0-4.5,0-6.6,0.4
		c-0.9,0.1-1.8,0.3-2.7,0.4c1.9,1.2,3.4,3,5.4,3.9C91.5,101.9,93.6,99,95,96.3z M91.6,46.3c0.1-1.5-0.3-3-1.1-4.2
		c-0.8-1.2-2-2.2-3.2-2.9c-1.7-1.1-3.4-2.1-5.2-3c-1.8-0.9-3.9-0.8-5.9-0.8c-1.1,0-2.2,0.1-3.3,0.2c-2.8,0.4-5.8,0.5-8.5,1.2
		c-2.1,0.6-4.1,1.7-6.1,2.7c-2,0.9-3.8,2.2-5.7,3.4c-3.1,1.7-6.5,2.9-9.2,5.2c0,0.1-0.1,0.2-0.1,0.3c0.5,0.3,0.5,1,1,1.3
		c1.6,0.9,3.4,1.5,5.1,1.9c1.9,0.5,3.9,0.9,5.9,0.9c2.3,0.2,4.5,0.3,6.7,0.5c0-1.3,0.4-2.9,0.5-3.6c0.6-2.6,1.9-5.1,4-6.9
		c2.1-1.7,4.3-3.1,6.9-3.9c6.6-2.2,8.4-1.4,13.9,2.6c1.5,1.2,2.7,2.8,3.8,4.5C91.3,45.8,91.5,46,91.6,46.3z M84.7,48.3
		c1.8-0.1,1.8-2.5,0.8-3.5c-0.2-0.2-0.5-0.5-0.8-0.6c-0.4-0.2-0.8-0.2-1.1-0.5c-0.7,0.7-2.2,1.6-2.1,2.7
		C81.9,47.5,83.5,48.3,84.7,48.3z M42.5,133.5c-0.2,0.1-0.3,0.2-0.4,0.2c-2.3,1.2-4.5,1.4-5.9,3.8c-0.5,0.8-0.6,0.9-0.2,1.8
		c0.5,1,1.1,2,1.7,3c0.9,1.3,1.7,2.7,2.7,3.9c0,0,0,0,0,0.1c0-0.3,0.1-0.6,0.1-0.8c0.2-1.9,0.3-3.8,0.6-5.7
		C41.5,137.7,42,135.6,42.5,133.5z M39.9,151.1C39.9,151.1,39.9,151,39.9,151.1c-1.3,1.1-2.6,2.3-3.9,3.7c-1.3,1.4-2.8,2.6-4.1,4
		c0.8,0.8,1.7,1.4,2.5,2.2c1.1,1,2,2.1,2.9,3.2c0.3,0.4,0.6,0.7,0.9,1c0.2-1.8,0.4-3.7,0.6-5.5C39.2,156.7,39.6,153.9,39.9,151.1z
		 M37.5,170.9c0,0-0.1,0.1-0.1,0.1c-2.7,2.4-6,4.3-8.3,7.2c-0.6,1.9,5.1,5,6.3,6.5c0,0,0.1,0.1,0.1,0.1c0-0.1,0-0.3,0.1-0.4
		c0.3-1.8,0.6-3.6,0.9-5.4C37,176.4,37.3,173.6,37.5,170.9z"/>
</g>
</svg>
