<?xml version="1.0" encoding="utf-8"?>
<!-- Generator: Adobe Illustrator 27.9.2, SVG Export Plug-In . SVG Version: 6.00 Build 0)  -->
<svg version="1.1" id="Calque_1" xmlns="http://www.w3.org/2000/svg" xmlns:xlink="http://www.w3.org/1999/xlink" x="0px" y="0px"
	 viewBox="0 0 222.6 254" style="enable-background:new 0 0 222.6 254;" xml:space="preserve">
<style type="text/css">
	.st0{fill:#8664C2;}
	.st1{fill:#FDD104;}
	.st2{fill:#FD2202;}
	.st3{fill:#C3A3FC;}
	.st4{fill:#FFFFFF;}
</style>
<g>
	<path class="st0" d="M161.1,208c2.6,0.3,5.1,0.9,7.7,1c0.5-3.7,0.2-7.3,0.2-11c0.1-2.4,0.2-5.1,1.9-6.9c1.7-1.4,4.1,4.3,5.4,7.9
		c0,0,0.1,0,0.1,0c0.4,0.2,0.5,0.7,0.3,1.1c0.2,0.6,0.4,1.1,0.5,1.3c0-2.4-0.1-4.9,0.4-7.3c0.1-0.4,0.1-0.7,0.2-1.1
		c-0.5-0.5-0.9-1.1-1.2-1.7c-0.5-0.8-0.9-1.7-1.2-2.6c-0.6,0.2-1.2,0.3-1.8,0.4c-2.3,0.4-4.6,0.4-6.9,0.5c-2.6,0-5.2,0.2-7.8,0.2
		c-3-0.1-6.1-0.3-9.1-0.7c-1.9-0.1-3.8-0.3-5.6-0.7c0.7,0.9,1.4,1.8,2,2.7c1.1,1.4,2.2,2.9,3,4.5c2.1,3.8,2.9,8.1,3.5,12.3
		c0.2-0.2,0.6-0.1,0.9-0.1c1.1,0.1,2.3,0,3.4,0c0.5,0,1,0,1.5,0C159.4,207.8,160.2,207.9,161.1,208z M200.9,169.7
		c1.3,0.5,2.3,1.5,3,2.8c2,4.1,1.8,9.5-1.4,12.9c-0.7,3.1-3.4,5.6-5.6,7.8c-1,0.9-2.1,1.5-3.4,1.9c0,0.2,0.1,0.3,0.1,0.5
		c0.2,1.2,0.3,2.4,0.4,3.6c0.6,3.2,1,6.5,1,9.7c0.5,10.4-0.7,21.1-4.2,30.9c-0.1,0.2-0.1,0.3-0.2,0.5c0.1-0.1,0.2-0.2,0.3-0.2
		c0.7-0.5,1.4-1,2-1.4c1.7-1,3.3-2.1,4.8-3.4c1.2-1,2.6-1.8,3.7-2.8c2.1-1.9,3.6-4.5,4.9-7c1.9-4,2.4-8.4,3.4-12.6
		c0.8-3.2,2-6.2,3.2-9.2c0.9-2.3,1.8-4.5,2.9-6.7c1.3-2.6,2.7-5.3,3.5-8.1c1-3,1.4-6,1.6-9.1c0.2-3.2,0.1-6.4-0.5-9.5
		c-0.5-3-1.9-5.7-2.6-8.7c-0.9,1.7-1.3,3.6-1.2,5.6c0.1,1.4,0.4,2.9-0.1,4.3c-0.8,2.6-4.3,3.1-6.3,1.6c-2.9-2-2.2-5.9-1.8-8.9
		c0.4-2.1,1-4.1,1.5-6.1c0.6-2.1,1-4.2,1.3-6.4c0.6-3.9,0.6-7.9,1.5-11.8c-2.9,3.8-8.4,4.2-11-0.1c-2-3.7-0.2-8.5,1.8-11.8
		c4.1-6.6,6.5-13.2,6-21.1c0-5-0.6-10-1.8-14.8c-2.1-7.7-5.6-14.9-8.3-22.3c0.1,3.9-1.3,10-6.4,8.6c-2.8-0.8-4.6-3.2-5.2-6
		c-1.1-4.6-0.1-9.4-0.7-14.1c-1.7,2.9-5,5.6-8.1,2.9c-2.2-1.8-3.2-4.6-3.3-7.3c-0.1-1.7,0.1-3.4,0.2-5.1c0.2-2.4,0.5-5-0.3-7.4
		c-0.7-2.1-1.7-3.9-2.8-5.7c-2-3.2-4.2-6.4-7.2-8.6c1.9,4,3.1,8.5,2.6,12.9c-0.2,2.4-1.7,6-4.7,5.4c-2.6-0.8-3.9-3.6-4.6-6.1
		c-0.5-2-0.7-4.1-1.1-6.1c-0.9-4-2.8-9.3-5.3-12.5c-2.5-2.7-6.3-3.5-9.7-4.5c-4-1.1-8.3-1.9-11.9-4c-3.2-2.2-4.7-6-5.6-9.6
		c0-0.2-0.1-0.4-0.1-0.5c-0.4,0.8-0.8,1.5-1.1,2.3c-0.4,1.1-0.3,2.2-0.3,3.3c0,1.7-0.2,3.5-1,5.1c-0.8,1.5-1.8,3.1-3.3,4
		c-4.3,2.9-10.1,1.6-13.8-1.7c-2.1-1.8-3.3-4.3-4.7-6.6c-0.1,2.7-0.2,5.5-1,8.1c-1.1,3.2-3.5,5.8-6.8,6.8c-2.3,0.8-4.9,0.4-6.9-0.9
		c-1.4-1-2.5-2.4-3.4-3.8c-1.2-1.9-2.2-3.8-3.5-5.5c-1-1.5-2.3-2.7-3.5-4c-1.7-1.8-3.4-3.7-5.7-4.8c1.7,4.3,0.2,12.2-3.9,14.9
		c-1.9,1.3-4.4,2.4-6.6,1.3c-1.5-0.8-2.4-2.3-3.4-3.6c-1.1-1.4-2.1-3-3.4-4.3c-0.2,2-0.8,4-1.7,5.8c-1.5,3.1-3.3,6.1-5.5,8.8
		c-2.3,2.8-5.6,4.4-8.8,6c-2.6,1.5-5.3,2.9-7.1,5.4c-2.7,4.4-1.9,10-3.9,14.7c-0.9,2.4-3,5.8-6,4.6c-2-1.1-3.1-3.4-4.8-4.8
		c0.4,3.1,1.1,6.1,1.2,9.3c0.1,4.7-0.1,9.5-1.2,14c-0.6,2.4-1.1,4.9-2.1,7.2c-1.4,3.6-3.9,6.5-6.1,9.6c-4.2,6.5-5.3,14.5-5.4,22.1
		c0,4.3,0.4,8.6,1.8,12.7c1.4,4.6,3.6,8.7,6.9,12.2c1.9,2.1,4.1,6.5,0.9,8.4c-2.5,0.9-5.8-1.5-7.4-3.2c-1.1,7.1,1.2,13.9,5.6,19.4
		c2,2.7,4.4,5,6.4,7.7c2.1,2.8,2.4,6.4,1.8,9.7c-0.5,2.7-2.2,9.3-5.9,7.8c-2.4-1.2-3.8-3.8-4-6.4c-2.6,2.1-4,5.3-4.3,8.6
		c-0.4,3-0.3,6.1,0.6,9c0.8,2.6,2.5,4.9,4.6,6.5c1.2,0.9,2.5,1.5,3.7,2.4c2.1,1.4,2.9,3.7,3.1,6.2c0.3,2.4,0.3,4.7,0.1,7.1
		c-0.2,3.4-0.9,6.7-2.1,9.8c-0.2,0.4-0.4,0.9-0.6,1.3c1.4-1.3,2.8-2.7,4.3-3.9c2.1-1.5,4-3.1,6-4.8c1.2-0.9,2.4-2,3.7-2.9
		c1.4-0.9,2.9-1.6,4.3-2.5c1.7-1.1,3.2-2.3,4.6-3.7c1-1,2.1-1.9,3-2.9c-0.9-0.8-1.5-2-2.3-3c-0.9-1.4-1.8-2.7-2.8-4
		c-0.5-0.7-0.9-1.3-1.4-2c-0.4-0.7-1-1.4-1.1-2.3c-0.2-3.4,6.1-6,8.7-7.1c0.4-0.2,1.1-0.6,1.7-0.8c0-0.4,0.1-0.8,0.1-1.2
		c0-0.2,0-0.5,0.1-0.7c-0.3-0.2-0.6-0.5-0.9-0.8c-1.9-1.7-3.3-3.7-4.5-5.9c-0.8-1.4-1.8-2.7-2.3-4.2c-0.6-1.4-0.5-3,0.4-4.2
		c2.3-2.9,7.2-3.1,10.6-4.4c0.1-0.4,0.2-0.8,0.3-1.2c-0.8-2.1-2.1-4-3.3-5.9c-1.1-1.8-2.7-3.4-2.9-5.6c0-3.9,9.5-5.2,12.5-5.9
		c0.2-0.1,0.5-0.1,0.7-0.1c0.4-0.6,0.8-1.3,1.2-1.9c0,0,0.1-0.1,0.1-0.2c-0.9-0.2-1.9-0.4-2.8-0.7c-3.6-0.9-7.3-1.4-10.9-2.4
		c-2.5-0.5-5.1-1-7.5-1.8c-0.8-0.3-1.6-0.7-2.4-1.1c-1.6-0.8-3.3-1.6-4.9-2.3c-3.2-1.6-6.2-3.8-8.6-6.4c-2.6-2.6-4.8-5.5-6.6-8.6
		c-1.6-3.2-2.1-6.8-2.4-10.3c-0.5-7.9,0.4-16.3,3.9-23.5c1.1-2.3,3-4.2,5-5.9c1.3-1.1,2.6-2.2,4.1-3.1c1.4-0.9,2.8-1.8,4.2-2.5
		c0.7-0.4,1.4-0.8,2.1-1.2c0.1-0.1,0.3-0.2,0.5-0.2c-0.2-1.4,0.2-3.7,0.3-4.7c0.4-3.1,1.1-6.1,1.8-9.1c0.3-1.5,0.4-3,0.6-4.6
		c0.2-1.9,0.7-3.6,1.3-5.4c1-3.2,2.3-6.2,4.2-9c3.5-6,5.4-8.2,11.3-11.8c2.1-1.5,4.4-2.4,6.9-3c3.8-1.3,7.9-1.7,11.9-2
		c5.3-0.3,9.4,0.9,14,3.2c1.4,0.8,2.8,1.7,4,2.8c1.3,1.1,2.3,2.6,3.3,4c0-0.1,0.1-0.1,0.2-0.2c0.4-0.2,0.8-0.2,1.2-0.3
		c1.9-0.4,3.8-0.9,5.8-1.1c2.6-0.3,5.2-0.5,7.8-0.6c2,0.1,4,0.2,6,0.7c0.6,0.1,1.2,0.3,1.7,0.5c0.5-1.1,1.7-2.4,2.1-2.9
		c1.1-1.2,2.4-2.3,3.8-3.2c1.4-0.9,2.8-1.7,4.2-2.5c1.5-0.9,3-1.5,4.7-1.9c3.2-0.8,6.6-0.8,9.9-0.3c2.4,0.3,4.8,0.7,7,1.5
		c1.5,0.5,3.1,1,4.5,1.8c1.6,0.8,2.6,2.2,3.5,3.6c1.3,1.9,2.7,3.7,4,5.6c1.5,2.4,2.7,5.1,2.9,7.9c0,0.1,0,0.2,0,0.3
		c1.5,0.7,2.8,1.9,4.1,3c1,1,2,2,2.8,3.3c0,0.1,0.1,0.2,0.1,0.3c0.4,0.2,0.8,0.4,1.1,0.7c3.3,2.3,6.4,5.8,6,10.1
		c0,0.4-0.1,0.9-0.2,1.4c1.2,1.2,2.2,2.7,2.4,4.4c0.1,1.4-0.3,2.9-1,4.1c0.5,0.8-0.3,4-0.7,4.8c0,0,0,0,0,0c0.3-0.1,0.6-0.2,0.9-0.3
		c2.7-0.8,5.5-1,8.2-0.9c5.5,0.1,11.3,3.1,14.2,7.8c2.6,4.5,2.7,9.8,2.9,14.8c0.1,2.6,0.1,5.2-0.1,7.8c-0.1,2.5-0.8,4.9-2.3,7
		c-0.7,1.1-1.7,2-2.7,2.9c-1.5,1.2-3,2.5-4.8,3.2c-0.1,0-0.1,0-0.2,0.1c0,1.1-0.1,2.1,0,3.2c0,3.3-0.2,6.7-1.3,9.9
		c-1.7,4.8-4.3,9.4-8.1,12.9c-2.4,2.4-5.7,3.3-8.8,4.4c-3.3,1.1-6.7,2.1-10.1,2.6c-3.5,0.5-7,1-10.5,1.2c-3.5,0.2-7.1,0.3-10.6,0.4
		c-2.6,0.1-5.2,0.2-7.9,0.3c0,0,0,0,0,0c0,0.1,0,0.2,0,0.3c0,0,0,0,0,0c0.8,0.2,1.5,0.6,2.3,0.9c2.7,1.3,5.1,3.1,8,4.1
		c1.7,0.6,3.4,0.8,5.1,1.2c2.8,0.8,5.6,1.4,8.4,2.3c2.2,0.8,4.5,1.5,6.8,1.9c4.7,1.2,9.4,2.1,14.2,2.4c0.7,0.1,1.4,0.1,2.1,0.2
		c-0.1-0.4-0.1-0.9-0.1-1.3c-0.2-2.6,0.1-5.1,0.4-7.7c0.3-2.5,0.7-5.1,1.9-7.4c0.5-1.1,1.2-2.1,2-3c1.8-2.5,2.9,0.1,3.3,2
		c0.6,2.6,1.3,5.2,1.9,7.8c1-3.9,2.1-6.4,5.1-9.2c0.6-0.6,1.1-1.1,1.7-1.7c0.5-0.4,1-1.1,1.7-1.2c1.3,0.2,1.1,1.9,1.1,2.8
		c-0.3,4.8-1.5,9.5-2,14.3c1.4-0.9,3.1-1.3,4.8-1.3C199.1,169.3,200,169.5,200.9,169.7z M117.8,252.4c-1.9-0.4-3.7-1-5.5-1.4
		c-1.9-0.3-3.9-0.3-5.9-0.4c-1.1,0-2.2-0.1-3.3-0.1c-0.2,0-0.5,0-0.7,0c-0.9,0.1-1.8,0.3-2.6,0.4c-0.3,0-0.5-0.1-0.6-0.3
		c-1.1,0.3-2.3,0.6-3.4,0.6c-2.5,0-5.1,0.1-7.6,0.2c-9,0.5-18,0.6-27,0.6c-2.7-0.2-5.4-0.1-8.1-0.3c-1.7-0.1-3.3-0.3-5-0.5
		c-3.1-0.1-6.3-0.6-9.4-0.9c-3-0.2-5.9-0.5-8.9-0.6c-2.1,0-4.2,0-6.2-0.1c-3.1-0.1-6.3,0-9.4-0.4c-1.1-0.1-2.1-0.4-3.1-0.6
		c-1.7-0.5-3.5-0.9-5-1.9c-1.4-0.9-2.5-2.6-1.7-4.2c0.9-1.6,2.5-2.5,3.8-3.7c0.5-0.5,1-0.9,1.5-1.4c0.1-0.2,0.2-0.3,0.3-0.5
		c0.5-0.7,0.9-1.5,1.3-2.3c1.6-3.5,2.5-7.2,2.7-11c0.2-2.8,0.1-5.7-0.3-8.5c-0.1-0.7-0.3-1.3-0.7-1.9c-1.1-1.7-3.1-2.4-4.7-3.6
		c-2.7-1.9-4.8-4.6-5.7-7.7c-1-3.3-1-6.8-0.6-10.3c0.4-3.9,2.2-7.5,5.3-9.9c0.7-0.7,1.8-0.9,2,0.3c0.1,1-0.1,1.9,0.3,2.8
		c0.4,1.3,1.3,2.6,2.6,3.3c0.6,0.4,1.2,0,1.6-0.4c0.8-1,1.3-2.2,1.7-3.4c0.5-1.7,0.9-3.4,0.9-5.2c0.2-2.6-1.2-5.1-2.9-7
		c-1.5-1.7-3-3.4-4.4-5.2c-2.9-3.6-5.3-7.8-6.4-12.4c-0.7-3-0.8-6-0.5-9.1c0.2-0.9-0.1-3.1,1.3-3c0.4,0.1,0.7,0.4,1,0.7
		c0.4,0.4,0.8,0.8,1.2,1.2c1.1,0.9,2.3,1.7,3.6,2.1c2.6,0.8,2-1.9,1.2-3.3c-1-1.7-2.4-3-3.6-4.6c-1.3-1.7-2.4-3.6-3.3-5.6
		c-1.9-4.3-3.2-8.9-3.4-13.6c-0.5-6.1,0-12.3,1.4-18.2c1.1-4.5,3.3-8.7,6.2-12.4c1.9-2.4,3.5-5.1,4.4-8.1c1.1-3.8,2.1-7.8,2.3-11.8
		c0.3-4,0.3-8-0.4-12c-0.2-1.5-0.5-3-0.7-4.5c-0.1-1,0.4-2.2,1.6-1.9c1.5,0.6,2.4,2,3.4,3.2c0.6,0.7,1.3,1.6,2.1,2
		c1.2,0.5,2.3-0.8,2.9-1.7c2.9-4.6,2-10.5,4.2-15.4c1.3-3.2,4.4-5.2,7.3-6.9c3.1-1.8,6.5-3.1,9-5.7c1.8-1.9,3.2-4.1,4.5-6.4
		c1.4-2.4,2.6-5,2.8-7.8c0.1-1.6,1.2-2.7,2.6-1.3c1.2,1.1,2.1,2.5,3.1,3.8c1,1.3,1.9,2.8,3.2,3.8c2,1.1,4.6-0.5,6.2-1.8
		c2.6-2.5,3.8-8.8,2.2-12c-0.8-1.3-0.6-3.1,1.3-2.6c2.4,0.7,4.3,2.4,6,4.2c1.8,2,3.7,3.8,5.2,6c1.8,2.5,3,5.6,5.3,7.8
		c2.5,2.3,6.2,1.8,8.8,0c1.6-1.1,2.7-2.8,3.3-4.6c0.5-1.6,0.7-3.3,0.8-4.9c0.1-1.5,0-2.9,0.1-4.4c0-0.5,0.3-1,0.8-1
		c0.2,0,0.5,0,0.6,0.2c0.6,0.5,1,1.3,1.5,1.9c0.6,1,1.2,2,1.8,2.9c0.8,1.3,1.8,2.6,3.1,3.5c5.7,4.4,13.9,3,14.9-5
		c0.1-2.2-0.1-4.4,0.9-6.5c0.3-0.7,0.6-1.4,1.1-2c0.1-0.2,0.3-0.3,0.5-0.3c0.4-0.1,0.7,0.2,0.8,0.6c0.5-0.5,1.3-0.1,1,0.6
		c0.3,1.6,1.1,3.2,1.7,4.7c0.8,1.7,1.9,3.3,3.5,4.3c3,1.7,6.5,2.4,9.7,3.3c3.6,1,7.5,1.8,10.6,4c3.4,2.6,4.9,7,6.3,10.9
		c1,2.9,1.4,5.9,1.9,8.9c0.5,2.3,1.3,5.1,3.7,6l0.2,0c0.1,0,0.2,0,0.2,0c0.1,0,0.2,0,0.2,0c0.1,0,0.2-0.1,0.2-0.1
		c1.1-0.6,1.4-2,1.7-3.2c0.5-3.1-0.1-6.2-1-9.2c-0.2-0.7-0.5-1.4-0.8-2c-0.4-1.1-1.4-2-1.1-3.3c0.1-0.5,0.6-1,1.2-1
		c0.4,0,0.8,0.2,1.2,0.4c1.3,0.8,2.3,1.9,3.4,2.9c1.5,1.5,2.7,3.4,3.9,5.2c1.2,1.8,2.3,3.6,3.2,5.6c1.8,3.7,1.5,6.7,1.1,10.6
		c-0.1,2.9-0.5,6,1.1,8.5c0.8,1.3,2.3,2.7,3.9,2.3c1.8-0.6,3-2.3,3.7-3.9c0.6-1.1,1.7-1.2,2.2,0.1c0.4,1.1,0.5,2.3,0.5,3.5
		c0.1,3-0.1,6,0.1,8.9c0.2,2.5,0.7,5.3,2.9,6.8c3.2,2,5.2,0,5.8-3.2c0.2-1.4,0.3-2.7,0.2-4.1c0-0.7-0.1-1.5-0.2-2.2
		c0-0.4,0.1-0.7,0.3-1c0.3-0.3,0.9-0.3,1.2,0c1.2,1.8,1.9,4,2.7,6.1c0.7,2,1.6,3.9,2.4,5.8c2.3,5.8,4.8,11.6,6,17.8
		c0.9,4.5,1.1,9,1.1,13.5c0.1,4.1-0.7,8.1-2.1,11.9c-0.7,1.9-1.5,3.6-2.4,5.4c-1.3,2.4-2.9,4.6-3.8,7.2c-0.6,2-1,4.3,0.2,6.1
		c2.1,3.2,6.3,2.4,8.4-0.4c1.2-1.4,1.9-3.1,2.8-4.7c0.3-0.5,1.1-0.4,1.3,0.1c0.3,0.5,0.1,1-0.1,1.5c-1.1,3.5-1.8,7-2,10.7
		c-0.4,4.2-1,8.3-2,12.4c-0.7,3-3.3,10.3-0.7,12.6c1.1,1,3,1.2,3.9,0.1c0.6-0.8,0.4-1.8,0.4-2.6c-0.1-1.5-0.2-3.1,0.1-4.5
		c0.3-1.6,1-3,1.8-4.5c0.2-0.4,0.3-0.7,0.5-1.1c0.2-0.3,0.3-0.7,0.7-0.8c0.4-0.2,0.9,0.2,1,0.6c0.1,0.6,0,1.2,0,1.9
		c0.1,1.6,0.8,3.2,1.3,4.7c0.6,1.8,1.2,3.6,1.5,5.4c0.6,4.1,0.6,8.3,0.3,12.4c-0.3,3.5-1.3,6.8-2.6,10c-0.9,2.2-2,4.2-3,6.3
		c-0.9,2.1-1.8,4.2-2.6,6.3c-0.7,1.9-1.5,3.7-2.1,5.6c-0.7,2.2-1.1,4.5-1.6,6.8c-0.6,3.3-1.5,6.6-3,9.5c-1.1,2.1-2.4,4.2-4,5.9
		c-1.3,1.4-2.9,2.4-4.5,3.6c-1.5,1.3-3.3,2.5-5,3.5c-0.8,0.5-1.6,1.1-2.4,1.7c-0.7,0.5-1.3,1.1-2.2,1.1c0,0-0.1,0-0.1,0
		c-0.4,0.5-0.9,0.9-1.5,1.2c-1.3,0.7-2.9,0.9-4.3,1c-2.4,0.2-4.7,0.2-7.1,0.2c-3.2,0-6.5,0-9.7-0.4c-2.3-0.2-4.6-0.8-6.9-1.2
		c-1.4-0.2-2.8-0.3-4.2-0.5c-1.2-0.2-2.5-0.4-3.7-0.6c-0.4-0.1-0.6-0.4-0.7-0.7c-0.9,2.1-2.4,3.8-4.2,5.3c-0.4,0.4-0.8,0.8-1.2,1.1
		c-0.6,0.6-1.5,1.9-2.3,0.9c0,0,0,0,0,0c-2.7,4.1-10.3,4.7-14.7,4.7C125,253.8,121.4,253.1,117.8,252.4z"/>
	<path class="st1" d="M191.5,177.2c-0.6,0.8-1.9,1.1-2.4,2c-0.2,0.3-0.3,0.7-0.4,1.1c-0.2,0.8-0.3,1.6-0.4,2.4
		c-0.1,0.9-0.2,1.7-0.1,2.6s0.6,1.7,1.3,2.2c0.8,0.5,1.8,0.5,2.8,0.5c1.3-0.1,2.6-0.1,3.9-0.2c1-0.1,2-0.1,2.9-0.7
		c1.1-0.7,1.7-2,1.9-3.2c0.2-1.3,0.1-2.7-0.6-3.7c-0.7-1.1-2-1.7-3.3-2c-1.3-0.3-2.6-0.7-3.9-0.7L191.5,177.2z"/>
	<path class="st2" d="M190.8,239.7c3.5-9.9,4.7-20.5,4.2-30.9c0-3.3-0.4-6.5-1-9.7c-0.2-1.2-0.3-2.4-0.4-3.6c0-0.2,0-0.3-0.1-0.5
		c1.2-0.4,2.4-1,3.4-1.9c2.2-2.1,4.9-4.7,5.6-7.8c3.2-3.4,3.4-8.8,1.4-12.9c-0.6-1.2-1.6-2.3-3-2.8c-2.5-0.7-5.3-0.4-7.5,0.9
		c0.6-4.8,1.7-9.5,2-14.3c0-1,0.2-2.6-1.1-2.8c-0.7,0.1-1.2,0.8-1.7,1.2c-0.6,0.6-1.1,1.1-1.7,1.7c-3,2.8-4.2,5.2-5.1,9.2
		c-0.6-2.6-1.3-5.2-1.9-7.8c-0.4-1.8-1.4-4.5-3.3-2c-0.8,0.9-1.5,1.9-2,3c-1.2,2.3-1.6,4.9-1.9,7.4c-0.3,2.5-0.6,5.1-0.4,7.7
		c0.1,0.4,0.1,0.8,0.1,1.3c-0.7-0.1-1.4-0.1-2.1-0.2c-4.8-0.3-9.6-1.3-14.2-2.4c-2.3-0.5-4.6-1.2-6.8-1.9c-2.8-0.9-5.6-1.5-8.4-2.3
		c-1.7-0.4-3.5-0.6-5.1-1.2c-2.8-1-5.3-2.8-8-4.1c-0.7-0.4-1.5-0.7-2.3-0.9c0,0,0,0,0,0c0-0.1,0-0.2,0-0.3c0,0,0,0,0,0
		c2.6-0.1,5.2-0.1,7.9-0.3c3.5-0.1,7.1-0.2,10.6-0.4c3.5-0.2,7-0.7,10.5-1.2c3.5-0.4,6.8-1.4,10.1-2.6c3.1-1.1,6.4-2,8.8-4.4
		c3.8-3.5,6.4-8.1,8.1-12.9c1.1-3.2,1.3-6.6,1.3-9.9c0-1.1,0.1-2.1,0-3.2c0.1,0,0.1,0,0.2-0.1c1.8-0.8,3.3-2,4.8-3.2
		c1-0.9,1.9-1.8,2.7-2.9c1.5-2,2.2-4.5,2.3-7c0.2-2.6,0.2-5.2,0.1-7.8c-0.2-5-0.3-10.3-2.9-14.8c-2.9-4.8-8.6-7.8-14.2-7.8
		c-2.8-0.1-5.6,0.1-8.2,0.9c-0.3,0.1-0.6,0.2-0.9,0.3c0,0,0,0,0,0c0.4-0.7,1.2-4,0.7-4.8c0.7-1.2,1.1-2.7,1-4.1
		c-0.2-1.7-1.2-3.2-2.4-4.4c0.1-0.5,0.2-1,0.2-1.4c0.5-4.3-2.7-7.8-6-10.1c-0.4-0.3-0.8-0.5-1.1-0.7c0-0.1-0.1-0.2-0.1-0.3
		c-0.8-1.2-1.7-2.3-2.8-3.3c-1.3-1.1-2.6-2.2-4.1-3c0-0.1,0-0.2,0-0.3c-0.2-2.8-1.4-5.5-2.9-7.9c-1.3-1.9-2.7-3.7-4-5.6
		c-0.9-1.4-1.9-2.9-3.5-3.6c-1.4-0.8-3-1.3-4.5-1.8c-2.3-0.8-4.7-1.2-7-1.5c-3.3-0.5-6.7-0.5-9.9,0.3c-1.7,0.3-3.3,1-4.7,1.9
		c-1.4,0.8-2.9,1.6-4.2,2.5c-1.4,0.9-2.7,2-3.8,3.2c-0.4,0.6-1.6,1.8-2.1,2.9c-0.6-0.2-1.1-0.3-1.7-0.5c-2-0.5-3.9-0.6-6-0.7
		c-2.6,0-5.2,0.3-7.8,0.6c-1.9,0.2-3.9,0.7-5.8,1.1c-0.4,0.1-0.8,0.1-1.2,0.3c-0.1,0-0.1,0.1-0.2,0.2c-1-1.4-2-2.9-3.3-4
		c-1.3-1-2.6-2-4-2.8c-4.7-2.3-8.8-3.6-14-3.2c-4,0.2-8.1,0.6-11.9,2c-2.4,0.6-4.8,1.6-6.9,3c-6,3.6-7.9,5.8-11.3,11.8
		c-1.9,2.8-3.2,5.8-4.2,9c-0.6,1.7-1.1,3.5-1.3,5.4c-0.1,1.5-0.3,3.1-0.6,4.6c-0.7,3-1.4,6-1.8,9.1c-0.1,1-0.5,3.3-0.3,4.7
		c-0.2,0.1-0.3,0.1-0.5,0.2c-0.7,0.4-1.4,0.8-2.1,1.2c-1.4,0.8-2.8,1.6-4.2,2.5c-1.4,0.9-2.8,2-4.1,3.1c-2,1.7-3.8,3.5-5,5.9
		c-3.6,7.2-4.5,15.6-3.9,23.5c0.3,3.5,0.8,7.1,2.4,10.3c1.8,3.1,4,6.1,6.6,8.6c2.5,2.6,5.4,4.8,8.6,6.4c1.6,0.8,3.3,1.5,4.9,2.3
		c0.8,0.4,1.5,0.8,2.4,1.1c2.5,0.7,5,1.3,7.5,1.8c3.6,0.9,7.3,1.5,10.9,2.4c0.9,0.2,1.9,0.4,2.8,0.7c0,0.1-0.1,0.1-0.1,0.2
		c-0.5,0.6-0.9,1.2-1.2,1.9c-0.2,0-0.5,0.1-0.7,0.1c-3,0.7-12.5,2-12.5,5.9c0.2,2.1,1.9,3.8,2.9,5.6c1.2,1.9,2.4,3.8,3.3,5.9
		c-0.1,0.4-0.2,0.8-0.3,1.2c-3.4,1.3-8.4,1.5-10.6,4.4c-0.9,1.2-1,2.8-0.4,4.2c0.6,1.5,1.5,2.8,2.3,4.2c1.2,2.2,2.6,4.2,4.5,5.9
		c0.3,0.3,0.6,0.5,0.9,0.8c0,0.2,0,0.5-0.1,0.7c0,0.4-0.1,0.8-0.1,1.2c-0.6,0.2-1.3,0.6-1.7,0.8c-2.6,1.1-8.9,3.7-8.7,7.1
		c0.1,0.9,0.6,1.5,1.1,2.3c0.4,0.7,0.9,1.4,1.4,2c1,1.3,1.9,2.7,2.8,4c0.7,1,1.3,2.1,2.3,3c-1,1-2,1.9-3,2.9
		c-1.4,1.4-2.9,2.6-4.6,3.7c-1.4,0.9-2.9,1.6-4.3,2.5c-1.3,0.8-2.4,1.9-3.7,2.9c-2,1.6-3.9,3.3-6,4.8c-1.5,1.2-2.9,2.6-4.3,3.9
		c0.2-0.4,0.4-0.9,0.6-1.3c1.2-3.1,1.9-6.5,2.1-9.8c0.2-2.4,0.2-4.8-0.1-7.1c-0.2-2.5-0.9-4.7-3.1-6.2c-1.2-0.9-2.5-1.5-3.7-2.4
		c-2.1-1.6-3.9-3.9-4.6-6.5c-0.8-2.9-0.9-6-0.6-9c0.3-3.3,1.7-6.5,4.3-8.6c0.2,2.6,1.6,5.2,4,6.4c3.8,1.5,5.4-5.1,5.9-7.8
		c0.7-3.4,0.4-6.9-1.8-9.7c-2-2.7-4.4-5-6.4-7.7c-4.4-5.5-6.7-12.3-5.6-19.4c1.6,1.7,5,4.2,7.4,3.2c3.2-1.9,1-6.3-0.9-8.4
		c-3.3-3.5-5.5-7.6-6.9-12.2c-1.4-4.1-1.8-8.4-1.8-12.7c0-7.6,1.1-15.6,5.4-22.1c2.2-3.1,4.7-6,6.1-9.6c0.9-2.3,1.5-4.8,2.1-7.2
		c1.1-4.6,1.3-9.3,1.2-14c-0.1-3.1-0.8-6.2-1.2-9.3c1.7,1.5,2.8,3.7,4.8,4.8c3,1.2,5.1-2.3,6-4.6c2-4.7,1.1-10.3,3.9-14.7
		c1.8-2.5,4.5-3.8,7.1-5.4c3.1-1.7,6.5-3.3,8.8-6c2.2-2.7,4.1-5.7,5.5-8.8c0.9-1.8,1.5-3.8,1.7-5.8c1.3,1.3,2.3,2.8,3.4,4.3
		c1,1.3,1.9,2.8,3.4,3.6c2.2,1.1,4.7,0,6.6-1.3c4.1-2.6,5.6-10.5,3.9-14.9c2.3,1,4,2.9,5.7,4.8c1.2,1.3,2.5,2.6,3.5,4
		c1.3,1.7,2.3,3.7,3.5,5.5c0.9,1.4,2,2.8,3.4,3.8c2,1.3,4.6,1.6,6.9,0.9c3.3-1,5.7-3.6,6.8-6.8c0.8-2.6,0.9-5.4,1-8.1
		c1.4,2.3,2.7,4.8,4.7,6.6c3.7,3.3,9.6,4.6,13.8,1.7c1.5-1,2.5-2.5,3.3-4c0.8-1.6,1-3.4,1-5.1c0-1.1,0-2.3,0.3-3.3
		c0.3-0.8,0.7-1.6,1.1-2.3c0,0.2,0,0.3,0.1,0.5c1,3.6,2.4,7.4,5.6,9.6c3.6,2.2,7.9,2.9,11.9,4c3.3,1,7.2,1.8,9.7,4.5
		c2.6,3.2,4.5,8.5,5.3,12.5c0.4,2,0.5,4.1,1.1,6.1c0.7,2.4,2,5.2,4.6,6.1c3,0.7,4.5-2.9,4.7-5.4c0.5-4.4-0.7-9-2.6-12.9
		c3,2.3,5.2,5.5,7.2,8.6c1.2,1.8,2.1,3.6,2.8,5.7c0.8,2.4,0.5,4.9,0.3,7.4c-0.1,1.7-0.3,3.4-0.2,5.1c0.1,2.7,1.1,5.6,3.3,7.3
		c3.2,2.7,6.4,0.1,8.1-2.9c0.6,4.7-0.4,9.5,0.7,14.1c0.6,2.7,2.5,5.2,5.2,6c5.1,1.3,6.5-4.8,6.4-8.6c2.8,7.5,6.2,14.6,8.3,22.3
		c1.3,4.8,1.8,9.8,1.8,14.8c0.5,7.9-1.9,14.5-6,21.1c-2,3.4-3.8,8.1-1.8,11.8c2.6,4.4,8.1,3.9,11,0.1c-0.8,3.9-0.8,7.9-1.5,11.8
		c-0.3,2.1-0.7,4.3-1.3,6.4c-0.5,2-1.2,4-1.5,6.1c-0.5,3-1.1,6.9,1.8,8.9c2,1.5,5.5,1,6.3-1.6c0.4-1.4,0.2-2.9,0.1-4.3
		c-0.2-1.9,0.3-3.8,1.2-5.6c0.7,2.9,2.1,5.7,2.6,8.7c0.5,3.1,0.6,6.3,0.5,9.5c-0.2,3.1-0.5,6.1-1.6,9.1c-0.9,2.8-2.2,5.5-3.5,8.1
		c-1.1,2.2-2,4.4-2.9,6.7c-1.2,3-2.4,6-3.2,9.2c-1,4.2-1.5,8.6-3.4,12.6c-1.3,2.5-2.7,5.1-4.9,7c-1.2,1-2.5,1.8-3.7,2.8
		c-1.5,1.3-3.1,2.3-4.8,3.4c-0.6,0.4-1.3,0.9-2,1.4c-0.1,0.1-0.2,0.2-0.3,0.2C190.7,240,190.8,239.9,190.8,239.7z"/>
	<path class="st2" d="M161.1,208c-1.4-0.1-2.7-0.1-4.1-0.1c-1.1,0-2.3,0.1-3.4,0c-0.3,0-0.7-0.1-0.9,0.1c-0.6-4.2-1.4-8.6-3.5-12.3
		c-0.9-1.6-1.9-3-3-4.5c-0.7-0.9-1.3-1.8-2-2.7c1.8,0.4,3.7,0.6,5.6,0.7c3,0.4,6.1,0.5,9.1,0.7c2.6,0,5.2-0.2,7.8-0.2
		c2.3-0.1,4.6-0.1,6.9-0.5c0.6-0.1,1.2-0.2,1.8-0.4c0.3,0.9,0.7,1.8,1.2,2.6c0.4,0.7,0.8,1.2,1.2,1.7c-0.1,0.3-0.2,0.7-0.2,1.1
		c-0.4,2.4-0.4,4.8-0.4,7.3c-0.1-0.3-0.2-0.7-0.5-1.3c0.2-0.4,0.1-0.9-0.3-1.1c0,0-0.1,0-0.1,0c-1.3-3.6-3.7-9.3-5.4-7.9
		c-1.8,1.8-1.8,4.5-1.9,6.9c0,3.7,0.3,7.3-0.2,11C166.2,208.9,163.7,208.2,161.1,208z"/>
	<path class="st3" d="M141.5,200.6c-0.6,0-1-0.1-1.3-0.7c-0.4-1,0.5-2,1.1-2.7c0.6-0.5,1.6-1.8,2.5-1.1c0.6,0.5,0.7,1.4,0.9,2.1
		C145.3,200.4,143.2,200.8,141.5,200.6z"/>
	<path class="st3" d="M47.6,197.9c-1.1-1.6-1-4.6-0.6-6.4c0.3-1.6,1.8-3.4,3.5-2.7c1.8,0.9,1.3,3.6,1,5.2c-0.3,1.2-0.7,2.6-1.7,3.4
		C49.5,198.2,48.3,198.7,47.6,197.9z"/>
	<path class="st3" d="M45.4,210.5c-1.1-0.7-0.9-2.2-0.9-3.4c0.1-1.9,0.4-5.2,2.5-6.1c1.9-0.4,2.2,2.6,2.1,3.9c-0.2,1.3-0.6,4.7-2,5
		C46.5,210.4,46,210.9,45.4,210.5z"/>
	<path class="st3" d="M42.1,218.2c-1.2-0.4-0.4-1.8,0.1-2.5c0.4-0.6,1-1.2,1.7-1.4c1.1-0.3,1.7,0.8,1.2,1.7
		C44.6,217,43.4,219.1,42.1,218.2z"/>
	<path class="st3" d="M14.9,109.8c0,0,0.1-0.1,0.1-0.1c-0.1,0-0.1-0.1-0.1-0.1C14.9,109.6,14.9,109.7,14.9,109.8
		C14.9,109.8,14.9,109.8,14.9,109.8z M15.2,113.2c-1.7,0-1.6-2.1-1.9-3.3c-0.2-1.8,0.2-3.7,0.7-5.5c0.7-2,1.4-4.5,3.5-5.4
		c1.4-0.7,3.1,0.3,3.5,1.8c0.3,1,0,2-0.1,3c-0.5,3-1.5,6.1-3.7,8.3C16.6,112.6,16,113.2,15.2,113.2z"/>
	<path class="st3" d="M28.3,90.3c0.4,1.2-0.5,2.9-1.1,3.9c-0.7,1-1.6,2.1-2.9,1.9c-2.5-0.8-0.1-5.9,1.8-6.1
		C26.8,89.3,27.9,89.1,28.3,90.3z"/>
	<path class="st3" d="M42,197.4c0.1,0.5,0,1,0,1.5c-0.3,2.9-0.3,5.9-0.4,8.8c-0.1,0.9,0.3,5.6-1.4,4.7c-0.1,0.2-0.4,0.4-0.6,0.3
		c-0.4-0.1-0.7-0.4-0.9-0.7c-0.3-0.4-0.7-0.9-1-1.4c-0.9-1.3-2.1-3-3-4.7c-0.2,0.1-0.5,0-0.7-0.3c-0.6-1.2-1.6-2.4-1.6-3.8
		c0-0.6,0.6-1.3,1.2-0.8c0.8-1.4,2.7-2,4-2.7c1-0.4,2-1,2.9-1.6C41.1,196.4,41.9,196.7,42,197.4z"/>
	<path class="st3" d="M45.6,175c0.4,0.2,0.6,0.7,0.5,1.1c-0.7,2.1-1.4,4.2-1.8,6.4c-0.3,1.9-0.7,3.8-1.1,5.7
		c-0.2,1.1-0.3,2.2-0.6,3.2c-0.1,0.4-0.5,0.7-0.9,0.6c-0.1-0.1-0.1-0.2-0.2-0.3c-0.1-0.1-0.3-0.3-0.4-0.4c0,0,0-0.1,0-0.1
		c-1.5-1.5-2.2-3.6-3.4-5.3c-0.8-1.2-1.8-2.3-2.4-3.7c-0.5-1.3-0.6-2.9,0.4-3.9c0.2-0.2,0.4-0.4,0.6-0.6c0.4-0.2,0.7-0.4,1.1-0.6
		c0.8-0.3,1.6-0.5,2.4-0.9c1.3-0.5,2.6-0.9,4-1.2C44.4,175.1,45.1,174.8,45.6,175z"/>
	<path class="st3" d="M50.7,156c1.1,0.1,2,0.6,1.6,1.8c-0.8,1.6-2,2.9-2.7,4.6c-0.5,1.1-0.9,2.2-1.2,3.3c-0.2,0.5-0.3,1.1-0.4,1.6
		c-0.2,0.8-0.1,2.6-1,2.8c-0.1,0.3-0.5,0.5-0.8,0.3c-0.5-0.3-0.7-0.9-1-1.4c-0.6-1.1-1.3-2.1-2.1-3.1c-1-1.4-2.8-3.6-2.7-5.3
		c0.1-0.5,0.3-1,0.6-1.3c0.9-0.5,1.8-1,2.8-1.4c1.5-0.5,2.9-1.1,4.4-1.5C48.9,156.3,49.9,156.3,50.7,156z"/>
	<path class="st3" d="M136.2,196.4c0.1,2-0.4,2.9-2.5,3c-3.9,0.3-4.2-1-5.2,3.5c-0.2,0.8,0.1,2.2-1,2.3c-1-0.1-0.8-1.5-1-2.2
		c-0.2-0.8-0.3-1.6-0.7-2.3c-1.2,0.2-2.5,0.3-3.7,0.5c-1.3,0.3-2.7,0.6-4,0.4c-0.1,0-0.2-0.1-0.3-0.1c-0.4,0.4-0.5,0.9-0.7,1.6
		c-0.2,1.3-0.3,2.6-0.4,3.9c-0.2,1.3-0.4,2.6-0.4,3.9c-0.1,1.3-0.1,2.6-0.2,3.9c-0.1,0.6,0,1.4-0.4,1.9c-0.3,0.3-0.6,0.3-0.9,0.1
		c-0.2-0.2-0.4-0.5-0.5-0.7c-0.3-0.6-0.7-1.2-1.1-1.7c-2.8-3.1-6.6-5.3-10.5-6.8c-0.8-0.4-1.6-0.8-2.4-1.2c-2.3-1-5-0.9-7.3,0.1
		c-1.4,0.5-1.9,0.4-2.7-0.8c-0.2-0.3-0.4-0.6-0.7-0.8c-0.2,0.2-0.4,0.3-0.7,0.2c-0.9-0.4-1.3-1.2-2.1-1.7c-1.9-1.2-4.2-2.1-5.6-3.9
		c-0.2,0-0.3-0.2-0.3-0.3c0,0,0,0.1,0,0.1c-0.1,0.4-0.6,0.5-0.9,0.3c-0.7-0.6-0.1-1.9,0-2.7c0.7-3.1,1.7-6,2.6-9
		c0.7-2.3,1.6-4.6,2.8-6.7c1.1-2.1,2.2-4.3,3.8-6.1c2.1-2.5,4.8-4.2,7.6-5.6c1.8-1.1,3.9-1.6,6-2c3.3-0.6,6.5-0.9,9.8-0.3
		c2.4,0.4,4.7,1,6.8,2.2c2.7,1.6,5.5,3.2,7.5,5.7c0.8,1,1.6,2.3,2.2,3.3c1.7,2.4,3.4,4.8,4.5,7.7c0.4,1,0.7,2.1,0.9,3.1
		c0.1,0.5,0.3,1.2,0.2,1.7C136.1,192,136,194.7,136.2,196.4z"/>
	<path class="st3" d="M174.6,197.6c1.4,2.7-0.4,2.7-2.6,2.6c-1.6,0-2.1,0-2.1-1.8c0.1-1.2,0.3-2.4,0.5-3.5c0.1-0.6,0.4-1.4,1.1-1.6
		C173.1,193.1,174.1,196.3,174.6,197.6z"/>
	<path class="st3" d="M178.9,198.4c-0.8-0.7-0.5-1.9-0.4-2.9c0.1-0.5,0.1-1,0.4-1.4c0.3-0.4,0.9-0.5,1.1,0c1,0.1,1.7,0.9,2.7,1.2
		c0.2,0.1,0.4,0.3,0.6,0.6c0.4,0.3,0.8,0.6,0.9,1.1c0.2,0.8-0.4,1.5-1.2,1.6c-0.8,0.1-1.5,0.1-2.3,0.1
		C180,198.8,179.4,198.8,178.9,198.4z"/>
	<path class="st3" d="M182.8,197c-0.8-0.2-0.6-1.7,0.3-1.5C183.8,195.8,183.6,197.1,182.8,197z"/>
	<path class="st3" d="M192.4,195.4c0.7,0.8,0.4,2.1-0.2,2.8c-0.5,0.6-2.3,1.3-3,0.9c-0.3-0.1-0.5-0.5-0.5-0.8c-0.3-0.4,0-0.9,0-1.4
		c0.1-0.4,0.2-0.8,0.3-1.1c0.3-1.2,1.1-1.4,2.1-1C191.6,195,192.1,195.1,192.4,195.4z"/>
	<path class="st4" d="M96.3,129c0.3,0.1,0.6,0.1,0.9,0.2c-0.1,0.1-0.1,0.2-0.2,0.3c-0.5,0.8-1.1,1.6-1.8,2.3
		c-1.5,1.2-4.2,2.6-6.1,2.3c-1.2-0.4-1.8-1.8-2.5-2.7c-1.4-2.2-3-4.1-4.7-6c-0.2-0.2-0.4-0.5-0.6-0.7c0.1,0,0.2,0,0.2,0
		c1.8,0.2,3.5,0.6,5.2,1.2C89.9,127,93,128.4,96.3,129z"/>
	<path class="st4" d="M118.9,132c-0.1,0.1-0.1,0.2-0.2,0.3c-1.7,2.6-5,5.1-8.2,5.1c-1.9-0.1-3.6-2.8-4.9-4.1c-0.9-1-1.8-1.9-2.7-2.8
		c0,0,0-0.1,0-0.1c1.1,0.2,2.2,0.4,3.3,0.6c2.6,0.3,5.3,0.5,7.9,0.7c1.4,0.1,2.7,0.2,4.1,0.3C118.4,131.9,118.7,131.9,118.9,132z"/>
	<path class="st4" d="M141.5,132.3C141.5,132.3,141.5,132.3,141.5,132.3c-0.7,1.1-1.3,2.2-2.1,3.1c-1.5,1.7-3.4,3-5.6,3.6
		c-3.3,1-5.2-2.2-7.3-4.2c-0.8-0.8-1.6-1.6-2.4-2.4c3.1,0,6.1,0,9.2,0c2.6,0,5.3,0,7.9-0.1C141.3,132.3,141.4,132.3,141.5,132.3z"/>
	<path class="st4" d="M161.6,131.3c-0.2,0.3-0.4,0.7-0.5,1c-1.4,2.7-3.5,5.3-6.5,6.2c-2.7,0.5-5.2-2.5-6.9-4.3
		c-0.6-0.7-1.3-1.4-2-2.1c2.6,0,5.1,0,7.7-0.2c1.5-0.1,2.9-0.2,4.4-0.3C159,131.7,160.3,131.5,161.6,131.3z"/>
	<path class="st4" d="M182.3,128.2c-0.3,0.5-0.6,1.1-0.8,1.4c-0.8,1.2-1.7,2.2-2.7,3.3c-1,1.1-1.8,2.6-3.3,3.2
		c-1.6,0.1-3.2-0.9-4.5-1.7c-1.7-1-3-2.5-4.4-3.9c3.6-0.5,7.3-1,10.9-1.6C179.1,128.8,180.7,128.5,182.3,128.2z"/>
	<path class="st4" d="M67.6,70.4c0.1,0,0.2-0.1,0.3-0.1c-2.3,3-3.2,6.5-2.9,10.4c0.3,2.4,1.3,4.9,2.9,6.8c-0.8-0.1-1.6-0.1-2.4-0.2
		c-2.5-0.2-5-0.5-7.3-1.5c-0.8-0.4-1.6-0.8-2.5-1.2c-1.7-0.7-3.5-1.5-4.7-2.9c0,0,0-0.1,0-0.1c1.6-1.9,3.6-3.5,5.5-5.1
		C59.8,73.8,63.7,72.1,67.6,70.4z"/>
	<path class="st4" d="M84.4,72.4c0.8,0.4,1,1.5,0.7,2.3c-0.3,0.9-1.3,1.3-2.1,1.4c-0.4,0.1-0.8-0.1-1-0.5c-0.2-0.6-0.4-1.1-0.5-1.7
		c-0.1-1,0.5-1.5,1.3-1.9C83.3,72.5,84,72.2,84.4,72.4z"/>
	<path class="st4" d="M104.4,73.1c1.6,3.5,1.2,8.4-1.7,11.1c-1,0.9-2.3,1.3-3.5,1.6c-2,0.5-4,0.8-6,1C92,87,90.8,87,89.7,87.1
		c0.7-1.7,1.2-4.2,1.2-4.8c0.3-2.5,0.1-5-0.1-7.6c-0.2-3.3-1.5-6.5-4.4-8.1c2-0.1,4.1,0,6.1,0.1C97.5,67.3,102.1,68.2,104.4,73.1z"
		/>
	<path class="st4" d="M134.3,70.7c-0.8,1.2-1.4,2.6-1.6,3.6c-0.6,2.9-0.4,6.1,1,8.7c-2.2-0.6-4.3-1.3-6.4-2.2
		c-0.9-0.4-1.8-0.9-2.7-1.5c-0.3-0.2-0.8-0.6-1.2-0.7c0-0.1-0.1-0.3-0.2-0.3c0.2-0.2,0.3-0.3,0.5-0.4
		C126.9,75.1,130.4,72.6,134.3,70.7z"/>
	<path class="st4" d="M168.3,71.9c2.2,1.8,3.6,4,2,6.8c-0.6,0.9-1.3,1.6-2.2,2.1c-1.8,1.2-3.8,2-5.9,2.4c-2.4,0.5-4.8,1.1-7.2,1.5
		c-0.7,0.1-1.4,0.2-2.2,0.3c0.1-0.1,0.1-0.2,0.2-0.3c0.3-0.4,0.5-0.8,0.8-1.2c1.8-2.7,2.2-6.2,1.9-9.3c-0.2-2.5-1.3-4.9-3.1-6.6
		c-0.1-0.1-0.2-0.2-0.4-0.3c0.8,0,1.7,0.1,2.5,0.2c1.6,0.2,3.1,0.6,4.7,0.9c1.6,0.2,3.2,0.4,4.7,0.8C165.8,69.6,167,70.8,168.3,71.9
		z"/>
	<path class="st4" d="M148.5,71.9c0.7,0.2,1.5,0.9,1.4,1.7c-0.2,0.8-0.8,1.7-1.7,1.8c-1.1,0-1.9-1.2-1.8-2.2
		C146.6,72.2,147.7,72.1,148.5,71.9z"/>
	<path class="st1" d="M53.6,153c0.8,0.7-0.2,1.6-0.7,2.2c-0.2,0.5-0.8,0.9-1.3,0.4c0-0.1-0.1-0.1-0.1-0.2c-0.3,0.3-0.6,0.4-0.9,0.5
		c-0.8,0.3-1.7,0.2-2.5,0.4c-1.5,0.4-2.9,1-4.4,1.5c-1,0.4-1.9,0.9-2.8,1.4c-0.1,0.1-0.3,0.2-0.4,0.2c-0.4,0.2-0.8,0.4-1,0.8
		c0,1,0.2,2,0.5,2.9c0,0,0,0,0,0c0.8,1.1,1.5,2.2,2.4,3.3c0.2,0,0.4,0.2,0.5,0.4c0.3,0.3,0.6,0.7,0.8,1c0.9,1.3,1.5,2.8,1.7,4.4
		c0.1,0.2,0.2,0.5,0.2,0.7c0,0.9-0.8,1.4-1.6,1.7c-1.5,0.5-3,0.7-4.5,1.3c-0.7,0.3-1.4,0.6-2,1c0,0-0.1,0.1-0.1,0.1
		c-0.3,0.2-0.7,0.4-1.1,0.6c-0.9,0.5-1.8,0.9-2.4,1.8c0.2,1.8,1.4,3.4,2,5c0.8,1.6,1.5,3.2,2.6,4.6c0.7,0.9,1.6,1.5,2.5,2.3
		c0.1,0.1,0.3,0.3,0.4,0.4c0.1,0.1,0.2,0.2,0.2,0.3c0.7,1,0.9,2.4-0.2,3.2c-2.4,1.6-8.9,3.5-10,6.3c0,1.6,1.2,3,2.2,4.2
		c1.5,2.1,2.9,4.3,4.3,6.4c1.2,1.6,1.1,2.7-0.3,4.2c-1.1,1.3-2.4,2.5-3.8,3.5c-1.6,1-3.2,1.9-4.8,3c-1.5,1-3,1.9-4.4,2.9
		c-0.5,0.4-1,0.8-1.6,1.2c-0.3,0.2-0.7,0.4-1,0.2c-0.1,0-0.1-0.1-0.2-0.1c-0.5,1.3-1.5,2.9-2.3,2.1c-0.2-0.3-0.3-0.8,0-1.1
		c0.2-0.1,0.3-0.3,0.4-0.5c0.8-1.3,1.2-2.8,1.4-4.3c0.2-2.8-1.1-5.7-2.8-7.9c-1.1-1.4-2.5-2.7-3.1-4.5c-1-3-0.8-6.2-0.4-9.3
		c0.1-0.8,0.1-1.8,0.6-2.4c0.5-0.5,1.1-0.1,1.4,0.4c0.8,1.2,3.1,3,4.3,1.4c0.8-1.2,0.9-2.7,0.7-4.1c-0.3-1.7-0.9-3.4-1.6-4.9
		c-0.2-0.5-0.1-1.1,0.3-1.5c0.7-0.5,1.7,0,2.5-0.2c2.3-0.6,2.3-5.3,2.4-7.2c-0.2-2.5-1.2-4.9-2.7-6.9c-1.9-2.1-3.6-4.4-4.7-7
		c-1.1-3.2-1.4-6.8-1.2-10.2c0.3-0.9,1.2-0.7,1.7-0.1c0.6,0.7,1.3,1.3,2.1,1.8c0.7,0.4,1.5,0.9,2.3,0.7c1.5-0.8,1.5-4.2,1.1-5.7
		c-0.5-2.2-2-4-3.6-5.5c-2.3-2.2-3.6-5.4-4.1-8.5c-0.1-0.8-0.3-1.6-0.2-2.5c0.1-0.5,0.6-0.8,1-0.6c0.2-0.1,0.5-0.2,0.7,0
		c0.6,0.4,1,0.9,1.5,1.4c1.3,1.1,2.8,2,4.3,2.9c1.8,1.2,3.7,2,5.7,2.9c1.4,0.7,2.8,1.6,4.3,2c4.1,1.1,8.3,1.6,12.5,2.6
		c1.4,0.3,2.8,0.3,4.2,0.6c0.6,0.1,1.2,0.3,1.6,0.8c0.1,0.1,0.1,0.1,0.1,0.2c0,0,0,0,0,0C53.1,151.6,53.7,152.4,53.6,153z"/>
	<path class="st1" d="M185.1,78.8c0,1.4,0,2.9-0.3,4.3c-0.2,0.9-0.6,2.1-1.8,1.8c-3.3-0.8-3.9-0.6-7.1,0c-1.1,0.2-2.4,0.2-3.4,0.2
		c-0.4,0-0.7,0-1.1,0.1c-0.2,0.1-0.5,0.1-0.7-0.1c-1.1-0.8-0.1-2.9-0.1-4.1c0.1-0.6,0-1.3,0.1-1.9c0.3-1.1,0.7-2.2,0.6-3.3
		c-0.1-1.4-0.8-2.7-1.2-4.1c-0.4-1.7,0-3.5-0.7-5.1c-0.3-0.7-0.7-1.3-1.1-2c-0.9-1.7-1.6-3.4-3.2-4.4c-1-0.6-1.8-1.4-2.8-1.9
		c-0.4-0.3-0.6-0.7-0.9-1c-0.4-0.5-0.9-1-1.4-1.3c-0.9-0.6-1.7-1.3-2.5-1.9c-1.1-0.7-2-1.2-2-2.7c0-1-0.3-1.9-0.5-2.8
		c0-0.2,0-0.4,0.1-0.6c-0.7-1.1-1.2-2.4-1.7-3.6c-0.2,0.4-0.5,0.6-1,0.5c-0.4-0.2-0.5-0.6-0.5-0.9c-0.2-0.3-0.4-0.7-0.7-1.1
		c-0.8-1-1.5-1.9-2.1-3c-0.5-0.8-0.9-1.6-1.5-2.2c-0.9-0.9-2.1-1.4-3.1-2c-1.6-1.1-3.4-2.1-5.3-2.7c-3.4-1-7.1-1-10.6-0.4
		c-1.1,0.2-2.2,0.3-3.2,0.5c-1,0.2-1.9,0.6-2.8,0.8c-2.2,0.6-4.3,1.5-6.4,2.6c-1.3,0.7-2.4,1.7-3.5,2.6c-0.6,0.5-1.1,1-1.6,1.5
		c-0.6,0.6-1,1.9-2.1,1.8c-1.1-0.3-2.2-0.4-3.4-0.5c-2.3-0.2-4.6-0.3-6.8-0.2c-2.2,0.2-4.5,0.4-6.7,0.8c-1.3,0.2-2.6,0.5-3.8,0.8
		c-0.9,0.2-2.1,0.6-2.9-0.1c-1.7-1.7-3.3-3.5-5.3-4.9C79,37.5,78,36.7,76.8,36c-0.2-0.2-0.4-0.3-0.7-0.4c-0.4,0.6-1,0.3-1.7,0
		c-0.7-0.3-1.4-0.5-2.1-0.7c-2.4-0.7-4.9-1-7.3-1.2c-2.8-0.2-5.6,0.7-8.3,1.4c-1.4,0.5-2.9,0.8-4.3,1.3c-0.9,0.4-1.8,0.9-2.7,1.3
		c-2,0.9-3.9,2.2-5.8,3.3c-0.7,0.4-1.4,0.8-2,1.2c-0.7,0.6-1.3,1.4-2,2c-2,1.5-3.1,3.8-4,6c-0.3,0.5-0.2,1.7-1.1,1.5
		c0,0-0.1,0-0.1-0.1c-0.5,1.5-1.1,2.9-1.9,4.3c-0.1,0.1-0.2,0.3-0.3,0.4c0.1,0.2,0.1,0.5,0,0.7c-0.7,2.2-1.1,4.6-1.5,6.9
		c-0.4,2.2-0.7,4.5-1.1,6.7c-0.6,2.9-1.1,5.9-1.9,8.8c-0.3,1.3-0.3,2.6-0.7,3.8c-0.4,0.9-1.4,1.1-2.2,1.4c-0.6,0.2-1.1,0.5-1.6,0.9
		c-0.9,0.7-1.7,1.6-2.6,2.4c-0.6,0.4-1.5,1.3-2.1,0.4c-0.2,0.3-0.5,0.7-0.7,1c-0.2,0.4-0.6,0.8-1,0.5c-0.6-0.5,0.5-1.8,0.7-2.4
		c0.7-1.2,1.4-2.4,1.9-3.7c0.6-1.6,1-3.2,1.1-4.9c0.1-1.2,0-2.5-0.1-3.7c-0.2-2.3-0.4-4.5-0.7-6.8c-0.1-0.8-0.4-1.5-0.4-2.3
		c0.1-0.8,1-1.1,1.5-0.5c1.1,1,1.7,2.2,3,0.6c2.3-2.8,4.1-5.8,6.1-8.8c0-0.1,0.1-0.1,0.1-0.2c0.4-0.8,0.7-1.6,1.1-2.4
		c1.1-2.2,1.8-4.6,2.7-6.9c0.8-2.6,2.1-5,3.9-7.1c1-1.2,1.9-2.5,3.2-3.4c2.2-1.6,4.5-3,6.8-4.4c1.4-0.8,2.2-2.2,3.1-3.5
		c0.6-0.8,1.3-1.7,1.8-2.6c0.3-0.6,0.6-1.2,0.7-1.8c0.1-0.6,0.1-1.3,0.8-1.5c0.9-0.2,1.5,1.1,2.1,1.6c0.7,0.7,1.5,1.1,2.3,1.5
		c0.8,0.4,1.6,0.9,2.5,1.2c1.5,0.4,3.1,0.5,4.5-0.1c3.6-1.5,4.5-3.4,5-7.1c0.1-0.6-0.1-1.3,0.4-1.8c0.2-0.2,0.6-0.3,0.9-0.1
		c0.5,0.3,0.5,1,0.7,1.5c0.4,1.1,0.6,2.2,0.9,3.3c0.1,0.2,0.3,0.4,0.4,0.6c0.8,1.2,1.5,2.6,2.7,3.4c1,0.7,2.1,1.1,3.4,1.2
		c1.1,0.1,2.3,0.3,3.3-0.1c0.5-0.2,0.9-0.5,1.3-0.8c0.2-0.2,0.5-0.5,0.8-0.5c0.5-0.1,0.9,0.4,1.1,0.8c0.3,0.4,0.6,0.8,0.9,1.1
		c1,1,2.5,1.6,3.9,1.8c4.5,0.9,9.5-2.1,10.6-6.6c0.3-1.1,0.2-2.2,0.1-3.3c-0.1-0.5-0.1-1.1-0.1-1.6c-0.1-0.2-0.1-0.4,0-0.6
		c0.1-0.4,0.5-0.6,0.8-0.3c1.2,1.2,2,2.7,3.2,3.9c0.5,0.5,1.2,0.9,1.8,1.3c0.7,0.5,1.4,1,2.1,1.4c0.7,0.3,1.5,0.5,2.3,0.7
		c0.8,0.2,1.6,0.4,2.5,0.3c1.1-0.1,2.2-0.2,3.2-0.5c0.6-0.3,1.2-0.7,1.7-1.1c1.1-0.9,2.1-1.8,2.9-2.9c1-1.4,1.7-3,2.8-4.4
		c0-0.2,0.1-0.4,0.3-0.5c0.5-0.3,0.9,0.4,1.1,0.8c0.5,1.1,1.2,2,1.9,3c0.7,1.1,1.3,2.4,2.4,3.2c1.3,0.8,2.9,1.4,4.4,1
		c0.7-0.1,1.5-0.5,1.6-1.3c0.1-0.9,0.1-1.8-0.4-2.6c-0.3-0.4-0.8-0.7-0.8-1.3c0-0.7,0.7-1.1,1.4-1c2.8,0,5.8,1.7,6.8,4.4
		c0.5,1.5,0.4,3.2,1.1,4.7c0.2,0.6,0.7,1,1.3,1.1c0.7,0.2,1.4,0.3,2.1,0.2c0.6-0.1,0.9-0.6,1.4-0.8c1-0.2,1,1.1,1.2,1.8
		c0.4,1.4,0.9,2.7,1.3,4c0.8,2.3,0.9,4.8,0.9,7.2c0,0.2,0,0.4,0,0.6c0.4,0.6,0.8,1.3,1.1,1.9c0.5,0.9,0.9,2,1.5,2.9
		c0.8,0.9,1.9,1.5,3.1,1.6c0.8,0.1,1.6-0.1,2.3-0.3c0.5-0.5,1.2,0,1.2,0.6c0,0.7,0.3,1.3,0.6,2c0.4,1.2,1.4,1.8,2.7,1.6
		c1.5-0.5,2.4-3.1,2.8-4.5c0.2-0.9,0.4-1.9,0.3-2.9c-0.1-0.7,0.6-1.4,1.2-0.8c2,2.9,1.8,6.6,1.5,10c-0.3,2.9-1,5.8,0.2,8.5
		c0.6,1.7,2.4,2.8,4.1,3c1,0.1,1.9,0.1,2.9-0.1c0.8-0.1,1.2,0.9,0.8,1.5c-0.3,0.4-0.7,0.8-1,1.3c-0.3,0.7-0.5,1.5-0.6,2.2
		c-0.2,1.1,0.2,2.2,0.9,3.1c0.5,0.6,1.4,0.6,2,0.3c0.4-0.2,0.7-0.7,0.8-1.1c0-0.5,0.2-1.1,0.8-1.1c0.7,0.1,0.8,1,1.1,1.5
		C184.9,75.3,185.1,77.1,185.1,78.8z"/>
	<path class="st1" d="M205.9,147.4c1.7,3.2,0.9,7-0.5,10.2c-1.2,2.4-2.4,4.5-3.3,7.1c-0.4,1-0.6,2.1-0.7,3.2
		c-0.2,0.9,0.3,2.1-0.7,2.5c-0.5,0.1-1.1-0.2-1.6-0.3c-2.1-0.8-3.2-0.8-4.7,1c-0.3,0.3-0.7,0.7-1.2,0.4c-1.1-0.6,0-3.2,0.2-4.1
		c0.8-3.6,1.2-7.2,1.3-10.8c0-0.5-0.1-1-0.1-1.5c-0.1-0.3,0-0.9-0.5-0.9c-1.8,0.8-3,2.5-4.2,4c-1.7,2.4-2.8,5.2-3.7,7.9
		c-0.2,0.8-1.1,1.2-1.5,0.4c-0.5-1.7-0.2-3.5-0.5-5.2c-0.1-2.2-1.1-4.1-2.1-6c-0.9,1.1-1.9,2.3-2.8,3.4c-0.3,0.4-0.5,0.9-0.7,1.4
		c-0.5,3-1.3,6-1.6,9c-0.2,2.3-0.1,4.6,0.1,6.8c0,1-1.4,1.3-1.6,0.2c-0.2,0.1-0.4,0.1-0.7,0c-0.7-0.4-1.4-0.6-2.2-0.5
		c-1.1,0-2.2,0-3.2-0.2c-3.2-0.9-6.5-1.3-9.7-2.1c-3.9-0.8-7.8-1.9-11.7-3c-0.8-0.2-1.6-0.4-2.4-0.7c-0.2-0.1-0.3-0.4-0.3-0.7
		c-1.3-0.2-2.5-0.5-3.8-0.8c-2.6-0.6-5.1-2-7.4-3.2c-0.9-0.4-1.8-0.7-2.6-1.1c-0.4-0.2-0.9-0.3-1.3-0.5c-0.4-0.2-0.9-0.4-1.1-0.9
		c-0.2-0.4,0.1-1.1,0.6-1c0.1-0.4,0.6-0.6,1.1-0.6c1.2-0.2,2.4-0.2,3.6-0.2c2.7,0.2,5.5,0.6,8.2,0.4c1.6,0,3.2,0,4.9-0.2
		c1.8-0.1,3.6-0.5,5.5-0.7c3.3-0.4,6.7-1,9.8-2.2c1.7-0.5,3.2-0.7,4.9-1.2c2.1-0.8,4.3-1.3,6.2-2.3c2.3-1.2,4.4-2.9,6.2-4.7
		c1.5-1.7,2.4-3.7,3.5-5.7c1.6-3.1,2.6-6.6,3-10.1c0.2-2.4-0.4-4.7-0.4-7c0-0.3,0.3-0.6,0.6-0.7c0.3-0.2,0.6-0.3,1-0.3
		c1.4-0.5,2.8-1.2,3.8-2.3c0.6-0.6,1.1-1.4,1.6-2c0.5-0.6,1.1-1.2,1.6-1.8c1.6-2.8,1.8-8.1,1.8-11.3c0-1.2,0.1-2.7,0-3.9
		c0-2-0.4-4-0.7-6c-0.3-2.1-1-4-2-5.8c-0.3-0.5-0.8-1-0.6-1.5c-0.4-0.1-0.9-0.2-1.3-0.4c-0.3-0.2-0.3-0.5-0.2-0.8
		c0.2-0.4,0.7-0.4,1.1-0.3c1.1,0.1,2.5,0.1,3.1-1c1-1.5,1.8-3.2,2.2-4.9c0.1-0.3,0.1-0.5,0.1-0.8c-0.1-0.3,0-0.7,0.2-1
		c0.5-0.4,1,0,1.2,0.5c0.7,1.1,1.2,2.4,1.7,3.6c1,2.8,2.2,5.6,2.7,8.6c0.7,4.4,0.8,9.1-0.4,13.5c-0.7,2.5-2.8,4.5-2.8,7.2
		c0,1.2,0.2,2,1.2,2.8c0.6,0.5,1,1.4,0.3,2c-0.7,0.5-1.7,0.5-2.4,1c-1.1,0.8-2.1,1.6-3,2.5c-1,1-1.4,2.3-1.9,3.6
		c-0.6,1.8-1,3.6-1.2,5.5c-0.1,0.8-0.1,1.6,0,2.4c0,0.2,0,0.4,0,0.6c0,0,0,0,0,0c0.6,1.9,1.5,3.8,2.7,5.4c0.5,0.7,1.3,1.2,2.1,1.5
		c0.4,0.1,0.7,0.1,1,0.4c1.2,1.8-2,1.9-1.4,5.9c0.1,1.5,1.6,2.5,3,2.5c1-0.1,1.5-1.1,1.8-2c0.3-0.9,0.5-1.9,0.5-2.8
		c0-0.3-0.1-0.6,0.1-0.9c0.1-0.4,0.6-0.6,1-0.5c0.3,0.1,0.4,0.3,0.6,0.6C205.3,146.4,205.6,146.9,205.9,147.4z"/>
	<path class="st1" d="M213,176.9c1.3-0.3,1.1,4.2,1.2,5.1c0,2.1-0.4,4.3-1.3,6.2c-0.8,1.6-2.1,2.9-3.3,4.2c-0.9,1-1.6,2.1-2.5,3.1
		c-1.9,2.1-4.5,4.8-3.4,7.8c0.2,0.7,0.8,1.2,1,1.9c0.3,1.7-2.1,1.3-2.8,3.8c-1.1,3.3-1.1,6.9-1.9,10.3c-1,4.3-2.3,8.5-4.1,12.5
		c-0.5,1.2-1.1,2.4-1.7,3.7c-0.8,1.6-1.9,2.9-2.7,4.5c-0.1,0.2-0.2,0.5-0.4,0.7c-0.2,0.2-0.6,0.2-0.9,0c-0.5-0.5-0.2-1.1,0-1.6
		c0.3-0.6,0.5-1.2,0.8-1.8c0.7-1.6,1.3-3.1,1.6-4.8c0.4-1.3,0.7-2.7,1-4c0.9-2.9,1-5.9,1.1-8.9c0.2-4.6,0.3-9.3-0.3-13.9
		c-0.2-2.4-0.5-4.8-0.9-7.2c-0.1-0.6-0.2-1.1-0.3-1.6c-0.1-0.7-0.3-1.5,0.2-2c0.8-0.7,1.8-1.1,2.6-1.9c1.5-1.4,3.1-2.8,4.4-4.5
		c1-1.4,1.6-2.9,2.2-4.5c0.4-0.8,1-1.4,1.4-2.1c-0.4-0.9-1.1-2.4-0.1-3.1c0.2-0.1,0.5,0,0.6,0.2c0.1,0.2,0.1,0.4,0.1,0.6
		c0.1,0.7,0.4,1.2,0.7,1.8c0.7,1.3,1.9,1.8,3.2,1.1c1.3-0.5,2.6-1.4,3.2-2.7c0.3-0.5,0.5-1.1,0.6-1.7
		C212.3,177.4,212.5,177,213,176.9z"/>
	<path class="st1" d="M176.8,191.5c1.1,2.5,1.5,2.3,1.1,5.2c-0.2,1.6-0.2,3.2-0.2,4.9c0,0.3-0.2,0.7-0.5,0.8c-0.8,0.2-1-0.9-1.2-1.5
		c-0.3-0.9-0.6-1.9-0.8-2.8c-0.2-0.7-0.5-1.5-0.7-2.2c-0.4-0.9-1-1.7-1.5-2.5c-0.5-0.7-0.7-1.6-1.4-2.2c-0.6,1.5-1.5,2.9-1.9,4.5
		c-0.5,2.6-0.4,5.3-0.5,7.9c0,1.3,0,2.6-0.2,3.9c-0.1,0.9-0.3,2.6-1.6,2.3c-2.8-0.7-5.7-0.8-8.6-0.9c-1.7,0-3.3-0.3-5-0.6
		c-0.4,0-0.8-0.1-1.2-0.3c-0.3-0.1-0.6-0.3-0.7-0.6c-0.2-0.9-0.1-1.8-0.3-2.7c-0.6-2.5-1.3-4.9-2.2-7.3c-0.7-1.7-1.7-3.3-2.9-4.6
		c-0.5-0.7-1.1-1.3-1.8-1.9c-0.5-0.5-1.3-1.1-0.9-1.9c-0.4-0.3-0.3-1,0.1-1.2c0.1-0.1,0.3-0.1,0.5,0c0.6,0.1,1.1,0.3,1.6,0.4
		c1.1,0.3,2.3,0.4,3.5,0.6c1.1,0.2,2.2,0.5,3.2,0.7c0.9,0.1,1.8,0.2,2.7,0.4c1.1,0.1,2.3,0.1,3.5,0.1c1.4-0.1,2.7-0.5,4.1-0.6
		c1.1-0.1,2.1-0.3,3.2-0.4c1.5-0.1,3.1,0,4.6-0.1c1.4-0.1,2.8-0.4,4.2-0.2c0.4,0.1,0.7,0.4,0.8,0.8
		C176.3,190.1,176.6,190.8,176.8,191.5z"/>
	<path d="M66.8,106.4c0.5,0.3,0.5,1.1,0,1.4c-0.3,0.2-0.5,0-0.8-0.1c-0.7-0.3-1.4-0.6-2.1-0.9c-1.3-0.6-2.7-0.8-4.2-0.6
		c-1.4,0.2-3.2,1-3.2,2.6c0,1.1,0.2,2.1,0.5,3.1c0.1,0.5,0.3,0.9,0.3,1.4c-0.1,0.5-0.5,0.8-0.9,0.6c-0.2-0.1-0.3-0.3-0.4-0.5
		c-0.2-0.5-0.4-1.1-0.6-1.7c-0.4-1.6-0.7-3.4,0.1-5c1.1-2,3.6-2.6,5.7-2.5c1.6,0,3.2,0.6,4.5,1.5C66.1,106,66.5,106.2,66.8,106.4z"
		/>
	<path d="M156.3,108.5c1.2,1.3,1.3,4-1.1,3.5c-0.9-0.2-1.8-0.5-2.7-0.8c-1.9-0.6-4-1.1-5.5-2.5c-0.7-0.7-1.1-1.8-0.7-2.7
		c0.3-0.7,1-1.4,1.8-1.2c0.1,0,0.2,0.1,0.3,0.1c0.2,0,0.5,0.1,0.5,0.4c0.8,0.1,1.7,0.3,2.6,0.5C153.4,106.3,155,107.1,156.3,108.5z"
		/>
	<path d="M177.6,108.1c-3.2-0.6-0.6-5.2,0.5-6.8c1.1-1.6,3.2-3.6,5.3-2.4c1.9,0.1,2.4,1.7,1.5,3.2c-0.7,1.3-1.9,2.2-2.9,3.3
		C180.8,106.7,179.5,108.2,177.6,108.1z"/>
	<path d="M151.6,108c-1.1-0.6-2.3-2.3-3.7-1.2c0.3,0.9-1,1.6-1.5,0.7c-0.7-1.5,1.2-2.8,2.5-2.8c1.1,0,2.1,0.9,3,1.5
		c0.5,0.3,0.9,0.9,0.6,1.5C152.4,108,152,108.2,151.6,108z"/>
	<path d="M197,106c0.1,2.6,0.1,5.2-0.1,7.8c-0.1,2.5-0.8,4.9-2.3,7c-0.7,1.1-1.7,2-2.7,2.9c-1.5,1.2-3,2.5-4.8,3.2
		c-0.1,0-0.1,0-0.2,0.1c0,1.1-0.1,2.1,0,3.2c0,3.3-0.2,6.7-1.3,9.9c-1.7,4.8-4.3,9.4-8.1,12.9c-2.4,2.4-5.7,3.3-8.8,4.4
		c-3.3,1.1-6.7,2.1-10.1,2.6c-3.5,0.5-7,1-10.5,1.2c-3.5,0.2-7.1,0.3-10.6,0.4c-7.3,0.3-14.6,0.4-21.9,0.5c-3.6,0-7.2,0.2-10.8,0.2
		c-3.1,0-6.2-0.4-9.3-0.7c-1.8-0.2-3.5-0.6-5.3-0.8c-1.8-0.2-3.6-0.3-5.3-0.7c-1.8-0.3-3.6-0.6-5.4-1c-4.2-1-8.3-2.4-12.5-3.3
		c-2.6-0.7-5.3-1.1-8-1.5c-2.7-0.5-5.3-1.2-8-1.8c-3.6-0.9-7.3-1.4-10.9-2.4c-2.5-0.5-5.1-1-7.5-1.8c-0.8-0.3-1.6-0.7-2.4-1.1
		c-1.6-0.8-3.3-1.6-4.9-2.3c-3.2-1.6-6.2-3.8-8.6-6.4c-2.6-2.6-4.8-5.5-6.6-8.6c-1.6-3.2-2.1-6.8-2.4-10.3
		c-0.5-7.9,0.4-16.3,3.9-23.5c1.1-2.3,3-4.2,5-5.9c1.3-1.1,2.6-2.2,4.1-3.1c1.4-0.9,2.8-1.8,4.2-2.5c0.7-0.4,1.4-0.8,2.1-1.2
		c0.1-0.1,0.3-0.2,0.5-0.2c-0.2-1.4,0.2-3.7,0.3-4.7c0.4-3.1,1.1-6.1,1.8-9.1c0.3-1.5,0.4-3,0.6-4.6c0.2-1.9,0.7-3.6,1.3-5.4
		c1-3.2,2.3-6.2,4.2-9c3.5-6,5.4-8.2,11.3-11.8c2.1-1.5,4.4-2.4,6.9-3c3.8-1.3,7.9-1.7,11.9-2c5.3-0.3,9.4,0.9,14,3.2
		c1.4,0.8,2.8,1.7,4,2.8c1.3,1.1,2.3,2.6,3.3,4c0-0.1,0.1-0.1,0.2-0.2c0.4-0.2,0.8-0.2,1.2-0.3c1.9-0.4,3.8-0.9,5.8-1.1
		c2.6-0.3,5.2-0.5,7.8-0.6c2,0.1,4,0.2,6,0.7c0.6,0.1,1.2,0.3,1.7,0.5c0.5-1.1,1.7-2.4,2.1-2.9c1.1-1.2,2.4-2.3,3.8-3.2
		c1.4-0.9,2.8-1.7,4.2-2.5c1.5-0.9,3-1.5,4.7-1.9c3.2-0.8,6.6-0.8,9.9-0.3c2.4,0.3,4.8,0.7,7,1.5c1.5,0.5,3.1,1,4.5,1.8
		c1.6,0.8,2.6,2.2,3.5,3.6c1.3,1.9,2.7,3.7,4,5.6c1.5,2.4,2.7,5.1,2.9,7.9c0,0.1,0,0.2,0,0.3c1.5,0.7,2.8,1.9,4.1,3c1,1,2,2,2.8,3.3
		c0,0.1,0.1,0.2,0.1,0.3c0.4,0.2,0.8,0.4,1.1,0.7c3.3,2.3,6.4,5.8,6,10.1c0,0.4-0.1,0.9-0.2,1.4c1.2,1.2,2.2,2.7,2.4,4.4
		c0.1,1.4-0.3,2.9-1,4.1c0.5,0.8-0.3,4-0.7,4.8c0,0,0,0,0,0c0.3-0.1,0.6-0.2,0.9-0.3c2.7-0.8,5.5-1,8.2-0.9
		c5.5,0.1,11.3,3.1,14.2,7.8C196.6,95.7,196.7,101,197,106z M195.2,113.2c0.3-5.3,0.1-10.3-0.7-15.5c-0.9-4.5-3.1-8.1-7.3-10.2
		c-3.5-2.1-7.7-2.4-11.8-2.1c-1.3,0.1-2.6,0.4-3.9,0.7c-0.7,0.2-1.3,0.4-2,0.6c-0.1,0-0.2,0.1-0.4,0.1c-0.4,0.4-0.8,0.8-1.2,1.1
		c-2.7,2.4-6.2,3.5-9.6,4.5c-2.1,0.8-4.3,1-6.6,1c-2.9,0-5.9,0.2-8.8,0c-1.9-0.1-3.8-0.2-5.7-0.7c-3-0.9-6-1.7-9-2.6
		c-0.1,0-0.3-0.1-0.4-0.1c-0.5-0.3-0.3-1.1,0.2-1.2c0.6-0.1,1.1,0.1,1.7,0.3c2.6,0.6,5.2,1.4,7.8,2.2c1.7,0.4,3.5,0.5,5.2,0.6
		c2.2,0.1,4.4,0.1,6.6,0c2.3-0.1,4.6,0.1,6.8-0.4c4.4-1.3,9.2-2.5,12.3-6c1-1.2,1.5-2.6,1.7-4.1c0,0-0.1,0.1-0.1,0.1
		c-1.7,1.4-3.5,2.4-5.6,3.1c-1.6,0.5-3.3,0.8-4.9,1.2c-4.7,1.1-9.6,1.7-14.4,1.3c-1.6-0.1-3.3-0.2-4.9-0.6c-1.8-0.3-3.5-0.7-5.3-1.2
		c-2.3-0.5-4.6-1.2-6.8-2.1c-1.7-0.6-3.2-1.4-4.7-2.4c-0.5-0.2-1.1-0.6-1.2-1.2c-0.2-0.1-0.4-0.2-0.6-0.3c-0.2-0.1-0.3-0.3-0.3-0.5
		c0-0.1,0-0.1-0.1-0.2c-0.1-0.3,0.1-0.6,0.3-0.8c2.2-2.5,5.1-4.5,7.9-6.4c2.7-1.9,5.8-3.2,8.9-4.2c1.6-0.5,3.2-0.7,4.9-1
		c5.1-1,9.8-1.1,14.9,0.2c2.4,0.5,4.8,0.5,7.1,1.3c1.2,0.5,2.3,1.4,3.3,2.3c0.1-1.2,0.2-2.8-1.1-4.7c-1.1-1.6-2.6-3-4.2-4.1
		c-1.3-0.9-2.8-1.4-4.3-1.9c-2.4-1-5.1-1.6-7.7-1.3c-2.2,0.2-4.4,0.5-6.4,1.4c-2.2,1-4.5,1.6-6.8,2.3c-1.8,0.7-3.6,1.4-5.4,2.2
		c-2.1,0.9-4,2.4-5.9,3.6c-2.2,1.3-4.3,2.5-6,4.3c-0.2,0.1-0.5-0.1-0.6-0.3c-0.5-1.3,3.3-3.4,4.2-4.1c2-1.3,3.9-2.7,5.9-3.9
		c2.1-1.2,4.4-2.1,6.6-3c2.2-0.9,4.5-1.4,6.7-2.4c0.7-0.3,1.5-0.6,2.2-0.9c1.5-0.6,3.2-0.7,4.8-0.9c3.3-0.5,6.1,0.2,9.2,1.4
		c0.1,0.1,0.3,0.1,0.4,0.2c-1.1-1.2-2.4-2.2-3.8-3.1c-3-2-6.8-1.1-10.1-0.7c-3.5,0.3-6.7,1.6-9.8,3.2c-2.4,1.1-4.8,2.1-7.1,3.3
		c-1.8,0.9-3.7,1.7-5.4,2.6c-0.8,0.4-1.7,0.9-2.4,1.5c-0.2,0.2-0.4,0.4-0.7,0.2c-1.8-1.4,4.5-3.9,5.4-4.5c2.2-1.1,4.5-2.4,6.8-3.3
		c2.9-1.2,5.7-2.9,8.8-3.9c1.9-0.6,3.8-0.8,5.7-1c2.3-0.3,4.5-0.6,6.8-0.1c-0.2-0.8-0.3-1.6-0.6-2.3c-0.5-1.5-1.2-3-2.1-4.3
		c-0.8-1.1-1.6-2.2-2.4-3.3c-1.2-1.7-2.2-3.7-3.9-4.9c-1.2-0.7-2.5-1.2-3.7-1.6c-2-0.7-4-1.2-6.1-1.5c-1.5-0.2-2.9-0.4-4.4-0.5
		c-2.5-0.2-5,0.1-7.4,0.7c-1.8,0.4-3.3,1.4-4.9,2.3c-2.4,1.4-4.8,2.8-6.6,4.9c-0.5,0.6-1,1.1-1.4,1.7c1.4,0.6,2.7,1.3,4,2.2
		c0.8,0.4,0.3,1.8-0.6,1.4c-2.1-0.9-4.1-2.1-6.4-2.6c-2.9-0.8-6-1-9-0.8c-2.6,0.1-5.1,0.3-7.6,0.8c-1,0.2-2,0.4-3.1,0.5
		c-0.2,0-0.4,0-0.5,0c0.1,0.1,0.2,0.3,0.2,0.4c1.2,2,2.4,4,3.2,6.3c0.2,0.8,1,2.1,0.1,2.8c0.3,0.1,0.6,0.3,0.8,0.5
		c1,0.6,1.9,1.4,2.7,2.3c0.4,0.4,1,1,1,1.6c1.8,0.4,3.5,1.1,5,2.2c1.9,1.5,2.7,3.9,3.4,6.1c0.3,1.1,0.6,2.3,0.7,3.5
		c0,0.1,0,0.2,0,0.3c2.5,3.6,2.9,9.2,0.8,13.1c0.1,0.1,0.1,0.3,0.1,0.4c-0.2,2.6-1.5,5.2-3.3,7c-1.2,1-2.6,1.6-4.1,2.1
		c-1.9,0.7-3.9,1.5-5.8,2.1c-1.8,0.5-3.7,0.8-5.5,1.3c-1.4,0.4-2.8,0.7-4.2,0.6c-2.4,0-4.8-0.2-7.2-0.5c-3.2-0.3-6.4-0.7-9.5-1.5
		c-2.4-0.7-4.9-1.3-7.4-1.8c-0.3-0.1-0.4-0.4-0.4-0.6c0.1-1,1.4-0.6,2.1-0.6c2,0.3,4.1,0.7,6,1.3c3.3,0.8,6.7,1.2,10.1,1.5
		c2.5,0.2,5,0.5,7.5,0.4c1.8-0.2,3.5-0.8,5.2-1.1c2.3-0.3,4.4-1.1,6.6-1.9c2.3-0.9,5-1.4,6.6-3.4c0.7-0.9,1.3-1.9,1.6-2.9
		c0-0.1,0.1-0.2,0.1-0.3c-0.9,0.9-1.9,1.5-3.2,2c-4.2,1.4-8.8,1.5-13.1,1.8c-5,0.5-10,1.1-15.1,0.6c-2.4-0.3-4.9-0.5-7.3-0.7
		c-1.6-0.1-3.3-0.3-4.9-0.6c-2-0.4-3.7-1.4-5.5-2.3c-1.4-0.6-2.8-1.2-4-2.2c-0.5-0.4-0.9-0.8-1.3-1.3c-0.2-0.3-0.3-0.7-0.1-1
		c-0.5-1.4,4.5-5.4,5.6-6.4c2.8-2.5,6.3-4.3,9.7-5.8c2.3-1.1,4.5-2.1,7-2.7c3.5-0.9,7-1.6,10.6-1.9c3.5-0.3,7.1-0.4,10.6-0.1
		c3.5,0.3,7.4,1,10,3.4c-0.4-1.7-1-3.4-1.9-4.9c-1.1-1.8-3.3-2.6-5.2-3.2c-1.1-0.3-2.3-0.5-3.5-0.6c-1.5-0.1-3,0.1-4.6,0
		c-4.1,0-8.3-0.4-12.3,0.8c0,0,0,0,0,0c-3.1,0.8-6.2,1.8-9,3.4c-2,1.1-4.3,2-6.2,3.3c-1.9,1.2-3.6,2.7-5.4,4
		c-1.2,0.8-2.4,1.5-3.5,2.3c-0.5,0.4-0.9,0.7-1.4,1.1c-0.2,0.2-0.5,0.1-0.7-0.2c-0.8-1,4.9-4.4,5.7-5.2c1.9-1.5,3.7-3.1,5.8-4.3
		c1.3-0.8,2.8-1.4,4.1-2.1c1.4-0.8,2.8-1.6,4.3-2.1c2.9-1.1,5.8-2.2,8.9-2.6c3.9-0.5,7.8,0,11.6-0.2c1.2-0.1,2.4-0.1,3.6,0.1
		c-0.7-0.7-1.4-1.4-2.2-1.9c-1.1-0.7-2.3-1-3.5-1.4c-2.4-0.5-4.8-0.2-7.2,0.1c-2.4,0.3-4.7,0.7-7,1.3c-1.7,0.4-3.4,0.9-5,1.6
		c-2.3,1.1-4.2,2.5-6.3,3.7c-1.5,0.9-3,1.8-4.4,2.8c-2,1.3-3.9,2.8-6,4.1c-0.4,0.2-0.9,0.8-1.3,0.3c-0.4-0.7,0.4-1.1,0.9-1.5
		c1-0.7,2-1.4,3-2.2c2.1-1.5,4.1-3.1,6.3-4.5c1.6-0.9,3.1-1.9,4.6-2.9c2.2-1.4,4.7-2.4,7.2-3c2.3-0.6,4.6-1.2,7-1.5
		c3.7-0.5,7.1-0.9,10.4,0.4c-0.2-0.5-0.3-1.2-0.4-1.5c-0.4-1.2-1-2.4-1.6-3.5c-1.5-2.6-3.1-5.2-5.3-7.3c-1.9-1.7-4.1-2.8-6.5-3.8
		c-2-0.9-4.2-1.5-6.4-1.8c-3.3-0.3-6.6-0.1-9.9,0.4c-2.1,0.2-4.2,0.9-6.3,1.5c-2,0.5-4,1.3-5.7,2.5c-3.7,2.2-6.9,4.4-9.2,8.2
		c-1.4,2.3-3,4.6-4.2,7c-1.2,2.7-2.1,5.2-2.8,8c-0.5,1.9-0.5,3.9-0.8,5.8c-0.9,4.7-2.3,9.3-2.5,14c0.2,0.1,0.2,0.3,0.2,0.5
		c0,0.1,0,0.2,0,0.2c0,0.2-0.1,0.5-0.4,0.5c-0.2,0.2-0.5,0.3-0.7,0.5c-2.5,1.7-5.1,3.1-7.5,4.9c-2.3,1.8-4.6,3.7-6.3,6.1
		c-4.6,7.7-5.4,19-4,27.7c0.3,1.6,0.7,3.2,1.3,4.6c1.2,2.2,2.6,4.2,4.2,6.2c2.3,2.6,4.7,5.1,7.6,7c2.1,1.4,4.5,2.4,6.8,3.5
		c1.1,0.5,2.1,1.2,3.3,1.6c2,0.6,4.1,1.1,6.2,1.5c1.8,0.3,3.5,0.8,5.2,1.2c2.8,0.5,5.5,1.1,8.2,1.8c2.7,0.6,5.3,1.3,8,1.8
		c1.8,0.3,3.6,0.6,5.4,1c2.6,0.6,5.3,1.3,7.9,2c3.2,1,6.5,1.9,9.8,2.4c2.6,0.5,5.3,0.7,7.9,1.1c1.8,0.3,3.5,0.6,5.3,0.8
		c2.3,0.2,4.6,0.6,6.9,0.6c8.2,0,16.3-0.3,24.5-0.3c5.4-0.1,10.7-0.3,16.1-0.5c4.1-0.1,8.2-0.5,12.3-1.1c4-0.4,8-1.4,11.8-2.8
		c1.5-0.6,3-1,4.5-1.6c1.2-0.5,2.3-1.3,3.3-2.1c2.8-2.4,4.8-5.5,6.3-8.7c2.3-4.7,2.9-8.9,2.9-14c0-0.6,0-1.2,0-1.8
		c-0.6,0.2-1.1,0.3-1.7,0.4c0.5,0.7-0.2,1.7-0.6,2.4c-0.8,1.3-1.8,2.5-2.8,3.7c-1.6,1.8-3.3,5-6.2,4.1c-2.4-0.6-4.5-2-6.3-3.7
		c-0.9-0.8-1.7-1.7-2.5-2.7c-0.2-0.3-0.5-0.5-0.7-0.9c-0.4,0-0.8,0.1-1.1,0.2c0,0.9-0.9,1.9-1.2,2.6c-1.2,2.1-2.5,4.1-4.5,5.5
		c-1.4,1-3.1,1.8-4.9,1.4c-3.2-0.9-5.7-4.3-7.9-6.7c-0.4-0.5-0.9-1-1-1.6c-0.2,0-0.4,0-0.6,0c0,0,0,0,0,0c-0.3,0.9-1,1.7-1.5,2.6
		c-0.4,0.7-0.9,1.4-1.5,2c-2.2,2.4-5.3,4.6-8.7,4.2c-2.6-0.4-4.1-2.8-5.9-4.6c-0.7-0.7-1.4-1.4-2-2.2c-0.5-0.6-1.3-1.2-1.4-2
		c-0.5,0-1-0.1-1.5-0.1c-1.1,2-2.6,3.7-4.4,5c-1.7,1.1-3.6,2.1-5.7,2.1c-2.3,0-3.9-2-5.3-3.5c-1.1-1.3-2.3-2.5-3.4-3.7
		c-0.3-0.3-0.7-0.7-0.7-1.2c0-0.3,0.1-0.6,0.3-0.8c-0.9-0.2-1.7-0.4-2.6-0.5c-0.3,0.5-0.7,0.9-1,1.4c-0.5,0.7-1,1.4-1.5,2
		c-1.6,1.6-4.9,3.3-7.2,3.2c-1.4-0.1-2.4-1.1-3.1-2.1c-0.9-1.3-1.8-2.7-2.8-4c-1-1.3-2.1-2.5-3.1-3.8c-0.4-0.6-1.3-1.3-1.1-2
		c-1.4-0.5-2.6-1.1-3.8-2c-1.3-1.1-2.6-2.2-4.2-2.9c-2.3-0.9-4.3-2-6-3.8c-0.7-0.8-1.9-1.8-1.3-2.8c0.8-1,1.5,0.5,2,1
		c0.7,0.9,1.6,1.7,2.6,2.3c1.5,1,3.3,1.4,4.8,2.4c1.3,0.8,2.4,1.8,3.7,2.7c1.7,1.1,3.6,1.7,5.5,1.9c3,0.5,5.9,1.6,8.7,2.7
		c2.4,1,4.9,1.5,7.5,2c2.6,0.6,5.2,1.1,7.8,1.5c3.2,0.4,6.4,0.6,9.6,0.8c1.9,0.1,3.7,0.3,5.6,0.5c1.3,0.1,2.6,0,3.9,0
		c2.7-0.1,5.3,0,8,0c4,0,8-0.1,12-0.1c4.4,0,8.7-0.3,13.1-0.6c2.7-0.3,5.3-0.7,7.9-1c4.5-0.5,8.9-1.2,13.3-1.9
		c2.2-0.4,4.5-0.8,6.6-1.6c1.5-0.7,2.8-1.7,4-2.7C193.6,119.9,195,117.1,195.2,113.2z M181.5,129.7c0.3-0.3,0.5-1,0.8-1.4
		c-1.6,0.3-3.2,0.6-4.8,0.8c-3.6,0.6-7.3,1-10.9,1.6c1.4,1.4,2.7,2.8,4.4,3.9c1.4,0.8,2.9,1.7,4.5,1.7c1.4-0.6,2.2-2.1,3.3-3.2
		C179.8,131.9,180.7,130.8,181.5,129.7z M170.3,78.7c1.6-2.8,0.2-5-2-6.8c-1.3-1.1-2.5-2.3-4.1-2.8c-1.5-0.4-3.1-0.6-4.7-0.8
		c-1.6-0.2-3.1-0.6-4.7-0.9c-0.8-0.1-1.6-0.2-2.5-0.2c0.1,0.1,0.2,0.2,0.4,0.3c1.8,1.7,2.9,4.1,3.1,6.6c0.3,3.2-0.1,6.6-1.9,9.3
		c-0.3,0.4-0.5,0.8-0.8,1.2c-0.1,0.1-0.1,0.2-0.2,0.3c0.7-0.1,1.4-0.2,2.2-0.3c2.4-0.4,4.8-1,7.2-1.5c2.1-0.4,4.1-1.2,5.9-2.4
		C169,80.3,169.7,79.6,170.3,78.7z M161.1,132.3c0.2-0.3,0.4-0.7,0.5-1c-1.3,0.2-2.6,0.4-3.9,0.4c-1.5,0.1-2.9,0.2-4.4,0.3
		c-2.6,0.2-5.1,0.2-7.7,0.2c0.6,0.7,1.3,1.4,2,2.1c1.7,1.7,4.2,4.8,6.9,4.3C157.6,137.7,159.6,135,161.1,132.3z M149.9,73.6
		c0.1-0.8-0.7-1.5-1.4-1.7c-0.7,0.2-1.8,0.4-2.1,1.3c-0.1,1,0.7,2.3,1.8,2.2C149.1,75.3,149.7,74.4,149.9,73.6z M141.5,132.3
		C141.5,132.3,141.5,132.3,141.5,132.3c-0.1,0-0.2,0-0.3,0c-2.6,0-5.3,0.1-7.9,0.1c-3.1-0.1-6.1-0.1-9.2,0c0.8,0.8,1.6,1.6,2.4,2.4
		c2,2,4,5.3,7.3,4.2c2.2-0.6,4.1-1.9,5.6-3.6C140.2,134.4,140.8,133.3,141.5,132.3z M132.7,74.3c0.2-1,0.8-2.4,1.6-3.6
		c-3.9,1.8-7.4,4.4-10.7,7.1c-0.2,0.1-0.3,0.3-0.5,0.4c0.1,0.1,0.2,0.2,0.2,0.3c0.4,0.1,0.9,0.5,1.2,0.7c0.9,0.6,1.8,1.1,2.7,1.5
		c2.1,0.9,4.2,1.6,6.4,2.2C132.3,80.4,132.1,77.2,132.7,74.3z M118.7,132.2c0.1-0.1,0.1-0.2,0.2-0.3c-0.2,0-0.5-0.1-0.7-0.1
		c-1.4-0.1-2.7-0.2-4.1-0.3c-2.7-0.2-5.3-0.4-7.9-0.7c-1.1-0.2-2.2-0.4-3.3-0.6c0,0,0,0.1,0,0.1c0.9,0.9,1.8,1.9,2.7,2.8
		c1.3,1.3,3,3.9,4.9,4.1C113.8,137.3,117,134.8,118.7,132.2z M102.7,84.2c2.9-2.7,3.3-7.6,1.7-11.1c-2.3-5-6.9-5.9-11.9-6.3
		c-2-0.2-4.1-0.2-6.1-0.1c2.9,1.6,4.2,4.9,4.4,8.1c0.2,2.5,0.4,5,0.1,7.6c-0.1,0.6-0.5,3.1-1.2,4.8c1.2-0.1,2.3-0.2,3.5-0.3
		c2-0.2,4-0.5,6-1C100.4,85.6,101.7,85.1,102.7,84.2z M97.3,129.2c-0.3-0.1-0.6-0.1-0.9-0.2c-3.3-0.6-6.4-2-9.6-3.1
		c-1.7-0.6-3.4-1-5.2-1.2c-0.1,0-0.2,0-0.2,0c0.2,0.2,0.4,0.5,0.6,0.7c1.7,1.9,3.3,3.8,4.7,6c0.7,1,1.3,2.3,2.5,2.7
		c1.9,0.3,4.7-1.1,6.1-2.3c0.7-0.7,1.3-1.5,1.8-2.3C97.1,129.4,97.2,129.3,97.3,129.2z M85.2,74.7c0.2-0.8,0.1-1.9-0.7-2.3
		c-0.5-0.2-1.2,0-1.5-0.5c-0.8,0.4-1.4,0.9-1.3,1.9c0,0.6,0.2,1.2,0.5,1.7c0.1,0.4,0.6,0.6,1,0.5C83.9,76,84.9,75.6,85.2,74.7z
		 M67.9,70.3c-0.1,0-0.2,0.1-0.3,0.1c-3.9,1.7-7.8,3.4-11.1,6.1c-1.9,1.6-3.9,3.2-5.5,5.1c0,0,0,0.1,0,0.1c1.2,1.4,3.1,2.2,4.7,2.9
		c0.8,0.4,1.6,0.8,2.5,1.2c2.3,1,4.9,1.3,7.3,1.5c0.8,0.1,1.6,0.1,2.4,0.2c-1.6-1.9-2.6-4.4-2.9-6.8C64.7,76.8,65.6,73.3,67.9,70.3z
		"/>
	<path d="M16.9,119.2c-0.5-1.4-0.3-2.9-0.4-4.4c0-1.5,0-2.9,0.1-4.4c0-0.6,0.1-1.2,0.2-1.8c0-0.3,0.1-0.6,0.3-0.7
		c0.6-0.4,1,0.3,0.9,0.9c-0.1,2.7-0.2,5.4-0.1,8.1c0,0.6,0.1,1.3,0.1,1.9c0,0.3-0.1,0.7-0.4,0.8C17.4,119.7,17,119.5,16.9,119.2z"/>
	<path d="M22,122.7c-1.1-1.4-1.1-8-0.5-9.6c0.1-0.2,0.4-0.4,0.7-0.3c0.6,0.2,0.4,1,0.4,1.5c0,1.8,0,3.5,0.2,5.3
		c0.1,0.8,0.2,1.5,0.3,2.3c0.1,0.4,0,0.8-0.3,1C22.5,123.1,22.2,123,22,122.7z"/>
	<path d="M26.3,126.5c-0.1-0.2-0.2-0.3-0.2-0.6c-0.1-1.7-0.2-3.5-0.1-5.2c0-0.6,0.4-1.5,1-0.9c0.4,0.4,0.3,1.1,0.3,1.6
		c0.1,1.5,0,3,0,4.6C27.4,126.5,26.8,127,26.3,126.5z"/>
	<path d="M121.9,108.3c-0.3-1.6,0-3.2,0-4.8c0.1-1.1,0-4.4,0.9-5.1c0.3-0.1,0.6,0,0.7,0.3c0.1,0.2,0.1,0.4,0,0.6
		c-0.1,0.3-0.1,0.6-0.1,0.9c-0.2,2.7,0.1,5.3-0.1,8C123.1,109,122.1,109.1,121.9,108.3z"/>
	<path d="M126.4,108.3c-0.3-0.9-0.2-2-0.3-2.9c0,0,0,0.1,0,0.1c0-0.6-0.1-1.1-0.1-1.7c0-0.5-0.1-1.1,0.2-1.5
		c0.3-0.6,1.1-0.3,1.1,0.4c0,0.9,0.2,1.9,0.3,2.8c0,0.7,0.5,3.2-0.5,3.4C126.8,108.9,126.5,108.6,126.4,108.3z"/>
	<path d="M132.2,110.9c-0.5-0.1-0.6-0.6-0.5-1c0.1-2.2,0.2-4.5-0.1-6.6c0-0.5,0.5-0.9,1-0.6c0.6,0.5,0.5,1.4,0.6,2.1
		c0.2,1.8,0,3.6-0.2,5.5C132.8,110.6,132.5,110.9,132.2,110.9z"/>
	<path d="M133.4,155.4c-0.3-1-0.3-2.1-0.4-3.2c0-1.1-0.2-2.4,0.3-3.4c0.2-0.4,0.7-0.6,1-0.3c0.3,0.2,0.3,0.7,0.1,0.9
		c-0.1,0.4,0,0.8,0,1.3c0.1,1.5,0.3,3,0.2,4.5c0,0.3-0.2,0.6-0.5,0.7C133.8,156,133.5,155.7,133.4,155.4z"/>
	<path d="M137.3,155.6c-0.4-1.1-0.3-2.3-0.3-3.4c0.1-1.1,0-2.2,0.2-3.3c0.1-0.2,0.3-0.4,0.6-0.4c0.9,0.1,0.7,1.4,0.7,2.1
		c0.1,1.6,0.1,3.2-0.1,4.8C138.4,156,137.6,156.3,137.3,155.6z"/>
	<path d="M142.2,154.4c-0.3-0.3-0.2-0.7-0.2-1c-0.1-1-0.2-1.9-0.2-2.9c0-1-0.2-2,0-3c0.1-0.2,0.3-0.4,0.5-0.4c0.9,0,0.8,1.3,0.9,1.9
		c0.2,1.6,0.1,3.2,0.1,4.8C143.2,154.4,142.6,154.8,142.2,154.4z"/>
	<path d="M165.2,150.2c-0.1-1-0.1-2-0.1-3.1c0-0.4,0-0.9,0.3-1.1c0.7-0.4,1,0.5,1,1c0.1,1,0.1,2.1,0.1,3.2c0,0.3-0.3,0.6-0.6,0.6
		C165.5,150.8,165.2,150.5,165.2,150.2z"/>
	<path d="M169.3,147.8c0-0.9-0.1-1.8-0.2-2.7c-0.1-0.5,0.2-1.2,0.8-1c0.7,0.3,0.6,1.4,0.7,2.1c0,0.6,0.3,2.4-0.7,2.4
		C169.5,148.5,169.3,148.1,169.3,147.8z"/>
	<path d="M176.9,177.2c-2.7-0.5-5.5-0.5-8.3-0.9c-2.7-0.5-5.4-1-8-1.6c-2.2-0.5-4.2-0.9-6.3-1.7c-2.1-0.8-4.2-1.3-6.4-1.8
		c-1.4-0.4-2.8-0.8-4.3-1.1c-1.4-0.3-2.8-0.6-4.1-1.1c-2.1-0.8-3.9-1.9-5.7-3.1c-1.4-0.9-2.8-1.7-4.3-2.5c-0.3-0.1-0.4-0.5-0.4-0.7
		c0.1-0.3,0.3-0.5,0.6-0.4c0.8,0.2,1.5,0.6,2.3,0.9c2.7,1.3,5.1,3.1,8,4.1c1.7,0.6,3.4,0.8,5.1,1.2c2.8,0.8,5.6,1.4,8.4,2.3
		c2.2,0.8,4.5,1.5,6.8,1.9c4.7,1.2,9.4,2.1,14.2,2.4c0.9,0.1,1.8,0.2,2.7,0.3C178.1,175.5,178,177.3,176.9,177.2z"/>
	<path d="M193.9,187.3c2.7-0.1,4.4-1.5,6.5-3c0-1.7-0.5-3.5-2-4.4c-2.7-1.7-7.3-2.6-9.1,0.8c0,0,0,0,0,0c0,0,0,0,0-0.1
		C187.4,185.1,189.1,187.5,193.9,187.3C193.9,187.3,193.9,187.3,193.9,187.3z M184.9,196c-3.6-0.2-6.5-1.5-8.3-4.7
		c-1.2-1.9-1.7-4.1-2.3-6.2c-0.1-0.5-0.2-1.1-0.3-1.6c-0.1-0.3,0.1-0.7,0.5-0.9c0.3-0.1,0.7,0.1,0.8,0.4c0.2,0.7,0.5,1.3,0.7,2
		c1.8,6.4,3.6,8.9,10.7,9c2.8-0.1,5.7-0.4,8.2-1.9c1.5-1,2.7-2.3,3.8-3.7c0.6-0.7,1.1-1.4,1.6-2.2c-1.6,1.2-3.3,2.4-5.3,2.6
		c-3.1,0.6-7.3-0.4-7.9-4c-0.3-1.7,0.1-3.6,0.8-5.2c1.4-3.1,4.8-4,7.8-3.2c3.5,0.9,6,2.7,6.3,6.5c2.1-2.7,1.9-6.5,0.6-9.5
		c-0.9-2.1-2.9-2.6-5-2.4c-1.2,0.1-2.5,0.5-3.5,1.1c-0.5,0.3-1.1,0.8-1.7,0.5c-0.4-0.2-0.6-0.8-0.5-1.2c0.6-5.2,1.9-10.6,2.2-15.8
		c-1.9,1.9-4,3.6-5.2,6c-0.7,1.4-1,2.9-1.4,4.4c-0.2,0.7-0.3,1.3-0.5,2c-0.1,0.4-0.3,0.9-0.7,1.1c-1.3,0.5-1.3-1.7-1.5-2.5
		c-0.3-1.6-0.7-3.1-1.1-4.7c-0.5-1.8-0.8-3.6-1.4-5.4c-1.7,1.9-2.7,4.2-3.2,6.7c-0.6,3.7-1.1,7.4-0.9,11.1c0,0.4,0.1,0.9,0.1,1.3
		c-0.1,0.5-0.7,0.7-1,0.3c-0.5-0.6-0.5-1.5-0.5-2.2c-0.2-2.6,0.1-5.1,0.4-7.7c0.3-2.5,0.7-5.1,1.9-7.4c0.5-1.1,1.2-2.1,2-3
		c1.8-2.5,2.9,0.1,3.3,2c0.6,2.6,1.3,5.2,1.9,7.8c1-3.9,2.1-6.4,5.1-9.2c0.6-0.6,1.1-1.1,1.7-1.7c0.5-0.4,1-1.1,1.7-1.2
		c1.3,0.2,1.1,1.9,1.1,2.8c-0.3,4.8-1.5,9.5-2,14.3c2.2-1.3,5-1.6,7.5-0.9c1.3,0.5,2.3,1.5,3,2.8c2,4.1,1.8,9.5-1.4,12.9
		c-0.7,3.1-3.4,5.6-5.6,7.8c-1.9,1.7-4.4,2.4-6.9,2.8C188.2,196.1,186.5,196.2,184.9,196z"/>
	<path d="M158.9,189.9c-3-0.1-6.1-0.3-9.1-0.7c-3.3-0.2-6.6-0.6-9.6-1.9c-0.3-0.1-0.6-0.3-0.8-0.5c-0.4-0.4-0.4-1.1,0.1-1.3
		c0.4-0.2,0.7,0.1,1.1,0.1c1.5,0.4,3,0.9,4.5,1.2c1.6,0.3,3.2,0.3,4.8,0.4c2.7,0.3,5.4,0.5,8.1,0.6c2.4,0.1,4.8-0.2,7.2-0.2
		c1.9,0,3.8,0,5.7-0.2c1.1-0.1,2.1-0.2,3.2-0.5c0.6-0.1,1.3-0.5,2-0.3c0.6,0.3,0.6,1.3,0.1,1.6c-0.7,0.5-1.7,0.6-2.5,0.8
		c-2.3,0.4-4.6,0.4-6.9,0.5C164,189.7,161.5,189.9,158.9,189.9z"/>
	<path d="M143.4,249.3c-0.8-1.1,0.6-2,1.3-2.6c0.5-0.4,1-0.9,1.5-1.3c1.5-1.2,2.7-2.9,3.5-4.6c2.5-4.8,2.6-10.2,2.5-15.4
		c0-7-0.6-14-1.9-20.9c-0.4-2.2-1.1-4.4-2-6.4c-1.4-2.9-3.5-5.4-5.4-7.9c-2.5-2.7-5.7-4.8-7.5-8.1c-2.6-4.6-4.6-9.4-6.3-14.4
		c-0.4-1.3-0.6-2.7-0.8-4c-0.1-0.8-0.3-1.7,0.1-2.5c0.2-0.4,0.7-0.5,1-0.2c0.3,0.3,0.2,0.6,0.3,1c0.1,1,0.2,2,0.4,3
		c0.3,1.9,1.1,3.8,1.9,5.6c0.4,1.1,0.9,2.2,1.3,3.2c1.6,3.2,2.8,6.5,5,9.2c1.3,1.6,2.9,2.8,4.4,4.2c1.4,1.2,2.4,2.8,3.5,4.2
		c1.1,1.4,2.2,2.9,3,4.5c2.3,4,3,8.6,3.6,13.1c1.1,7.2,1.5,14.6,1.2,21.9c-0.2,3.8-1,7.7-2.8,11.1c-0.9,2.1-2.5,3.9-4.2,5.4
		c-0.4,0.4-0.8,0.8-1.2,1.1C145.1,249,144.2,250.3,143.4,249.3z"/>
	<path d="M61.1,252.1c-2.7-0.2-5.4-0.1-8.1-0.3c-1.7-0.1-3.3-0.3-5-0.5c-3.1-0.1-6.3-0.6-9.4-0.9c-3-0.2-5.9-0.5-8.9-0.6
		c-2.1,0-4.2,0-6.2-0.1c-3.1-0.1-6.3,0-9.4-0.4c-1.1-0.1-2.1-0.4-3.1-0.6c-1.7-0.5-3.5-0.9-5-1.9c-1.4-0.8-2.5-2.6-1.7-4.2
		c0.9-1.6,2.5-2.5,3.8-3.7c1.1-1,2.2-1.9,3.3-2.9c1.9-1.7,3.7-3.6,5.7-5.2c2.1-1.5,4-3.1,6-4.8c1.2-0.9,2.4-2,3.7-2.9
		c1.4-0.9,2.9-1.6,4.3-2.5c1.7-1.1,3.2-2.3,4.6-3.7c1.3-1.3,2.7-2.5,3.9-3.9c1-1,1.3-2.6,1.3-4c0.3-5.1,0.2-10.3,0.8-15.4
		c0.4-5.2,1.5-10.3,2.4-15.4c0.7-4.1,1.7-8.2,3-12.2c1.1-3.8,2.8-7.4,4.9-10.8c0.5-0.8,0.9-1.6,1.5-2.3c0.3-0.4,0.7-1,1.3-1
		c0.6,0,0.8,0.8,0.4,1.2c-0.2,0.2-0.4,0.4-0.5,0.7c-1.4,2.3-2.7,4.7-3.9,7.2c-1.4,3.1-2.3,6.5-3.3,9.8c-1.3,5-2,9.9-2.9,14.9
		c-1.1,5.7-1.5,11.6-1.7,17.4c-0.4,10.2,0.6,9.1-7.1,16.2c-2.5,2.3-5.5,3.9-8.4,5.6c-3.3,2.5-6.4,5.2-9.7,7.6
		c-2.7,2.2-5,4.7-7.7,6.9c-1.4,1.4-3.3,2.3-4.3,4c0,1.7,4,2.7,5.3,3.1c4.3,1.2,8.8,0.7,13.2,1c2,0.1,4.1,0.1,6.1,0.1
		c3,0.2,5.7,0.4,8.7,0.6c3.2,0.4,6.5,0.8,9.8,1c1.9,0.2,3.7,0.5,5.6,0.5c1.5,0,3,0,4.6,0.1c4.1,0.2,8.3,0.1,12.4,0.1
		c5-0.1,10-0.2,15-0.5c2.2-0.2,4.5-0.2,6.7-0.3c2.3,0,4.6-0.1,6.8-0.6c0.9-0.1,1.2,1.5,0.2,1.7c-1.5,0.4-3,0.9-4.6,0.9
		c-2.5,0-5.1,0.1-7.6,0.2C79.1,251.9,70.1,252.1,61.1,252.1z"/>
	<path d="M84.6,226.4c-1.8-0.1-3.5-0.6-5.2-1.3c-2.5-0.9-4.8-2.1-7-3.5c-1.1-0.7-2.3-1.3-3.3-2.1c-1.1-0.9-2-1.9-2.8-3
		c-2.2-2.6-4.7-5.1-6.6-7.9c-0.8-1.2-1.4-2.5-2.1-3.9c-0.4-1-2.5-4.5-1.3-5.2c0.3-0.2,0.8,0,0.9,0.3c0.3,0.6,0.7,1.2,0.9,1.9
		c0.9,1.9,1.7,3.8,2.8,5.5c1.7,2.5,4,4.7,5.9,7c0.9,1.1,1.8,2.2,2.8,3.2c1.3,1.1,2.9,1.8,4.3,2.7c2.7,1.7,9.2,4.8,12.3,3.8
		c-0.9-1.7-2.5-3-3.9-4.2c-0.5-0.4-1.1-0.8-1.4-1.3c-0.4-0.6,0-1.7,0.8-1.6c0.3,0.1,0.6,0.3,0.9,0.4c0.8,0.4,1.7,0.9,2.5,1.2
		c1.5,0.6,2.7,1.3,4.2,1.7c1.7,0.3,3.4,0.7,5.1,0.3c-0.5-0.8-1.3-1.5-2-2.2c-2-1.7-4.1-3.2-6.1-4.8c-0.4-0.3-1-0.7-1-1.3
		c-0.1-0.6,0.3-1.3,1-1.2c0.5,0.1,0.9,0.4,1.4,0.5c2.3,0.5,4.6,0.6,6.9,1c1.2,0.1,2.4,0.5,3.5,0.3c-2.2-2.2-5.1-3.5-7.6-5.2
		c-1.5-1-2.9-2-4.3-3.2c-2.5-2.1-5.4-3.8-8.2-5.5c-2.1-1.4-4.1-2.9-5.9-4.7c-2.5-2.2-4.8-4.7-6.5-7.6c-0.7-1.2-1.2-2.4-1.8-3.7
		c-1.1-2.5-2.3-5-3.3-7.6c-0.3-0.9-0.8-2-0.4-3c0.2-0.3,0.6-0.4,0.9-0.1c0.2,0.4,0.1,0.9,0.3,1.3c1.2,3.3,2.9,6.4,4.4,9.7
		c1.3,2.9,3.2,5.5,5.4,7.6c1.2,1.1,2.4,2.2,3.6,3.3c2.8,2.4,6,4.1,9,6.1c2.5,1.7,4.7,3.8,7.2,5.4c2.9,1.9,6.1,3.4,8.6,5.9
		c0.7,0.6,1,1.7,0.4,2.5c-1.2,1.2-3.2,0.8-4.8,0.6c-1.7-0.3-3.3-0.5-5-0.7c1.8,1.5,6.3,4.5,6.2,7c-0.3,1.8-2.5,1.8-3.9,1.7
		c-2-0.1-4-0.5-5.8-1.4C89.1,224.1,88.3,226.6,84.6,226.4z"/>
	<path d="M60.6,220c-0.9-0.7,0.1-1.7,0.7-2.1c0.7-0.6,1.4-1.1,2.1-1.7c0.4-0.3,0.7-0.6,1.1-0.9c0.9-0.6,1.6,0.8,0.9,1.5
		c-0.7,0.8-1.9,1.5-2.7,2.1c-0.4,0.3-0.9,0.5-1.3,0.8C61.3,219.9,61,220.2,60.6,220z"/>
	<path d="M128.7,254c-3.7-0.2-7.3-0.9-10.9-1.6c-1.9-0.4-3.7-1-5.5-1.4c-1.9-0.3-3.9-0.3-5.9-0.4c-1.3,0-2.7-0.2-4-0.1
		c-0.9,0.1-1.8,0.3-2.6,0.4c-1,0-1.2-1.7-0.3-2c0.7-0.2,1.4-0.3,2-0.4c1.4-0.2,2.9-0.1,4.4,0c2.1,0.1,4.1,0,6.1,0.3
		c2.2,0.3,4.3,1.1,6.4,1.5c2.3,0.5,4.6,0.9,7,1.2c3.7,0.6,7.6,0.3,11.3-0.5c2-0.6,4.4-1.4,5.5-3.3c1.5-4,1.3-8.4,1.7-12.7
		c0.2-4.1,0.9-8.2,1.1-12.3c0.2-3.3,0.1-6.6,0-9.9c-0.2-5-0.4-9.6-1.3-14.5c-0.2-0.8-0.3-1.6-0.6-2.4c-1.6,1.7-2.5,4-3.3,6.1
		c-0.6,2-0.9,4.1-1.2,6.2c-0.1,0.8-0.2,1.7-0.3,2.5c0,0.4-0.1,0.8-0.3,1.1c-0.3,0.5-1.2,0.4-1.4-0.2c-0.3-1.7-0.3-3.4-0.4-5.1
		c-0.1-2.5-0.2-5.3-0.4-7.8c-0.2-2.4-0.3-4.9-1.2-7.2c-1.3,1.3-2.1,3-2.9,4.7c-2.4,4.9-3.4,10.4-3.9,15.8c0,0.7-0.1,1.5-0.1,2.2
		c-0.1,1-1.5,1.1-1.6,0c0-0.5,0-1.1-0.1-1.6c-0.1-3.5-0.3-7.1-0.9-10.6c-0.8-3.7-1.6-7.5-3.1-11c-4.1,4.8-3.8,11.8-4.5,17.7
		c-0.2,2-0.5,3.7-0.5,5.6c0,1.2,0.1,2.4,0,3.5c-0.1,0.8-0.8,1.4-1.5,0.8c-0.8-1.1-1.4-2.3-2.4-3.4c-1.7-2.2-4.2-3.5-6.4-4.9
		c-3.2-2.1-7-3.3-10.8-3.3c-1.1,0-2.2,0.2-3.3,0.3c-0.3,0.1-0.7,0-1,0.1c-0.3,0.1-0.7-0.2-0.7-0.6c-0.1-1,1.2-1.1,1.9-1.2
		c0.8-0.1,1.7-0.3,2.5-0.4c5-0.5,9.9,1.5,14,4.3c1.4,0.9,2.9,1.8,4,3c0.8,0.8,1.5,1.7,2.1,2.6c-0.1-2.6,0.3-5.1,0.6-7.7
		c0.3-3.4,0.3-6.7,1.1-10c0.6-2.4,1.4-4.8,2.8-6.8c1.5-2.2,2.8-2.5,3.9,0.2c1.7,4.5,2.9,9.3,3.4,14c0.9-4.5,2.4-9,4.8-12.9
		c0.8-1.2,2.3-3.9,3.8-2c1.6,2.5,1.6,9.7,1.8,12.9c0.3-1.8,1.1-3.5,1.9-5.1c0.6-1.3,1.3-2.5,2.3-3.5c2.6-2.6,3.4,2.7,3.7,4.4
		c1.1,7.4,1.3,14.9,1.2,22.3c-0.2,5-0.9,10-1.2,15c-0.4,4-0.3,8.1-1.6,12C142.2,253.3,133.5,254,128.7,254z"/>
	<path d="M169.5,210.9c-2.8-0.1-5.7-0.7-8.5-1c-2.4-0.2-4.8,0.1-7.2-0.2c-0.4-0.1-0.8-0.1-1.1-0.3c-0.4-0.3-0.4-0.9-0.1-1.2
		c0.2-0.3,0.6-0.2,0.9-0.2c1.1,0,2.3,0,3.4,0c1.4,0,2.7,0,4.1,0.1c2.6,0.3,5.1,0.9,7.7,1c0.5-3.7,0.2-7.3,0.2-11
		c0.1-2.4,0.2-5.1,1.9-6.9c2.3-1.8,5.7,8.7,6.3,10.4c0-2.4-0.1-4.9,0.4-7.3c0.1-0.5,0.1-1.1,0.5-1.6c0.4-0.5,1.2-0.2,1.2,0.4
		c0,1.3-0.5,2.6-0.5,3.9c-0.1,3,0,6.1-0.2,9.1c0,0.6-0.2,1.6-1,1.5c-0.7-0.1-0.8-1-1-1.5c-0.6-2.3-1.2-4.5-2.1-6.7
		c-0.8-2.2-1.7-4.3-3-6.2c-1.8,3-0.6,9.7-1,13.5c0,0.9-0.1,1.8-0.2,2.7C170.4,209.8,170.3,210.9,169.5,210.9z"/>
	<path d="M185.8,206.1c-0.5-0.4-0.4-1.2-0.6-1.7c-0.3-1.4-0.6-2.8-1-4.1c-0.4-1.4-0.9-2.9-1.2-4.4c-0.1-0.4-0.1-0.8,0.2-1.2
		c0.3-0.4,0.9-0.4,1.1,0.1c0.5,2.4,1.5,4.7,2,7.1c0.3-1.1,0.6-2.2,0.9-3.3c0.3-0.8,0.4-3.7,1.7-3.4c0.9,0.4,0.4,1.5,0.2,2.2
		c-0.3,1-0.5,2.1-0.8,3.1c-0.4,1.4-0.7,2.8-1.1,4.2c-0.1,0.4-0.1,0.9-0.5,1.3C186.5,206.3,186,206.4,185.8,206.1z"/>
	<path d="M176.3,245.4c-3.2,0-6.5,0-9.7-0.4c-2.3-0.2-4.6-0.8-6.9-1.2c-1.4-0.2-2.8-0.3-4.2-0.5c-1.2-0.2-2.5-0.4-3.7-0.6
		c-1.1-0.2-0.9-2.1,0.3-2c2.4,0.5,4.9,0.8,7.4,1c1.5,0.2,3,0.5,4.6,0.8c3,0.5,6,0.7,8.9,0.7c1.6,0,3.2,0,4.8,0
		c2.9-0.1,6.9,0.3,9.5-1.1c1.8-1,3.3-7.4,3.8-9.5c1.2-4.4,1.8-9,2.2-13.5c0.3-4.4,0.1-8.9,0-13.3c-0.2-3.2-0.9-6.3-1-9.5
		c0-0.4,0-0.8-0.1-1.3c-0.1-0.2-0.1-0.4-0.1-0.6c0.1-0.3,0.3-0.6,0.6-0.6c0.2,0,0.3,0.1,0.5,0.2c0.3,0.4,0.4,0.9,0.5,1.3
		c0.2,1.2,0.3,2.4,0.4,3.6c0.6,3.2,1,6.5,1,9.7c0.5,10.4-0.7,21.1-4.2,30.9c-0.7,1.7-1.3,3.6-3.1,4.4c-1.3,0.7-2.9,0.9-4.3,1
		C181,245.4,178.7,245.4,176.3,245.4z"/>
	<path d="M118.1,202.6c-0.4-0.1-0.6-0.5-0.5-0.9c0.2-0.7,1.5-0.8,2.1-1c1.4-0.3,2.8-0.5,4.2-0.5c0.7,0,1.5-0.1,2.2,0.2
		c0.6,0.2,0.5,1.1,0,1.3c-0.7,0.3-1.4,0.1-2.1,0.2c-0.7,0-1.4,0-2.1,0.1C120.6,202.1,119.4,202.6,118.1,202.6z"/>
	<path d="M129.1,200.5c-0.6-0.5-0.1-1.5,0.6-1.6c1.8-0.4,3.7-0.3,5.6-0.5c0.7,0,1.4-0.2,2,0c0.5,0.2,0.5,0.9,0.2,1.2
		c-0.1,0.1-0.3,0.2-0.5,0.3c-2,0.4-4.2,0.1-6.2,0.4c-0.3,0-0.7,0.1-1,0.1C129.5,200.7,129.3,200.7,129.1,200.5
		C129.1,200.5,129.1,200.5,129.1,200.5z"/>
	<path d="M145.3,201.7c-1.8-0.1-3.6-0.2-5.4-0.3c-0.8,0-1.2-0.8-0.6-1.3c0.4-0.3,1-0.1,1.5-0.2c1.4,0,2.8-0.1,4.2,0
		c0.6,0,1.1,0.2,1.1,0.9C146.1,201.2,145.8,201.7,145.3,201.7z"/>
	<path d="M169.8,201.2c-0.4,0-0.6-0.5-0.5-0.9c0.3-1.2,4.1-1.3,5.2-1.5c0.7,0,1.4-0.2,2,0.1c0.5,0.2,0.5,1.2,0,1.4
		c-0.3,0.2-0.7,0.2-1.1,0.2C173.5,200.6,171.5,200.6,169.8,201.2z"/>
	<path d="M178.1,199.1c-0.3-0.4-0.1-1.1,0.4-1.2c0.3-0.1,0.6-0.1,0.9-0.1c1.5-0.1,3-0.3,4.5-0.2c0.2,0,0.3,0.1,0.5,0.1
		c0.6,0.2,0.6,1.2,0,1.4c-0.3,0.1-0.5,0.1-0.8,0.1c-1.6,0-3.1,0-4.7,0.1C178.6,199.3,178.3,199.4,178.1,199.1z"/>
	<path d="M192.5,199.6c-1,0-2-0.1-3.1-0.1c-0.5,0-1,0.1-1.3-0.3c-0.2-0.3-0.2-0.7,0-1c0.2-0.2,0.5-0.3,0.7-0.3c0.6,0,1.2,0,1.8,0
		c0.8,0,1.7-0.1,2.5,0c0.8,0.1,0.8,1.5,0,1.7C192.9,199.6,192.7,199.6,192.5,199.6z"/>
	<path d="M179.7,235.2c-0.2-0.6-0.1-1.2-0.2-1.8c0-1.1-0.1-2.2,0-3.3c0.1-0.5-0.1-1.3,0.4-1.6c0.2-0.1,0.4-0.1,0.5,0.1
		c0.2,0.2,0.2,0.6,0.2,0.9c0,0.3,0,0.6,0,0.9c0.1,1.2,0.2,2.3,0.2,3.5c0,0.6,0.2,1.6-0.5,1.8C180,235.7,179.8,235.5,179.7,235.2z"/>
	<path d="M182.8,232.3c-0.2-0.6-0.2-1.2-0.2-1.9c0-1.3-0.1-2.7,0-4c0-0.4,0.1-0.8,0.5-1c0.2-0.1,0.5,0,0.6,0.2
		c0.3,0.5,0.1,1,0.2,1.6c0.1,1.6,0.4,3.3,0.2,4.9C183.9,232.8,183,233,182.8,232.3z"/>
	<path d="M186.7,227.9c-0.1-1.8-0.3-3.5-0.4-5.2c0-0.4,0-0.8,0.3-1c0.3-0.2,0.6-0.1,0.8,0.1c0.3,0.5,0.2,1.1,0.3,1.6
		c0.2,1.5,0.2,2.9,0.2,4.4C188,228.7,186.8,228.8,186.7,227.9z"/>
	<path d="M30.1,242.4c-0.9-1.4-1-4.7-0.4-6.3c0.1-0.4,0.5-0.8,0.9-0.6c0.4,0.1,0.5,0.7,0.2,1c0,0,0,0,0,0c-0.3,1.7,0.2,3.4,0.3,5.1
		c0.1,0.3,0.1,0.7-0.2,0.9C30.6,242.7,30.2,242.7,30.1,242.4z"/>
	<path d="M34.5,242.6c-0.3-1.1-0.3-2.2-0.3-3.3c0-1.1-0.1-2.2,0.3-3.3c0.2-0.5,0.8-0.6,1.1-0.1c0,0,0,0,0,0c0.2,0.6,0.1,1.2,0.1,1.8
		c0,1.3,0.1,2.6,0.1,3.9c0,0.3,0,0.6,0,1C35.7,243.3,34.7,243.4,34.5,242.6z"/>
	<path d="M40.4,243.9c-0.5-1-0.7-2-0.7-3.1c0-1.1-0.2-2.2,0.2-3.2c0.2-0.5,0.9-0.3,1,0.2c0.1,0.4,0.1,0.9,0.1,1.3
		c0.1,1.4,0.2,2.8,0.5,4.3C41.6,244,40.8,244.6,40.4,243.9z"/>
	<path d="M45.2,244c-0.1-1.1-0.2-2.2-0.1-3.2c0.1-0.5-0.1-1.4,0.6-1.5c0.3,0,0.5,0.3,0.5,0.6c0.1,1.3,0.1,2.6,0.3,3.9
		c0,0.4-0.1,0.8-0.5,0.8C45.5,244.7,45.2,244.3,45.2,244z"/>
	<path d="M8.9,238.9c0.1-0.7,0.7-1.3,1.1-1.9c0.5-0.7,0.9-1.5,1.3-2.3c1.6-3.5,2.5-7.2,2.7-11c0.2-2.8,0.1-5.7-0.3-8.5
		c-0.1-0.7-0.3-1.3-0.7-1.9c-1.1-1.7-3.1-2.4-4.7-3.6c-2.7-1.9-4.8-4.6-5.7-7.7c-1-3.3-1-6.8-0.6-10.3c0.4-3.9,2.2-7.5,5.3-9.9
		c0.7-0.7,1.8-0.9,2,0.3c0.1,0.9-0.1,1.9,0.3,2.8c0.4,1.3,1.3,2.6,2.6,3.3c0.6,0.4,1.2,0,1.6-0.4c0.8-1,1.3-2.2,1.7-3.4
		c0.5-1.7,0.9-3.4,0.9-5.2c0.2-2.6-1.2-5.1-2.9-7c-1.5-1.7-3-3.4-4.4-5.2c-2.9-3.6-5.3-7.8-6.4-12.4c-0.7-3-0.8-6-0.5-9.1
		c0.2-0.9-0.1-3.1,1.3-3c0.4,0.1,0.7,0.4,1,0.7c0.4,0.4,0.8,0.8,1.2,1.2c1.1,0.9,2.3,1.7,3.6,2.1c2.6,0.8,2-1.9,1.2-3.3
		c-1-1.7-2.4-3-3.6-4.6c-1.3-1.7-2.4-3.6-3.3-5.6c-1.9-4.3-3.2-8.9-3.4-13.6c-0.5-6.1,0-12.3,1.4-18.2c1.1-4.5,3.3-8.7,6.2-12.4
		c1.9-2.4,3.5-5.1,4.4-8.1c1.1-3.8,2.1-7.8,2.3-11.8c0.3-4,0.3-8-0.4-12c-0.2-1.5-0.5-3-0.7-4.5c-0.1-1,0.4-2.2,1.6-1.9
		c1.5,0.6,2.4,2,3.4,3.2c0.6,0.7,1.3,1.6,2.1,2c1.2,0.5,2.3-0.8,2.9-1.7c2.9-4.6,2-10.5,4.2-15.4c1.3-3.2,4.4-5.2,7.3-6.9
		c3.1-1.8,6.5-3.1,9-5.7c1.8-1.9,3.2-4.1,4.5-6.4c1.4-2.4,2.6-5,2.8-7.8c0.1-1.6,1.2-2.7,2.6-1.3c1.2,1.1,2.1,2.5,3.1,3.8
		c1,1.3,1.9,2.8,3.2,3.8c2,1.1,4.6-0.5,6.2-1.8c2.6-2.5,3.8-8.8,2.2-12c-0.8-1.3-0.6-3.1,1.3-2.6c2.4,0.7,4.3,2.4,6,4.2
		c1.8,2,3.7,3.8,5.2,6c1.8,2.5,3,5.6,5.3,7.8c2.5,2.3,6.2,1.8,8.8,0c1.6-1.1,2.7-2.8,3.3-4.6c0.5-1.6,0.7-3.3,0.8-4.9
		c0.1-1.5,0-2.9,0.1-4.4c0-0.5,0.3-1,0.8-1c0.2,0,0.5,0,0.6,0.2c0.6,0.5,1,1.3,1.5,1.9c0.6,1,1.2,2,1.8,2.9c0.8,1.3,1.8,2.6,3.1,3.5
		c5.7,4.4,13.9,3,14.9-5c0.1-2.2-0.1-4.4,0.9-6.5c0.3-0.7,0.6-1.4,1.1-2c0.1-0.2,0.3-0.3,0.5-0.3c0.7-0.1,1.1,0.8,0.8,1.4
		c-0.5,0.9-1,1.8-1.3,2.7c-0.4,1.1-0.3,2.2-0.3,3.3c0,1.7-0.2,3.5-1,5.1c-0.8,1.5-1.8,3.1-3.3,4c-4.3,2.9-10.1,1.6-13.8-1.7
		c-2.1-1.8-3.3-4.3-4.7-6.6c-0.1,2.7-0.2,5.5-1,8.1c-1.1,3.2-3.5,5.8-6.8,6.8c-2.3,0.8-4.9,0.4-6.9-0.9c-1.4-1-2.5-2.4-3.4-3.8
		c-1.2-1.9-2.2-3.8-3.5-5.5c-1-1.5-2.3-2.7-3.5-4c-1.7-1.8-3.4-3.7-5.7-4.8c1.7,4.3,0.2,12.2-3.9,14.9c-1.9,1.3-4.4,2.4-6.6,1.3
		c-1.5-0.8-2.4-2.3-3.4-3.6c-1.1-1.4-2.1-3-3.4-4.3c-0.2,2-0.8,4-1.7,5.8c-1.5,3.1-3.3,6.1-5.5,8.8c-2.3,2.8-5.6,4.4-8.8,6
		c-2.6,1.5-5.3,2.9-7.1,5.4c-2.7,4.4-1.9,10-3.9,14.7c-0.9,2.4-3,5.8-6,4.6c-2-1.1-3.1-3.4-4.8-4.8c0.4,3.1,1.1,6.1,1.2,9.3
		c0.1,4.7-0.1,9.5-1.2,14c-0.6,2.4-1.1,4.9-2.1,7.2c-1.4,3.6-3.9,6.5-6.1,9.6c-4.2,6.5-5.3,14.5-5.4,22.1c0,4.3,0.4,8.6,1.8,12.7
		c1.4,4.6,3.6,8.7,6.9,12.2c1.9,2.1,4.1,6.5,0.9,8.4c-2.5,0.9-5.8-1.5-7.4-3.2c-1.1,7.1,1.2,13.9,5.6,19.4c2,2.7,4.4,5,6.4,7.7
		c2.1,2.8,2.4,6.4,1.8,9.7c-0.5,2.7-2.2,9.3-5.9,7.8c-2.4-1.2-3.8-3.8-4-6.4c-2.6,2.1-4,5.3-4.3,8.6c-0.4,3-0.3,6.1,0.6,9
		c0.8,2.6,2.5,4.9,4.6,6.5c1.2,0.9,2.5,1.5,3.7,2.4c2.1,1.4,2.9,3.7,3.1,6.2c0.3,2.4,0.3,4.7,0.1,7.1c-0.2,3.4-0.9,6.7-2.1,9.8
		c-0.8,2-1.7,4-3.1,5.6c-0.2,0.3-0.5,0.6-0.9,0.6C9.1,239.6,8.9,239.2,8.9,238.9z"/>
	<path d="M189.3,243c-0.8,0-1-1.3-0.3-1.7c0.8-0.3,1.3-0.8,2-1.3c0.7-0.5,1.4-1,2-1.4c1.7-1,3.3-2.1,4.8-3.4c1.2-1,2.6-1.8,3.7-2.8
		c2.1-1.9,3.6-4.5,4.9-7c1.9-4,2.4-8.4,3.4-12.6c0.8-3.2,2-6.2,3.2-9.2c0.9-2.3,1.8-4.5,2.9-6.7c1.3-2.6,2.7-5.3,3.5-8.1
		c1-3,1.4-6,1.6-9.1c0.2-3.2,0.1-6.4-0.5-9.5c-0.5-3-1.9-5.7-2.6-8.7c-0.9,1.7-1.3,3.6-1.2,5.6c0.1,1.4,0.4,2.9-0.1,4.3
		c-0.8,2.6-4.3,3.1-6.3,1.6c-2.9-2-2.2-5.9-1.8-8.9c0.4-2.1,1-4.1,1.5-6.1c0.6-2.1,1-4.2,1.3-6.4c0.6-3.9,0.6-7.9,1.5-11.8
		c-2.9,3.8-8.4,4.2-11-0.1c-2-3.7-0.2-8.5,1.8-11.8c4.1-6.6,6.5-13.2,6-21.1c0-5-0.6-10-1.8-14.8c-2.1-7.7-5.6-14.9-8.3-22.3
		c0.1,3.9-1.3,10-6.4,8.6c-2.8-0.8-4.6-3.2-5.2-6c-1.1-4.6-0.1-9.4-0.7-14.1c-1.7,2.9-5,5.6-8.1,2.9c-2.2-1.8-3.2-4.6-3.3-7.3
		c-0.1-1.7,0.1-3.4,0.2-5.1c0.2-2.5,0.5-5-0.3-7.4c-0.7-2.1-1.7-3.9-2.8-5.7c-2-3.2-4.2-6.4-7.2-8.6c1.9,4,3.1,8.5,2.6,12.9
		c-0.2,2.4-1.7,6-4.7,5.4c-2.6-0.8-3.9-3.6-4.6-6.1c-0.5-2-0.7-4.1-1.1-6.1c-0.9-4-2.8-9.3-5.3-12.5c-2.5-2.7-6.3-3.5-9.7-4.5
		c-4-1.1-8.3-1.9-11.9-4c-3.2-2.2-4.7-6-5.6-9.6c-0.6-2.6,1.7-2.3,1.2-1.1c0.3,1.6,1.1,3.2,1.7,4.7c0.8,1.7,1.9,3.3,3.5,4.3
		c3,1.7,6.5,2.4,9.7,3.3c3.6,1,7.5,1.8,10.6,4c3.4,2.6,4.9,7,6.3,10.9c1,2.9,1.4,5.9,1.9,8.9c0.5,2.3,1.3,5.1,3.7,6l0.2,0
		c0.1,0,0.2,0,0.2,0c0.1,0,0.2,0,0.2,0c0.1,0,0.2-0.1,0.2-0.1c1.1-0.6,1.4-2,1.7-3.2c0.5-3.1-0.1-6.2-1-9.2c-0.2-0.7-0.5-1.4-0.8-2
		c-0.4-1.1-1.4-2-1.1-3.3c0.1-0.5,0.6-1,1.2-1c0.4,0,0.8,0.2,1.2,0.4c1.3,0.8,2.3,1.9,3.4,2.9c1.5,1.5,2.7,3.4,3.9,5.2
		c1.2,1.8,2.3,3.6,3.2,5.6c1.8,3.7,1.5,6.7,1.1,10.6c-0.1,2.9-0.5,6,1.1,8.5c0.8,1.3,2.3,2.7,3.9,2.3c1.8-0.6,3-2.3,3.7-3.9
		c0.6-1.1,1.7-1.2,2.2,0.1c0.4,1.1,0.5,2.3,0.5,3.5c0.1,3-0.1,6,0.1,8.9c0.2,2.5,0.7,5.3,2.9,6.8c3.2,2,5.2,0,5.8-3.2
		c0.2-1.4,0.3-2.7,0.2-4.1c0-0.7-0.1-1.5-0.2-2.2c0-0.4,0.1-0.7,0.3-1c0.3-0.3,0.9-0.3,1.2,0c1.2,1.8,1.9,4,2.7,6.1
		c0.7,2,1.6,3.9,2.4,5.8c2.3,5.8,4.8,11.6,6,17.8c0.9,4.5,1.1,9,1.1,13.5c0.1,4.1-0.7,8.1-2.1,11.9c-0.7,1.9-1.5,3.6-2.4,5.4
		c-1.3,2.4-2.9,4.6-3.8,7.2c-0.6,2-1,4.3,0.2,6.1c2.1,3.2,6.3,2.4,8.4-0.4c1.2-1.4,1.9-3.1,2.8-4.7c0.3-0.5,1.1-0.4,1.3,0.1
		c0.3,0.5,0.1,1-0.1,1.5c-1.1,3.5-1.8,7-2,10.7c-0.4,4.2-1,8.3-2,12.4c-0.7,3-3.3,10.3-0.7,12.6c1.1,1,3,1.2,3.9,0.1
		c0.6-0.8,0.4-1.8,0.4-2.6c-0.1-1.5-0.2-3.1,0.1-4.5c0.3-1.6,1-3,1.8-4.5c0.2-0.4,0.3-0.7,0.5-1.1c0.2-0.3,0.3-0.7,0.7-0.8
		c0.4-0.2,0.9,0.2,1,0.6c0.1,0.6,0,1.2,0,1.9c0.1,1.6,0.8,3.2,1.3,4.7c0.6,1.8,1.2,3.6,1.5,5.4c0.6,4.1,0.6,8.3,0.3,12.4
		c-0.3,3.5-1.3,6.8-2.6,10c-0.9,2.2-2,4.2-3,6.3c-0.9,2.1-1.8,4.2-2.6,6.3c-0.7,1.9-1.5,3.7-2.1,5.6c-0.7,2.2-1.1,4.5-1.6,6.8
		c-0.6,3.3-1.5,6.6-3,9.5c-1.1,2.1-2.4,4.2-4,5.9c-1.3,1.4-2.9,2.4-4.5,3.6c-1.5,1.3-3.3,2.5-5,3.5c-0.8,0.5-1.6,1.1-2.4,1.7
		C190.8,242.4,190.2,243,189.3,243z"/>
	<path d="M38.9,214.3c-1-0.8-1.7-2.1-2.5-3.2c-0.9-1.4-1.8-2.7-2.8-4c-0.5-0.7-0.9-1.3-1.4-2c-0.4-0.7-1-1.4-1.1-2.3
		c-0.2-3.4,6.1-6,8.7-7.1c0.9-0.3,2.7-1.7,3.2-0.2c0.2,0.9-0.5,1.3-1.2,1.5c-1,0.4-1.9,0.8-2.9,1.2c-2,1-4.2,2-5.8,3.7
		c-0.2,0.3-0.5,0.6-0.3,0.9c0.3,0.6,0.7,1.2,1,1.7c1.4,2.1,2.8,4.1,4.2,6.1c0.6,0.9,1.2,1.8,1.9,2.6C40.4,214,39.6,214.8,38.9,214.3
		z"/>
	<path d="M42.5,193.4c-0.6-0.2-1.1-0.7-1.6-1.1c-1.9-1.7-3.3-3.7-4.5-5.9c-0.8-1.4-1.8-2.7-2.3-4.2c-0.6-1.4-0.5-3,0.4-4.2
		c2.4-3,7.8-3.1,11.2-4.6c-0.8-2.4-2.3-4.6-3.6-6.8c-1.1-1.8-2.7-3.4-2.9-5.6c0-3.9,9.5-5.2,12.5-5.9c0.8-0.2,1.6-0.3,1.7,0.7
		c0.1,0.5-0.2,1-0.7,1.1c-1.1,0.2-2.2,0.4-3.3,0.6c-2.5,0.6-6.6,1.3-8.5,3.1c-0.8,0.8,1.7,3.7,2.1,4.6c1.3,2.1,2.7,4.2,3.7,6.5
		c0.7,1.7,1.2,2.8-1,3.5c-2.4,1.3-10.4,2-10.5,5.1c0.2,1.6,1.3,2.9,2.1,4.3c0.7,1.2,1.4,2.4,2.2,3.6c0.9,1.3,2.1,2.4,3.3,3.5
		c0.3,0.3,0.6,0.8,0.4,1.3C43.1,193.4,42.8,193.5,42.5,193.4z"/>
</g>
</svg>
