<?xml version="1.0" encoding="utf-8"?>
<!-- Generator: Adobe Illustrator 27.9.2, SVG Export Plug-In . SVG Version: 6.00 Build 0)  -->
<svg version="1.1" id="Calque_1" xmlns="http://www.w3.org/2000/svg" xmlns:xlink="http://www.w3.org/1999/xlink" x="0px" y="0px"
	 viewBox="0 0 201.8 228.2" style="enable-background:new 0 0 201.8 228.2;" xml:space="preserve">
<style type="text/css">
	.st0{fill:#8664C2;}
	.st1{fill:#83E0AC;}
	.st2{fill:#C3A3FC;}
	.st3{fill:#FFFFFF;}
	.st4{fill:#45D3A3;}
</style>
<g>
	<path class="st0" d="M86.4,228.1c-3.5-0.2-7-0.1-10.5-0.3c-2.2-0.2-3.7-2-4.9-3.7c-1.2-1.5-2.1-3.1-3.1-4.8c-0.1,0-0.2,0-0.3,0
		c-0.8-0.1-1.6-0.5-2.4-0.6c-0.2,0-0.5-0.1-0.7-0.3c-1.4-0.4-2.8-1-4.2-1.6c-0.8-0.4-1.5-0.8-2.3-1.2c-0.1,0.8-0.9,0.8-1.6,0.8
		c-1.5,0.1-2.9,0.5-4.4,0.6c-1.6,0.1-3.1,0-4.6-0.2c-1.4-0.1-2.8-0.3-4.2-0.2c-3.1,0.5-6.2,0.7-9.4,0.6c-2.5,0-4.9,0.1-7.4,0.2
		c-0.8,0-1.5,0-2.3,0c-0.7,0-1.4,0-2.1,0c-3.2,0-6.2,0.9-9.3,0.7c-2.1-0.3-4.3-8.1-5.1-10.2c-0.5-1.4-0.8-2.9-1.2-4.4
		c-0.5-1.5-0.9-3.1-1.3-4.7c-0.5-2.4-1-4.8-1.5-7.2c-0.6-2.2-0.9-4.5-1.4-6.8c-0.4-1.6-0.8-3.1-1.2-4.7c-0.5-2-2-5.9-0.3-7.5
		c1.7-1.1,3.8,2.5,4.8,3.5c2.3,2.6,4.9,5.1,6.6,8.2c-0.4-3-0.7-6.1-0.9-9.1c-0.1-1.8-0.5-3.8,0.2-5.5c0.7-1.4,1.8-0.2,2.5,0.6
		c1.7,1.9,3.3,3.7,4.5,5.9c0.4,0.6,0.7,1.2,1.1,1.8c0,0,0.1,0,0.1,0.1c0.3,0.2,0.4,0.5,0.3,0.8c1.1,1.9,2.1,3.9,2.8,5.9
		c0-2.8-0.3-5.7-0.7-8.5c-0.1-1.8-1.3-6.4-0.4-7.7c0.8-1.3,2.4,0.4,3.2,0.9c2,1.5,3.5,3.6,4.8,5.7c0.4,0.9,0.8,1.8,1.2,2.7
		c0.6,0.1,0.8,0.8,0.5,1.3c0.4,1,0.7,1.9,1.1,2.9c0.7,2,1.2,4,1.7,6c0.2,0.9,0.4,1.8,0.7,2.6c2.7,0,5.4,0,8.1,0.2
		c0.7,0.1,1.4,0.1,2.2,0.3c0.1,0,0.2,0,0.2,0c-0.1-1.1-0.1-2.1-0.2-3.1c0.1-3.7,0.2-7.4,0.7-11c0.7-3.7,1.5-7.5,2.9-11.1
		c1-2.4,2.2-4.7,3.6-6.9c-1-0.2-1.9-0.2-2.9-0.2c-0.9,0-1.9,0-2.8-0.2c-1.8-0.3-3.3-1.2-5-1.8c-1-0.3-1.9-0.5-2.9-0.8
		c-1.9-0.4-3.9-1.4-5.6-2.2c-1.7-0.8-3.5-1.4-5.2-2.3c-0.8-0.4-1.6-0.9-2.4-1.4c-1.1-0.7-2-1.7-3-2.6c-1.6-1.4-3.5-2.7-5-4
		c-1.3-1.2-2.6-2.5-3.7-3.9c-1.1-1.4-1.9-3-2.8-4.4c-1.6-2.4-2.8-5-4-7.6c-0.7-1.8-1-3.6-1.5-5.4c-0.2-0.9-0.5-1.8-0.6-2.7
		c-0.4-2.8-0.4-5.6-0.5-8.4c-0.1-3.7-0.1-7.5,0.2-11.2c0.1-2.5,0.6-4.9,1.1-7.4c0.8-4.2,1.4-8.4,2.7-12.5c0.8-2.7,2.3-5.1,3.5-7.6
		c0.7-1.1,1.9-4,3.4-3.3c0.6,0.3,0.8,0.9,0.9,1.5c0.4,2.5,0.6,5.1,0.6,7.6c1.1-1.3,2.2-2.6,3.3-3.9c1.1-1.4,2.2-2.8,3.3-4.2
		c0.5-0.7,1.5-0.9,1.9,0.1c0.2,0.4,0.1,0.8,0.1,1.3c0,0.8,0,1.7,0,2.5c0,2.2,0,4.4,0.3,6.5c1.9-1.2,3.7-2.5,5.9-3
		c0.9-0.2,2.2-0.6,2.9,0.2c0.6,0.8,0.2,1.8,0,2.6c-0.4,1.3-0.7,2.7-1,4c-1.4,5.5-3.4,11-3.4,16.7c0,3.2,0.5,6.4,1.1,9.5
		c0.7,3.8,1.8,7.6,3.5,11.2c1.1,2.3,2.3,4.7,4.3,6.4c1.8,1.6,3.8,2.8,5.9,4c1.1,0.7,2.2,1.3,3.4,1.9c1.2,0.5,2.5,0.9,3.7,1.3
		c1.9,0.6,3.9,1.3,5.9,1.5c2.2,0.2,4.4,0.1,6.6-0.1c1.4-0.1,2.9-0.2,4.3-0.2c1.3,0,2.5,0,3.8,0c0.3,0,0.6,0,0.9,0c0.4,0,0.8,0,1.2,0
		c1.2-1,2.5-2.1,3.9-2.8c1.2-0.8,2.2-1.9,3-3.1c-2.2-1.1-4.3-2.4-6.6-3.4c-3.1-1.4-6.4-2-9.6-3.1c-2.5-1-4.8-2.2-7.3-3.2
		c-1.5-0.6-3.1-0.9-4.7-1.5c-3-1.1-5.5-3.3-7.8-5.5c-2.8-2.9-5.7-6.2-6.1-10.3c-0.3-2.4-0.2-4.7,0-7.1c0.3-3.5,1.3-8.4,3.7-11
		c2-2.4,4.6-1.5,7.1-0.6c2.5,1,5.1,1.7,7.6,2.5c0.4,0.1,0.8,0.2,1.1,0.3c0-0.2,0.1-0.4,0.3-0.5c1.8-0.6,3.5-1.7,5.2-2.4
		c1.5-0.6,3-1.1,4.5-1.5c2.2-0.6,3.6-0.7,5,1.3c1.8,2.5,3,5.4,4.2,8.2c2.2-0.6,4.2-1.9,6.3-2.7c2.3-1.1,3.9-1.6,5,1.2
		c1,2.4,1.4,4.9,2.6,7.1c1,0,1.9-0.5,2.8-0.8c1.4-0.6,2.7-1.2,4.1-1.6c5.4-2,5.9,4.2,7.4,7.7c1.5-0.8,2.8-2.1,4.4-3
		c1.7-0.9,4.1-2.6,6-1.5c2,1.4,2.8,5,3.6,7.2c0.1,0.2,0.1,0.3,0.2,0.5c0.1,0.2,0.1,0.3,0,0.5c1.5,0.2,3.1,0.3,4.5-0.4
		c5.1-2.5-1.6-10.8-3.7-13.7c-0.7-1-1.5-1.9-2.2-2.9c-0.7,0.3-1.4,0.3-2.1,0.5c-0.7,0.2-1.5,0.3-2.2,0.5c-1.6,0.3-3.2,0.7-4.8,0.5
		c-2.7-0.3-4.1-2.9-4.8-5.2c-0.8-2.3-1.3-4.7-2.2-7c-1.8,0.1-3.6,0.7-5.3,1.2c-1.5,0.5-3,1.3-4.7,1.3c-2.1-0.1-3.1-2.4-4-4
		c-1.3-2.3-1.7-5-2.5-7.5c-2.2,0.3-4.4,0.7-6.7,0.7c-2.2-0.1-5.6,0.1-7.3-1.4c-1-1-1.2-2.6-1.6-3.9c-0.6-2.2-1.3-4.5-1.5-6.8
		c0-0.2,0-0.4,0-0.6c-0.1-0.1-0.3-0.2-0.4-0.3c-0.2-0.1-0.3-0.2-0.5-0.3c-0.1,0.1-0.1,0.1-0.2,0.1c-0.7,0.3-1.5,0.6-2.3,0.9
		c-2.6,1-5.4,2.4-8.3,1.9c-1.8-0.2-3-1.6-3.9-3.1c-1.8-2.8-2.9-6.1-3.3-9.5c-2.7,1-9.9,4-12.2,1.6c-1-1.3-0.9-3.1-1.1-4.6
		c-0.2-2.2-0.5-4.5-0.5-6.7c-1.7-1.4-3.2-2.9-4.6-4.6c-2.7-3-3.3-7.4-2.3-11.2c0.6-2.3,1.8-4.4,2.9-6.5c1.9-3.5,3.9-7.3,7.3-9.6
		c2.8-1.9,6-3.1,9.4-3.4c2.4-0.3,4.8,0.2,7.2,0.7c1.6,0.3,3.2,0.7,4.7,1.1c2.4,0.6,4.6,1.5,6.9,2.3c3.1,1.2,6.3,2.3,9.2,4
		c3.4,2,6.4,4.8,9.3,7.4c0.1,0.1,0.2,0.2,0.4,0.3c0.1-0.1,0.1-0.2,0.2-0.3c-0.1-1.4,0.3-2.9,1.3-4.4c1-1.6,2.5-2.9,4.3-3.3
		c1-1.4,4.6-2.9,5.8-3.4c2.3-0.9,4.7-1.2,7-1c0-0.1,0.1-0.1,0.2-0.1c1.5-0.6,3-1,4.6-1.3c2-0.5,4-0.3,6,0.2c0,0,0,0,0,0
		c0.1-0.3,0.3-0.4,0.5-0.6c2.8-1.6,5.8-2.9,8.9-3.7c2.6-0.7,5.2-1,7.8-1.2c2.6-0.2,5.1,0.3,7.6,1c2.4,0.8,5,1.7,6.8,3.6
		c1.8,1.9,3,4.3,4.2,6.6c1.1,2.2,2,4.7,2.1,7.2c0.1,1.6-0.4,3.2-0.8,4.8c-0.1,0.3-0.3,1-0.5,1.6c1.4,0.5,2.7,1,3.9,1.8
		c0.7,0.4,1.4,0.9,2,1.4c1.1,0.8,2,1.7,3.1,2.4c0.2-0.1,0.3-0.1,0.5-0.2c3.1-1.1,6.3-2.2,9.5-2.4c3.3-0.1,6.5,1.4,9.5,2.6
		c1.5,0.7,3.1,1.5,4.4,2.4c1.4,1,2.5,2.2,3.6,3.4c0.8,0.8,1.6,1.7,2.4,2.6c1.4,1.7,2.9,3.4,4,5.3c0.8,1.4,1.5,2.8,2,4.3
		c0.9,2.3,1.3,4.8,1.6,7.3c0.2,2.5,0.4,5,0.1,7.5c-0.2,2.4-0.9,4.8-1.6,7.1c-1.3,4.7-3,9.3-5,13.8c-1.2,3-2.6,5.9-4.2,8.8
		c-0.4,0.7-0.8,1.4-1.3,2.1c-0.3,0.4-0.6,0.7-0.9,1c0.6,0.8,1,1.7,1.4,2.7c1,2.8,1.9,5.6,2.2,8.6c0.2,3.3-0.1,6.6-0.6,9.8
		c-0.8,6.5-4.7,12.3-9.4,16.8c-1.2,1.1-2.6,2-3.9,3c-1.3,1-2.6,1.9-4.1,2.6c-2.9,1.3-5.9,2.4-8.8,3.5c0.1,0.1,0.3,0.2,0.4,0.5
		c1.2,4,1.7,8.1,1.9,12.2c0.3,7.4,0.7,14.8,0.5,22.3c-0.1,3-0.3,5.9-0.4,8.9c-0.1,2.6-0.1,5.1-0.2,7.7c2.2,0.7,4.4,1.3,6.4,2.3
		c2,0.9,3.7,2.3,5.7,3.1c1.7,0.8,3.6,1.3,5.3,2c3.2,1.1,6.7,1.5,9.9,2.7c1.3,0.5,2.6,1.1,3.8,1.7c1.2,0.6,2.4,1.2,3.3,2.3
		c0.8,1,1.3,2.4,0.5,3.5c-1.2,1.5-2.9,2.4-4.4,3.5c-1.2,0.9-2.3,2-3.6,2.7c-1.3,0.7-2.6,1.3-4,1.8c-2.8,1.1-5.8,1.4-8.8,1.8
		c-2.2,0.3-4.4,0.7-6.7,1.1c-2.2,0.4-4.4,0.4-6.6,0.5c-2.9,0.2-5.8,0.3-8.7,0.2c-2-0.1-4-0.2-5.9-0.4c-3.2-0.2-6.3-0.3-9.5-0.2
		c-2.3,0.1-4.5,0.3-6.8,0.6c-3.5,0.4-7,0.2-10.5,0.4c-2,0.2-4,0.9-6,1.1c-2.3,0.2-4.6,0.3-6.9,0.5c-3,0.2-5.9,0.7-8.8,1.2
		c-5,0.6-10.1,1.3-15.1,1.3C88.2,228.2,87.3,228.1,86.4,228.1z"/>
	<path class="st1" d="M43.4,59.9c3.3,0.5,5.7,3.9,3.5,6.9c-0.6,0.7-1.5,1.2-2.4,1.5c0.3,0.4,0.1,1.1-0.5,1.1
		c-0.7-0.1-1.4-0.1-2.1-0.4c-0.1-0.1-0.2-0.2-0.3-0.4c-4.2-0.2-6.4-3.2-4.5-7.3c0.2-1.7,2.6-1.5,3.9-1.6
		C41.8,59.8,42.6,59.8,43.4,59.9z"/>
	<path class="st1" d="M62.1,70.6c2.1,2.5,2.7,8.8-1.9,8.3c-1.4-0.1-3-0.4-4-1.5c-1.1-1.2-2.4-2.3-3.3-3.6c-1.4-2.2-0.8-5.8,2.3-5.9
		c0.2-0.5,0.8-0.6,1.2-0.6C58.6,67.3,60.8,68.9,62.1,70.6z"/>
	<path class="st1" d="M67.5,161.7c-0.9-0.2-1.3-2.7-1.5-3.5c-0.3-0.8-0.7-1.7-0.4-2.6c-0.1-1.2-0.4-3.7,0.7-4.5
		c0.4-0.2,0.9,0.2,0.9,0.6c0,0.3-0.2,0.5-0.2,0.7c-0.1,1.5,0.1,2.9,0.5,4.3c0.2,1,0.5,2,0.8,3C68.6,160.6,68.6,161.9,67.5,161.7z"/>
	<path class="st2" d="M174.8,117.8c-1.6-1.7-1.5-5-1.1-7.2c0.1-1.7,0.1-5.2,1.8-6c0.8-1,1.8-2.7,3.3-1.9c1.5,1,1.6,3.1,1.8,4.7
		c0.2,3.2,0.2,6.9-1.9,9.5c-0.5,0.6-1.2,1.1-2,1C176.2,118.4,175.4,118.3,174.8,117.8z"/>
	<path class="st2" d="M177.8,97.8c-1.9-0.4-0.8-3.6-0.6-4.8c0.3-1,0.6-2.1,1.3-2.8c0.9-0.8,1.8-0.1,2.1,0.9c0.8,1.9,0,4.8-1.6,6.1
		C178.8,97.5,178.3,97.8,177.8,97.8z"/>
	<path class="st2" d="M157.4,189.5c0-0.1,0.1-0.1,0.1-0.2c0,0-0.1,0-0.1,0C157.4,189.3,157.4,189.4,157.4,189.5z M156.9,192.6
		c-1.9-0.7-1.3-6.6-0.3-8.1c0.4-1,1.2-2.1,2.4-1.9c1.5,0.4,1.6,2.7,1.5,4C160.2,188.2,159.1,193.2,156.9,192.6z"/>
	<path class="st2" d="M158.8,179.3c-0.3-0.4-0.3-0.9-0.3-1.4c-0.2-1.1,0.1-2.3,0.4-3.4c0.2-0.7,0.1-1.7,0.6-2.3
		c0.4-0.2,0.9-0.5,1.3-0.3c0.8-0.1,1.4,0.7,1.5,1.4c0.3,1.8-0.4,4-1.6,5.5C160.3,179.3,159.4,180,158.8,179.3z"/>
	<path class="st2" d="M161.7,166.3c0-1.2,1.6-1.2,1.6,0C163.3,167.5,161.7,167.5,161.7,166.3z"/>
	<path class="st2" d="M81.3,145.3c-0.7,0.2-1.5,0.5-2.2,0.7c-0.1,0-0.1,0-0.2,0C79.6,145.8,80.4,145.5,81.3,145.3z"/>
	<path class="st2" d="M80,163c0.1,0,0.3,0,0.4-0.1c-2.7,0.5-5.4,0.8-8.1,0.3c-0.7,0-1.8-0.5-2.3,0c-0.3,0.1-0.5,0.5-0.5,0.8
		c0,0.8,0.1,1.5,0.2,2.3c0.3,2.3,0.7,4.5,1.3,6.7c0.5,1.9,0.6,3.8,1,5.7c0.2,1.4,0.2,2.9,0.5,4.3c0.2,1.1,0.3,2.2,0.4,3.2
		c0.1,0.7,0.2,1.4,0.4,2c-0.1,0.5-0.3,1-0.8,1.3c-1,0.5-2.2,0.3-3.2,0.6c-0.8,0.5-1.5,1.2-2.2,1.7c0.2,1.2,0.6,2.4,0.8,3.6
		c0.1,0.6,0.2,1.5-0.5,1.7c-0.4,0.1-0.7-0.1-1-0.3c-0.9-0.6-1.8-1.4-2.7-2c-1.3,0.8-2.8,1.1-4.1,1.9c0.6,4.7,2.3,9.1,3.9,13.5
		c0.4,1.1,0.9,2.2,1.5,3.2c0.5,0.9,1.2,1.8,1.6,2.8c0.4,0.9-0.2,1.9-1.2,1.8c-1.7-0.1-3.1-1.1-4.5-1.9c-1.4-0.8-2.8-1.5-4.2-2.3
		c-1.4-0.8-2.3-2.2-3.3-3.4c-1.2-1.7-2.4-3.4-3.1-5.3c0,0.2,0,0.4,0.1,0.6c0.1,0.2,0.2,0.6,0,0.8c-0.2,0.2-0.6,0.1-0.7-0.1
		c-0.2-0.4-0.2-0.8-0.3-1.2c-0.1-0.9-0.1-1.7-0.2-2.6c-0.1-2.5-0.2-5-0.3-7.4c-0.2-4.8,0-9.7,0.7-14.4c0.7-3.1,1.4-6.3,2.6-9.3
		c1-2.2,1.6-4.6,2.8-6.7c0.7-1.4,1.7-2.8,2.6-4.1c1.3-1.9,2.7-3.8,4.1-5.6c1-1.3,2.3-2.2,3.7-3c0.3-0.2,0.5-0.3,0.8-0.5
		c-0.4,0.7-0.6,1.4-0.8,2.2c-0.3,1.7,0.1,3.5,0.6,5.2c-0.5,0.7,0.3,1.4,0.6,1.9c1.3,1.5,2.5,1.2,4.3,1.4c2.3,0.3,4.2,0.7,6.5,0.8
		C78.4,163.3,79.2,163.2,80,163z"/>
	<path class="st2" d="M99.4,172.9c0.2,0,0.3,0.1,0.5,0.1c-1.3,0-2.7,0-4,0C97.1,172.8,98.3,172.8,99.4,172.9z"/>
	<path class="st2" d="M120.6,168.4c0,0.7,0.1,1.6-0.6,2c-0.4,0.2-0.8,0.1-1.2,0.2c-2.2,0.4-4.5,0.9-6.7,1.1
		c-1.1,0.1-2.3,0.1-3.4,0.2c-1,0.1-1.9,0.4-2.9,0.6c-0.9,0.2-1.8,0.3-2.7,0.4c0.5-0.2,0.9-0.6,1-1.1c0.2-0.9-0.3-1.9-0.6-2.8
		c-0.3-0.8-0.3-1.7-0.6-2.5c0-0.1,0-0.1-0.1-0.2c-0.1-3.3-1.4-9.5-2.1-9.7c-1.9-0.8-4.5,2.3-6.1,3.2c-3.8,1.8-8.1,2.2-12.3,2.9
		c0.8-0.2,1.5-0.4,2.3-0.6c2.9-0.7,5.8-1.7,8.6-2.7c0.7-0.3,1.4-0.6,2.1-0.9c1.5-0.5,2.9-1.3,4-2.5c0.6-0.6,1.3-1.1,1.4-2
		c0-1.3-0.2-2.6-0.4-3.8c-0.2-0.8-0.4-1.5-0.7-2.2c-0.5-1.5-1-3.2-2.5-3.9c-1.1-0.5-2.4-0.5-3.6-0.3c-1,0.1-2,0.2-3,0.4
		c-0.5,0.1-1.1,0.1-1.6,0.2c-1.5,0-3-0.2-4.5,0.2c-0.6,0.1-1.2,0.3-1.8,0.5c2.7-1,5.5-1.9,8.4-2.3c2.3-0.3,4.5-0.8,6.8-0.9
		c1.6-0.1,3.1,0.2,4.7,0.5c1.6,0.4,3.2,0.8,4.6,1.7c1.9,1.4,3.8,2.7,5.8,4.1c2.1,1.5,3.3,3.8,4.4,6.1c1.8,3.2,2.3,6.7,2.8,10.2
		C120.5,165.6,120.6,167,120.6,168.4z"/>
	<path class="st2" d="M18.4,177.3c0.7,1.5-0.4,2.2-1.6,2.8c-0.9,0.4-1.8,0.7-2.7,0.9c-0.7,0.2-1.4,0.1-1.5-0.8
		c-0.3-0.8-0.4-1.8-0.4-2.6c-0.1-1.5-0.1-3.1-0.1-4.6c-0.1-0.8,0-2.1,1.1-1.8c0.6,0.2,1,0.8,1.4,1.2C16,173.8,17.4,175.4,18.4,177.3
		z"/>
	<path class="st2" d="M29.5,175.7c1.2,2,1.4,3.6-1.4,3.8c-0.6,0.1-1.3,0.1-1.9,0.2c-0.6,0-1.3,0.3-1.8-0.2c-0.1-0.1-0.2-0.3-0.3-0.5
		c-0.9-0.2-0.9-1.9-1-2.7c-0.2-1.6-0.1-3.3-0.4-4.9c-0.1-0.4-0.1-0.9,0.3-1.3C24.5,168.8,28.6,174.6,29.5,175.7z"/>
	<path class="st2" d="M8.5,180.5c0.6,1.3,0.1,2.4-1.3,2.8c-1.1,0.3-2.2,0.5-3.3,0.5c-0.8,0.1-1.7-0.5-1.6-1.4
		c-0.2-0.8-0.3-1.6-0.4-2.4c-0.2-1.2-0.4-2.3-0.6-3.5c-0.1-0.6-0.2-1.3,0.2-1.9c0.2-0.5,0.9-0.8,1.4-0.4c0.4,0.3,0.6,0.8,0.9,1.3
		c0.5,0.8,1.3,1.6,2,2.2C6.7,178.5,8.1,179.2,8.5,180.5z"/>
	<path class="st2" d="M171.8,151.7c1.6,3.1-4.7,10.8-6,7.8c0-2.1,0.3-4.2,0.1-6.3c0,0,0,0,0,0.1c-0.1-1.7-0.4-3.4-0.8-5.1
		c-0.2-0.5-0.4-1-0.1-1.4c-0.2-0.8,0.8-1.6,1.4-1c0.4,0.4,0.9,0.7,1.4,0.9C169.6,147.8,171.3,149.4,171.8,151.7z"/>
	<path class="st2" d="M170.2,164.5c0.8,1.3,1.8,2.8,1.5,4.5c-0.1,1.4-3.4,4.9-4.7,4.4c-0.6-0.2-0.8-1-0.8-1.6c-0.1-1,0-1.9-0.1-2.9
		c-0.2-0.2-0.3-0.4-0.3-0.7c0-1.3,0-2.5,0-3.8c0-0.6,0.1-1.3,0.1-1.9c0-0.6,0.6-1.5,1.2-1C168.2,161.7,169.6,163.6,170.2,164.5z"/>
	<path class="st2" d="M171.1,179.5c0.1,1.9-0.7,3.9-1.9,5.4c-0.5,0.6-1.1,1.2-1.6,1.7c-0.4,0.4-1,1-1.5,0.4
		c-0.5-0.5-0.2-1.2-0.2-1.7c0.1-1.1,0.1-2.1,0.1-3.2c0-1.6-0.1-3.2-0.1-4.7c0.1-0.8-0.2-2,0.7-2.4c0.5-1,1.4-0.7,2.1,0
		C169.9,176.1,170.9,177.7,171.1,179.5z"/>
	<path class="st3" d="M48.6,45.8c0.6,0.4,1.1,0.8,1.7,1.2c-0.5,0.2-1,0.5-1.6,0.6c-2.4,0.7-4.9,1.6-7.4,1.5
		c-0.5-0.1-1.2-0.2-1.3-0.8c-0.2-0.9-0.3-1.9-0.4-2.8c-0.2-1.6-0.3-3.2-0.5-4.8c0-0.3-0.1-0.5-0.1-0.8c1.7,1.3,3.5,2.4,5.5,3.3
		C45.8,44,47.2,44.9,48.6,45.8z"/>
	<path class="st3" d="M67.1,57c-0.7,0.2-1.3,0.5-2,0.8c-1.1,0.4-2.1,0.9-3.2,1.2c-1.4,0.3-2.9,0.6-4.2,0c-0.8-0.3-1.3-1.1-1.8-1.8
		c-1.3-2.1-2.3-4.3-2.8-6.8c-0.1-0.6-0.2-1.1-0.3-1.7c0.8,0.5,1.6,1,2.4,1.4c2.3,1.3,4.7,2.3,6.9,3.7C63.8,55,65.5,56,67.1,57z"/>
	<path class="st3" d="M76.2,91c0.2,0.4,0.4,0.9,0.5,1.3c-2.5-0.9-5.1-1.4-7.7-2.2c-2.5-0.7-5.2-1.2-7.7-1.8c1.1-0.4,2.1-1.1,3.2-1.5
		c2.2-0.9,4.5-1.8,6.9-2.1c1.6-0.3,2.8,2.7,3.6,3.9C75.5,89.4,75.9,90.2,76.2,91z"/>
	<path class="st3" d="M86.1,69.1c-0.1,0-0.2,0-0.3,0c-2.7,0.5-5.4,0.5-8.1,0.3c-1.2-0.2-2.6-0.2-3.5-1c-0.4-0.5-0.5-1.2-0.7-1.8
		c-0.7-2.3-1.5-4.7-1.8-7.1c0.6,0.3,1.1,0.6,1.7,1c3.5,2.3,6.6,5.2,10.3,7.2C84.3,68.2,85.2,68.6,86.1,69.1z"/>
	<path class="st3" d="M89.8,95.3c0.3,1,0.6,1.9,1,2.9c-2.5-1.2-5.2-2.2-7.7-3.3c-0.7-0.3-1.5-0.7-2.2-1c1.1-0.5,2.2-1,3.3-1.5
		c0.5-0.2,1-0.5,1.6-0.7c0.7-0.2,1.5-0.7,2.3-0.6c0.3,0.2,0.5,0.6,0.6,0.9C89,93,89.4,94.2,89.8,95.3z"/>
	<path class="st3" d="M101.9,78.2c-1.6,0.4-3.2,0.9-4.7,1.4c-1.5,0.5-3.5,1.6-4.7,0.1c-1.2-1.6-2.1-3.4-2.7-5.3
		c-0.3-1.1-0.6-2.3-0.9-3.4c1.9,1.2,3.8,2.4,5.7,3.6C97,75.8,99.5,76.9,101.9,78.2z"/>
	<path class="st3" d="M117,87.5c0.5,0.4,0.9,0.8,1.3,1.3c-0.8,0.2-1.5,0.4-2.3,0.6c-2.1,0.4-5,1.4-6.8-0.1c-1.1-1.1-1.6-2.7-2.1-4.1
		c-0.3-1.1-0.7-2.3-1.1-3.5c-0.1-0.4-0.3-0.8-0.4-1.3c0.9,0.6,1.8,1.1,2.7,1.7C111.3,83.8,114.4,85.2,117,87.5z"/>
	<path class="st3" d="M105.6,104.5c-0.2-0.1-0.4-0.1-0.5-0.2c-3.3-0.9-6.6-2.1-9.6-3.7c-0.4-0.2-0.8-0.5-1.3-0.7
		c2.5-0.9,4.9-2.4,7.7-2.5c2,0.2,2.8,4.4,3.4,6.1C105.3,103.7,105.5,104.1,105.6,104.5z"/>
	<path class="st3" d="M119.5,107.1c-0.2,0-0.5-0.1-0.7-0.1c-1.2-0.2-2.4-0.4-3.6-0.5c-2.4-0.3-4.8-0.7-7.1-1.3
		c0.6-0.4,1.2-1,1.7-1.3c0.6-0.4,1.1-0.9,1.7-1.3c1.2-0.7,2.5-1.4,3.9-1.8c0.9-0.3,1.6,0,2.1,0.8c0.7,1.1,1.1,2.3,1.5,3.5
		C119,105.7,119.3,106.4,119.5,107.1z"/>
	<path class="st3" d="M148.9,59c0.6,1.1,0,2.7-1.2,2.9c-1.2,0.1-2-1.1-2.4-2.1c-0.5-1.6,0.8-3.1,2.4-2.6
		C147.8,57.9,148.6,58.3,148.9,59z"/>
	<path class="st3" d="M170.1,72.2c0,0.6-0.1,1.1-0.1,1.7c-0.3,0-0.6,0-0.9,0c-0.5,0-1,0-1.5-0.1c-2-0.1-3.8-0.2-5.9-0.5
		c-3-0.6-5.9-1.5-8.7-2.7c-0.6-0.3-1.1-0.6-1.7-0.9c0.3-0.4,0.6-0.8,0.8-1.1c1-1.5,1.9-3.2,2.5-4.9c1-2.4,1-5,0.2-7.5
		c-1-3.1-2.8-6.2-5.8-7.7c-3.7-1.7-8.2-2.7-11.9-0.7c-1.8,1.1-3.5,2.6-4.8,4.3c-0.2-0.5-0.4-1-0.6-1.5c-0.2-1.5,0.2-3.2,1-4.5
		c1.3-1.9,3.8-2.4,5.9-2.7c2.2-0.1,4.3,0.5,6.3,1.3c2.1,0.8,4,1.7,5.9,2.9c2.5,1.4,5.3,2.2,7.6,3.9c1.1,0.8,2,1.9,2.9,3
		c1.8,2.2,4,4,5.7,6.2c1,1.5,1.4,3.5,1.8,5.2c0.2,1.1,0.5,2.2,0.7,3.2c0.1,0.6,0.2,1.5,0.3,2.2C169.9,71.7,169.9,72,170.1,72.2z"/>
	<path class="st3" d="M105.6,25.8c0.2,0.2,0.3,0.6,0.3,0.9c0,0.8-0.4,2.1-1.3,2.2c-1.2,0-2.4-1.4-2.1-2.5c0.4-1.1,1.7-1,2.6-1.1
		C105.2,25.5,105.4,25.6,105.6,25.8z"/>
	<path class="st3" d="M120.3,38.2c-0.1,0-0.1,0-0.2,0c-0.6,0-1.1,0-1.6,0c-2.1-0.1-4.3-0.2-6.4-0.7c-1.9-0.6-3.7-1.3-5.4-2.3
		c0.8-0.5,1.7-1.7,2.2-2.2c2.5-3,2.1-7.1,0.6-10.4c-1.3-3.1-4-5.5-7.2-6.4c-4.1-1.4-8.6,0.7-11.6,3.4c-0.1,0-0.2,0-0.4,0.1
		c-0.1,0.1-0.3,0.2-0.4,0.3c-0.4-1.3-0.4-2.7,0.6-4.1c2.1-3.1,4-3.1,7.3-2.1c2,0.5,4.1,1.1,5.8,2.3c3.5,2.6,7.2,4.8,10.2,8.1
		C116.8,28.1,119.7,32.9,120.3,38.2z"/>
	<path class="st3" d="M71.6,174.5c0,0.3-0.1,0.5-0.1,0.8c-0.1-0.4-0.1-0.7-0.2-1.1c0,0,0,0.1,0.1,0.1
		C71.5,174.4,71.5,174.5,71.6,174.5z"/>
	<path class="st3" d="M101.3,178.8c-0.4,0-0.8,0.1-1.2,0.1c-1.1,0-2.2-0.2-3.2-0.4c-0.7-0.2-1.4-0.7-2.1-1.1
		c-1.2-0.8-2.9-1.5-3.1-3.1c0.2-0.1,0.4-0.2,0.6-0.3c-0.2,0.2-0.7,0.5-0.5,0.8c0.4,0.6,0.9,1.1,1.5,1.4c1.3,0.6,2.5,1.2,3.9,1.7
		C98.6,178.2,99.9,178.4,101.3,178.8z"/>
	<path class="st3" d="M102.8,165.1c-0.8-0.6-2.1,0.4-2.8,1c-0.3,0.2-0.4,0.5-0.3,0.8c-1.5,0.6-3,1.1-4.5,1.7c-1.2,0.5-2.4,1-3.6,1.2
		c-1.1,0.2-2.3,0.2-3.4,0.5c-0.5,0.2-1.2,0.2-1.5,0.7c-1.9,0.1-3.7,0.5-5.5,1.1c-0.7,0.2-1.3,0.5-2,0.6c-0.8,0.1-1.6,0.1-2.4,0.2
		c-1.2,0.1-2.4,0.2-3.6,0.2c-0.3,0-0.6,0-0.9,0c-0.3,0-0.6-0.1-0.8,0.1c-0.2,0.2-0.2,0.4-0.2,0.6c-0.1-0.2-0.1-0.5-0.2-0.7
		c-0.6-2.2-1-4.4-1.3-6.7c-0.1-0.8-0.2-1.5-0.2-2.3c0-0.3,0.2-0.8,0.5-0.8c0.5-0.5,1.6-0.1,2.3,0c2.7,0.4,5.4,0.2,8.1-0.3
		c0.3-0.1,0.6-0.1,0.9-0.2c0.4-0.1,0.8-0.1,1.2-0.2c4.1-0.7,8.4-1.1,12.3-2.9c1.6-0.9,4.2-4,6.1-3.2
		C101.5,156.7,102.6,161.7,102.8,165.1z"/>
	<path class="st3" d="M103.5,172.5c-0.1,0.1-0.3,0.2-0.4,0.3c-0.2,0.1-0.3,0.1-0.5,0.2c-0.9,0.3-1.8,0.2-2.7,0c-0.1,0-0.3,0-0.4-0.1
		C100.9,172.7,102.2,172.4,103.5,172.5z"/>
	<path class="st3" d="M103.4,179.5c0.5,0.4,0.4,1.2-0.1,1.5c-0.2,0.1-0.3,0.2-0.5,0.3c-0.9,0.7-1.9,1.5-3,1.8
		c-1.1,0.5-2.2,0.9-3.2,1.6c-0.3,0.3-0.6,0.6-0.9,0.9c0.3-0.6,0.7-1.2,1.2-1.7c1.3-1.3,2.8-2.4,4.5-3.1c0.6-0.3,1.3-0.3,1.7-0.7
		C103.3,180.1,103.4,179.8,103.4,179.5z"/>
	<path class="st3" d="M110,200.9c0.3,1.1-0.3,1.8-1.4,2.2c-1.8,0.7-3.5,1.6-5.3,2.2c-2.7,0.8-5.3,1.5-8,2.2
		c-0.8,0.2-1.6,0.3-2.4,0.5c-1.4,0.3-2.9,0.7-4.4,0.8c-2.1,0.2-4.2,0.7-6.3,0.7c-0.4,0-0.9-0.1-1.2-0.5c-0.2-0.2-0.3-0.5-0.4-0.8
		c-0.5-1.1-0.9-2.3-1.6-3.4c-1.5-2.6-2.2-5.5-3.1-8.3c-0.9-2.7-1.9-5.3-2.6-8.1c-0.2-0.7-0.3-1.3-0.4-2c0-0.3-0.1-0.5-0.1-0.8
		c0,0.1,0,0.2,0.1,0.2c0.5,1.4,0.8,3.5,2.3,4.2c1.1,0.3,2.2-0.2,3.3-0.3c2.2-0.4,4.4-0.7,6.5-1.3c2.4-0.5,4.8-0.6,7.2-0.6
		c1.1-0.1,2.4,0,2.9-1.2c0.1-0.1,0.2-0.3,0.2-0.4c0.8,0.5,1.6,0.8,2.6,0.9c1,0.2,1.9,0.3,2.9,0.3c0.7-0.1,1.4-0.2,2.2-0.3
		c0.6-0.1,1.3-0.2,1.8,0.2c0.6,0.5,0.3,1.3,0.1,1.8c-0.1,0.5-0.4,1-0.6,1.5c-0.6,1.5-1.7,2.6-2.5,4c-0.5,0.8-0.9,1.7-1.3,2.5
		c2.2,0.8,4.8,0.5,7.1,0.1c0.7-0.1,1.2-0.7,1.7,0.1c0.2,0.4,0.2,0.9,0.3,1.4C109.7,199.6,109.8,200.2,110,200.9z"/>
	<path class="st1" d="M103.8,168.6c0.2,1.1,1.6,3.6-0.2,4c0,0-0.1,0-0.1,0c-1.3-0.1-2.6,0.1-3.9,0.4c-0.5,0.1-1.1,0.2-1.6,0.3
		c-1.1,0.2-2.2,0.3-3.2,0.4c-0.8,0-1.6,0.1-2.4,0.4c-0.2,0.1-0.4,0.2-0.6,0.3c0.2,1.6,1.9,2.3,3.1,3.1c0.7,0.4,1.3,0.9,2.1,1.1
		c1,0.3,2.1,0.5,3.2,0.4c0.4,0,0.8-0.1,1.2-0.1c0.5-0.1,1-0.1,1.5,0c0.4,0.1,0.6,0.4,0.6,0.8c0,0.3,0,0.5-0.2,0.7
		c-0.5,0.5-1.2,0.5-1.7,0.7c-1.7,0.7-3.2,1.8-4.5,3.1c-0.5,0.5-0.8,1.1-1.2,1.7c0,0,0,0,0,0c-0.1,0.2-0.2,0.3-0.3,0.5
		c-0.1,0.1-0.2,0.3-0.2,0.4c-0.5,1.1-1.8,1.1-2.9,1.2c-2.4,0.1-4.8,0.1-7.2,0.6c-2.2,0.5-4.4,0.9-6.5,1.3c-1.1,0.1-2.2,0.5-3.3,0.3
		c-1.4-0.7-1.8-2.8-2.3-4.2c0-0.1-0.1-0.1-0.1-0.2c-0.3-1-0.4-2-0.6-3c-0.6-1.9-0.7-3.8-0.8-5.7c0-0.5,0-1,0-1.6
		c0-0.3,0-0.5,0.1-0.8c-0.1-0.1-0.1-0.1-0.2-0.2c0,0,0-0.1-0.1-0.1c-0.1-0.1-0.1-0.3-0.1-0.4c0-0.2,0.1-0.4,0.2-0.6
		c0.2-0.2,0.5-0.2,0.8-0.1c0.3,0,0.6,0,0.9,0c1.2,0,2.4-0.1,3.6-0.2c0.8-0.1,1.6-0.1,2.4-0.2c0.7-0.2,1.3-0.4,2-0.6
		c1.8-0.6,3.6-1,5.5-1.1c0.3-0.5,1-0.5,1.5-0.7c1.1-0.3,2.3-0.3,3.4-0.5c1.3-0.2,2.4-0.7,3.6-1.2c1.5-0.6,3-1.1,4.5-1.7
		c0-0.3,0.1-0.6,0.3-0.8c0.7-0.6,2-1.6,2.8-1c0.1,0.1,0.2,0.2,0.3,0.4C103.6,166.5,103.4,167.6,103.8,168.6z"/>
	<path class="st4" d="M100.5,150c0.3,1.3,0.4,2.6,0.4,3.8c0,0.9-0.8,1.4-1.4,2c-1,1.2-2.5,2-4,2.5c-0.7,0.3-1.4,0.6-2.1,0.9
		c-2.8,1-5.7,2-8.6,2.7c-0.8,0.2-1.5,0.4-2.3,0.6c-0.4,0.1-0.8,0.1-1.2,0.2c-0.3,0.1-0.6,0.1-0.9,0.2c-0.1,0-0.3,0-0.4,0.1
		c-0.8,0.1-1.6,0.3-2.4,0.2c-2.3-0.2-4.2-0.6-6.5-0.8c-1.7-0.2-3,0.2-4.3-1.4c-0.4-0.5-1.1-1.3-0.6-1.9c-0.5-1.6-1-3.4-0.6-5.2
		c0.2-0.7,0.4-1.5,0.8-2.2c0.4-0.8,1-1.5,1.7-2c2-1.4,4.3-2.3,6.7-2.8c1.4-0.4,2.8-0.7,4.2-0.9c0.1,0,0.1,0,0.2,0
		c0.7-0.2,1.5-0.5,2.2-0.7c0,0,0,0,0,0c0.5-0.2,1-0.3,1.5-0.5c0.6-0.2,1.2-0.3,1.8-0.5c1.5-0.3,3-0.1,4.5-0.2c0.5,0,1.1-0.1,1.6-0.2
		c1-0.2,2-0.3,3-0.4c1.2-0.1,2.4-0.1,3.6,0.3c1.6,0.7,2,2.4,2.5,3.9C100.1,148.6,100.3,149.3,100.5,150z"/>
	<path d="M49.8,22.7c0.3,2.3-0.5,5.9-3.3,5.8C44.3,28,43.3,24,43,22.1c-0.3-1.6-0.3-3.3,0.4-4.8c0.3-0.6,0.7-1.1,1.3-1.4
		c0.7-0.3,1.8-0.3,2,0.6C49,17.4,49.5,20.4,49.8,22.7z M48.4,23.3c0,0.5,0,1-0.1,1.5c-0.1,0.4-0.2,0.9-0.4,1.2
		c0.6-1,0.6-2.2,0.5-3.3C48.3,23,48.4,23.1,48.4,23.3z"/>
	<path d="M75.3,35.6c0.9,1.4,0.6,3.6-1.2,4.1c-1.9,0.5-3.9,0.4-5.9,0.4c-1.8-0.1-3.8,0.1-5.4-0.9c-1-0.7-1.1-2.2-0.5-3.3
		c0.7-1.4,2.3-2.2,3.8-2.5c2-0.4,4.8-0.4,6.7,0.5C73.9,34.1,74.8,34.7,75.3,35.6z"/>
	<path d="M75.2,183.2c-0.3-0.2-0.3-0.6-0.4-0.9c-0.1-1-0.2-2-0.3-3c0-0.8-0.7-3.3,0.7-3.1c0.4,0.2,0.6,0.6,0.8,1
		c0.4,0.7,0.7,1.3,1.3,1.9c0.3-1.2,0.3-2.4,0.7-3.6c0.1-0.4,0.5-0.7,1-0.6c0.5,0.2,0.7,0.7,0.9,1.2c0.5,0.9,0.7,1.9,1.1,2.9
		c0.2,0.9,1.2,2.5,0.5,3.2c-1,0.6-1.2-1.3-1.5-1.9c-0.3-1-0.6-2.1-1-3.1c-0.2,0.9-0.3,1.9-0.6,2.9c-0.7,1.8-2,0-2.6-0.8
		c0.1,0.9,0.2,1.8,0.2,2.7C76,182.4,76,183.5,75.2,183.2z"/>
	<path d="M82.3,181.5c-0.2-0.9-0.2-1.9-0.3-2.8c-0.1-1-0.4-1.9-0.2-2.9c0-0.3,0.2-0.5,0.5-0.6c0.9-0.1,0.8,1.6,0.9,2.2
		c0.1,1,0.2,2,0.2,3c0,0.5,0.1,1.4-0.6,1.5C82.6,181.8,82.4,181.7,82.3,181.5z"/>
	<path d="M89.4,178.8c0.1,0.8,0.2,2.3-1,2.3c-0.6-0.1-0.8-0.7-1.1-1.1c-0.6-0.8-1.2-1.6-1.9-2.4c-0.1,0.7,0.8,4.2-0.6,3.8
		c-0.4-0.2-0.3-0.7-0.4-1.1c-0.1-1-0.2-2-0.3-3c0-0.6-0.2-1.2,0.1-1.7c0.2-0.3,0.6-0.5,0.9-0.3c1.1,1,2,2.3,2.9,3.5
		c-0.1-1.3-0.6-2.7-0.6-4c0-0.3,0.2-0.6,0.6-0.6c0.8-0.1,0.8,1,0.9,1.6C89.1,176.7,89.3,177.8,89.4,178.8z"/>
	<path d="M75.4,186.4c-0.3-0.3-0.3-0.8-0.1-1.1c0.3-0.3,0.7-0.3,1-0.3c1-0.2,2-0.2,3-0.4c1.9-0.2,3.7-0.7,5.5-1
		c1.3-0.2,2.6-0.4,3.8-0.7c1.9-0.5,3.9-0.6,5.8-0.8c0.5,0,1.1-0.4,1.6-0.1c0.5,0.4,0.4,1.4-0.3,1.5c-0.1,0-0.3,0.1-0.4,0.1
		c-1.1,0.2-2.1,0.1-3.3,0.2c-1.3,0.1-2.5,0.5-3.7,0.7c-1.2,0.2-2.5,0.4-3.8,0.6c-0.9,0.1-1.9,0.4-2.8,0.6c-1.6,0.3-3.2,0.5-4.8,0.7
		C76.5,186.4,75.9,186.7,75.4,186.4z"/>
	<path d="M43.9,68.4c2.3-0.1,4.4-2.5,3.3-4.8c-0.4-0.7-0.9-1.3-1.4-1.9c-0.4-0.2-0.8-0.4-1-0.8c-1.9-0.3-3.8-0.6-5.7-0.1
		c-1.1,0.2-1.7,1-2.1,2.1c-0.4,1.2-0.5,2.8,0.6,3.7C39.4,67.9,41.7,68.5,43.9,68.4z M41.5,70.2c-2.6-0.4-5.7-1.6-6.3-4.5
		c-0.4-2.3,0.6-5.8,3.1-6.6c1.8-0.7,6.3-0.4,7.8,0.8C52.1,63.9,48.4,71.6,41.5,70.2z"/>
	<path d="M61,77.6c1.5,0,2.3-1,2.5-2.4c0.2-1.3-0.2-2.6-1.1-3.6c-1-1.2-2.4-2-3.9-2.5c-0.5-0.2-1.3-0.2-1.4-0.9
		c-1.4,0-3.2,0.8-3.9,2.1c-1,2.5,1.3,4.7,3.1,6C57.8,77.2,59.4,77.7,61,77.6z M58.8,79.2c-3.1-0.6-5.8-2.9-7-5.7
		c-0.8-2-0.3-4.5,1.5-5.8c1.4-0.9,3.4-1.8,4.9-0.7c2.4,0.9,4.8,2.2,6.2,4.5c1.1,1.9,1,4.4-0.1,6.3C63.1,79.6,60.7,79.6,58.8,79.2z"
		/>
	<path d="M23,65.7c0.1-0.9,1.2-1.6,1.8-2c2.2-1.3,4.9-2.2,7.4-1.9c0.8,0.2,0.8,1.5,0,1.7c-1.6,0.1-3.2,0.2-4.7,0.8
		c-1.2,0.4-2.3,1-3.3,1.8C23.7,66.7,23,66.5,23,65.7z"/>
	<path d="M26.9,68.1c-0.8-0.1-0.8-1.2,0-1.4c1.8-0.3,3.5-0.8,5.3-0.8c0.9,0,0.9,1.5,0.1,1.7c-1,0.2-2,0.2-3,0.4
		C28.5,68,27.7,68.2,26.9,68.1z"/>
	<path d="M36.4,75.1c-0.4-0.2-0.4-0.8-0.2-1.1c0.3-0.3,0.7-0.4,1.1-0.5c1-0.2,2.1-0.3,3.2-0.4c2.3-0.1,4.5-0.7,6.8-0.4
		c0.9,0.2,0.9,1.8-0.1,1.8c-1.2,0-2.3-0.1-3.5,0c-1.9,0.1-3.7,0.2-5.6,0.4c-0.4,0-0.7,0.1-1.1,0.1C36.8,75.2,36.6,75.2,36.4,75.1z"
		/>
	<path d="M200.9,208.6c0.8,1,1.3,2.4,0.5,3.5c-1.2,1.5-2.9,2.4-4.4,3.5c-1.2,0.9-2.3,2-3.6,2.7c-1.3,0.7-2.6,1.3-4,1.8
		c-2.8,1.1-5.8,1.4-8.8,1.8c-2.2,0.3-4.4,0.7-6.7,1.1c-2.2,0.4-4.4,0.4-6.6,0.5c-2.9,0.2-5.8,0.3-8.7,0.2c-2-0.1-4-0.2-5.9-0.4
		c-3.2-0.2-6.3-0.3-9.5-0.2c-2.3,0.1-4.5,0.3-6.8,0.6c-3.5,0.4-7,0.2-10.5,0.4c-2,0.2-4,0.9-6,1.1c-2.3,0.2-4.6,0.3-6.9,0.5
		c-3,0.2-5.9,0.7-8.8,1.2c-5.9,0.7-11.9,1.6-17.9,1.2c-3.5-0.2-7-0.1-10.5-0.3c-2.2-0.2-3.7-2-4.9-3.7c-1.2-1.5-2.1-3.1-3.1-4.8
		c-0.1,0-0.2,0-0.3,0c-0.8-0.1-1.6-0.5-2.4-0.6c-0.2,0-0.5-0.1-0.7-0.3c-1.4-0.4-2.8-1-4.2-1.6c-0.8-0.4-1.5-0.8-2.3-1.2
		c-0.1,0.8-0.9,0.8-1.6,0.8c-1.5,0.1-2.9,0.5-4.4,0.6c-3,0.3-5.9-0.5-8.8-0.4c-3.1,0.5-6.2,0.7-9.4,0.6c-2.5,0-4.9,0.1-7.4,0.2
		c-1.5,0.1-2.9-0.1-4.4,0c-3.2,0-6.2,0.9-9.3,0.7c-2.1-0.3-4.3-8.1-5.1-10.2c-0.5-1.4-0.8-2.9-1.2-4.4c-0.5-1.5-0.9-3.1-1.3-4.7
		c-0.5-2.4-1-4.8-1.5-7.2c-0.6-2.2-0.9-4.5-1.4-6.8c-0.4-1.6-0.8-3.1-1.2-4.7c-0.5-2-2-5.9-0.3-7.5c1.7-1.1,3.8,2.5,4.8,3.5
		c2.3,2.6,4.9,5.1,6.6,8.2c-0.4-3-0.7-6.1-0.9-9.1c-0.1-1.8-0.5-3.8,0.2-5.5c0.7-1.4,1.8-0.2,2.5,0.6c1.7,1.9,3.3,3.7,4.5,5.9
		c1.7,2.7,3.3,5.6,4.4,8.6c0-2.8-0.3-5.7-0.7-8.5c-0.1-1.8-1.3-6.4-0.4-7.7c0.8-1.3,2.4,0.4,3.2,0.9c2,1.5,3.5,3.6,4.8,5.7
		c1.1,2.2,1.9,4.6,2.8,6.9c0.7,2,1.2,4,1.7,6c0.2,0.9,0.4,1.8,0.7,2.6c2.7,0,5.4,0,8.1,0.2c0.7,0.1,1.4,0.1,2.2,0.3
		c0.1,0,0.2,0,0.2,0c-0.1-1.1-0.1-2.1-0.2-3.1c0.1-3.7,0.2-7.4,0.7-11c0.7-3.7,1.5-7.5,2.9-11.1c1-2.4,2.2-4.7,3.6-6.9
		c-1.9-0.4-3.8,0-5.7-0.3c-1.8-0.3-3.3-1.2-5-1.8c-1-0.3-1.9-0.5-2.9-0.8c-1.9-0.4-3.9-1.4-5.6-2.2c-1.7-0.8-3.5-1.4-5.2-2.3
		c-0.8-0.4-1.6-0.9-2.4-1.4c-1.1-0.7-2-1.7-3-2.6c-1.6-1.4-3.5-2.7-5-4c-1.3-1.2-2.6-2.5-3.7-3.9c-1.1-1.4-1.9-3-2.8-4.4
		c-1.6-2.4-2.8-5-4-7.6c-0.7-1.8-1-3.6-1.5-5.4c-0.2-0.9-0.5-1.8-0.6-2.7c-0.4-2.8-0.4-5.6-0.5-8.4c-0.1-3.7-0.1-7.5,0.2-11.2
		c0.1-2.5,0.6-4.9,1.1-7.4c0.8-4.2,1.4-8.4,2.7-12.5c0.8-2.7,2.3-5.1,3.5-7.6c0.7-1.1,1.9-4,3.4-3.3c0.6,0.3,0.8,0.9,0.9,1.5
		c0.4,2.5,0.6,5.1,0.6,7.6c1.1-1.3,2.2-2.6,3.3-3.9c1.1-1.4,2.2-2.8,3.3-4.2c0.5-0.7,1.5-0.9,1.9,0.1c0.2,0.4,0.1,0.8,0.1,1.3
		c0,0.8,0,1.7,0,2.5c0,2.2,0,4.4,0.3,6.5c1.9-1.2,3.7-2.5,5.9-3c0.9-0.2,2.2-0.6,2.9,0.2c0.6,0.8,0.2,1.8,0,2.6
		c-0.4,1.3-0.7,2.7-1,4c-1.4,5.5-3.4,11-3.4,16.7c0,3.2,0.5,6.4,1.1,9.5c0.7,3.8,1.8,7.6,3.5,11.2c1.1,2.3,2.3,4.7,4.3,6.4
		c1.8,1.6,3.8,2.8,5.9,4c1.1,0.7,2.2,1.3,3.4,1.9c1.2,0.5,2.5,0.9,3.7,1.3c1.9,0.6,3.9,1.3,5.9,1.5c3.6,0.3,7.3-0.3,10.9-0.3
		c1.3,0,2.5,0,3.8,0c0.7,0,1.4,0,2.1,0c1.2-1,2.5-2.1,3.9-2.8c1.2-0.8,2.2-1.9,3-3.1c-2.2-1.1-4.3-2.4-6.6-3.4
		c-3.1-1.4-6.4-2-9.6-3.1c-2.5-1-4.8-2.2-7.3-3.2c-1.5-0.6-3.1-0.9-4.7-1.5c-3-1.1-5.5-3.3-7.8-5.5c-2.8-2.9-5.7-6.2-6.1-10.3
		c-0.3-2.4-0.2-4.7,0-7.1c0.3-3.5,1.3-8.4,3.7-11c2-2.4,4.6-1.5,7.1-0.6c2.5,1,5.1,1.7,7.6,2.5c0.4,0.1,0.8,0.2,1.1,0.3
		c0-0.2,0.1-0.4,0.3-0.5c1.8-0.6,3.5-1.7,5.2-2.4c1.5-0.6,3-1.1,4.5-1.5c2.2-0.6,3.6-0.7,5,1.3c1.8,2.5,3,5.4,4.2,8.2
		c2.2-0.6,4.2-1.9,6.3-2.7c2.3-1.1,3.9-1.6,5,1.2c1,2.4,1.4,4.9,2.6,7.1c1,0,1.9-0.5,2.8-0.8c1.4-0.6,2.7-1.2,4.1-1.6
		c5.4-2,5.9,4.2,7.4,7.7c1.5-0.8,2.8-2.1,4.4-3c1.7-0.9,4.1-2.6,6-1.5c2,1.4,2.8,5,3.6,7.2c0.1,0.2,0.1,0.3,0.2,0.5
		c0.1,0.2,0.1,0.3,0,0.5c1.5,0.2,3.1,0.3,4.5-0.4c5.1-2.5-1.6-10.8-3.7-13.7c-0.7-1-1.5-1.9-2.2-2.9c-0.7,0.3-1.4,0.3-2.1,0.5
		c-0.7,0.2-1.5,0.3-2.2,0.5c-1.6,0.3-3.2,0.7-4.8,0.5c-2.7-0.3-4.1-2.9-4.8-5.2c-0.8-2.3-1.3-4.7-2.2-7c-1.8,0.1-3.6,0.7-5.3,1.2
		c-1.5,0.5-3,1.3-4.7,1.3c-2.1-0.1-3.1-2.4-4-4c-1.3-2.3-1.7-5-2.5-7.5c-2.2,0.3-4.4,0.7-6.7,0.7c-2.2-0.1-5.6,0.1-7.3-1.4
		c-1-1-1.2-2.6-1.6-3.9c-0.6-2.2-1.3-4.5-1.5-6.8c0-0.2,0-0.4,0-0.6c-0.1-0.1-0.3-0.2-0.4-0.3c-0.2-0.1-0.3-0.2-0.5-0.3
		c-0.1,0.1-0.1,0.1-0.2,0.1c-0.7,0.3-1.5,0.6-2.3,0.9c-2.6,1-5.4,2.4-8.3,1.9c-1.8-0.2-3-1.6-3.9-3.1c-1.8-2.8-2.9-6.1-3.3-9.5
		c-2.7,1-9.9,4-12.2,1.6c-1-1.3-0.9-3.1-1.1-4.6c-0.2-2.2-0.5-4.5-0.5-6.7c-1.7-1.4-3.2-2.9-4.6-4.6c-2.7-3-3.3-7.4-2.3-11.2
		c0.6-2.3,1.8-4.4,2.9-6.5c1.9-3.5,3.9-7.3,7.3-9.6c2.8-1.9,6-3.1,9.4-3.4c2.4-0.3,4.8,0.2,7.2,0.7c1.6,0.3,3.2,0.7,4.7,1.1
		c2.4,0.6,4.6,1.5,6.9,2.3c3.1,1.2,6.3,2.3,9.2,4c3.4,2,6.4,4.8,9.3,7.4c0.1,0.1,0.2,0.2,0.4,0.3c0.1-0.1,0.1-0.2,0.2-0.3
		c-0.1-1.4,0.3-2.9,1.3-4.4c1-1.6,2.5-2.9,4.3-3.3c1-1.4,4.6-2.9,5.8-3.4c2.3-0.9,4.7-1.2,7-1c0-0.1,0.1-0.1,0.2-0.1
		c1.5-0.6,3-1,4.6-1.3c2-0.5,4-0.3,6,0.2c0,0,0,0,0,0c0.1-0.3,0.3-0.4,0.5-0.6c2.8-1.6,5.8-2.9,8.9-3.7c2.6-0.7,5.2-1,7.8-1.2
		c2.6-0.2,5.1,0.3,7.6,1c2.4,0.8,5,1.7,6.8,3.6c1.8,1.9,3,4.3,4.2,6.6c1.1,2.2,2,4.7,2.1,7.2c0.1,1.6-0.4,3.2-0.8,4.8
		c-0.1,0.3-0.3,1-0.5,1.6c1.4,0.5,2.7,1,3.9,1.8c0.7,0.4,1.4,0.9,2,1.4c1.1,0.8,2,1.7,3.1,2.4c0.2-0.1,0.3-0.1,0.5-0.2
		c3.1-1.1,6.3-2.2,9.5-2.4c3.3-0.1,6.5,1.4,9.5,2.6c1.5,0.7,3.1,1.5,4.4,2.4c1.4,1,2.5,2.2,3.6,3.4c0.8,0.8,1.6,1.7,2.4,2.6
		c1.4,1.7,2.9,3.4,4,5.3c0.8,1.4,1.5,2.8,2,4.3c0.9,2.3,1.3,4.8,1.6,7.3c0.2,2.5,0.4,5,0.1,7.5c-0.2,2.4-0.9,4.8-1.6,7.1
		c-1.3,4.7-3,9.3-5,13.8c-1.2,3-2.6,5.9-4.2,8.8c-0.4,0.7-0.8,1.4-1.3,2.1c-0.3,0.4-0.6,0.7-0.9,1c0.6,0.8,1,1.7,1.4,2.7
		c1,2.8,1.9,5.6,2.2,8.6c0.2,3.3-0.1,6.6-0.6,9.8c-0.8,6.5-4.7,12.3-9.4,16.8c-1.2,1.1-2.6,2-3.9,3c-1.3,1-2.6,1.9-4.1,2.6
		c-2.9,1.3-5.9,2.4-8.8,3.5c0.1,0.1,0.3,0.2,0.4,0.5c1.2,4,1.7,8.1,1.9,12.2c0.3,7.4,0.7,14.8,0.5,22.3c-0.1,3-0.3,5.9-0.4,8.9
		c-0.1,2.6-0.1,5.1-0.2,7.7c2.2,0.7,4.4,1.3,6.4,2.3c2,0.9,3.7,2.3,5.7,3.1c1.7,0.8,3.6,1.3,5.3,2c3.2,1.1,6.7,1.5,9.9,2.7
		c1.3,0.5,2.6,1.1,3.8,1.7C198.8,207,200,207.6,200.9,208.6z M198.9,62.2c0.1-4,0-8.1-1.1-11.9c-0.6-1.9-1.3-3.7-2.4-5.4
		c-1.8-2.6-3.9-5-6.1-7.2c-1-1.1-2.1-2.2-3.3-3.1c-3.1-2.1-6.6-3.4-10.2-4.5c-2.7-0.8-5.5-0.1-8.2,0.5c-3.7,0.9-7.2,2.5-10.6,4.2
		c-0.1,0-0.1,0.1-0.2,0.1c2.1,0.3,4.2,1,6,2.2c2.6,1.6,5.5,2.6,8,4.4c2.4,1.9,4.4,4.3,5.8,7c2.3,3.9,3,8.5,3.9,12.9
		c0.4,1.9,0.8,3.8,1,5.7c0,0.5,0.1,1,0.1,1.5c0,0.6-0.6,1.1-1.1,0.7c-0.2-0.1-0.3-0.4-0.3-0.6c-0.1-0.7-0.1-1.4-0.2-2.1
		c-0.5-3.7-1.3-7.3-2.2-10.9c-0.5-2.1-1.2-4.1-2.3-5.9c-1.4-2.5-3.2-4.8-5.5-6.6c-1.4-1.1-3.1-1.8-4.6-2.6c-2.3-1-4.3-2.6-6.7-3.4
		c-3.2-0.8-8.3-1.2-11,1c3.9-0.1,7.8,0.6,11.4,2c2.2,1,3.8,2.9,5.9,4c2.6,1.3,5.3,2.7,7.2,5c2.4,3.3,3.7,7.3,4.6,11.2
		c1,3.8,1,7.7,1.1,11.5c0,1.5,0.1,2.9,0,4.4c-0.1,1.1-1.5,1.1-1.6,0c-0.2-5.5,0.3-11-1.2-16.4c-0.9-3.4-2-6.9-4.2-9.7
		c-0.9-1-2.1-1.9-3.2-2.6c0,0,0,0,0,0c-1.4-0.9-2.9-1.5-4.2-2.4c-1.7-1.1-3.1-2.6-5-3.4c-4.6-1.9-13.7-2.9-18.8-0.4
		c0.9,0,1.9,0.1,2.8,0.3c2.5,0.6,4.9,1.7,7.2,2.8c1.6,0.9,3.2,1.8,4.9,2.6c4.2,1.8,5.8,3,8.6,6.6c6.5,7.2,6,5.6,7.9,15.3
		c0.4,0,0.6,0.4,0.6,0.8c0,0.8,0.1,1.7,0.1,2.5c0,0.9,0,1.8-0.1,2.7c-0.2,0.8-1.2,0.8-1.8,0.8c-3.3,0-6.6-0.1-9.8-0.9
		c-3.3-0.8-6.6-1.8-9.5-3.5c-1.4-0.8-2.8-1.6-4.2-2.3c-1.5-0.7-3-1.4-4.3-2.3c-1.4-0.9-2.7-2-3.9-3.3c-1.1-1.3-2-2.7-3-4.1
		c-1.7-2.5-4.3-5.5-4.9-8.5c0,0,0,0,0,0c-1,5.8-1.2,9.4,2.8,14c1.1,1.3,2.4,2.4,3.4,3.7c1,1.2,1.8,2.5,2.8,3.7
		c1,1.2,2.2,2.2,3.5,3.1c3.1,2,6.4,3.4,9.8,4.7c4.4,1.6,9.1,2.9,13.9,2.7c1.1,0,2.2-0.1,3.3-0.2c0.4,0,0.8,0.4,0.8,0.8
		c0.1,0.4-0.1,0.9-0.6,1.1c-1.6,0.5-3.4,0.4-5,0.4c-5.1-0.1-10-1.6-14.6-3.5c-4.6-1.9-9.6-4-12.7-8c-1-1.3-1.9-2.7-3-3.9
		c-2.6-2.7-5.4-5.5-6.3-9.3c-0.6-2.1-0.5-4.3-0.2-6.5c0.2-0.9,0.7-5.7,2-5.4c0.3-2,1.2-4,2.8-5.2c0.6-0.5,1.4-0.8,2.2-1.1
		c0.6-0.2,1.1-0.4,1.7-0.5c0.4-1.1,2.2-1.9,3.1-2.3c2-0.7,4.1-1.2,6.3-1.3c0-0.4,0.3-0.9,0.6-1.2c1-1.1,2.5-1.7,4-2
		c0.9-0.1,1.8-0.2,2.8-0.2c0.2-0.2,0.6-0.3,0.9-0.4c2.2-1,4.3-2.2,6.5-3.2c-1.8-1.3-3.6-2.8-5.7-3.7c-1.9-1-4.2-1.1-6.1-2.2
		c-1-0.6-1.9-1.2-2.8-1.9c-0.5-0.2-0.8-0.7-0.6-1.3c0.2-0.4,0.6-0.6,1-0.4c1.4,0.7,2.8,1.5,4.2,2.2c0.3,0.1,0.7,0.2,1.1,0.3
		c0.1-0.2,0.1-0.3,0.2-0.4c0.5-1.7,1.2-3.5,1.1-5.3c-0.2-2-0.9-4.1-1.7-5.9c-1.2-2.4-2.4-5-4.4-6.9c-1.8-1.5-4-2.3-6.2-2.9
		c-1.5-0.4-2.9-0.7-4.5-0.8c-2.2-0.1-4.3,0.1-6.4,0.4c-3.2,0.5-6.4,1.6-9.3,2.9c-0.6,0.3-1.2,0.6-1.8,0.9c0.4,0.2,0.8,0.3,1.3,0.5
		c4.2,1.6,6.6,3.6,8.9,7.4c1.3,2.1,2.6,4.3,3.3,6.8c0.5,1.5,0.8,3.2,1,4.8c0.2,1.5,0.5,3.1,0.6,4.6c0,0.6,0.1,1.5-0.7,1.7
		c-0.4,0.1-0.8-0.3-0.9-0.7c-0.1-1.2-0.3-2.4-0.5-3.6c-0.4-2.9-0.8-5.8-2.1-8.4c-1.7-3.3-3.6-6.8-6.8-8.9c-0.7-0.4-1.5-0.8-2.2-1.2
		c-2.1-1-4.3-1.9-6.6-2.2c-1.5-0.1-3,0.2-4.5,0.5c1.5,0.4,3,0.9,4.4,1.5c4.2,2.2,8.2,5,11,9c2.3,3.3,3.1,7.4,4,11.3
		c0.3,1.5,0.6,3.1,0.8,4.6c0.1,0.8,0.5,2.1-0.6,2.4c-0.4,0.1-0.8-0.3-0.9-0.7c-0.3-2.8-0.8-5.5-1.4-8.2c-0.4-2.1-1-4.1-1.9-6
		c-2.3-4.9-7-8.1-11.7-10.6c-6.5-2.7-11.6-2.6-17.3,0.6c0.6,0.1,1.3,0.3,1.8,0.4c2.8,0.6,5.4,1.6,7.6,3.4c3.3,2.5,7,4.7,9.7,8
		c3.2,4.6,6.2,9.7,6.5,15.4c0.5,0.4,0.5,1.3,0,1.7c0,0.5-0.1,1.5-0.8,1.3c-0.4-0.2-0.5-0.7-0.5-1.1c-3.3-0.1-6.7,0.1-9.9-1
		c-2.4-0.9-4.7-2-6.8-3.3c-1.4-0.9-2.7-2-4.1-3c-1.4-1-2.9-1.8-4.2-2.9c-2-1.6-3.8-3.5-5.2-5.6c-0.5-0.6-0.9-1.3-1.3-2
		c-0.2-0.2-0.4-0.3-0.7-0.5c-0.2,0.8-0.3,1.7-0.3,2.5c0.1,2.3,1,4.6,2.5,6.3c2.3,2.7,5.2,4.8,8.3,6.5c2.7,1.7,5.1,3.4,8,4.6
		c2.1,1,4.3,1.4,6.5,1.6c1,0.2,0.9,1.9-0.1,1.9c-0.5,0-1,0-1.4-0.1c-4.4-0.5-8.3-2.8-11.9-5.2c-4.2-2.6-8.5-5.1-11.4-9.2
		c-1.9-2.9-2.7-6.6-1.6-10c0-0.1,0-0.1,0.1-0.2c-2.9-2.4-5.7-5-8.9-7c-4-2.5-8.5-3.8-12.9-5.4c-2.5-1-5.1-1.5-7.7-2.1
		c-4.3-1-7.4-1.4-11.7,0.1c-2,0.7-4,1.8-5.6,3.2c-3,2.9-4.8,6.8-6.7,10.5c-0.7,1.4-1.3,2.9-1.6,4.4c-0.3,2-0.2,4.2,0.6,6.1
		c0.4,0.9,1,1.7,1.6,2.4c1.6,1.8,3.4,3.5,5.3,5c2.5,1.9,5.4,3.2,8.1,4.8c3.1,1.8,5.8,4.2,8.9,5.8c1.8,1,3.8,1.9,5.6,2.9
		c1,0.6,2,1.3,2.9,1.9c1.3,0.8,2.7,1.6,4,2.4c1.3,0.8,2.7,1.6,4.1,2.4c2.7,1.6,5,3.7,7.6,5.5c2.3,1.6,4.8,2.8,7.2,4.2
		c2.6,1.5,5,3.2,7.6,4.7c2.1,1.3,4.4,2.3,6.6,3.4c2.1,1.1,4.1,2.4,6.1,3.7c5.1,3,9.2,4.6,12.9,9.6c3.2,4.3,7.4,8.6,8.1,14.1
		c0.4,4.6-3.5,6.7-7.7,6c-3.2-0.4-6.4-1-9.6-1.4c-2.4-0.4-4.7-1-7-1.7c-2.4-0.7-4.7-1.4-7-2.4c-3.2-1.3-6.1-3.2-9.3-4.6
		c-1.5-0.7-2.9-1.2-4.4-1.8c-2.4-1-4.8-2.2-7.3-3.1c-2-0.8-4.1-1.2-6.1-1.8c-3.2-0.9-6.4-1.7-9.7-2.4c-3-0.8-6.1-1.7-9-2.7
		c-2-0.6-4-1.7-6.1-1.6c-2.1,0.7-2.9,3-3.6,4.8c-1.2,3.6-1.3,7.4-1.2,11.2c0,4,2.6,7.2,5.3,9.9c2,2,4.1,3.9,6.6,5.1
		c2,0.9,4.1,1.3,6.2,2.1c2.7,1,5.2,2.5,8,3.4c2.5,0.7,5,1.3,7.3,2.3c2.2,0.9,4.3,2.1,6.5,3.3c2,1.1,4.2,1.8,6.3,2.7
		c1.4,0.6,2.8,1.1,4.2,1.6c2.8,0.9,5.5,1.8,8.4,2.5c1.6,0.4,3.1,0.8,4.6,1.3c2.3,0.9,4.6,1.6,7,2.3c3.4,1.1,6.8,2.3,10.2,3.4
		c1.5,0.4,3,0.6,4.5,0.7c2.8,0.2,5.3,0.5,8,0.6c3,0.3,6,0.6,9,0.7c2.6,0.1,5.1,0.2,7.7-0.4c4-0.8,8.2-0.8,12-2.4
		c3.8-1.6,7.9-2.7,11.5-4.9c1.9-1.3,3.8-2.7,5.6-4.2c3.6-3.4,6.7-7.5,8.2-12.2c0.8-2.6,1-5.3,1.2-8c0.1-2.2,0.2-4.4-0.2-6.5
		c-0.6-2.6-1.3-5.3-2.6-7.7c-0.1-0.3-0.4-0.5-0.6-0.8c-0.2,0-0.4-0.1-0.5-0.3c-0.6-0.9,0.2-1.5,0.7-2c0.3-0.3,0.6-0.7,0.8-1
		c0.9-1.2,1.5-2.5,2.2-3.8c1.2-2.3,2.3-4.7,3.3-7.1c1.9-4.2,3.5-8.6,4.8-13.1C198,67.2,198.7,64.7,198.9,62.2z M197.7,212.7
		c0.8-0.6,1.7-1.2,2.4-2c-0.3-1.4-2.1-2.1-3.2-2.7c-1.5-0.7-2.9-1.3-4.5-1.8c-2.6-0.8-5.3-1.3-7.9-2c-2.7-1-5.5-1.9-8.1-3.2
		c-1.5-0.8-2.9-1.8-4.4-2.5c-1.4-0.6-2.8-1.1-4.3-1.5c-1.5-0.4-3.2-0.7-2.9-2.6c0.3-3.9,0.1-7.7,0.4-11.5c0.5-6.8,0.3-13.6,0-20.4
		c-0.2-5.8-0.2-11.6-1.5-17.2c-0.1-0.5-0.2-0.9-0.2-1.4c0-0.2,0-0.3,0.1-0.5c-1.4,0.5-2.8,1-4.2,1.3c-1.6,0.3-3.3,0.5-5,0.7
		c-2.8,0.4-5.5,1.1-8.4,1c-3.5,0-7-0.3-10.4-0.6c-4-0.3-8-0.5-11.9-1c-3.2-0.5-6.3-1.8-9.4-2.8c-2.3-0.8-4.6-1.5-6.9-2.3
		c-2-0.7-3.9-1.5-5.9-2c-4.2-1.1-8.3-2.3-12.4-3.8c-1.9-0.8-3.9-1.6-5.8-2.4c-0.5,1-1.5,2.1-1.8,2.5c-1.5,1.6-3.6,2.4-5.2,4
		c-2,1.9-4.3,3.4-6.6,4.9c-1.5,1.1-2.8,2.5-4.2,3.7c-1,0.9-2,1.8-3,2.7c-1.5,1.4-2.8,2.8-4,4.5c-3.2,4.7-6.6,9.4-8.4,14.8
		c-1.3,4.4-2.4,8.9-2.6,13.4c-0.2,2.6-0.3,5.3-0.2,7.9c0.3,3.9,0.9,7.8,2.1,11.5c0.7,2.3,1.8,4.6,3.3,6.5c0.8,0.9,1.6,1.7,2.4,2.5
		c1,1,1.9,2.2,3.2,3.1c1.1,0.7,2.2,1.2,3.4,1.8c1.4,0.6,2.9,1,4.3,1.6c0.3,0.1,0.4,0.3,0.5,0.5c0.2,0,0.4,0.1,0.6,0.1
		c-0.1-0.2-0.3-0.5-0.4-0.7c-0.7-1.2-1.5-2.4-2.1-3.7c-2.2-4.2-3.7-8.6-5.1-13.1c-0.6-1.6-1.1-3.2-1.8-4.8c-1.2-2.2-2.4-4.5-2.7-7.1
		c-0.3-1.6,0.7-2.4,2.2-1.9c1.3,0.4,2.4,1.3,3.4,2.2c1,1,1.8,2.2,2.8,3.3c1.5,1.6,3,3.2,4.4,5c-0.6-4.8-2.8-9.3-3.5-14.1
		c-0.1-1.1-0.6-2.6,0.2-3.5c0.9-0.8,2.3,0,3.1,0.5c2.1,1.4,3.2,3.7,4.8,5.6c0.1,0.1,0.1,0.2,0.2,0.2c-0.2-0.8-0.3-1.6-0.5-2.4
		c-0.6-3-0.8-6-1.3-9c-0.5-2.7-0.8-5.4-1.3-8.1c-0.1-0.4-0.1-0.7-0.2-1.1c-0.1-0.4-0.2-0.8-0.1-1.2c-1.3-0.4-2.4-1.1-3.2-2.2
		c-0.4-0.7-0.7-1.5-0.9-2.2c-0.4-1.5-0.8-3-0.8-4.5c0-1.9,0.8-3.5,2.1-4.9c0.2-0.3,0.5-0.5,0.8-0.4c2.3-1.9,5.3-2.8,8.1-3.7
		c3.1-0.9,6.1-2,9.3-2.5c1.5-0.2,3.1-0.3,4.6-0.4c1.6,0,3.2-0.1,4.8-0.1c2.3-0.1,5.9-0.1,6.6,2.7c1,0,0.8,1.4,1.1,2
		c0.9,2.5,1.6,5.4,0.6,7.9c-0.1,0.2-0.2,0.3-0.3,0.5c0,0,0,0.1,0,0.1c0.3,1.3,0.6,2.5,0.9,3.8c0.4,1.6,0.7,3.3,1.1,5
		c0.1,0.2,0.2,0.4,0.1,0.6c0.2,0.9,0.4,1.8,0.6,2.7c0.3,1.2,0.7,2.3,0.9,3.5c0.9-0.2,1.8-0.3,2.7-0.5c2.2-0.4,4.5-0.7,6.8-1.2
		c1.7-0.5,3.5-0.7,5.2-1.1c1.2-0.3,2.4-0.7,3.6-1.1c4.1-1,6.7-2.5,9.5-5.6c1.5-1.5,3-3.1,4.1-5c0.6-0.9,1.2-1.9,1.7-2.9
		c0.4-0.6,0.7-1.5,1.4-1.9c0.7-0.3,1.3,0.8,0.6,1.2c-0.8,1.5-1.5,3.1-2.4,4.6c-1.3,2.3-3,4.2-4.8,6.1c-1.1,1.2-2.3,2.3-3.8,3.1
		c-2.2,1.4-4.7,2-7.1,2.7c-1.6,0.5-3.2,0.9-4.9,1.2c-3.2,0.8-6.5,1.3-9.8,1.9c-1.9,0.3-3.8,0.7-5.7,0.9c-3,0.4-6,0.4-8.9,1.1
		c1,0.6,2.2,1,3.4,1.4c1.7,0.6,3.4,1.1,5.2,1.5c1.3,0.3,2.7,0.3,4,0.5c0.6,0.2,0.8,0.9,0.6,1.5c-0.2,0.4-0.6,0.7-1,0.9
		c-1.6,0.8-3.3,1.3-4.8,2.3c-1.3,0.9-2.4,1.9-3.6,2.9c1.8,0.2,3.7,0.2,5.6,0.3c1,0.1,2,0,2.9,0.4c1.3,0.7,0.6,2.2,0,3.1
		c-1.1,2.3-2.5,4.4-4,6.5c2,0.3,4.1,0.2,5.9-0.6c1.2-0.6,2.3-1.4,3.4-2.1c2.8-1.8,6-2.9,9.4-3.1c3.5-0.3,7.1-0.6,10.5-1.8
		c2.6-1,5.2-2.1,7.7-3.4c1.9-1.1,3.7-2.4,5.5-3.5c2.1-1.4,4.3-2.8,6-4.8c1.3-1.5,2.3-3.2,3.3-5c1.1-2,2.1-4,2.9-6.2
		c0.6-2,1.1-4,1.7-5.9c0.2-0.7,0.4-1.4,0.7-2.1c0.1-0.3,0.4-0.5,0.7-0.4c1.1,0.2,0.3,2.8,0.1,3.5c-0.5,1.6-1,3.3-1.4,4.9
		c-0.7,2.5-1.8,4.8-3,7.1c-1.1,1.9-2.2,3.9-3.6,5.5c-1.9,2.3-4.5,3.8-6.9,5.4c-1.2,0.8-2.5,1.7-3.7,2.5c-3,1.8-6.1,3-9.2,4.4
		c-0.2,0.1-0.5,0.2-0.7,0.2c5.2,0.6,8.9,2.9,11.4,7.6c0.7,1.2,1.3,2.5,1.7,3.9c0.2,0.6-0.3,1.4-1,1.1c-0.2-0.1-0.4-0.3-0.5-0.5
		c-0.3-0.7-0.6-1.5-1-2.2c-1.4-3.1-3.5-5.8-6.7-7.1c-1.7-0.7-3.6-1.1-5.5-1.4c-0.8-0.1-1.7-0.2-2.5-0.5c0,0,0,0-0.1,0
		c-2.1,0.4-4.2,0.5-6.3,0.7c-2.1,0.1-4.2,0.7-6.2,1.6c-1.5,0.6-2.8,1.5-4.1,2.5c0.1,0.2,0.1,0.4,0.1,0.6c0,0.2,0.1,0.5,0.1,0.7
		c0.4,0.5,0.3,1.1,0.4,1.7c0.1,1,0.5,2.3-0.2,3.2c-0.4,0.4-0.8,0.7-1.3,1c-1.7,1.2-3.7,2-5.7,2.5c-1.4,0.3-3,0.6-4.4,1
		c-2.9,0.8-5.7,1.8-8.6,2.4c-1.4,0.3-2.9,0.4-4.3,0.4c-1.5,0.1-2.9,0.1-4.4,0c-2.4,0-2.5-1.3-3.3-3.2c-1.1-2.8-2.2-5.5-2.9-8.4
		c-0.9-3.3-1.9-6.5-2.7-9.8c-0.3-0.1-0.5-0.4-0.7-0.7c-0.4-0.5-0.7-0.9-1.1-1.3c-1.9-2.1-3.1-5.1-5.9-6.2c0.2,4.1,1.8,7.7,2.8,11.6
		c0.6,2.2,1,4.4,1.1,6.6c0.1,1.3-1.1,1.8-1.9,0.6c-1.5-2.1-3.2-4-5-5.8c-1.9-2-3.3-5-6.2-5.7c0.4,3,2.4,5.4,3.3,8.2
		c1.7,4.8,3.1,9.7,5.3,14.2c0.8,1.6,1.7,3.2,2.6,4.8c1,1.7,1.9,3.4,2.9,5c1.3,1.8,2.4,3.9,4.2,5.3c1.1,0.7,2.4,0.6,3.6,0.7
		c4.3,0.1,8.5,0.3,12.8,0.3c5.2-0.3,10.4-0.9,15.5-1.7c2.8-0.5,5.7-0.8,8.5-1c2.8-0.1,5.6-0.2,8.3-1c4-0.8,8-0.4,12-0.7
		c4-0.4,7.9-0.8,11.9-0.7c3.9,0,7.7,0.6,11.6,0.6c4.2,0.1,8.3-0.1,12.5-0.4c2.5-0.2,5-0.8,7.5-1.2c2.5-0.4,5-0.5,7.5-1.1
		c2.9-0.8,5.9-1.9,8.3-3.9C195.6,214.3,196.6,213.5,197.7,212.7z M170,73.9c0-0.6,0.1-1.1,0.1-1.7c-0.2-0.2-0.2-0.6-0.3-0.9
		c-0.1-0.7-0.2-1.6-0.3-2.2c-0.2-1.1-0.5-2.2-0.7-3.2c-0.4-1.8-0.8-3.7-1.8-5.2c-1.7-2.2-3.9-4.1-5.7-6.2c-0.9-1.1-1.8-2.2-2.9-3
		c-2.3-1.7-5.1-2.5-7.6-3.9c-1.9-1.1-3.9-2.1-5.9-2.9c-2-0.8-4.1-1.4-6.3-1.3c-2.1,0.3-4.7,0.7-5.9,2.7c-0.8,1.3-1.2,3-1,4.5
		c0.1,0.5,0.3,1.1,0.6,1.5c1.3-1.7,2.9-3.2,4.8-4.3c3.7-2.1,8.3-1.1,11.9,0.7c3,1.5,4.8,4.6,5.8,7.7c0.8,2.5,0.8,5.1-0.2,7.5
		c-0.7,1.7-1.5,3.4-2.5,4.9c-0.2,0.3-0.5,0.8-0.8,1.1c0.6,0.3,1.1,0.6,1.7,0.9c2.8,1.2,5.7,2.1,8.7,2.7c2,0.3,3.9,0.4,5.9,0.5
		c0.5,0,1,0,1.5,0.1C169.4,73.9,169.7,73.9,170,73.9z M147.6,61.9c1.3-0.2,1.8-1.8,1.2-2.9c-0.3-0.7-1-1.1-1.2-1.8
		c-1.7-0.5-3,1-2.4,2.6C145.6,60.8,146.5,61.9,147.6,61.9z M120.1,38.2c0.1,0,0.1,0,0.2,0c-0.6-5.2-3.5-10.1-6.6-14.2
		c-3-3.3-6.7-5.4-10.2-8.1c-1.7-1.2-3.8-1.9-5.8-2.3c-3.3-1-5.2-0.9-7.3,2.1c-0.9,1.4-1,2.8-0.6,4.1c0.1-0.1,0.3-0.2,0.4-0.3
		c0.1-0.1,0.2-0.1,0.4-0.1c3-2.7,7.5-4.8,11.6-3.4c3.2,0.9,5.9,3.3,7.2,6.4c1.5,3.4,1.9,7.4-0.6,10.4c-0.4,0.5-1.3,1.7-2.2,2.2
		c1.7,0.9,3.5,1.7,5.4,2.3c2.1,0.5,4.2,0.6,6.4,0.7C119,38.1,119.6,38.1,120.1,38.2z M118.7,107c0.2,0,0.5,0.1,0.7,0.1
		c-0.2-0.6-0.5-1.4-0.6-1.9c-0.4-1.2-0.8-2.4-1.5-3.5c-0.5-0.8-1.2-1.1-2.1-0.8c-1.4,0.4-2.7,1-3.9,1.8c-0.6,0.4-1.2,0.8-1.7,1.3
		c-0.5,0.3-1.1,0.9-1.7,1.3c2.3,0.6,4.7,1,7.1,1.3C116.4,106.6,117.5,106.8,118.7,107z M118.3,88.8c-0.4-0.4-0.8-0.9-1.3-1.3
		c-2.6-2.3-5.7-3.7-8.7-5.5c-0.9-0.5-1.8-1.1-2.7-1.7c0.1,0.4,0.3,0.8,0.4,1.3c0.4,1.2,0.7,2.4,1.1,3.5c0.5,1.5,1,3,2.1,4.1
		c1.8,1.5,4.7,0.6,6.8,0.1C116.7,89.2,117.5,89,118.3,88.8z M109.1,201.8c0.3-0.2,0.5-0.4,0.4-0.8c0-0.5-0.1-1-0.2-1.4
		c-0.1-0.1-0.1-0.2-0.1-0.3c-0.1-0.5-0.2-1-0.3-1.5c0-0.1,0-0.3-0.1-0.4c-2,1.1-4.4,1.4-6.6,1.1c-3.9-0.3-2.8-2.5-1-4.8
		c1.3-1.7,2.3-3.5,3.2-5.4c-1.8-0.2-3.6-0.1-5.4-0.3c-0.9-0.1-1.8-0.1-2.7-0.3c-0.3,0.3-0.9,0.5-1.3,0.6c-1,0.3-2.1,0.5-3.1,0.7
		c-1.4,0.3-2.8,0.4-4.1,0.6c-2.9,0.4-5.8,0.8-8.8,1c-1.2,0.1-2.3,0.3-3.5,0.4c-0.1,0-0.2,0-0.3,0c0.2,0.8,0.5,1.6,0.7,2.4
		c1.1,3.7,2,7.4,3.4,10.9c0.4,1.1,0.8,2.2,1.3,3.3c0.1,0.2,0.2,0.5,0.5,0.6c2,0.4,4,0.2,6.1,0.1c3.1-0.1,6.1-1,9-1.9
		c1.8-0.6,3.5-1.1,5.3-1.5c1.7-0.3,3.5-0.8,5.1-1.6C107.5,202.9,108.4,202.5,109.1,201.8z M105.9,26.7c0-0.3-0.1-0.6-0.3-0.9
		c-0.2-0.2-0.4-0.3-0.5-0.6c-0.9,0.1-2.2,0-2.6,1.1c-0.3,1.2,0.9,2.6,2.1,2.5C105.6,28.8,105.9,27.5,105.9,26.7z M105.1,104.3
		c0.2,0.1,0.4,0.1,0.5,0.2c-0.2-0.3-0.3-0.7-0.4-1c-0.6-1.6-1.4-5.9-3.4-6.1c-2.7,0.1-5.1,1.6-7.7,2.5c0.4,0.2,0.8,0.5,1.3,0.7
		C98.5,102.2,101.8,103.3,105.1,104.3z M103.1,171.8c0.2,0,0.5-0.1,0.7-0.1c-0.5-1.8-1-3.7-1.3-5.6c-2.7,0.9-5.1,2.3-7.9,3
		c-1.1,0.2-2.2,0.4-3.3,0.7c-1.5,0.4-2.9,1-4.3,1.5c-3.1,1-6.2,1.6-9.4,1.9c-1.6,0.1-3.2,0.2-4.8,0.3c-0.3,0-0.6,0.1-1,0.1
		c0.4,3,0.8,6,1.4,9c0.5,2.3,1,4.6,1.6,6.9c0,0,0.1,0,0.1,0c2.5-0.6,5.1-0.7,7.6-0.9c2.1-0.1,4.2-0.5,6.2-0.7c2-0.1,4-0.6,6-1.1
		c-0.1-0.2-0.1-0.4,0-0.5c0.1-0.7,0.7-1.1,1.2-1.4c1.3-0.9,2.4-2,3.7-3c1-0.7,2-1.2,3.1-1.7c-1.5-0.3-3.1-0.6-4.5-1.1
		c-0.1,0.2-0.3,0.4-0.5,0.5c-0.7,0.4-2.5,1.1-3.2,0.6c-0.4-0.3-0.4-0.9-0.1-1.2c0.3-0.3,0.7-0.3,1.1-0.4c0.3,0,0.6-0.1,0.8-0.1
		c-1.1-0.4-2.3-0.8-3.4-1.4c0.2,0.7,0.3,1.4,0.5,2.2c0.1,0.4,0.2,0.8,0,1.2c-0.1,0.4-0.7,0.6-1.1,0.3c-0.5-0.6-0.4-1.4-0.6-2.1
		c-0.1-0.9-0.4-1.7-0.4-2.6c-0.4,0-0.7,0-1,0c-0.9,0-1.2-1.3-0.3-1.5c0,0,0,0,0,0c0.6,0,1.2-0.1,1.8-0.1c0.2-0.4,0.5-0.7,1.1-0.8
		c1.9-0.6,3.8-0.7,5.7-0.9C100,172.2,101.6,172,103.1,171.8z M102.2,164.5c-0.1-0.6-0.2-1.2-0.3-1.8c-0.3-1.8-0.8-3.6-1.1-5.4
		c0-0.1,0-0.3-0.1-0.4c-2.2,1.9-4.8,3.3-7.5,4.4c-1.4,0.6-2.8,1.3-4.3,1.6c-1.5,0.4-3,0.6-4.6,0.8c-2.3,0.4-4.7,0.7-7,0.6
		c-2-0.1-4.8,0.1-7.2-0.3c0,0,0,0.1,0,0.1c0.6,2.7,1.1,5.4,1.5,8.1c1-0.2,2-0.2,3-0.4c1.3-0.1,2.7-0.2,4-0.3
		c1.7-0.2,3.3-0.5,4.9-0.9c2.3-0.6,4.4-1.5,6.6-2.1c1.6-0.5,3.3-0.6,4.9-1C96.2,167.1,100,165.1,102.2,164.5z M100.7,154.5
		c0.7-2.2-0.1-4.4-0.7-6.5c-1.1,4-5.8,4.6-9.2,5.5c-1.3,0.3-2.6,0.8-3.9,1.1c-1.2,0.3-2.3,0.5-3.5,0.8c-1.5,0.4-3.1,1-4.6,1.2
		c-2.3,0.3-4.8,0.6-7.1,0.1c-2.3-0.4-4.7-1.5-5.9-3.6c-0.6,1.8,0,3.8,0.5,5.5c0.4,1.3,0.8,2.4,2.2,2.9c2.4,1,5,0.8,7.5,0.9
		c1.4,0,2.8,0.1,4.3,0c2.8-0.3,5.7-0.7,8.5-1.4c1-0.3,2-0.6,3-1.1c2-0.8,4-1.6,5.7-2.7C98.7,156.3,99.8,155.5,100.7,154.5z
		 M98.4,147.9c0.3-0.8,0.7-1.9,0.1-2.6c-1.3-1-3.1-0.8-4.6-0.8c-2.3,0-4.7,0-7,0.1c-3.3,0.2-6.4,1.2-9.5,2.1c-3.4,1-6.9,1.9-9.9,3.9
		c-0.1,0.2-0.2,0.4-0.4,0.5c-0.5,0.7,0.2,1.5,0.7,2c1.9,1.6,4.6,2.1,7.1,2c1.8-0.1,3.6-0.2,5.3-0.7c1.1-0.3,2.2-0.7,3.3-0.9
		c2.2-0.5,4.4-1,6.5-1.7C92.6,150.9,97.1,150.7,98.4,147.9z M97.2,79.6c1.6-0.5,3.1-1.1,4.7-1.4c-2.4-1.3-4.9-2.3-7.3-3.7
		c-1.9-1.2-3.8-2.4-5.7-3.6c0.3,1.1,0.6,2.3,0.9,3.4c0.6,2,1.5,3.7,2.7,5.3C93.7,81.2,95.7,80,97.2,79.6z M90.8,98.2
		c-0.4-0.9-0.7-1.9-1-2.9c-0.4-1.1-0.7-2.3-1.2-3.4c-0.2-0.3-0.3-0.7-0.6-0.9c-0.8-0.1-1.5,0.3-2.3,0.6c-0.6,0.2-1.1,0.5-1.6,0.7
		c-1.1,0.5-2.2,1.1-3.3,1.5c0.8,0.3,1.5,0.7,2.2,1C85.6,95.9,88.2,97,90.8,98.2z M85.7,69.2c0.1,0,0.2,0,0.3,0
		c-0.9-0.5-1.7-1-2.6-1.4c-3.7-2-6.8-4.9-10.3-7.2c-0.5-0.3-1.1-0.7-1.7-1c0.3,2.4,1.1,4.8,1.8,7.1c0.2,0.6,0.4,1.3,0.7,1.8
		c0.9,0.9,2.3,0.9,3.5,1C80.3,69.7,83.1,69.6,85.7,69.2z M76.8,92.3c-0.2-0.4-0.3-0.9-0.5-1.3c-0.4-0.8-0.8-1.6-1.2-2.4
		c-0.7-1.2-2-4.2-3.6-3.9c-2.4,0.3-4.7,1.2-6.9,2.1c-1.1,0.5-2.1,1.1-3.2,1.5c2.6,0.6,5.2,1.2,7.7,1.8C71.7,91,74.2,91.5,76.8,92.3z
		 M66.8,142.7c1.8-1.6,3.9-2.8,5.8-4.2c-2,0-4.1,0-6.1,0.1c-3.7,0.3-7.5,0.7-11.1-0.2c-2.7-0.9-5.5-1.5-8.1-2.7
		c-3.3-1.8-6.7-3.6-9.5-6.1c-4.2-3.7-6.9-12.3-8-17.8c-0.5-3-1-6-1.2-9.1c-0.1-3.1,0.2-6.1,0.8-9.2c1.2-4.7,2.6-9.4,3.7-14.2
		c-2.1,0.3-4.1,1.5-5.9,2.6c-0.8,0.5-1.8,1.4-2.5,0.4c-0.4-0.6-0.5-1.4-0.6-2.1C24,79.5,24,78.6,24,77.6c0-1.6,0-3.2,0-4.9
		c-1.4,2-3.1,3.9-4.7,5.7c-0.7,0.8-1.3,1.6-2,2.4c-0.5,0.6-1.4,0.5-1.7-0.3c-0.4-1.5-0.1-3.1-0.3-4.7c-0.1-1.5-0.3-3.1-0.6-4.6
		c-0.9,1.1-1.5,2.5-2.2,3.7c-0.8,1.7-1.8,3.4-2.4,5.2c-0.9,2.7-1.4,5.5-1.9,8.3c-0.7,3.7-1.5,7.4-1.9,11.2
		c-0.2,3.7-0.3,7.4-0.2,11.1c0.1,2.9,0.1,5.9,0.5,8.8c0.5,2.2,1.1,4.4,1.6,6.5c1.2,3.2,2.8,6.1,4.7,8.9c0.9,1.5,1.8,3,2.9,4.3
		c1.8,2.1,4,3.8,6.1,5.4c1.2,0.9,2.2,1.9,3.3,2.9c1.4,1.2,3,2,4.6,2.8c2.1,0.9,4.2,1.7,6.2,2.7c2,1,4.3,1.2,6.4,2
		c1.7,0.6,3.3,1.5,5.1,1.7c1.4,0.2,4.3-0.2,5.8,0.5c0.7-1.2,1.5-2.3,2.3-3.4c1.5-2.3,3.3-4.5,5.4-6.4
		C63.2,146.2,65,144.4,66.8,142.7z M65.1,57.8c0.7-0.3,1.3-0.5,2-0.8c-1.7-1-3.3-1.9-4.9-3.1c-2.2-1.4-4.7-2.4-6.9-3.7
		c-0.8-0.4-1.6-0.9-2.4-1.4c0.1,0.6,0.2,1.1,0.3,1.7c0.5,2.4,1.5,4.7,2.8,6.8c0.5,0.7,1,1.5,1.8,1.8c1.3,0.5,2.8,0.3,4.2,0
		C63,58.6,64.1,58.2,65.1,57.8z M56.5,214.6c-0.2-0.1-0.4-0.3-0.5-0.5c-1.3-1.2-2.5-2.6-3.7-3.8c-1-1-1.8-2.1-2.5-3.3
		c-2.2-3.7-3.5-9.1-4-14c-0.4,0-0.9-0.1-1.3-0.1c-3-0.2-6-0.3-9-0.2c-1.7,0.2-2-1.8-2.3-3.1c-0.4-1.6-0.8-3.3-1.3-4.9
		c-0.8-2.7-1.9-5.3-3-7.9c-1.4-2.6-3.3-5.1-5.9-6.6c0.1,1.7,0.4,3.5,0.7,5.2c0.5,3.3,0.8,6.6,0.8,9.9c0,1.6,0.1,3.1,0,4.7
		c-0.1,0.7-1,1.1-1.4,0.4c-0.3-0.6-0.4-1.4-0.6-2.1c-0.4-1.6-1-3.1-1.7-4.6c-2.1-4.5-4.7-8.7-8.1-12.3c-0.1,1.5,0.1,2.8,0.2,4.3
		c0.2,2.5,0.5,5,0.8,7.5c0.2,1.7,0.4,3.3,0.7,5c0.1,0.6,0.2,1.3,0.1,1.9c-0.1,0.6-0.8,0.9-1.2,0.4c-0.3-0.3-0.3-0.8-0.5-1.1
		c-0.3-1-0.7-2-1.2-3c-0.9-1.9-2.2-3.5-3.6-5.1c-1.2-1.4-2.6-2.8-3.8-4.2c-0.8-0.9-1.5-1.9-2.5-2.6c-0.1,2.2,0.8,4.4,1.4,6.5
		c1.1,3.6,1.6,7.4,2.5,11c0.5,2.4,1,4.8,1.5,7.2c0.4,1.5,0.9,3,1.3,4.5c0.6,2.5,1.4,4.9,2.2,7.2c0.6,1.7,1.2,3.1,2,4.6
		c0.1,0.2,0.3,0.4,0.4,0.6c0.4,0.1,0.8,0,1.2,0c1.2,0,2.3-0.2,3.5-0.3c2.4-0.3,4.9-0.4,7.3-0.3c3.2,0,6.5-0.3,9.7-0.1
		c2.7,0.1,5.4-0.1,8-0.5c3.1-0.2,6.1,0.6,9.1,0.3C53.5,215.2,55,214.7,56.5,214.6z M50.3,46.9c-0.6-0.4-1.1-0.8-1.7-1.2
		c-1.4-0.9-2.8-1.7-4.3-2.5c-1.9-0.9-3.7-2-5.5-3.3c0,0.3,0.1,0.5,0.1,0.8c0.2,1.6,0.3,3.2,0.5,4.8c0.1,0.9,0.2,1.9,0.4,2.8
		c0.1,0.6,0.8,0.7,1.3,0.8c2.5,0.1,5-0.8,7.4-1.5C49.2,47.4,49.8,47.2,50.3,46.9z"/>
	<path d="M3.7,184.5c-0.4,0-0.6-0.4-0.6-0.8c0.2-1.2,3.2-1.8,4.2-2c0.5-0.1,1.1-0.3,1.6-0.2c0.5,0.2,0.6,1,0.1,1.3
		c-0.2,0.1-0.4,0.1-0.6,0.2c-1.1,0.2-2.2,0.5-3.3,0.9C4.6,184,4.2,184.4,3.7,184.5z"/>
	<path d="M12.4,181.2c-0.7-0.2-0.5-1.3,0.2-1.3c2-0.6,4-1.5,6.1-1.8c0.3,0,0.7-0.1,1,0.1c0.4,0.3,0.5,0.9,0.1,1.3
		c-0.3,0.3-0.8,0.2-1.2,0.2c-0.6,0.1-1.1,0.2-1.5,0.3c-0.9,0.2-1.8,0.5-2.7,0.8C13.7,181,13,181.3,12.4,181.2z"/>
	<path d="M23.4,180.1c-0.5-0.2-0.6-0.9-0.2-1.2c0.2-0.1,0.4-0.1,0.6-0.2c1.7-0.2,3.4-0.4,5.1-0.5c0.7,0,1.4-0.2,2-0.1
		c0.8,0.2,0.8,1.5,0,1.7c-1.1,0.1-2.2,0-3.3,0.1C26.3,180,24.8,180.3,23.4,180.1z"/>
	<path d="M59.2,197.6c-0.3-0.1-0.4-0.6-0.3-0.8c0.2-0.7,1-1,1.6-1.2c1.1-0.5,2.3-0.9,3.4-1.3c0.4-0.1,0.8-0.3,1.2-0.3
		c0.6,0,0.8,0.9,0.4,1.2c-1,0.8-2.3,1-3.5,1.5c-0.8,0.2-1.5,0.5-2.2,1C59.7,197.7,59.4,197.7,59.2,197.6z"/>
	<path d="M67.1,191.8c-0.4-0.1-0.6-0.5-0.5-0.9c0.1-0.5,0.7-0.6,1.1-0.8c1.5-0.7,2.9-1.4,4.4-2c0.3-0.1,0.5-0.2,0.8-0.1
		c0.6,0.1,0.8,1,0.3,1.4c-0.2,0.2-0.5,0.3-0.9,0.4c-0.8,0.3-1.7,0.7-2.5,1.1c-0.5,0.2-0.9,0.4-1.4,0.6
		C68.1,191.5,67.7,191.8,67.1,191.8z"/>
	<path d="M165.7,190.4c-1.5-1.1,5.2-7.6,5.2-10c-0.8-2.5-3.6-3.9-4.2-6.4c0.6-3.3,6.8-3.5,3.7-8c-0.7-2-5.7-3.7-4.3-5.7
		c15.1-10.6-5.7-14.3-1.8-17.1c8.6,4,13.2,11.2,3.8,17.9c5.5,4.1,7.3,8.8,0.6,12.8c2.5,3.3,5.9,5.9,2.6,10.1
		C170.2,185.2,167.3,191.6,165.7,190.4z"/>
</g>
</svg>
