<?xml version="1.0" encoding="utf-8"?>
<!-- Generator: Adobe Illustrator 27.9.2, SVG Export Plug-In . SVG Version: 6.00 Build 0)  -->
<svg version="1.1" id="katman_1" xmlns="http://www.w3.org/2000/svg" xmlns:xlink="http://www.w3.org/1999/xlink" x="0px" y="0px"
	 viewBox="0 0 2336 640.3" style="enable-background:new 0 0 2336 640.3;" xml:space="preserve">
<style type="text/css">
	.st0{fill-rule:evenodd;clip-rule:evenodd;fill:#193650;}
	.st1{fill:url(#SVGID_1_);}
	.st2{fill:url(#SVGID_00000111871021796143678140000010647420486284276906_);}
	.st3{fill:url(#SVGID_00000048475990857909266960000009141028832032350359_);}
	.st4{fill:url(#SVGID_00000177463636629167473940000012354366820989710229_);}
</style>
<path class="st0" d="M883.2,378.7l-22.5-39h-32.8v39h-19.3V261.5h58.3c7.1-0.1,14.1,1.9,20.2,5.5c6.1,3.7,11.1,8.9,14.4,15.2
	c3.4,6.3,4.8,13.4,4.4,20.5c-0.4,7.1-2.7,14-6.8,19.9c-4.2,6.2-10.1,11.1-17.1,14l23.9,42H883.2z M866.8,281.4h-38.8v38.9h38.9
	c2.6,0,5.1-0.5,7.4-1.6c2.3-1,4.4-2.5,6.2-4.4c2.7-2.7,4.5-6.2,5.2-10c0.7-3.7,0.3-7.6-1.1-11.2c-1.5-3.5-3.9-6.6-7.1-8.7
	c-3.2-2.2-6.9-3.4-10.7-3.4L866.8,281.4z M1073.9,261.5l-58.4,117.2h21.7l36.7-73.4l36.6,73.4h21.7L1073.9,261.5z M1319.8,261.5
	h-24.7l-33.2,43.2l-33.1-43.2H1204l48.7,62.5v54.7h19.3v-55.6L1319.8,261.5z M1418.9,261.5h38.8c15.4,0.1,30.2,6.3,41,17.3
	c10.9,10.9,17.1,25.8,17.2,41.3c-0.1,15.5-6.2,30.3-17.2,41.3c-10.9,11-25.7,17.2-41.1,17.2h-38.8L1418.9,261.5L1418.9,261.5z
	 M1457.7,358.8c10.3,0,20.1-4.1,27.4-11.5c7.3-7.3,11.4-17.2,11.4-27.5c-0.2-10.3-4.2-20.2-11.5-27.5c-7.3-7.3-17.1-11.5-27.3-11.5
	h-19.6v78H1457.7z M1645.3,261.5h-19.3v117.2h19.3V261.5z M1852.3,329.8c0.1,6.5-1.1,12.9-3.6,18.8c-2.4,5.9-6.1,11.3-10.8,15.8
	c-6.8,6.9-15.4,11.5-24.9,13.3c-9.4,1.9-19.2,0.9-28.1-2.8c-8.9-3.7-16.5-10-21.8-18c-5.3-8-8.1-17.5-8.1-27.1v-68.2h19.3v68.2
	c0,7.8,3,15.2,8.6,20.7c5.5,5.5,12.9,8.6,20.6,8.6s15.1-3.1,20.6-8.6c5.5-5.5,8.5-12.9,8.5-20.7v-68.2h19.5L1852.3,329.8
	L1852.3,329.8z M1981.5,378.7v-70l39,39.1l38.8-39.1v70h19.7V261.5l-58.5,58.6l-58.3-58.6v117.2H1981.5z"/>
<linearGradient id="SVGID_1_" gradientUnits="userSpaceOnUse" x1="458.0841" y1="-573.6735" x2="1.1533" y2="-391.9205" gradientTransform="matrix(1 0 0 1 242.34 803.04)">
	<stop  offset="0" style="stop-color:#C200FB"/>
	<stop  offset="0.4897" style="stop-color:#3772FF"/>
	<stop  offset="0.4898" style="stop-color:#3773FE"/>
	<stop  offset="1" style="stop-color:#5AC4BE"/>
</linearGradient>
<path class="st1" d="M664.8,257.9V432L472.1,543.9L279.3,432V208.3l192.9-112l148.1,86l22.4-12.9l-170.5-99L257,195.3V445
	l215.2,124.9L687.4,445V244.9L664.8,257.9z"/>
<linearGradient id="SVGID_00000066486781157065858380000010025319452162856875_" gradientUnits="userSpaceOnUse" x1="449.367" y1="-595.5868" x2="-7.5628" y2="-413.8328" gradientTransform="matrix(1 0 0 1 242.34 803.04)">
	<stop  offset="0" style="stop-color:#C200FB"/>
	<stop  offset="0.4897" style="stop-color:#3772FF"/>
	<stop  offset="0.4898" style="stop-color:#3773FE"/>
	<stop  offset="1" style="stop-color:#5AC4BE"/>
</linearGradient>
<path style="fill:url(#SVGID_00000066486781157065858380000010025319452162856875_);" d="M418.2,432.2H386V323.5h107.5
	c10.1-0.1,19.9-4.2,27.1-11.5c7.2-7.3,11.2-17.1,11.2-27.3c0.1-5.1-0.9-10.1-2.9-14.7c-1.9-4.7-4.8-8.9-8.4-12.4
	c-3.5-3.6-7.7-6.5-12.3-8.4c-4.6-1.9-9.6-3-14.7-2.9H386v-33.1h107.6c18.8,0.1,36.9,7.7,50.2,21.1c13.3,13.4,20.8,31.5,21,50.5
	c0.1,14.5-4.3,28.6-12.6,40.5c-7.6,11.3-18.4,20.2-31,25.5c-12.5,4-25.4,5.9-38.5,5.8h-64.5V432.2z"/>
<linearGradient id="SVGID_00000094605336502775747280000004672169532284161438_" gradientUnits="userSpaceOnUse" x1="494.8715" y1="-481.1839" x2="37.9418" y2="-299.4308" gradientTransform="matrix(1 0 0 1 242.34 803.04)">
	<stop  offset="0" style="stop-color:#C200FB"/>
	<stop  offset="0.4897" style="stop-color:#3772FF"/>
	<stop  offset="0.4898" style="stop-color:#3773FE"/>
	<stop  offset="1" style="stop-color:#5AC4BE"/>
</linearGradient>
<path style="fill:url(#SVGID_00000094605336502775747280000004672169532284161438_);" d="M563.9,429.5h-37.6l-29-50.9
	c11.5-0.7,22.8-3,33.6-6.9L563.9,429.5z"/>
<linearGradient id="SVGID_00000108273617293733766660000012798041870181092754_" gradientUnits="userSpaceOnUse" x1="445.8823" y1="-604.1683" x2="-11.0464" y2="-422.4153" gradientTransform="matrix(1 0 0 1 242.34 803.04)">
	<stop  offset="0" style="stop-color:#C200FB"/>
	<stop  offset="0.4897" style="stop-color:#3772FF"/>
	<stop  offset="0.4898" style="stop-color:#3773FE"/>
	<stop  offset="1" style="stop-color:#5AC4BE"/>
</linearGradient>
<path style="fill:url(#SVGID_00000108273617293733766660000012798041870181092754_);" d="M642.4,221.7l22.2,12.4l22.2-12.4v-26.3
	l-22.2-12.9l-22.2,12.9V221.7z"/>
</svg>
