<?xml version="1.0" encoding="utf-8"?>
<!-- Generator: Adobe Illustrator 27.9.2, SVG Export Plug-In . SVG Version: 6.00 Build 0)  -->
<svg version="1.1" id="Calque_1" xmlns="http://www.w3.org/2000/svg" xmlns:xlink="http://www.w3.org/1999/xlink" x="0px" y="0px"
	 viewBox="0 0 351.8 126.9" style="enable-background:new 0 0 351.8 126.9;" xml:space="preserve">
<style type="text/css">
	.st0{fill:#8664C2;}
</style>
<g>
	<path class="st0" d="M112.8,94.3c-5.1-2.5-9.6-5.9-14.1-9.2c-3-2.3-6.3-4-9.7-5.8c-3.2-2.3-6.3-4.9-9.3-7.5
		c5.1-1.3,9.9-3.8,14.2-6.7c9.6-6.7,8.1-20.1,8-30.4c-0.3-10.3-3.7-19.9-13.6-24.4c-5.5-2.9-11.7-2.8-17.7-2.6
		C63.6,7,56.6,9.3,50.4,12.7C49.6,7,50.3-1.5,41.9,0.5c-8.6,1.1-16.8,4.2-25.6,4.6c-4.3,0.7-2.2,6.9-2.2,9.9
		c0.2,1.8,0.3,3.7,0.4,5.5c-0.9,0-1.8,0.2-2.8,0.4c-0.9,0.2-1.8,0.4-2.7,0.4c-3.7,0.4-7-0.3-7.7,4.4c-0.5,4.3-1,8.7-1.3,13
		c-1,7.5,7.6,4.1,11.8,3.1c-0.1,17,0,34.3-4.8,50.7c-1.5,4.7-3.4,9.4-5.2,14c-0.8,2-2.6,4.7-0.2,6.3c3.4,1.7,7.6,1.5,11,3.4
		c5.6,2.9,11.5,4.7,17.5,6.5c6.9,2.8,8.2-8.6,9.9-13c1.7-5.4,3.6-10.7,5.1-16.1c1-3.2,2.4-6.3,3.3-9.6c0.7,0.6,1.5,1.2,2.2,1.8
		c3.3,2.8,6.8,5.2,10.2,7.8c3.1,2.6,6,5.5,9.1,8.2c3.4,3.3,7.7,5.5,11.1,8.7c2.4,2.5,4,5.6,6.6,7.9c3,2.5,5.7,5.4,8.8,7.7
		c0.8,0.4,1.5,0.6,2.2,0.6c4.1-0.2,7.2-7,9.7-9.6c2.3-2.7,4.9-5.4,7.3-8.2C124.2,100.3,122.7,99.9,112.8,94.3z M65.5,50.2
		c-0.7,6-4.8,11.4-10.3,13.9c-0.1-9.9-0.8-19.8-1.4-29.7c-0.1-0.9-0.1-1.8-0.1-2.7C62.4,32.5,67.4,42.1,65.5,50.2z"/>
	<path class="st0" d="M218.4,82.5c-7-1.8-14.1,1.2-21,2.3c-6,1.1-12,1.9-18,2.4c-0.3-4.1-0.7-8.3-1.2-12.3c-0.1-1-0.2-1.9-0.3-2.9
		c2.7-0.3,5.3-0.5,8-0.9c6-0.4,11.8-1.6,17.7-2.4c1.3-0.3,2.9-0.2,4.5-0.1c3.8,0.2,7.9,0.4,8.9-3.8c0.3-1.3,0.2-2.7,0.1-4
		c-0.4-4.1-0.8-8.1-0.9-12.2c-0.1-1.9,0-3.9-0.3-5.8c-0.2-1.7-2.5-2.5-3.8-1.4c-2.2-0.4-4.5,0-6.7,0.2c-8.2,0.6-16.3,1.8-24.3,3.6
		c-2,0.4-4,0.6-6,0.9c-0.3-2.1-0.6-4.1-0.9-6.1c6.7-0.9,13.3-2,19.9-3.3c3.2-0.5,6.4-0.9,9.6-1.1c1.8-0.2,3.9,0,5-1.7
		c1.2-1.9,1.2-4.3,1.6-6.5c0.8-5.7,1.4-11.4,1.3-17.1c-0.9-3.6-7.5-2.1-10.3-1.9c-4.7,0.5-9.9,1.2-14.7,2.3
		c-5.3,1.1-10.7,1.5-16,2.7c-0.4-2.2-0.8-4.5-1.3-6.7c-0.5-2-0.8-4.9-3.2-5.5c-6.4,0.4-12.5,3-18.5,5.3c-3.7,1.4-7.6,2.4-11.3,3.9
		c-1.8,0.6-5.4,2.1-3.4,4.4c-0.1,1.8,0,3.7,0.2,5.6c-0.2,0-0.4,0.1-0.6,0.1c-2,0.4-4.4,0.5-6.1,1.8c-1.6,1.3-1.4,3.6-1.3,5.4
		c0.2,3.1,0.6,6.1,0.8,9.2c0.5,3-0.5,8.6,2.5,10.4c2.7,1.2,5.3-1,7.9-1.6c0.1,0,0.2-0.1,0.3-0.1c0.3,1.9,0.6,3.8,0.8,5.8
		c0,0.3,0.1,0.6,0.1,0.8c-3.3,0.5-6.5,1.2-9.8,2.2c-6.9,1.4-3.5,8.5-2.5,13.1c0.8,2.9,1.5,5.8,2.5,8.7c0.6,1.8,1.8,3.7,3.9,3.8
		c2.6,0.1,5-0.9,7.5-1.5c0.7-0.2,1.4-0.3,2.2-0.5c0.9,3.6,1.7,7.1,2.4,10.7c0,0.2,0.1,0.4,0.1,0.7c-0.9,0.1-1.7,0.1-2.6,0.1
		c-0.8,0.1-1.8,0.1-2.8,0.2c-3.1,0-6.5,0.1-7.2,3.3c-0.3,4.5,1.2,9.1,2.6,13.3c1.7,4.6,10.1,2.7,14.1,3.1c0.1,0,0.2,0,0.3,0
		c0.1,0.2,0.1,0.5,0.2,0.7c0.9,3.3,0.1,8.2,3.7,9.9c0.4,0.2,0.9,0.2,1.4,0.2c0.7,0,1.5-0.2,2.2-0.3c4.6-0.7,9.2-1.8,13.7-2.7
		c1.8-0.4,3.5-1,5.3-1.2c2.3-0.1,5.6-0.2,6.1-3c0.1-0.7,0.2-1.4,0.2-2.1c3.4-0.1,6.8-0.3,10.1-0.4c0.9,0,1.8-0.1,2.8-0.1
		c6.5-0.4,12.9-1.3,19.4-0.9c7.3,1.2,6.4-8.9,7.3-13.6c0.2-2.8,0.4-5.6,0.5-8.4C222.1,85,221.5,81.4,218.4,82.5z"/>
	<path class="st0" d="M327.4,54.1c3.6-3,5.9-7.2,9.3-10.4c3.6-3.6,14.7-11.1,15-15.9c0-1-0.4-1.9-1.1-2.7
		c-3.9-4.7-8.8-8.3-13.7-11.9c-5-3.7-7.5-10.9-13.5-13.1c-2.5-0.6-4,1.6-5.1,3.5c-2.4,3.2-4.7,6.5-7.1,9.7c-1.2,1.6-2.4,3.4-3.5,5.1
		c-4.7,6.8-10.2,13-14.8,19.8c-2.3-2.7-5.2-4.9-7.7-7.4c-3.9-4.7-7.1-10-11-14.8c-3-3.6-7.1-10-11.9-10.9c-1.6-0.1-2.8,1.1-4,1.9
		c-1.6,1.1-3,2.3-4.5,3.5c-4,2.8-8,5.6-12.3,8c-1.6,1.1-4.3,1.9-4.4,4.1c0,0.9,0.8,1.6,1.7,1.6c0.3,1.3,1.6,1.9,2.5,2.7
		c1.4,1.2,2.8,2.4,4.1,3.7c1.9,1.8,3.1,4.1,4.6,6.2c1.4,1.9,3.2,3.5,4.4,5.6c1.7,3.5,3.2,7,5.1,10.4c2.5,4.3,5.6,7.9,7.8,12.4
		c-6.1,6-10.5,13.3-15.8,20c-3.7,5.6-9.5,10.5-10.6,17.4c-0.7,6.2,15.3,9.6,19.8,13c2.6,1.7,4.9,0.3,6.1-2.2c0.9-1.4,2-2.7,3-4
		c1.8-2.2,3.9-4.1,5.7-6.4c3.2-4.5,6.3-9,10.6-12.5c1.9,3.1,4.1,6.1,5.9,9.2c3.1,6,6.2,12.1,10.2,17.5c1.6,2.3,3.7,4.8,6.7,4.7
		c1.9-0.1,3.4-1.3,5.1-2.1c4.3-2.3,8.3-5.3,13-6.9c2.6-1,5.1-2.2,7.7-3c2.3-0.8,5.6-1,6.3-3.8c0.3-3-1.8-5.6-2.9-8.3
		c-1.4-2.9-2.9-5.7-4.6-8.5c-2.5-4.8-5.1-9.7-8.8-13.8c-3.3-3.7-7.3-6.7-10.5-10.6C318.4,60.7,323.1,57.7,327.4,54.1z"/>
</g>
</svg>
