<?xml version="1.0" encoding="utf-8"?>
<!-- Generator: Adobe Illustrator 27.9.2, SVG Export Plug-In . SVG Version: 6.00 Build 0)  -->
<svg version="1.1" id="Calque_1" xmlns="http://www.w3.org/2000/svg" xmlns:xlink="http://www.w3.org/1999/xlink" x="0px" y="0px"
	 viewBox="0 0 336.9 349.5" style="enable-background:new 0 0 336.9 349.5;" xml:space="preserve">
<style type="text/css">
	.st0{fill:#8664C2;}
	.st1{fill:#C3A3FC;}
	.st2{fill:#FFFFFF;}
	.st3{fill:#010101;}
	.st4{fill:#944650;}
</style>
<path class="st0" d="M2,76.5c0.1,0,0.1,0,0.2,0c-0.8-0.1-1.5-0.1-2.2-0.3v9.9C3,82,6.4,78.1,9.4,74c0.1-0.1,0.1-0.1,0.2-0.2
	C7.3,75.4,4.8,77,2,76.5z"/>
<path class="st0" d="M333.8,78.6c-0.4-5.1-2.2-10.3-3.9-14.4c-1.7-4.3-2.8-8.8-4.7-13.1c-2.1-5.4-4.8-10.7-9.7-14.1
	c-4.1-3.3-9.3-4.2-14.3-4.7c-4-0.5-7.9-0.8-11.9-0.3c-9.1,1-18.1,0.9-27,2.6c-6.6,1-13.3,1.7-19.8,3.5c-2,0.6-3.9,1.3-5.9,1.9
	c0.6-3,0.8-6.7,0.8-7.9c-0.4-4.3-1.8-8.6-4.9-11.6c-3.1-2.6-6.5-5-10.1-6.9c-1.3-0.7-2.8-1.2-4.1-1.9c-1.2-1.4-1.8-2.8-3-4.1
	c-2.1-2-5.1-2.8-7.9-3.2c-4.5-1.4-9.2-1-13.7,0.3c-2.2-3.6-7.3-2.4-10.8-1.9c-2.9,0.7-5.6,2-8.1,3.7c0,0,0,0,0,0
	c-3.7-2-10.5-3.3-12.2-3.7c-8.1-1.5-16.7-0.5-24,3.3c-2,1.2-3.9,2.6-5.9,3.8c-5.1,2.2-6.7,7.7-7.8,12.7c-0.7,3.9-1.5,7.8-1.7,11.8
	c-2.9,0.1-7.1,1.5-8.3,1.6c-2.2,0.1-4.3-0.5-6.4-0.9c-2.4-0.4-4.8-0.4-7.2-0.5c-10.4-0.2-20.1,4.6-28.8,9.8
	c-3.5,1.4-6.7,3.2-9.7,5.5c-2.1,1.4-4.4,2.4-6.2,4.1c-0.8,0.9-1.6,2-2.3,2.9c-2.5,4-4.9,8.1-7.2,12.3c-2.2,4.4-2.6,9-3.6,13.6
	c-0.4,1.7-0.8,3.5-0.9,5.2c-4.7-3.4-10.6-4.9-16-7c-1.1-0.4-2.2-0.7-2.9-1.5c-1-1.8-2.4-3.3-3.6-5c0.9,1.9,1.7,3.8,2.4,5
	c2,3.8,4.4,7.4,5.9,11.4c1.6,4.9,2.8,10.1,4.4,15c0.6,2.3,2.7,6.9-1.1,7.3c-8.8-0.4-17.4-2.3-26-4.4c-1.9-0.4-3.7-0.6-5.6-0.7v236.7
	c0.3-0.1,0.7-0.3,1-0.4c1.7-0.7,3.2-1.7,4.8-2.6c4.3-2.2,8.6-4.5,12.4-7.6c4.1-2.2,8.1-4.7,11.3-8.1c2.6-2.2,5.6-3.9,7.8-6.4
	c1.6-2.2,3.5-4.1,5.6-5.9c1.6-1.6,2.7-2.9,4.1-4.5c3.8-3.9,5.9-9,7.9-13.9c0.7-2.4,1.4-4.8,1.9-7.3c0.3,0.1,0.6,0.2,0.8,0.3
	c3.7,1,6.9,1.7,8.5,5.5c1.5,3.1,2.9,6.2,4.3,9.3c1.3,2,2.6,8.3,5.7,7.1c0.8-0.3,1.2-1.2,1.5-1.9c0.8-1.7,1.3-3.4,2-5.1
	c2.4-3.7,2.8-8,4-12.1c2.8-0.1,5.2,1.2,7.2,3c1.7,1.3,3.5,2.5,5.4,3.3c1,0.5,2.4,0.3,3.1-0.8c0.7-2-0.1-4.4-0.4-6.4
	c-1.2-5.1-2.4-10.4-4.9-15.1c2.7-0.7,5.5-1.3,8.2-1.7c2.8-0.2,5.7,0,8.4-0.7c0.9-0.2,1.5-1,1.4-1.8c1.3-0.4,1.9-2.1,0.5-3
	c-0.7-0.2-1.3-0.9-2.1-0.5c-6.3-1.6-12.2-4.3-18.2-6.8c-2.3-1.4-4.6-2.6-6.8-4c-0.7-0.5-1.4-1-2.2-1.5c4.1-0.9,8.1-1.9,12.2-2.8
	c5-1.1,9.9-1.7,14.6-3.8c2.3-1,4-3,6.1-4.3c1.7,3.5,3.5,7.2,5.3,10.6c1.3,2.5,2.6,5.1,4.6,7.2c1.9,2,4.2,3.4,6.3,5.1
	c2.1,1.9,3.9,4.1,6.3,5.7c4.3,2.6,5.7,3.9,6.5,9c1.2,3.9,1.5,20.8,8.3,17.5c4.5-3.3,6.9-8.6,8.3-13.9c2.9,2.1,5.9,4.1,8.7,6.4
	c1.6,1.3,2.9,2.5,4.4,3.9c1.2,1.1,2.4,2.8,4.2,2.6c2.2-0.3,2.3-3.1,2.3-4.8c0.1-4.7-0.3-9.4,0.2-14.1c4.9,1.6,9.4,4.7,14.7,5
	c10.5,0.1,0.3-10.4-3.1-13.3c-3.2-2.6-6.8-4.8-10.2-7.2c-3.2-1.7-6.8-2.4-10-4c-2.1-1.4-3.2-3.9-5.1-5.6c-1.6-1.8-3.6-3.3-5-5.3
	c-1.8-2.6-2-6-4-8.5c4,0.5,7.9,1.2,11.8,2.2c3.6,0.6,7.2,1.1,10.7,1.9c8.5,1.4,17.3,2.5,25.9,3.1c7.2,0.1,13.9-1.3,20.9-2.3
	c6.7-0.7,13.3-1.9,19.5-4.7c2-0.8,3.7-2.1,5.4-3.3c3.5-2.2,7.4-3.9,9.5-7.7c1.3-2.2,2.1-4.6,3.3-6.9c2.1-4,5.1-7.6,6-12.2
	c1-3.4,0.5-6.9-0.2-10.2c-0.9-4.9-1.8-9.9-4-14.4c-0.7-1.5-1.4-3.1-2.1-4.6c-1.4-3-2.4-6.1-3.9-9.1c-1.4-2.8-3.3-5.4-5.2-7.9
	c-2.4-2.8-4.5-5.8-6.7-8.7c-2.2-2.6-4.9-4.6-7.2-6.9c-2-2.4-3.7-5.1-5.8-7.5c-1-1.3-2.1-2.7-3.4-3.8c1.5-0.5,3-1.2,4.4-1.9
	c3-1.5,6.3-2.1,9.4-3.2c10.1-3.8,20.4-6.7,30.9-8.9c4.9-1.2,9.4-3.4,13.9-5.4c4-1.6,8-3.5,12-5.2c4.4-1.8,8.6-2.7,12.8-4.7
	c2.8-1.3,5.4-2.8,7.9-4.6c2.6-2.1,5.8-4.1,7.2-7.3c1.4-4.9,2.4-10,2.6-15.1C334.5,79.9,334.2,79.1,333.8,78.6z"/>
<path class="st0" d="M35.3,29.3c-3.7-1.4-7.7-2.1-11.5-3.4c-3-0.7-6.1-1-9.1-1.7c-3.5-0.5-7.2-0.7-10.6,0.2
	c-1.3,0.5-2.7,0.8-4.1,1.2v29.8c1.9-1.4,3.9-2.8,5.9-4.1c3.3-1.3,6.8-2.4,10.3-3.2c6.6-0.8,13.2-1.8,19.6-3.4
	c3.6-0.9,7.6-1.2,10.2-4.1C49.7,35.5,38.8,31.1,35.3,29.3z"/>
<path class="st1" d="M49.8,173.9c3-0.4,4.5-3.2,5.9-5.5c2.4-3.4,4.1-7.6,4-11.8c-0.2-6.7-4.2-9.1-9.3-4.2c-2.4,2.3-4,5.3-5.3,8.4
	c-1.2,2.9-2.1,6-1.2,9.1C44.6,172.4,47.1,174.4,49.8,173.9z"/>
<path class="st1" d="M55.5,142.7c2-1.5,3.1-4.6,2.2-7c-0.8-1.8-3.3-2-4.4-0.3c-1.1,0.7-1.6,2.1-1.4,3.3
	C51.4,140.9,53,144,55.5,142.7z"/>
<path class="st1" d="M32.7,105.9c-1.6-5-2.7-10.1-4.4-15c-1.5-4-3.9-7.6-5.9-11.4c-0.8-1.2-1.5-3.2-2.4-5c-0.7-1.3-1.4-2.6-2.3-3.5
	c0,0,0,0,0,0c-0.5-0.6-1.1-1-1.8-1.3c-0.8-0.3-1.7-0.4-2.6,0c-1.7,0.9-2.6,2.7-3.7,4.2c-0.1,0.1-0.1,0.1-0.2,0.2
	C6.4,78.1,3,82,0,86.2V108c1.9,0.1,3.8,0.4,5.6,0.7c8.5,2.1,17.2,4,26,4.4C35.4,112.8,33.3,108.2,32.7,105.9z"/>
<path class="st1" d="M66.4,237.9c-1.6,0.5-2.7,1.9-1.8,3.6c1,2.2,2.1,4.4,3.8,6.1c1.7,1.7,4,2.7,6.1,3.7c2.2,1,3.6,2.4,5.6,3.5
	c2.5,1.1,5.2,2.1,8,1.5c1.9-0.4,3.9-1.5,5.8-1.8c3.3-0.5,6.7-0.6,9.5-2.7c0,0,0.1,0,0.1,0.1c0,0,0,0,0,0c1,0.5,2.4-0.5,2.2-1.7
	c-0.2-0.8-0.8-1.5-1.1-2.2c-1.4-2.6-3.1-5.3-5.5-6.8c-5.6-3.6-12.5-4.9-19.1-5.1C75.3,236.3,70.6,236.1,66.4,237.9z"/>
<path class="st1" d="M52.7,285.4c-1.8-0.9-3.5-2-5.2-3.1c-3.3-2.6-6.4-5.6-9.5-8.5c-3.3-4-5.8-8.7-8.5-13.1c-1.1-3.1-2-5.1-5.7-3.6
	c-7,3-14.6,3.8-22,5c-0.6,0.1-1.2,0.2-1.7,0.3v81.9c1.9-0.9,3.9-1.8,5.7-2.9c2.4-1.1,4.5-1.5,6.7-2.7c3.4-1.5,5.9-4.3,9.3-5.8
	c3.2-1.5,6-3.8,8.8-5.9c2.2-1.4,4.3-3,6-4.9c1.7-1.9,3-4.2,4.7-6.2c1.8-2,3.9-3.7,5.8-5.6c4.3-4.6,5.5-10.9,7.7-16.5
	c0.3-1.2,0.9-2.9,0.9-4.4c0.1-0.1,0.2-0.2,0.3-0.4C57.1,286.7,54,286.2,52.7,285.4z"/>
<path class="st2" d="M279.7,127.6c-0.1,0-0.2,0-0.3,0.1c0.1,0,0.2,0,0.2,0C279.6,127.6,279.6,127.6,279.7,127.6z M287.9,128.5
	c-0.1,0-0.1,0.1-0.2,0.1c0,0,0,0.1,0,0.1C287.8,128.6,287.8,128.5,287.9,128.5z M278.4,132.8c-1.8-1.5-4.2-2.1-6.1-3.4
	c-4.6-5,8.9-5.8,11.6-6.8c3.6-1.2,7.4-2.2,10.9-3.7c0.7-0.4,1.5-0.9,2.3-1.1c0.5-0.9,0.9-1.8,1.4-2.6c0.8-1.1,2.7-0.6,2.8,0.8
	c-0.2,3-2.2,5.6-3.6,8.2c1.1,1.1,0.3,3-0.1,4.4c-1.3,3-3.9,5.7-7.1,6.5C286.4,136.1,281.9,135.4,278.4,132.8z"/>
<path class="st2" d="M255,142c2.7,0,4.8-1.8,6.4-3.8c1.5-2,3.4-3.9,3.9-6.3c0.8-1,0.1-2.7-1.2-2.9c-1.7-0.1-3,1.6-4.4,2.4
	c-4.9,0.5-9.7,1.5-14.4,3.1c-1.7,0.7-4.3,0.8-5.3,2.6c-0.4,1,0.1,2.2,1.1,2.6C245.8,140.5,250.3,142.4,255,142z"/>
<path class="st2" d="M206.9,147.7c-1.5,0.2-3.4,1.4-2.6,3.2c0.8,1.6,2.9,1.4,4.4,2c0.4,1.6,2.1,1.5,3.4,1.1c2.1,0.5,4.2,1.2,6.3,0.8
	c5.5-1.6,11.8-5.6,15-10.4c1.9-0.4,2.9-2.5,0.9-3.6c-0.4-1.6-2.9-1.6-3.1,0.1c-4.4,0.8-8.6,2.1-12.9,3.3c-2.5,0.7-5.1,1.2-7.6,1.9
	C209.4,146.6,207.8,146.7,206.9,147.7z"/>
<path class="st2" d="M179.9,156.1c-2.4,0.7-9.9,1.1-9.5,4.5c0,0.2,0.1,0.3,0.1,0.5c0.3,0.1,0.7,0.3,1,0.5c3,1.4,5.8,2.2,9.1,3.2
	c1.1,0.3,2.3,0.7,3.5,1c2.4,0.2,4.8,0,7.1-1.3c2.5-1.3,4.3-3.6,5.9-5.9c0.9-1.7,3.4-4.2,2-6.1c-0.9-1.2-2.8-0.4-3,0.9
	c-0.6-0.2-1.3-0.1-1.8,0.1c-0.9,0.2-1.8,0.4-2.6,0.6C187.6,154.8,183.8,155.4,179.9,156.1z"/>
<path class="st2" d="M185.2,32.2c1.1-2.2,2.4-4.3,4-6.1c1.6-2.1,3-4.4,4.7-6.5c2.2-2.8,5.5-4.6,8.8-5.9c3-1.4,6.3-1.4,9.6-1
	c3.6,0.8,7.8,0.1,10.8,2.7c3.9,2.3,8.5,4.8,10.3,9.2c1.5,2.8-1.5,5.8-3.5,7.5c-2.5,1.9-5.4,3.1-7.8,5.2c-3.5,3.3-7,6.7-11.2,9.1
	c-3.9,2.8-8.5,4.5-12.8,6.5c-3.5,1.9-6.9,4.1-10.8,4.8c-6.1,1.3-5.6-7.4-5.6-11.3C181.8,41.5,183.2,36.6,185.2,32.2z M209.8,45
	c4-2.7,8.5-5.4,11.9-8.9c1.1-1,2.4-1.3,3.5-2.3c1.3-1,2.8-3.2,1.1-4.5c-2.7-4.8-6.2-10-12-11c-0.4-0.1-0.8-0.1-1.2-0.2
	c0.1-3.1-6.5-1.7-8.2-1c-1.3,0.4-1.5,1.8-0.9,2.6c-3.6,1.7-6.6,4.7-7.6,8.7c-1.4,5.4,0.3,10.9,3.8,15.1
	C203.1,47.7,205.7,47.8,209.8,45z"/>
<path class="st2" d="M94.2,106.3c-0.4,1.4-1.5,2.7-1.2,4.2c0.3,1,1.3,1.7,2.3,1.5c2.3-0.6,4.1-2.4,6.3-3.4c1.4-0.6,2.8-1.1,4.3-1.6
	c2.7-0.9,5.5-1.3,8.2-2c3.7-1,7-3.3,10.2-5.4c2.4-1.4,4.8-2.8,6.9-4.5c1.3-1.1,2.8-2.6,4.2-3.5c2.6-1.8,5.2-3.5,7.8-5.3
	c0.5-0.4,1-0.9,1.4-1.3c-0.3,0.2-0.6,0.4-0.9,0.5c-4.5,1.8-7.6-3.6-9-7.1c-1.1-3.1-0.6-6.4,0.4-9.5c0.8-2.4,1.6-5,3.5-6.7
	c3.1-2.7,6.5-5.2,10.6-5.8c6.6-1.6,12.4,1.7,17.1,6.1c1.4-0.7,3.1,0.8,2.6,2.2c-0.1,0.1-0.1,0.3-0.2,0.4c0.7-0.9,1.4-1.7,2.1-2.6
	c1.2,0.2,1.8-1.4,1.4-2.4c0.1-0.8-0.3-1.5-1-1.9c-1.6-2.1-3.6-3.9-5.6-5.7c-5.5-5-12.8-6.7-20-4.8c-3.4,0.9-6.2,3.1-8.9,5.2
	c-2.5,1.9-5,3.9-7.1,6.3c-8.2,7.9-15.3,16.8-22.4,25.6c-2.8,3.9-4.4,8.4-7.1,12.4C98,100.2,95.4,102.8,94.2,106.3z"/>
<path class="st2" d="M155,187.7c-3,1.6,0.5,4.3,2.2,5.4c2.9,1.9,6.2,3.1,9,5.1c2.5,1.8,5,3.6,7.8,4.9c7.3,3.4,14.1,7,20.9,11.3
	c3.9,2,8.2,2.7,12.4,4c2.9,0.9,5.5,1.8,8.3,2.7c2.9,1.1,5.8,2.3,8.8,2.8c4.2,0.7,8.6,0.8,12.8,0.4c4-0.7,7.7-2.6,10.9-5.1
	c2.1-1.4,4.4-2.8,6.1-4.7c3.9-4,3.6-10.8,0.5-15.2c0.8-2.5,1.5-4.9,2.2-7.4c0.4-1.7,1.2-3.4,1.2-5.1c0.3,0,0.6-0.1,0.8-0.3
	c1.9-1.8-0.9-4.1-2.5-4.8c-3.8-1.7-7.9-0.9-11.9-0.9c1.3-4.7,2.8-9.5,3.6-14.3c1.3-5.2-2.2-7.4-7-6.8c-2.6,0.4-7.4,0.1-7.5,3.7
	c0.7,3.3,1.2,6.8,2.3,10c0.2,0.6,0.5,1.2,0.7,1.8c1.1,2.5,2.5,4.8,3.5,7.3c1.5,3,2.7,6.1,3.7,9.2c0,0,0,0,0,0
	c-0.6,1.1-0.1,3-0.6,4.2c0,0.1-0.1,0.1-0.1,0.2c-0.3,2-1.6,3.9-2.6,5.7c-1.8,2.9-3.4,5.4-5.6,8.2c0,0.1-0.1,0.1-0.1,0.1
	c-1,2-1.9,3.9-3.4,5.5c-0.2-0.1-0.4-0.2-0.6-0.3c-1,0.4-2.2,0-2.8-1.1c-0.8-1.3-1.4-2.8-2.2-4.3c-1.1-1.3-2.1-2.6-3.1-4
	c-2.4-3.3-7.6-1.6-10.9,0.1c-1.1,0.8-2.2,1.6-3.3,2.4c-0.3,0.2-0.6,0.4-0.9,0.6c-0.5,0.5-0.9,0.9-1.4,1.3c-0.3,0.1-0.5,0.1-0.8,0.2
	c-1.7,1-3.4,1.4-4.6-0.5c-1.9-3.4-2.8-7.4-4.7-10.8c-0.1-0.1-0.3-0.2-0.4-0.3c-2.7-1.9-6.1-0.9-9.1-0.7c-0.1,0-0.2,0-0.4,0
	c-1,0.4-2.1,0.8-3.2,1.2c-1.6,0.4-2.6-0.2-3.3-1.2c-0.1,0-0.1,0-0.2,0c-0.6-0.5-1.1-1.2-1.6-1.9c-1.6-2.3-2.9-4.4-4.7-6.5
	c-2.1-2.6-4.4-4.3-7.9-3.2C162,187.4,158.4,187,155,187.7z"/>
<path class="st2" d="M132.9,168.6c-0.2,0.5-0.1,1.1,0.2,1.6c2.7,1.1,5.8,2.7,8.1,3.8c2.2,0.8,4.2,1.6,6.5,1.5c2.8,0,5.3-1.2,7.2-3.1
	c3.1-2.7,6.5-5.6,7.9-9.5c0.6-2.1-1.8-3.4-3-1.5c-1-1-2.4-0.4-3.5,0.1c-4.5,1.2-8.7,2.7-13.1,3.8c-2.5,0.5-4.9,1-7.4,1.6
	C134.7,167,133.3,167.3,132.9,168.6z"/>
<path class="st3" d="M271.1,97.7c2.3-0.3,4.6-1,6.8-1.6c1.5-0.4,3.8-1.4,3-3.4c-0.3-0.7-1-1.1-1.7-1.2c1.1-0.4,2.6,0.2,3.2-0.9
	c0.3-0.6,0.2-1.3-0.2-1.8c-0.6-0.6-1.5-0.6-2.3-0.6c-1.4,0.1-2.8,0.4-4.2,0.7c-3.3,0.9-6.8,2.2-8.8,5.2
	C265.5,97.1,268.7,98.2,271.1,97.7z"/>
<path class="st3" d="M282.4,92.8c1.2-0.3,3-1.5,1.8-2.8c-0.9-0.8-2.1-0.4-3-0.1C279.3,90.7,280.5,93.5,282.4,92.8z"/>
<path class="st3" d="M302.4,67.4C302.4,67.3,302.4,67.3,302.4,67.4c0-0.4,0-0.7-0.1-1c0,0,0-0.1,0-0.1
	C302.3,66.6,302.2,67,302.4,67.4C302.3,67.4,302.3,67.4,302.4,67.4z M299.2,68.4c-0.9-5.6,3.3-10.4,6.6-14.5
	c0.3-0.4,0.6-0.7,0.9-1.1c1-1.1,2.9-0.8,3.5,0.6c0.5,1.3,0.3,2.8,0,4.2c-0.4,2.8-1.3,5.4-2.6,7.9c-0.6,1.4-1,3.4-2.7,3.7
	c-0.6,0.7-1.2,1.3-2,1.7C301.1,71.8,299.4,70.1,299.2,68.4z"/>
<path class="st3" d="M196.4,28.5c-1.4,5.4,0.3,10.9,3.8,15.1c2.9,4.2,5.6,4.2,9.6,1.4c4-2.7,8.5-5.4,11.9-8.9c1.1-1,2.4-1.3,3.5-2.3
	c1.3-1,2.8-3.2,1.1-4.5c-2.7-4.8-6.2-10-12-11c-0.4-0.1-0.8-0.1-1.2-0.2c0.1-3.1-6.5-1.7-8.2-1c-1.3,0.4-1.5,1.8-0.9,2.6
	C200.4,21.5,197.4,24.5,196.4,28.5z"/>
<path class="st3" d="M135.1,68.8c-1,3-1.5,6.4-0.4,9.5c1.3,3.6,4.4,8.9,9,7.1c0.3-0.2,0.6-0.3,0.9-0.5c3.3-1.9,6.2-4.4,9.4-6.5
	c3.4-2.4,6-5.7,9.4-8.1c1.9-1.8,4.2-3,5.3-5.3c0.1-0.1,0.1-0.3,0.2-0.4c0.5-1.5-1.2-2.9-2.6-2.2c-4.7-4.4-10.4-7.7-17.1-6.1
	c-4.1,0.7-7.6,3.1-10.6,5.8C136.7,63.9,135.9,66.4,135.1,68.8z"/>
<path class="st4" d="M127.9,169.3c-2.2,2.2,0.8,3.6,2.4,4.7c5.5,3.5,10.3,7.9,16.2,10.6c2.5,0.9,4.8,2.9,7.5,2.6
	c2-0.3,3.6-1.5,5.6-1.9c4.6-0.9,9.8-1.1,13.3,2.5c2,1.8,3.7,3.9,4.9,6.3c0.6,1.2,1.1,2.9,1.9,4c0.8,1,1.8,1.7,3.3,1.2
	c1.1-0.3,2.1-0.7,3.2-1.2c1.9-0.8,3.8-1.6,5.9-1.9c0.6-0.1,1.4-0.4,2,0c0.8,0.9,1.5,1.9,2,2.9c1.9,3.4,2.8,7.4,4.7,10.8
	c1.2,1.9,2.9,1.5,4.6,0.5c0.8-0.5,1.6-1,2.3-1.5c0.3-0.2,0.6-0.4,0.9-0.6c1.1-0.8,2.2-1.6,3.3-2.4c1.1-0.9,2.3-1.7,3.6-2.3
	c1.5-0.4,3.2,0.1,4.7,0.5c2.8,0.9,4.4,3.2,5.7,5.8c0.8,1.5,1.4,3,2.2,4.3c0.6,1.1,1.8,1.5,2.8,1.1c0.6-0.2,1-0.7,1.3-1.4
	c0.6-1.5,1.7-2.6,2.7-3.8c0,0,0.1-0.1,0.1-0.1c2.2-2.7,3.8-5.3,5.6-8.2c1-1.8,2.3-3.6,2.6-5.7c0.1-0.5,0.1-1.1,0-1.7
	c-0.2-2.7-1.3-5.3-2.2-7.8c-1.1-3.4-2.3-6.7-3.8-9.9c-0.2-0.5-0.4-1-0.6-1.5c-0.2-0.6-0.5-1.2-0.7-1.8c-2-4.8-4.2-9.4-5.7-14.3
	c-0.8-1.7-1.1-5.7-3.7-5c-1.4,0.3-2.5,1.6-3.8,2.2c-2.3,1-4.8,0.9-7.2,0.8c-3.6-0.5-7.3-1.5-10.2-3.8c-3.4-2.6-4.7,1.8-6.1,4.1
	c-1.8,3.5-4.4,7-8.1,8.5c-2.3,0.8-4.7,0.4-7-0.3c-1.2-0.3-2.3-0.7-3.5-1c-3.3-0.9-6.1-1.7-9.1-3.2c-0.4-0.2-0.7-0.3-1-0.5
	c-3.8-1.5-4.9,0.5-7,4c-2.4,3.5-5.4,6.4-8.3,9.4c-3.2,3-8.1,1.3-11.8,0.3c-0.5-0.1-1.3-0.4-2.2-0.8c-2.2-1-5.4-2.7-8.1-3.8
	C130.7,169.2,128.7,168.6,127.9,169.3z"/>
<path class="st3" d="M171,60.9c-0.1,0.1-0.1,0.1-0.2,0.2c-3.9-10-16.1-12.8-25.8-11.4c-5.4,1.2-9.4,5.5-13.5,9
	c-6.3,4-9.7,10.7-14.1,16.5c-5.3,6-10,12.4-14,19.3c-3,4.7-6.2,9.4-8,14.8c15.9-6.1,31.6-13.6,45-24.3
	C151.2,77.7,161.6,70.1,171,60.9z M93.9,113.5c-8.1,0,3-16.3,5-19.6c3.6-5.6,6.6-11.8,11.4-16.6c6.6-7.2,10.7-16.4,18.9-22
	c5.1-4.7,10.6-10.4,18-10.4c10.9-0.7,26.5,4.6,27.5,16.9c0.4,3.4-6.2,6.7-8.3,9.4c-6.5,5.7-13.4,10.9-20.9,15.2
	c-9.1,7.3-19,13.4-29.5,18.5c-7.1,2.6-13.6,6.9-21.1,8.5C94.6,113.5,94.2,113.5,93.9,113.5z"/>
<path class="st3" d="M208.1,12.4c-3.2,0-6.4,0.9-9.8,2.9c-4.8,3.4-7.2,9.1-10.2,14c-2.1,4.1-3.1,8.5-3.6,13.1
	c-0.6,4.3-1.1,8.8,0.1,13.1c3-1.7,6-3.1,9.2-4.5c9.6-4,19.2-9.1,27.4-15.6c3.5-3.4,6.9-6.9,11.1-9.5c-1.1-2.4-3.3-4-5.2-5.8
	c-2.7-2.5-5.6-4.6-9.2-5.7C214.4,13.3,211.2,12.4,208.1,12.4z M183.1,60.5c-3.2,0-3.1-6-3.5-8.4c-0.4-4,0.2-8.1,0.7-12.1
	c0.6-5.7,2.5-11.3,5.6-16.2c4.3-7.6,8-13.2,16.9-15.5c5.7-1.8,11.7-0.2,17.1,1.9c3.9,1.2,7.1,3.6,10,6.4c3.1,3,9.5,7.8,5.8,12.4
	c-1.8,1.6-3.9,2.7-5.6,4.3c-2.8,2.6-5.3,5.6-8.5,7.8c-3.1,2.3-6.4,4.2-9.8,6.2c-5.1,3.2-10.6,5.4-16.1,7.7c-1.8,0.7-3.6,1.4-5.3,2.2
	c-1.7,0.6-3.4,1.8-5.3,2c-0.2,0.6-0.7,1.1-1.4,1.3C183.4,60.5,183.3,60.5,183.1,60.5z"/>
<path class="st3" d="M203.9,49.4c2.3-2-0.9-4.5-1.9-6.2c-2-2.7-3.3-5.9-3.4-9.3c-0.1-2.5-0.2-5.2,0.9-7.5c1.9-3.5,5-6.3,8.7-7.9
	c3.8-1.5,7.3,1.3,10.5,3.1c2.5,1.6,4.6,3.9,6.3,6.3c0.7,0.8,0.9,2.1,2,2.6c0.8,0.4,1.7,0,2.1-0.7c1-2-1.2-4.3-2.1-5.9
	c-2.2-3.1-5.2-5.5-8.6-7.3c-3.3-2-7.2-3.6-11-2.2c-4.5,1.5-8.3,5-10.9,8.9c-2.9,4.8-2.4,11-1,16.2c0.8,2.4,2.2,4.6,3.6,6.7
	c0.9,1.3,2.1,3.6,3.8,3.6C203,49.8,203.4,49.7,203.9,49.4z"/>
<path class="st3" d="M138.8,87.4c2.6-1.7-0.5-5-1.3-7c-1.2-2.2-2-4.6-1.8-7.1c0.7-5.8,4.1-11.4,9.5-14c4.6-2.1,8.8-3.1,13.4-0.4
	c2.7,1.4,5.4,2.9,7.5,5.1c0.4,0.3,0.4,0.8,0.8,1.2c0.8,0.9,2.3,0.3,2.7-0.8c0.9-3.3-5.7-6.9-8.1-8.4c-5.7-3.6-11.1-3.7-17.2-0.9
	c-10,4.1-16.2,17.2-10.8,27.1c1,1.8,1.9,5.5,4.2,5.5C138,87.6,138.4,87.6,138.8,87.4z"/>
<path class="st3" d="M215.1,65.2c3.6-1.3,7.3-2.4,10.5-4.7c8.1-6.1,15.1-17,13.9-27.5c-0.3-2.2-0.3-8.3-3.6-7.8
	c-1.3,0.3-1.4,1.8-1.1,3c0.3,1.3,0.4,2.6,0.5,4c0.5,4.4-0.6,8.8-2.6,12.8c-4.7,8.2-9.3,13.1-18.5,15.8c-7.2,2.5-14.6,4.8-22.3,4.8
	c-1.8-0.1-4.5-1.3-5.3,1.1c-0.6,3.6,4.6,3.2,6.9,3.3C200.9,69.6,208.2,67.7,215.1,65.2z"/>
<path class="st3" d="M98.5,122.9c6.7-0.5,13.2-2.3,19.8-3.4c5.3-1.4,10.8-2.4,16.1-4c5.4-1.5,10.2-4.4,15-7c3.7-2,6.8-4.8,10.5-6.8
	c4-2.2,8.4-4,11.4-7.6c5.4-7.3,6.1-17,4.7-25.7c-0.5-2.2-0.9-8-4.3-6.3c-0.8,0.5-0.8,1.5-0.3,2.2c0.8,3.2,1.1,6.5,1.2,9.8
	c0,6.2-1.1,12.4-4.9,17.4c-2.8,2.9-6.6,4.4-10.1,6.4c-2.4,1.4-4.6,3-6.9,4.6c-5,3.2-10.3,6-15.9,8.3c-4.7,1.6-9.6,2.4-14.4,3.7
	c-4.2,1.2-8.1,1.7-12.3,2.7c-3.3,0.6-6.7,1.1-10,1.8c-1,0.1-1.7,1-1.7,2C96.5,122,97.4,122.9,98.5,122.9
	C98.5,122.9,98.5,122.9,98.5,122.9z"/>
<path class="st3" d="M106.8,139.9c1.8-0.4,2.5-2.6,4-3.6c3.8-3,7.3-6.3,10.8-9.7c1.6-1.4,3.2-2.8,5-4c3.3-2,6.9-3.5,10.1-5.6
	c2-1.5,7.7-4.5,7.1-7c-0.2-0.8-1.1-1.2-1.9-1c-2.3,1.2-4.4,3-6.7,4.2c-3.4,2.2-7.7,3.7-11,5.9c-4.3,2.8-7.8,6.6-11.5,10.1
	c-1.9,2.1-11,7.4-7.5,10.4c0.4,0.3,0.9,0.4,1.3,0.4C106.6,139.9,106.7,139.9,106.8,139.9z"/>
<path class="st3" d="M171.5,55.5c-0.1-5.5-0.1-11.5,0.2-16.9c0.3-5,0.6-10.2,2.9-14.7c1.4-2.8,3.5-5.1,5.4-7.5
	c3-4.2,6.2-8.7,11.5-10.1c3.1-1,6.4-1.7,9.7-1.6c1.8,0.2,3.5,0.7,5.2,1.1c3,0.7,5.9,1.6,8.1,3.8c0.9,0.8,1.8,1.6,2.4,2.6
	c0.3,0.6,0.9,0.8,1.5,0.7c3.6-1.7-4.2-8.3-6.2-8.8c-4.9-1.7-10.1-3.6-15.3-2.8c-5.2,0.8-10.8,2.1-14.5,6c-2.4,2.4-4.2,5.4-6.4,8
	c-2.2,2.7-4.4,5.4-5.7,8.7c-1.6,4-2.2,8.8-2.4,13c-0.5,6.2-0.4,12.5-0.5,18.7c0,1.3,1,2,2,2C170.5,57.5,171.5,56.9,171.5,55.5z"/>
<path class="st3" d="M84.7,118.1c0.5-7.7,1.1-15.4,3.3-22.8c1.2-3.1,2.6-6.5,4-9.4c2.9-6.1,7.1-11.5,10.2-17.5
	c1.3-2.4,2.6-4.8,4.4-6.8c2.6-2.8,5.7-5,8.2-7.9c2.4-2.5,4.3-5.4,7.1-7.5c2.7-1.6,5.6-2.8,8.6-3.4c2.7-0.5,5.5-1,8.3-0.9
	c4.7,0.5,9.3,2,13.3,4.3c1.4,0.7,2.8,1.2,4.2,1.9c0.6,0.7,1.7,0.9,2.4,0.1c1.4-2.4-2.1-3.6-3.7-4.4c-3.1-1.6-6.1-3.6-9.6-4.3
	c-8.4-2.5-18-1.1-25.5,3.4c-3.9,2.6-6.4,6.7-9.7,9.9c-3.2,3.1-6.9,5.7-9.3,9.6c-1.8,2.9-3.2,6-5,8.9c-5.4,8.1-10.1,16.8-12.6,26.3
	c-1.5,6.6-2.3,13.6-2.7,20.3c0,1.3,1,1.9,2,1.9C83.6,119.8,84.5,119.2,84.7,118.1z"/>
<path class="st3" d="M164.2,47.7c0.1-7,0.8-14,2-20.9C168.6,15.7,170.5,7,183,4c2.2-0.5,4.5-0.2,6.7,0.2c1.1,0.4,3,0.7,3.1-1
	c-0.2-1.9-2.7-1.9-4.1-2.2c-6.3-1.2-12.9,1.3-17.5,5.5c-3.7,3.3-5.5,8.1-6.6,12.8c-1.3,4.6-2.2,9.2-2.7,13.9
	c-0.7,4.8-1.3,9.6-1.2,14.5c0.1,1,0.9,1.5,1.7,1.5C163.3,49.2,164.1,48.7,164.2,47.7z"/>
<path class="st3" d="M74.2,118.8c0.9-6.8,2.4-13.9,4.7-20.2c1.7-4.6,4-9,6-13.6c1.8-4.1,3.3-8.4,5.2-12.5c1.8-3.6,4.5-6.9,7.1-9.9
	c3.1-3.1,6-6.5,9.2-9.6c4.2-3.5,9-6.5,14.3-7.9c0.5-0.1,1.1-0.1,1.5-0.5c0.7-0.5,0.7-1.7,0-2.2c-1.6-1-3.5-0.1-5.2,0.3
	c-7.1,2.5-13.5,7-18.3,12.8c-4,4.1-8,8.2-10.9,13.2c-2.5,4.3-4.1,9.1-6,13.7c-1.9,4.5-4.3,8.9-6.1,13.4c-2.3,6-3.9,12.3-4.9,18.7
	c-0.1,2-1.7,5.3,1.1,5.9c0.1,0,0.2,0,0.3,0C73.2,120.5,74,119.8,74.2,118.8z"/>
<path class="st3" d="M46.8,134.3c1.1-0.1,2-1.2,1.8-2.3c-0.3-1.8-0.9-3.5-1.4-5.3c-1.7-6.9-4.3-13.6-4.8-20.7
	c-0.4-7.6,1.3-15.2,3-22.5c0.8-2.6,1-5.2,1.5-7.9c1.2-4.6,2.6-9.1,4.8-13.2c2.3-4.6,6.7-7.5,10.7-10.4c3-2.1,5.3-4.3,8.4-5.8
	c2.4-1.1,4.8-1.9,7.2-3c4-1.9,8-3.4,12.3-4.4c2.7-0.7,5.3-1.6,8.1-1.8c6-0.3,11.9,1.1,17.5,2.9c3.1,0.9,6.3,1.5,9.2,2.7
	c0.6,0.4,1.3,0.5,2,0c1.9-1.8-1-3.4-2.6-3.9c-2.7-1-5.5-1.7-8.2-2.5c-5.2-1.8-10.5-3.2-16-3.2c-3.8-0.2-7.4,1-11,2
	c-7.2,1.7-13.8,5-20.5,7.8c-3.3,1.6-5.9,4.2-9,6.3c-6.4,4.3-11.1,8.9-13.7,16.3c-1.2,3.3-2.3,6.7-3.1,10.2c-0.5,3.3-1.3,6.8-2.1,10
	c-2.7,11.1-4,20.8-0.6,32c1,3.4,1.8,6.8,2.7,10.2c0.4,1.7,0.8,3.3,1.4,5c0.2,1,1,2,2.1,2C46.5,134.4,46.6,134.4,46.8,134.3z"/>
<path class="st3" d="M123.9,34.9c2.8-1,0.2-5.3,0.4-7.5c-0.1-2.6,0.2-5.3,1-7.8c2.9-8.6,10.7-11.9,18.7-14.5c4.1-1.6,8.7-1.4,13-1.2
	c3.8,0.2,7.4,1.1,11.1,2.1c1.9,0.3,5.3,2.2,6.8,0.6c0.5-0.7,0.3-1.7-0.4-2.2c-0.9-0.4-2-0.6-2.9-0.9c-4.2-1.4-8.4-2.8-12.8-3.2
	c-4.5-0.4-9.1-0.7-13.6,0.3c-2.5,0.7-5,1.7-7.5,2.6c-8.6,2.8-15.7,9.6-17,18.8c-0.5,2.3-0.8,13,2.7,13
	C123.6,35,123.8,34.9,123.9,34.9z"/>
<path class="st3" d="M113.7,37.9c5.7-1.9,11.5-3.2,17.5-3.9c3.2-0.2,6.5,0.1,9.7-0.3c2.4-0.4,2.2-4-0.3-4c-4.6,0.5-9.4,0.3-14,1.5
	c-3.4,0.7-6.8,1.3-10.1,2.4c-1.4,0.5-3.1,1-4,2.3c-0.7,0.8-0.1,2.2,0.9,2.2C113.6,37.9,113.6,37.9,113.7,37.9z"/>
<path class="st3" d="M138.3,131.7c3.5-6.6,6.7-13.3,10.6-19.7c0.6-1.3,2.3-2.6,1.7-4.2c-0.4-1-1.8-1.3-2.7-0.5
	c-0.3,0.2-0.6,0.5-0.7,0.9c-0.4,0.5-0.8,1-1.1,1.5c-4.2,6.4-7.7,13.2-11.4,19.9c-0.9,1.7,0.5,3.2,1.9,3.2
	C137.2,132.8,137.8,132.5,138.3,131.7z"/>
<path class="st3" d="M126.8,170.9c1.7-0.5,3.9-1.6,5.4-2.1c6.4-1.9,13-2.8,19.4-4.7c6-1.7,12.1-2.9,18.3-4.1
	c6.3-1.5,12.6-3.1,18.9-4.6c4-0.9,8-2.2,11.8-3.7c3.3-1.1,6.7-1.8,10-2.8c3.5-1.1,6.9-2.6,10.3-3.8c6.3-2.2,12.7-4.1,19-6.3
	c3.1-1.1,6-2.6,9.1-3.6c3.2-1,6.5-1.9,9.6-3c3.2-1.1,6.2-2.6,9.4-3.8c4.2-1.4,8.4-2.5,12.5-4.2c4.1-1.7,8.1-3.5,12.2-5
	c4.4-1.5,9-2.3,13.1-4.6c5.1-2.8,10.5-5,15.4-8.1c7.6-4.4,12.8-6.9,15.1-16.2c1-3,0.8-6.2,0.5-9.3c-0.3-6.7-2.4-13.2-4-19.7
	c-2.3-8.6-5.2-17.5-11.6-23.9c-9.7-11-21.8-9.1-34.9-7.9c-3.3,0.2-6.7,0.5-10,0.8c-4.4,0.2-8.8,0.3-13.1,1.2
	c-8.4,1.7-16.9,3.6-25.1,6.2c-1.9,0.7-2.6,3.7-0.1,4c7.7-2.2,15.7-3.9,23.5-5.5c7.3-1.6,15-1.3,22.4-2.1c8.1-0.2,16.6-2.3,24.6,0.1
	c13,4.3,18,18.6,20.9,30.7c1.9,6.9,3.5,14,3.3,21.2c-0.6,3.8-1.8,8-4.8,10.6c-2.8,2.3-6,4-9,5.8c-3.7,2.3-7.5,4.2-11.4,6
	c-2.6,1.4-5.2,3-8,3.9c-6.3,1.8-12.4,4-18.4,6.7c-5,2.4-10.4,3.7-15.6,5.5c-3,1.1-5.9,2.6-9,3.7c-3.3,1.1-6.7,2-10,3.2
	c-11.7,5.1-24.1,8.1-35.9,12.9c-2.6,0.9-5.2,1.5-7.9,2.2c-4.6,1.4-9.1,3.4-13.8,4.4c-6.3,1.6-12.7,2.9-19,4.5
	c-10.1,1.6-20,4.4-29.9,6.7c-4.1,0.8-8.3,1.7-12.2,3.4c-1.7,0.6-4.3,1.5-3.4,3.8c0.3,0.8,1.2,1.3,2,1.3
	C126.4,171,126.6,171,126.8,170.9z"/>
<path class="st3" d="M240.1,226.7c5.4-0.7,10.1-4.1,13.9-7.9c4.8-4.9,7.6-11.5,5.7-18.3c-0.7-2.5-4.5-1.7-4.2,0.9
	c0.7,3.1,0.8,6.4-0.8,9.3c-2.8,5-7.3,9-12.6,11.1c-2.9,0.9-6,0.9-9.1,0.7c-3.8-0.3-7.7-0.5-11.5-1.2c-4.3-0.9-8.4-2.5-12.4-4.1
	c-5.2-1.8-10.3-4-15.3-6.5c-5.5-2.1-11.1-4.1-16.4-6.6c-2.9-1.5-5.6-3.4-8.5-4.9c-5-2.8-9.9-5.7-14.2-9.5c-3.9-3.7-8.2-6.9-12.7-9.7
	c-5.5-3.2-10.5-7-14.8-11.6c-1.4-1-3.2,0.6-2.5,2.1c0.6,1.3,1.6,2.3,2.6,3.4c4.3,4.5,9.5,7.7,14.7,11c5.5,3.5,9.9,8.4,15.2,12
	c6.2,4.2,12.7,8,19.3,11.5c5,2.3,10.3,4.2,15.5,6.2c8.3,4,17,7.3,25.8,10c3.6,1.1,7.4,1.4,11.2,1.7c2.4,0.2,4.8,0.5,7.2,0.5
	C237.4,227,238.8,226.9,240.1,226.7z"/>
<path class="st3" d="M153.5,177.4c5.8-2.5,7.9-9.1,11.9-13.6c2-1,7.3,1.9,9.5,2.6c5,1.9,11.3,3.9,16.2,0.9c4.6-3,7.7-7.6,10.5-12.3
	c5.2,1.1,10.2,4,15.6,3.8c9.7-0.8,15.1-10.1,20.9-16.8c3.7,1.2,7.2,3.2,11.1,3.7c4.2,0.7,9.1,0.7,12.4-2.4c3.2-3.4,4.8-8,7-12.1
	c5.5,2.6,16.1,8,22,6.7c7-2,11.1-12.2,13.6-18.5c0.7-2.4,2.4-5,1.4-7.5c-0.5-1-2-1.1-2.6-0.1c-1.1,4.4-3.3,8.6-5.2,12.8
	c-1.6,3.1-3.5,5.9-6.1,8.3c-3.3,2.6-7.6,0.2-11-0.7c-3.6-1.3-7.2-2.6-10.5-4.5c-3.6-2.6-4.8,0.8-6.2,3.6c-1.6,3-2.9,6.2-5,8.8
	c-1.8,1.9-4.6,1.9-7,1.8c-3.6-0.2-7.1-1.5-10.4-3c-3.6-1.8-5.5-1.5-7.9,1.8c-4.5,5.5-9.1,13.1-16.7,13.9c-4.3,0.1-8.3-1.9-12.4-3.1
	c-1.7-0.5-3.8-1.3-5.3,0c-1.8,1.6-2.7,4-4.1,6c-1.6,2.2-3.5,4.2-5.7,5.8c-3.8,2.7-9.3,0.7-14.5-1.3c-4.5-1.7-8.8-3.5-11.4-2.1
	c-2.4,1.5-3.9,4.5-5.4,6.7c-1,1.5-2.1,3-3.3,4.4c-1.1,1.2-2.4,2.5-4.1,2.6c-3.1,0-6.2-1.4-9.1-2.3c-2.9-1-5.8-2-8.4-3.7
	c-1.5-1-3.4-2.6-4.9-0.8c-1.8,2.8,2.3,4.3,4.2,5.3c1.6,0.8,3.3,1.5,5,2.1c2.5,0.9,5,1.8,7.5,2.5c1.7,0.6,3.6,1.1,5.4,1.1
	C151.5,178,152.5,177.8,153.5,177.4z"/>
<path class="st3" d="M257.1,198.3c3.3-5.6,8.1-16.6-0.3-19.9c-2.1-0.7-4.3-0.6-6.5-0.5c-1.1,0-2.2,0.1-3.3,0
	c1-5.2,3.7-10.1,3.5-15.5c-0.8-8.6-12.2-5-17.9-4.5c-1.4,0-2.8,1.4-1.8,2.7c1.3,1.4,3.6,0.6,5.3,0.5c2.8-0.3,5.7-0.9,8.5-0.5
	c3.9,0.3,0.7,7.6,0.2,10c-0.5,1.6-1,3.3-1.5,4.9c-0.4,1.6-1.3,3.5-0.1,5c1.8,1.7,4.4,1.6,7,1.4c1.9-0.1,3.7-0.3,5.3,0.3
	c2.1,0.8,1.6,3.7,1.4,5.5c-0.6,3.2-2.7,5.8-3.6,8.9c-0.2,1.4,1,2.3,2.2,2.3C256.1,199,256.7,198.8,257.1,198.3z"/>
<path class="st3" d="M232.4,217.8c0.8-0.3,1.3-1,1.7-1.7c1.2-1.8,2.2-3.7,3.2-5.5c1.9-3.5,3.7-7.1,5.4-10.8c0.8-1.3,2.5-5.4,4.3-4.8
	c3.3,1.7,5.5,4.7,7.7,7.6c0.8,1.2,1.7,2.5,1.8,4c0.2,1.7,2.3,1.5,2.8,0.1c1.4-3.5-4.3-9.6-6.6-12.1c-8.6-8.8-12.5,1-15.9,8.3
	c-1.8,3.5-3.7,7.1-5.8,10.5c-3.3-3.7-6.4-11.5-11.8-11.9c-6,0.3-10.5,5-15.2,8.1c-3-3.8-3.6-9-6.7-12.8c-4.1-4.2-11.2,0.6-16.1,1.1
	c-3-5.8-4.8-14.6-12.6-15.2c-2.3-0.2-4.6,0.2-6.9,0.6c-3.9,0.7-7.9,1.4-11.4,3.3c-2.5,1.5-0.6,5.2,2.1,4.2c0.9-0.4,1.9-0.9,2.8-1.2
	c3.8-1.2,7.7-2,11.7-2.4c6.9-0.7,8,7.9,10.6,12.5c0.8,1.8,2.8,3,4.8,2.5c2.5-0.5,5-1.3,7.5-2c1.4-0.3,3.2-1.3,4.6-0.6
	c2.7,3.5,3.6,8.1,6.1,11.8c3.4,6,8.4-0.6,12-2.8c2-1.2,5.4-4,7.8-2.7c3.4,2.7,5.2,6.7,7.8,10c0.8,1.1,2,2.2,3.4,2.2
	C231.6,218,232,218,232.4,217.8z"/>
<path class="st3" d="M244.1,195.5c1-0.3,1.6-1.3,1.3-2.3c-0.5-1.6-1.2-3.2-1.7-4.8c-1.5-4.5-2.9-9-4.7-13.4
	c-2.1-5.3-4.9-10.3-6.3-15.8c-0.7-1.2-2.5-0.8-3,0.4c-0.4,1,0,2.2,0.4,3.2c1.6,4.6,3.8,9.1,5.5,13.7c1.8,4.7,3.3,9.4,4.9,14.2
	c0.8,1.6,0.9,4.9,3.1,4.9C243.7,195.6,243.9,195.6,244.1,195.5z"/>
<path class="st3" d="M232.1,161.3c2.3-1.1-0.3-4.5-0.9-6.1c-0.6-1.4-1.9-3.7-3.8-2.6c-0.4,0.2-0.8,0.6-0.8,1.2
	c0,0.9,0.9,1.1,1.2,1.8c1,1.5,1.6,5.8,3.7,5.8C231.7,161.4,231.9,161.4,232.1,161.3z"/>
<path class="st3" d="M222.5,249.1c10-0.7,19.7-3.6,28.6-8.1c4.9-2.3,9.3-5.6,12.5-10c5.4-7.6,11.3-20.2,10-29.6
	c-0.6-4.7-2.5-9-4-13.4c-2.6-6.9-5.1-13.8-8.5-20.4c-2.2-4.3-5.3-7.9-8.6-11.4c-4.6-4.9-9.4-9.7-13.9-14.7c-0.3-0.3-0.5-0.6-0.9-0.8
	c-0.8-0.4-1.7-0.1-2.1,0.7c-0.6,1.7,1.5,3.1,2.4,4.4c3.9,4.7,8.3,8.9,12.4,13.5c4.1,4.6,7.5,9.5,9.6,15.3c2.5,6.5,5.1,13,7.3,19.6
	c1.3,3.7,2.4,7.5,2.2,11.5c-1.2,9.5-6.2,20.4-13.2,26.9c-1.9,1.7-4.6,3.2-6.7,4.2c-7.9,3.9-16.4,6.8-25.2,7.7
	c-7.5,0.8-15,1.1-22.4,0.5c-7.6-0.7-15.1-2.1-22.6-3.2c-18.2-2.7-36.3-5.5-54.3-9.6c-9.9-1.5-19.4-4.4-28.8-7.7
	c-5.6-1.6-11-3.7-16.3-6.2c-3.2-1.4-6.5-2.7-9.4-4.2c-4.8-2.5-9.1-6-13.6-8.9c-6-4-12-8.2-15.9-14.4c-6-8.2-11.7-17.6-11.5-28.1
	c0.3-3.6,1.8-7,3.1-10.3c1.6-4.2,3.9-8.2,6.9-11.5c1.7-2,3.7-3.8,5.7-5.5c1.4-1,3.3-2.6,2-4.4c-0.7-0.9-1.9-1.1-2.9-0.6
	c-0.9,0.5-1.6,1.3-2.3,1.9c-2.6,2.2-5,4.6-7.1,7.2c-3,3.7-5,8-6.6,12.4c-1.3,3.4-2.7,6.9-2.9,10.6c-0.1,5.1,1,10.2,2.9,14.9
	c1.8,4.7,4.3,9.1,7.3,13.3c4,6.5,9.3,12,15.7,16c5,3.2,9.8,6.9,14.9,10c6.8,3.6,13.9,6.4,20.9,9.4c10,3,19.7,6.9,30,8.9
	c14.9,2.8,29.8,6.3,44.8,8.4c12.5,1.9,25,3.9,37.5,5.7c3.4,0.3,6.8,0.5,10.2,0.5C213.9,249.7,218.2,249.5,222.5,249.1z"/>
<path class="st3" d="M279.7,90.7c-4,0-10,2.3-11.9,5.7c0,0,0,0,0,0c0.1,0,0.2,0,0.3,0c4.7-0.3,10.2-1.5,13.5-5.1
	c-0.2,0-0.5-0.1-0.7-0.2c-0.2-0.1-0.3-0.3-0.4-0.4C280.2,90.7,280,90.7,279.7,90.7z M268.4,100.4c-6.1,0-5.6-6.2-1.2-9.3
	c4-2.9,11.3-5.7,16.1-3.7c1.7,0,2.9,1.6,2.7,3.3c-1,6.7-11.1,9.2-16.9,9.7C268.9,100.4,268.7,100.4,268.4,100.4z"/>
<path class="st3" d="M308.7,55.4c-4,2.7-6.9,8.5-5.8,13.3c3.8-2.4,7.6-8.3,6.4-12.9C309,55.8,308.8,55.6,308.7,55.4z M302.5,72.7
	c-2.5,0-3.8-2.9-3.6-6.2c0.1-2.7,0.9-5.4,2.1-7.8c1.3-2.6,7.4-10.7,9.9-5.7c1.9,0.6,2.2,3,2.3,4.7c-0.1,5.3-3.2,10.5-7.4,13.6
	C304.5,72.2,303.4,72.7,302.5,72.7z"/>
<path class="st3" d="M42.2,88.3c0.9-1.5-0.6-2.8-1.9-3.5c-2.5-1.5-5.1-2.7-7.8-3.9c-3.6-1.5-7.1-3.3-10.7-4.6
	c-1.1-0.4-2.2-0.7-3.4-0.9c0.9,1.8,1.8,3.6,2.7,5.4c1.4,0.5,2.7,1,4,1.6c4.6,2,9.3,3.8,13.9,6.1c0.5,0.4,1.2,0.6,1.8,0.6
	C41.3,89.1,41.9,88.9,42.2,88.3z"/>
<path class="st3" d="M10.2,73.9C6.8,73.5,3.4,73,0,72.5v4.6c2.2,0.3,4.5,0.5,6.7,0.8c0.2-0.2,0.4-0.5,0.6-0.7
	c1.1-1.2,2.2-2.3,3.5-3.3C10.6,73.9,10.4,73.9,10.2,73.9z"/>
<path class="st3" d="M76.9,314.3c1.2-0.1,2.2-1,2.7-2.1c0.9-1.7,1.6-3.4,2.4-5.2c1.7-4.5,2.3-9.3,3.4-14c4.1,1.7,7.3,5.1,11,7.4
	c2,1.2,4.8,0.6,5.5-1.7c0.7-2.1,0.3-4.4,0-6.6c-0.8-5.3-3.1-10.2-4.8-15.1c5.6-0.3,14.7,0.3,18.5-4.6c1-1.3,0.9-3.2-0.2-4.5
	c-3.4-3.1-8.3-3.5-12.3-5.6c-3.9-2-7.5-4-11.5-5.8c-2.8-1.2-5.7-1.9-8.5-3.1c-2.7-1.2-5.3-2.5-8-3.8c-8.5-4.1-11.1-14.2-13.4-22.6
	c-0.3-1.1-0.7-2.6-2-2.7c-1-0.1-1.8,0.7-1.7,1.7c0.8,3.7,1.5,7.6,2.9,11.1c1.9,5.6,4.7,11.4,9.9,14.7c5,3,10.3,5.5,15.8,7.3
	c5.9,2,11,5.4,16.6,7.9c2.8,1.2,5.8,1.8,8.4,3.4c-4.6,2.7-10.3,2-15.4,2.4c-5.1,0.6-4.2,3.8-2.7,7.5c2,5.2,3.9,10.3,4.1,15.8
	c-22.6-17.5-13.4-2.5-21.5,13.1c-2-2.6-3.4-5.6-4.6-8.7c-1.2-3.8-2.6-7.9-5.9-10.3c-3-2.5-6.7-3.9-10-5.9c-2.9-1.6-5.6-3.4-8.3-5.1
	c-6.5-4-10.6-8.8-13.9-15.6c-6.4-13.9-12.7-29.5-12-44.9c0.3-3.4,1-6.8,1.9-10.1c0.3-2.2,2.6-5.9-0.4-7c-2.6-0.6-3,2.5-3.4,4.4
	c-0.6,2.9-1.2,5.7-1.7,8.6c-1.8,11.8,1.5,23.7,5,34.8c3.4,9.2,6.6,19,13,26.5c7.2,7.5,17.1,12.1,26,17c2.5,1.5,4.1,3.9,4.9,6.6
	c1.3,3.8,2.6,7.5,4.8,10.9c1.2,1.7,2.6,4,4.9,4C76.7,314.3,76.8,314.3,76.9,314.3z"/>
<path class="st3" d="M88,258.6c2.5-0.8,5.1-1.4,7.6-2.2c2.9-1,6.2-2.4,9-3.3c6.9-2.1,13.6-4.7,19.4-9c1.9-1.5,7.5-4.6,7.3-7.2
	c-0.1-1.1-1.6-1.7-2.5-1c-0.4,0.3-0.7,0.6-1.1,0.9c-1,0.9-2.1,1.6-3.2,2.4c-4.7,3.3-9.6,6.2-14.9,8.1c-3.6,1.2-7,2.3-10.5,3.5
	c-2.8,1.1-5.7,2.2-8.6,2.9c-1.7,0.5-3.7,0.5-5.2,1.7c-1.4,1.6-0.1,3.4,1.6,3.4C87.2,258.8,87.6,258.8,88,258.6z"/>
<path class="st3" d="M54.7,287.2c-0.9,1.1-0.8,2.8-1.3,4.1c-2.9,11.4-7.7,15.3-15.2,23.3c-3.5,4.1-6.4,8.9-11.1,11.8
	c-3.1,2-6.4,3.7-9.5,5.7c-2.5,1.6-4.7,3.6-7.1,5.3c-3.4,2.4-6.9,4.6-10.5,6.6v5.4c2.3-1.1,4.6-2.6,6.8-3.9c4.8-2.8,9-6.4,13.5-9.6
	c4.8-3.2,10.3-5.6,14.3-9.9c2.9-2.9,5.1-6.6,7.8-9.6c2.6-2.9,5.5-5.6,7.8-8.7c4.1-5.3,6.5-12,7.4-18.5
	C57.9,287.5,56.4,285.8,54.7,287.2z"/>
<path class="st3" d="M152.7,303.1c4.7-0.9,8.1-10.6,9.6-14.8c2.6,2.8,5.8,5.5,8.6,7.9c1.5,1.3,2.9,2.6,4.5,3.8
	c3.2,2.5,6.6,1.5,7-2.7c0.7-5,0.3-10,0.7-15c4.4,1.6,16.9,7.8,20.2,2.9c1.4-2.4-0.3-5-1.4-7.1c-2.2-4-5.9-6.7-9.6-9.2
	c-5.1-3.1-10-6.9-15.6-9.1c-9.3-2.8-12.6-9-15.5-17.7c-0.8-2.6-4.1-1.7-3.3,1c1.4,5.9,4,11.6,8.5,15.7c2.7,2.4,6,3.7,9.3,4.9
	c3,1.2,5.7,2.8,8.3,4.5c6,4,13,7.3,15.5,14.5c-5.5,0-10.6-2.7-15.6-4.6c-5.4-2.2-5.2,4-5.3,7.6c-0.1,3.8,0,7.6-0.5,11.4
	c-2-1.2-3.7-3-5.5-4.5c-2.3-1.9-4.6-3.9-6.6-6.2c-0.9-0.9-1.6-2-2.6-2.7c-2.5-1.9-4.5,0.7-5.2,3.1c-1.5,4.2-3,8.7-6.1,12
	c-3.4-4.4-4.3-10.2-5.3-15.6c-2.2-12.3-15.9-16.4-22.4-25.9c-2.3-3.4-4-7.3-5.9-10.9c-0.5-1-1.8-1.2-2.8-0.7
	c-2.1,1.3-0.2,3.6,0.5,5.1c6.3,12.6,9.7,14.4,19.8,23.3c2.7,2.4,5.2,4.8,6.3,8.3c1.7,5,3.3,20.7,10.1,20.7
	C152.6,303.1,152.6,303.1,152.7,303.1z"/>
<path class="st3" d="M34.5,111.7c0.2-1.4-0.1-2.7-0.4-4c-0.7-3.4-1.5-6.7-2.4-10C30,90.1,26.6,82.9,22.9,76
	c-1.6-2.7-2.1-6.4-4.9-8.1c-4.6-1.7-8.9,2.3-12.1,5.1c-2.4,2.3-4.3,5-5.9,7.9v8.6c1.9-4.4,4-8.8,7.3-12.4c2.1-2.3,4.6-4.5,7.6-5.7
	c0.4-0.1,0.6-0.2,0.9-0.2c0.8,0,1.2,0.7,1.6,1.6c3,6.7,6.6,12.9,9.1,19.8c2,6,3.8,12.4,5.2,18.5c-4.1-0.5-7.5-1.6-11.4-2.2
	c-6.8-0.9-13.6-2.3-20.3-3.9v4.1c7.5,2,15.2,3,22.9,4.3c3.7,0.8,6.8,1.6,10.4,1.8c0,0,0.1,0,0.1,0c1.1,0,2-1,1.9-2
	C35.4,112.7,35,112.1,34.5,111.7z"/>
<path class="st3" d="M43,30.8c-6-4-13.5-5.4-20.6-6.5C15,23.6,7.5,22.5,0,22.8v4.6c6.3-0.4,12.6,0.2,18.9,0.9
	c5.3,0.4,10.6,1.3,15.7,3c3.9,1.2,7.7,3.1,9.2,7.2c0.7,1.4-0.8,2.2-1.9,2.5c-4.2,1.3-8.6,2.1-13,2.8c-3.9,0.5-7.7,1.5-11.4,2.6
	C11.9,47.8,6.3,49,1.2,51.7C0.8,52,0.4,52.2,0,52.4v4.5c1-0.7,2-1.3,3-1.8c4.4-2.2,9.1-3.5,13.8-4.5c2.8-0.6,5.5-1.5,8.3-2.1
	c5.6-0.9,11.3-1.5,16.8-3.3C50.9,43,48.7,35.5,43,30.8z"/>
</svg>
