<?xml version="1.0" encoding="utf-8"?>
<!-- Generator: Adobe Illustrator 27.9.2, SVG Export Plug-In . SVG Version: 6.00 Build 0)  -->
<svg version="1.1" id="Calque_1" xmlns="http://www.w3.org/2000/svg" xmlns:xlink="http://www.w3.org/1999/xlink" x="0px" y="0px"
	 viewBox="0 0 783.4 633.6" style="enable-background:new 0 0 783.4 633.6;" xml:space="preserve">
<style type="text/css">
	.st0{fill:#8664C2;}
	.st1{fill:#C3A3FC;}
	.st2{fill:#FFFFFF;}
	.st3{fill:#E9E2BD;}
	.st4{fill:#664441;}
	.st5{fill:#695A57;}
	.st6{fill:#423E3D;}
	.st7{fill:#272727;}
	.st8{fill:#EBE2BE;}
	.st9{fill:#2C2C2C;}
</style>
<g>
	<path class="st0" d="M411,369.9c0,2.4-2.1,3.9-3.8,5.2c-3.5,2.8-6.3,6.2-9.8,9c-1.4,0.9-1.2,2.7-1.1,4.1c0.2,2.4,0.5,4.8,0.8,7.2
		c0.2,2.3,0.2,4.6,0.2,6.9c0.6,0.4,1.3,0.4,2,0.7c1.6,0.9,1.3,3.1,1.4,4.7c0,1.6,0,3.1-0.1,4.6c-0.1,6.5,0.1,12.9,0.2,19.3
		c0.1,3.3,0.2,6.6-0.3,9.8c-0.7,3.6-0.4,7.2-0.2,10.9c0.5,0.1,0.9,0.6,0.9,1.3c-0.1,3.6-0.1,7.1-0.8,10.6c-0.6,2.9-0.9,6.1-2.9,8.4
		c-1.8,1.7-6.4,2.5-8.8,2.5c-4.7-0.4-9-2.7-12.6-5.6c-1.5-1.2-3.1-2.5-4.9-3.2c-4.3-1.9-8.6-3.5-13-5.2c-3-1-5.7-2.7-8.5-3.9
		c-3-1.4-6.3-2.2-9.6-2.6c-2.8-0.1-5.5-0.7-8.3-1.1c-1.6,0-3.1-0.2-4.7-0.1c-3.1,1.5-4.6,5-7,7.3c-0.6,3.7-1.6,7.5-1.7,8.8
		c-1.3,4.9-1.9,9.9-3.6,14.7c-5.2,16.6-7.5,30.3-27,34.7c-3.2,0.9-6.5,1.2-9.8,1.7c-6.5,1.2-12.9,2.7-19.5,2.3
		c-4.3-0.5-8.7,0.1-12.9-1c-3.5-0.5-6.7-1.8-9.9-2.9c-0.5-0.1-0.9-0.1-1.4-0.2c-1.5,0-3.1,0-4.6-0.2c-0.8-0.1-1.5-0.5-2-1
		c-0.5-0.3-0.8-0.9-0.9-1.6c-0.2-0.7-0.2-1.6-0.1-2.3c-23.3-4.1-47.1-6.2-69.5-13.8c-6.4-3.4-12.8-7.2-18.8-11.2
		c-3.3-2.7-6.4-5.5-10-7.7c-0.6,0.4-1.4,0.5-2.2,0c-4.1-2.4-6.5-6.7-9.5-10.2c-3.2-3.7-6.8-6.9-9.5-11c-1.3-1.4-7.4-14.7-2.1-12.1
		c-4.1-14.4-10.5-28.1-13.8-42.7c-3-14.4-1.2-29.4-1-44.1c0.4-14.8,2.4-29.4,4.2-44.1c0.7-5.5,0.8-10.5,0.8-16
		c0.3-5.2,1.2-10.4,1.1-15.6c0.2-2.4,0.2-4.9,0.3-7.4c-7.1-0.5-14.2-1.4-21.1-2.9c-3.2-0.8-6.4-1.8-9.5-2.9c-3.4-1.4-6.2-2.8-9.6-4
		c-3.2-1.4-6.4-2.8-9.7-3.9c-4.1-1.5-8.4-3-11.7-6c-4.4-4.4-10.3-6.9-14.6-11.4c-1.2-1.2-2.3-2.5-3.5-3.7c-2.5-2.5-5.7-5.2-5.5-9.1
		c0-0.2,0-0.3,0-0.5c-3.2-8.6-2.7-17.9-1.7-26.9c0.2-6.8,1.7-13.4,3.8-19.7c-1.4-1.6,1.5-6.1,2-7.8c0.8-2.1,1.6-4.3,2.4-6.4
		c0.3-0.8,0.5-1.7,0.8-2.5c-0.3-0.7-0.6-1.4-0.9-2.2c-0.4-1.1-0.8-2.2-1.3-3.2c-1.4-2.7-3.2-5.3-4.4-8.1c-1.8-3.9-3.6-7.9-5.1-11.9
		c-0.8-2.1-1.3-4.3-2.2-6.4c-0.9-2.3-1.3-4.8-1.8-7.2c-1.2-6.6-1-13.4-0.8-20.1c0.6-6.9,1.1-14,3.7-20.4c2.2-4.7,4.2-9.5,6.2-14.2
		c1.4-3.1,3.5-5.8,5.5-8.6c1.8-2.5,3.9-4.6,6.2-6.5c1.9-1.7,3.5-3.7,5.6-5.3c3.7-2.7,6.5-6.5,10.6-8.6c3-1.9,6.4-3,9.7-4.4
		c4.4-2,8.9-4,13.7-4.6c6-0.6,12.3-0.8,18.3,0c1.6,0.2,3.1,1.1,4.7,1.5c0.7,0.2,1.5,0.3,2.3,0.5c2.9,0.8,5.9,1.1,8.9,1.8
		c3.5,1,7,2,10.4,3.4c2.9,0.8,5.7,1.7,8.4,3c1.2-0.5,2.2-0.9,2.8-1.2c7.7-3.9,15.9-6.6,24.3-8.7c0-0.1,0-0.2,0-0.2
		c0.2-1.7,0.4-3.4,0.8-5.1c0.9-4.3,3.6-7.8,5.5-11.7c1.7-3.6,3.5-7.3,6.1-10.3c9.3-9.3,12.2-6,23.6-8.3c3.1-0.7,6.3-0.6,9.4-0.7
		c2.8-0.1,5.7,0.1,8.4,0.8c3.4,1.1,7.1,1.6,10.4,3.1c3.2,1.8,6.9,2.5,10,4.4c2.4,1.2,4.9,2.4,7.1,4.1c1.7,1.1,3.6,1.9,5.2,3.1
		c2.5,2.2,3.8,5.4,6.4,7.5c1.8,1.5,3.3,3.3,4.5,5.3c1.3,1.9,2.7,3.8,4.1,5.6c1.1-2.2,6.3,1.5,8.1,1.6c3.2,0.3,6.3-0.3,9.4-0.6
		c5-0.2,9.7,2.5,13.4,5.7c2.2,1.8,3.5,4.4,4.5,7c1,2.7,2.4,5.1,3.8,7.5c1,1.8,1.8,3.8,2.9,5.5c0.9,1.3,1.7,2.8,2.4,4.3
		c1.2,2.5,1.2,5.1,1.1,7.8c2.1-1.4,4.4-2.4,6.7-3.3c6.5-3,13.5-4.3,20.6-4.7c6.1-0.1,12.9-1.5,18.4,1.8c4.4,2.2,9,4,12.5,7.6
		c2.6,2.2,5.2,4.3,7.6,6.7c1.1,1.1,2.1,2.4,3.1,3.7c0.6,0.3,1.1,0.8,1.6,1.2c2.5,2.2,4.9,4.5,7.2,6.8c2.7,3.2,4.2,7.2,5.4,11.1
		c0.7,2.2,1.2,4.7,1.9,6.8c0.7,2.2,1.6,4.3,2.3,6.5c1.3,4.6,1.7,12.9-0.4,17.2c-1.6,2.7-3.5,5.3-5.5,7.7c-3.1,3.2-7.1,5.3-10.4,8.3
		c-1.8,1.6-3.8,2.9-6,3.9c0,0.6,0,1.2,0,1.9c0,5,0.3,10.1-0.6,15.1c-0.4,2.6-0.7,5.3-1.5,7.8c-0.7,2.4-1.5,4.8-2.1,7.2
		c-1.3,4.6-2.6,9.2-4.7,13.6c-1.5,2.9-3.4,5.6-5.3,8.3c-1.6,2.2-3.1,4.4-4.8,6.6c-0.1,0.2-0.2,0.4-0.3,0.6c-1.6,3-3.2,6-5.5,8.5
		c-1.1,1.2-2.4,2.3-3.7,3.2c-2.5,1.8-4.9,3.8-7.4,5.5c-4.2,2.6-8.4,5.3-12.8,7.6c-4.6,1.8-9.1,3.7-13.8,5.1c-3.1,0.9-6.3,2-9.2,3.3
		c-6,2.7-12.5,4-19,4.8c-2.8,0.4-5.6,0.7-8.4,1.5c-2.7,0.7-5.5,1.2-8.3,1.8c-3.7,1.2-7.5,2.2-11.3,3.2c1.7,2.5,4.1,4.6,6.3,6.6
		c3.9,1.8,7.3,4.2,10.5,6.9c1.9,1.1,4,1.9,6.1,2.6c2.7,1.1,4.9,2.9,7.5,4.1c7.2,3.1,14.4,6.7,19.8,12.5c3.4,2.5,6.9,4.8,9.8,7.8
		c2.6,2.4,6.1,3.1,8.7,5.5c1.6,1.2,2.3,3.2,3.9,4.3c1.9,0.7,3.8,1.4,5.8,2.1c0.1-0.1,0.1-0.1,0.2-0.2c2.7-0.8,5.4-1.8,8.1-2.7
		c2.4-0.7,4.8-1.2,7-2.2c-1.6-2.5-4.7-2.8-4.4-6.6c0.4-3.3,3.2-5.6,5.9-7.3c2.3-1.4,5-1.7,7.3-3.1c1.4-0.9,2.8-2.1,4.6-2
		c2.8,0.3,5,2.5,6.7,4.6c1.1,1.4,2,2.9,2.9,4.5c0.9,1.9,1.5,4,2.2,6c0.5,1.5,1.1,3,1.4,4.5c0.5,3.1,0.1,6.4,0,9.5
		c-0.4,4-1,8.3-2.3,12.1c-1,3.2-2.2,6.5-5.1,8.5c-4,3.3-7.4,4.9-12.4,2.8c-2-0.6-3.7-2-5.8-2.2c-2.7,1.7-5.5,3.3-8.2,5.1
		c0.7,2.7,1.9,5.2,2.9,7.8c1.7,2.8,3.2,5.7,4.3,8.8c1,2.4,1.7,4.9,2.3,7.5c0.5,0.2,1,0.3,1.5,0.5c3.1,1,6,2.5,8.9,4
		c3.1,1.4,5.4,3.9,7.9,6.1c1.9,1.8,3.5,3.8,4.9,5.9c0.1-4.6,0.6-9.3,0.7-13.9c0.1-2.5,0.6-5,1-7.5c0.3-3.8,1.3-7.5,1.8-11.3
		c0.5-2.2,1.4-10.4,3.6-10.9c2.5-0.5,3.2,3.3,3.9,5c1.3,4.4,1.9,9,2.7,13.5c0.6,2.6,1.1,5.2,1.4,7.8c0.3,2.4,0.3,4.9,0.8,7.2
		c0.4,1.9,0.9,3.7,1.4,5.6c1.4-5.7,1.6-11.6,2.5-17.4c0.4-2.7,0.7-5.3,1.1-8c0.4-2.5,0.9-5.1,1.3-7.6c0.6-3.6,1.8-7,2.7-10.5
		c0.4-1.1,0.5-2.4,1.4-3.1c1.3-0.9,2.5,0.5,2.8,1.8c2.4,8.7,2.1,17.8,2.5,26.8c0.4,3.5,0.8,7.1,0.9,10.5c1.6-5.3,2.7-10.6,4.2-15.9
		c0.5-1.7,1-3.4,1.5-5c1.2-3.9,2-8,2.8-11.9c0.6-3.1,1-6.3,1.8-9.4c0.3-0.7,0.9-1.3,1.8-1.2c1.7,0.5,1.8,2.7,2.3,4.2
		c0.6,3.1,1.6,6.1,2.4,9.2c1.1,4.4,2.1,8.9,3.4,13.3C410,361.6,410.9,365.7,411,369.9z"/>
</g>
<g>
	<path class="st1" d="M368.6,355.8c1,2.4-0.1,4.3-2.8,4.4c-1.2,0.1-2.4,0.2-3.6,0.5c-0.5,0.3-1,0.4-1.5,0.2c-2-0.8-0.9-3.5-0.7-5
		c0.5-2.5,1.2-4.9,1.7-7.3c0.4-1.2,0.3-2.7,1.2-3.7c0.7-0.7,1.9-0.5,2.4,0.3c0.9,1.8,1.3,3.8,1.8,5.7
		C367.7,352.5,368.1,354.1,368.6,355.8z"/>
	<path class="st1" d="M387.3,348.5c0.3,1.4,0.9,3,0.1,4.4c-1.2,1.8-3.3,2.9-5.1,3.8c-0.8,0.5-1.9,0.3-2.4-0.6c-1,1-1.6,3.4-3.4,2.9
		c-0.8-0.3-1.2-1.1-1.2-1.9c0.1-2.2,2-3.6,3.3-5.1c0.5-1.6,1-3.1,1.4-4.7c0.7-2.4,1.3-5.1,2.1-7.4c0.4-1.1,0.4-1.8,1-2.7
		c0.8-1.2,2.5-0.8,2.9,0.5c0.4,1.5,0.2,3.1,0.4,4.5C386.6,344.3,386.9,346.4,387.3,348.5z"/>
	<path class="st1" d="M406.4,344.5c0.9,3.8,2.6,7.6-2.3,9.2c-1.4,0.5-3,0.9-4.4,1.3c-1,0.2-1.9,0.7-2.9,0.4
		c-0.6-0.2-1.1-0.9-1.1-1.5v-0.1c-1.2-1.4-0.2-3.4,0.1-4.9c0.9-3.5,1.8-7,3-10.5c0.8-1.7,0.4-4.6,2.3-5.5c2.3-0.6,2.6,2.6,3.2,4.1
		C405.1,339.5,405.8,341.9,406.4,344.5z"/>
	<path class="st1" d="M107.1,353.3c4.1,4.7,4.7,31.8-5.6,27.9C94.2,378.1,96.1,345.8,107.1,353.3z"/>
	<path class="st1" d="M104.1,398.1c0.3,3.3-2,12.7-6.7,9.1c-2-2-3-4.7-3.2-7.4c-0.2-3.3,0.6-11.4,4.2-12.7c1.4-0.5,2.7,0.6,3.2,1.9
		c0.6,1.3,1,2.6,1.3,3.9C103.7,394.5,104,396.3,104.1,398.1z M100.7,399.7c0-0.3,0-0.7,0-1c0,0.2-0.1,0.5-0.1,0.7l0,0
		c-0.1,0.4-0.2,0.8-0.4,1.2c-0.1,0.3-0.3,0.5-0.5,0.7c0.3,0.7,0.1,1.5-0.4,2c0,0,0,0-0.1,0c0,0,0,0.1,0.1,0.1c0.4-0.3,0.8-0.7,1-1.2
		C100.6,401.6,100.7,400.6,100.7,399.7z"/>
	<path class="st1" d="M102.9,397.7c1.2,1.4,0.2,3.5-0.1,5c-0.1,0.6-0.6,1-1.1,1.1c-0.7,0.1-1.5-0.4-1.5-1.3c0-0.1,0-0.1,0-0.2
		c-0.1-0.6-0.1-1.1,0-1.7c0-0.4,0.1-0.9,0.1-1.3c-0.2-0.5-0.3-0.9-0.4-1.3C99.6,395.6,101.7,394.2,102.9,397.7z"/>
	<path class="st1" d="M101.9,402c0.3,0.7,0.2,1.4-0.1,1.9c-0.7,1-2.2,1.3-2.8-0.2c-0.5-2-2.2-4.5-1.3-6.5c0.9-1,1.7-0.2,2.3,1
		c0.2,0.4,0.4,0.9,0.7,1.4c0,0.1,0.1,0.2,0.1,0.3C101.1,400.7,101.5,401.6,101.9,402z"/>
	<path class="st1" d="M36.1,202.5c0.2,5.5-0.1,12.9-2.9,17.7c-1.2,1.6-3.1,3.2-5.2,2.5c-1.1-0.4-1.9-1.2-2.5-2.1
		c-2.2-1.5-2.8-4.2-3.6-6.6c-1.4-3.7-1.6-7.8-1-11.7c0.2-2.6,0.4-5.1,0.9-7.7c0.6-3,2.6-6.2,5.7-7c2.5-0.7,5.3,0.8,6.5,3.1
		C35.8,194.3,35.8,198.6,36.1,202.5z M28,215.8c0.4-0.8,0.6-1.7,0.8-2.6c-0.3,0.8-0.6,1.6-1.1,2.4c0,0.1,0.1,0.2,0.1,0.2l0,0
		C27.9,215.9,28,215.9,28,215.8z"/>
	<path class="st1" d="M33,168.7c0.4,3.7,0.2,11.9-4.8,12.3c-3.6-0.7-4-5.4-4-8.4c-0.3-1.7-0.4-3.4,0-5.1c0.8-3.7,3.4-6.4,7.2-4.4
		C33,164.4,32.8,166.8,33,168.7z"/>
	<path class="st1" d="M250.8,282.6c1.4,0.9,1.7,2.9,0.6,4c-5.6,0.7-11.1,2.4-16.7,3.7c-4.4,1-8.9,1-13.2,2.2c-2.9,1-3.9,3.3-4,5.9
		c-0.5,1.6-0.7,3.5-0.5,5.9c0.6,8.6,3,16.9,5.5,25.1c0.9,4.2-4.6,4.1-7.2,5.6c-3.5,1.6-6.6,4.4-10.5,4.7c-0.1,0-0.2,0-0.3,0
		s-0.1,0-0.2,0c-1.7-0.7-0.9-3.3-1.2-4.7c-0.3-3.6-0.7-7.1-1.1-10.7c-1.9-11.3-5.4-23.8,0.9-34.2C211,275.7,238.9,271.8,250.8,282.6
		z"/>
	<path class="st1" d="M331.4,391.2c0.4,11.3,0.6,22.7-0.4,34.1c-0.6,6.7-1.4,13.5-3.4,19.9c-0.7,2-3.4,12.1-6.1,10.5
		c-1.2-0.7-1.2-2.3-1.3-3.6c-0.2-3.5-0.2-6.9-0.2-10.4c-0.1-10-0.6-20,0.5-30c0.2-4.5,0.8-9,1.3-13.5c-0.1,0-0.2,0-0.3,0
		c-4.6-0.1-9.4-0.5-13.9,0.7c-0.8,0.8-1,2.2-1.5,3.3c-0.3,0.9-0.7,1.9-1,2.9c-0.7,2.3-1,4.8-1.4,7.2c-0.5,1.6,0,5.1-2.1,5.3
		c-1.8-0.1-1.7-2.3-1.8-3.6c-0.3-2.6-0.1-5.4-0.9-7.9c-5.1-0.2-10.2,0.9-15.3,1.5c-0.7,2.8-0.6,5.8-0.9,8.6
		c-0.2,1.5-0.1,3.1-0.7,4.5c-0.5,1.1-2.2,1.1-2.7,0c-1-3.3-1.3-7-3-10.3c-3.1,0.5-6.2,0.9-9.1,2.2c-3.1,1.3-6.5,1.9-9.7,2.5
		c-0.6,3.7-0.2,7.5-0.3,11.3c-0.1,6.4-1.2,12.8-1.6,19.1c-0.3,5.7-0.4,11.4-0.8,17.1c0.2,0.7,0.3,1.5,0.5,2.2
		c0.5,1.8-1.7,3.1-2.6,1.2c-1.9-5.2-3.3-10.6-5.3-15.8c-1.2-3-2.7-5.8-3.8-8.7c-1.1-3-2.2-6.1-3.4-9.1c-2-4.3-5.3-7.7-8.6-11
		c-2.8-3.2-6.1-5.9-9.8-8.2c-1.5-1-2.9-2-4.4-3.1c-0.4-0.3-0.9-0.6-1.3-1c-0.3,0-0.5-0.2-0.8-0.5c-0.7-0.9-0.2-2.1,0-3
		c1-3.8,1.3-7.7,1.3-11.6c0.1-4.4-0.4-8.8-1-13.1c-0.3-1.6-0.8-3.6,0.5-4.9c0.6-0.6,1.3-0.9,2.1-1.2c2.6-1.1,5.3-1.9,8.1-2.4
		c2.6-0.3,5.1-1.2,7.7-1.9c1.3-0.4,2.7-0.2,3.8,0.7c2.5,2,4.8,4.7,8,5.5c0.7,0.1,1.3,0.3,2,0.3c1.9,1,4.2,1.3,6.4,1.5
		c3.5,0.3,7,0.4,10.5,0.6c2.3,0.1,4.2,0.1,6.5-0.3c5-1.2,9.6-3.7,14.4-5.5c1.6-0.6,3.2-1.1,4.8-1.7c3.3-1.3,5.8-3.8,8.5-6
		c2.6-2.1,5.4-4.1,7.3-6.8c0.9-1.3,1.8-2.7,2.6-4.2c0.8-1.4,1.5-2.7,2.3-4c0.5-0.8,1.3-1.8,1.6-2.7c0.4,0,0.7,0,1.1,0.1
		c0.5,0,0.9,0.1,1.4,0.1c1.8,1.3,3.3,3.1,4.4,5c1.7,2.9,2.6,6.1,3.9,9.2C327.1,371.5,331.2,381,331.4,391.2z"/>
	<path class="st2" d="M198.8,222.5c0.9-0.1,1.7-0.5,2.5-1c2-1.3,3.7-2.8,5.3-4.5c-2.3,0.6-4.7,0.8-7.1,1.3c-2.7,0.8-5.3,1.7-7.9,2.5
		C193.8,221.9,196.3,222.6,198.8,222.5z M198.4,226.2c-4.2,0-8-2-11.5-4c-0.4-0.2-0.7-0.4-1.1-0.7c-0.5-0.1-0.9-0.3-1.2-0.7
		c-0.7-0.4-1.4-0.8-1.8-1.5c-0.4-0.7-0.2-1.9,0.6-2.3c0.8-0.4,1.6,0.3,2.3,0.5c3.1-0.2,6.1-0.9,9-1.8c2.5-0.8,5-1.7,7.6-1.8
		c2.7-0.3,5.2-1.4,7.9-1.4c2.1,0,2.8,2.6,1.4,4c-1.8,1.7-3.2,3.7-5,5.4C204.3,223.8,201.6,226.2,198.4,226.2z"/>
	<path class="st2" d="M240.3,213.7c-3.2-0.5-6.5-0.8-9.8-1.2c-2.1-0.3-4.1-0.7-6.2-0.8c-0.4,0-0.9,0.1-1.2-0.1
		c-0.9-0.3-1.1-1.5-0.7-2.2c1.2-1.7,4.5-0.9,6.3-0.8c0.3-1,1.4-1.3,2.4-1.5c3.1-0.9,6-2.4,9-3.3c3.2-0.8,11-5.7,13.5-4.5
		c1.3,0.7,1.2,2.6,0.3,3.6c-1.2,1.1-2.4,2.3-3.7,3.4c-1.1,1-2.3,2.1-3.4,3.2C245.2,211.5,243.3,214.1,240.3,213.7z"/>
	<path class="st2" d="M193.8,222.9c0-0.3,0-0.5,0-0.8c-0.4,0-0.7-0.1-1.1-0.2c-1.5-0.7-0.9-2.9,0.8-2.7c3.5-0.5,7-1,10.2-2.2
		c0.5-0.3,1.1-0.7,1.7-0.7c1-0.1,1.6,1.2,1.5,2c-0.1,1.4-1.6,1.9-2.6,2.4c-2.4,1.3-4.9,2.3-7.4,3.3
		C195.6,224.8,194.1,224.7,193.8,222.9z"/>
	<path class="st2" d="M280.7,203.3c-3.6-0.7-7.1-1.6-10.7-2c-3-0.2-5.8-0.5-8.6-1.4c-0.4-0.1-0.9-0.2-1.3-0.4
		c-0.8-0.6-0.8-1.8-0.1-2.5c0.6-0.6,1.5-0.5,2.2-0.4c0.6-1,2-1.1,3-1.6c1.2-0.5,2.4-1.1,3.5-1.6c4-1.9,8-3.5,12.2-5
		c2.9-1.2,5.9-2.4,8.8-3.7c1.7-0.7,3.4-1.9,5.2-2.2c1.3-0.2,2.4,1.1,2.2,2.4c-0.4,1.9-2.1,3.4-3.1,5.1c-1.7,2.8-3,5.8-4.9,8.4
		C287.1,201,284.2,203.9,280.7,203.3z"/>
	<path class="st2" d="M328.1,174.5c0,0,0-0.1,0.1-0.1C328.2,174.4,328.1,174.4,328.1,174.5L328.1,174.5z M316.1,180.3
		c0.1,0,0.2,0,0.3,0c0-0.1-0.1-0.3-0.1-0.4c0-0.1,0-0.1,0-0.2c-0.1,0.1-0.3,0.1-0.4,0.2c-0.2,0.1-0.4,0.2-0.6,0.3
		C315.5,180.2,315.8,180.2,316.1,180.3z M319.2,184.5c-3.4-0.7-7.2,0.2-10.3-1.5c-2.1-0.1-4.2,0-6.3-0.2c-0.9-0.3-1-1.6-0.6-2.2
		c0.5-0.6,1.3-0.7,2-0.8c0.3-1.4,8-3.1,9.8-3.7c4.9-2.4,9.5-5.4,14.7-7.3c1.5-0.5,3.1-1.6,4.7-1.3c1.6,0.6,1.5,2.6,0.5,3.7
		c-1.2,1.6-2.1,3.3-2.9,5C328.8,181,324.7,185.3,319.2,184.5z"/>
	<path class="st2" d="M314.6,184.1c-1.7-0.8-0.7-3,0.3-3.9c-0.6-2.2,1.8-2.6,3.1-1.3C320.1,181,317.1,184.9,314.6,184.1z"/>
	<path class="st2" d="M362.8,156.9c0,0.1,0,0.2,0.1,0.3c0.2-0.3,0.4-0.7,0.6-1c-0.2,0.1-0.5,0.2-0.7,0.4
		C362.8,156.7,362.8,156.8,362.8,156.9z M346.1,166.4c-1.6,0-3.2-0.1-4.9-0.1c-0.5,0-1,0.1-1.4-0.2c-0.8-0.5-1.1-1.8-0.5-2.6
		c0.7-0.9,1.9-0.9,2.9-1c1.3-0.1,2.6-0.1,3.8-0.1c3.1-2,6.5-3.7,9.6-5.7c3.3-2.3,6.6-4.6,10.4-6c1-0.3,2,0.4,2.2,1.4
		c0.3,0.9-0.2,1.8-0.6,2.5c-1.4,2.5-2.4,5.2-4,7.6c-1.9,3-4.5,3.5-7.9,3.6C352.6,165.8,349.4,166.4,346.1,166.4z"/>
	<path class="st2" d="M167.4,83.1c10.6,0.5,18.9,10.8,14.9,21.2c-1.4,4.8-5.2,8.2-8.1,12.1c-3.3,4.6-7.4,8.7-12.5,11.2
		c-7.6,2.9-15,6.8-23,8.8c-8,1.5-16.2,1.9-24.3,1.6c-2.7-0.7-13.7-1.6-14-4.6c-2.2-3.8,6.8-7.6,9-10.1c2.8-2.7,4.8-6.2,8-8.5
		c4.2-2.8,6.5-7,10.1-10.4c2-1.9,4.3-3.5,6.4-5.3c2-1.9,3.8-4,6.2-5.4c3.7-2.3,7.7-4.1,11.7-5.7C157,86,161.9,83,167.4,83.1z"/>
	<path class="st2" d="M273.9,55.8c6.8,6.3,5.4,17.9-1.1,23.9c-4.4,4.6-10.9,5.4-16.6,7.4c-6.9,3-15,3.6-22.4,4.2
		c-3.1,0.2-6.1,1.2-9.2,0.9c-3-0.4-8.4-0.5-9-4.3c-1.9-4.4,7-8.8,9.6-11.4c3.3-3.7,5.6-8.2,10-10.8c8.4-7.3,18.7-11.5,29.4-14
		C268.3,50.8,271.1,53.9,273.9,55.8z"/>
	<path class="st3" d="M329.8,289.5c1.2,1.6,2.9,3.5,2.4,5.6c-0.3,1.1-1.3,1.9-2.7,2.4c-0.1,1.3-1.2,2.4-2.7,1.6
		c-0.5-0.2-1-0.5-1.5-0.8c-0.6,0-1.1,0-1.6-0.1c-1.9-0.2-3.6-1-5.2-1.8c-1.5-0.5-2.4-2.3-1.4-3.6c0-0.1,0-0.2,0-0.3
		c-0.2-0.1-0.5-0.2-0.7-0.3c0,3.8-0.3,7.6-0.1,11.4c0.4,4.8,0.3,9.7,0.5,14.5c0.1,4.2,0.1,8.4-0.1,12.6c-0.2,3.1-0.3,6.1,0,9.1
		c2.1-1.3,4.2-2.6,6.4-3.6c0.5-0.3,0.9-0.7,1.5-0.7c1.6-0.2,2.9,0.9,4.1,1.8c2.5,2.4,0.2,6-2.3,7.4c-3.4,2.1-7.4,3.4-11.4,3.3
		c-0.5,0-0.9,0-1.4-0.1c-0.4,0-0.7,0-1.1-0.1c-0.3,1-1,2-1.6,2.7c-0.8,1.3-1.6,2.7-2.3,4c-0.8,1.4-1.7,2.8-2.6,4.2
		c-1.9,2.8-4.7,4.7-7.3,6.8c-2.7,2.2-5.2,4.8-8.5,6c-1.6,0.6-3.2,1-4.8,1.7c-4.8,1.8-9.4,4.3-14.4,5.5c-2.3,0.4-4.3,0.3-6.5,0.3
		c-3.5-0.1-7-0.2-10.5-0.6c-2.2-0.2-4.4-0.5-6.4-1.5c-0.5-0.2-0.9-0.5-1.4-0.9c-1.6-1.2-4-2.8-3.2-5.1c0.8-2,3.2-1.6,5-1.8
		c2.2-0.3,4.8-0.3,6.7-1.7c1.3-3.7-3.6-6.4-6-8.1c-1-0.6-2-1.2-2.9-1.8c-0.6-0.3-1.2-0.7-1.4-1.4c-0.4-0.9-0.1-2,0.8-2.6
		c0.8-0.4,1.8-0.2,2.7-0.5c2-0.6,3.7-1.7,5.6-2.6c1.7-0.8,3.4-1.6,5-2.6c0.6-0.4,1.1-0.8,1.4-1.4c0.1-0.5-0.4-1-0.7-1.4
		c-0.7-0.7-1.5-1.4-2.4-1.8c-1.4-0.6-2.9-1-4.3-1.5c-2.9-0.9-5.5-2.5-8.4-3.2c-2.7-1-2-3.4-0.9-5.3c0.5-1,0.9-2.1,1.3-3.2
		c1.4-3.4,2.7-7,3.3-10.7c-2.9,0.1-5.8,0.6-8.5,1.7c-2.3,1-4.4,2.4-6.6,3.7c-2,1.1-4.2,2.1-6.1,3.3c-0.1,1.1-0.8,2-2.1,1.7
		c-2-1.4-1.8-4.6-2.8-6.7c-2-5.8-2.8-11.9-2.7-17.9c-0.4-2.1-1.1-4.8-1-7.2c0.1-2.6,1.1-4.9,4-5.9c4.3-1.2,8.8-1.2,13.2-2.2
		c5.5-1.3,11-3,16.7-3.7c0.7-0.1,1.4-0.2,2.2-0.2c5.7-1,11.6-0.7,17.4-1.7c4.1-1,8.2-1.4,12.4-1.8c8.4-0.6,16.9,0.2,25.2-1.9
		c2.6-0.7,4.9,0.8,6.1,3c0.6,1,1.5,2.4,2,3.8c0.5-0.5,1.4-0.6,2-0.7c1.8-0.2,4-0.3,5.6-0.1C326.4,287.1,328.5,287.8,329.8,289.5z"/>
	<path class="st4" d="M300.7,292.3c0.2-0.1,0.3-0.2,0.5-0.3c-0.2,0-0.4,0-0.5,0C300.7,292.1,300.7,292.2,300.7,292.3z M265.3,306.5
		c-2.4-0.1-4.9,0.1-7.3-0.1c-3-0.3-6.1,0.2-9.1-0.2c-3-0.2-6.1,0-9.1-0.2c-2,0.1-4-1-3.2-3.3c-1.6,0.7-3.3,1.4-4.8,2.4
		c-0.7,0.5-1.6-0.3-1.6-1c-0.2-2.1,2.8-3.1,4.3-4c3-1.5,6-3,9.3-3.8c4.7-1,9.4-1.9,14.2-2.5c3.2-0.6,6.4-1.2,9.6-1.6
		c3.2-0.5,6.4-1.2,9.6-1.6c4.7-0.7,9.4-1.6,14.2-1.9c4.1-0.2,8.3-0.6,12.4-0.2c2,0.3,4.8,0.9,3.9,3.6c-0.3,0.9-1.3,1.3-2.1,1.8
		c-2,1.1-4.1,2.2-6,3.5c-2.3,1.7-4.9,3.4-7.5,4.4c-4,1.8-8.1,3.5-12.5,4.2C274.8,306,270.1,306.4,265.3,306.5z"/>
	<path class="st5" d="M76.5,455.8c-0.3,1.2-0.6,2.4-0.8,3.7c-1.3,6.5-1.7,13.1-2.1,19.6c-0.4,5.7,0.2,11.4-0.9,17
		c-0.2,0.5-0.4,1-0.9,1.3c-0.3,0.2-0.7,0.4-1.1,0.3c-1.9-0.9-3.3-2.5-4.5-4.3c-3.9-2.9-8.5-5.3-11.7-9c-0.9-1,0.4-3,1.6-1.9
		c0.7,0.7,1.4,1.3,2.2,1.9c-1.6-1.7-3.2-3.5-4.4-5.4c-3.8-5.9-7.3-11.9-10.3-18.2c-4.6-10.9-7.3-22.3-11-33.5
		c-7.6-20.7-11.3-41.9-9-64c-0.3-12.1,1.8-25.3,11.7-33.5c3.3-3.1,8.3-3.7,11.5-6.8c3.7-5.4,3.4-14.1,1.5-20.1
		c-1.1-8.6-4.9-17.1-4-25.8c0.5-2.7,1.8-9.7,5.2-9c0-0.1,0-0.2,0-0.3c0.2-0.9,1.2-1.7,2.2-1.4c1.5,0.5,2.8,1.4,4.2,2.1
		c2.9,1.2,6.1,1.7,9.1,2.8c1.5,0.5,3,1.1,4.5,1.6c-4.8,0.6-9.8,3.4-11.2,8.3c-0.5,2.6,0.5,5.1,0.8,7.6c0.5,3.7,1,7.3,1.8,10.9
		c1.6,6.8,3.4,13.6,4.9,20.4c1,6.1,0.4,14.5-3.7,19.4c-2.3,2.7-5.6,4.4-8,7c-1.4,1.4-2.5,3-3.4,4.7c-1.2,2.5-1.9,5.2-1.9,7.9
		c-0.7,5.5-1,11.1-0.4,16.7c0.5,5.8,1.7,11.4,3.2,17c1.7,7.3,3.2,14.6,5.4,21.7c1.6,5.4,2.9,11,6,15.8c0.3,0.3,0.7,0.5,1.2,0.5
		c2.7,8.5,6.2,16.7,8,25.5c0.5,1.8,2.3,1.5,2.9,0.2C75.8,456.6,76.2,456.3,76.5,455.8z"/>
	<path class="st5" d="M78.7,440.7c0.2,2,0,4.1-0.3,6.1c-0.4,2.4-0.9,4.7-1.5,7.1c0.1-0.9,0-1.8,0.1-2.5c0.2-3.5,1.2-7,1.1-10.5
		c-0.1-1.3-0.5-2.6-0.6-4c0-0.4,0-0.9,0-1.3C77.9,437.3,78.5,439,78.7,440.7z"/>
	<path class="st5" d="M83.2,423.1c-0.4,0.6-0.9,1.3-1.3,1.9s-0.9,1.2-1.4,1.8c0-0.1,0.1-0.2,0.1-0.2
		C81.4,425.4,82.3,424.2,83.2,423.1z"/>
	<path class="st5" d="M96.9,284.8c0.2,6.4-0.5,12.9-0.4,19.3c-0.1,8-0.2,16.1-0.9,24.1c-0.8,7.7-1.4,15.3-1.9,23
		c-0.7,6.8-1.6,13.6-2.2,20.4c-0.3,7.2-1,14.3-1.5,21.4c-0.2,3.9-0.2,7.7,0.5,11.6c0.4,2.1,0.9,4.1,1.4,6.1c0.3,1.1,0.3,2,0.1,2.8
		c0-0.2-0.1-0.3-0.1-0.5c-1.2-5.3-2-10.8-2.4-16.2c-0.4-7.7,0.2-15.9,0.5-23.7c0.3-7.8,1-15.7,1.4-23.5c0.4-10,1.1-20.1,2.1-30.2
		c0.6-7.4,1.5-14.7,2.2-22.1c0.3-3.6,0.8-7.3,1.1-10.9C96.8,285.8,96.9,285.3,96.9,284.8z"/>
	<path class="st5" d="M227.4,433.8c6.3,4.8,0,12.7-3.6,17.1c-1.5,1.7-2.7,3.7-4.2,5.4c-3.6,3.5-12.4,3.5-17.3,3.4
		c-7-0.2-14,0-21-0.6c-6.2-0.6-12.4-1.7-18.6-1.8c-6-0.4-12-1-18-1.5c-7.2-0.5-14.3-1.6-21.3-3.5c-5-1.3-9.9-2.4-15-3.3
		c-3.4-0.6-6.9-0.7-10.2-1.6c-3.3-1-6.5-2.7-9.7-4.1c-3.8-2.1-10-3.7-10.8-8.4l0,0l-0.1-0.1c0.3-2.8,1.4-5.5,2.8-7.9
		c1.1-1.3,2.5-2.3,3.9-3.3c2.9-2,5-4.3,7.8-6.3c2.8-1.9,5.6-3.7,8.4-5.6c2.1-1.4,4.4-2.4,6.7-3.3c3.7-1.7,7.8-2.5,11.8-2.8
		c6.9-0.5,13.8,0.9,20.6,2c3.4,0.5,6.9,1,10.2,1.8c3.3,0.6,6.7,1,10,2c3.3,0.8,6.8,1.2,10,2.3c4.7,1.6,9.3,3.6,14,5.2
		c2.9,0.9,5.8,1.7,8.7,2.5c2.9,0.9,5.8,1.7,8.8,2.2c3.8,0.4,7.6,1,11.3,1.9c1.1-0.5,2.1,0.5,3.2,0.8
		C220.1,428,223.9,430.8,227.4,433.8z"/>
	<path class="st5" d="M92.8,446.3c0.5-0.2,1.1,0,1.4,0.5c-0.5-0.1-0.9-0.1-1.4-0.2C92.8,446.5,92.8,446.4,92.8,446.3z"/>
	<path class="st5" d="M96.3,499.7L96.3,499.7c-3.2-0.6-7.9-3.1-7.6-6.7c-0.3-0.1-0.5-0.2-0.8-0.4c-3.4-3-2.7-8.7-2.4-12.8
		c0.3-3.5,1.3-6.9,2.2-10.3c0,1-0.1,2-0.1,3c-0.2,4.9-0.6,9.8-0.1,14.6c0.2,1.8,0.8,3.6,1.6,5.2c0.8,1.6,2.1,2.8,3.3,4
		C93.8,497.5,95,498.7,96.3,499.7z"/>
	<path class="st5" d="M105,503c-0.7-0.2-1.4-0.5-2.1-0.7h-0.1c0.1-0.1,0.2-0.1,0.2-0.2C103.7,502.3,104.3,502.7,105,503z"/>
	<path class="st5" d="M109.6,463.2l-0.1-0.1c-1.3-2.2-2.1-4.5-3-6.9C107.6,458.5,108.6,460.8,109.6,463.2z"/>
	<path class="st5" d="M176.1,506.4c0.4,0.1,0.8,0.2,1.3,0.3c-8.5-1-17.5-1.8-24-7.8c-0.7-0.8-1.5-1.6-2.3-2.3
		c2.3,0.7,4.6,1.3,6.8,2.1c3.7,1.3,6.7,3.8,10.5,5c2.1,0.8,4.3,1.2,6.3,2.1c0.3,0.1,0.5,0.3,0.6,0.6
		C175.6,506.3,175.9,506.3,176.1,506.4z"/>
	<path class="st5" d="M200.6,523.5c-1,0.1-2,0.1-3,0c-3.1-0.1-6.3-0.2-9.3-0.9s-5.6-2.3-8.5-3.1c-3.2-0.7-6.4-0.9-9.6-1.5
		c-6-1.2-12-2.2-18-3.4c-5.5-1.6-11-3.2-16.6-4.1c-3.9-0.4-7.8-1.1-11.6-2.1c4.8,0.5,9.6,0.8,14.4,1.9c11.3,1.1,21.9,5.9,33.3,6.6
		c4.4,0.3,8.5,2.1,12.8,3.2C189.8,520.9,195.1,523,200.6,523.5z"/>
	<path class="st5" d="M204.5,511.5c2.5,0,5.3,0.1,4.7,3.5c-0.1,0.3-0.2,0.6-0.4,0.9c-0.2-2-1.5-3.7-4.5-4.2
		c-0.2-0.1-0.5-0.1-0.7-0.2C203.9,511.5,204.2,511.5,204.5,511.5z"/>
	<path class="st5" d="M295.3,518c2.4-1.5,3.9,1.7,2.2,3.4c-2.6,3.8-6.8,5.8-10.6,8.2c-5.8,4.2-11,9.1-17.4,12.4
		c-3.1,2.1-6.5,3.7-10.1,4.8c-0.7,0.3-1.3,0.5-2,0.8c-1.2-1.9-4.4,0.2-6.2,0.4c-6.3,1-12,3.9-17.8,6.2c-4.6,0.9-9.2,1.6-13.9,1.7
		c-3.2-0.2-6.4-0.6-9.6-0.9c-4.3-1.3-8.9-2.7-13.3-1.9c-0.2,0.1-0.4,0.3-0.5,0.4c-7.9-1.6-15.7-3.9-23.8-4.8
		c-6.4-1.3-13.1-1.6-19.4-3.2c-7.4-1.5-14.4-4.1-21.8-5.1c-7.7-0.4-13.9-5.6-21.2-7.5l0,0c-0.5-0.1-0.8-0.4-1-0.9
		c-0.3-0.2-0.6-0.3-0.8-0.4c-2.7,2.2-6.4-2.5-8.5-4.1c-1.6-0.4-3.6-0.9-4.5-2.5c-0.5-1,0-2.5,1.2-2.6c0-0.4,0.1-0.8,0.4-1.2
		c0.2-0.2,0.4-0.4,0.6-0.5c-0.3-0.8,0.2-2,1.2-1.9c1.4,0.7,2.3,2.2,3.6,3.1c7.8,1,15.2,4.5,23,5.5c7,0.8,13.9,2.1,20.8,3.6
		c12.3,2.6,24.5,5.3,37,6.7c7.4,1.3,14.2,3.8,21.6,4.5c3.7,0.5,7.4,0.1,10.9-1.3c3.9-0.9,7.9-2.9,8.8-7.1c1.5-3.6,1-7.6,2-11.3
		c4.3-6.5,12.6-1.2,18.4-0.1c1.4,0.5,3.6,0.3,3.9,2c1.4,0.1,2.9,0.2,4.3,0.1c11.2-0.3,22.1-2.4,33.1-3.8
		C289.2,520.3,292.4,519.5,295.3,518z"/>
	<path class="st5" d="M341.7,456.6c3.9,1.4,6.9,2.2,4.8,7.1c-0.7,2.3-1.3,4.7-2.2,7c-1.6,3.8-3.4,7.5-5.5,11
		c-2.7,4.3-6.8,7.3-10.2,11c-2.4,2.5-4.7,5.1-7.5,7.2c-1.5,1.1-3,2.2-4.5,3.5c-1.9,1.7-3.7,3.5-5.3,5.5c-0.9,0.9-1.7,2.4-3.2,2.1
		c-2.8-1-0.6-4.2,0.1-5.9c1.4-3.5,3.1-7,4.8-10.3c1.5-3.2,2.4-6.2,3.5-9.4c0.7-2,1.5-3.9,1.8-6c0.8-4.2,1.2-8.9,1.5-13
		c0.1-1.4,0-2.8,0.3-4.2c0.2-0.8,1.2-1.4,1.9-0.8c1.6-2.4,5-7.9,8.4-6.9C334.2,455.2,338,454.9,341.7,456.6z"/>
	<path class="st6" d="M96.4,278.9c0.7,1.9,0.7,4,0.5,6c0,0.5-0.1,1-0.1,1.5c-0.4,3.6-0.8,7.3-1.1,10.9c-0.7,7.4-1.6,14.7-2.2,22.1
		c-1,10.1-1.7,20.2-2.1,30.2c-0.4,7.8-1.1,15.7-1.4,23.5c-0.4,7.8-0.9,15.9-0.5,23.7c0.4,5.5,1.2,10.9,2.4,16.2
		c0.1,0.2,0.1,0.3,0.1,0.5c1,3.8-1.9,4.4-4.7,6c-1.5,0.9-2.8,2.2-4,3.5c-0.9,1.1-1.8,2.3-2.5,3.5c-0.1,0.1-0.1,0.2-0.1,0.2
		c0,0.1-0.1,0.1-0.1,0.2c-1.5,2.4-2.5,5.1-2.8,7.9c0,0.2-0.1,0.5-0.1,0.7c0,0.4,0,0.8,0,1.3c0.1,1.3,0.5,2.6,0.6,4
		c0.1,3.5-0.9,7-1.1,10.5c-0.1,0.7-0.1,1.6-0.1,2.5c-0.1,0.7-0.2,1.4-0.5,2c-0.3,0.5-0.7,0.8-1.4,0.9c-0.5,1.2-2.4,1.6-2.9-0.2
		c-1.9-8.7-5.3-17-8-25.5c-0.4,0-0.9-0.2-1.2-0.5c-3-4.8-4.4-10.4-6-15.8c-2.1-7.1-3.7-14.4-5.4-21.7c-1.5-5.6-2.7-11.2-3.2-17
		c-0.6-5.5-0.2-11.1,0.4-16.7c-0.1-2.7,0.7-5.5,1.9-7.9c0.9-1.8,2-3.3,3.4-4.7c2.4-2.6,5.6-4.3,8-7c4.1-4.8,4.7-13.3,3.7-19.4
		c-1.5-6.8-3.2-13.6-4.9-20.4c-0.9-3.6-1.4-7.3-1.8-10.9c-0.3-2.5-1.3-5.1-0.8-7.6c1.4-4.8,6.4-7.6,11.2-8.3c0.2,0,0.4,0,0.5-0.1
		c4.5-0.6,8.9,0.8,13.4,1.2c1.7,0.1,3.3,0.2,5,0.4c1.8,0.2,3.4,1,4.9,1.8C94.6,277,95.9,277.6,96.4,278.9z"/>
	<path class="st6" d="M208.8,515.9c0.3,3.7-3.2,8.3-7.6,7.6c-0.2,0-0.4,0-0.6,0c-5.5-0.5-10.8-2.6-16.3-3.4
		c-4.3-1.1-8.3-2.9-12.8-3.2c-11.4-0.6-22-5.5-33.3-6.6c-4.7-1.1-9.6-1.4-14.4-1.9c-2.1-0.2-4.3-0.4-6.4-0.8
		c-4.4-1-8.5-2.7-12.5-4.6c-0.7-0.3-1.3-0.7-2-1c-0.1,0.1-0.2,0.2-0.2,0.2c-0.3,0.2-0.7,0.3-1.1,0.3c-2-0.5-3.8-1.5-5.4-2.8
		c-1.3-1-2.5-2.2-3.7-3.4c-1.2-1.2-2.5-2.5-3.3-4c-0.8-1.6-1.3-3.4-1.6-5.2c-0.5-4.9-0.2-9.8,0.1-14.6c0-1,0-2,0.1-3
		c0.2-4.2,0.7-8.3,1.1-12.5c0.2-2.7,0.3-5.3,0.7-8c0.3-1.4,0.2-3.7,2-4c0.8,0.1,1.1,0.6,1.2,1.2c0,0.1,0,0.2,0,0.3
		c0.4,0,0.9,0.1,1.4,0.2c0.7,0.1,1.4,0.3,1.9,0.5c2.9,0.9,6.8,0.8,8.4,3.8c0.7,1.7,1.3,3.4,2,5.1c0.8,2.4,1.7,4.7,3,6.9l0.1,0.1
		c2.7,4.2,7.4,6.5,10.5,10.4c1.9,2.4,3.8,5,5.8,7.4c8.2,5.5,17.8,9.1,25.2,15.7c0.8,0.7,1.6,1.5,2.3,2.3c6.5,6,15.5,6.8,24,7.8l0,0
		c1,0.1,2.1,0.3,3.1,0.4c4.6,0.4,9.2,1.2,13.6,2.8c3.1,0.9,6.4,0.9,9.5,1.6c0.2,0.1,0.5,0.1,0.7,0.2
		C207.3,512.1,208.6,513.9,208.8,515.9z"/>
	<path class="st6" d="M222.1,536.1c-3.7-3.4,3.7-5.1,4.3-8.4c1.4-2.1,0.3-4.5,0.8-6.8c0.8-2.2,3.5-1.4,4,0.6
		c1.8,0.4,3.5,0.9,5.3,1.1c2.6,0.4,5.7-0.3,8,1.3c4.1-1.8,6.6,3.5,2,4.8c-4.2,1.5-8.5,2.9-12.5,5
		C230.5,535.6,226.1,536.9,222.1,536.1z"/>
	<path class="st6" d="M320.5,474c-2.6-0.9-1.5-4.2-1.4-6.3c0.1-1.2,0.3-2.5,0.5-3.7c0.1-1.1,0.9-2.5,2.2-2c1.1-1.9,2.6-3.6,4.2-5.1
		c-2.1-1.1-2.1-4.2,0.6-4.3c2.6,0,5.2,0.6,7.8,1.2c2.2,0.4,3.5,2,2.2,4.1c-3.4,4.3-6.7,8.6-10.5,12.5
		C324.5,471.8,322.8,474.4,320.5,474z"/>
	<path class="st6" d="M289.4,596.5c2.9,5.6-1.3,17.8-9.1,15.7c-7.6-1.1-14.7-4.5-21.7-7.5c-6.5-2.7-13.3-4.6-19.9-7
		c-2.2-1.1-4.2-2.5-6.7-2.6c-12.8-0.9-15.5,1.5-26.8,6c-6.7,2.3-13.4,4.5-20,7.1c-9.4,4.5-19.7,7.7-30,8.6
		c-11.4-0.5-15.9-12.8-5.6-18.8c5.4-1.9,9.8-5.6,14.9-7.9c4.5-2.1,9.3-3.5,13.6-6c5.6-4.1,12.9-3.4,18.9-6.5
		c-1.8-6.8-1.7-13.9-1.9-20.8c-0.2-0.7,0.1-1.6,0.5-2.1c0-0.4,0.1-0.8,0.4-1.1c0.1-0.2,0.3-0.3,0.5-0.4c4.4-0.9,9,0.5,13.3,1.9
		c0.6,0.2,1.2,0.4,1.8,0.6c5.6,1.1,11.5,1.7,17.1,0.4c1.6-0.5,3.1-1.1,4.7-1.8c5.8-2.4,11.5-5.2,17.8-6.2c1.9-0.2,5.1-2.3,6.2-0.4
		c0.1,0.2,0.3,0.6,0.3,0.9c0.1,0.4,0,0.7-0.1,1c1.3,2,1.2,6.5,2,8.2c7,0.2,14.1-0.4,20.8,2.2c3.6,0.7,7,2.3,6,6.7
		c-0.3,5.6-5.6,6.4-10.1,7.1c-4.9,0.9-21.4-2.4-11.9,6.9c3.6,3.1,8.1,5,12.3,7.1C281.6,589.6,287,591.5,289.4,596.5z"/>
	<path class="st7" d="M281.2,583c-2.6,0-5.2-0.8-7.4-2.3c-1-0.6-2.1-1.4-2.1-2.7c0-0.8,0.4-1.5,1.1-1.9c0.3-1.5,2.2-1.5,3.4-1.6
		c2.2-0.2,4.3-0.4,6.5-0.6c0.3-0.6,0.6-1.2,0.8-1.8c0.3-0.7,0.5-1.5,1.3-1.8c0.9-0.3,1.8,0.4,1.9,1.2c0.2,0.7,0,1.4-0.2,2.1
		c1.8,0.7,1.6,2.9,1.2,4.5C286.9,581.1,284.2,583.1,281.2,583z"/>
	<path class="st7" d="M275.6,625.4c-4.1-0.3-9-1.1-11.3-5c-2-3.1-2.5-7.2-0.7-10.6c0.6-1.2,2-3,3.4-2c0.9,0.7,0.5,1.9-0.2,2.7
		c0.1-0.1,0.3-0.1,0.4-0.1c1.2-1.5,2.9,0.4,3.9,1.2c1.9,0.9,4.1,1.5,5.6,3c2.7,0,5.6-0.8,8-2.2c0.7-0.4,1.3-1.1,2.2-0.9
		c1.6,0.4,1.7,2.3,1,3.6c0.4,0.9,0.1,2-0.1,2.9c-0.4,1.6-0.8,3.4-2,4.5c-1,0.9-2.3,1.3-3.6,1.4C280.3,625.2,277.9,625.6,275.6,625.4
		z"/>
	<path class="st7" d="M154.4,630.3c-1.7-0.2-3.4-0.6-4.9-1.6c-2.9-1.7-6-3.7-6.7-7.2c-0.5-2-0.3-4.1-0.2-6.1
		c0.1-1.1-0.1-2.3,0.7-3.2c1.4-1.1,2.3,0.6,2.2,1.8c0.8,0.1,1.3,0.9,2,1.3c0.8,0.5,1.7,1,2.6,1.4c0.6-0.7,1.6-0.4,2.3-0.3
		c1.1,0.1,2.2,0.2,3.3,0.2c2.3,0,4.9-0.9,6.8,0.8c1.5-0.6,2.9-1.4,4.4-1.7c4.3-0.2,1.8,6.8,0.8,8.9c-0.3,0.6-0.8,1-1.3,1.4
		c-1,1.8-2.9,4.8-5.3,3.5C159,630.7,156.6,630.6,154.4,630.3z"/>
	<path class="st6" d="M780.4,345.1c0,1.8,0.2,3.6,0.1,5.4c-0.1,1.8-0.4,3.6-1.1,5.2c-0.8,2.1-2.5,3.8-2.8,6.1
		c-0.6,2.5-0.2,5.1-0.1,7.6c0.2,3.4,0.5,6.5,0.5,9.9c0.2,7.3-0.6,14.9-1.2,22.1c-0.1,1.8-0.3,3.7-0.4,5.5c-0.1,2.8,0,5.5-0.3,8.3
		c-0.3,3.8-0.7,7.5-0.9,11.2c-0.5,8.9,0,17.9-0.3,26.8c-0.1,8.5-0.8,17-1.1,25.6c-0.2,5.6-0.5,11.2-0.4,16.8
		c0.2,5.2,0.8,10.4,0.8,15.5c-0.1,3.8-0.6,7.6-0.5,11.4c0,0.6-0.5,1.3-1.1,1.3c-0.1,0-0.1,0-0.2,0c0.1,2.3,0.2,4.7,0.5,7
		c0.8,4.5,0.4,9,0.4,13.5c-0.1,2.8,0.1,5.6-0.4,8.4c-0.4,2.1-1.2,3-3.5,2.6c-1.8-0.2-3.6-0.4-5.5-0.4c-1.9-0.1-4.6,0.3-5-2.2
		c-0.4-4.7-1-9.5-0.9-14.3c0.6-6.5,1.2-13,1-19.5c-0.1-5.3,0-10.7-0.3-16c-0.2-6.5-0.1-13-0.3-19.5c-0.1-2.4-0.6-4.8-0.9-7.3
		c-0.3-2.6-0.2-5.2-0.4-7.8c-0.2-2.4-0.3-4.9-0.3-7.3c0-2.7-0.4-5.3-0.4-7.9c0-1.8,0.1-3.7,0.1-5.5c0-3.8-0.3-7.6-0.2-11.4
		c0-8.2,0.3-16.4,0.8-24.6c0.3-5.5-0.3-11-0.2-16.5c-0.1-4.8,0-9.7-0.1-14.5c-1.2,1.4-2.5,2.8-3.7,4.2c-2.8,3.3-6,6.2-8.8,9.5
		c-1.6,1.9-3.1,3.7-4.8,5.5c-0.8,0.8-2.3,2.9-3.3,1.3c-0.2-0.3-0.2-0.6-0.1-1c-0.5,0.6-1.1,1.2-1.6,1.8c-2.2,2.2-4.5,4.3-6.6,6.7
		c-1.9,2.3-4.2,4-6.5,5.9c-2.9,2.8-5.6,5.7-8.9,8.1c-1.8,1.4-3.5,2.9-5.2,4.4c-2.3,2-4.7,3.8-7,5.8c-2.4,2.4-5.3,4-8,6
		c-0.1,0.1-0.3,0.2-0.4,0.4c0.2,6.5,0.1,12.9,0.3,19.4c0.3,5.6,0.5,11.2,0.8,16.7c0.1,4.7-0.1,9.4-0.2,14.1c-0.1,4.7,0.1,9.3,0.1,14
		c-0.4,8.2-0.5,16.4-0.4,24.6c0.3,0.4,0.3,1.1,0.3,1.6c0.1,1.5,0.1,3.1,0.1,4.6c-0.1,4.6,0.2,9.2,0.1,13.9c-0.3,6,0,12.4,0.4,18.3
		c0.2,2.8,0.2,5.3,0.3,8c0.2,3.1,0.7,6.2,0.9,9.3c0.7,9.5-0.5,19-0.3,28.5c0,2,0.1,4,0,6c-0.1,0.9-0.2,1.8-0.8,2.5
		c-0.8,0.8-2.2,0.6-3.2,0.8c-2.6,0.4-5.3,0.2-8,0.4c-1.6,0.1-3.2,0.5-4.8,0.7c-0.7,0.1-1.6,0.2-2.1-0.3l-0.1-0.1
		c-0.2,0-0.3-0.1-0.5-0.2c-1.5-1-1.7-3-2.1-4.7c-0.9-4.7-1.6-9.5-1.5-14.3c0.1-2.8,0.6-5.6,1.2-8.3c0.1-0.6,0.6-1,1.2-1.1
		c0-0.3,0-0.7,0-1c-0.5-4.1-0.9-8.3-1-12.4c0.1-8.3,0.3-16.6,0.1-24.9c-0.7-7.8-0.6-15.8-0.9-23.7c-1.1-13-0.5-26.1-0.5-39.1
		c0.2-5.2,0.1-10.3,0.2-15.5c0-3-0.4-6-0.4-9c-0.1-3.8,0.2-7.5,0.1-11.3c-0.1-1.9-0.2-3.8-0.1-5.6c0.2-3.5,0.4-7,0.6-10.5
		c-2.2-0.3-4.4-0.8-6.5-1.1c-4-0.6-8-1.7-12-2c-7.6-0.8-15.4-1.4-22.9-2.3c-5.3-0.8-10.6-1.1-15.9-1.6c-4.6-0.4-9.2-0.6-13.9-1
		c-4.1-0.5-8.2-1.3-12.3-1.7c-3.2-0.4-6.4-0.5-9.6-0.9c-6.6-0.8-13.1-2.6-19.7-3.7c-5-0.7-10.1-0.9-15.1-1.7c-5.5-1-11.2-1.3-16.8-2
		c-3.5-0.4-6.8-1.6-10.3-2.1c-3-0.6-6-1.2-9-1.7c-1.5-0.3-3-0.8-4.5-1l0,0c0.4,4.6,0.2,9.2,0.5,13.8c0.3,3.5,0.3,7,0.3,10.5
		c-0.1,9.7,0.5,19.4,1,29.2c0.3,7.2-0.2,14.4-0.2,21.6c-0.1,5.5-0.4,10.9-0.1,16.4c0.1,0.6,0.1,1.2,0.1,1.8c1.4,1.1,1.5,3.2-0.7,3.6
		c-0.4-0.1-0.8-0.3-1.2-0.4c-0.2,0.1-0.5,0.1-0.8,0.1c-2.2,0.3-4.4,0.9-6.6,1.1c-0.7,0.1-1.5,0-2.1-0.3c-0.3-0.2-0.6-0.4-0.7-0.7
		c-0.1,0-0.2,0.1-0.2,0.1c-3.6,1-3.5-2.6-3.3-5.1c0.1-3.2-0.1-6.4-0.1-9.5c-0.2-13.3,0-26.6-0.6-40c-0.1-10.2-1.3-20.3-1.2-30.4
		c0.1-3.3,0.2-6.7,0.3-10c0.1-1,0.1-1.9,0.1-2.8c-3.5-0.6-7-1.4-10.5-1.7c-5-0.4-10.1-0.4-15.1-0.9c-3.4-0.2-6.7-0.8-10.1-1.3
		c-5-0.6-10.1-0.8-15-2.1c-2-0.5-4.1-1.1-6.1-1.7c-2.6-0.8-5.1-2.2-7.9-2.4c-0.6,0.1-1.3-0.1-1.6-0.7c-0.2-0.4-0.2-0.8-0.2-1.1
		c-0.1,0-0.1,0-0.2,0c-0.3,9.5-0.6,19,0,28.6c0.7,7.3,0.7,15,1.2,22.3c0.5,6.8,0.1,13.7,0.2,20.6c0.1,8.7-0.2,17.4-0.2,26
		c0,6.9,0,13.9-0.1,20.8c-0.4,8.7-0.7,17.5-0.5,26.2c0,3.4-0.1,6.8,0,10.1c0,1.6,0.1,3.1,0.1,4.7c0,1.2-0.1,2.5-1,3.4
		c-0.8,0.8-2.1,0.9-3.2,0.8c-2.1-0.1-4.4-0.8-6.4-1c-1.7-0.2-3.5-0.1-5.2-0.2c-3-0.6-2.5-6.7-2.9-9.1c-1.6-15.2-1.4-30.5-1.4-45.7
		c0.1-24.5-0.4-49.1-0.2-73.6c0-3.5,0-7,0.2-10.5c0.3-4.6,0.8-9.3,0.7-13.9c0-2.3,0-4.6-0.2-6.9c-0.1-1.1-0.2-2.2-0.4-3.4
		c-0.4,0.1-0.9-0.1-1.5-0.6c-1.6-3.1-0.6-6.9-1-10.2c-0.1-2.7-0.2-5.5,0.2-8.2c-0.2-0.4-0.3-0.9-0.2-1.3c0.2-1.3,1.3-2.2,2.3-2.9
		c2.4-1.7,5.1-2.8,7.6-4.3c3.3-2.3,5.7-5.7,9.3-7.6c1.4-0.8,2.8-1.5,4.3-2.2c2.5-1.2,4.7-2.7,6.9-4.3c4.3-2.8,8.3-5.6,12.3-8.7
		c3.9-3.1,8.8-4.6,13-6.9c2-1.2,4.2-2.3,6.3-3.5c1.7-0.9,3.4-1.9,5-2.9c2.5-1.8,5.2-3.3,7.8-4.9c0.9-0.5,1.7-1.1,2.5-1.7
		c2.3-1.7,4.3-3.9,6.6-5.5c1.4-1.1,3.1-1.7,4.9-1.5c5.3,0.3,10.6,0.6,15.8,1.3c5.2,0.8,10.4,1.7,15.6,2.3c9.3,0.5,18.6,0.8,27.9,1.6
		c5.7,0.5,11.2,1.5,16.8,2.5c-0.6,0.3-1.1,0.9-1.6,1.3c0-1.5-1.8-2.2-2.8-0.8c-0.7,0.4-1.4,1.2-1,2.1c-0.1,0.1-0.2,0.3-0.3,0.4
		s-0.2,0.3-0.2,0.4c-2.1,1.3-2.9,3.9-4.2,5.9c-1.9,3.6-3.6,7.3-5.8,10.7c-6.1,7.7,2.7,7.4,7.9,9.7l0,0c0.3,0.1,0.6,0.1,1,0
		c0.3-0.1,0.5-0.3,0.7-0.5c6.1,0.4,11.9,2.1,17.9,3c5,0.7,10,0.3,15,0.8c7.3,0.7,14.4,2.2,21.6,3.3c6.7,0.8,13.3,1.1,20,2.2
		c0.8,1,2.2,1.8,4.6,2.7c2.2,0.6,3-2.1,3.2-3.8c0.5-3.3,1-6.6,1.6-9.9c0.4-2.2,1.1-4.3,1.6-6.4c0.8-2.2,0.8-7.4,3.1-8.4
		c0.1,3.5-0.6,6.9-1.5,10.2c-0.8,3.2-1.3,6.4-1.8,9.6c-0.6,1.2-1.3,2.4-2,3.5c-0.3,0.5-0.7,1.1-0.8,1.7c-0.1,0.8,0.3,1.8,1.2,1.9
		c1.3,0.1,2.2-1.2,3.1-2c0.5,0.2,1.1,0,1.5-0.4c0.2-0.2,0.4-0.5,0.6-0.8c1.5,0.1,2.7-1.2,4-1.8c1.3-0.7,2.5-1.4,3.8-2.1
		c0,0.7,0.4,1.6,1.2,1.7c1.5,0,2.8-1.1,4.2-1.6c1.5-0.7,3-1.3,4.5-2c2.8-1.3,5.3-3.2,7.9-4.9c1.2-0.8,3-1.7,3.8-3
		c0.1-0.1,0.2-0.2,0.3-0.3c0.1-0.1,0.2-0.2,0.3-0.4c3.5-1.7-1.4-6-2.8-7.6c-1.1-1-2.1-3.6-4-2.8c-0.5-0.6-0.9-1.2-1.7-1.5
		c-1.4-0.5-2.3,1.2-2,2.4c1,2.4,2.2,4.8,3.4,7.1c-1.1,0.6-2.1,1.3-3.1,2c-1.8,1.1-3.8,1.7-5.6,2.7c-1.4,0.8-2.7,1.7-4,2.6
		c-2.3,1.4-4.7,2.6-7,4c0-1.2,0.2-3.1-1.3-3.4c0.7-3.9,1.4-7.8,2-11.7c0.1-1.7,1.4-4.8-0.4-5.9c-0.4-0.2-0.8-0.2-1.2,0
		c-1-2-2.9-1.2-4.3-0.2c-0.2-0.2-0.4-0.4-0.7-0.5c-0.8-0.3-1.4,0.1-2,0.6c-0.3-0.8-1.4-1-2-0.3c-0.5,0.8-0.7,1.7-1.1,2.5
		c-0.8,2.3-1.6,4.7-2.4,7.1c-0.9,3-1.4,6-2.3,9c-0.6,1.9-1.4,3.6-2,5.1c-3-0.6-6-1.1-9-1.3c-2.9-0.2-5.6-1.1-8.5-1.4
		c-1.7-0.2-3.3-0.4-5-0.6c-4.8-0.5-9.6-0.4-14.4-1.1c-4.9-0.8-9.6-2.5-14.6-2.7c-4.4-0.2-8.8,0.5-13-0.6c-4.9-0.9-9.9-1-14.5-3
		c-0.1-0.2-0.2-0.4-0.4-0.6c2-2.4,4.1-7.1,5.4-8.2c2.7-3.7,5.6-7.4,7.9-11.3c0.2-0.7,0-1.4-0.4-1.9c4.8,0.9,9.6,1.7,14.4,2.3
		c5.2,0.7,10.3,1.2,15.6,1.5c4.2,0.3,8.4,0.8,12.6,1c13,1,26,1.9,39,2.5c3.9,0.2,7.4,0.6,11.2,0.8c2.7,0.1,5.5,0.2,8.2,0.6
		c5.6,0.4,11.2,1.4,16.8,1.9c10,1.1,20.1,0.9,30.1,0.8c4.1-0.2,8.2-0.2,12.1-1.3c3-0.8,5.8-2.2,8.6-3.5c2.3-1.1,4.7-2,6.6-3.7
		c1.8-1.5,3-3.8,5.3-4.8c2.4-0.8,4.9,0.4,7.4,0.5c4.5,0.4,8.9,0.1,13.4,0.1c3.3,0.2,6.6,0.3,9.8,0.8c0.4,0.1,0.8,0.4,1,0.7
		c0.1,0,0.2,0,0.3-0.1c1.1-0.4,2.1,0.3,2.4,1.4C780.2,339.2,780.3,342.2,780.4,345.1z M700,384.8c4.5-7.3,3.9-15.5-4.8-18.9
		c-4.3-1.9-9-0.3-13.2,1c-5.1,0.8-9.9,2.6-14.3,5.4c-5.3,3.7-11.6,14.1-10.5,20.7c1.8,4.5,5.5,10,10.7,10.4
		c4.4-0.1,8.1-2.2,12.1-3.9c3.8-1.5,7.5-3.3,10.6-6.1C694,390.7,697.7,388.4,700,384.8z M635.4,398.9c0.8-0.9,1.7-2,1.5-3.3
		c-0.8-3.2-2.2-6.3-3-9.5c-0.8-4.1-2.7-5.1-6.7-5.3c-3.6-0.2-7.2-0.1-10.8-0.3c-2-0.1-4-0.3-6-0.3c-0.3,0-0.6,0.1-0.8,0.2
		c-0.6,0-1.1-0.1-1.5-0.2c-3.9-0.3-7.7-1-11.5-1.7c-5.9-0.9-11.9-1.1-17.8-2.2c-5.7-1.5-11.6-2.2-17.4-3c-23-3.6-46.1-8.2-69.5-8.2
		c-15.2-2.9-10.1-0.8-21,7.6c-5.2,4.1-8.4,10-13.4,14.2c-2.5,3.2-8,6.3-7.2,10.8c0.6,2.2,1,5.4,3.2,6.5c0.3,0.1,0.6,0,0.8-0.1
		c2.9,0.8,5.9,1.1,9,1.3c1.8,0.2,3.5,0.5,5.3,0.7c2.6,0.3,5.3,0.3,7.9,0.8c6.5,1.2,13.2,1.2,19.8,1.7c4.6,0.3,9.2,0.8,13.8,1.4
		c3.5,0.4,7.1,0.6,10.6,1.1c9.1,1.7,18.2,3.3,27.3,4.8c7.2,1.3,14.4,2.9,21.7,3.7c8.8,1.2,17.8,1.8,26.5,3.5c4.1,1,8.4,1.3,12.5,2.7
		c2.3,0.8,3.2-2.2,4.6-3.5c2-2.4,4.4-4.6,6.7-6.6c2.6-2.6,4.8-5.5,7.6-8c1.7-1.7,3.6-3.2,5-5.1C633.4,401.4,634.4,400.1,635.4,398.9
		z"/>
	<path class="st6" d="M398.2,399c-1-4.3-2.4-8.4-3.5-12.5c-0.5-3.5,2.8-3.1,4.9-4.5c0-0.6,0.4-1.2,0.9-1.5c0.9-0.7,1.7-1.4,2.6-2.1
		c2.2-1.8,4.2-3.8,6.6-5.2c0.5-0.3,1.1-0.6,1.6-0.8c0.6-0.3,1.3-0.8,2-0.5c1.3,0.5,1.5,2.5,0.4,3.3l0,0c-5.6,3.2-9.4,8.9-15.5,11.3
		c1.3,3.7,2.2,7.5,3,11.4c0.2,0.9-0.1,2-1.1,2.3C399.3,400.6,398.4,399.9,398.2,399z"/>
	<path class="st8" d="M636.9,395.6c0.2,1.3-0.6,2.4-1.5,3.3c-1,1.2-2,2.5-2.9,3.8c-1.4,2-3.3,3.5-5,5.1c-2.8,2.5-5,5.4-7.6,8
		c-2.4,2.1-4.7,4.2-6.7,6.6c-1.3,1.3-2.3,4.3-4.6,3.5c-4-1.4-8.3-1.7-12.5-2.7c-8.8-1.7-17.7-2.2-26.5-3.5
		c-7.3-0.8-14.5-2.4-21.7-3.7c-9.1-1.5-18.2-3.2-27.3-4.8c-3.5-0.6-7.1-0.7-10.6-1.1c-4.6-0.6-9.2-1.1-13.8-1.4
		c-6.6-0.6-13.3-0.5-19.8-1.7c-2.6-0.5-5.2-0.5-7.9-0.8c-1.8-0.2-3.5-0.5-5.3-0.7c-3-0.2-6-0.4-9-1.3c-0.2,0.1-0.5,0.2-0.8,0.1
		c-2.2-1.1-2.5-4.3-3.2-6.5c-0.7-4.6,4.7-7.7,7.2-10.8c5-4.3,8.2-10.2,13.4-14.2c10.9-8.4,5.8-10.5,21-7.6
		c23.4-0.1,46.4,4.5,69.5,8.2c5.8,0.8,11.7,1.5,17.4,3c5.9,1.2,11.9,1.3,17.8,2.2c3.8,0.7,7.6,1.5,11.5,1.7c0.4,0.1,0.9,0.2,1.5,0.2
		c0.2-0.2,0.5-0.2,0.8-0.2c2,0,4,0.2,6,0.3c3.6,0.2,7.2,0.1,10.8,0.3c4,0.2,5.9,1.2,6.7,5.3C634.7,389.3,636.1,392.4,636.9,395.6z"
		/>
	<path class="st8" d="M695.2,365.8c8.6,3.5,9.3,11.7,4.8,18.9c-2.3,3.6-6,6-9.3,8.6c-3.1,2.7-6.8,4.5-10.6,6.1
		c-4,1.8-7.7,3.8-12.1,3.9c-5.3-0.4-8.9-5.9-10.7-10.4c-1.1-6.7,5.2-17,10.5-20.7c4.4-2.8,9.2-4.6,14.3-5.4
		C686.2,365.5,690.9,363.9,695.2,365.8z"/>
	<path class="st6" d="M472.5,335.4c0.5,0.7,0.5,1.8-0.1,2.4c-2.1,1.7-4.5,3.2-6.7,5c-1.4,0.9-3.6,2.9-5.2,2.1
		c-0.6-0.3-0.8-1-0.7-1.6c0.1-0.5,0.3-1,0.7-1.3c0.6-0.6,1.2-1.6,2.1-0.6c3-1.9,5.1-5.1,8.5-6.5
		C471.6,334.7,472.2,334.9,472.5,335.4z"/>
	<path class="st9" d="M758.9,165.3c0.2,7.8-0.1,15.5-1.1,23.2c-0.1,12.3-1.9,24.5-2.2,36.8c0.2,9.4-0.6,18.9-1.2,28.2
		c-0.9,13-1.4,26-2.3,39c-0.9,3.7-0.5,25.3-2.6,32.3c0.3,0.6,0.3,1.3,0,1.9c-0.5,0.9-1.3,1.4-2.1,1.9c-2.2,1.5-4.2,3.1-6.2,4.8
		c-1.3,1-2.5,2.1-3.7,3.1c-2,1.8-3.8,3.9-6.2,5c-2.5,1.1-5.3,1.5-8,1.9c-4.6,0.8-9.2,1.3-13.8,1c-12.1-0.7-24.3-0.3-36.4-0.8
		c-9.2-0.7-18.5-1.1-27.7-1.7c-6-0.3-12-0.5-18-0.9c-8.6-0.5-17.1-1.1-25.7-2.1c-7.6-0.6-15.3-0.9-22.9-2.1
		c-4.8-0.6-9.6-1.4-14.4-2.2c0.1,0.1,0.1,0.1,0.2,0.2c0.4,0.5,0.6,1.2,0.4,1.9c-2.3,3.9-5.2,7.6-7.9,11.3c-1.3,1.1-3.4,5.8-5.4,8.2
		c0.2,0.2,0.3,0.4,0.4,0.6c4.6,2.1,9.6,2.2,14.5,3c4.3,1.1,8.7,0.4,13,0.6c5,0.1,9.7,1.9,14.6,2.7c4.8,0.8,9.6,0.6,14.4,1.1
		c1.7,0.2,3.3,0.4,5,0.6c2.9,0.3,5.6,1.3,8.5,1.4c3,0.2,6,0.7,9,1.3c0.6-1.5,1.4-3.1,2-5.1c0.9-3,1.4-6,2.3-9
		c0.7-2.4,1.5-4.7,2.4-7.1c0.3-0.8,0.6-1.8,1.1-2.5c0.5-0.8,1.6-0.5,2,0.3c0.5-0.5,1.2-0.9,2-0.6c0.3,0.1,0.5,0.3,0.7,0.5
		c1.4-1.1,3.2-1.8,4.3,0.2c0.4-0.2,0.8-0.2,1.2,0c1.8,1.1,0.5,4.2,0.4,5.9c-0.6,3.9-1.4,7.8-2,11.7c1.5,0.3,1.3,2.2,1.3,3.4
		c2.3-1.4,4.8-2.6,7-4c1.3-0.9,2.6-1.8,4-2.6c1.8-1,3.9-1.6,5.6-2.7c1-0.7,2-1.4,3.1-2c-1.2-2.3-2.4-4.7-3.4-7.1
		c-0.3-1.2,0.7-2.9,2-2.4c0.7,0.3,1.2,0.9,1.7,1.5c1.9-0.8,2.8,1.8,4,2.8c1.4,1.6,6.3,5.9,2.8,7.6c-0.1,0.1-0.2,0.3-0.3,0.4
		s-0.2,0.2-0.3,0.3c-0.8,1.3-2.7,2.2-3.8,3c-2.6,1.7-5.1,3.6-7.9,4.9c-1.5,0.7-3,1.3-4.5,2c-1.4,0.5-2.7,1.5-4.2,1.6
		c-0.8-0.1-1.2-1-1.2-1.7c-1.3,0.7-2.5,1.4-3.8,2.1c-1.3,0.6-2.5,1.9-4,1.8c-0.1,0.3-0.3,0.6-0.6,0.8c-0.4,0.4-1,0.6-1.5,0.4
		c-0.9,0.8-1.8,2.1-3.1,2c-0.9-0.1-1.3-1.1-1.2-1.9c0.1-0.6,0.5-1.2,0.8-1.7c0.7-1.2,1.4-2.3,2-3.5c0.6-3.2,1.1-6.4,1.8-9.6
		c0.8-3.3,1.6-6.7,1.5-10.2c-2.3,1-2.3,6.2-3.1,8.4c-0.6,2.1-1.2,4.3-1.6,6.4c-0.6,3.3-1.1,6.6-1.6,9.9c-0.2,1.7-1,4.4-3.2,3.8
		c-2.4-0.9-3.8-1.7-4.6-2.7c-6.6-1.1-13.3-1.4-20-2.2c-7.2-1.1-14.4-2.6-21.6-3.3c-5-0.5-10-0.1-15-0.8c-6-1-11.8-2.6-17.9-3
		c-0.2,0.2-0.4,0.4-0.7,0.5s-0.7,0.1-1,0l0,0c-5.2-2.3-14-2-7.9-9.7c2.2-3.4,3.9-7.1,5.8-10.7c1.2-2,2.1-4.6,4.2-5.9
		c0.1-0.1,0.2-0.3,0.2-0.4c0.1-0.1,0.2-0.3,0.3-0.4c-0.4-0.9,0.3-1.6,1-2.1c0.9-1.4,2.8-0.7,2.8,0.8c0.5-0.4,1-1,1.6-1.3
		c0.1,0,0.1-0.1,0.2-0.1c-5.6-1-11.3-2.1-16.9-3.4c-3.7-0.7-7.5-1.4-11.2-2.3c-8.2-1.5-16.5-1-24.7-1.6c-10-0.6-19.9-2.7-29.9-3.7
		c-4.9-0.3-9.8-0.9-14.7-1.3c-4.5-0.4-9-1.2-13.5-2c-4.3-0.4-8.7-0.8-12.9-1.8c-3.1-0.7-6.1-2-9.2-2.6c-0.4,0.1-0.7,0.1-1.1,0
		c-1-0.3-1.4-1.8-0.8-2.7c0.1-0.3,0.4-0.5,0.7-0.6c-0.5-5.6-0.9-11.2-1.3-16.8c-0.6-5.9-1.2-11.9-1.4-17.8
		c-0.6-12.9-1.8-25.9-2.4-38.7c-0.6-12.6-0.5-25.2-0.4-37.8c-0.1-7.7,0.5-15.4,0.5-23.1c0.2-6.3,0.1-12.7,0-19
		c0.2-5.6,0.2-11.2,0.1-16.8c0-3.3,0-6.7,0.4-10c0-4.1,0.4-8.2,0.3-12.3c-0.2-5.1-0.5-10.1-0.5-15.2c-0.2-7.1-0.5-14.3,0.6-21.3
		c0.3-1.3,0-2.6,0.2-3.9c0.1-1,0.3-1.9,0.7-2.9c0.3-1,0.9-2.2,2.1-2.1c2-2.4,4.7-4.1,7.3-5.9c3.3-2.2,6.9-3.9,10.6-5.2
		c-0.1-0.6,0.1-1.3,0.6-1.5c3.1-1.1,6.5-0.6,9.8-0.7c1.6,0,3.2-0.1,4.8-0.2c2,0,4,0.2,5.9,0.3c0.2-1.6,2-0.9,3.2-0.9
		c5.7,0.3,11.4,0.2,17.1,0c8.5-0.1,17,0.3,25.5,0.2c5.5-0.2,10.9-0.5,16.4-0.5c11.4,0.7,22.9,0.2,34.3,0.7c6.7,0.5,13.3,0.7,20,0.6
		c6.5,0,13,0.7,19.4,1.4c8,1,15.9,2.5,23.9,3.2c11.7,0.6,23.3,0.9,35,1.8c8.7,0.3,17.3,1.2,25.9,2.3c9.9,1,19.7,3.2,29.5,5
		c5.7,0.9,11.4,1.9,17,3.2c3,0.5,5.9,1.5,8.7,2.6c2.5,0.9,5.1,1.5,7.7,2c1.3,0.4,2.8,0.4,4,1.1c0.7,0.4,1,1.2,0.9,2c0,0,0,0,0,0.1
		c3.3,5.7,1.6,12.6,1.8,18.8c-0.1,5.2-0.3,10.3-0.3,15.5C759.6,135.2,759,150.3,758.9,165.3z"/>
	<path class="st6" d="M758.1,338.2c-4.1-0.5-7.4-3.6-11.4-4.2c-0.5-0.1-1.1,0-1.6,0c-2.1-0.9-0.7-3.4,1.2-3.4
		c4.2-0.8,7.4,2.8,11.5,3C760.9,333.7,761.6,338.2,758.1,338.2z"/>
	<path class="st6" d="M719.1,347.6c-4.9-0.3-9.8-0.3-14.7-0.7c-3.5-0.4-7.1-1-10.6-0.6c0,0,0,0,0.1,0c-1.7,0.1-3.3,0.3-5,0.6
		c-1.1,1-2.5-0.3-2.1-1.6c0.3-1.3,2-1.5,3.2-1.8c1.6-0.3,3.2-0.5,4.8-0.7c3.1-0.4,6.2-0.1,9.3,0.3c3.2,0.2,6.4,0.2,9.6,0.1
		c3.3,0,6.5,0.1,9.8-0.2c2,0,4-0.1,5.9,0.2c1.7,0.4,1.9,3.1,0.2,3.8c-1.7,0.6-3.6,0.4-5.4,0.4C722.5,347.5,720.8,347.7,719.1,347.6z
		"/>
	<path class="st6" d="M682.7,347.6c-1.9-0.2-10.6,0.4-7.5-3.3c5-0.4,10.2,0.2,15.3,0.3c0.7,0,1.2,0.7,1.2,1.4c0,0.7-0.5,1.4-1.2,1.4
		C687.9,347.6,685.3,347.7,682.7,347.6z"/>
	<path class="st6" d="M723.5,346.2c-0.2-1.9,2.1-2.2,3.5-2.4c1.6-0.1,3.4-0.9,4.9-0.2c1,0.8,0.8,2.7-0.6,3c-1.1,0.2-2.1,0.4-3.2,0.5
		c-1.1,0.1-2.3,0-3.4,0.2C724.1,347.4,723.5,346.8,723.5,346.2z"/>
	<path class="st9" d="M643.2,360.2c-0.8-0.3-1.2-1.1-1.2-1.8l0,0c0.1-2.9,0.8-5.7,1.5-8.4c0.7-1.8,0.7-7.6,3.6-6.6
		c0.6-1,2.1-1.1,2.7,0c1.5,0,2.2,2.1,1.3,3.2c-0.9,2.2-1.5,4.5-2.2,6.8c-0.7,1.5-1.3,7.8-3.8,5.9C644.9,360,644,360.5,643.2,360.2z"
		/>
	<path class="st9" d="M640.3,364.7c-0.7-0.1-1-0.8-0.9-1.5c0.5-5,1-10.1,2-15c0.6-3.2,3.7-1.9,2.3,0.3c-1,5-1.3,10.1-2.1,15.1
		C641.5,364.3,641,364.9,640.3,364.7z"/>
</g>
<path class="st2" d="M724.8,113.3c1.6,50.8,1,101.8-1.9,152.6c-0.9,18-3.5,36.1-4.6,54.1c0.3,1.8-1.5,6.5-1.4,9.2c0,0.1,0,0.3,0,0.4
	s0,0.1,0,0.2l-0.1-0.1l0,0l-0.1-0.1l0,0c-0.1,0-0.1-0.1-0.2-0.1l0,0h-0.1h-0.1c-0.1,0-0.2,0-0.3,0c-1.6-0.1-3.2-0.2-4.9-0.3
	c-3.6-0.1-7.1-0.3-10.7-0.6c-11.4-1.1-22.7-2.8-34.1-3.5c-11.7-1.3-23.4-2.3-35.1-4c-8.5-1.4-17.1-2.2-25.6-3.5
	c-11.6-1.9-23.2-2.9-34.9-4.2c-5.8-0.4-11.7-0.3-17.5-0.5c-8.8-0.4-17.5-0.1-26.3-0.8c-12.7-1.2-25.1-4.5-37.8-5.4
	c-5.7-0.7-11.5-0.7-17.3-0.9c-5.5-0.2-10.6-0.9-16.2-1.2c-5.2-0.1-10.4-0.7-15.6-0.6c-0.1,0-0.2,0-0.3,0c-0.1,0-0.2,0-0.3,0
	c-0.1,0-0.1,0-0.2,0s-0.3,0-0.5,0c0.1-0.1,0.1-0.1,0.2-0.2c0,0,0-0.1,0.1-0.1l0,0c0-0.1,0.1-0.2,0.1-0.2c0-0.1,0-0.1,0-0.2
	s0-0.1,0-0.2s0-0.1,0-0.2v-0.1c-0.4-6.4-0.7-12.6-0.8-19.3c-0.1-13.6-0.6-27.1-0.7-40.6c-1.4-50.1-0.7-100.1,0.7-150.1
	c0-0.1,0-0.2,0-0.3c0-0.1,0-0.1,0-0.2c0.1,0,0.2,0,0.3,0c0.1,0,0.2,0,0.3,0l0,0c0.1,0,0.2,0,0.3,0c0.9-0.1,1.9-0.3,2.8-0.4
	c0.1,0,0.1,0,0.2,0s0.2,0,0.3,0l0,0c0.1,0,0.2,0,0.3,0c0.1,0,0.2,0,0.3,0c0.1,0,0.2,0,0.3,0c0.4,0,0.7,0,1,0.1
	c19.5,2,39.1,3.4,58.7,3.2c21.2,2.1,42.3,0.4,63.5,1c29.3,3.9,59,3,88.4,5.3c0.7,0,1.4,0.1,2.2,0.1c1.3,0.1,2.5,0.1,3.8,0.2
	c0.3,0,0.5,0,0.8,0c1.6,0.1,3.2,0.2,4.8,0.3c0.3,0,0.5,0,0.8,0.1c0.3,0,0.6,0,0.9,0.1c0.3,0,0.6,0.1,1,0.1c2,0.2,4,0.3,5.9,0.5
	c0.4,0,0.7,0.1,1.1,0.1c1.5,0.1,3,0.3,4.4,0.5c0.4,0,0.7,0.1,1.1,0.1c1.9,0.2,3.8,0.4,5.7,0.7c0.4,0,0.7,0.1,1.1,0.1
	c0.3,0,0.6,0.1,0.9,0.1c0.3,0,0.5,0.1,0.8,0.1c0.2,0,0.4,0.1,0.6,0.1c0.5,0.1,1,0.1,1.5,0.2c7.3,1,14.6,2.1,21.9,3.2
	c0.4,0.1,0.7,0.1,1.1,0.2c0.4,0.1,0.7,0.1,1.1,0.2c0.4,0.1,0.7,0.1,1.1,0.2c0.4,0.1,0.7,0.1,1.1,0.2c0.4,0.1,0.7,0.1,1.1,0.2
	c1.4,0.2,2.9,0.4,4.3,0.7c0,0.1,0,0.2,0,0.2c0,0.3,0.1,0.6,0.1,1c0,0.2,0,0.3,0.1,0.5c0,0.1,0,0.2,0,0.3c0,0.1,0,0.2,0,0.3
	c0,0.1,0,0.2,0,0.3c0,0.2,0,0.3,0,0.5C724.8,112.6,724.8,113,724.8,113.3z"/>
<path d="M306.6,135c2.9,1.7,4.3,5.5,0.4,6.9c-4.1,1.1-8.4,1.2-12.6,0.8c-2.3-0.3-5-0.6-6.7-2.4c-1.8-2.1-1-4.5,0.8-6.3
	c2.7-2.3,7.4-1.2,10.7-1C301.7,133.2,304.4,133.5,306.6,135z M298.6,136.7c-0.3,0-0.6-0.1-1-0.1c-1.2-0.1-2.5-0.2-3.7-0.2
	c0.5,0.1,0.9,0.1,1.4,0.2C296.4,136.6,297.5,136.6,298.6,136.7z"/>
<path d="M347.5,96.7c4.1,1.9,1.7,7.2,1.3,10.5c-0.5,3-2.4,11.2-6.7,9.9c-2.9-1.3-2.1-7.2-2.1-9.8c0.3-3.7,0.5-9.3,4.1-11.4
	C345.2,95.5,346.8,95.7,347.5,96.7z"/>
<path d="M380.3,125.1c0.1,4.6,0.6,9.3-0.9,13.7c-0.8,2.2-2.6,3.9-4.4,5.5c-1.3,1.2-2.6,2.2-4,3.3c0.3,0.5,0.4,1.1,0.2,1.8
	c-1.6,5.8-3.8,11.6-7.2,16.6c-3.5,5.1-10.4,4.8-15.8,4.6c-3.9-0.1-7.5-1.2-11.2-2.2c-1.8,5.1-3.7,10.2-6.9,14.6
	c-2.1,2.6-4.4,6-8,6.4c-3-0.1-5.9-1.1-8.8-1.6c-4.5-0.9-9-1.7-13.3-3.2c-2,4.6-4.1,8.8-6.8,12.9c-2.6,4.2-6.1,8.2-10.9,9.8
	c-2.9,0.9-5.9,0-8.7-0.5c-2-0.4-4-0.9-6-1.6c-3-0.9-5.7-2.6-8.7-3.2c-6.2,5.8-9.8,15.8-19.4,16.4c-5.3,0-10.3-2-15.3-3.6
	c-1.7-0.5-3.4-1-5.1-1.5c-0.6-0.1-1.3-0.4-1.8,0.1c-4.1,3.1-6,8.2-9.7,11.6c-2.9,2.9-7.1,4.3-11.1,3.4c-8.6-1-12.6-3.1-19.1-8.9
	c-0.1-0.1-0.2-0.1-0.3-0.2c-3.6,0.4-7.2,0.6-10.8,0.5c-4.4,0.1-8.7-0.1-12.9-1.6c-1.7-0.4-1.6-3.3,0.2-3.4c0.9,0.1,1.9,0,2.8,0
	c4.3,0.1,8.6,0.5,13,0.6c5.1,0.1,10.2-0.8,15.3-0.9c4.9-0.5,9.7-1.4,14.5-2.1c2.3-0.3,4.5-0.8,6.7-1.4c2.6-0.7,5.1-1.1,7.7-1.8
	c4.2-1.2,8.5-2.5,12.7-3.5c4.4-1.2,8.9-2.3,13.3-3.7c3.2-1,6.1-2.5,9.1-3.9c3.1-1.4,6.5-2.3,9.7-3.5c2.6-0.9,5.2-2.1,7.7-3.2
	c5.6-2.2,11.3-4,16.8-6.4c2.2-0.9,4.5-2,6.7-2.9c3.2-1.3,6.5-2.1,9.6-3.4c2.6-1.2,5.1-2.6,7.7-3.7c2.5-1.1,5.1-2,7.6-3.1
	c6.1-3,12.4-5.5,18.8-7.7c2.1-0.7,4.2-1.4,6.2-2.3c3.5-1.6,6.8-3.7,10.2-5.3c5.9-2.9,11.4-6.7,16.7-10.6c2.1-1.4,4.2-2.9,6.1-4.6
	c4.6-3.7,4.1-7.3,4-12.7c-0.1-3.8-0.2-7.5-0.9-11.3c-1.1-5.8-3.5-11.3-6.5-16.3c-1.2-2.1-2.3-4.3-3.6-6.4c-2.2-3.2-4.8-6.2-7.7-8.9
	c-4-3.5-8.7-6.1-12.9-9.4c-2.5-2.1-5.2-4-8.3-5.4c-5.1-2.2-10.8-3.1-16.3-2.8c-2.5,0.3-4.9,0.9-7.3,1.4c-6.4,1.4-12.9,3.1-19.1,5.2
	c-0.2,0.1-0.4,0.1-0.6,0.2c-2.2,11.9-10.7,16.4-20.7,21.3c-4.5,2.4-9.1,4.8-13.9,6.3c-5.7,1.7-11.6,3-17.6,2.5
	c-1.4-0.1-2.9-0.4-4.3-0.7c-0.7-0.1-1.2-0.9-1.2-1.6c0-0.8,0.5-1.6,1.4-1.6c3.2-0.2,6.5,0,9.7-0.2c3.1-0.3,6.7-1,9.6-1.8
	c5.7-1.5,10.9-4.4,16.1-7.1c6.4-3.2,13.4-6.6,16.5-13.5c0.9-1.8,1.4-3.6,1.7-5.5c-2.6,3-6.4,5.2-9.7,7.1c-6.1,3.5-12.3,7-19.2,8.6
	c-8.3,2.5-17,4-25.6,4.4c-3.3,0.3-6.6,0.7-9.9,0.4c-2.7-0.3-12.2-1.2-12-4.9c-1.5,0.1-1.6-1.8-1-2.8c1.8-2.9,4.5-5.2,6.8-7.7
	c3.7-3.6,6.8-7.8,10.5-11.3c2.5-2.5,5.4-4.7,8.4-6.4s5.8-3.6,8.6-5.6c5.6-3.6,19-8.9,28.8-9.2c-0.2-0.2-0.3-0.3-0.5-0.5
	c-11.1-10.9-26.3-3.2-37.3,3.7c-4.1,2.4-7.2,5.8-10.1,9.5c-3.5,3.9-7.7,7.1-11.2,10.9c-2.4,2.6-4.7,5.5-6.3,8.7
	c-0.3,1.1-1.3,3.1-2.3,1.5c-0.2-7.9,9.9-15.6,15-21c5.4-6.3,10.8-12.7,18.6-16.2c2.3-1.5,4.8-2.8,7.4-3.9c-4.9-1-10.1,0.5-14.6,2.5
	c-3.6,1.7-6.8,4-10,6.3c-3.7,2.6-7.2,5.6-9.9,9.3c-1.6,2.1-2.9,4.4-4.2,6.7c-1,1.4-3,6.6-5,5.1c-1.6-1.3,0-3.3,0.7-4.6
	c1.2-2,2.4-4,3.7-6c3.4-5.6,8.2-10.1,13.5-13.7c5.3-3.8,10.9-7.4,17.3-8.7c0.3-0.1,0.6-0.1,0.9-0.2c-0.5-0.8-1-1.7-1.5-2.5
	c-2.2-3.4-5.1-6.4-7.9-9.3c-2.9-2.9-5.7-6-9.2-8.3c-3.9-2.6-8.4-4-12.8-5.7c-7-2.6-13.8-4.1-21.1-4.9c-10.6-0.5-21.6,1.6-30.9,6.7
	c-5,3.1-7.1,9.3-9,14.6c-1.1,3-2.1,6-3,9.1c-0.2,0.8-0.5,1.6-0.7,2.4c3.4-0.6,6.9-1,10.5-0.9c1.5,0,2.9,0.1,4.3,0.3
	c0.6,0.1,1.1,0.7,1.1,1.3c0.1,0.7-0.2,1.6-0.9,1.7c-1,0.3-2,0.6-3,0.6c-2.8,0.2-5.7,0.1-8.5,0.4c-3.2,0.3-6.4,1-9.5,1.8
	c-6.5,1.8-13,3.9-19.4,6c3.1,1.4,6.3,2.7,9.2,4.4c3.2,1.7,6.2,3.8,9.2,5.9c0.9,0.7,1.9,1.3,2.9,2c3.8-0.9,7.7-1.6,11.6-1.2
	c2.3,0.3,10.5,2.4,11,5.4c1.2,0,2.5,0.2,3.7,0.4c5,0.7,10,1.6,14.5,3.8c3.9,1.8,6.7,5.2,8.6,8.9c0.6,1.5,2.3,3.6,1.9,5.2
	c5.9,3.9,10.9,10.8,9.8,17.7c-0.1,0.1-0.1,0.3-0.2,0.4c1.1,2.5,1.3,7.5,1.3,9.2c0,5.8-3.2,9.1-7.4,12.4c-3.9,3.2-7.1,6.5-11.1,9.4
	c-2.8,2.1-5.9,3.6-9.1,4.9c-4.6,2.2-9.5,3.8-14.4,5.1c-3.2,0.9-6.4,2.1-9.6,2.8c-5.1,1.1-10.3,1.7-15.6,2.1
	c-3.1,0.2-6.2-0.2-9.3-0.1c-0.4,0-0.8,0.1-1.1,0.2c-0.6,0-1.1-0.5-1.3-1.1c-0.9-3.7,8.3-2.6,10.5-2.7c3.5,0,7-0.6,10.5-1
	c4-0.5,7.9-1.5,11.8-2.8c4.9-1.5,9.8-2.8,14.5-4.8c3.4-1.5,6.7-2.8,9.8-4.8c4-2.6,7.3-5.9,10.8-9c2.4-2.3,5.5-4,7.1-7.1
	c1.2-2.8,0.9-6,0.4-9c-5,7.2-11.8,13.3-19.5,17.3c-7.8,4.8-16.6,7.3-25.1,10.4c-12.4,5.3-26.2,6.3-39.5,6.5
	c-3.2-0.5-19.1-0.6-18.5-4.6c-7.3-0.9,12.8-15,13.9-18c19.1-21,46.8-43.5,77-35.7c0.1,0,0.2,0.1,0.3,0.1c-1.4-2.7-3.1-5.4-5.7-7.1
	c-2.3-1.4-4.9-2.4-7.5-3.1c-3.6-0.9-7.2-1.4-10.9-1.8c-2.6-0.1-5.2,0.4-7.8,1.1c-5.7,1.5-10.9,4.2-16.1,6.9
	c-7,3.8-13.7,8.2-20.1,12.9c-3.7,2.6-6.5,6.2-9.7,9.5c-4.1,4.2-8.8,7.9-11.8,13.1c-2.3,3.8-4.2,7.7-6.3,11.6c-0.6,1-1.1,2-1.7,3.1
	c-0.3,0.7-0.8,1.5-1.7,1.2c-2.1-1,0.7-4.6,1.2-6.1c2.2-4.5,4.2-9.2,7-13.5c3.8-5.9,9.5-10,14-15.2c5.4-6.4,12.8-10.7,19.8-15.3
	c3.2-2.2,6.6-4.1,10.1-5.9c5.6-3,11.4-5.6,17.7-6.8c-0.2-0.1-0.5-0.3-0.8-0.4c-3-1.3-6.2-2-9.4-1.7c-5,0.7-10,1.5-14.6,3.4
	c-4,1.9-7.7,4.4-11.5,6.7c-3,2-5.7,4.4-8.4,6.8c-2.3,2.1-4.6,4.2-6.8,6.3c-3.1,2.9-6.4,5.7-8.8,9.2c-4.2,6.4-8.4,12.5-11.7,19.4
	c-0.6,1.3-1.2,2.7-1.7,4.1c-0.1,0.9-1,1.9-1.8,1.1c-1.6-1.6,2.4-8.7,3.2-10.7c1.5-3,3.3-5.9,5.1-8.7c1.9-3,3.6-6,5.7-8.9
	c2.1-2.8,4.7-5.1,7.3-7.5c6.3-5.8,12.5-12,20.1-16.3c4-2.4,7.9-5.1,12.4-6.4c-2.9-1.8-5.6-3.8-8.6-5.3c-3.6-1.9-7.3-3.4-11-5.1
	c-0.8-0.4-1.7-0.8-2.5-1.3c-0.5,0-0.9-0.1-1.2-0.6c-2.5-1.2-5.1-2.3-7.9-3c-6.7-1.8-13.7-2.7-20.5-4c-5.6-1.1-11.2-1.6-16.8-1.4
	c-6.2,0-12.1,2.1-17.8,4.5c-3.9,1.6-8,2.8-11.6,4.9c-2,1.3-3.7,2.9-5.5,4.4c-3.3,2.8-6.8,5.4-9.7,8.7c-3.4,4-5.6,8.8-8,13.4
	c-2.7,5.4-6.1,10.4-8.2,16.1C4.5,104,3,120.2,4.8,131.4c1.3,5.7,3.2,11.2,5.8,16.4c2.2,4.9,4.3,9.8,6.9,14.6c1.1,2.1,2,4.3,2.8,6.6
	c0.5,1.1-0.3,2.8-1.6,2.5c-1.4-0.2-2.9-4.4-3.6-5.6c-2.5-4.7-4.8-9.4-6.9-14.3c-3.1-6.4-5.8-13-7.1-19.9c-1.2-7.2-0.7-14.6,0-21.9
	c1-10.7,4.6-21,10.4-30.1c4.4-7.6,7.6-16.2,14.4-22.1c2.6-2.4,5.4-4.5,8.1-6.8c1.4-1.2,2.8-2.4,4.3-3.4c3-1.9,6.5-3,9.8-4.3
	c9.2-3.9,15.6-6.4,25.9-5.8c5.4,0,10.6,1,15.9,2c6.9,1.2,13.9,2.3,20.6,4.4c2.2,0.7,4.3,1.7,6.3,2.8c0.8-0.3,1.5-0.5,2.1-0.8
	c3.2-1.2,6.4-2.3,9.6-3.4c4.9-1.6,9.9-3.3,15-4.5c0-0.7,0.2-1.4,0.3-2c0.5-2.4,1.1-4.8,1.9-7.1c2.3-6.3,4.1-13.1,8.6-18.2
	c2.5-2.6,5.7-4.2,9-5.4c3.1-1.2,6.2-2.3,9.4-2.9c5-1,10.1-1.6,15.2-1.6c8.2,0.3,16.4,2.2,24.1,5c4.6,1.8,9.5,3.3,13.6,6.2
	c4.1,2.8,7.5,6.5,10.9,10.1c1.7,1.8,3.3,3.5,4.9,5.4c1.6,2,3.2,4.1,3.9,6.6c0.1,0.3,0.1,0.6,0,0.9c3.4-0.2,6.8,0.3,9.7,2.2
	c8.6-2.3,17.5-1.1,24.6,6.2c0.9,0.5,1.5,1.8,1.6,3c1.8,0.3,3.4,0.9,4.7,1.8c5.2,3.7,7.2,10.3,8.1,16.3c0.1,0.8,0.2,1.5,0.1,2.2
	c0.1,0.4,0.1,0.8,0.1,1.1c0.1,1.3,0.1,2.6,0,3.8c6-2.9,19.7-5.8,22.5-6.5c4.5-1.2,9.3-0.9,13.8-0.1c2.2,0.4,4.4,0.9,6.6,1.8
	c4.3,1.6,8,4.4,11.6,7.3c3.7,2.7,7.8,5,11.3,8c3.5,3.1,6.6,6.7,9.2,10.6c1.3,2.1,2.4,4.3,3.6,6.5c1.1,2,2.3,3.9,3.2,5.9
	C378.7,110.8,380.2,117.9,380.3,125.1z M366.6,151.8c0.2-0.5,0.3-0.9,0.4-1.4c-3.7,2.6-7.4,5.1-11.3,7.4c-3.2,1.8-6.6,3.2-9.9,5
	c-1.5,0.8-3,1.6-4.5,2.4h0.1c5.6,1.2,11.7,1.8,17.3-0.1c1.4-0.6,2.5-1.8,3.3-3.1C364,158.8,365.5,155.4,366.6,151.8z M328.9,178.1
	c2-3.1,3.2-6.5,4.4-9.9c-6.4,2.4-12.7,4.9-18.8,7.8c-2.3,1-4.7,1.8-7,2.8c-1.4,0.6-2.8,1.3-4.2,2c0.3,0.1,0.5,0.2,0.8,0.2
	c4.4,1.1,8.8,1.8,13.2,2.9c1.8,0.3,3.7,1.2,5.5,0.6C325.5,183.1,327.2,180.5,328.9,178.1z M284.3,201.4c5.1-3.5,9.7-12,12.2-17.8
	c-6.9,2.2-13.2,5.5-19.9,7.9c-4.9,1.8-9.8,3.6-14.6,5.8c-0.4,0.2-0.9,0.4-1.4,0.5c1.8,0.5,3.5,1.2,5.2,1.9c2.8,1.2,5.8,2,8.8,2.5
	C278.4,203.1,280.9,203.7,284.3,201.4z M272.7,67.9c-0.2-0.8-0.8-1.3-1.3-1.9c-0.9-0.8-2-1.5-3.2-1.6c-0.7-0.1-1.4,0.2-2-0.1
	c-0.5,1.4-1,2.9-1.1,4.4c0.1,1.6,1.5,3.2,3.2,2.9C270.2,71.2,272.5,70,272.7,67.9z M261.4,53.1c0.1-0.1,0.2-0.2,0.3-0.3
	c-3.4,1.1-6.7,2.4-9.9,4.1c-2.9,1.5-5.2,3.4-8,5c-2.7,1.7-5.6,3.2-8.2,5.2c-2,1.6-3.9,3.4-5.6,5.2c-4.3,5-9.1,9.6-13.7,14.3
	c4.3,2,9,3,13.7,2.8c10.6-0.6,21.3-1.8,31.5-4.8c-4.2-3.5-7-9.6-7.6-14.7C253.2,63.4,257.5,57.8,261.4,53.1z M255.5,199.8
	c0.1-0.1,0.1-0.2,0.2-0.2c-2,0.7-4.1,1.4-6,2.2c-4.2,2-8.6,3.9-13.1,5.1c-4.1,1.2-8.1,2.2-12.2,3.3c1,0.3,2,0.6,2.9,0.9
	c5.1,1.4,10.7,4,15.9,1.7c2.2-1,4-2.7,5.5-4.5C250.9,205.4,253.2,202.6,255.5,199.8z M210.9,214.9c0.3-0.4,0.7-0.8,1-1.3
	c-3.1,0.8-6.2,1.5-9.2,2.2c-6.7,1.1-13.5,2.3-20.3,2.8c2.1,1.5,4.2,3,6.7,3.8c3.5,1,7.1,1.7,10.7,1.7
	C205.1,223.7,207.9,218.7,210.9,214.9z M165.9,109c2.6-0.6,4.3-4.8,4-7.2c-0.4-1.1-1.7-1.6-2.8-1.8c-0.9-0.1-1.7,0.5-2.5,0.2
	c-0.8,1-1.4,2.2-1.8,3.5c-0.2,0.8-0.5,1.6-0.4,2.4C162.8,107.7,164.4,109,165.9,109z M157.2,127.7c1.8-0.6,3.6-1.2,5.5-1.8
	c-6.8-3-11.9-10.7-12.7-17.8c-0.8-6.8,2.8-13.1,6.6-18.5c1-1.2,1.9-2.4,2.9-3.6c-24.4,8.4-40.7,30-59.5,46.6
	c6,1.5,12.2,2.6,18.4,2.4C131.6,134.6,145.1,133.1,157.2,127.7z"/>
<path d="M123.5,280.8c-7.3-0.1-14.5-0.6-21.8-1.2c-5.3-0.2-10.5-0.6-15.7-1.6c-7-0.9-14-2.3-20.9-4c-4.9-1.5-9.8-3.2-14.6-5.1
	c-7-2.7-12.9-7.3-19.1-11.4c-4.3-2.8-8.9-5.1-12.8-8.5c-4.2-3.6-7-8.4-9-13.4c-1.4-3.2-2.6-6.6-3.2-10.1c-0.6-3.4-0.7-6.9-0.6-10.3
	c0.1-7.1,0.9-14.2,2.8-21c1.6-6.4,3.7-12.7,6.1-18.9c0.7-1.9,1.6-3.8,2.4-5.6c0.3-0.5,0.5-1.2,1.1-1.5l0,0c0.5-0.3,1.2-0.2,1.7,0.3
	c1.1,1.1,0.3,2.7-0.2,3.9c-0.6,1.4-1.1,2.8-1.7,4.2c-2,5.3-3.7,10.7-5.2,16.2c-1.4,5.3-2.5,10.6-2.8,16.1
	c-0.3,5.3-0.6,10.6,0.3,15.8c0.8,4.2,2.5,8.1,4.3,11.9c1.5,3.3,3.8,6.3,6.5,8.7c3.8,3.3,8.3,5.5,12.5,8.3
	c5.3,3.5,10.4,7.5,16.2,10.1c2.6,1.2,5.4,2.1,8.1,3c2.8,1,5.5,2,8.4,2.8c7,1.7,14.1,3,21.3,4c5.9,1.1,12,1.2,18,1.7
	c3.6,0.3,7.2,0.6,10.9,0.7c9.5,0.3,19.1,0.7,28.5-0.2c7.1-0.7,14.2-1.2,21-3.1c5.4-1.5,10.9-2.1,16.4-2.8c5.3-0.7,10.3-2.3,15.5-3.2
	c5.3-1,10.7-1.4,15.9-2.6c3.5-0.8,6.9-1.6,10.4-2.2s6.9-1.1,10.4-1.7c4.9-0.9,9.7-2.2,14.6-3c9.5-1.7,18.8-4.1,28.1-6.8
	c7.3-2,14.7-3.6,21.7-6.5c4.2-1.7,8.4-3.3,12.6-5.1c10-4.6,17.8-12.9,24.5-21.4c2.5-3.2,4.6-6.6,6.4-10.2c2.4-4.6,4.8-9.3,6.4-14.2
	c1.2-3.8,1.7-7.8,2.3-11.7c0.4-2.5,1-4.9,1.5-7.3c0.4-1.3,0.1-2.9,1-3.9c0.7-0.8,2-0.6,2.6,0.2c0.4,0.5,0.5,1.1,0.4,1.7
	c-0.1,1.3-0.4,2.5-0.7,3.8c-1.5,5.9-1.8,12-3.5,17.9c-2.5,7.9-6.4,15.4-10.8,22.5c-5.9,8.7-13.2,16.6-21.7,22.8
	c-4.8,3.4-10.4,5.5-15.8,7.7c-6.8,2.9-13.8,5.1-20.9,6.9c-12.3,3.5-24.6,6.9-37.3,8.9c-7.1,1.5-14.2,3-21.3,4
	c-7,1.3-13.9,3.2-21.1,4c-5.3,0.7-10.4,2-15.6,3.2c-3.6,0.8-7.3,1.2-11,1.7c-5.4,0.6-10.6,2.3-15.9,3.3
	C148.6,280.5,136,281.3,123.5,280.8z"/>
<path d="M172.5,391.5c-13.4-2.3-26.8-11.7-32.2-24.4c-0.6-2.1-3.1-5.1-0.9-6.9c0.9-0.5,1.8,0.1,2.1,0.9c3.3,8.7,9,16.1,17.2,20.7
	c4.9,3,10.7,6,16.6,5.3c8.1-1,16.2-3.1,23.9-5.9c9.6-3.8,18.4-9.6,28.4-12.2c7.5-1.9,15.5,0,23-2.2c-2.2-4.6-17.2-9-11.1-14.2
	c4.5-2.8,14.9-0.9,17.4-5.7c-4.8-4.5-19.7-0.8-18.3-10.1c1.5-5,5.7-8.9,5.8-14.4c-6.4,1.9-10.8,7.5-17.1,9.8
	c-10.1,3.8-19.2,9.4-30,11.2c-6.7,1.9-13.3,4.6-20.4,4.6c-9.2,0.1-13.4-9.5-18.5-15.7c-5.8-8-11.5-16.3-13.8-26.1
	c-1.2-2.9,1.8-5.7,2.6-1.6c1.9,6.8,5.1,13.2,9.3,18.8c12.3,15.6,12.7,25.2,35,17.3c12.2-2.6,23.3-7.5,34.6-12.5
	c6.2-2.4,10.6-7.8,16.9-9.8c5.2-2.1,5.1,4.6,3.9,7.9c-0.9,4.2-3.9,7.5-5.2,11.6c5.3,2.2,11.7,1.6,16.6,5.1
	c7.8,9.3-8.6,11.7-14.9,12.6c6,3.2,18.8,14,5.1,16.1c-7,1.3-14.2-0.1-21.1,1.7c-9,2.4-16.9,7.4-25.4,11
	C193,388.3,182.7,391.1,172.5,391.5z"/>
<path d="M253.8,304.5c9,0,18.2-0.6,26.9-2.8c3.4-0.9,6.7-2,10-3c3.9-1.4,7.9-2.8,11.6-4.7c3.3-1.9,6.4-4.3,9-7.1
	c0.8-1.1,1.9-2.2,1.9-3.6c-1.6-2.4-7.4-1.3-9.8-1.2c-7.1,0.6-14.2,1.6-21.3,2.7c-4.5,0.6-9,0.7-13.5,1.5c-5.5,1.1-10.9,2.1-16.5,2.6
	c-8,1-16.1,1.2-23.9,3.2c-2.9,0.9-5.9,1.6-8.4,3.4c0.7,0.9,1.1,2,2,2.8c2.7,2.1,6.1,2.7,9.3,3.6c3,0.7,5.9,1.4,8.9,1.9
	C244.6,304.4,249.2,304.5,253.8,304.5z M222.7,332.3c-1.6-0.4-2.3-3.4-3-4.7c-3.3-7.3-4.5-15.2-4.5-23.2c0-2.2,0.1-4.3,0.3-6.5
	c0-3.8,1.4-6.3,5-7.8c10.3-4.7,21.7-4.4,32.7-5.9c4.8-0.4,9.5-1.5,14.2-2.3c6.5-1,12.9-1.2,19.4-2.4c3.6-0.6,7.2-1,10.9-1.4
	c3.5-0.4,7-0.8,10.5-0.9c3.9-0.3,8.9,1.4,9,6.1c-0.4,5.6-5.6,9.3-9.7,12.4c-4.5,3.3-9.9,5-15.1,7.1c-5.2,1.7-10.4,3.4-15.8,4.4
	c-10.7,1.9-21.5,2.1-32.3,1.4c-3.5-0.2-7-1-10.4-1.8c-5-1.4-11.2-2.3-14.9-6.2c-0.3,6.2,0,12.5,1.6,18.6c0.8,3.1,2,6,3.2,8.9
	c0.3,0.8,0.8,1.7,0.8,2.6C224.4,331.5,223.7,332.5,222.7,332.3z"/>
<path d="M253.6,381.9c-3.1-0.3-6.2-1.3-9-2.7c-1.9-1.1-5.4-2.9-4.1-5.6c0.4-0.8,1.5-1.3,2.3-0.8c1.6,1.1,3.2,2.3,5,3.1
	c7.3,3.3,15.3,1.3,22.7-0.5c4.6-1,9.2-2.4,13.5-4.2c2.8-1.4,5.5-3,8.2-4.6c5-3.1,10.9-5.1,14-10.4c3-5.1,5.6-10.6,6.7-16.5
	c0.8-4.5,1-9.1,1.3-13.6c0.4-5.5,0.7-11,0.9-16.5c0.3-7.3,0.5-14.8-0.6-22c-0.3-1.6-0.7-3.2-1.5-4.6c-1.1-0.8-1-2.8,0.4-3.3
	c6.7-0.7,5.6,26.3,5.3,31.1c-0.2,4.9-0.4,9.9-0.7,14.7c-0.4,5.6-0.5,11.3-1.6,16.8c-0.8,3.7-2.2,7.2-3.8,10.6
	c-1.5,3.2-3.1,6.5-5.5,9.1c-2.4,2.9-5.7,4.8-9,6.4c-3.1,1.6-6,3.5-9.1,5.2c-6.3,3.6-13.5,5.3-20.5,6.9
	C263.6,381.4,258.6,382.4,253.6,381.9z"/>
<path d="M345.6,340.8c7.9-0.6,11.1-19.2,11.5-25.7c0.7-6.8-2.4-12.2-5.9-17.6c-1.4-2.1-2.8-4.2-4.8-5.7c-0.7-0.5-1.6-0.6-2.5-0.8
	c-5.3,1.4-13.4,7.5-16.6,12c1.7,1.1,3.9,1.2,5.9,1.5c2.8,0.2,5.5,0.2,8.3,0.3c1.8,0.1,2.4,2.5,1.3,3.8c-0.4,0.6-1.1,0.8-1.7,1.1
	c-1.2,0.5-2.5,1-3.7,1.5c-3.7,1.8-7.5,3.8-10.5,6.8c2,1.8,4.7,2.5,7.1,3.5c1.3,0.5,2.7,0.9,4.1,1.3c0.8,0.3,1.7,0.4,2.4,0.9
	c1.5,1.1,1.1,4-0.9,4.3c-1.5,0.2-3-0.1-4.5,0c-2.3,0.2-4.7,0.8-6.7,2.1c-0.5,0.5-1.6,0.8-1.3,1.7c0.9,2.2,3.1,3.4,4.9,4.8
	C336.1,339,340.7,341.3,345.6,340.8z M341.8,345.2c-9.8-1.4-28.9-14.4-11.3-20.7c-3.2-1.3-8.4-3.4-7.2-7.8c1.4-3.4,7-6.2,10-8.1
	c-4-0.3-11.2-1.5-9.3-7.2c1.5-3,4.3-5.1,6.9-7.2c3.4-2.4,7.7-6.2,12-6.3c1.2-2.6,5.2-0.2,6.6,1.2c2.4,2.3,4.1,5.3,5.9,8.1
	c1.8,3,3.6,6.1,4.5,9.5c1.8,7.3,0.3,15-1.5,22.1C356.1,337.2,352.2,347.1,341.8,345.2z"/>
<path d="M333,295.7c-1.3-2.1-2.2-4.5-4.3-5.8c-1.7-1.1-3.8-1.4-5.9-1.6c-2-0.1-3.9-0.2-5.9,0c-1,0.8-2.5-0.1-2.4-1.4
	c0.1-3.1,5.9-2.4,8.1-2.5c3.4,0.1,6.9,0.8,9.3,3.3c1.8,1.8,3.4,4,3.9,6.5C336.1,295.8,334.2,297.2,333,295.7z"/>
<path d="M314.8,349.8c-1.1-0.2-1.8-1.5-1.2-2.4c0.6-1.1,2.1-0.7,3.2-1c5.9-1,11.6-3.3,15-8.3c4.7-1.1,1.1,5.3-0.8,6.5
	C326.6,348.1,320.5,350,314.8,349.8z"/>
<path d="M316.2,339.2c-0.5-0.1-0.8-0.6-0.9-1c-0.1-0.6,0.2-1.1,0.7-1.3h-0.1c0,0-0.1,0-0.1,0.1c3.5-2.2,6.6-5,10.1-7.1
	C333.1,330.7,318.5,340.3,316.2,339.2z"/>
<path d="M327.3,302.6c-1.8-0.8-3.2-2.4-5.1-3.2c-1.5-0.7-3.1-1.2-4.6-1.7c-1.9-1.2-0.6-4,1.6-3.4c3.3,0.8,8.2,2.6,9.9,5.8
	C329.5,301.4,328.6,303.1,327.3,302.6z"/>
<path d="M329,313.1c-0.9-1.1-0.4-2.7-0.4-4c0.1-1.1,0.1-2.6,1.3-3c0.7-0.3,1.4,0.3,1.6,1c0.2,1.6,0.1,3.3,0,5
	C331.3,313.3,329.8,314.1,329,313.1z"/>
<path d="M253.2,287.3c-0.5-0.2-0.8-0.6-1.1-1.1c-0.9-1.9-1.7-3.9-2.7-5.8c-2-3.6-4.4-6.9-7.4-9.7c-1.6-1.4-3.4-2.7-5-4.1
	c-0.6-0.6-1.3-1.1-1.5-1.9c-0.3-0.9,0.3-2,1.3-2c0.4,0,0.8,0.2,1.1,0.4c1,0.6,2,1.4,3,2.1c2.6,1.9,5.1,4,7,6.5
	c3.1,3.9,5.5,8.2,7.3,12.9C255.8,285.8,254.8,287.8,253.2,287.3z"/>
<path d="M270,284.3c-2.8-3.5-37.4-18.4-32.5-21.5c2.8-1.3,14.2,7.4,18.1,8.9c5.4,3.7,13.3,5.2,16.9,10.7
	C272.8,283.8,271.3,285.3,270,284.3z"/>
<path d="M317.7,314.8c-1.5,0-2.2-2-1.2-3c0.7-0.7,1.7-0.7,2.6-0.8c2.9-0.5,5.8-0.9,8.6-1.9c1.7-0.2,2.4,2.2,1.3,3.2
	c-0.7,0.8-1.9,1-2.8,1.2C323.4,314.1,320.6,314.7,317.7,314.8z"/>
<path d="M319.3,463.1c-1.9-2.1,0.8-4,1.8-5.8c0.9-1.4,1.7-2.8,2.5-4.3c3.7-6.5,8-12.8,10.4-19.9c1.8-6.3,2.7-12.7,3.3-19.2
	c0.2-5.1,0.1-10.2-0.2-15.3c-0.5-8.6-1.4-17.2-4.2-25.4c-1.9-6-4.4-11.7-7.1-17.4c-0.7-1.5-1.5-3-2.3-4.4c-0.7-1.4-1.8-3.4-0.5-4.8
	c1.3-1.2,2.3,0.2,2.8,1.4c1.4,2.5,2.8,5,3.9,7.5c3.1,6.5,5.9,13.3,7.8,20.2c2,7,2.6,14.2,3.1,21.4c0.3,5.4,0.6,10.9,0.3,16.4
	c-0.6,7-1.5,14-3.5,20.7c-1.7,5.2-4.3,10-7.1,14.7c-2,3.4-4,6.8-6,10.3C323.3,460.9,321.5,465.1,319.3,463.1z"/>
<path d="M91,414.3c-6.3-22.2-3.7-45.5-1.1-68.1c3.1-22.1,4.3-44.3,6-66.5c0.4-3.7,5.1-3.3,2.8,0.6c-1,15.8-0.8,31.8-3.2,47.5
	c-1.3,17.3-4.6,34.4-4.6,51.7c0.1,6.9-0.5,13.8,0.7,20.6c0.1,3.5,4.5,13.4,1.3,15.2C92.2,415.7,91.3,415.1,91,414.3z"/>
<path d="M262.7,526.8c-5.5-0.2-11-1.2-16.5-1.8c-4.9-0.5-9.6-2.2-14.4-3.1c-1.3-0.2-2.6-0.5-3.8-0.9c-2-0.7-1.5-4.4,0.8-4.1
	c7.1,1.1,13.9,3.5,21.1,4c4.3,0.4,8.5,1.2,12.8,1.3c2.7,0,5.3-0.4,7.9-0.8c3.6-0.6,7.1-1.7,10.7-2.3c4.2-0.7,8.3-1.7,12.2-3.3
	c10.4-5.1,12.4-10.8,16.5-20.8c4.6-10.5,6.7-21.8,7.4-33.2c0.3-7,0.1-14.1,0.2-21.2c0-7.2,0.2-14.4,0.5-21.5
	c0.2-7.4,0.6-14.8,1.5-22.1c0.6-5.6,1.3-11.4,0.1-17c-7.2,7.4-9.8,17.7-12.1,27.4c-1.9,7-3.2,14.2-4.5,21.3c-0.2,1.4-1.5,3.1-3,2.1
	c-1-0.7-1-2.1-1.2-3.2c-1.4-14.4-1.2-29-5-43c-2,3.2-3.2,6.9-4.7,10.5c-1,2.6-2.1,5.1-3,7.8c-1.4,4.7-1.8,9.6-2.2,14.5
	c-0.3,3.6-0.5,7.3-0.8,10.9c-0.2,1.8-0.1,5.1-2.7,4.9c-2.1-0.3-2.6-5.8-3.2-7.6c-1-5.5-2.2-11-3.8-16.4c-1.6-6.6-3.8-13.8-9.6-17.9
	c-2,6.8-3.9,13.7-4.7,20.8c-1.1,10-1.3,20.1-1.8,30.2c-0.5,13,0.5,25.9,0.7,38.8c0,1,0,2.1-0.7,2.8c-0.9,0.9-2.2,0.5-2.7-0.7
	c-0.9-3.5-1.3-7.1-2.3-10.5c-1-3.8-2.2-7.5-3.6-11.1c-1.4-3.4-3.1-6.6-4.3-10.1c-1-2.9-1.9-5.7-3.1-8.5c-1.5-3.5-3.3-6.9-4.9-10.3
	c-1.1-2.4-2.3-4.7-4-6.7c-2.1-2.4-4.8-4.2-7.3-6.3c-1.9-1.5-3.9-2.9-5.9-4.3c-3.9-2.3-7.6-5.3-11.9-6.9c-4.6-1.6-9.5-1.8-14.3-2.4
	c-7.5-1.3-15.2-0.2-22.5,1.6c-4.1,1-7.7,3.3-11.6,4.8c-1.7,0.6-3-1.7-1.6-2.9c3.6-1.8,7-4,10.8-5.2c5.3-1.7,10.8-2.6,16.4-3
	c3.7-0.2,7.4,0.4,11.1,0.8c8.6,0.8,13.8,1.7,21,6.8c4.8,2.9,9.3,6.1,13.7,9.6c1.9,1.5,3.8,3,5.3,4.9c2.2,2.8,3.6,6.2,5.2,9.5
	c1.6,3.3,3.3,6.5,4.6,10s2.4,7.1,3.9,10.6c1.9,4.1,3.8,8.2,5.1,12.6c-0.2-7.9-0.5-15.9-0.3-23.8c0.2-4.5,0.4-9,0.5-13.5
	c0.7-10.2,0.9-20.1,3.6-30c0.7-2.5,1.3-5,1.9-7.5c0.7-3.7,2.6-6.3,6.3-3.6c5.5,4.3,8.4,11,9.9,17.6c1.4,5.4,3,10.7,3.9,16.2
	c0.6-6.4,0.8-12.9,2.5-19.1c1.7-5.4,4-10.6,6.1-15.8c0.7-1.6,1.5-3.2,2.4-4.7c0.7-1.4,2.1-3.1,3.9-2.4c3,1.4,3.4,7.7,4,10.7
	c1.6,8.9,2.3,17.8,2.7,26.8c2.2-9.5,4.3-19.2,8-28.3c2-4.6,4.6-9.1,8.3-12.5c2.8-2.6,5,0.5,5.3,3.4c1.2,6.2,0.4,12.6-0.2,18.8
	c-0.8,7.3-1.2,13.9-1.3,21.1c-0.6,14.3,0,28.6-0.4,42.8c-0.3,5.6-1,11.1-2.2,16.6c-0.9,5.4-2.5,10.6-4.5,15.7
	c-2.2,5.1-4,10.5-7,15.2c-2,3.1-4.7,5.7-7.8,7.7c-3.1,2.2-6.5,3.7-10.2,4.6c-3.5,1.1-7.2,1.6-10.8,2.4
	C273.5,525.5,268.2,526.8,262.7,526.8z"/>
<path d="M401.5,457.6c-0.1,5.1-0.1,10.1-0.2,15.2c-0.2,0.4-0.4,0.7-0.6,1.1c-2.1,3.4-6.4,4.7-10.2,4.5c-8-0.3-14.7-5.3-21-9.7
	c-4.2-2.5-8.3-5.3-13.1-6.7c-3.4-0.9-6.9-1.6-10.4-2.3c-5-1-9.8-2.8-14.8-3.8c-1.9-0.4-5.1,0-4.8-2.9c0.4-2.7,3.5-1.5,5.3-1.3
	c4,0.8,7.6,2,11.5,3c5.2,1.3,10.5,2,15.6,3.5c5,1.9,9.7,4.7,14.1,7.6c2.4,1.6,4.7,3.3,7.2,4.7c4.8,2.5,10.7,4.8,15.8,2.1
	c1.9-1.3,2.7-3.6,3.5-5.7C400.3,463.9,400.9,460.7,401.5,457.6z"/>
<path d="M411.1,370.7c0,0.9,0,1.9,0,2.8c-1.2,0.8-2.4,1.6-3.5,2.5c0-3.3,0.1-6.7-0.1-10c-0.4-5.4-1.1-10.8-2-16.2
	c-0.9-5.8-1.8-11.6-3.7-17.1c-2.3,4.4-2.9,9.3-4.1,14.1c-1.1,4.7-2.1,9.8-3,14.4c-0.8,4-1.6,8.1-2.6,12.1c-0.5,1.6-0.6,3.5-1.9,4.7
	c-0.5,0.4-1.1,0.4-1.6,0.1c-1.1-0.5-1.2-2.1-1.3-3.2c-0.7-6.3-0.5-12.7-0.7-19c-0.2-6.9-0.9-13.9-2.7-20.5
	c-2.8,8.7-6.2,17.3-7.1,26.4c-0.9,7.2-0.5,14.6-1.9,21.7c-0.4,1.3-2,1.9-2.9,0.7c-0.5-0.6-0.6-1.4-0.7-2.1c-0.2-1.4-0.5-2.8-0.7-4.1
	c-1.3-7.4-1.4-15-2.7-22.4c-0.9-4.2-2.1-8.3-3.9-12.2c-1.4,4-1.8,8.2-2.7,12.3c-0.8,4.5-1.6,9-2.2,13.6c-0.8,6.1-0.3,12-0.9,18.1
	c-0.2,3.3-3,4.7-4.5,1.2c-2.8-6.1-6.8-9.5-12.3-13c-2.5-1.6-5-3.1-7.7-4.1l0,0c-1.3-0.4-1.4-2.4-0.2-3.1c2.1-1.1,8.8,3.4,10.7,4.5
	c4.4,2.8,8.5,6.3,10.9,11c0.2-5.1,0.1-10.2,0.7-15.3c0.5-3.9,1.2-7.8,1.9-11.7c0.8-3.9,1.5-7.9,2.3-11.8c0.6-2,1.3-7,4.1-6.7
	c2.8,0.5,4.7,8,5.6,10.5c2.2,6.8,2.4,14,3.1,21.1c0.2-6.5,1-12.9,2.6-19.2c1.2-5,3-9.9,4.6-14.8c0.5-1.7,1-3.1,1.5-4.7
	c0.3-1.1,1-2.4,2.4-2.2c3.6,0.3,5.2,16.1,5.6,19.4c0.6,6.4,0.4,12.8,0.6,19.2c2-9.8,3.8-19.3,6-29c0.5-2.5,1.5-5,2.5-7.3
	c0.5-1.2,0.9-2.5,1.8-3.4c2.1-1.8,3.9,1,4.3,2.9c0.8,2.2,1.4,4.5,1.9,6.8C408.7,348.5,410.9,359.5,411.1,370.7z"/>
<path d="M411.2,383.2c0.1,1.2,0.1,2.4,0.2,3.6c-1.2-0.2-2.4-0.4-3.6-0.6c0-1.2-0.1-2.4-0.1-3.6C408.8,382.8,410,383,411.2,383.2z"/>
<path d="M411.4,403.3c0,1.3-0.1,2.5-0.1,3.8c-1.2-0.2-2.4-0.4-3.6-0.5c0-0.3,0-0.6,0.1-0.9c0.1-1,0.1-1.9,0.2-2.9
	C409,402.9,410.2,403.1,411.4,403.3z"/>
<path d="M185.8,457.4c5.5,0.2,11.1,0.3,16.6,0.2c4.3-0.1,8.6-0.1,12.8-1.1c4.9-1.1,8.3-5.4,11.1-9.3c2.1-3.4,3.8-8,2-11.9
	c-1.5-2.9-4.7-4.3-7.5-5.7c-9.5-4.1-19.2-5.6-29.1-7.6c-5.8-1.4-11.4-3.6-17.2-5.1c-7-1.9-14.2-3.3-21.3-5
	c-7.6-2.2-15.2-4.1-23.1-4.8c-2.7-0.2-5.4-0.1-8.2,0c-4.7,0.3-9.5,0.2-14,1.6c-4.2,1.4-7.5,4.4-11.1,6.8c-7.5,4.8-13.1,11.8-19.5,18
	c1.9-0.5,2.2,1.5,2.8,2.7c1.7,2.3,4.4,3.5,6.8,4.7c4.9,2.1,10.2,3.2,15.2,5c5.8,2.1,11.6,4,17.7,4.8c6.2,1.1,12.5,1.1,18.7,2
	c10.9,1.4,21.8,2.7,32.7,3.8C176.1,456.7,181,457.4,185.8,457.4z M187.3,462.1c-7.4,0-14.7-1.2-22-1.8c-10.6-1.1-21.1-2.6-31.7-3.7
	c-3.6-0.3-7.2-0.5-10.8-1c-7.2-0.8-14.2-2.6-21-5.2c-7.9-2.9-16.9-4.1-23.2-10.1c-1.5-1.5-3.5-4.5-1.9-6.5c-1.4,0.7-2.5-1.2-1.8-2.4
	l0,0c2.3-3,4.9-5.8,7.5-8.6c2.5-2.7,5.1-5.4,8-7.8c2.9-2.3,6-4.4,9-6.5c3.8-2.9,8.2-4.9,13-5.3c6.5-0.6,13.1-1.3,19.6-0.5
	c7.5,0.8,14.8,2.6,22,4.7c3.6,0.9,7.2,1.5,10.7,2.4c4.9,1.3,9.9,2.3,14.8,3.8c3.9,1.2,7.7,2.6,11.7,3.7c7.1,1.6,14.3,2.5,21.3,4.7
	c5.2,1.5,10.3,3.2,14.8,6.2c6.6,4.3,6.6,12.5,3.5,19c-1.5,3.3-3.9,6.1-6.3,8.7c-2.6,3-6.1,4.9-9.9,5.5c-5.4,1-10.9,0.8-16.3,0.9
	C194.7,462.2,191,462.2,187.3,462.1z"/>
<path d="M198.2,544c-6.4-0.7-12.8-1.7-18.7-4.2c-4.3-1.5-8.9-1.9-13.3-3.1c-7.2-1.6-14.4-2.7-21.7-4c-5.5-0.9-11.1-1.3-16.6-2.6
	c-5.4-1.5-10.8-2.8-16.2-4c-5.5-1.1-10.9-2.6-16.2-4.7c-4.3-1.6-8.8-2.9-12.7-5.3c-3.3-2.1-6.3-4.9-8-8.5
	c-3.8-7.6-2.7-16.4-2.5-24.6c0.1-3.8,0.3-7.6,0.6-11.5c0.7-7.3,2.1-14.6,2.8-21.9c0.4-3.4,0.7-6.7,1.2-10.1c0.2-1.2,0.3-2.5,1-3.6
	c0.9-1.1,2.4-0.5,2.6,0.9c-0.6,7.4-1.4,14.9-2.3,22.3c-0.6,4.4-1.4,9.4-1.7,13.7c-0.2,3.7-0.4,7.5-0.5,11.2
	c-0.4,12.1-1.8,23.3,11.1,29.3c3,1.3,6.1,2.4,9.2,3.5s6.1,2.3,9.3,3.2c7.5,1.9,15.1,3.4,22.5,5.6c3.4,0.9,7,1.3,10.5,1.8
	c5.5,0.7,11,1.7,16.4,2.8c5.6,0.8,11,2.1,16.5,3.3c2.5,0.5,5.1,0.9,7.5,1.7s4.7,1.8,7.1,2.4c4.1,0.9,8.6,1.7,12.7,2
	c5.6,0.4,11.4,0.7,16.7-1.2c3.8-1.6,5.7-5.5,6.8-9.2c0.8-2.5,1.4-5.1,1.9-7.7c0.9-5.3,2-10.7,2.5-16.1c1-9.5,1.1-19.1,1.7-28.6
	c0.2-6.6,0.4-13.2,0.2-19.8c-0.1-1.7-0.4-3.3-0.6-5c-0.1-1.4-0.4-3.5,1.3-3.9c0.9-0.2,1.6,0.5,1.8,1.3c1.3,5.2,1,10.6,1,15.9
	c0,5.5-0.1,10.9-0.3,16.4c-0.7,11.6-0.7,23.3-3.1,34.7C225.1,539,222.8,546.1,198.2,544L198.2,544z"/>
<path d="M201.1,526.2c-3.5-0.5-6.8-1.3-10.3-2c-3.5-0.6-7-1.3-10.5-2.3c-7.4-2.3-15.4-4-22.9-5.9c-3.2-0.8-6.3-1.8-9.6-2.1
	c-5.3-0.6-10.6-1.5-15.9-2.7c-3.5-0.8-7-1.4-10.5-2c-3.6-0.6-7.1-1.5-10.6-2.4c-3.2-0.8-6.5-1.5-9.6-2.6c-3.8-1.5-7.5-3.1-11-5.3
	c-1.2-0.8-2.3-1.7-3.2-2.8c-2.7-3.5-2-8.5-2.1-12.6c0.1-7,1.1-14,1.8-21c0.7-5.4,0.6-10.9,2.2-16.1c0.3-0.9,1.3-2.7,2.4-2
	c0.9,0.8,0.1,2,0,3c-0.3,1.6-0.4,3.2-0.5,4.8c-0.5,8.9-1.3,17.5-2.1,26.3c-0.2,4.3-0.4,8.7,0.2,13c0.8,3.7,7,5.9,10.1,7.5
	c4,1.9,8.4,2.8,12.7,3.9c5.2,1.4,10.5,2.4,15.8,3.2c3.5,0.7,7,1.6,10.5,2.3c5.1,1.1,10.3,1.3,15.3,2.5c8.4,2.3,16.9,4.1,25.3,6.4
	c4.5,1.5,9.2,2.4,13.8,3.2c1.6,0.3,3.2,0.7,4.8,1c1.4,0.3,2.9,0.6,4.4,0.8c1.1,0.1,2.3,0,2.9-1.2c1.2-2,1.8-4.3,2.2-6.5
	c1.5-7.8,1.7-15.7,2.3-23.6c0.3-6.5,0.9-13,1.1-19.4c0.1-1.3,0.1-2.6,0.2-4c0.3-1.8-0.5-5.8,2-6c1.1,0,1.7,1,1.7,2
	c-0.7,11-1.3,22.2-2,33.2c-0.4,5.3-0.6,10.5-1.5,15.7C210,517.8,208.8,527.7,201.1,526.2z"/>
<path d="M209.1,514.6c-3.3-0.3-6.5-1.2-9.8-2c-3.4-0.9-6.9-1.5-10.4-2c-5.1-0.8-10.2-2-15.2-3.2c-5.3-1-10.6-2.4-15.5-4.6
	c-4-1.8-7.1-5.1-10.9-7.2c-4-2.2-8.1-4-11.9-6.4c-2.4-1.4-4.8-2.8-6.9-4.5c-2.1-1.7-4.1-3.6-6.2-5.5c-4.7-4.4-9.3-9.2-13-14.5
	c-1.7-2.5-8.6-14.1-4.9-15.9c0.6-0.2,1.2,0,1.6,0.6c0.3,0.7,0.1,1.5,0.5,2.2c1.1,3.3,2.8,6.3,4.7,9.2c4.8,7.1,11.3,12.9,17.6,18.6
	c1.3,1.1,2.6,2.2,4,3.1c3,1.9,6.1,3.8,9.3,5.5s6.5,3.1,9.5,5.2c2.8,1.9,5.4,4.2,8.6,5.6c4.2,1.8,8.6,3,13.1,3.9
	c5.1,1.2,10.1,2.5,15.3,3.3c6.8,0.9,13.3,3,20.1,4.2c1.2,0.1,2.4,0.8,2.4,2.2C210.8,513.5,210.2,514.6,209.1,514.6z"/>
<path d="M72.9,503.2c-3.4-2.6-6.8-5.2-10-8c-4.5-4-8.3-8.7-11.8-13.5c-3.4-5.1-5.7-10.9-8.3-16.4c-3.6-9-7.5-17.9-10.8-27
	c-2.3-7.2-4.3-14.4-6-21.8c-1.1-5-1.8-10.1-2.6-15.1c-1.5-9.9-2.5-19.9-2.7-30c-0.3-6.3,0.2-12.6,1.5-18.7
	c1.2-5.8,2.6-11.6,5.8-16.6c2.2-3.5,5.6-6.1,9-8.4c2.6-1.8,5.5-3.2,7.9-5.2c2.2-1.7,2.9-3.7,2.6-6.4c-0.3-5-1.4-9.9-2.5-14.8
	c-1.6-6-3.2-12-3.2-18.2c-0.1-4.5,0.8-9.1,3.1-13c1-1.6,1.9-3.4,3.6-4.2c2.7-1,2.9,3.9,0.9,3.5c-8.2,10.6-2.1,24.1,0.2,35.6
	c0.9,4.8,2.6,11.6,1,16.3c-1.3,3.5-4.6,5.7-7.6,7.5c-12.5,7.2-14.6,12.1-17.3,25.9c-1.6,8-1.4,16.1-0.8,24.2
	c0.6,9.9,2,19.8,3.5,29.6c0.8,5.4,2.1,10.8,3.6,16.1c1,3.7,1.9,7.3,3.1,11c2.3,6.9,5.4,13.6,8.1,20.4c1.3,3.2,2.7,6.7,4.1,9.8
	c2,4.2,3.9,8.5,6.3,12.5c3.4,4.9,7.3,9.5,11.7,13.5c3.2,2.8,6.7,5.1,9.8,8c0.7,0.7,0.8,1.9,0.3,2.8
	C74.9,503.4,73.8,503.8,72.9,503.2z"/>
<path d="M75.6,471.2c-1.1-0.2-1.2-1.4-1.4-2.3c-0.4-1.6-0.8-3.1-1.3-4.6c-1.7-6-3.9-11.8-6-17.7c-1.4-3.9-2.7-7.8-4.3-11.6
	c-2.5-5.8-5.4-11.5-7.3-17.5c-1.9-6-3.6-12-4.9-18.2c-1.3-6.1-1.8-12.4-2.9-18.6c-1-6.2-1.7-12.4-2-18.6c-0.1-2-0.2-4.1,0.2-6.1
	c0.7-4.4,3.9-7.8,7.3-10.4c3.1-2.7,7.2-4.4,9.4-8c4-6.3,1.9-15.7,0.8-22.8c-0.6-3.9-2-7.6-3.4-11.2c-2-5.6-3.4-11.5-4.2-17.5
	c-0.8-5.9,0.1-9.9,5.9-12.7c1.2-0.7,2.3-1.4,3.5-2c1.1-0.6,2.2-0.6,2.7,0.7c0.7,1.7-0.8,2.8-2.2,3.4c-1.6,0.8-3.1,1.6-4.6,2.6
	c-0.7,0.4-1.3,1-1.6,1.7c-2,4.8,2.8,20.4,5,25.5c2.2,5.9,3.1,12.1,3.8,18.3c0.7,6.5,0.4,13.8-4.3,18.9c-4,4.2-9.9,6.3-13.2,11.2
	c-2.2,3.5-1.4,7.9-1.3,11.8c0.4,6.2,1.5,12.2,2.5,18.3c1.3,10.7,3.4,21.3,6.7,31.5c2.5,8,6.6,15.2,9.4,23.1c2.7,8.1,5.9,16,8,24.3
	c0.5,1.8,1,3.7,1.3,5.5C77.4,469.4,77.2,471.4,75.6,471.2z"/>
<path d="M89.2,493.6c-1.3-0.2-1.6-2.1-0.6-2.8c1-0.6,2.2-0.7,3.3-1.3c5.7-2.9,11.2-6.2,16.8-9.5c2.9-1.5,4.9-4,7.5-5.8
	c0.6-0.4,1.3-0.1,1.7,0.4c1.1,1.6-0.7,3.1-1.8,4.1C109.8,484,97.2,492.2,89.2,493.6z"/>
<path d="M221.1,538.2c-0.9-1.2,0.3-3.6,1.8-2.4c1.3,0.2,2.6-0.1,3.9-0.4c3.8-1.1,7.2-3,10.9-4.5c4.3-1.7,8.4-3.7,12.5-5.8
	c0.8-0.3,1.7,0.3,1.9,1c0.8,2.1-1.3,2.9-2.7,3.7c-2.1,1.1-4.3,2.2-6.5,3.1C238.8,534.2,224.1,542.7,221.1,538.2z"/>
<path d="M250.2,526.6c-0.6-0.8-0.4-2.1,0.6-2.5c1.3,0,2.3-0.7,3.4-1.1c1.8-0.5,2.7,2.3,1.3,3.2C254,527.2,251.6,528.1,250.2,526.6z"
	/>
<path d="M316.9,479.3c-1-0.2-1.4-1.6-0.9-2.4s1.4-1.3,2.1-2c2.3-1.9,4.7-3.6,6.9-5.5c4-3.5,7.4-7.8,10.4-12.2
	c0.6-1.1,1.5-2.4,2.9-1.5c1.8,1.5,0,3.6-0.9,5c-1.3,2-2.7,3.9-4.2,5.7c-3.2,4.1-7.2,7.3-11.5,10.2c-1.1,0.8-2.1,1.6-3.3,2.2
	C318,479.2,317.4,479.4,316.9,479.3z"/>
<path d="M225.1,558.1c-11.6,0.1-22.9-2.8-34.3-4.4c-18.5-1-36.8-4.8-54.7-9.7c-15.6-6.1-39.1-6.2-44.5-25.4
	c-0.7-1.5,0.7-3.7,2.2-2.1c1.8,3.3,2.9,7.1,6,9.6c9.7,7.5,22.3,8.9,33.6,12.7c19,5.8,38.6,9.7,58.4,11c37,7.5,37.6,4.2,72-9.1
	c8.1-4.6,16.9-8.2,24.2-14c8.7-8.1,18.8-14.7,26.8-23.6c10.9-10.8,29-23.3,30.8-39.5c-0.2-1.9,0.8-6.3,3.3-3.9
	c1.2,4.9-0.9,10.6-2.8,15.1c-6,10.6-15.2,19.2-24.3,27.2c-5.9,4.9-10.7,11-16.8,15.6c-8,5.5-14.3,13.3-22.9,17.8
	c-9.2,4.9-18.1,10.2-28.1,13.3C244.7,552.5,235.1,556.5,225.1,558.1z"/>
<path d="M222.1,580.8c-9.3-0.6-23.4,1.1-27.8-9.3c-1.5-6-1.2-12.5-0.3-18.5c2.8-3.7,2.7,4.2,2.7,5.8c0.4,4.4-0.8,9.9,2.5,13.4
	c8.2,5.7,19.3,3.9,28.8,4.4c20.2,0.7,32-6.4,28.1-28.3c0-0.8,0.4-1.6,1.2-1.9c4.6-0.4,2.9,14.9,2,17.9
	C255.1,581.3,236.4,581,222.1,580.8z"/>
<path d="M222.3,586c-4.2-0.4-8.9-0.5-12.4-3.2c-1.2-1-2.4-2.2-2.6-3.8c-0.1-1.1,1.2-2.1,2.2-1.4c0.8,0.7,1.3,1.6,2.2,2.2
	c2.6,1.6,5.7,1.9,8.7,2.3c4.7,0.5,9.3-0.1,13.9-1.3c1.9-0.4,3.7-1.3,4.8-2.9c0.6-0.7,1.6-0.6,2.3,0c0.7,0.7,0.8,1.8,0.3,2.7
	c-1.9,3.2-5.9,3.9-9.2,4.6C229.1,585.9,225.7,586.3,222.3,586z"/>
<path d="M155.1,618.4c-5.6-0.2-11-3.1-12.2-8.9c-0.9-3.5-0.1-7.6,2.6-10.1c1.5-1.4,3.4-2.2,5.2-3.1c6.6-2.9,13.2-5.9,19.5-9.5
	c4.8-2.3,9.8-4,14.7-6.1c4.8-2.3,10-3.5,15.3-4.6c1.4-0.2,4.5-1.4,5.6-0.3c0.5,0.6,0.5,1.6-0.1,2.1c-6.2,2.2-12.8,3-18.8,5.9
	c-4.6,2.1-9.3,3.7-13.9,5.7c-3.1,1.4-5.9,3.4-9.1,4.8c-3.3,1.6-6.6,3.1-9.9,4.6c-2.5,1.3-5.4,2.2-7.1,4.5c-2.1,3.4-0.2,8.3,3.4,9.7
	c3.6,1.5,7.6,1.3,11.3,0.7c4.2-0.8,8-2.6,12-3.9c3.4-1.1,6.7-2.2,9.9-3.7c6.4-2.9,13-5.1,19.6-7.2c6.5-2.4,13-5.1,19.9-6.1
	c2.1-0.4,4.2,0,6.3,0.3c5.9,1,11.5,3.1,16.8,5.6c6.4,2.7,13,4.8,19.6,7c5.9,2.5,12.8,7.8,19.1,3.4c2.3-1.5,4.4-3.9,4.7-6.7
	c0.1-3-0.8-6.1-2.7-8.4c-1.7-1.8-4.2-2.7-6.4-3.8c-3.9-1.7-7.5-3.2-11.1-5.5c-2.1-1.3-4-2.9-6-4.3c-1.4-1-3-1.6-4.1-2.9
	c-1.9-3.2,1.7-4.8,4.2-5.4c4.7-1.4,9.7-1.2,14.5-1.8c2.1-0.2,4.2-0.4,6-1.5c1.9-1.4,0.7-4.1-0.4-5.6c-1.5-1.7-3.7-2.3-5.8-2.9
	c-3.3-0.8-6.7-1-10.1-1c-2.1,0-4.1,0.1-6.2,0.1c-1.1,0-1.8-1.1-1.8-2.1s0.7-2,1.8-2.1c1.8,0,3.7,0.1,5.5,0.1
	c5.8,0.1,12.1,0.2,17.2,3.4c4.7,3,6.5,11.6,0.8,14.5c-1.8,1-4,1.3-6.1,1.5c-5,0.5-10.1,0.4-15,1.6l0,0c3.3,2.1,6.4,4.6,9.9,6.4
	c4.2,2.2,8.8,3.7,12.9,6.3c5.2,3.1,7.2,10.3,5.7,15.9c-1.6,5.1-6.3,9.2-11.6,9.8c-2.7,0.3-5.4-0.4-7.9-1.3c-2.4-0.9-4.6-2.1-6.9-3.2
	c-4.8-1.9-9.7-3.2-14.5-5.1c-5.9-1.9-11.5-5.3-17.6-6.8c-2.8-0.7-5.6-1.4-8.4-1.7c-4.4,0-8.7,1.4-12.9,2.7
	c-6.5,2.6-13.2,4.7-19.8,6.9c-4.9,1.8-9.5,4.2-14.4,5.9c-3.4,1.1-6.8,2.3-10.1,3.6c-1.6,0.6-3.3,1.2-5,1.6
	C160.7,618.2,157.9,618.5,155.1,618.4z"/>
<path d="M154.5,633.3c-7.2-0.8-15.7-5.4-14.7-13.7c0.3-3.5,1.5-7,3.6-9.8c1.2-1.6,3.6-2.1,3.8,0.4c-0.1,0.8-0.4,2.6-1.6,2
	c-1.3,2.2-2.1,4.7-2.3,7.2c-0.2,2.4,0.4,4.5,2.4,6c4.2,3.5,12.2,5,17.4,3c6.3-2.8,4-8.6,4.4-14c0-0.7,0.4-1.4,1.1-1.6
	c1-0.2,1.5,0.9,1.6,1.8c0.4,1.7,0.8,3.4,0.7,5.1C171.3,630.2,164.3,634.8,154.5,633.3z"/>
<path d="M276.5,627.8c-3.5,0-7.3-0.3-10.3-2.5c-2.6-2.1-4.6-5.1-5.3-8.4c-0.5-2.7,0.3-5.4,1.9-7.7c0.8-1.1,1.9-2.5,3.4-2.3
	c1.3,0.2,2,2.2,0.9,3c-0.7,0.3-1.2,0.7-1.6,1.4c-0.8,1.4-1.5,3-1.2,4.6c0.7,2.7,2.6,5.3,5.1,6.5c1.4,0.6,3,0.8,4.5,1
	c3,0.2,6,0.2,8.9-0.4c5.3-1.4,4.4-8.1,5.2-12.3c0.4-1.7,2.6-1.7,2.9,0c0.7,4.4-0.6,12.2-4.3,15C283.8,627.6,280,627.7,276.5,627.8z"
	/>
<path d="M280.9,585.4c-2.2-0.3-4.5-0.7-6.4-1.9c-3-1.7-4.8-5.5-3.6-8.8c0.8-1.9,2.5-1.4,2.7,0.5c-0.2,4.5,4,5.7,7.7,6.1
	c4.2,0.4,4.8-0.5,5.1-4.6c0.1-1.9,0-3.7-0.3-5.6c-0.1-1,0.4-2.2,1.5-2.4s1.9,0.8,2,1.7c0.3,3.1,0.2,6.3-0.3,9.3
	C288.6,584.8,285.4,586,280.9,585.4z"/>
<path d="M258.7,416.2c-0.7-0.7-0.5-2,0.3-2.5c1.4-0.8,2.8-1.3,4.3-2c2.7-1.2,5.5-2.2,8.4-2.9c1.5-0.3,3-0.7,4.6-0.4
	c1.5,0.3,1.5,2.8,0,3.1c-1.8,0.2-3.6,0.5-5.3,0.9c-3,0.8-5.9,2-8.8,3.2C261.1,416.1,259.7,417.2,258.7,416.2z"/>
<path d="M284.4,408c-1.3-0.3-1.6-2.4-0.4-3c0.4-0.2,0.8-0.2,1.2-0.3c3.5-0.7,7-1.7,10.5-2.1c1.7,0,4.9-1.3,5.3,1.1
	c0.1,0.8-0.3,1.5-1,1.8c-2.6,0.8-5.3,0.8-7.9,1.3c-1.9,0.4-3.9,0.8-5.8,1.1C285.7,408,285.1,408.2,284.4,408z"/>
<path d="M309.1,399.8c-1.5-0.3-1.4-2.6,0-3c3.3-0.7,6.9-0.7,10.2-0.8c1,0,1.6,0.9,1.6,1.8c-0.1,2.4-2.5,1.8-4.2,1.8
	C314.2,399.5,311.7,399.7,309.1,399.8z"/>
<path d="M358.4,364.4c-0.6-0.2-0.9-0.7-0.9-1.3c0-1.4,1.7-1.7,2.8-2.1c3.2-1.1,6.4-2.4,9.8-3c1.9-0.2,2.4,2.9,0.7,3.5
	c-2.8,0.8-5.6,1.5-8.3,2.3C361.1,364,359.7,364.7,358.4,364.4z"/>
<path d="M376.3,359.3c-1.1-1.8,0.7-2.9,2.3-3.3c2.8-0.8,5.5-1.7,8.4-1.8c1.6,0.1,1.9,2.7,0.4,3.1c-1.3,0.4-2.7,0.5-4.1,0.9
	c-1.7,0.4-3.3,0.7-4.8,1.2C377.7,359.6,376.8,360.2,376.3,359.3z"/>
<path d="M393.9,357.4c-1.4-0.3-1.4-2.3-0.3-3c0.8-0.6,1.9-0.8,2.9-1c2.3-0.6,4.6-1.2,7-1.6c1.2-0.1,2.4-0.4,3.6-0.2
	c1.6,0.3,1.6,3,0,3.3C402.6,355.2,398.2,356.4,393.9,357.4z"/>
<path d="M426,313.4c-1.1-16.1-1.5-32.4-2.3-48.6c-0.4-5-0.8-9.9-0.9-14.9c-0.6-20.2-0.7-40.4-1.4-60.5c-0.4-37.6,1.1-75.1,1.6-112.6
	c0.1-1,0-2.3,0.9-2.8c0.7-0.3,1.3,0.4,1.4,1c0.6,5.5,0.3,11.2,0.4,16.7c0.1,10.2-0.2,20.3-0.5,30.5c-0.3,15.2-0.4,30.3-0.5,45.5
	c-0.2,17.7,0.5,35.5,0.8,53.2c0.2,11.8,0.4,23.6,1,35.4c0.4,5,0.8,10,0.9,15c0.5,10.1,0.7,20.2,1.4,30.3c0.2,4,0.6,7.5,0.6,11.3
	C429.5,315.3,426.5,316.1,426,313.4z"/>
<path d="M740.6,98.4c-9.4-1.2-18.6-3.7-28-5.2c-6.8-1.1-13.6-1.9-20.4-2.8c-11.6-1.8-23.5-1.5-35.1-3.6c-6.1-1-12.2-1.3-18.3-1.7
	c-6.5-0.4-13-1.2-19.5-1.9c-6.4-0.6-12.8-1.2-19.1-2.2c-6.1-0.9-12.2-1.3-18.3-1.8c-13.4-1.2-26.9-0.5-40.3-1.3
	c-13.4-0.6-26.7-1.2-40.1-1.9c-6.7-0.3-13.4-0.3-20.1-0.5c-6.4-0.3-12.9,0.3-19.3,0.4c-3.3,0-6.6-0.1-10,0c-3.2,0.1-6.3,0.3-9.5,0.5
	c-5.6,0.4-11.3,0.3-17,0.6c-0.5,0-0.9,0.1-1.4,0.3c-0.5,0.1-1-0.2-1.3-0.7c-0.9-2.2,1.2-2.9,3.1-3c2.4-0.3,4.8-0.4,7.1-0.5
	c5-0.2,10-0.5,15-0.9c3.2-0.3,6.4-0.2,9.6-0.2c6.6,0.1,13.2-0.4,19.7-0.5c19.9,0.2,39.7,1.4,59.6,2.2c6.8,0.3,13.7,0.6,20.5,0.7
	c6.6,0.2,13.3,0,19.9,0.4c6.6,0.6,13.1,1,19.7,1.6c6.8,0.9,13.5,1.8,20.3,2.4c5.5,0.5,10.9,1.3,16.4,1.8c5.9,0.5,11.8,0.7,17.7,1.3
	c5.9,0.5,11.6,1.9,17.5,2.3c21.5,1.2,42.8,4.2,63.9,8.7c2.8,0.5,5.6,0.7,8.3,1.5C743.3,95.1,742.8,98.7,740.6,98.4z"/>
<path d="M692.5,346.3c-22.2,0.5-44.3-2-66.4-3c-22.4,0.1-44.5-2.9-66.5-7.3c-15.3-2.7-30.6-4.9-46-5.4c-26.8-2.7-53.9-4.3-80-11.4
	c-2.5-1.1-5.8-1.2-7.7-3.3c-0.7-1.3,0.3-3.1,1.9-2.5c9,3.3,18.4,4.2,27.7,6.3c17.4,3.4,35,4.1,52.6,6.1c12.1,1.7,24.5,1,36.6,3.6
	c15.8,2.3,31.4,6.1,47.2,8c15.7,2.2,31.6,1.4,47.4,2.6c27.4,2.7,54.9,2.7,82.4,1.9c2.7,0.5,7.3-1.9,8.3,1.4c0.1,1-0.4,2-1.4,2.2
	C716.6,346.5,704.5,346.1,692.5,346.3z"/>
<path d="M730,343c-1.9-1.2-0.4-3.1,0.1-4.7c1.3-5.2,2-10.5,2.8-15.7c1.1-9.7,1.7-19.5,2.3-29.2c0.5-6.8,1.2-13.5,1.6-20.2
	c0.5-12.5,1.3-25,2.3-37.5c0.5-12.2,1.6-24.3,1.9-36.5c0.6-15.6-0.1-31.2,0-46.8c0.1-14.5-0.9-28.9-1.2-43.4c0-3.1,0-6.3,0.1-9.4
	c0.1-1.3-0.1-3.3,1.5-3.5c2,0.3,1.4,2.9,1.5,4.3c0,3.7,0,7.4,0.1,11.1c1.4,25.9,1.3,51.9,1.4,77.9c-0.2,11.4-0.9,22.9-1.6,34.2
	c-0.4,7.3-0.6,14.7-1.3,22c-0.8,9-1.1,17.7-1.5,26.6c-0.6,9.6-1.7,19.2-2.1,28.7c-0.7,9.7-1.2,19.4-2.9,29
	c-0.8,4.1-1.1,8.3-2.9,12.1C731.8,342.9,730.8,343.5,730,343z"/>
<path d="M755.3,85.4c-3.3-1.3-6.7-2.3-10.2-3.1c-4.7-1.2-9.4-2.3-14.2-3c-12.5-2.2-25.2-3.7-37.7-6.3c-16.5-3.2-33.2-2.6-49.8-4.1
	c-10.7-1.2-21.4-2.4-32.2-2.9c-15.2-0.7-30.4-1-45.6-2.7c-13.7-0.7-27.5-0.6-41.3-1c-16.5-0.9-33.1-1.8-49.6-0.5
	c-5.6,0.3-11.2,0.3-16.8,0.6c-3.5,0.3-7.1-0.1-10.6,0.6c-1.5,0.4-2.7,1.3-4.1,2c-5.4,2.5-10.8,5.2-15.3,9.2
	c-0.7,0.7-1.4,1.3-1.9,2.1c-0.1,0.7-0.8,1.6-1.6,1.1c-3.4-3.1,4.8-8.4,7-10c4.5-2.9,9.3-5.2,14-7.9c3.8-1.5,8-0.8,11.9-1.1
	c5.1-0.2,10.2-0.2,15.2-0.5c17.2-1.4,34.4-0.7,51.6,0.4c13.4,0.3,26.8,0.4,40.2,1c10.2,1,20.4,1.9,30.7,2.2
	c6.9,0.2,13.8,0.5,20.6,0.8c10.7,0.7,21.1,2,31.5,3c6.8,0.5,13.6,0.6,20.4,0.9c10.2,0.6,20.4,1.6,30.5,3.7
	c18.7,3.9,38.1,4.9,56.3,10.9c0.7,0.2,1.4,0.5,2,0.8c0.8,0.4,1.1,1.5,0.9,2.4C757.2,85,756.2,85.8,755.3,85.4z"/>
<path d="M730.1,344.3c-0.4-0.7-0.3-1.8,0.3-2.4c1.9-1.6,4.2-3.3,5.9-4.9c2.5-2.2,5-4.5,7.6-6.6c1.3-1.1,2.6-2.1,3.7-3.3
	c0.6-0.7,0.8-1.6,1-2.5c0.4-2.3,0.6-4.6,0.8-6.9c2-26.2,3.9-52.5,5.5-78.7c1-27.1,0.9-54.3,2.1-81.4c0.6-11.2,0.2-22.4-0.4-33.6
	c-1-10.9-0.7-21.8-1.3-32.8c-0.1-1.7-0.2-3.4-0.3-5.1c-0.1-1.2-0.3-3,1.2-3.4c1.8-0.1,1.8,2.2,2,3.5c0.2,1.4,0.3,2.9,0.3,4.2
	c0.7,11.6,0.4,23.3,1.5,34.9c0.4,8.1,0.7,16.3,0.6,24.4c-0.3,10.9-0.9,21.8-1.2,32.8c-0.2,10.8-0.6,21.6-0.8,32.3
	c-0.1,7.9-0.1,15.8-0.6,23.7c-1.7,26.4-3.6,52.7-5.6,79.1c-0.8,14.3-1.8,11.1-11.7,20.2c-2,1.7-3.9,3.5-5.9,5.2
	C733.5,344,731.4,346.3,730.1,344.3z"/>
<path d="M738.3,97.4c-0.5-1.8,1.3-3.1,2.5-4.1c2.2-1.8,4.4-3.5,6.7-5.2c1.5-1.2,3.2-2.3,4.4-3.8c0.4-0.5,0.8-1.1,1.4-1.2
	c1.5-0.2,2.2,1.9,1.4,2.9c-1.1,1.5-2.4,2.7-3.9,3.7c-2.3,1.7-4.7,3.4-7,5.1c-1.2,0.9-2.6,1.7-3.7,2.7
	C739.8,98.5,738.4,98.3,738.3,97.4L738.3,97.4z"/>
<path d="M436,302.9c-2.3-69.1-3.3-138.4-0.1-207.5c0.1-1.8,0.3-3.7,0.6-5.5c0.2-1.6,2.5-1.3,2.2,0.4c-0.1,0.9-0.2,1.5-0.2,2.2
	c-1.4,50-2.1,100.1-0.7,150.1c0.1,13.5,0.5,27.1,0.7,40.6c0.1,6.7,0.4,12.9,0.8,19.3C439.4,304.8,436.2,305.3,436,302.9z"/>
<path d="M726.3,109.4c-23.5-3.6-47-7.6-70.8-8.4c-29.4-2.4-59.1-1.5-88.4-5.3c-21.2-0.6-42.4,1.1-63.5-1
	c-19.6,0.2-39.3-1.2-58.7-3.2c-2.7-0.7-11,2.6-9-2c3.9-2.3,9.2-1.4,13.6-1.3c17.2,2.2,34.3,2.4,51.6,2.4c18.1,1.1,36.3,1.6,54.4,0.8
	c11-0.6,21.7,2.1,32.7,2.3c15.2,1.1,30.5,1.2,45.7,2.2c24.2,1,48.4,2.6,72.4,6.3c6.8,1.3,13.8,2,20.6,3.3
	C728.4,106.3,728.2,109.4,726.3,109.4z"/>
<path d="M716,333.4c-3.3-0.4-6.6-0.4-10-0.6c-7.9-0.4-15.8-1.5-23.7-2.5c-4.9-0.6-9.7-0.9-14.6-1.3c-5.7-0.5-11.4-1.2-17.1-1.8
	c-5.7-0.7-11.4-1.3-17-2c-8.4-1.4-16.9-2.4-25.4-3.5c-5.7-0.8-11.5-1.8-17.2-2.4c-5.8-0.5-11.5-1.2-17.3-1.9
	c-6.5-0.6-13-0.5-19.5-0.8c-8.8-0.4-17.6-0.1-26.3-0.7c-11.4-0.8-22.5-4-33.8-4.9c-7.1-0.8-14.3-1.3-21.5-1.4
	c-7.7-0.4-15.5-1.3-23.2-1.5c-3.6-0.2-7.3-0.6-10.9-0.4c-0.4,0-0.7,0.3-1.1,0.2c-0.6-0.1-1-0.6-1.2-1.2s0-1.3,0.4-1.8
	c0.9-1.1,2.4-0.9,3.6-1c5.2-0.1,10.4,0.5,15.6,0.6c5.5,0.3,10.7,1,16.2,1.2c5.8,0.2,11.5,0.3,17.3,0.9c12.7,0.8,25.1,4.2,37.8,5.4
	c8.7,0.7,17.5,0.5,26.3,0.8c5.8,0.3,11.7,0.2,17.5,0.5c11.6,1.3,23.3,2.3,34.9,4.2c8.5,1.3,17.1,2.1,25.6,3.5
	c11.7,1.6,23.4,2.7,35.1,4c11.4,0.7,22.7,2.4,34.1,3.5c3.6,0.3,7.1,0.5,10.7,0.6c1.6,0.1,3.2,0.1,4.9,0.3c0.4,0,0.8,0.2,1.1,0.5
	C718.2,330.9,717.7,333.4,716,333.4z"/>
<path d="M718.2,331.3c-3.1-0.7,0.5-8.8,0.1-11.4c1.1-18,3.7-36.1,4.6-54.1c2.8-50.8,3.4-101.7,1.8-152.6c0.1-2.3-0.9-4.7-0.3-6.8
	c2.9-2.7,3.1,3.7,3.3,5.5c2,44.6,0.8,89.3-0.7,133.9c-0.6,20.6-2.5,41.1-4.7,61.5C721.7,311.3,722.1,331.4,718.2,331.3z"/>
<path d="M635.8,377.9c-8.1-1.7-16.4-2.9-24.6-4.1c-5-0.7-9.9-2-14.8-3.1c-8.4-1.5-17-0.7-25.5-1.8c-8.7-1-17.4-2.7-26-4.3
	c-3.6-0.6-5.5-3.1-3.5-6.6c1.5-3,3.1-5.9,4.7-8.8c1.7-3.1,3.5-6.2,5.3-9.2c0.9-1.5,1.8-3,2.7-4.4c0.6-0.9,1.4-1.8,2.6-1.6
	c1.5,0.2,2.3,2.7,0.6,3.1c-4.2,7.7-8.7,15.3-12.7,23.1c3.7,1.1,7.6,1.4,11.3,2.2c6.2,1.2,12.5,2.2,18.8,2.9
	c7.6,0.7,15.3,0.1,22.7,1.7c5.1,1.2,10.2,2.5,15.3,3.2c7.6,0.9,15.2,2.1,22.7,3.5c1,0.2,2.1,0.4,3.1,0.4c1.1-0.1,2.2-0.7,3.2-1.1
	c3.1-1.4,5.9-3.2,8.8-4.8c3.1-1.7,6.3-3.2,9.5-4.6c5.6-2.4,11.5-4.5,15.7-9c-1.1-1.9-2.3-3.8-3.7-5.5c-1.1-1.3-3.1-3.1-1.8-5
	c0.5-0.7,1.5-0.9,2.2-0.4c2.9,2.6,4.6,6.4,6.7,9.6c1.5,2.2-1,4-2.5,5.3c-5,4.6-11.6,6.7-17.7,9.4c-4.7,2-9.1,4.6-13.5,7.1
	C642.4,376.8,639.2,378.9,635.8,377.9z"/>
<path d="M637.9,378.3c-2.6-4.5,1.8-13.7,2-18.9c1.3-3,0.7-18.6,4.1-17.8c3.7-0.1-2,23.1-2.5,26.3c-0.6,2.8-1.4,5.6-1.6,8.4
	C640.1,377.4,639.2,379.2,637.9,378.3z"/>
<path d="M622.1,367.8c-6.3-0.4-12.2-2.7-18.4-3.2c-3.3-0.2-6.5-0.4-9.8-0.7c-3.6-0.2-7.2-1-10.7-1.4c-4.8-0.4-9.7-0.4-14.6-0.9
	c-3.6-0.4-7.2-0.7-10.9-1c-3.6-0.3-8-1-5.8-5.7c2-4.9,5.6-8.8,8.4-13.2c0.9-1.4,1.7-2.8,2.5-4.2c0.8-1.2,1.8-3.7,3.5-3.3
	c0.7,0.2,1,1,0.8,1.7c-1.8,2.9-3.2,6.1-5,9c-2.3,3.7-5.2,7.1-6.9,11.2c5,0.9,10.2,0.9,15.3,1.6c5,0.4,10,0.5,15,1.1
	c5.5,1,11,1.2,16.5,1.6c5.1,0.2,9.9,1.6,14.9,2.7c4.4,0.8,8.9,0.9,13.3,0.8c1-3,1.4-6.1,2.1-9.2c0.7-3.1,1.9-6.1,2.8-9.2
	c0.3-1.2,0.9-3,2.4-2.6c1.6,0.7,1.1,2.7,0.6,3.9c-1.6,4.3-2.8,8.8-3.7,13.3c-0.5,2.3-0.9,4.6-1.8,6.7c-0.5,1.1-1.6,1-2.7,1
	C627.4,368,624.7,368.1,622.1,367.8z"/>
<path d="M648.1,365.2c-1.4-0.8-1.1-2.7-0.8-4c0.6-5,1.3-10,2.3-14.9c0.3-1.1,0.3-2.3,1-3.2c0.6-0.7,1.8-0.3,2.1,0.5
	c0.4,1.7-0.3,3.5-0.5,5.1c-0.7,4-1.2,8-1.7,12.1c5.1-2.9,10.5-5.5,14.8-9.5c-0.7-1.7-2-3.1-2.5-4.9c-0.7-1.7,1.2-3.8,2.7-2
	c1,1.4,1.7,2.8,2.5,4.3c1.3,2.3,1.6,4.6-1,6.2c-1.2,0.9-2.3,1.8-3.5,2.7c-2.6,1.9-5.5,3.3-8.3,4.9c-1.5,0.8-2.9,1.7-4.5,2.4
	C649.9,365.2,649,365.7,648.1,365.2z"/>
<path d="M685.7,444.5c-7.9-0.6-15.7-2.1-23.6-2.9c-9.1-1.2-18.2-2.3-27.2-3.5c-2.3-0.4-4.7-0.8-7.1-1c-4.3-0.3-8.7-0.7-13-1.2
	c-3.6-0.3-7.3-0.3-10.9-0.7c-11.6-1.5-23.3-2.6-34.9-4.1c-6-0.7-11.9-1.5-17.9-2.4c-5.8-0.7-11.5-1.2-17.2-2.6c-4-0.7-8-1-11.9-1.7
	c-3.9-0.8-7.7-1.5-11.6-2.2c-9.5-2-19-3.1-28.7-3.9c-4.7-0.7-9.4-0.9-14.2-1.2c-4.4-0.4-8.7-0.9-13.1-1.2c-5.5-0.7-11-1.3-16.3-2.6
	c-3.7-0.7-7.4-1.1-11-2.1c-3.5-0.9-7-2-10.5-3.1c-6.5-1.6-13.3-2-19.9-2.8c-1,0.1-2-0.8-2.1-1.8c-0.5-5.8-0.3-11.6-0.6-17.3
	c-0.3-5.3,0.4-5.8,4.9-8.4c2.4-1.5,4.6-3.3,6.9-5.1c2.5-2,5.3-3.6,8-5.3c4.6-2.5,8.8-5.7,13.4-8.4c6.9-3.9,13.2-8.5,19.9-12.6
	c4-2.3,8.2-4.3,12.1-6.8c4.3-3.1,8.8-6,13.6-8.5c2.3-1.3,4.6-2.7,6.8-4c1.3-0.7,2.9-2.1,4.4-1.2c0.6,0.4,0.7,1.3,0.3,1.9
	c-0.5,0.6-1.4,0.9-2,1.4c-2.5,1.7-5,3.4-7.6,4.9c-2.6,1.6-5.3,3-7.8,4.7c-3.3,2.3-6.5,4.8-10,6.6c-5.8,3-11.5,6.5-16.8,10.3
	c-5.3,3.6-11.4,6.8-16.7,10.2c-3.7,2.6-7.7,4.7-11.6,7.1c-2.7,1.7-5.1,3.6-7.5,5.6c-2.1,1.7-4.5,3-6.7,4.7c-0.2,3,0.1,6.1,0.1,9.1
	c0.1,3,0,6.1,0.3,9.1c6.3,0.9,12.6,1.5,18.8,3c6.3,1.8,12.5,4.1,19,4.9c2.1,0.3,4.2,0.8,6.3,1.2c4.6,0.8,9.3,1.4,13.9,1.9
	c4.1,0.3,8.3,0.8,12.4,1.2c3.8,0.3,7.6,0.5,11.3,1c3.9,0.6,7.9,0.8,11.8,1.3c7.6,0.7,15.1,2.3,22.6,3.7c4,0.7,7.9,1.6,11.9,2.2
	c3.8,0.5,7.6,0.8,11.4,1.7c3.8,0.9,7.8,1.2,11.7,1.6c9.6,1.3,19.3,2.4,28.9,3.8c7.4,0.9,14.8,1.6,22.2,2.6c4.6,0.7,9.2,0.8,13.8,1.1
	c4.8,0.5,9.7,1,14.5,1.3c11.3,1.5,22.6,2.9,33.9,4.3c7.3,0.7,14.8,1.9,22.1,2.6c1,0.1,2,0.1,2.8-0.5c1.4-1,2.7-2.2,4-3.3
	c4.4-3.7,8.8-7.3,13.5-10.6c3-2.1,5.9-4.4,8.7-6.9c5.7-4.6,11.2-9.4,16.4-14.7c3.9-3.6,8-7,11.8-10.7c2.8-2.7,4.9-5.4,7.3-8.3
	c3.7-4.4,8.2-8,12.4-12c5.1-5.1,9.8-10.6,15.2-15.4c0.9-0.8,1.9-1.5,2.5-2.5c0.5-1.4,0.5-2.9,0.6-4.4c0.3-3.5,0.5-6.4,0.4-9.8
	c-0.2-2.2-0.5-4.5-0.8-6.7c-3.3-0.6-6.6-0.5-10-0.7c-6.9-0.4-14-0.3-20.8-1.9c-1.3-0.5-1.5-2.3-0.6-3.2c1-0.9,2.4-0.2,3.5,0.1
	c1.9,0.5,3.8,0.7,5.7,0.9c3.4,0.3,6.8,0.3,10.2,0.4s6.8,0,10.2,0.3c1.6,0.1,3.7,0.2,4.6,1.8c0.9,2,0.6,4.4,1,6.5
	c0.6,5.1-0.1,10.1-0.5,15.2c-0.1,2.1-0.8,4.1-2.4,5.5c-2,1.8-4,3.7-6,5.6c-4.2,4-7.9,8.7-12.3,12.6c-2.8,2.5-5.7,4.8-8.3,7.5
	c-3.4,3.4-6.1,7.3-9.4,10.7c-2.8,2.9-5.9,5.5-8.9,8.2c-3.9,3.3-7.5,7-11.3,10.5c-4.6,3.8-9.2,7.6-13.8,11.4
	c-4.6,3.5-9.3,6.9-13.7,10.6c-1.5,1.3-3,2.5-4.5,3.8C690.2,442.2,688.4,444.5,685.7,444.5z"/>
<path d="M609.4,421.3c-5.3-0.4-10.5-1.5-15.7-2.8c-4.7-1.2-9.6-1.9-14.4-2.8c-1.5-0.3-3-0.6-4.5-0.9c-3.5-0.6-6.6-0.6-10-1.2
	c-5.3-0.9-10.6-1.8-15.9-2.5c-3.9-0.3-7.7-0.6-11.5-1.4c-6.2-1.1-12.4-2-18.7-3.1c-4.5-1.2-9.1-1.3-13.7-1.5
	c-6.6-0.7-13.2-0.9-19.7-1.9c-1.9-0.3-3.8-0.8-5.7-1.2c-3.8-0.8-7.7-1.3-11.6-2c-2.9-0.5-5.8-1.2-8.7-1.6
	c-2.9-0.5-10.5-0.4-11.8-3.3c-0.7-1.7,0.7-3.2,1.9-4.3c2.5-2.6,5.2-5,7.8-7.4c2.8-2.6,5.3-5.5,7.9-8.3c3.1-3.5,6.6-6.6,10.3-9.5
	c0.9-0.7,1.8-1.5,2.7-2.2c0.5-0.4,1.2-0.7,1.8-0.4c0.9,0.5,0.9,1.6,0.4,2.4c-0.1,0.6-0.6,1.2-1.3,1c-1.9,1.7-3.8,3.3-5.7,4.9
	c-4.3,3.8-7.9,8.2-11.9,12.4c-3.2,3.3-6.9,6.2-10,9.6c3.8,1,7.9,0.9,11.7,1.7c6.6,1.5,13.3,2.3,19.8,3.7c6.8,1.5,13.9,1.5,20.8,2.3
	c4,0.3,8,0.3,11.9,1c8.3,1.8,16.7,2.7,25.1,4.3c3.4,0.6,6.9,0.6,10.3,1.1c1.8,0.3,3.6,0.7,5.5,0.9c4.4,0.5,8.8,1.8,13.1,2
	c5.9,0.4,11.6,1.9,17.3,2.8c7.4,1.3,14.7,3.8,22.2,4.4c0.6,0.1,1.2,0.2,1.5-0.4c0.9-1.2,1.7-2.5,2.6-3.8c3.4-5.7,8.5-9.8,12.8-14.8
	c2.1-2.5,3.8-5.2,5.4-8c0.8-1.3,1.4-2.7,2.3-3.9c0.5-0.7,1.4-0.8,2-0.3c1.8,1.5-0.2,3.6-1.1,5.1c-1,1.5-1.9,3.1-2.9,4.7
	c-3.2,5.3-8,9.4-12.1,13.9c-2.2,2.5-3.9,5.5-5.7,8.3C613,420,611.5,421.9,609.4,421.3z"/>
<path d="M633.3,387c0-1-0.1-2-0.2-3c-4.9-1.4-10-1.5-15-2.4c-4.7-0.8-9.4-1.8-14.2-2.3c-5.2-0.5-10.3-1.5-15.4-1.9
	c-5.8-0.5-11.5-0.9-17.2-2c-2.8-0.5-5.7-0.9-8.5-1.5c-5.8-1.4-11.6-3.1-17.7-3.6c-9.7-1.4-19.5-1.5-29.3-2.4
	c-6.2-0.4-12.2-1.3-18.3-1.6c-4.9-0.4-9.7-0.6-14.6-0.4c-1.7-0.1-5,1-4.3-1.9c0.6-1.6,3.9-1.2,5.3-1.4c4.9-0.3,9.7,0,14.6,0.3
	c4.1,0,8.1,0.6,12.2,1c3.1,0.2,6.3,0.5,9.3,0.8c8.3,0.7,16.6,0.7,24.8,1.9c7.3,0.5,14.2,2.8,21.3,4.2c6.4,1.1,13.1,2.1,19.5,2.6
	c4.9,0.4,9.8,0.9,14.7,1.7c6.5,0.7,12.9,1.7,19.3,3c4.4,0.8,8.9,1,13.3,2.2c1.7,0.5,3.9,0.4,3.6,2.9c-0.1,1.4-0.2,2.7-0.3,4.1
	c-0.1,0.6-0.6,1.3-1.2,1.3C633.8,388.5,633.3,387.7,633.3,387z"/>
<path d="M609,428.3c-7.4-1.4-14.9-2.9-22.5-3.6c-5.1-0.4-10.2-0.4-15.3-1.2c-3.3-0.5-6.7-0.7-10-1.3c-10-2-20.1-3.9-30.2-5.3
	c-5.2-0.9-10.3-2.1-15.5-2.8c-5.1-0.5-10.2-1.3-15.3-1.5c-5.1-0.4-10.2-0.6-15.3-1.3c-6.6-1-13.2-2.3-19.9-3.2
	c-3.3-0.6-6.7-1.1-10-1.7c-1.7-0.3-3.5-0.7-4.6-2c-1.5-1.8-1.6-4.2-2.2-6.4c-0.2-1.1-0.8-2.2-0.9-3.3l0,0c0-0.9,0.7-1.8,1.6-1.4
	c1.4,0.7,1.5,2.7,2,4.1c0.3,1.1,0.6,2.2,0.9,3.2c0.2,0.6,0.5,1.4,1.2,1.6c1.8,0.7,3.8,0.8,5.7,1.2c3.3,0.6,6.7,1.2,10,1.7
	c6.8,1.1,13.7,2.5,20.6,3.3c5.1,0.4,10.3,0.7,15.4,1c5.1,0.6,10.1,1.1,15.2,2c3.4,0.6,6.9,1.3,10.3,2c3.3,0.6,6.6,0.9,9.9,1.5
	c6.8,1.2,13.5,2.3,20.3,3.7c3.3,0.6,6.7,0.8,10.1,1.3c5.2,0.9,10.5,0.9,15.7,1.3c7.5,0.7,14.9,2,22.3,3.5c0-1.1-0.1-2.3,0.2-3.4
	c0.4-1.7,2.5-1.7,2.9,0c0.4,1.4,0.2,2.8,0,4.3C611.6,427.1,610.6,428.7,609,428.3z"/>
<path d="M609.6,428.5c-1.1-1.6,0.4-3.1,1.5-4.1c1.5-1.4,2.9-2.9,4.4-4.3c4.1-3.7,7.5-8.1,11-12.4c2.8-3.4,6.2-6.3,9.2-9.4
	c0.5-0.7,0.3-1.7,0.3-2.5c-0.1-3.3-1.2-6.4-2.1-9.6c-0.2-0.9-0.6-2.3,0.3-2.9c0.4-0.3,1-0.3,1.3,0.1c0.6,1,0.8,2.2,1.3,3.2
	c0.7,2.2,1.5,4.3,1.9,6.6c0.6,3.9,1.1,6.6-2.4,9.3c-2.7,2.5-5.3,5.1-7.7,7.8c-2,2.3-3.8,4.9-5.8,7.2c-2,2.3-4.3,4.3-6.5,6.3
	c-1.1,1.1-2.2,2.3-3.2,3.5C612.2,428.5,610.7,430,609.6,428.5z"/>
<path d="M450.2,392.1c-7.1-0.2-13.9-1.9-20.9-3c-4.5-0.7-9.1-1-13.6-1.6c-5.8-0.8-11.5-2-17.4-2.2c-1.8,0.3-2.5-2.1-1-3
	c0.5-0.2,1-0.3,1.5-0.3c2.8-0.2,5.6,0.3,8.4,0.7c4.4,0.5,8.8,1.3,13.3,1.8c3,0.2,6,0.6,9,1.1c4,0.7,7.8,1.9,11.8,2.5
	c2.7,0.4,5.3,0.6,8,0.5c1,0,2.4-0.3,3.1,0.6C453.4,390.8,452.1,392.5,450.2,392.1z"/>
<path d="M685.7,443.2c-0.9-2.9-1.6-6-2-9c-0.4-4.4-0.2-8.8-0.6-13.1c-3.4-0.5-6.6-1.4-9.9-2.1c-4.6-1-9.2-2.1-13.8-2.9
	c-5.6-0.6-11.2-1.7-16.9-2.1c-2.9-0.3-5.7-0.3-8.6-0.5c-2.6-0.2-5.3-0.3-7.6-1.4c-1.1-0.6-1.5-2.2-0.6-3.1c0.6-0.7,1.5-0.3,2.2-0.1
	c1.5,0.4,3.1,0.5,4.6,0.7c5,0.3,10,0.3,14.9,1c4.6,0.7,9.3,1.2,13.9,2c4.6,1,9.1,2,13.7,3c2.8,0.6,5.5,1.4,8.3,1.8
	c1.2,0,2.4,0.1,2.7,1.5c0.6,6.6-0.4,13.4,1.6,19.7c0.3,1.2,0.7,2.4,0.8,3.7C688.8,444,686.5,445.1,685.7,443.2z"/>
<path d="M684.9,421.4c-0.9-0.5-1-1.8-0.2-2.4c0.5-0.3,1.1-0.4,1.6-0.6c1.9-0.9,3.6-2.3,5.3-3.7c2.3-2.1,4.6-4.4,7-6.5
	c3.4-2.9,6.9-5.5,10.2-8.4c2.4-2.2,4.4-4.8,6.9-7c2.5-2.1,5.2-3.9,7.7-6c3.4-2.7,6.3-6,9-9.4c4-4.6,9.5-7.6,13.7-11.9
	c2.4-2.4,4.2-5.2,6.6-7.5c2.3-2.2,4.8-4.3,7.1-6.5c3.6-3.4,6.3-7.5,9.7-11c1.6-1.6,3.3-3,5-4.4c1-0.8,2-1.6,3.1-2.3
	c1.9-0.9,3,2.1,1.5,3.2c-1.7,1.4-3.8,2.5-5.4,4c-3.6,3.1-6.3,7.1-9.5,10.6c-2.4,2.8-5.4,5.2-8.1,7.6c-2.7,2.2-4.7,5.1-7,7.7
	c-4,4.6-9.3,7.7-13.6,12c-1.6,1.6-2.9,3.5-4.4,5.1c-3.3,3.8-7.4,6.7-11.4,9.7c-3.5,2.5-5.9,6.1-9.1,8.9c-3.7,3.3-7.7,6.2-11.4,9.4
	C696,415,689.3,422.7,684.9,421.4z"/>
<path d="M673.1,400.6c5.5-0.5,9.7-4.4,14.3-6.9c4-2.2,8-4.7,10.9-8.2c2.9-3.4,5.2-8.5,4.3-12.9c-3.4-5.3-11.1-5.8-16.7-4.6
	c-4.6,1.2-8.7,3.4-13,5.4c-3.4,1.7-7,3.2-9.4,6.2C654.8,389.7,659.2,401.1,673.1,400.6z M670.2,404.7c-14.7-0.7-19.1-15.6-10.6-26.4
	c3-4.7,8.3-7,13.1-9.2c8.8-4.7,20.5-8.5,29.5-2.2c10.1,7.3-0.7,23.4-8.9,27.9C685.9,398.5,679.1,405.7,670.2,404.7z"/>
<path d="M698.2,387.5c-1-0.4-1.6-1.2-2.3-1.9c-5.5-7.4-8.7-7.6-17.3-9.4c-2.3-0.5-4.5-1.1-6.8-1.3c-0.4,0-0.7,0-1.1,0
	c-0.2,0.1-0.4,0.2-0.7,0.1c-1.7-0.5-1.2-2.9,0.3-3.3c2.9-0.8,5.9,0.4,8.7,0.8c5.4,1,11.3,1.8,15.4,5.8c2.1,2.1,3.7,4.1,5.4,6.2
	C700.8,385.7,699.9,388.1,698.2,387.5z"/>
<path d="M688.1,376.9c-1.4-0.6-1.1-2.6,0.3-3.1c1.8-1.2,3.7-2.3,5.6-3.4c0.9-0.5,1.7-1,2.6-1.6c0.9-0.6,1.8-1.4,3-1.2
	c1,0.2,1.3,1.4,1,2.2c-1,2.1-3.5,2.8-5.4,3.9c-1.5,0.8-3,1.7-4.5,2.5C689.8,376.6,688.9,377.2,688.1,376.9z"/>
<path d="M414.5,570.7c-2.5-0.2-5-0.4-7.4-0.7c-1.3-0.1-2.7-0.2-4-0.7c-3-1.2-2.3-5-2.9-7.6c-0.8-6.6-1.3-13.2-1.6-19.7
	c-0.5-10.3-0.1-20.6-0.4-30.8c-0.5-27.5,0.4-54.9,0.3-82.4c0.1-5.8,0.1-11.6,0.1-17.4c0-1.8-0.2-3.6,0.1-5.3
	c0.2-0.8,1.1-1.6,1.9-1.1c0.9,0.5,0.9,1.6,0.9,2.5c0,2.6,0,5.2,0,7.7c-0.1,13.8,0.1,27.7,0.1,41.5c-0.3,20.6-0.5,41.3,0.1,61.9
	c0.1,9.6-0.2,19.5,0.6,29c0.5,6,0.8,12,2,18c2.6,0.7,5.4,0.6,8,0.9c2.3,0.1,4.8,0.7,7-0.1c-0.8-17,0.6-34,0.4-51
	c-0.4-10.2-0.3-20.4-0.5-30.7c-0.3-6.9-0.8-13.7-0.7-20.6c-0.3-13.5-0.8-27-0.8-40.5c0-3.4,0-6.8,0-10.1c0.2-1.9-0.9-5.2,1.7-5.6
	c2.2,0.2,1.7,2.9,1.8,4.5c0,2.4,0,4.7,0,7.1c-0.1,16.9,0.7,33.9,1,50.8c0.2,6.8,0.8,13.6,0.7,20.4c-0.1,10.2,0.4,20.4,0.3,30.6
	c0,6.9-0.5,13.8-0.7,20.7c-0.1,6.9-0.3,13.7,0,20.6c0,2,0.5,4.2-0.3,6.1C420.6,571.1,417,570.8,414.5,570.7z"/>
<path d="M674.9,625.2c-4.4,0.1-5.5-0.9-5.6-5.3c-0.1-1.7-0.2-3.6-0.3-5c-0.5-7.5-0.2-15-0.2-22.5c0.2-11.6-0.5-23.1-0.7-34.7
	c-0.2-15.4-1-30.8-1.1-46.2c0.1-11.9,0.5-23.8,0.5-35.7c0.2-7.9,0.5-15.8,0.5-23.6c0-2.3,0.1-4.6,0.2-6.8c0.2-1.9,0-5.1,1.9-5.3
	c0.8,0,1.3,0.8,1.2,1.6c-0.1,0.5-0.2,1-0.2,1.6c-0.2,23.6-0.8,47.2-0.9,70.9c0.1,7.7,0.2,15.4,0.5,23.1c0.3,11.5,0.4,23,0.8,34.5
	c0.3,7.7,0.3,15.4,0.3,23c0,8.8-0.3,17.7,0.8,26.3c3.1,0.4,6.3,0,9.4-0.2c3.3-0.3,6.6-0.8,9.7-1.7c0.1-7.7-0.4-15.4-0.5-23.1
	c-0.1-7.7-0.1-15.5-0.1-23.2c-0.1-19.2-0.7-38.3-0.7-57.5c-0.2-11.6,0-23.2,0.1-34.8c-0.1-7.6-0.7-15.2-0.7-22.7
	c0-5.6-0.3-11.3,0-16.9c0.3-2.1,3.1-2.2,3.2,0.3c0.1,7.4,0,14.8,0.3,22.2c0.2,5.8,0.6,11.5,0.6,17.3c-0.1,13.5-0.2,27,0,40.5
	c-0.1,19.3,0.7,38.5,0.6,57.7c-0.1,12.8,0.2,25.6,0.7,38.4c0.1,3.7-0.2,5.6-4.4,6.2C685.7,624.7,680.3,625,674.9,625.2z"/>
<path d="M768,557.9c-2-0.1-4.1-0.2-6.1-0.2c-1.8-0.1-3.7,0.4-5.3-0.7c-2.9-2.4-2.3-6.8-2.4-10.2c0-5.2,0-10.4,0.1-15.5
	c0.3-12.6-0.4-25.2-0.5-37.9c-0.2-10.4-0.3-20.8-0.6-31.1c-0.5-6.1-0.4-12.3-0.2-18.4c0-4.9,0.3-9.8,0.7-14.7
	c0.4-8.1,0.5-16.2,0.7-24.3c0.1-5.3-0.1-10.6-0.2-15.9c0.2-2.1-1.1-6.5,1.6-6.7c0.9,0,1.5,0.8,1.6,1.7c0.2,1.8,0,3.6,0.1,5.4
	c0.3,5.8,0.3,11.7,0.2,17.5c-0.3,8.3-0.3,16.6-0.8,24.8c-0.5,5.2-0.4,10.4-0.5,15.6c-0.3,5.9,0.2,11.7,0.4,17.6
	c0.1,6.3,0.3,12.6,0.3,18.8c0.1,12.7,0.7,25.3,0.8,38c-0.1,6.9-0.1,13.7-0.2,20.6c0,3.3-0.2,6.7,0.3,10c0.1,0.4,0.1,1,0.5,1.1
	c1.1,0,2.2,0,3.2,0c3.3,0,6.6,0.2,9.9,0.1c0.6-11.9,0.1-23.9,0.1-35.8c-0.4-12.1-0.7-24.2-0.5-36.4c-0.1-13,1.1-26.4,2.2-39.2
	c0.5-8.1,0.9-16.3,1-24.4c0.5-16.6,1.9-33.1,1-49.7c0-1.2-0.1-2.4-0.2-3.6c0-1.2-0.3-2.7,0.7-3.6c0.9-0.6,1.9,0.2,2,1.1
	c0.6,3.5,0.7,7.2,0.8,10.7c0.7,18.6-1.1,37.1-1.4,55.6c-0.5,15.6-2.6,31.2-2.9,46.8c-0.5,20.1,0.5,40.2,0.6,60.3
	c0.1,5.7,0,11.4-0.1,17.2C775.2,558.1,772.7,558.3,768,557.9z"/>
<path d="M486.6,518.1c-2.6-0.9-2.1-4.1-2.1-6.3c0-2.5,0-5,0-7.5c0.1-14.2,0.3-28.4,0-42.6c-0.3-10.8-0.7-21.6-0.7-32.4
	c0-3.6-0.1-7.2,0.4-10.7c0.3-2.1,2.6-1.9,2.5,0.3c0.2,13.9,0.6,27.8,1.1,41.7c0.4,17.8-0.3,35.6,0.1,53.3c3.2,0,6.4-0.1,9.7-0.1
	c1.9-0.1,3.8,0,5.6-0.6c0-3-0.5-6.4-0.6-9.1c-0.2-3.6-0.3-7.1-0.2-10.7c0-17.5,1-35.2-0.7-52.6c-0.7-7.1-1.1-14.2-0.8-21.3
	c0.3-2.1,3-2.2,3.3,0c0.3,4.4,0.1,8.9,0.4,13.3c0.4,5.7,1,11.5,1.4,17.2c0.5,10.8,0.2,21.7,0.3,32.5c-0.1,9.1-0.4,18.3,0.5,27.2
	c0.8,6.2-0.3,8.4-6.9,8.5c-3.4,0.1-6.8,0.1-10.2,0.2C488.6,518.3,487.6,518.4,486.6,518.1z"/>
<path d="M613.8,413.3c-21.9-3.2-43.8-6.2-65.6-9.6c-11.9-2.1-24-2.4-36-4.1c-9.6-1.6-19-4-28.6-5.9c-8.8-1-17.7-1.9-26.4-3.5
	c-1-0.2-2.2,0.2-3.2-0.4c-0.7-0.6-0.7-1.8,0-2.4c1.2-0.6,2.9-0.1,4.2,0c8.2,1.6,16.4,2.5,24.7,3.4c8.9,2,17.7,4.3,26.6,5.9
	c8.2,1.7,16.6,1.7,24.9,2.7c9.9,1.1,19.8,2.6,29.7,4.1c12.8,1.8,25.6,4,38.4,5.6c3.3,0.4,6.6,0.6,9.9,1.1c1,0.1,2.1-0.3,3,0.4
	C616.8,411.6,615.4,413.7,613.8,413.3z"/>
<path d="M621.9,403.6c-6.2-0.4-12.2-1.3-18.4-1.9c-8.8-1.1-17.7-2.2-26.5-3.5c-7.6-1.1-15.1-2.9-22.8-3.5
	c-9.9-0.7-19.9-1.2-29.8-2.5c-5-0.9-10-1.5-14.9-2.6c-6.6-1.3-13.3-1.7-19.9-2.7c-4.9-1-9.9-1.8-14.8-2.8c-2.8-0.6-5.6-1.6-8.4-2.1
	c-0.8-0.2-1.7-0.3-2.5-0.4c-0.8,0-1.8-0.3-1.9-1.3c-0.1-1.4,0.9-1.8,2.1-1.6c3.1,0.2,6,1.2,9,2c5.7,1.3,11.5,2.1,17.2,3.4
	c4.2,0.5,8.3,1.1,12.5,1.5c3.3,0.4,6.6,1.1,9.8,1.8c6.5,1.1,13.1,2.3,19.7,2.8c7.8,0.8,15.6,1.1,23.4,1.7c6.7,0.6,13.3,2,19.9,3.1
	c13.5,1.9,27,3.6,40.6,5.1c2.5,0.3,5.1,0.1,7.5,0.5c1.1,0.5,1.2,2.3,0,2.8C623,403.7,622.4,403.6,621.9,403.6z"/>
<path d="M629.5,395.2c-4.2-0.5-8.3-1.8-12.6-2.5c-12.9-2.2-25.9-4-38.9-6c-6.7-0.9-13.4-1.4-20-2.3c-8.5-1.1-17.1-1.6-25.6-2.8
	c-4.9-0.6-9.9-1.1-14.9-1.6c-5.7-0.9-11.4-1.5-17.1-2.3c-5-0.3-10-0.4-14.9-1.3c-4.4-0.7-8.7-1.4-13.1-2.2c-0.9-0.2-2,0-2.8-0.6
	c-0.9-0.6-0.6-2.3,0.5-2.5l0,0c3.3-0.1,6.6,0.9,9.9,1.3c2.4,0.3,4.8,0.7,7.2,1.2c2.5,0.4,5,0.5,7.6,0.7c3.3,0.2,6.7,0.3,10,0.9
	c2.5,0.4,5,0.6,7.5,0.9c2.5,0.3,4.9,0.9,7.4,1.1c12,1.2,23.9,2.9,36,4c6.6,1,13.3,1.5,19.9,2.2c11.4,1.7,22.7,3.3,34,5.2
	c3.2,0.6,6.4,1.1,9.6,1.6c3.5,0.8,7,1.6,10.6,2C631.4,392.5,631.2,395.4,629.5,395.2z"/>
<path d="M461.8,397.1c-0.9-0.8-0.6-2.1,0.4-2.6c2.5-2.6,4.6-5.5,7.2-8c2.6-2.3,4.8-5,7-7.7c3.8-3.9,8-7.5,11.3-11.9
	c1.2-1.2,2.7-4.8,4.6-3.1c0.4,0.5,0.4,1.3,0.1,1.8c-2.7,3.4-5.9,6.7-8.8,9.8c-2.8,2.6-5.6,5.3-7.8,8.4c-2.5,3.1-5.7,5.6-8.2,8.7
	C466.2,393.8,463.8,398.3,461.8,397.1z"/>
<path d="M477.3,399.8c-0.5,0-0.9-0.4-1-0.9l0,0l0,0c-0.3-1,0.6-1.6,1.2-2.1c1.8-1.6,3.5-3.2,5-5c3.2-4.3,6.2-8.6,9.9-12.5
	c4-5,8.1-10,12.4-14.7c1.4-1,2.6,1,1.9,2.2c-1.3,2.2-3.6,3.8-5.3,5.8c-3.5,4.6-7,8.8-10.9,13C486.4,390.6,483.3,397.1,477.3,399.8z"
	/>
<path d="M494.4,402.3c-1.2-1.5,0.7-3.1,1.4-4.4c2.3-3.2,5.2-5.8,7.8-8.8c1.7-2,3.1-4.2,4.4-6.5c2.9-5.3,7.2-9.4,10.4-14.4
	c0.8-1.1,1.2-2.7,2.5-3.4c0.4-0.2,0.9,0,1.2,0.3c1.1,1.3-0.3,3-1,4.1c-1.6,2.4-3.2,4.8-5.1,7c-1.7,2-3.2,4.1-4.6,6.2
	c-1.6,2.5-3,5.2-4.9,7.6s-4.1,4.5-6.2,6.8c-1.3,1.4-2.5,2.8-3.6,4.3C496.2,401.9,495.4,403.3,494.4,402.3z"/>
<path d="M513.1,401.9c-0.3,0.4-0.7,0.8-1,1.2c-0.5,0.7-1.5,1.7-2.4,0.9c-0.7-0.8-0.4-1.6,0.1-2.4C510.9,401.7,512,401.8,513.1,401.9
	z"/>
<path d="M537.4,366.8c1.2,1.3-0.2,2.7-1.1,3.7c-1.1,1.3-2.2,2.8-3.1,4.2c-2.9,5.1-6.7,9.5-10.1,14.2c-1.6,2.4-2.9,4.7-4.7,7
	c-1.1,1.4-2.4,2.7-3.5,4c-0.9-0.1-1.7-0.2-2.6-0.4c-0.2,0-0.5-0.1-0.7-0.1c1.4-1.7,2.9-3.3,4.3-4.9c2.8-3.4,4.8-7.3,7.6-10.7
	c2.6-3.2,5.1-6.5,7.1-10c1-1.7,2.3-3.2,3.4-4.8C534.9,368,535.9,365.4,537.4,366.8z"/>
<path d="M532.3,405.1c-0.1,0.2-0.2,0.4-0.3,0.6c-0.3,0.6-0.7,1.6-1.5,1.4c-1-0.3-1-1.2-0.7-2.4C530.7,404.9,531.5,405,532.3,405.1z"
	/>
<path d="M554.8,368.7c1.1,0.6,0.8,2,0.3,2.9c-3,5.3-6.6,10-10.1,14.9c-1.5,2.4-2.6,5-4.3,7.3c-2.1,2.7-4.4,5.3-6.3,8.2
	c-1-0.1-2-0.2-3-0.3c1-1.6,2-3,2.4-3.6c1.7-2.4,3.8-4.6,5.4-7c1.6-2.4,2.7-5,4.4-7.3c3.1-4.2,6.4-8.3,8.9-13
	C552.9,369.8,553.4,368,554.8,368.7z"/>
<path d="M546.5,407.2c-0.1,0.1-0.2,0.3-0.3,0.4c-0.5,0.5-0.9,1.4-1.7,1.5c-0.5,0-0.9-0.3-1.1-0.8c-0.2-0.5-0.1-0.9,0.1-1.3
	C544.5,407.1,545.5,407.1,546.5,407.2z"/>
<path d="M564.9,373.3c1.2-1.5,3,0.5,2.1,1.9c-2,3.4-3.7,7-6,10.2c-1,1.5-2.1,2.8-3.1,4.3c-2.1,3.8-4.2,7.7-6.8,11.2
	c-0.7,1-1.4,2-2.1,2.9c-0.3,0-0.6-0.1-0.9-0.1c-0.7-0.1-1.4-0.2-2.1-0.4c1.9-2.6,3.6-5.2,5.3-7.8c2-2.9,3.3-6.1,5.3-9
	c2.8-3.6,5-7.3,7.1-11.3C564.1,374.7,564.5,373.9,564.9,373.3z"/>
<path d="M560.5,411.2c-1.7-0.8-0.4-2.8,0.3-3.9c1.2-1.9,2.3-3.9,3.4-5.9c0.8-1.4,1.6-2.8,2.5-4.2c1.8-2.7,4.3-5,6-7.8
	c2.2-3.8,4.1-7.6,6.6-11.2c1-1.3,1.6-2.9,3-3.8c1.2-0.6,2.3,1,1.7,2c-0.2,0.6-0.6,1-1,1.5c-3.9,4.6-6.1,10.4-9.5,15.3
	c-1.3,1.8-2.8,3.3-4,5.1c-2.8,3.9-4.9,8.3-7.7,12.2C561.6,411,561.1,411.4,560.5,411.2z"/>
<path d="M575.6,413.7c-1.4-0.9-0.2-2.6,0.4-3.6c1.2-1.9,2.5-3.6,3.9-5.4c3.9-5,7.3-10.4,10.4-15.9c1.4-2.3,3.4-4.2,4.9-6.4
	c1.3-1.7,1.8-3.8,2.9-5.6c1-1.3,2.6,0.1,2.2,1.4c-0.4,1.1-0.9,2.2-1.5,3.3c-1.8,3.4-4.4,6.2-6.5,9.4c-2.8,5.1-5.8,10.1-9.4,14.6
	c-1.5,2-3.1,4-4.6,6C577.5,412.3,577,414.3,575.6,413.7z"/>
<path d="M590.1,416.8c-1.1-0.9-0.3-2.3,0.4-3.2c0.9-1.4,1.9-2.8,3-4.2c2.2-2.9,4.2-5.9,6.1-9c1.9-3,4.3-5.5,6.2-8.5
	c2.7-4.6,5-9.6,9-13.2c1.3-0.9,2.5,0.9,1.8,2.1c-1.2,1.9-2.9,3.3-4.1,5.3c-2.1,3.6-3.9,7.4-6.5,10.6c-2.5,2.8-4.6,6-6.5,9.2
	c-1.6,2.5-3.4,4.9-5.2,7.2c-0.8,1.1-1.6,2.3-2.5,3.4C591.4,416.9,590.6,417.2,590.1,416.8z"/>
<path d="M601.1,418.5c-0.7,0-1.1-0.8-1-1.4c0.3-1.3,1.8-2.2,2.6-3.4c1.8-2.2,3.6-4.5,5.3-6.8c3.4-4.5,6.5-9.3,9.9-13.7
	c1.7-2.7,3.2-5.7,5.2-8.2c1.3-1.6,2.5-3.2,3.9-4.7c1.4-1.3,2.9,0.9,1.9,2.2c-1.9,2.4-4.1,4.6-5.7,7.2c-1.1,1.7-2,3.5-3.1,5.1
	c-2,2.8-4.3,5.5-6.1,8.4c-3.3,4.9-6.8,9.7-10.8,14.1C602.4,417.7,601.9,418.4,601.1,418.5z"/>
<g>
	<path class="st0" d="M679.8,181.2c-0.5,2.1-0.8,4.2-1.5,6.3c-1.2,3-2.8,5.8-5.5,7.7c-4.6,3.3-9.5,3.1-14.4,1
		c-4.6-2-7.7-5.6-9.5-10.2c-3.6-9.3-3.3-18.5,2-27.2c3.1-5.2,9-7.8,14.6-6.6c4.3,0.9,7.4,3.7,9.7,7.3c2.4,3.7,3.7,7.9,4.4,12.3
		c0.1,0.4,0.2,0.7,0.2,1C679.8,175.6,679.8,178.4,679.8,181.2z M669.9,176.5c-0.2-3.8-0.7-7.5-2.4-10.8c-0.9-1.7-1.9-3.6-4.2-3.6
		c-2.4-0.1-3.6,1.7-4.6,3.5c-2,3.6-2.4,7.5-2.1,11.5c0.2,3,1,5.8,3,8.2c2.2,2.5,6.9,3.8,8.8-1.1
		C669.4,181.7,669.7,179.1,669.9,176.5z"/>
	<path class="st0" d="M489.2,141.8c3.2,1.3,4.1,2.7,4.1,6.2c0,3.2,0,6.3-0.1,9.5c0,1,0.3,1.5,1.4,1.6c2.8,0.1,5.5,0.2,8.3,0.4
		c1,0.1,0.9-0.6,0.9-1.2c0-3.6,0-7.3,0-10.9c0-3.2,3-5.4,5.9-4.3c1.8,0.7,2.9,2.2,3.2,4.2c0.1,0.5,0,1.1,0,1.7c0,10.9,0,21.8,0,32.7
		c0,2.2-1.2,3.8-3,4.4c-1.8,0.6-3.8-0.2-5-1.9c-0.8-1-1.1-2.2-1.1-3.5c0-3.4,0-6.7,0-10.1c0-1.2-0.4-1.6-1.5-1.6
		c-2.7-0.1-5.3-0.2-8-0.3c-0.9,0-1.3,0.3-1.3,1.3c0,3.6-0.1,7.1-0.2,10.7c0,2.5-1.3,4.2-3.4,4.6c-2.3,0.4-4.5-0.8-5.4-3.1
		c-0.2-0.4-0.3-0.8-0.4-1.2c0-2.2,0-4.5,0-6.7c0.2-0.4,0.2-0.8,0.2-1.2c0.1-8.4,0.2-16.8,0.3-25.3c0-3.8,0.8-4.9,4.3-6
		C488.7,141.8,489,141.8,489.2,141.8z"/>
	<path class="st0" d="M576,169.6c0.9-4.6,1.8-9.2,2.7-13.8c0.3-1.6,0.6-3.1,0.9-4.7c0.5-2.4,2.6-4.1,4.6-3.9
		c2.8,0.3,4.8,2.3,4.8,4.9c0,2.5-0.7,5-1.2,7.4c-1.7,9.1-3.5,18.3-5.2,27.4c-0.5,2.6-1.9,4.1-4,4.3c-2.2,0.2-4.3-1.1-5.3-3.4
		c-1.7-4-3.4-7.9-5.2-11.9c-0.2-0.4-0.2-0.8-0.6-1c-0.5,0.4-0.6,1-0.9,1.5c-1.7,3.6-3.4,7.1-5.1,10.7c-1.1,2.3-2.6,3.1-4.9,2.9
		c-1.9-0.2-3.7-1.8-4.2-4c-0.7-3-0.8-6-1.2-9c-0.8-6.4-1.6-12.8-2.3-19.3c-0.3-2.2-0.5-4.4-0.8-6.7c-0.2-1.7,0.1-3.2,1.4-4.4
		c1.3-1.3,2.9-1.5,4.6-0.9c1.9,0.7,3.1,2.2,3.4,4.2c0.5,3.2,0.8,6.4,1.2,9.6c0.3,2.6,0.6,5.3,1.2,7.9c1-2.2,2.1-4.4,3.1-6.6
		c0.9-1.9,2.3-3,4.4-3c2.1,0,3.6,1.2,4.5,3c1.1,2.2,2,4.5,2.9,6.7c0.3,0.7,0.6,1.3,0.9,2C575.9,169.6,575.9,169.6,576,169.6z"/>
	<path class="st0" d="M515.9,241.8c0-3,0-6,0-9c0-3,0.1-5.9,0.5-8.9c0.5-3.9,2.3-5.7,6.2-6c4.6-0.3,8.9,0.7,12.6,3.7
		c4.7,3.7,6.5,11,3.7,16c-0.6,1.1,0,1.7,0.6,2.3c3.2,3.4,5.4,11,1.2,16.4c-2.3,2.9-5.4,4.5-8.9,5.2c-3.3,0.7-6.6,0.9-9.8-0.1
		c-2.5-0.8-4-2.5-4.6-5c-0.7-2.6-0.7-5.3-0.9-8C516.2,246.2,515.9,244,515.9,241.8z M525.7,247.2c0.1,1.4,0.2,2.9,0.3,4.3
		c0,0.5,0.2,1,0.8,0.9c1.8-0.2,3.5-0.6,5.1-1.5c1.2-0.6,1.6-1.6,1.4-2.9c-0.1-1.3-0.7-2.2-1.9-2.7c-1-0.4-2-0.7-3-0.8
		C525.6,244.4,525.6,244.4,525.7,247.2z M530.8,231.3c-0.1-0.3-0.1-0.7-0.3-1c-0.6-1.3-3-2.6-4.4-2.5c-0.5,0.1-0.6,0.3-0.6,0.7
		c-0.1,1.8-0.1,3.6-0.2,5.4c0,0.5,0.2,0.8,0.7,0.7c1.2-0.3,2.4-0.5,3.5-1.2C530.2,232.9,530.8,232.3,530.8,231.3z"/>
	<path class="st0" d="M546.3,168.5c-0.1,4.9-0.7,9.7-3.5,13.9c-3.9,6.1-10.9,7.8-17.3,4.4c-5.6-3-8.4-7.9-9.8-13.8
		c-1.5-6.6-1.1-13.2,1.8-19.5c1.5-3.2,3.5-5.9,6.6-7.7c5.2-3,11.4-1.8,15.4,2.7c4.2,4.7,6,10.4,6.6,16.5c0.1,0.6,0.2,1.2,0.2,1.8
		C546.3,167.3,546.3,167.9,546.3,168.5z M536.7,167.9c0.1-3-0.4-5.9-1.4-8.7c-0.6-1.5-1.2-3.1-2.4-4.2c-1.3-1.2-2.5-1.4-4-0.5
		c-1.4,0.8-2.1,2.1-2.8,3.5c-1.7,3.8-2,7.7-1.5,11.7c0.3,2,0.9,4,2,5.7c1.3,2.1,3.1,3.4,5.7,3.1c2.2-0.3,2.9-2.1,3.5-3.9
		C536.6,172.4,536.8,170.2,536.7,167.9z"/>
	<path class="st0" d="M545.1,236.6c0.2-3.6-0.3-7.1-0.2-10.7c0-2.8,1.6-4.6,4.2-4.9c2-0.2,4.5,1.6,5,3.9c0.5,2.1,0.4,4.3,0.4,6.4
		c0.1,4.6,0,9.3,0.5,13.9c0.4,3.3,1.2,6.5,3.7,8.9c1.7,1.7,3.7,1.6,5.2-0.3c1.4-1.8,2-4,2.3-6.2c0.1-1.1,0.2-2.1,0.2-3.2
		c0.2-5.9,0.4-11.7,0.5-17.6c0.1-3.2,1.9-5.3,4.6-5.3c2.5,0,5,2.5,5,5.3c0,3.7-0.1,7.4-0.3,11.1c-0.1,3.2-0.2,6.4-0.4,9.6
		c-0.3,5.6-1.8,10.7-6.1,14.7c-3.8,3.5-10,4-14.3,1.2c-5.3-3.5-8-8.7-9.4-14.7C545.2,244.8,545,240.7,545.1,236.6z"/>
	<path class="st0" d="M620.5,175.2c0-4.8,0-9.5,0-14.3c0-1.1-0.4-1.5-1.5-1.6c-2.7-0.1-5.5-0.4-8.2-0.7c-2.2-0.3-3.5-1.8-4.1-3.9
		c-0.5-2,0-3.6,1.7-4.9c1.1-0.9,2.5-1.1,3.9-1c5.1,0.6,10.3,0.8,15.4,1.1c3.9,0.3,7.9,0.6,11.8,1c1.8,0.2,3.3,1,4.3,2.5
		c1,1.6,1.2,3.2,0.3,4.9c-0.9,1.8-2.5,2.7-4.4,2.6c-2.4-0.1-4.9-0.4-7.3-0.6c-1.9-0.2-2-0.1-2,1.7c0,9.2,0,18.3,0,27.5
		c0,1.4-0.2,2.6-1.2,3.7c-1.4,1.5-3.4,2-5.4,1.3c-1.9-0.7-3.3-2.8-3.3-5C620.5,184.8,620.5,180,620.5,175.2z"/>
	<path class="st0" d="M582,222.9c3.3-0.1,4.6,1.3,5.8,2.9c2.4,3.2,4.7,6.4,7.1,9.5c0.9,1.2,0.9,1.1,1.5-0.1c1.1-2.4,2.1-4.7,3.3-7.1
		c1.3-2.6,3.6-3.5,6.1-2.5c2.4,0.9,4,3.9,3.1,6.3c-1,2.8-2.3,5.4-3.5,8.2c-3.5,7.9-7,15.8-10.5,23.7c-0.2,0.4-0.4,0.8-0.5,1.2
		c-1.1,2.4-3.2,3.4-5.5,2.8c-2.5-0.8-4.3-3.3-3.9-5.7c0.2-1.2,0.7-2.3,1.2-3.4c1.6-3.7,3.2-7.3,4.8-11c0.4-0.8,0.3-1.4-0.2-2.1
		c-3.6-4.8-7.1-9.6-10.6-14.4c-0.8-1.1-1.4-2.3-1.3-3.8C578.7,224.7,580.4,222.9,582,222.9z"/>
	<path class="st0" d="M645,241.9c0.2,4.3-1.2,7.9-4.5,10.8c-2.3,2.1-5.2,2.9-8.2,3.3c-1.3,0.2-2.6,0.4-3.8,1c-2,1-4,0.3-5.8-1.7
		c-1.4-1.6-1.6-4.2-0.5-5.9c1.2-1.9,3-2.7,5.1-3c1.8-0.2,3.6-0.5,5.3-1c1.1-0.3,1.8-1.1,2.2-2.2c0.3-1,0.4-2.1,0.3-3.2
		c-0.1-1.3-0.7-2.2-1.9-2.8c-2.5-1.3-5.2-1.4-7.9-1.6c-2.5-0.1-5,0.2-7.5,0.6c-2.2,0.4-4-0.1-5.5-1.8c-2-2.3-1.7-7.2,2.6-8
		c6.3-1.1,12.7-1.4,18.9,0.5c5.8,1.8,9.8,5.5,11.1,11.7C645.1,239.8,645,240.9,645,241.9z"/>
	<path class="st0" d="M631.8,266.1c0,2.9-2.1,4.9-5.1,4.9c-3.3,0-5.9-2.7-5.9-5.9c0-2.8,2.4-5.2,5.2-5.1
		C629.2,260,631.9,262.7,631.8,266.1z"/>
</g>
</svg>
