<?xml version="1.0" encoding="utf-8"?>
<!-- Generator: Adobe Illustrator 27.9.2, SVG Export Plug-In . SVG Version: 6.00 Build 0)  -->
<svg version="1.1" id="Calque_1" xmlns="http://www.w3.org/2000/svg" xmlns:xlink="http://www.w3.org/1999/xlink" x="0px" y="0px"
	 viewBox="0 0 1920 413.7" style="enable-background:new 0 0 1920 413.7;" xml:space="preserve">
<style type="text/css">
	.st0{fill:#46284E;}
</style>
<path class="st0" d="M1920,98.1c-46.7,9.4-93.4,18.8-140,28.3c-14.8,3-30.3,5.9-44.7,1.5c-16.3-5-28.4-18.4-42.5-27.9
	c-72.8-48.9-186.9,11.8-252.8-46c-10-8.7-18-19.7-28.9-27.3c-15.1-10.6-34.1-13.5-52.4-16.1c-76-11-157.6-21.3-226.3,13.1
	c-21.5,10.8-41,25.6-63.8,33.2c-71.2,23.6-149.8-30.1-222.1-10.2c-56.2,15.4-94.6,71.8-151.3,85c-63.6,14.7-124.7-29-188.7-41.9
	c-15.2-3.1-31.6-4.2-45.7,2.3c-11.7,5.5-20.5,15.7-28,26.3c-33.1,46.5-51.7,107.7-101.8,135C245.4,300,113,222.6,52,298.8L0,333.2
	v80.4h1920V98.1z"/>
</svg>
