<?xml version="1.0" encoding="utf-8"?>
<!-- Generator: Adobe Illustrator 27.9.2, SVG Export Plug-In . SVG Version: 6.00 Build 0)  -->
<svg version="1.1" id="Calque_1" xmlns="http://www.w3.org/2000/svg" xmlns:xlink="http://www.w3.org/1999/xlink" x="0px" y="0px"
	 viewBox="0 0 1920 461.3" style="enable-background:new 0 0 1920 461.3;" xml:space="preserve">
<style type="text/css">
	.st0{fill:#5D3166;}
</style>
<path class="st0" d="M1920,0c-62.1,29.2-108.1,77.2-185.8,78.9c-18.7,0.4-37.5-2.1-56-0.5c-46.2,4-75.5,31.4-116.5,44.8
	c-94.3,30.8-208.8-19.8-315.4-11.7c-59.5,4.6-115,27.6-174.4,22.8c-32.1-2.6-60.6-13-90.2-20.8c-88-23.2-192.5-22.7-279.9,1.3
	c-31.2,8.6-62.3,20.2-96.6,19.1c-43.8-1.4-80.2-23.6-124.1-24.4c-93.8,0-135.1,52.6-221.3,4.1c-57.3-32.3-84.1-70.9-172.9-75.7
	C51,35.8,22.5,38.9,0,45.8v415.6h1920V0z"/>
</svg>
