<?xml version="1.0" encoding="utf-8"?>
<!-- Generator: Adobe Illustrator 27.9.2, SVG Export Plug-In . SVG Version: 6.00 Build 0)  -->
<svg version="1.1" id="Calque_1" xmlns="http://www.w3.org/2000/svg" xmlns:xlink="http://www.w3.org/1999/xlink" x="0px" y="0px"
	 viewBox="0 0 1920 266.5" style="enable-background:new 0 0 1920 266.5;" xml:space="preserve">
<style type="text/css">
	.st0{fill:#A8736D;}
	.st1{fill:#7C3759;}
</style>
<g>
	<rect class="st0" width="1920" height="144.6"/>
	<path class="st1" d="M157.3,62.9c6.4,6.9,2.2,23.7-8.9,20.5c-6.5-2-19.6-5.1-16.3-14.4c1.3-2.8,2.6-6.5,5.7-7.7c0,0,0,0,0,0
		c0.7-0.4,1.5-0.7,2.3-1c1.1-3.4,7.4-2.2,10.2-1.6C153,59.4,155.5,60.8,157.3,62.9z"/>
	<path class="st1" d="M232.8,60.3c10,1.5,14.1,10.4,10.9,19.6c-3.1,6.4-12.9,7.8-19.2,9.6c-9.8,2.3-19.6,5.5-29.8,4.9
		c-6.7-0.4-12.1-4.5-16.7-9c-7.4-1.1,3.8-17.1,6.3-19.9c6.2-7.5,16.9-7.1,25.7-6.7C217.5,59.1,225.2,58.8,232.8,60.3z"/>
	<path class="st1" d="M237.4,231.3c2.8,4.7,3.7,10.8,1.9,16c-1.7,5.4-7,10.3-13,9.2c-7.8-1.9-16.9-9.9-15.7-18.6
		c0.7-5,7.6-9.7,12.4-10c0.5-1.7,2.5-2.1,4-2.2C231.2,225.2,235.4,227.5,237.4,231.3z"/>
	<path class="st1" d="M309.2,211.5c9.1,6.2,7,19.2,2.5,27.6c-3.6,7.1-11.8,10.6-19.5,9.7c-8.9-1-18.1-3.6-25.2-9.3
		c-13.5-11.6-3.9-23.3,9.9-27.6c1.4-1.6,3.9-1.7,5.8-2.5C290.5,207.1,302.1,206.9,309.2,211.5z"/>
	<path class="st1" d="M540,61.6c4.2,2.8,4.8,8.3,0.9,11.7c-3.3,3.2-7.3,5.6-11.1,8.1c-6.7,3.9-14.3,9.8-22.3,6.7
		c-2.1-0.8-4-1.8-6-2.8c-1.9-0.9-3.7-1.9-5.5-2.9c-0.7,0.2-1.4,0-2-0.3c-2.5-1.2-4.5-3.1-6.4-5.1c-6.5-6.4-4.2-17.1,4.4-20.1
		c3.4-1.3,7.1-1.5,10.7-1.4c6.6,0,12.4,0.4,18.8,1.1C527.8,57.1,534.6,57.7,540,61.6z"/>
	<path class="st1" d="M802.4,242.8c3.5,9.2-5.6,15.1-12.9,18.1c-9.3,3.7-20.8,7.4-30.7,4.6c-7.1-2.4-13.5-6.6-19.4-11.2
		c-6.2-4.8-9.3-8.6-3.4-15.5c2.1-6.7,16.6-11.3,22.9-13.4c9-3.2,16.8-3.1,25.5,1C791.7,229.9,799,235.2,802.4,242.8z"/>
	<path class="st1" d="M1062.9,233.4c-0.6,5.9-5.7,10.4-10.4,13.5c-6.8,3.8-14.8,7.6-22.7,5.8c-7.1-1.5-13.7-8.8-11.3-16.3
		c0.5-1.4,1.3-2.6,2.3-3.7c1-3,2.9-5.7,5.3-7.8c6.2-5.5,16.3-3.6,23.7-1.9C1054.7,224.3,1062.7,227.6,1062.9,233.4z"/>
	<path class="st1" d="M1110.2,234.1c4.8,6.7-1.1,12.1-7.1,15c-4.3,2.2-9.3,4.7-14.3,3.4c-6.3-2.2-14.6-14.3-9.6-20.6
		c2.6-3.2,7-4,10.7-5.1c1.7-1.4,4.4-0.5,6.3-0.2C1101.3,228.2,1106.8,230,1110.2,234.1z"/>
	<path class="st1" d="M1355.6,231.1c21.7,14.4-1.9,24.2-17.5,21.7c-6.2-1-13.5-0.9-18.9-4.3c-5.1-3.5-10.9-11-9.4-17.5
		c-1.4-1.4-0.2-4,1.8-3.9c3.8-0.8,7.4-2.4,11.1-3.8c6.5-3.1,13.3-1.3,19.6,1.3C1346.9,226.4,1351.4,228.6,1355.6,231.1z"/>
	<path class="st1" d="M1784,48c1.6,7.1,2.1,15.7-4.6,20.2c-7.5,4.7-16.9,3-25.3,3.4c-7.9,0.5-13.8,6.5-20.9,9.4
		c-9.1,3.9-19.2,4.5-29,4.2c-8.7-0.5-20.8-4-26.8-10.5c-2.3-2.5-1-4.4,0.4-7c0.3-2.4,2-4.4,3.5-6.2c0.5-0.7,0.9-1.7,1.8-2
		c3.2-3.3,6.7-6.3,10.2-9.3c18.2-15.7,18.8-25.1,45.5-26.7c13.3-0.1,30.3-2.5,39.5,9.4C1781.4,37.4,1782.9,42.8,1784,48z"/>
	<path class="st1" d="M1847,47.3c7.9,3.6,16.9,10.6,16.2,20.3c-1.2,7.4-10.3,8.2-16,10.5c-6.8,2-13.5,4.8-20.7,4.9
		c-10.3,0.3-18.3-11.4-14.8-20.9c1.6-4,4.1-7.6,6.3-11.3c1.9-2.5,6.9-12.6,10.6-9C1835.1,40.6,1841.1,45,1847,47.3z"/>
	<path class="st1" d="M1875.8,90.1c-7.9,1.1-15.7,2.9-23.6,4.4c-8.4,1.8-16.7,3.8-25.1,5.5c-5.5,1.2-11.1,2-16.8,1.7
		c-17.6-1-34.6-6.1-52.1-8.2c-13.7-0.6-27,3.3-40.6,4.2c-11.6,0.8-22.8-2.8-33.8-5.7c-12.2-3.1-23.8-7.7-35.5-12.1
		c-15.9-5.4-32.4-10.1-49.3-10.7c-17.1,0.1-32.6,8-47.1,16.3c-4.4,2.3-9.3,3.2-14.2,2.7c-6.1-0.4-12.1-1.1-18.1-1.7
		c-11.3-1.3-22.8-2-33.9,1.2c-5.6,1.6-11,3.7-16.7,4.8c-10.3,2-20.4-1.7-30.5-2.8c-11.1-0.6-21.7,3.5-32.1,6.9
		c-6,2.1-12.5,4.2-19,4.1c-20.2-1.1-39.8-6.8-59.2-12.4c-9.8-2.5-19.7-4.5-29.6-6.5c-14.1-3.1-28.7-5.4-43.1-2.5
		c-4.6,0.9-9,2.4-13.1,4.5c-8.1,3.9-14.5,10.4-21.9,15.3c-11.1,7.1-23.9,12.3-37.3,11.1c-9.1-0.7-17.8-3.7-26.8-5
		c-5.3-0.8-10.6-1-16-1.4c-11.2-0.2-21.3-4.1-32.4-4.5c-28.8,0.9-53.4,17.3-82.8,6.4c-10.7-4.2-21-9.6-32.5-11.7
		c-10.2-1.9-20.5-5.4-31-3.9c-4.9,0.7-9.4,2.7-14.2,3.7c-8.9,1.5-18,2.3-26.9,3.8c-2.9,0.6-13.3,1.7-17.4,4.4
		c-4.6-0.5-9.2-0.9-13.8-1.2c-14.6-0.9-29.3-2.1-43.8-4.3c-15.9-2.2-31.8-5.8-47.9-6c-6.4,0.1-12.7,1.4-19,2.5
		c-9.3,1.7-18.6,3.5-27.9,4.9c-17.1,2.8-34,2.1-51.3,0.3c-12-1.2-23.5-4.6-35.1-7.8c-20.4-5.5-41.8-8.6-62.9-5.8
		c-13.1,1.3-26,4-38.8,7.1c-11,2.4-21.8,6-32.9,7.6c-16.9,2-34.1-0.3-50.3-5c-8.5-2.7-17.1-5.4-26-5.6c-9.1-0.3-18.2,0.3-27.2,1.2
		c-8.4,0.9-16.7,2.5-25.1,3.5c-11.9,1.4-23.8,1.9-35.8,1.7c-21.6-0.2-43.1-3-64.7-4.3c-8.9-0.7-17.9-1.1-26.7,0.2
		c-18.3,2.5-36.4,6.5-54.8,7.7c-19.9,0.9-39.9-1-59.7-2.5c-11.6-1.3-23.2-2.5-34.8-2.1c-7.8,0.3-15.5,1.1-23.1,2.4
		c-9.3,1.5-18.4,4.4-27.8,5.9c-12.2,1.5-24.1,0.3-36.4-0.9c-12.8-1.4-25-5.6-37.5-8.7v139.6c7.4,2.8,14.7,5.5,22.4,7.1
		c17.7,4.3,35.6-2.3,52-8.8c11.5-5.1,23.1-9.9,35.5-12.2c13.3-2.4,26.9-4,40.4-4.2c15.3-0.2,30.4,2.7,45.7,2.9
		c14.4-0.6,26.9-11.6,39.3-18.2c7.3-4.2,14.9-7.9,22.5-11.5c5.1-2.4,10.3-4.5,15.9-5.6c7.6-1.7,15.5-0.8,23.2,0.7
		c17.2,3.3,32.8,11.8,49.4,17c10.7,3.4,21.7,5.8,32.7,7.9c6.4,1.2,12.9,2.3,19.5,2.1c10.4-0.2,20.8-2,31-3.8
		c9-1.4,18.4-4.2,27.3-0.8c33.1,13.6,43.7,12.3,77,1.2c7.3-2.2,14.8-3.8,22.3-4.8c7.3-0.8,14.8-1.7,22.1-0.3
		c7.3,1.4,14.3,4,21.5,6.1c12.3,3.6,24.8,6.5,37.5,8.5c28.6,4.8,57.4-0.7,85.8-4.2c16.8-1.4,33.8-2.5,50.6-0.4
		c17,3,33.8,7.6,50.1,13.1c10.1,3.6,20,7.5,30.4,10.2c10.7,3,21.6,4.7,32.6,6c9.6,1.3,19.3,2.2,29,1.2c10.2-0.8,20.4-2.7,30.2-5.8
		c10-3.1,19.5-7.6,29.1-11.7c17.6-7.5,35.8-14.3,54.8-16.5c14-0.4,28,0.5,41.9,2.6c22.2,3.5,44.3,10.2,67.2,9.8
		c16.5,0.4,31.6-7.3,47.5-10.5c6.8-1.4,13.8-1.6,20.6-0.3c7.8,1.7,15.3,4.7,23.2,6.3c13.3,2.7,27.1,4.6,40.7,2.8
		c8.9-1.3,17.2-4.8,25.9-6.7c15.5-3.2,32.1-5.6,47.3-0.1c9.4,3.5,17.9,8.9,26.8,13.4c5.9,3,11.9,5.9,17.9,8.7
		c12.1,5.4,23.7,12.5,37.1,14.5c15,2.5,30.4,0.2,45-3.8c14.6-4.1,28.2-11.5,43.2-14c9.2-1.6,18.3,1.1,27,3.9
		c10.7,3.5,21.9,5.3,33.1,5.3c14.9,0,28.5-6.6,42.8-10c16.9-3,34.4-4.9,51.3-1.2c9.9,2,19.8,3.6,29.9,4.1c7.1,0.5,14.3,0,21.1-2.3
		c9.3-3.2,17.3-9.2,26.6-12.4c15.4-5.4,32.3-6.3,48.5-4c17.8,2.8,35.5,6.2,53,10.8c12.1,3.5,24.6,6.2,37.2,6.1
		c12.1-0.3,24-2.4,35.8-4.7V91.5C1905.3,90,1890.6,88,1875.8,90.1z"/>
</g>
</svg>
