<?xml version="1.0" encoding="utf-8"?>
<!-- Generator: Adobe Illustrator 27.9.2, SVG Export Plug-In . SVG Version: 6.00 Build 0)  -->
<svg version="1.1" id="Calque_1" xmlns="http://www.w3.org/2000/svg" xmlns:xlink="http://www.w3.org/1999/xlink" x="0px" y="0px"
	 viewBox="0 0 399.4 334.9" style="enable-background:new 0 0 399.4 334.9;" xml:space="preserve">
<style type="text/css">
	.st0{fill:#FCFAE2;}
	.st1{fill:#010101;}
</style>
<g>
	<path class="st0" d="M106.1,155.1c2.7-2.9,5.2-5.8,7.8-8.8c1.9-2.1,3.9-4.1,6-6.1c0,0.6,0,1.2-0.1,1.7c-0.1,2.1-0.3,4.1-0.5,6.2
		c-0.2,2.3,0,4.7-0.3,7.1C114.8,156.1,110.4,155.1,106.1,155.1z"/>
	<path class="st0" d="M137.7,134.8c-1.2,0.2-2.4,0.4-3.6,0.5c-1.9,0.2-5.7-0.5-8.9-0.5c2-2.2,3.8-4.4,5.7-6.7
		c2.9-3.1,5.7-6.4,8.4-9.6c0.4,2.9,0.6,5.9,0.7,8.8c0,2.2,0.3,4.5-0.4,6.6c-0.2,0.4-0.5,0.5-0.9,0.7
		C138.3,134.7,138,134.8,137.7,134.8z"/>
	<path class="st0" d="M140.3,157.8c1.3-1.9,2.5-3.7,4.2-5.3c0.7-0.7,0.9-0.6,1.8-0.2c1.6,0.8,3.1,1.7,4.6,2.5
		c0.6,0.3,1.1,0.6,1.7,0.9c-4.2,1.4-8.5,2.7-12.7,4.3c-0.4,0.2-0.8,0.3-1.2,0.5C139.1,159.6,139.7,158.7,140.3,157.8z"/>
	<path class="st0" d="M143.4,114.5c-0.2,0-0.4,0-0.6,0c1.2-1.4,2.4-2.8,3.6-4.3c3.6-3.8,7.4-7.3,10.6-11.5c0.3-0.4,0.6-0.8,0.9-1.2
		c0.1,0.4,0.1,0.7,0.1,1.1c0.1,1.8,0,3.5-0.1,5.3c0,1.9-0.1,3.7-0.2,5.6c-0.1,0.8-0.1,1.6-0.3,2.4c-0.1,0.5-0.3,0.9-0.8,1.1
		c-0.2,0.1-0.4,0.1-0.6,0.2C152,114.3,147.7,114.7,143.4,114.5z"/>
	<path class="st0" d="M166,149.9c0.7-2,1.4-4.1,2.3-6.1c0.9-1.8,1.6-3.1,3.8-2.2c1.9,0.6,3.5,1.9,5.1,3.1c0.1,0,0.1,0.1,0.2,0.1
		c-1.2,0.5-2.3,1-3.4,1.6c-2.6,1.4-5.3,2.7-8.1,4C165.9,150.2,165.9,150,166,149.9z"/>
	<path class="st0" d="M163.2,93.7c-0.7,0-1.6-0.1-2.3-0.1c1.3-1.5,2.7-2.8,4.1-4.2c2.8-2.9,5.4-6,7.8-9.2c0.5-0.8,1.1-1.6,1.6-2.3
		c-0.1,3.8,0.4,7.7,0.2,11.5c-0.1,1.1-0.2,2.3-0.7,3.3c-0.2,0.3-0.7,0.6-1.4,0.8C169.9,94.1,164.9,93.7,163.2,93.7z"/>
	<path class="st0" d="M187.9,135.4c0.4-1,0.9-3.3,2.2-3.3c1.6,0.2,3,1.2,4.3,2c1.3,0.8,2.6,1.7,3.9,2.7c-0.6,0.2-1.1,0.5-1.7,0.7
		c-3.4,1.4-6.9,2.8-10.4,4.1c-0.1,0-0.1,0.1-0.2,0.1C186.7,139.5,187.3,137.4,187.9,135.4z"/>
	<path class="st0" d="M188.1,73.2c-2.5,0.5-5.1,0.9-7.6,0.7c-0.8-0.1-1.8-0.1-2.8,0c3.4-3.7,6.9-7.2,9.7-11.4
		c0.6-0.9,1.2-1.9,1.8-2.8c0.1,0.4,0.2,0.8,0.3,1.2c0.6,2.9,2.7,9.3,0.5,11.6c-0.3,0.2-0.7,0.4-1.1,0.5
		C188.6,73,188.3,73.1,188.1,73.2z"/>
	<path class="st0" d="M212.2,132.5c-2.7,0.2-5.4,0.9-7.9,1.8c0.2-0.6,0.3-1.3,0.6-1.9c0.9-2.9,1.6-5.9,3.1-8.5
		c3.1,1,5.6,3.5,7.9,5.7c1,1,2,2,2.9,3C216.5,132.4,214.3,132.3,212.2,132.5z"/>
	<path class="st0" d="M85.7,157.9c-1.5-4.9-3.1-8.6-6.9-12.3c-3.6-3.4-7.4-7.3-12.4-8.3c-4.9-1-9.9,0.6-14,3.2
		c-2.4,1.6-4.2,3.9-6.2,6c-1.9,2.2-3.7,4.6-5,7.2c-1.1,2.6-1.9,5.4-1.9,8.3c0.1,4.9,1.3,9.7,2.9,14.4c-3.3-3.2-6.3-6.7-9.1-10.1
		c-2.9-3.4-5.6-7-7.6-10.9c-1.6-3-2.8-6.3-4.1-9.4c-0.7-1.6-1.5-3.1-2.5-4.6c-0.9-1.4-1.5-2.8-2.4-4.1c-1.4-2.8-3.2-5.4-5-7.9
		c-1.8-2.6-3.9-4.9-5.4-7.7c-0.2-0.4-0.5-0.8-0.7-1.1c-0.7-1.9-1.3-3.8-1.8-5.7C1.4,104.1,9.6,94,20,92.1c4.8-1,9.7-1.6,14.5-1.3
		c1.4,0.1,3.2,0.4,4.7,0.5c0.6,0.1,1.2-0.2,1.5-0.6c0.3-0.3,0.5-0.7,0.7-1c0.7-1.1,1.5-2.1,2.2-3.2c1.8-2.6,3.8-5,6-7.2
		c1.5-1.7,3-3.4,4.3-5.3c1.2-2.1,1-4.7,0.3-6.9c-0.8-2.6-1.6-5.2-2.2-7.8c-0.7-3.3-0.7-6.6-0.7-9.9c0.2-4.4,2.9-8.1,5.6-11.4
		c2.5-3.2,5.2-4.8,8.9-6.1c3.8-1.2,7.4-2.1,11.4-2.5c6.2-0.3,12.4,1.2,18.1,3.7c1.7,0.9,3.6,1.2,5.6,0.8c5.6-0.7,11.5-1.2,17,0.7
		c1.8,0.6,3.5,1.3,5.3,1.9c1.5,0.4,2.6-1.4,1.7-2.5c0.2-0.5,0.3-1.1,0.5-1.6c1-2.9,2.4-5.5,4-8.1c3.2-4.9,7-9.4,11.8-12.7
		c6.2-4.4,13.3-8.4,21.2-8.1c3.2,0.2,6.3,1.3,9.2,2.7c3,1.5,6,2.9,8.6,5c4.7,4.1,8.8,9.2,10.9,15.2c4.3,11.4,2.7,16-2,26.6
		c-2.4,4.6-5.2,8.8-8.6,12.9c-2.6,3.1-5.7,5.8-8.2,9.1c-3.3,4.5-6.6,9.1-10.6,13c-1.2,1.2-2.4,2.4-3.5,3.6c-2.1,2.4-3.8,5.2-5.9,7.7
		c-2.4,2.8-5,5.3-7.5,7.9c-4.6,5-8.7,10.5-13.3,15.5c-3.6,3.6-6.5,7.9-10.1,11.5c-2.6,2.9-5.6,5.4-8.3,8.2c-2.7,2.9-4.9,5.7-7.6,8.7
		c-3.1,3.6-6.8,6.6-9.9,10.1c-2,2.6-4.3,4.9-6.6,7.1C87.9,164.8,86.8,161.3,85.7,157.9z"/>
	<path class="st0" d="M135.9,214.1c-2.4,0.5-4.8,0.7-7.1,1.2c-3.8,0.7-7.5,1.7-11.4,2.4c-4.2,0.7-8.5,0.6-12.8,1
		c-2.7,0.2-5.4,0.7-8.1,0.9c-4.5,0.3-9-0.1-13.4-0.4c-2.1-0.2-4.1-0.3-6.1-0.9c-1.9-0.6-3.6-1.6-5.3-2.5c-3.2-1.7-6.6-3-9.6-4.9
		c-7.8-5.1-8.8-11.6-11.8-19.7c-0.5-1.5-1.2-3.5-1.6-5.2c0,0,0,0,0,0c-0.3-1-0.2-2.3-1.2-2.8c-0.2-0.5-0.3-1-0.5-1.4
		c-0.2-0.4-0.3-0.9-0.5-1.3c-1.3-3.9-2.6-7.8-3.5-11.9c-0.5-2.2-0.8-4.5-0.7-6.8c0.1-1.7,0.6-3.3,1.1-4.9c1.4-3.9,4.2-7.1,7-10.1
		c2.3-2.8,5.5-4.9,8.9-5.9c1.5-0.4,3.1-0.6,4.7-0.6c3.1,0.1,5.9,1.8,8.2,3.7c3,2.6,6,5.3,7.9,8.8c1.2,2.4,1.9,4.8,2.8,7.4
		c1.1,3.5,2.2,7,3.2,10.6c0.5,1.8,1,3.6,1.7,5.4c1.4,3.3,3.3,6.4,5.7,9.2c3.6,3.8,8.5,7.9,14.2,7.1c1.9-0.3,3.6-1.3,5.1-2.4
		c3-2.1,5.5-4.7,7.6-7.7c2.5-3.8,4.5-7.8,7.5-11.2c1.9-2.2,4.2-4.1,6.8-5.4c2.8-1.4,5.8-2.5,8.7-3.6c5.5-1.9,11-3.5,16.4-5.7
		c5-2.1,9.9-4.3,14.7-6.8c2-1,4-1.9,6.1-2.7c0.4,0,0.7-0.1,1-0.4c2.9-1.1,5.9-2,8.8-3.1c3.5-1.3,6.9-2.8,10.3-4.2
		c0.2-0.1,0.4-0.2,0.6-0.3l0,0c0.2-0.1,0.5-0.2,0.7-0.3c0,0,0,0,0.1,0c0.2-0.1,0.4-0.2,0.6-0.3c0.2-0.1,0.4-0.2,0.6-0.3
		c0.1,0,0.2-0.1,0.3-0.1c0.1,0,0.2-0.1,0.3-0.1l0,0c3.8-1.5,7.8-2.4,11.9-2.2c3.8,0.3,7.9,1.1,11,3.5c3.4,3.2,4.4,8.1,5.8,12.4
		c1.7,5.8,3.3,9-0.5,14.4c-6.2,9.3-8.4,13.1-19,17.8c-2.6,1.3-5.3,2.6-7.8,4.2c-2.4,1.5-4.9,2.8-7.5,3.9c-2.6,1.1-5.4,2-8.1,2.9
		c-4.4,1.5-8.7,3.4-13.1,5c-5.1,1.7-10.2,3.6-15.3,5.6c-2.8,1-5.5,2.3-8.2,3.6c-3.3,1.4-6.7,2.4-10.1,3.4c-0.7,0.2-1.5,0.4-2.2,0.7
		C139.2,213.2,137.6,213.7,135.9,214.1z"/>
	<path class="st1" d="M51.2,137.3c-6,1.5-11.9,0.7-14.9-5.3c-2.9-6.2-4.2-13.9-1.1-20.2c1.2-2.5,2.9-4.8,4.6-7
		c2.7-3.3,5.7-6.6,9.2-8.9c1.1-0.7,5.5-3.4,5.7-0.9c0,0.7-0.9,1-1.4,1.2c-1.1,0.5-2.1,1.2-3.1,1.9c5.9-0.6,9.7,0.4,14.4,4
		c5.2,3.5,8.3,5.7,9.9,12.1c2,7.7-1.7,13.5-8.5,17c-4.3,2.3-8.8,4.3-13.5,5.6C52.2,137,51.7,137.2,51.2,137.3z"/>
	<path class="st1" d="M93,93.7c-9.4,1.1-17.2-2.8-20.4-12c-1.5-4.3-2.3-9.6-1.3-14c0.9-4.8,4.3-8.7,7.4-12.2
		c2.7-3.3,5.9-6.1,9.5-8.4c1.7-1.1,3.7-2.5,5.9-2.1c1.1,0.1,1.9,1.5,0.8,2.2c-0.3,0.2-0.7,0.2-1.1,0.2c-0.6,0.1-1.1,0.3-1.6,0.5
		c3.9,0.5,7.6,2.1,11.2,3.5c5.1,2,10.5,5.2,12.1,10.8c1.7,5.7-1.6,11.2-4.3,16c-3.5,6.1-7.9,13-14.9,14.9
		C95.3,93.5,94.1,93.7,93,93.7z"/>
	<path class="st1" d="M134,62.8c-2.4,0.4-4.9-1.1-5.7-3.4c-0.5-1.2-0.4-2.5-0.5-3.8c0.2-3.1,1.4-6.2,3.4-8.7
		c1.8-2.2,4.4-3.3,6.9-4.4c3.8-1.7,8.1-2.1,11.9-0.1c2.3,1.1,4.6,3.8,3.2,6.4c-1,1.9-3,2.7-4.8,3.7c-1.1,0.6-2.2,1.1-3.2,1.8
		c-3.5,2.4-6,6.8-10.2,8C134.7,62.6,134.4,62.7,134,62.8z"/>
	<path class="st1" d="M160,35.8c-4.4-2.4-5.5-8.7-5.7-13.3c-0.1-3.2,0.6-6.5,2.4-9.1c1-1.6,2.8-2.3,4.6-2.3c2-0.1,4.1,0.1,5.8,1.3
		c2.3,1.6,2.8,4.6,2.1,7.1c-0.6,2.2-2,4.2-2.7,6.4c-0.6,1.8-0.3,3.7-0.3,5.6c0.1,2.1-1.4,4-3.2,4.5C162,36.3,161,36.3,160,35.8z"/>
	<path class="st1" d="M187.3,62.4c-2.7,4.2-6.3,7.7-9.7,11.4c0.9-0.1,1.9,0,2.8,0c2.6,0.2,5.1-0.2,7.6-0.7c0.7-0.2,1.3-0.3,1.9-0.7
		c2.3-2.3,0.2-8.8-0.5-11.6c-0.1-0.4-0.2-0.8-0.3-1.2C188.5,60.6,187.9,61.5,187.3,62.4z M172.6,80.1c-2.4,3.2-4.9,6.4-7.8,9.2
		c-1.4,1.4-2.8,2.8-4.1,4.2c0.8,0,1.6,0.1,2.3,0.1c2.2,0,9.4,0.6,10.6-1.1c0.6-1,0.6-2.2,0.7-3.3c0.2-3.8-0.3-7.7-0.2-11.5
		C173.7,78.6,173.2,79.3,172.6,80.1z M157,98.6c-3.1,4.2-7,7.7-10.6,11.5c-1.2,1.4-2.4,2.8-3.6,4.3c0.2,0,0.4,0,0.6,0
		c4.5,0.3,9-0.2,13.3-1.5c0.5-0.1,0.7-0.6,0.8-1.1c0.1-0.8,0.2-1.6,0.3-2.4c0.1-1.9,0.1-3.7,0.1-5.6c0-1.8,0.1-3.5,0.1-5.3
		c0-0.3-0.1-0.7-0.1-1.1C157.6,97.8,157.3,98.2,157,98.6z M130.9,128.2c-1.8,2.3-3.7,4.5-5.7,6.7c3.2,0,7,0.7,8.9,0.5
		c1.2-0.1,2.4-0.3,3.6-0.5c0.6-0.2,1.5-0.2,1.9-0.9c0.7-2.1,0.4-4.4,0.4-6.6c-0.1-3-0.3-5.9-0.7-8.8
		C136.5,121.8,133.8,125.1,130.9,128.2z M113.9,146.3c-2.6,3-5.1,6-7.8,8.8c4.3,0,8.7,1,12.9,0c0.4-2.3,0.1-4.7,0.3-7.1
		c0.1-2.1,0.3-4.1,0.5-6.2c0-0.6,0.1-1.2,0.1-1.7C117.8,142.2,115.8,144.1,113.9,146.3z M66.4,137.3c5.1,0.9,8.8,4.9,12.4,8.3
		c3.7,3.7,5.4,7.4,6.9,12.3c1.1,3.4,2.2,6.8,3.3,10.3c2.4-2.2,4.6-4.5,6.6-7.1c3.1-3.6,6.8-6.5,9.9-10.1c2.7-3,5-5.8,7.6-8.7
		c2.6-2.9,5.6-5.4,8.3-8.2c3.6-3.6,6.5-7.9,10.1-11.5c4.7-5,8.7-10.5,13.3-15.5c2.5-2.6,5.2-5.1,7.5-7.9c2.1-2.5,3.8-5.2,5.9-7.7
		c1.1-1.2,2.3-2.4,3.5-3.6c4-4,7.3-8.5,10.6-13c2.5-3.2,5.6-5.9,8.2-9.1c3.4-4.1,6.2-8.2,8.6-12.9c4.8-10.6,6.3-15.3,2-26.6
		c-2-6-6.2-11-10.9-15.2c-2.6-2.1-5.6-3.5-8.6-5c-2.9-1.4-6-2.5-9.2-2.7c-7.9-0.3-15,3.7-21.2,8.1c-4.8,3.3-8.6,7.8-11.8,12.7
		c-1.6,2.5-3.1,5.2-4,8.1c-0.2,0.5-0.3,1.1-0.5,1.6c0.8,1.1-0.2,3-1.7,2.5c-1.8-0.6-3.5-1.3-5.3-1.9c-5.4-1.9-11.3-1.4-17-0.7
		c-1.9,0.4-3.8,0.1-5.6-0.8c-5.7-2.5-11.8-4.1-18.1-3.7c-4,0.4-7.7,1.3-11.4,2.5c-3.8,1.3-6.5,2.9-8.9,6.1c-2.7,3.3-5.4,7-5.6,11.4
		c0,3.3,0,6.7,0.7,9.9c0.6,2.7,1.5,5.2,2.2,7.8C55,69.3,55.2,72,54,74c-1.3,1.9-2.8,3.6-4.3,5.3c-2.2,2.3-4.2,4.7-6,7.2
		c-0.7,1-1.5,2.1-2.2,3.2c-0.2,0.3-0.4,0.7-0.7,1c-0.3,0.4-0.9,0.7-1.5,0.6c-1.5-0.2-3.3-0.5-4.7-0.5c-4.9-0.3-9.8,0.3-14.5,1.3
		C9.6,94,1.4,104.1,3.5,114.8c0.5,1.9,1.1,3.8,1.8,5.7c0.2,0.4,0.5,0.8,0.7,1.1c1.6,2.7,3.6,5.1,5.4,7.7c1.7,2.6,3.6,5.1,5,7.9
		c0.9,1.3,1.6,2.8,2.4,4.1c0.9,1.5,1.8,3,2.5,4.6c1.3,3.2,2.5,6.4,4.1,9.4c2.1,3.9,4.8,7.5,7.6,10.9c2.9,3.4,5.9,6.9,9.1,10.1
		c-1.6-4.7-2.8-9.5-2.9-14.4c0.1-2.8,0.8-5.7,1.9-8.3c1.3-2.6,3.1-5,5-7.2c2-2.1,3.8-4.4,6.2-6c1.9-1.2,3.9-2.1,6.1-2.7
		C61,137,63.7,136.8,66.4,137.3z M187.9,135.4c-0.7,2.1-1.2,4.1-1.8,6.2c0.1,0,0.1-0.1,0.2-0.1c3.5-1.2,6.9-2.7,10.4-4.1
		c0.6-0.2,1.1-0.5,1.7-0.7c-1.3-1-2.6-1.9-3.9-2.7c-1.4-0.8-2.7-1.8-4.3-2c-0.1,0-0.2,0-0.3,0C188.7,132.4,188.3,134.4,187.9,135.4z
		 M212.2,132.5c2.1-0.2,4.3-0.2,6.5,0.1c-0.9-1.1-1.9-2.1-2.9-3c-2.3-2.3-4.8-4.7-7.9-5.7c-1.5,2.6-2.2,5.7-3.1,8.5
		c-0.2,0.6-0.4,1.3-0.6,1.9c0.8-0.3,1.7-0.6,2.5-0.8C208.6,133,210.4,132.7,212.2,132.5z M168.2,143.8c-0.9,2-1.6,4-2.3,6.1
		c-0.1,0.2-0.1,0.3-0.2,0.5c2.7-1.3,5.4-2.6,8.1-4c1.1-0.6,2.3-1.1,3.4-1.6c-0.1-0.1-0.1-0.1-0.2-0.1c-1.6-1.2-3.2-2.4-5.1-3.1
		c-0.8-0.3-1.3-0.3-1.8-0.2C169.3,141.6,168.9,142.6,168.2,143.8z M144.4,152.5c-1.6,1.6-2.9,3.4-4.2,5.3c-0.6,0.9-1.1,1.8-1.7,2.7
		c0.4-0.2,0.8-0.3,1.2-0.5c4.2-1.6,8.4-2.9,12.7-4.3c-0.6-0.3-1.1-0.6-1.7-0.9c-1.5-0.9-3-1.8-4.6-2.5c-0.5-0.2-0.8-0.4-1.1-0.3
		C144.9,152.1,144.7,152.2,144.4,152.5z M50.5,146.6c-2.8,3-5.6,6.2-7,10.1c-0.5,1.6-0.9,3.2-1.1,4.9c-0.1,2.3,0.2,4.5,0.7,6.8
		c0.9,4,2.1,8,3.5,11.9c0.2,0.4,0.3,0.9,0.5,1.3c0.2,0.5,0.3,1,0.5,1.4c1,0.6,0.9,1.9,1.2,2.8c0,0,0,0,0,0c0.4,1.7,1.1,3.7,1.6,5.2
		c2.9,8.1,3.9,14.6,11.8,19.7c3.1,1.9,6.4,3.2,9.6,4.9c1.8,0.9,3.4,1.9,5.3,2.5c2,0.6,4.1,0.8,6.1,0.9c4.5,0.3,9,0.6,13.4,0.4
		c2.7-0.2,5.4-0.7,8.1-0.9c4.3-0.4,8.5-0.3,12.8-1c3.8-0.6,7.6-1.6,11.4-2.4c2.4-0.5,4.8-0.7,7.1-1.2c2.4-0.5,4.8-1.2,7.2-1.9
		c3.4-1,6.8-2,10.1-3.4c2.7-1.2,5.4-2.5,8.2-3.6c5.1-2,10.1-3.9,15.3-5.6c4.4-1.6,8.6-3.5,13.1-5c2.7-0.9,5.4-1.8,8.1-2.9
		c2.6-1.1,5.1-2.4,7.5-3.9c2.5-1.5,5.2-2.8,7.8-4.2c10.6-4.7,12.8-8.5,19-17.8c3.8-5.4,2.2-8.6,0.5-14.4c-1.4-4.3-2.4-9.2-5.8-12.4
		c-3.1-2.4-7.2-3.1-11-3.5c-4.1-0.2-8.1,0.7-11.9,2.2l0,0c-0.1,0-0.2,0.1-0.3,0.1c-0.1,0-0.2,0.1-0.3,0.1c-0.2,0.1-0.4,0.2-0.6,0.3
		c-0.2,0.1-0.4,0.2-0.6,0.3c0,0,0,0-0.1,0c-0.2,0.1-0.5,0.2-0.7,0.3l0,0c-0.2,0.1-0.4,0.2-0.6,0.3c-3.4,1.4-6.8,2.9-10.3,4.2
		c-2.9,1.1-5.9,2-8.8,3.1c-0.3,0.3-0.7,0.4-1,0.4c-2.1,0.8-4.1,1.7-6.1,2.7c-4.8,2.6-9.7,4.7-14.7,6.8c-5.3,2.2-10.9,3.8-16.4,5.7
		c-2.9,1.1-5.9,2.2-8.7,3.6c-2.6,1.3-4.9,3.2-6.8,5.4c-2.9,3.4-5,7.5-7.5,11.2c-2.1,3-4.6,5.6-7.6,7.7c-1.6,1.1-3.2,2.1-5.1,2.4
		c-5.6,0.8-10.5-3.3-14.2-7.1c-2.4-2.7-4.3-5.9-5.7-9.2c-0.7-1.7-1.1-3.6-1.7-5.4c-1-3.6-2.1-7.1-3.2-10.6c-0.9-2.6-1.5-5-2.8-7.4
		c-2-3.5-5-6.2-7.9-8.8c-2.3-2-5.1-3.7-8.2-3.7c-1.6-0.1-3.2,0.2-4.7,0.6C56,141.7,52.8,143.9,50.5,146.6z M135.3,217.5
		c-0.2,0-0.4,0.1-0.6,0.1c-0.7,0.1-1.4,0.2-2,0.3c-0.2,0-0.4,0.1-0.6,0.1c-0.9,0.1-1.8,0.3-2.7,0.4c-0.5,0.1-1,0.2-1.4,0.3
		c-0.7,0.1-1.3,0.3-2,0.4c-0.2,0-0.4,0.1-0.7,0.2c-0.7,0.1-1.3,0.3-2,0.4c-0.4,0.1-0.9,0.2-1.3,0.3c-1.6,0.3-3.1,0.6-4.7,0.9
		c-0.9,0.1-1.7,0.2-2.6,0.3c-1,0.1-1.9,0.1-2.9,0.2c-0.7,0-1.4,0.1-2.1,0.1c-0.7,0-1.4,0.1-2.1,0.1c-0.5,0-0.9,0.1-1.4,0.1
		c-0.7,0.1-1.4,0.1-2.1,0.2c-0.5,0.1-0.9,0.1-1.4,0.2c-0.5,0.1-0.9,0.1-1.4,0.2c-2.1,0.2-4.2,0.5-6.4,0.6c-3.9,0.1-7.8-0.2-11.6-0.4
		c-7-0.3-8.8-1.6-14.8-4.7c-2.7-1.4-5.5-2.5-8-4.1c-0.3-0.2-0.6-0.4-0.9-0.6c-0.1-0.1-0.2-0.1-0.3-0.2c-0.1-0.1-0.3-0.2-0.4-0.3
		c-0.1-0.1-0.3-0.2-0.4-0.3c-0.5-0.4-0.9-0.7-1.3-1.1c-0.5-0.5-1-1-1.5-1.5c-0.3-0.3-0.6-0.6-0.9-1c-0.9-1.1-1.8-2.3-2.5-3.5
		c-0.1-0.2-0.3-0.5-0.4-0.7c-0.6-1-1-2.1-1.5-3.1c-0.9-2.2-1.5-4.4-2.3-6.6c-1.3-3.4-2.3-6.9-3-10.4c-0.2-0.4-0.4-0.9-0.5-1.4l0,0
		c0,0,0,0-0.1-0.1c-0.2-0.1-0.4-0.3-0.5-0.4c-0.2-0.2-0.4-0.3-0.6-0.5c-0.2-0.2-0.4-0.3-0.6-0.5c-0.2-0.2-0.4-0.3-0.6-0.5
		c0,0,0,0,0,0c-0.2-0.2-0.4-0.3-0.6-0.5c-0.2-0.2-0.4-0.3-0.6-0.5c-0.2-0.2-0.4-0.3-0.6-0.5c-0.2-0.2-0.4-0.3-0.5-0.5
		c-0.2-0.2-0.3-0.3-0.5-0.5c0,0,0,0,0,0c-0.2-0.2-0.4-0.3-0.5-0.5c-0.7-0.7-1.3-1.3-2-2c-0.1-0.1-0.2-0.2-0.3-0.3
		c-0.3-0.3-0.5-0.5-0.7-0.8c-6.5-7.1-12.9-14.6-16.2-23.8c-1.2-3.3-2.6-6.4-4.5-9.4c-0.1-0.1-0.1-0.3-0.2-0.4
		c-0.1-0.1-0.1-0.2-0.2-0.3c-0.1-0.1-0.1-0.2-0.2-0.3c0,0,0,0,0-0.1c-0.1-0.1-0.1-0.2-0.2-0.3c-0.1-0.1-0.1-0.2-0.2-0.4c0,0,0,0,0,0
		c-0.1-0.1-0.1-0.2-0.2-0.3c-0.1-0.2-0.2-0.3-0.3-0.5c-0.1-0.2-0.2-0.3-0.3-0.5c-0.1-0.1-0.1-0.2-0.2-0.3c-0.1-0.1-0.1-0.2-0.2-0.3
		c-0.1-0.1-0.1-0.2-0.2-0.3c0-0.1-0.1-0.2-0.1-0.2c0,0,0,0,0,0c-0.1-0.1-0.2-0.1-0.3-0.2c0,0-0.1,0-0.1-0.1c-0.1,0-0.1-0.1-0.2-0.2
		c0,0-0.1-0.1-0.1-0.1c-0.1-0.1-0.2-0.2-0.3-0.3c-0.1-0.1-0.2-0.2-0.3-0.2c-0.1-0.1-0.1-0.1-0.2-0.2c0-0.1-0.1-0.1-0.1-0.1
		c0-0.1-0.1-0.1-0.1-0.2c-0.1-0.1-0.2-0.2-0.3-0.3c0-0.1-0.1-0.1-0.1-0.2c-0.2-0.3-0.5-0.6-0.7-0.9c0-0.1-0.1-0.1-0.1-0.2
		c0,0-0.1-0.1-0.1-0.1c0-0.1-0.1-0.1-0.1-0.2c-0.1-0.1-0.1-0.1-0.1-0.2c-0.1-0.1-0.1-0.2-0.2-0.3c-0.1-0.2-0.3-0.4-0.4-0.5
		c0-0.1-0.1-0.1-0.1-0.1c0-0.1-0.1-0.1-0.1-0.1c-2.5-3.4-4.6-7.1-6.1-11.1c-1.6-3.9-2.8-8.1-2.4-12.3c0.7-8.8,6.6-15.7,14.5-19.2
		c0.1,0,0.2-0.1,0.3-0.1c0.2-0.1,0.3-0.1,0.5-0.2c0.5-0.2,0.9-0.3,1.4-0.5c1.4-0.4,2.8-0.7,4.3-0.9c0.5-0.1,1-0.2,1.4-0.3
		c0.7-0.1,1.3-0.2,2-0.3c0.3,0,0.7-0.1,1-0.1c1.7-0.2,3.3-0.4,5-0.4c2.6-0.1,5.1,0,7.7,0.4c0.1,0,0.1,0,0.2,0c0.1,0,0.1,0,0.2,0
		c0.1,0,0.1,0,0.2,0c0.2,0,0.3,0,0.5,0.1c0,0,0,0,0,0c0.3-0.6,0.7-1.1,1-1.7c1.5-2.3,3.1-4.7,4.9-6.8c1.5-1.8,3.1-3.5,4.5-5.3
		c0.1-0.2,0.3-0.3,0.4-0.5c0.2-0.3,0.4-0.5,0.6-0.8c0.2-0.3,0.4-0.5,0.6-0.8c0.2-0.8,0.3-1.6,0.2-2.4c-0.8-4.3-2.7-8.3-3.1-12.6
		c-0.3-4.1-0.8-8.3,0.5-12.3c0.3-1.1,0.9-2.3,1.6-3.6c0-0.1,0.1-0.2,0.1-0.2c0-0.1,0.1-0.2,0.1-0.2c0.1-0.2,0.2-0.3,0.3-0.5
		c0.1-0.2,0.2-0.3,0.3-0.5c0.2-0.2,0.3-0.5,0.5-0.7c0.1-0.2,0.2-0.3,0.3-0.5c0.2-0.3,0.4-0.6,0.7-0.9c0.1-0.2,0.2-0.3,0.3-0.5
		c0.1-0.1,0.1-0.2,0.2-0.2c0.1-0.1,0.2-0.3,0.4-0.4c0.1-0.1,0.1-0.1,0.2-0.2c0.1-0.1,0.2-0.3,0.4-0.4c0.2-0.3,0.5-0.6,0.7-0.8
		c0.1-0.1,0.2-0.3,0.4-0.4c1.2-1.3,2.4-2.4,3.5-3.2c4.6-3,10.1-4.2,15.4-5.2c0.8-0.1,1.6-0.2,2.4-0.3c0.6-0.1,1.2-0.1,1.8-0.1
		c0.4,0,0.8,0,1.2,0c2.8,0,5.6,0.4,8.4,1.1c0.4,0.1,0.8,0.2,1.2,0.3c0.6,0.2,1.2,0.3,1.7,0.5c0.4,0.1,0.8,0.2,1.1,0.4
		c0.4,0.1,0.8,0.3,1.1,0.4c1.9,0.6,3.7,1.7,5.7,2.1c0.2,0,0.4,0,0.5,0c0.2,0,0.4,0,0.5,0c0.1,0,0.2,0,0.3,0c0.2,0,0.4,0,0.5-0.1
		c0.2,0,0.4,0,0.5-0.1c0.6-0.1,1.3-0.2,1.9-0.2c1.8-0.2,3.6-0.3,5.4-0.3c1.1,0,2.1,0,3.2,0.1c0.4,0,0.7,0.1,1.1,0.1
		c0.7,0.1,1.4,0.2,2.1,0.3c0.5,0.1,1.1,0.2,1.6,0.3c0.2,0,0.3,0.1,0.5,0.1c0.3,0.1,0.7,0.2,1,0.3c0.2,0.1,0.3,0.1,0.5,0.2
		c0.3,0.1,0.7,0.2,1,0.4c0.2,0.1,0.3,0.1,0.5,0.2c0.2,0.1,0.3,0.1,0.5,0.2c0.2,0.1,0.4,0.1,0.6,0.2c0.1,0,0.3,0.1,0.4,0.1
		c0.2,0.1,0.3,0.1,0.5,0.2c0-0.1,0-0.2,0.1-0.3c0-0.1,0-0.2,0.1-0.3c0-0.1,0-0.2,0.1-0.3c0.1-0.3,0.2-0.6,0.2-0.8
		c0.1-0.2,0.1-0.4,0.2-0.6c0-0.1,0-0.1,0.1-0.2c0-0.1,0-0.1,0.1-0.2c0.1-0.3,0.2-0.5,0.3-0.8c0-0.1,0-0.1,0.1-0.2
		c0-0.1,0-0.1,0.1-0.1c3.7-8.5,9.5-15.8,17.2-20.8c6.6-4.7,14.6-8.5,22.9-7.8c4.2,0.5,8.1,2.1,11.8,4c1.8,1,3.7,1.9,5.4,3
		c1.8,1.2,3.3,2.7,4.8,4.2c4.6,4.6,7.9,10,9.7,16.3c1.3,4,2.3,8.2,1.8,12.5c-0.5,4.1-2.1,7.9-3.7,11.7c-0.1,0.2-0.2,0.4-0.3,0.6
		c0,0.1-0.1,0.2-0.1,0.2c-0.1,0.2-0.1,0.3-0.2,0.5c0,0,0,0.1-0.1,0.1c-0.1,0.2-0.2,0.4-0.3,0.6c-0.1,0.2-0.2,0.4-0.3,0.6
		c0,0.1-0.1,0.2-0.1,0.2c-0.1,0.2-0.2,0.3-0.3,0.5c0,0,0,0.1-0.1,0.1c-0.1,0.2-0.2,0.3-0.3,0.5c0,0.1-0.1,0.2-0.1,0.2l0,0
		c0.1,0.1,0.2,0.3,0.2,0.5c0,0.1,0,0.1,0.1,0.2c0,0.1,0.1,0.2,0.1,0.3c0,0.1,0.1,0.3,0.1,0.4c0,0.1,0,0.1,0,0.2
		c0,0.1,0.1,0.3,0.1,0.4c0,0.2,0.1,0.4,0.1,0.5c0.1,0.4,0.2,0.8,0.3,1.1c0.1,0.6,0.3,1.1,0.4,1.7c0.1,0.4,0.2,0.8,0.3,1.1
		c0.1,0.4,0.2,0.8,0.3,1.1c0.2,0.8,0.3,1.5,0.5,2.3c0,0.2,0.1,0.4,0.1,0.6c0.1,0.4,0.1,0.8,0.2,1.2c0.1,1.1,0.1,2.4-0.1,3.7
		c0,0.1,0,0.2-0.1,0.3c-0.1,0.4-0.2,0.7-0.3,1.1c0,0.1-0.1,0.2-0.1,0.3c-0.1,0.1-0.1,0.3-0.2,0.4c0,0.1-0.1,0.2-0.1,0.2
		c0,0.1-0.1,0.2-0.1,0.2c-0.1,0.2-0.3,0.4-0.4,0.6c-0.1,0.1-0.1,0.1-0.2,0.2c-0.1,0.1-0.2,0.2-0.3,0.3l0,0c-0.1,0.1-0.2,0.2-0.4,0.3
		c0,0-0.1,0.1-0.1,0.1c-0.2,0.1-0.4,0.2-0.6,0.3c-0.1,0.1-0.2,0.1-0.3,0.1c-0.1,0-0.2,0.1-0.3,0.1c-0.6,0.2-1.3,0.4-1.9,0.5
		c-0.2,0-0.4,0.1-0.6,0.1c-0.2,0-0.4,0.1-0.6,0.1c-0.3,0.1-0.6,0.1-1,0.2c-1,0.2-2,0.3-2.9,0.3c-2.1,0.1-3.9-0.2-5.9-0.1
		c-0.6,4,0.3,8.1,0.1,12.1c-0.1,1.6-0.3,3.4-1,4.8c0,0.1-0.1,0.1-0.1,0.2c-0.5,0.8-1.1,1.4-2,1.8c-0.8,0.3-1.6,0.5-2.5,0.6
		c0,0,0,0.1,0,0.1c0.4,1.7,1,3.4,1.3,5.2c0.8,4.3,1,8.4,1.4,12.8c0.7,6.1-6.4,3.1-9.9,3.9c-0.2,2.5-0.3,5.4-0.1,7.8
		c0.1,2.1,0.9,5-1.4,6.3c-3.4,2.1-7.4,2-11.2,2.8c-1.2,2.6-1,5.5-1.2,8.3c-0.1,1.9-1.7,3-3.5,2.9c-3.1,0.4-6.4-0.1-9.4,0.7
		c-0.3,3.2-1.3,6.3-1.7,9.4c-0.1,0.8-0.2,1.7-0.2,2.5c0.1-0.1,0.1-0.2,0.2-0.3c0-0.1,0.1-0.1,0.1-0.2c0-0.1,0.1-0.1,0.1-0.2
		c0.4-0.6,0.7-1.2,0.9-1.5c0.7-1.2,1.5-2.3,2.3-3.5c0.2-0.2,0.3-0.4,0.5-0.7c0.1-0.1,0.2-0.2,0.3-0.3c0.3-0.3,0.5-0.6,0.8-1
		c0.1-0.1,0.1-0.1,0.2-0.2c0.3-0.3,0.6-0.6,0.8-0.9c0.2-0.2,0.3-0.4,0.5-0.5c0.2-0.2,0.4-0.3,0.6-0.5c0.1-0.1,0.2-0.1,0.3-0.2
		c0,0,0.1-0.1,0.1-0.1c0.1,0,0.1-0.1,0.2-0.1c0.1,0,0.1-0.1,0.2-0.1c0.3-0.1,0.5-0.2,0.8-0.2c0,0,0,0,0,0c0.1,0,0.1,0,0.2,0
		c0,0,0.1,0,0.1,0c0,0,0.1,0,0.1,0c0.3,0,0.7,0.1,1,0.2c0.1,0,0.2,0.1,0.3,0.1c0.1,0,0.2,0.1,0.3,0.1c0.2,0.1,0.4,0.2,0.7,0.3
		c0.2,0.1,0.4,0.2,0.6,0.3c0.1,0,0.2,0.1,0.3,0.1c0.1,0,0.2,0.1,0.2,0.1c2.4,1.3,4.6,2.8,7.1,3.8c0.1,0,0.1,0,0.2,0.1
		c0.1,0,0.1,0,0.2,0.1c0.1,0,0.3,0.1,0.4,0.2c0,0,0.1,0,0.1,0c0.5-0.2,1-0.4,1.5-0.6c0.3-0.1,0.6-0.3,0.9-0.4
		c0.2-0.1,0.4-0.1,0.5-0.2c0,0,0,0,0.1,0c0.4-0.1,0.7-0.3,1.1-0.4c0.4-0.2,0.7-0.3,1.1-0.5c0.2-0.1,0.5-0.2,0.7-0.3c0,0,0,0,0-0.1
		c0-0.1,0-0.1,0-0.2c0-0.1,0-0.1,0-0.2c0-0.1,0-0.1,0-0.2c0-0.1,0-0.2,0-0.2c0,0,0-0.1,0-0.1c0-0.1,0.1-0.3,0.1-0.4
		c0-0.1,0-0.1,0.1-0.2c0-0.1,0-0.1,0.1-0.2c0-0.1,0.1-0.2,0.1-0.3c0,0,0-0.1,0-0.1c0-0.1,0-0.1,0-0.2c0.3-0.9,0.6-1.8,0.9-2.8
		c0.1-0.3,0.2-0.6,0.3-0.9c1.4-4.7,3.4-9.3,9.1-7.1c0.5,0.2,1.1,0.4,1.6,0.7c0.1,0,0.2,0.1,0.2,0.1c0.2,0.1,0.5,0.3,0.7,0.4
		c0.1,0,0.2,0.1,0.2,0.1c0.1,0.1,0.2,0.1,0.2,0.2c0.1,0.1,0.3,0.2,0.4,0.3c0.2,0.1,0.3,0.2,0.5,0.3c0.1,0.1,0.3,0.2,0.4,0.3
		c0.2,0.1,0.4,0.3,0.5,0.4c0.1,0,0.1,0.1,0.2,0.1c0.2,0.2,0.5,0.3,0.7,0.5c0.1,0.1,0.3,0.2,0.4,0.3c0.4,0.3,0.8,0.6,1.1,0.8
		c0.1,0,0.1,0.1,0.2,0.1c0,0,0,0,0.1,0l0,0c0.2-0.1,0.4-0.1,0.6-0.2c0.3-0.1,0.5-0.2,0.8-0.3c0.1,0,0.3-0.1,0.4-0.1c0,0,0,0,0,0
		c0-0.1,0-0.1,0-0.2c0-0.1,0-0.1,0-0.2c0-0.2,0.1-0.3,0.1-0.4c0.8-2.9,1.5-5.9,2.4-8.7c0.6-1.8,1.6-3.8,3.6-4.2
		c3.3-0.7,7.8,2.9,10.4,4.6c0.6,0.4,1.2,0.9,1.8,1.3c0.1-0.3,0.2-0.6,0.2-0.9c1-3.6,1.7-7.3,3.2-10.8c0.8-1.9,2.3-3,4.4-2.3
		c1.8,0.6,3.5,1.6,5,2.8c2.4,2,4.6,4.2,6.8,6.5c0.9,1,1.7,2,2.4,3.2c0,0,0,0.1,0.1,0.1c0,0,0,0.1,0.1,0.1c0,0,0,0.1,0,0.1
		c0,0,0,0,0,0l0,0c0,0,0.1,0,0.1,0c0.4,0.1,0.7,0.3,1.1,0.4c0.1,0,0.2,0.1,0.3,0.1c0.1,0,0.2,0.1,0.3,0.1c0.1,0,0.1,0.1,0.2,0.1
		c0.1,0,0.2,0.1,0.3,0.1c0.1,0,0.2,0.1,0.3,0.1c0.1,0,0.2,0.1,0.2,0.1c0.2,0.1,0.3,0.2,0.5,0.3c0.1,0,0.2,0.1,0.2,0.1
		c0.4,0.3,0.9,0.5,1.3,0.8c0.1,0.1,0.2,0.2,0.3,0.2c0.2,0.2,0.4,0.3,0.6,0.5c4.1,4.1,5.4,10,7,15.4c0.2,0.7,0.4,1.3,0.6,2
		c0.1,0.2,0.1,0.4,0.2,0.6c0,0.2,0.1,0.3,0.1,0.5c0,0.1,0.1,0.3,0.1,0.4c0,0.1,0,0.2,0.1,0.2c0,0.1,0,0.2,0.1,0.3
		c0.1,0.5,0.2,0.9,0.3,1.4c0,0.1,0,0.1,0,0.2c0.1,0.4,0.1,0.8,0.1,1.1c0,0.1,0,0.3,0,0.4c0,0.1,0,0.3,0,0.4c0,3.6-2.1,6.8-4,9.6
		c-1.7,2.4-3.2,4.9-5,7.1c-2.1,2.7-4.8,4.9-7.7,6.7c-0.3,0.2-0.7,0.4-1.1,0.6c-0.4,0.2-0.7,0.4-1.1,0.6c-0.6,0.3-1.1,0.6-1.7,0.9
		c-0.2,0.1-0.4,0.2-0.6,0.3c-0.4,0.2-0.8,0.4-1.1,0.6c-0.6,0.3-1.1,0.5-1.7,0.8c-0.5,0.3-1.1,0.5-1.6,0.8c-2.6,1.3-5,2.7-7.4,4.2
		c-2,1.1-4,2.1-6.1,3c-0.4,0.1-0.7,0.3-1.1,0.4c-0.4,0.1-0.7,0.3-1.1,0.4c-0.9,0.3-1.9,0.7-2.8,1c0,0-0.1,0-0.1,0
		c-1.3,0.4-2.5,0.9-3.7,1.3c-0.9,0.3-1.9,0.7-2.8,1c-0.9,0.4-1.9,0.7-2.8,1.1c-0.9,0.4-1.9,0.7-2.8,1.1c-6.1,2.3-12.3,4.3-18.4,6.8
		c-1.4,0.5-2.8,1.1-4.2,1.7c-0.2,0.1-0.5,0.2-0.7,0.3c-0.2,0.1-0.5,0.2-0.7,0.3c-0.2,0.1-0.5,0.2-0.7,0.3c-0.5,0.2-0.9,0.4-1.4,0.6
		c-0.2,0.1-0.5,0.2-0.7,0.3c-0.1,0.1-0.2,0.1-0.3,0.2c-0.2,0.1-0.5,0.2-0.7,0.3c-0.2,0.1-0.5,0.2-0.7,0.3c-0.4,0.1-0.7,0.3-1.1,0.4
		c-0.2,0.1-0.4,0.1-0.6,0.2c-0.5,0.2-1,0.4-1.5,0.5c-0.3,0.1-0.6,0.2-0.9,0.3c-1,0.3-2,0.6-2.9,0.9c-0.4,0.1-0.7,0.2-1.1,0.3
		c-0.2,0.1-0.4,0.1-0.6,0.2c-1.2,0.4-2.5,0.7-3.7,1.1c-0.2,0.1-0.4,0.1-0.6,0.2C138.3,217,136.8,217.3,135.3,217.5z"/>
	<path class="st1" d="M76.2,134.9c-0.7-0.4-0.8-1.4-0.1-1.9c0.5-0.3,1.2-0.8,1.6-1.2c2.2-1.9,4.1-4.2,4.9-7c0.5-1.8,0.5-3.6,0.4-5.4
		c0.1-1.2-0.5-3.2,1-3.6c2.2,0.1,1.5,3.8,1.5,5.2c0.1,4-1.4,7.9-4.3,10.7c-0.9,0.8-2.5,2.6-4,3C76.9,135,76.5,135,76.2,134.9z"/>
	<path class="st1" d="M103.7,100.5c-6.1,1.4-12.5,2.4-18.6,0.8c-0.6-0.2-1.1-0.3-1.5-0.8c-0.6-0.6-0.5-2.1,0.6-1.8
		c1.5,0.6,3.3,0.7,4.9,0.8c2.3,0.1,4.7,0,7-0.3c3.7-0.5,7.4-1,10.7-2.9c5.3-3.2,8.3-8.9,12.2-13.6c1.8-2.3,3.3-4.8,5.2-7
		c0.2-0.2,0.5-0.4,0.8-0.5c1.2-0.1,1.9,1.4,1.3,2.4c-2,3.7-5.1,6.8-7.7,10.1c-3.9,5.1-8,10.8-14.4,12.6
		C103.9,100.4,103.8,100.5,103.7,100.5z"/>
	<path class="st1" d="M107.3,204c-3.9,0.9-7.6,1.6-11.5,1.5c-10-0.9-18.6-5.3-22.6-14.9c-0.5-1.5-1.1-3.7,0.4-4.8
		c0.4-0.3,0.9-0.1,1.1,0.2c0.5,0.5,0,1.1,0.1,1.7c0.2,1.6,1.1,3,1.9,4.3c2.5,4,6.4,7,10.9,8.5c3.1,0.8,6.2,1.9,9.5,1.8
		c3.9-0.1,7.4-0.9,11-1.5c3.5-0.6,7-0.9,10.5-1.5c1.1-0.1,1.6,1.8,0.5,2.2c-0.3,0.1-0.6,0.2-0.9,0.3
		C114.6,202.8,111,203.5,107.3,204z"/>
	<path class="st1" d="M154.5,190.7c-4.2,1-8.4,1.3-12.4,2.7c-0.4,0.1-0.8,0.2-1.2,0.4c-1.3,0.5-2.8,1-3.8,0
		c-0.5-0.5-0.3-1.7,0.5-1.7c1.1-0.3,2.2-0.6,3.2-1c1.4-0.5,2.8-1,4.2-1.2c3.7-0.8,7.5-1.5,11.1-2.5c1.3-0.3,2,1.8,0.8,2.4
		C156.2,190.1,155.4,190.4,154.5,190.7C154.6,190.7,154.6,190.7,154.5,190.7z"/>
</g>
<g>
	<path class="st0" d="M299.9,334.9c-2.8-0.1-5.5-0.4-8.3-0.6c-3.9-0.2-7.9-0.2-11.8-0.3c-4-0.1-7.9-0.4-11.8-0.6
		c-6.1-0.3-12.1-0.4-18.2-0.9c-6.1-0.5-12.3-0.7-18.2-2.3c-3.8-1.2-7.6-2.7-11.4-4.2c-3.6-1.5-7-3.6-10.2-5.9c-5-3.6-6.6-9-7.8-14.8
		c-1.2-5.7-1.5-11.6-1.6-17.4c0-0.5,0-0.8,0.2-1.1c-3.6-0.9-7.5-1.3-10.1-4.1c-3-3.1-4.7-7.3-5.3-11.5c-0.3-2.2-0.2-4.3-0.1-6.5
		c0.1-4.6,1.2-9.1,2.3-13.5c0.8-3.2,1.6-6.4,2.9-9.5c2.1-4.9,5.6-9.4,9.9-12.6c3.2-2.5,6.9-4.5,10.6-6.2c2.8-1.2,5.6-2.5,8.6-2.9
		c1.3-0.2,2.7-0.2,4-0.2c1,0,1.9,0,2.9,0.1c2.8,0.1,5.6,0.4,8.3,1.4c1.8,0.7,3.6,1.6,5.6,1.9c0.8-2.7,1.1-5.4,1.6-8.1
		c1-5.4,2.5-10.7,4.2-15.9c1.4-3.9,2.4-8.1,4.7-11.6c2.6-4,6.9-6.4,11.3-8.1c0,0,0-0.1,0-0.1c0-0.2,0.1-0.4,0.2-0.6
		c0-0.1,0.1-0.1,0.1-0.2c0,0,0-0.1,0.1-0.1c0-0.1,0.1-0.1,0.1-0.2c0.1-0.2,0.2-0.4,0.3-0.6c0,0,0-0.1,0.1-0.1
		c0.1-0.2,0.3-0.4,0.4-0.6c0,0,0-0.1,0.1-0.1c0-0.1,0.1-0.1,0.1-0.2c0-0.1,0.1-0.1,0.1-0.2c0.1-0.1,0.2-0.3,0.3-0.4
		c1.3-1.9,2.8-3.8,4.6-5.3c1-0.8,2.1-1.6,3.2-2.4c0.5-0.4,1.1-0.8,1.6-1.1c0.4-0.3,0.7-0.5,1.1-0.8c0.9-0.6,1.8-1.3,2.7-2
		c0.7-0.5,1.4-1,2.2-1.5c0.3-0.2,0.6-0.3,0.9-0.5c0.1,0,0.2-0.1,0.3-0.1c0.2-0.1,0.4-0.2,0.6-0.3c0.3-0.1,0.6-0.2,0.9-0.3
		c0.2-0.1,0.4-0.1,0.6-0.2c0.3-0.1,0.6-0.2,0.9-0.2c0.1,0,0.2,0,0.3-0.1c1.8-0.4,3.6-0.4,5.4-0.1c0.2,0,0.5,0.1,0.7,0.2
		c0.2,0.1,0.5,0.1,0.7,0.2c2.3,0.6,4.3,1.9,6.3,3.1c0.7,0.4,1.4,0.8,2,1.3c0.3,0.2,0.6,0.4,0.8,0.6c0.3,0.2,0.6,0.4,0.8,0.6
		c0.2,0.1,0.4,0.3,0.5,0.4c0.2,0.1,0.4,0.3,0.5,0.5c0.3,0.2,0.5,0.5,0.8,0.7c0.1,0.1,0.2,0.2,0.2,0.2c0.9,0.9,1.7,1.9,2.4,3
		c0.2,0.2,0.3,0.5,0.5,0.7c0.1,0.2,0.3,0.5,0.4,0.7c0.2,0.4,0.4,0.8,0.6,1.2c0.2,0.5,0.4,1,0.6,1.6c1,2.8,1.7,5.8,2.9,8.5h0
		c0.9,0,1.7,0,2.6,0c0.3,0,0.7,0,1,0c0,0,0,0,0,0c0.5,0,1,0,1.5-0.1c0.5,0,1-0.1,1.5-0.1c1.5-0.1,2.9-0.1,4.4,0c0.5,0,1,0.1,1.4,0.2
		c0.6,0.1,1.3,0.2,1.9,0.3c0.5,0.1,0.9,0.2,1.3,0.2c0.2,0,0.4,0.1,0.7,0.1c0.7,0.1,1.3,0.3,2,0.4c1.1,0.3,2.2,0.5,3.3,0.8
		c2.3,0.6,4.5,1.6,6.5,2.8c0.2,0.1,0.4,0.2,0.5,0.3c0.1,0.1,0.2,0.1,0.3,0.2c0,0,0,0,0,0c0.1,0.1,0.2,0.1,0.3,0.2c0,0,0,0,0,0
		c0.1,0,0.1,0.1,0.2,0.1v0c0.1-0.2,0.3-0.4,0.4-0.6c2.6-3.5,5.9-6.4,8.9-9.6c3-3.1,6-6.3,10-8.1c6.4-3,14.4-1.3,19.6,3.2
		c3.5,3,5.1,7.4,6.9,11.5c3.4,8.2,4.6,17.1,4.8,25.9c0.2,2.9,2,5.4,3,8.1c1.8,3.9,3.5,7.8,4.2,12.1c1.5,8.2,1.8,16.5,1.7,24.8
		c-0.1,3.4-0.4,6.7-0.9,10.1c0.4,1.8,0.5,3.7,0.5,5.6c0,3.9-0.3,7.9-1.2,11.8c-0.8,3.6-1.9,7.2-3.1,10.7c-2.1,6.8-7,12.1-11.8,17
		c-1.3,1.4-2.4,3-3.9,4.2c-2.9,2.6-6.1,5-9.8,6.4c-7.1,2.8-14.4,4.9-21.8,6.5c-3.8,0.7-7.8,0.9-11.6,1.5c-5.8,1.1-11.7,1.6-17.6,2.2
		c-5.4,0.5-10.8,1.2-16.1,1.2C301.3,334.9,300.6,334.9,299.9,334.9z"/>
	<path class="st1" d="M338.9,193.1c-1.4-0.6-2.7-1.6-4.1-2.3c0,0,0,0,0,0h0c-2.4-1.2-5-1.7-7.6-2.3c-2.1-0.4-4.1-0.9-6.2-1.1
		c-2.4-0.1-4.8,0-7.2,0.1c-3.9,0.2-5.6,0.9-6.8-3.5c-1.4-4.3-2.3-8.9-5.4-12.3c-2.5-2.7-5.8-4.6-9-6.3c-1.6-0.8-3.3-1.4-5.1-1.5
		c-3.9-0.3-7.2,1.7-10.1,4c-1.6,1.2-3.3,2.3-4.9,3.4c-2.2,1.4-4,3.2-5.5,5.2c-0.8,1-1.4,1.9-2,2.9c-0.4,0.7-1,1.6-1.9,1.2
		c-1.7-0.9,0.4-3.1,0.9-4.2c1.4-2,2.9-4.1,4.8-5.6c2.8-2.2,5.8-4.1,8.6-6.2c3.8-3,8.9-4.3,13.6-2.9c2.3,0.6,4.3,1.9,6.3,3.1
		c3.2,1.9,6.2,4.2,8.2,7.3c2.6,3.8,3.1,8.6,5,12.7c1.7,0.1,3.4,0,5.1-0.1c1.9-0.1,3.9-0.2,5.8-0.1c3.6,0.3,7.2,1.2,10.8,2
		c2.3,0.6,4.5,1.6,6.5,2.8c1.1,0.6,3,1.4,2.2,3c-0.3,0.4-0.7,0.7-1.2,0.7C339.3,193.2,339.1,193.1,338.9,193.1z"/>
	<path class="st1" d="M342.7,301.3c-7.9-0.5-15.4-0.7-23.3-0.8c-3.6-0.2-7-0.5-10.5-0.7c-5.2-0.2-10.4-0.1-15.5-0.6
		c-6.5-0.3-12.9-0.3-19.4-1c-7.5-0.5-14.8-1.9-22.3-2.7c-4.5-0.6-9.1-1.1-13.6-1.8c-3.5-0.7-7-1.5-10.6-1.9c-4.1-0.6-8.3-1.3-12.4-2
		c-4.2-0.7-8.4-1.3-12.5-2.6c-4-1.3-8.7-1.4-11.8-4.6c-3-3.1-4.7-7.3-5.3-11.5c-0.3-2.2-0.2-4.3-0.1-6.5c0.1-4.6,1.2-9.1,2.3-13.5
		c0.8-3.2,1.6-6.4,2.9-9.5c2.1-4.9,5.6-9.4,9.9-12.6c3.2-2.5,6.9-4.5,10.6-6.2c2.8-1.2,5.6-2.5,8.6-2.9c2.3-0.3,4.6-0.3,6.9-0.1
		c2.8,0.1,5.6,0.4,8.3,1.4c1.8,0.7,3.6,1.6,5.6,1.9c0.8-2.7,1.1-5.4,1.6-8.1c1-5.4,2.5-10.7,4.2-15.9c1.4-3.9,2.4-8.1,4.7-11.6
		c2.9-4.4,7.9-6.9,12.7-8.6c1.9-0.7,2.9,1.9,1.2,2.7c-0.6,0.2-1.1,0.4-1.7,0.7c-9.8,3.8-11,8.5-14.1,17.6
		c-2.1,6.3-3.9,12.7-4.9,19.3c-0.4,2.1-0.8,4.1-1.4,6.1c-0.2,0.5-0.8,0.9-1.4,0.9c-1.8,0-3.6-0.4-5.3-1.1c-1.6-0.6-3.2-1.4-5-1.7
		c-1.6-0.3-3.3-0.4-4.7-0.5c-3.1-0.2-6.3-0.3-9.3,0.7c-7,2.5-14,5.8-19.1,11.4c-4.4,4.9-6.2,9.9-7.6,16.2c-1.6,6-2.7,12.1-2.4,18.3
		c0.3,4.3,2,8.7,5.2,11.7c2.5,2,5.8,2.2,8.8,3.1c2.1,0.6,4.2,1.3,6.4,1.7c2.1,0.4,4.1,0.7,6.2,1c4.1,0.7,8.2,1.4,12.3,2
		c3.5,0.5,7,0.9,10.4,1.8c6.3,1.1,12.7,1.7,19.1,2.5c10.1,1.5,20.3,2.7,30.6,2.9c2.8,0,6.1,0.1,8.8,0.4c4,0.2,8,0.2,12,0.3
		c3.6,0.1,6.8,0.4,10.3,0.7c5.5,0.2,11,0.2,16.4,0.4c5.9,0.4,11.7,0.7,17.6,0.3c1.3-0.1,2.7-0.3,4-0.4c-0.4,1.1-0.8,2.2-1.4,3.2
		c-0.2,0-0.4,0.1-0.5,0.1c-2.6,0.3-5.1,0.3-7.7,0.3C345.3,301.3,344,301.3,342.7,301.3z"/>
	<path class="st1" d="M395.8,271.2c-0.1-1-0.2-2-0.4-2.9c0.7-4.9,1.1-9.9,0.9-14.9c0-7-0.6-13.9-1.8-20.8
		c-1.2-6.1-4.7-11.4-6.8-17.1c-0.7-2.7-0.3-5.6-0.6-8.3c-0.5-5.5-1.4-11-3.2-16.2c-1.4-3.7-2.9-7.5-5-10.8c-1.9-2.7-4.7-4.5-7.7-5.6
		c-5.6-2.1-11.4-0.4-15.7,3.4c-2,1.8-3.8,3.8-5.7,5.6c-3.5,3.4-7.4,6.6-9.5,11c-0.6,0.5-1.6,0.1-1.8-0.6c-0.2-1.6,1.1-3,1.8-4.3
		c2.6-3.5,5.9-6.4,8.9-9.6c3-3.1,6-6.3,10-8.1c6.4-3,14.4-1.3,19.6,3.2c3.5,3,5.1,7.4,6.9,11.5c3.4,8.2,4.6,17.1,4.8,25.9
		c0.2,2.9,2,5.4,3,8.1c1.8,3.9,3.5,7.8,4.2,12.1c1.5,8.2,1.8,16.5,1.7,24.8c-0.2,7.2-1.4,14.4-3.2,21.4c-0.3,0.9-0.6,1.9-0.9,2.8
		C395.8,278.3,396,274.7,395.8,271.2z"/>
	<path class="st1" d="M214.4,266.3c-3-0.9-5.5-2.9-8.2-4.4c-2.3-1.6-5.1-2.3-7.3-4c-2.5-1.8-2.7-5.1-1.3-7.6
		c0.7-1.2,1.8-2.6,3.3-2.6c1.3-0.9,2.9-1,4.4-1.1c0.8-0.1,1.7-0.1,2.5,0.1c5.7,0.5,11,4,13.7,9.1c1.2,2.3,0.9,5.1,0,7.5
		c-0.9,2.4-2.7,3.6-4.8,3.6C216,266.7,215.2,266.6,214.4,266.3z"/>
	<path class="st1" d="M235.7,272.8c-5.1-2.7-4.2-9.9-1.4-14c1.5-2.2,4-3.2,6.4-3.8c3.6-0.9,7.4-1.5,11.1-0.9
		c1.6,0.2,3.2,0.6,4.6,1.3c1.7,0.2,3.4,0.5,4.8,1.5c2.2,1.4,3.2,4.1,3,6.6c-0.1,1.8-0.6,3.7-1.7,5.2c-2.7,3.1-7.4,2.7-11.1,2.4
		c-1.6-0.2-3.2,0-4.8,0.6c-2.3,0.9-4.9,1.8-7.4,1.8C238.1,273.5,236.9,273.3,235.7,272.8z"/>
	<path class="st1" d="M288.1,247.1c-4.9-0.2-9.7-0.8-14.5-1.7c-3.7-0.7-7.3-1.7-10.6-3.5c-3.9-2-7.9-4.7-9.7-8.8
		c-1.7-4.1-1.6-8.7-0.6-13c1-5.3,3.5-9,7.3-12.7c3.3-3.6,7.3-6.9,12.1-8.3c0.5-0.9,1.7-0.8,2.6-1.2c3.9-1.4,7.9-0.7,11.9-0.3
		c9.6,1,19,6.2,23.1,15.3c2.2,4.5,2,9.7,1.1,14.5c-0.4,2.7-1,5.5-2,8.1c-0.8,2.3-1.8,4.3-3.5,6.1c-4.1,3.8-9.8,5.5-15.3,5.5
		C289.4,247.1,288.8,247.1,288.1,247.1z"/>
	<path class="st1" d="M350.3,255.8c-3.7-0.2-7.2-1.3-10.7-2.4c-2.3-0.8-4.5-2-6.7-2.9c-1.1-0.5-2.2-0.9-3.3-1.4
		c-4.7-2.1-8.8-6.4-8.7-11.8c-0.1-5.3,0.9-10.8,2.6-15.7c2.6-7.1,7.9-13.1,14.6-16.6c2.2-1,4.5-1.8,6.9-2.5c2.4-0.7,4.9-1.1,7.4-1.4
		c1.4-0.2,2.8-0.4,4.2-0.2c0.9,0.1,1.7,0.3,2.6,0.4c2.4,0.2,4.8,0.4,7,1.4c3.1,1.4,6.1,3.2,8.7,5.4c2.6,2.4,5.6,4.7,7,8
		c0.9,2.3,0.8,4.8,0.7,7.2c0,1.2-0.1,2.4-0.2,3.6c-0.3,3.7-1.1,7.3-2.3,10.9c-0.9,2.3-2.2,4.4-3.7,6.4c-3.4,4.1-7.5,8.8-12.7,10.4
		c-3.7,0.9-7.5,1.4-11.3,1.4C351.6,255.8,350.9,255.8,350.3,255.8z"/>
	<path class="st1" d="M299.9,334.9c-2.8-0.1-5.5-0.4-8.3-0.6c-3.9-0.2-7.9-0.2-11.8-0.3c-4-0.1-7.9-0.4-11.8-0.6
		c-6.1-0.3-12.1-0.4-18.2-0.9c-6.1-0.5-12.3-0.7-18.2-2.3c-3.8-1.2-7.6-2.7-11.4-4.2c-3.6-1.5-7-3.6-10.2-5.9c-5-3.6-6.6-9-7.8-14.8
		c-1.2-5.7-1.5-11.6-1.6-17.4c-0.2-2.5,3-2.6,2.9-0.1c0.3,8.4,0.8,17,4.1,24.8c1.7,3.6,5.1,5.8,8.4,7.7c2.8,1.8,5.9,3.1,9.1,4.2
		c3.1,1.1,6.2,2.5,9.4,3.2c14.5,2.2,29.3,2.3,43.9,3.3c4.9,0.2,9.8,0.1,14.6,0.5c2.8,0.3,5.7,0.6,8.5,0.6c7.3-0.1,14.6-1.1,21.8-1.8
		c5-0.3,9.9-1.4,14.9-2.1c5.7-0.5,11.4-1.6,16.9-3.2c5.1-1.4,10.2-2.9,14.9-5.2c2.4-1.2,4.5-2.9,6.5-4.6c1.7-1.4,3-3.3,4.5-4.9
		c2.6-2.7,5.2-5.5,7.3-8.6c1.4-2.1,2.5-4.7,3.3-6.9c1.1-3.4,2.1-6.9,2.9-10.4c0.9-4.3,1.2-8.8,1-13.2c-0.6-6.8-3.1-9.8-9.8-11.3
		c-6-1.1-10-0.5-15.5,2.1c-2.5,1.2-4.5,3.3-5.7,5.8c-3.8,7.2-4.8,15.3-6.8,23.1c-0.9,3.4-1.5,7-3.3,10.1c-1.9,3.1-4.5,6.7-8.4,6.8
		c-2.7,0.1-5.4-0.7-7.8-2c-2.7-1.7-4.7-4.3-7.2-6.2c-0.9-0.6-1.9-1-2.9-1.5c-0.4-0.2-0.9-0.3-1.3-0.5c2.4,0,4.8,0.1,7.2,0.2
		c2.6,2.2,4.7,5.3,8.1,6.3c2,0.6,4.6,1.3,6.3-0.2c1.9-1.8,3.5-4.1,4.4-6.6c1.1-3.4,1.8-7,2.7-10.5c1.6-7.2,3-14.5,6.6-20.9
		c0.7-1.4,1.6-2.7,2.7-3.8c2.7-2.6,6.4-4,10-5.1c5-1.4,11.7-0.7,16.3,1.5c6,2.5,7.7,8.8,7.5,14.8c0,3.9-0.3,7.9-1.2,11.8
		c-0.8,3.6-1.9,7.2-3.1,10.7c-2.1,6.8-7,12-11.8,17c-1.3,1.4-2.4,3-3.9,4.2c-2.9,2.6-6.1,5-9.8,6.4c-7.1,2.8-14.4,4.9-21.8,6.5
		c-3.8,0.7-7.8,0.9-11.6,1.5c-5.8,1.1-11.7,1.6-17.6,2.2c-5.4,0.5-10.8,1.2-16.1,1.2C301.3,334.9,300.6,334.9,299.9,334.9z"/>
	<path class="st1" d="M314,308.7c-4.3-0.7-7.4-4.1-10.3-7c-3.6,4.6-8.1,8.5-13.6,3.8c-2.1-1.8-3.5-4.2-5.7-5.9
		c-2.2,1.4-3.9,3.3-6,4.8c-2.3,1.8-4.8,2.3-7.4,0.8c-2.9-1.7-5.3-4.2-7.5-6.8c-5.4,5.7-10.9,8.1-16.9,1.6c-1.3-1.4-2.3-3-3.6-4.3
		c-3.6,1.7-6.5,5.5-10.7,5.4c-1-0.1-1.9-0.6-2.7-1.2c-2.8-1.8-4.9-4.3-6.8-6.8c-2.6,2.4-5.8,5.8-9.7,5c-4.1-1.3-6.9-5.3-8-9.3
		c-0.1-0.5-0.3-1-0.4-1.5c0-0.8,0.9-1.4,1.6-1c0.8,0.3,0.9,1.3,1.2,2.1c1,2.5,2.4,4.9,4.6,6.4c0.6,0.4,1.2,0.7,2,0.8
		c0.7,0,1.3-0.2,1.9-0.5c1.8-0.9,3.4-2.3,4.7-3.8c0.7-0.8,1.7-2.1,2.9-1.4c0.6,0.4,1,1,1.4,1.5c0.8,1.1,1.5,2.1,2.4,3.1
		c1,1.1,2.2,2.1,3.5,3c0.6,0.3,1.1,0.8,1.8,0.9c0.7,0,1.4-0.3,2.1-0.6c1.8-0.9,3.5-2.2,5.2-3.3c1.2-0.7,2.6-2.1,4.1-1.5
		c0.6,0.2,1,0.7,1.4,1.2c1.9,2.3,3.6,5.1,6.4,6.5c2.8,1.7,5.9-0.5,8-2.3c1.5-1.1,3.1-4.4,5.2-2.6c2.5,2.7,4.7,5.9,8.2,7.3
		c2.2,0.8,4.3-1.5,5.8-2.7c1.2-1.1,2.4-2.2,3.8-3.2c1.2-1,2.7-0.9,3.8,0.2c2.5,2.1,4,5.3,7,6.8c2.2,1.2,4.7-0.4,6.2-2.1
		c1.5-1.6,3.1-5.1,5.6-3c2.6,2.4,5,5.6,8.7,6.4c1.7,0.4,3.1-0.7,4.5-1.5c1.7-1.2,3.4-2.4,5-3.8c0.7-0.6,1.3-1.5,2.3-1.6
		c1.3-0.1,2.1,1.7,1.1,2.6c-1.8,1.6-3.8,3-5.8,4.4c-1.9,1.3-4.1,2.9-6.5,2.9C314.4,308.7,314.2,308.7,314,308.7z"/>
	<path class="st1" d="M344.3,306.8c-1.6-0.3-7.4-2.3-5.5-4.6c-0.7-0.1-1.2-0.9-0.8-1.6c0.4-0.7,1.3-0.6,1.9-0.6
		c1.8-0.1,3.6,0.1,5.4,0.1c1.7,0.2,3.7-0.2,5.2,0.9c2,1.4,1,3.5-0.7,4.7c-1.2,0.9-2.6,1.3-4,1.3C345.3,307,344.8,306.9,344.3,306.8z
		"/>
	<path class="st1" d="M297.9,204.3c-2.4-1.4-5-2.2-7.6-3.3c-2.2-0.9-4.3-2-6.4-2.9c-5.5-2.2-11.8-1.7-17.3-0.1c-3,1-5.9,2.5-8.7,3.9
		c-0.8,0.1-1.4-0.8-0.9-1.5c0.6-0.8,1.6-1.2,2.4-1.8c2.2-1.3,4.5-2.5,6.9-3.3c4.7-1.5,9.8-2,14.6-1.1c4.8,0.9,9,3.6,13.5,5.2
		c1.7,0.7,3.4,1.4,5,2.4c1.2,0.9,0.4,2.7-0.9,2.7C298.3,204.5,298.1,204.4,297.9,204.3z"/>
	<path class="st1" d="M322.1,208.6c-0.3-1.8,4.9-3.9,6.2-4.9c5.4-3.5,11.9-4.7,18.3-4.7c3.9-0.2,8.1,0.3,11.7,1.1
		c2.7,0.5,5.3,1.3,7.8,2.3c1.3,0.6,6.3,2.5,5.3,4.4c-0.3,0.5-0.9,0.7-1.4,0.5c-1-0.4-2-0.9-3-1.3c-2.4-1-4.9-1.9-7.4-2.4
		c-2.9-0.5-5.7-1.1-8.6-1.4c-2.4-0.1-5.1,0-7.5,0.1c-4,0.2-7.9,1-11.5,2.7c-2.4,1.3-4.8,2.5-7.2,3.7c-0.5,0.3-1.2,0.7-1.7,0.7
		C322.7,209.5,322.3,209.3,322.1,208.6z"/>
	<path class="st1" d="M291.4,258.2c-2.7-0.2-5.5-0.6-8.2-1.3c-1-0.4-2.3-0.6-3.1-1.4c-0.3-0.5-0.4-1.1,0.1-1.6
		c0.5-0.5,1.1-0.2,1.6-0.1c0.5,0.2,1,0.3,1.5,0.4c4.6,1,9.5,1.7,14.1,0.6c1.7-0.5,3.4-1.1,5.2-1.3c0.6-0.1,1.1,0.4,1.3,0.9
		c0.2,0.7-0.1,1.4-0.8,1.7c-1.2,0.5-2.5,0.9-3.8,1.2c-2,0.6-4.1,0.9-6.2,0.9C292.5,258.2,292,258.2,291.4,258.2z"/>
	<path class="st1" d="M340.8,267.1c-4.1-1-7.9-2.7-11.6-4.5c-0.9-0.5-2.5-0.7-2.7-2c-0.1-1,0.8-1.5,1.6-1.1c1.5,0.5,3.1,1.2,4.4,1.9
		c2.8,1.3,5.9,1.8,8.8,3c1.3,0.5,1,2.8-0.3,2.8C341,267.1,340.9,267.1,340.8,267.1z"/>
	<path class="st1" d="M365.7,305.7c-0.9-1.3,0.5-2.3,1.2-3.3c1.7-2.1,3.4-4.3,4.6-6.7c2.6-6.3,3.9-13.1,4.7-19.8
		c-0.1-1.1,1.2-1.9,1.8-0.7c0.4,1.3,0,2.8-0.1,4.1c-0.5,4-1.2,8-2.1,11.9c-1.2,5.4-3.9,10-7.9,13.9c-0.4,0.5-0.9,1-1.5,1
		C366.3,306.2,366,306,365.7,305.7z"/>
</g>
</svg>
