<?xml version="1.0" encoding="utf-8"?>
<!-- Generator: Adobe Illustrator 27.9.2, SVG Export Plug-In . SVG Version: 6.00 Build 0)  -->
<svg version="1.1" id="Calque_1" xmlns="http://www.w3.org/2000/svg" xmlns:xlink="http://www.w3.org/1999/xlink" x="0px" y="0px"
	 viewBox="0 0 400.2 299.1" style="enable-background:new 0 0 400.2 299.1;" xml:space="preserve">
<style type="text/css">
	.st0{fill:#FCFAE2;}
	.st1{fill:#010101;}
</style>
<g>
	<g>
		<g>
			<path class="st0" d="M231.7,126c-0.5-0.4-1-0.7-1.6-0.9c-0.6-2.9-1.3-5.7-2.2-8.5c-0.4-1.3-2.4-1.2-2.6,0.2c0,0.1,0,0.2-0.1,0.3
				c-0.6-0.5-1.4-0.8-2.4-0.6c-1.1,0.2-1.9,0.9-2.8,1.6c-0.9,0.7-1.8,1.4-2.7,2.2c-1.8,1.5-3.6,3.1-5.3,4.8
				c-1.2,1.2-2.5,2.9-4.1,3.6c-1.8-4-3.9-8-6.1-11.8c-0.4-0.7-1.6-0.9-2.1-0.2c-2.7,3.9-5.2,7.8-7.7,11.7c-0.4,0.6,0,1.5,0.6,1.8
				c0.7,0.4,1.4,0,1.8-0.6c0.1-0.1,0.2-0.3,0.3-0.4c0.1,0.1,0.3,0.2,0.5,0.2c0.7,0.1,1.4,0.1,2-0.1c0.2,0,0.3,0.1,0.5,0.1
				c1,0,2.1,0,3.1-0.1c0.5,0.1,1,0.2,1.4,0.3c0.4,0.1,0.8,0.1,1.2,0c0.4-0.2,0.7-0.5,0.9-0.9c0.2-0.1,0.3-0.3,0.4-0.5
				c0.4,0.8,0.8,1.7,1.1,2.5c0.2,0.5,0.8,1,1.4,0.9c2-0.3,3.5-1.5,4.9-2.9c0.5-0.5,1-1,1.5-1.5c0.3,0.2,0.6,0.4,1,0.4
				c3.7,0.2,7.4,0,11-0.5c1.7,0.4,3.2,1.6,4.9,2c0.5,0.1,1.2-0.2,1.5-0.7C232.6,127.5,232.4,126.6,231.7,126z M196.3,126.4
				c0,0.1,0.1,0.2,0.1,0.3c0,0-0.1,0-0.1,0c0,0-0.1,0-0.2,0C196.2,126.6,196.3,126.5,196.3,126.4z"/>
			<path class="st0" d="M250.3,127.7c0.3-0.3,0.4-0.8,0.3-1.3c-0.3-1.2-0.8-2.3-1.6-3.3c0-1.2-0.1-2.4-0.4-3.6
				c-0.1-0.7-1.1-1.1-1.7-0.8c-2.4,1-4.9,1.9-7.2,3.1c-2.1,1.1-3.7,3.2-5.2,5c-1.1,1.3,0.9,3.1,2,1.8c0-0.1,0.1-0.1,0.1-0.2
				c0,0,0,0,0.1,0c3.4,1.4,7.1,1.4,10.7,1.4c0.3,0,0.6-0.1,0.8-0.2c0.1,0,0.2,0.1,0.4,0.1c0.1,0.1,0.3,0.1,0.4,0.1
				C250.1,130.1,250.9,128.5,250.3,127.7z"/>
			<path class="st0" d="M273,127.2c-0.3-0.2-0.7-0.8-0.9-1.4c-0.3-0.7-0.5-1.5-0.8-2.2c-0.9-1.9-2.7-3.1-4.9-2.7
				c-2.2,0.4-4.3,1.7-5.8,3.2c-1.3,1.3-2.3,3.1-4,3.8c-0.7,0.3-1.1,1-0.8,1.7c0.2,0.7,1,1.1,1.7,0.8c0.5-0.2,0.9-0.5,1.3-0.7
				c0.2,0.3,0.6,0.5,1.1,0.5c4.2,0.1,8.4-0.1,12.6-0.5C273.8,129.6,274.1,127.9,273,127.2z"/>
			<path class="st0" d="M294.7,122.2c-0.2-0.6-0.6-1-1.2-1.3c-0.5-0.3-1-0.6-1.5-0.9c-0.9-0.6-1.9-1.3-3-1.1c-1.9,0.4-3.4,2-4.6,3.4
				c-1.5,1.7-3.2,3.1-5.2,4.3c-1.5,0.9,0,3.1,1.5,2.2c0.4-0.3,0.9-0.5,1.3-0.8c0.3,0.6,1.2,1.1,2,0.6c1.9-1,3.8-2,5.7-2.8
				c1-0.4,1.9-0.8,2.9-1.2C293.6,124.2,295.1,123.7,294.7,122.2z"/>
		</g>
		<path class="st1" d="M306.9,102.6c-8.2-3-16-7-24.3-9.8c-6.3-2.4-12.9-3.8-19.2-6.1c-7.2-2.6-14.1-6-21-9.1c-3.9-1.9-8-3.3-12-4.8
			c-4.2-1.6-8.6-3-12.7-4.8c-4-1.8-8.1-3.4-12.2-4.8c-3.1-1.1-6.3-1.7-9.2-3.2c-2.8-1.4-5.4-3.1-8.2-4.4c-4.3-1.9-7.5-4.9-8.6-9.6
			c-1.1-3.8-1.2-8.2,0.7-11.8c1.4-2.6,3.3-4.9,5.1-7.1c2-2.2,4.4-3.9,6.5-5.9c2.2-2.4,3.9-5.2,6-7.6c2.6-2.9,5.4-5.7,8.5-8
			c2.4-1.6,5.2-2.6,7.9-3.5c8.9-2.9,17.8-2.6,26.8-0.5c2.3,0.5,4.6,1,6.9,1.5c4.1,0.8,8.2,1.7,12.2,2.8c5.1,1.6,10.3,3.3,14.8,6.3
			c2.5,1.5,4.9,3.1,7.4,4.5c2,0.9,4,1.6,6,2.2c1.3,0.4,2.6,0.7,3.9,0.6c6.8-0.9,13.7-2.4,20.2-4.4c3.7-1.5,7-3.5,10.5-5.3
			c2.4-1.1,4.9-2.1,7.4-3c2.1-0.8,4.1-1.8,6.1-2.5c4.1-1.4,8.4-1.9,12.7-2.3c4.2-0.4,8.5-0.6,12.6-0.1c3.3,0.5,6.5,1.6,9.7,2.6
			c3.1,1.1,6,2.6,9,4c2,0.9,3.9,1.8,5.6,3.1c2.6,2,4.5,4.6,6.7,6.9c2.1,2.4,4.2,4.9,5.2,8c2,6.9-1.1,14-0.1,21
			c0.4,3.7,1.7,6.8,2.2,10.4c0.6,5.7-0.6,11.6-2.7,16.9c-1.7,3.6-4,6.9-5.7,10.5c-1.7,4-3.8,7.8-5.6,11.7c-1.3,2.8-2.6,5.5-4.4,7.9
			c-0.5-0.9-1.2-1.8-1.9-2.7c1.9-2.6,3.3-5.6,4.6-8.4c2-3.8,3.9-7.6,5.7-11.5c2-4.2,4.9-8,6-12.6c0.8-3.5,1.5-7.1,1.1-10.7
			c-0.3-2.7-1.2-5.2-1.7-7.8c-0.9-4.2-0.8-8.4-0.3-12.6c0.7-5.1,1.4-10.6-2.2-14.8c-1.1-1.4-2.3-2.7-3.4-4.1c-2.4-2.8-5-5.7-8.4-7.2
			c-6.5-3.1-13.2-6.3-20.3-7.4c-3.9-0.4-7.8-0.3-11.7,0.1c-2.2,0.2-4.5,0.3-6.7,0.7c-1.2,0.4-2.7,1-3.9,1.4
			c-1.8,0.7-3.4,1.9-5.3,2.4c-3.5,1.2-7.4,1.8-10.6,3.7c-3.5,2.2-7.2,4.2-11.1,5.4c-5.4,1.3-10.7,2.8-16.2,3.6
			c-1.5,0.2-3,0.5-4.5,0.4c-1.6-0.1-3.2-0.7-4.7-1.2c-3.5-1.1-6.8-2.8-9.9-4.8c-3.7-2.2-7.3-4.4-11.4-5.7
			c-5.4-2.2-11.2-3.4-16.9-4.6c-2.4-0.5-4.8-1-7.2-1.5c-10.4-2.6-19.9-2.4-30,1.6c-4,1.5-6.9,4.6-9.9,7.5c-3,3-5,6.8-7.9,9.8
			c-1.7,1.7-3.7,3.1-5.5,4.9c-1.9,2.1-3.6,4.3-5.1,6.7c-2.6,4.5-0.9,12.2,3.3,15.1c1.8,1.2,3.7,2.1,5.6,3.1c3.5,2,7,4.1,11,5.2
			c8.5,2.3,16.4,6.4,24.8,9.3c4.2,1.5,8.5,3.1,12.6,4.8c5.4,2.5,10.9,4.9,16.3,7.4c8.4,4,17.5,5.8,26.2,8.8
			c7.3,2.5,14.4,5.6,21.5,8.7c5.2,2.1,10.7,3.6,16.1,5.1c0.6,0.1,1.2,0.3,1.8,0.4c-0.9,0.7-1.8,1.5-2.7,2.1
			c-0.3,0.2-0.5,0.4-0.8,0.6C314.6,105.1,310.7,103.9,306.9,102.6z"/>
		<path class="st1" d="M347,91c-2.5,0.6-4.9,1.5-7.3,2.3c-3.3,1.2-6.6,2.1-9.7,3.7c-3.9,2.4-7,5.8-10.7,8.4
			c-2.7,2.1-5.7,3.5-8.4,5.6c-2.9,2.4-4.8,5.7-7.6,8.3c-5.3,4.7-11.7,8.3-18.4,10.7c-5.9,2.1-12.4,2-18.6,2.2
			c-3.9,0.1-7.8,0.2-11.7,0.1c-4-0.2-7.9-0.7-11.8-0.8c-6.2-0.3-12.3-1.6-18.5-1.6c-2.8-0.1-5.7-0.1-8.5,0
			c-3.9,0.3-7.7,0.9-11.6,0.9c-4.9,0-9.8,0.7-14.6,1.6c-2.6,0.5-5.2,0.8-7.5,2.1c-2.2,1.3-3.7,4-2.6,6.5c2.8,6.7,9.1,9.3,14.9,12.7
			c3,1.8,5.7,4.1,8.9,5.7c4.5,2.1,9.5,2.8,14.4,3.5c8.2,0.7,16.4,0.4,24.5,1.1c2.9,0.3,5.5,0.7,8.4,0.9c5.6,0.3,11.2-0.6,16.7-0.9
			c6.2-0.3,12.1-1.8,18.3-2.2c6.2-0.7,12.4-0.4,18.5,0.5c3.6,0.5,7.1,0.7,10.7,0.9c5,0.4,9.9,1,14.9,1.3c4.4,0.2,8.8,0.6,13.2,0.4
			c4-0.2,7.9-0.8,11.8-1.6c3.8-0.8,7.5-2.2,10.6-4.5c4.8-4.2,8.7-9.3,12.1-14.6c6.1-8.6,6.8-16.9,5.6-27.1c-0.6-3.3,0.2-6.6-0.4-9.9
			c-0.9-3.1-3.2-5.8-5.8-7.8c-3.4-2.2-7.1-3.9-10.9-5.5c-2.9-1.2-6-2.3-9.1-2.9C353.7,90.5,350.3,90.3,347,91z M203.1,163.2
			c-3.6-1.6-6.7-4.1-10-6.2c-3.3-2-6.8-3.6-9.8-6c-3.1-2.6-5.9-6-6.9-10c-1-4.1,1.7-8.2,5.5-9.9c2.8-1.2,5.8-1.7,8.8-2.2
			c5-1.1,10.5-1.4,15.6-1.5c4.1-0.3,8.1-1,12.2-1c6.6-0.1,13.2,0.4,19.7,1.3c3.7,0.4,7.5,0.5,11.2,0.8c3.9,0.4,7.8,0.5,11.7,0.4
			c6.6-0.2,13.3,0,19.9-1.2c7.8-2.1,15.4-6,21.3-11.5c2.7-2.9,4.8-6.3,8.1-8.6c3.1-2.1,6.5-3.8,9.4-6.2c3.2-2.5,6.1-5.4,9.6-7.5
			c1.8-1,3.8-1.7,5.7-2.4c4.4-1.4,8.6-3.4,13.2-4.1c2.6-0.3,5.2,0,7.8,0.3c5.1,0.8,10,2.8,14.6,5c5.6,2.8,9.8,4.6,13,10.4
			c1.3,0.4,1.4,2.1,1.8,3.2c0.6,2.1,0.2,4.3,0.2,6.5c0,2.7,0.6,5.4,0.6,8.1c0.4,5.9-0.3,11.9-2.4,17.4c-3.8,8.4-9.4,16-16,22.3
			c-5.4,4.8-12.7,6.1-19.6,7c-8,1.1-16.2,0.2-24.2-0.3c-6-0.7-11.9-0.9-17.9-1.5c-5.6-0.7-11.3-1.6-17-1.1c-5.1,0.3-10.1,1-15.1,1.9
			c-5.2,0.7-10.4,0.8-15.6,1.3c-6.3,0.9-12.7-0.3-19-0.8c-9.6-0.5-19.5,0-29-1.9C208.1,164.9,205.6,164.2,203.1,163.2z"/>
		<path class="st1" d="M241.4,91.8c-4.7-4.8-5.5-12-9.2-17.4c-3.6,2-6.4,5.2-9.9,7.3c-5.1,2.8-7.9-4-9.3-7.8
			c-1.2-2.7-1.8-5.7-2.7-8.5c-3.7,2.8-9.8,10.9-14.7,10.1c-2.7-0.8-2.8-7.5-3.5-10c-0.6-3-0.8-6-1.4-9c-0.2-0.8,0.5-1.8,1.4-1.7
			c1.5,0.4,1.3,3.1,1.7,4.4c0.4,2.7,0.9,5.3,1.4,7.9c0.4,1.8,0.5,3.7,1.3,5.4c0,0,0,0,0,0c3.5-0.1,7.7-5.1,10.3-7.4
			c1.7-1.5,4.4-5,5.8-1.2c1.2,4,2,8.1,4.1,11.8c0.9,1.3,1.7,3.3,3.4,3.5c2.4-0.5,4.1-2.7,6.1-4.1c1-0.8,2.1-1.6,3.1-2.4
			c1.2-0.9,2.9-2.5,4.4-1.3c2.2,2.5,3.1,5.8,4.4,8.8c0.7,1.8,1.5,3.5,2.5,5.2c0.9,1.5,1.7,3.1,3.1,4.1c4.1,1.1,8.2-5.1,11.2-7
			c1.5-0.7,2.4,1.5,1.4,2.5c-0.9,1-2,1.7-2.9,2.6c-2.5,2.3-6.3,6-9.9,5.3C242.8,92.7,242.1,92.3,241.4,91.8z"/>
		<path class="st1" d="M288.8,108.1c-5.6-1.9-7.3-8.2-8.7-13.2c-2.6,2.6-6,4.2-9.5,5.2c-1.8,0.5-3.9,1.1-5.7,0.2
			c-2.4-1.5-3.3-4.5-4.5-6.9c-1-2.5-2-5.1-2.6-7.7c-0.2-0.9-0.1-2.2,0.9-2.6c0.4-0.2,0.8,0.1,1.1,0.3c0.4,0.3,0.5,0.9,0.2,1.3
			c1.2,3.8,2.7,7.2,4.5,10.7c1.2,2.4,2.1,2.6,4.6,2c2.7-0.7,5.4-1.6,7.7-3.3c0.7-0.6,1.4-1.2,2-1.8c0.4-0.4,0.9-1,1.6-1.1
			c1.2-0.2,1.8,1.1,2.1,2c0.6,1.9,1.1,3.8,1.8,5.6c1,2.6,2.7,5.4,5.5,6.2c2.3-0.1,4.1-1.8,5.9-3c1.9-1.2,3.4-2.7,5.3-3.9
			c0.7-0.4,1.6,0.1,1.8,0.8c0.2,0.8-0.1,1.6-0.7,2c-0.2,0.2-0.9,0.5-1,0.6c-1.9,1.5-4,2.9-6,4.3
			C293.2,107.1,291.1,108.5,288.8,108.1C288.9,108.1,288.9,108.1,288.8,108.1z"/>
		<path class="st1" d="M189.3,132c-2-2.9,6.4-12.9,8.6-15.3c2.4-2.5,4.9-3.5,7.2-0.2c1.9,2.9,3.2,6.2,4.4,9.4c2-2,3.6-4.4,5.6-6.3
			c1.9-1.9,4.3-3.3,6.7-4.3c1.8-0.7,3.8-1.4,5.8-0.9c3,1.1,3.5,8.1,5.4,10.8c3-2.8,6.4-5.1,10.1-7c1.7-0.8,3.6-2.5,5.6-1.9
			c3.7,1.9,2.1,8.8,4.1,12.1c3.2-1.4,5.3-4.4,8-6.5c2.1-1.6,4.5-3.5,7.3-3.6c1.4,0,2.5,1.2,3.4,2.2c1.8,2.1,3.2,4.5,4.3,7.1
			c3.3-4.1,7.2-7.6,11.5-10.7c2-1.5,4.6-0.3,6.3,1.1c1.3,1,2.7,1.9,4,2.9c1.3,1,0,3.7-1.6,2.8c-1.3-0.9-2.9-1.9-4.1-2.7
			c-0.9-0.5-1.9-1.7-3.1-1.2c-3.7,2.3-7.2,5.2-10,8.5c-1.5,1.9-3.9,4.8-5.3,1c-0.7-2.1-2-4-3.3-5.7c-0.6-0.8-1.3-1.7-2.2-2.1
			c-4.5,0.7-7.5,4.8-10.9,7.6c-1.7,1.4-4.8,4-6.5,1.2c-2.1-3.2-1.2-7.5-2.8-10.9c-1.3,0-2.4,1.1-3.5,1.6c-3.3,1.8-6.5,3.7-9.2,6.4
			c-5,5.3-6.1-7-8.1-9.6c-0.6-0.5-1.7,0-2.5,0.1c-3.1,0.8-5.9,2.5-8.2,4.7c-1.4,1.5-2.7,3.1-4,4.6c-1.1,1.1-2.5,3.3-4.3,2.2
			c-0.6-0.5-0.9-1.7-1.1-2.3c-1.2-2.9-2.3-5.8-4-8.4c-1.3-2-2.4-0.4-3.7,0.7c-1.6,1.8-3.1,3.8-4.6,5.7c-1.3,1.8-2.5,3.7-3.4,5.8
			c-0.2,0.3-0.2,0.7-0.4,1.1c-0.2,0.5-0.7,0.7-1.2,0.6C189.6,132.3,189.5,132.2,189.3,132z"/>
		<path class="st1" d="M212.7,35.5c-2-1.3-2.4-4-2.3-6.1c0.1-3.5,2-6.6,4.6-8.9c0-0.2,0.1-0.4,0.2-0.5c0.1-0.1,0.2-0.2,0.3-0.3
			c2.4-4.4,6.4-6,11.4-4.5c6.4,1.8,4.6,8.3,0.4,11.6c-2,1.6-4.1,2.9-5.9,4.7c-1.8,2.2-4.3,5.2-7.3,4.6
			C213.6,35.9,213.2,35.7,212.7,35.5z"/>
		<path class="st1" d="M321.9,68.7c-4.4-1.8-8.6-5.1-10.5-9.5c-1.6-5.2-1.2-12,1.5-16.8c3.6-5.7,9.3-9.6,14.5-13.7
			c3.4-2.2,7-4.5,11-5.4c6-1.4,10.6-1.1,16.4,1c3.8,1.1,7.4,3,10.7,5.1c7,3.8,8.9,9,6.9,16.6c-0.9,3.7-1.7,7.3-4.1,10.3
			c-3.5,4.4-9.3,5.5-14.4,6.6c-2.4,0.5-4.7,1.2-7,1.8c-3.6,0.9-7.4,1.4-11,2.4c-4.2,1.1-8.7,2.7-13,1.8
			C322.5,68.8,322.2,68.8,321.9,68.7z"/>
		<path class="st1" d="M304.9,146.5c-0.2-1,0.8-1.4,1.6-1.7c1.9-0.8,3.8-1.5,5.8-2.2c1.6-0.7,2.9-1.7,4.4-2.6c3.4-2,6.7-4,9.8-6.4
			c5.1-3.6,8.2-11.4,15.4-10.8c0.7,0.2,1.8,0.3,1.7,1.3c0,0.4-0.4,1-0.9,0.9c-4.1-0.1-7.1,3-9.5,5.9c-1.8,2.1-3.7,4.1-6,5.7
			c-2.7,1.9-5.7,3.8-8.6,5.2c-1.9,1.1-3.6,2.6-5.7,3.5c-2.2,0.8-4.6,1.3-6.9,2.1c-0.1,0-0.3,0-0.4,0
			C305.2,147.2,304.9,146.9,304.9,146.5z"/>
		<path class="st1" d="M309.9,76.1c-3.1-1-6.6-1.9-8.9-4.3c-2.4-2.5-4-8.7-3.5-12.1c0.1-1,1.6-2.1,2.1-0.7c0.1,0.3,0,0.6,0,0.9
			c-0.1,0.9,0.2,1.8,0.3,2.6c0.6,2.1,1.2,4.3,2.4,6.1c1.5,2.1,4.1,2.9,6.4,4c1.7,0.7,3.5,1.4,5.4,1.7c0.5,0.1,0.8,0.7,0.8,1.2
			c0,0.5-0.5,1.2-1.1,1.2c-1.1-0.1-2.2-0.2-3.3-0.4C310.2,76.2,310,76.2,309.9,76.1z"/>
		<path class="st1" d="M381.1,34.6c-0.6-2.4-1.1-4.9-1.9-7.3c-0.3-1.3-2.1-4-0.5-5c0.8-0.3,1.1,0.3,1.3,1c0.6,1.8,5,11.1,2.6,11.9
			c-0.2,0.1-0.4,0.1-0.6,0.1C381.6,35.3,381.2,35,381.1,34.6z"/>
		<path class="st0" d="M378.7,22.4c-1.6,0.9,0.2,3.6,0.5,5c0.9,2.4,1.3,4.8,1.9,7.3c0.2,0.6,0.9,1,1.5,0.7c2.4-0.9-2-10.1-2.6-11.9
			c-0.1-0.5-0.3-1-0.8-1.1C379.1,22.3,378.9,22.3,378.7,22.4z M215.5,19.7c-0.1,0.1-0.2,0.1-0.3,0.3c-0.1,0.1-0.1,0.3-0.2,0.5
			c-2.6,2.3-4.6,5.4-4.6,8.9c-0.1,2.2,0.4,4.9,2.3,6.1c3.5,2,6.6-1.6,8.6-4.1c1.7-1.8,3.9-3.1,5.9-4.7c4.2-3.2,6-9.8-0.4-11.6
			c-0.4-0.1-0.8-0.2-1.2-0.3C221.2,13.9,217.6,15.6,215.5,19.7z M338.4,23.4c-4,0.9-7.5,3.2-11,5.4c-5.3,4.1-11,7.9-14.5,13.7
			c-2.8,4.8-3.2,11.6-1.5,16.8c1.9,4.4,6.1,7.7,10.5,9.5c4.6,1.3,9.5-0.4,14-1.6c3.6-1,7.3-1.6,11-2.4c2.4-0.5,4.7-1.2,7-1.8
			c5.2-1.1,11-2.2,14.4-6.6c2.4-3,3.2-6.6,4.1-10.3c2-7.6,0.1-12.8-6.9-16.6c-3.3-2.2-6.9-4-10.7-5.1c-1.6-0.6-3.1-1-4.6-1.3
			C346.4,22.2,342.7,22.4,338.4,23.4z M297.4,59.8c-0.5,3.4,1.2,9.6,3.5,12.1c2.4,2.4,5.8,3.3,8.9,4.3c1.2,0.3,2.5,0.4,3.8,0.5
			c0.6,0.1,1.1-0.6,1.1-1.2c0-0.5-0.2-1.1-0.8-1.2c-1.9-0.3-3.6-1-5.4-1.7c-2.3-1-4.9-1.8-6.4-4c-1.2-1.8-1.8-4-2.4-6.1
			c-0.2-0.9-0.4-1.7-0.3-2.6c0.1-0.3,0.1-0.6,0-0.9c-0.1-0.4-0.4-0.6-0.6-0.6C298.2,58.3,297.5,59,297.4,59.8z M304.1,97.8
			c-7.1-3-14.2-6.2-21.5-8.7c-8.7-3-17.8-4.9-26.2-8.8c-5.4-2.5-10.9-4.9-16.3-7.4c-4.2-1.7-8.4-3.2-12.6-4.8
			c-8.4-2.8-16.2-7-24.8-9.3c-4-1-7.5-3.2-11-5.2c-1.9-1-3.9-1.9-5.6-3.1c-4.2-3-6-10.7-3.3-15.1c1.5-2.4,3.2-4.6,5.1-6.7
			c1.7-1.7,3.8-3.1,5.5-4.9c3-3,4.9-6.8,7.9-9.8c3-2.9,5.9-6.1,9.9-7.5c10-4.1,19.5-4.2,30-1.6c2.4,0.6,4.8,1,7.2,1.5
			c5.7,1.2,11.5,2.3,16.9,4.6c4.1,1.3,7.7,3.5,11.4,5.7c3.1,2.1,6.3,3.7,9.9,4.8c1.5,0.5,3.1,1.1,4.7,1.2c1.5,0.1,3-0.2,4.5-0.4
			c5.5-0.9,10.8-2.3,16.2-3.6c3.9-1.3,7.6-3.3,11.1-5.4c3.2-1.8,7.1-2.5,10.6-3.7c1.9-0.6,3.5-1.7,5.3-2.4c1.2-0.4,2.6-1,3.9-1.4
			c2.2-0.4,4.4-0.5,6.7-0.7c3.9-0.4,7.8-0.5,11.7-0.1c7.1,1.2,13.8,4.3,20.3,7.4c3.4,1.5,6,4.4,8.4,7.2c1.2,1.3,2.4,2.7,3.4,4.1
			c3.6,4.2,2.9,9.7,2.2,14.8c-0.5,4.2-0.6,8.5,0.3,12.6c0.5,2.6,1.4,5.2,1.7,7.8c0.3,3.6-0.3,7.2-1.1,10.7c-1.1,4.6-4.1,8.3-6,12.6
			c-1.8,3.9-3.7,7.7-5.7,11.5c-0.9,2-1.9,4.1-3.1,6.1c-2.8-3.2-6.3-4.8-10.6-6.9c-4.7-2.2-9.5-4.2-14.6-5c-2.6-0.3-5.2-0.6-7.8-0.3
			c-4.6,0.7-8.8,2.7-13.2,4.1c-1.9,0.7-3.9,1.4-5.7,2.4c-3.5,2-6.4,5-9.6,7.5c-0.4,0.3-0.8,0.6-1.2,0.9
			C313.7,101.1,308.8,99.7,304.1,97.8z"/>
		<path class="st0" d="M326.4,133.5c-3.1,2.4-6.4,4.4-9.8,6.4c-1.4,0.9-2.8,2-4.4,2.6c-1.9,0.7-3.9,1.5-5.8,2.2
			c-0.8,0.3-1.8,0.6-1.6,1.7c0.1,0.5,0.6,0.9,1.1,0.8c2.3-0.8,4.6-1.3,6.9-2.1c2.1-0.8,3.7-2.4,5.7-3.5c2.9-1.4,6-3.3,8.6-5.2
			c2.3-1.6,4.2-3.6,6-5.7c2.4-2.9,5.4-6,9.5-5.9c0.5,0.1,0.8-0.5,0.9-0.9c0.1-1-1-1.1-1.7-1.3C334.6,122.1,331.5,129.9,326.4,133.5z
			 M203.3,159.5c-3.1-1.6-5.9-3.9-8.9-5.7c-5.8-3.4-12.2-6-14.9-12.7c-1.2-2.5,0.3-5.2,2.6-6.5c2.3-1.3,5-1.6,7.5-2.1
			c4.8-0.9,9.7-1.7,14.6-1.6c3.9-0.1,7.7-0.7,11.6-0.9c2.8-0.1,5.7-0.1,8.5,0c6.2,0,12.3,1.3,18.5,1.6c4,0.2,7.9,0.6,11.8,0.8
			c3.9,0.1,7.8-0.1,11.7-0.1c6.2-0.2,12.6-0.1,18.6-2.2c6.7-2.4,13.1-5.9,18.4-10.7c2.7-2.6,4.6-5.9,7.6-8.3c2.4-1.8,5.1-3.2,7.6-5
			c0.1-0.1,0.2-0.2,0.3-0.2c0.2-0.1,0.3-0.2,0.5-0.4c0.2-0.2,0.5-0.3,0.7-0.5c0,0,0,0,0,0c0.2-0.2,0.4-0.3,0.7-0.5
			c0.5-0.4,0.9-0.7,1.4-1.1c2.6-2.2,5.1-4.5,7.9-6.3c3-1.7,6.4-2.6,9.7-3.7c2.4-0.8,4.8-1.7,7.3-2.3c6.5-1.4,13.1,0.6,19.2,3
			c3.7,1.6,7.5,3.3,10.9,5.5c1,0.8,1.9,1.6,2.8,2.6c0.1,0.1,0.1,0.1,0.2,0.2c0.1,0.1,0.1,0.1,0.1,0.2c0.2,0.2,0.3,0.4,0.5,0.6
			c0.1,0.1,0.1,0.2,0.2,0.3c0.2,0.2,0.3,0.5,0.5,0.7c0.1,0.1,0.1,0.2,0.2,0.3c0.1,0.1,0.1,0.2,0.2,0.3c0,0,0,0,0,0
			c0.5,0.8,0.8,1.7,1.1,2.6c0.6,3.3-0.2,6.6,0.4,9.9c1.2,10.2,0.4,18.5-5.6,27.1c-3.4,5.3-7.3,10.4-12.1,14.6
			c-3.1,2.4-6.8,3.7-10.6,4.5c-3.9,0.8-7.8,1.4-11.8,1.6c-4.4,0.2-8.8-0.2-13.2-0.4c-5-0.3-9.9-0.9-14.9-1.3
			c-3.6-0.2-7-0.4-10.7-0.9c-6.1-1-12.4-1.3-18.5-0.5c-6.1,0.4-12.1,2-18.3,2.2c-5.6,0.3-11.1,1.2-16.7,0.9
			c-2.9-0.2-5.5-0.6-8.4-0.9c-8.2-0.7-16.4-0.4-24.5-1.1c-2.3-0.3-4.6-0.6-6.8-1.1C208.3,161.4,205.8,160.6,203.3,159.5z"/>
		<path class="st0" d="M284.4,98.7c-0.7-1.8-1.2-3.8-1.8-5.6c0-0.1-0.1-0.2-0.1-0.3c0,0,0.1,0,0.1,0c5.6,1.8,11,4.3,16.5,6.6
			c-1.1,0.8-2.1,1.7-3.3,2.5c-1.8,1.2-3.6,2.9-5.9,3C287,104.1,285.4,101.3,284.4,98.7z"/>
		<path class="st0" d="M196.3,72.5c-0.8-1.7-0.9-3.6-1.3-5.4c-0.5-2.6-1-5.3-1.4-7.9c0-0.2-0.1-0.4-0.1-0.6c0.9,0.5,1.7,1,2.6,1.4
			c2.9,1.5,6.1,2.1,9.2,3.2c0.8,0.3,1.6,0.5,2.4,0.8c-0.4,0.4-0.7,0.7-1,1C204.1,67.4,199.9,72.3,196.3,72.5L196.3,72.5z"/>
		<path class="st0" d="M216.6,75.7c-1.7-3-2.5-6.3-3.4-9.5c1.5,0.6,3,1.2,4.4,1.9c3.9,1.6,7.9,3,11.9,4.4c-0.1,0.1-0.2,0.1-0.2,0.2
			c-1.1,0.8-2.1,1.6-3.1,2.4c-2,1.4-3.7,3.5-6.1,4.1c-0.1,0-0.1,0-0.2,0C218.2,78.8,217.4,76.9,216.6,75.7z"/>
		<path class="st0" d="M243.6,89.5c-1.4-1-2.2-2.7-3.1-4.1c-0.9-1.7-1.8-3.4-2.5-5.2c-0.7-1.7-1.4-3.6-2.2-5.3
			c2.2,0.8,4.4,1.7,6.5,2.8c3.9,1.8,7.8,3.6,11.7,5.3c-2.9,2.3-6.6,7.3-10.3,6.5C243.8,89.5,243.7,89.5,243.6,89.5z"/>
		<path class="st0" d="M264.6,95.3c-1.7-3.1-3-6.2-4.2-9.6c1,0.4,2,0.8,3,1.1c5.2,1.9,10.6,3.2,15.9,4.9c-0.2,0.1-0.3,0.3-0.4,0.4
			c-0.6,0.6-1.3,1.2-2,1.8c-2.2,1.7-5,2.6-7.7,3.4c-1,0.3-1.8,0.4-2.4,0.2C265.9,97.3,265.3,96.7,264.6,95.3z"/>
	</g>
	<g>
		<path class="st1" d="M90.8,138c-0.3-0.2-0.5-0.7-0.3-1.1c0.6-1.3,3-1.2,4.6-1.2c0.2,0,0.5,0,0.7,0c1.2,0.1,1.3,2.1,0.1,2.3
			c-1.3,0.1-2.7,0.1-4,0.2c-0.1,0-0.2,0-0.3,0C91.3,138.2,91.1,138.1,90.8,138z"/>
		<path class="st1" d="M109.8,211.2c-2.3-1.6,3-4.9,4.2-5.7c3.3-2.2,7.2-3.4,10.5-5.5c2-1.3,3.7-3.1,5.7-4.5c2-1.4,4.4-2.2,6.7-2.8
			c2.2-0.5,4.3-1.1,6.6-1.3c0.6,0,1.1,0.6,1.1,1.1c0.1,0.6-0.2,1.3-0.8,1.5c-1.3,0.4-2.6,0.6-3.9,0.9c-2.9,0.6-6,1.2-8.6,2.8
			c-1.9,1.2-3.4,2.9-5.3,4.2c-3.7,2.5-8.3,3.7-12,6.2c-1.2,0.9-2.6,1.7-3.5,2.9c-0.1,0.1-0.3,0.2-0.5,0.2
			C109.9,211.2,109.8,211.2,109.8,211.2z"/>
		<path class="st1" d="M51.5,266.8c-1.2-0.6-2.3-1.5-3.4-2.3c-1.1-0.9-2.6-1.5-3.4-2.8c-0.4-0.7,0.4-1.8,1.1-1.1
			c2.2,1.4,4.3,2.8,6.6,4c1,0.5,0.6,2.2-0.4,2.2C51.8,266.9,51.7,266.9,51.5,266.8z"/>
		<path class="st1" d="M48.2,220.7c-6.3-0.4-11.7-1.7-15.2-7.4c-1.1-1.7-1.8-3.7-2.3-5.6c-0.2-0.8-0.3-1.6-0.4-2.4
			c-0.3-0.4-0.5-1-0.6-1.5c-0.4-1.8-0.3-3.7-0.3-5.6c0.1-3.9,0.4-7.9,1.8-11.6c3.2-8,13.9-13,22.1-12.9c7.2,0.5,15.7,2.1,20.2,8.4
			c2.8,4.3,4,9.4,4.9,14.4c0.8,4,1.1,8.5-0.5,12.2c2.6-1.8,4.6-4.5,4.9-7.7c0-2.6-0.7-5.1-1.3-7.6c-0.2-1.3-1.6-4.4-0.6-5.3
			c1.4-0.8,1.3,1.7,1.7,2.5c1,3.7,2.7,7.4,2.3,11.3c-0.6,3.3-2.3,6.4-5,8.4c-1.3,1-2.9,1.8-4.4,2.5c-0.3,0.1-0.7,0.3-1,0.5
			c-4.2,3.8-10.1,5.2-15.6,6.3c-3,0.7-6,1.3-9,1.3C49.2,220.7,48.7,220.7,48.2,220.7z"/>
		<path class="st1" d="M98.3,191.7c-5.1-4.6-5.9-12.3-4.5-18.7c1.2-6,5-8.8,10.4-11.1c2.6-1,5.3-2.3,8.1-2.4
			c4.5-0.2,8.4,2.7,12.1,4.8c1.3,0.7,2.6,1.4,3.7,2.2c-0.8-3-2.6-5.6-4.3-8.2c-0.6-0.7-0.5-2.3,0.7-2.2c0.6,0.1,0.9,0.7,1.2,1.1
			c0.9,1.3,1.8,2.5,2.6,3.9c1.6,2.7,2.2,5.9,2.8,8.9c1.8,3.2,2.5,7.7,2.2,10.8c-1,8.8-11.9,16.7-20.5,16.8c-0.1,0-0.2,0-0.3,0
			C107.3,197.7,102.2,195.3,98.3,191.7z"/>
		<path class="st1" d="M35,225c2.3,3.3,4.2,6.9,6.3,10.3c1.7,0.4,3.5,0.8,5.2,1.4c2.8,1.1,5.6,2.2,8.6,3c12,2.8,24.3,3.4,36.4,4.9
			c11.9,1.8,23.8,3.2,35.7,4.8c7.5,0.9,14.9,3.1,22.5,3c6-0.1,12.1-1.4,18-1.7c4.9-0.3,9.6-1.8,14.4-1.6c6.1,0,12.7-0.5,17.9-3.8
			c4.1-3,8.1-6.3,11.4-10.2c2.7-3.3,5.2-6.5,6.3-10.7c0.4-3,0-6-0.4-9c-0.8-4.9-4.2-9-8.3-11.6c-4-2.5-8.2-4.7-12.5-6.8
			c-4-1.7-8.2-2.8-12.2-4.5c-4.2-1.5-7.8-4-11.7-6c-3.9-1.8-7.9-3.1-11.7-5.1c-5.1-2.9-9.5-6.7-14.8-9.4c-3.6-2-7.6-3.6-10.6-6.4
			c-5.5-6.1-6-14.7-9.6-21.9c-3.6-7.3-10.1-17.6-16.6-22.5c-4.1-2.6-9.4-2.8-14.1-2.9c-8.6,0.3-17.5,2.7-23.9,8.6
			c-2.9,2.8-6,5.6-9.7,7.2c-2.9,1.4-5.9,2.7-8.8,4c-1.1,0.5-2.3,1.1-3.6,1.4c0.8,0.5,1.6,0.9,2.4,1.2c2.9,1.1,6,2,9.1,1.7
			c3.3-0.5,6.7-0.9,10.1-0.9c0.8,0,0.9,1.4,0.1,1.6c-4,0.4-7.9,1.9-12,1.9c-0.5,0-1,0-1.5-0.1c-3.2-0.5-6.4-1.6-9.1-3.3
			c-1-0.6-1.9-1.2-2.8-1.9c-0.1-0.1-0.2-0.1-0.3-0.2c-0.2-0.1-0.4-0.1-0.6-0.2C41.5,138,38,137,34.6,137c-2.2,0-4.5,0.4-6.6,1.4
			c-2.5,1.1-4.9,3-6.9,4.8c-5,4.3-8.5,9.9-11.5,15.7c-2.3,4.8-2.7,10.3-3.2,15.6c-0.2,0.8,0.3,1.9-0.4,2.5
			c-0.6,3.8-1.5,7.4-2.3,11.1c-0.6,3.5-0.8,7-1,10.6c-0.1,2.4-0.1,4.8,0.3,7.2c0.4,2,1.3,3.8,2.1,5.6c1.1,2.4,1.8,5.1,3.5,7.1
			c0.5,0.5,1,1,1.6,1.3c1.3-3.2,3.8-6,7-7.2c0.6-0.2,1.2-0.2,1.8-0.2C25.4,212.5,32,220.3,35,225z M86.5,247.3
			c1.2,2,2.6,3.9,4.2,5.7c1.6-1.1,2.9-2.4,4.2-3.8c0.3-0.3,0.5-0.7,0.8-1c-3-0.4-6.1-0.9-9.2-1.2C86.5,247.1,86.5,247.2,86.5,247.3z
			 M71.6,254.7c-0.1,0.1-0.2,0.1-0.2,0.2c2.3,0.4,4.5,0.9,6.7,1.7c0.9,0.3,1.8,0.6,2.7,0.9c-1.6-2.2-2.6-4.8-4.4-6.8
			C74.5,251.7,73,253.2,71.6,254.7z M123.7,258.5c1.3-1.8,1.9-4,2.3-6.2c-0.3,0-0.7-0.1-1-0.1c-2.6-0.4-5.2-0.7-7.9-1
			C119.3,253.6,121,256.6,123.7,258.5z M187.8,251.9c1.1,2.4,2,4.9,3,7.3c2.6-2.6,5.7-5.1,6.8-8.8c0.1-0.3,0.2-0.6,0.2-0.8
			C194.7,250.9,191.2,251.5,187.8,251.9z M175.5,252.7c-2.8,0.5-5.6,0.8-8.5,1.1c0.7,1.3,1.5,2.5,2.3,3.7c0.6,0.9,1.1,1.7,1.8,2.5
			c0.4,0.7,0.9,0.3,1.3-0.1c2-1.9,3.5-4.4,4-7.1c0-0.1,0-0.2,0.1-0.3C176.2,252.6,175.9,252.6,175.5,252.7z M138.4,254.5
			c1.7,1.5,3,3.4,4.7,4.9c1.4,1.2,2.1,1.6,3.4,0c0.9-1.1,1.7-2.4,2.1-3.8c0-0.1,0-0.1,0-0.2c-1.3,0-2.7-0.1-4-0.2
			c-2.2-0.2-4.3-0.5-6.4-0.9C138.2,254.4,138.3,254.4,138.4,254.5z M97.2,259c-0.6,1.3-1.1,2.6-1.3,3.9c1.6,0.7,3.2,1.3,4.9,1.9
			c1.2,0.4,2.4,0.8,3.6,1.2c-0.2-0.5-0.3-1-0.5-1.4c-0.8-2.1-1.8-4.2-3-6.1c-0.5-0.8-1-1.6-1.8-2.1C98.1,257.1,97.6,258.1,97.2,259z
			 M112.7,269.8c0.4,0.2,0.8,0.4,1.1,0.5c2.5,1.1,5.2,2,7.9,2.6c-1.1-4-3.1-8.5-7-10.2l0,0C113.7,262.7,113,267.5,112.7,269.8z
			 M134.1,271.8c-0.2,0.6-0.4,1.2-0.6,1.8c4-0.1,8-0.4,12-0.2c0.3,0,0.5,0,0.8,0c-0.1-0.1-0.1-0.3-0.2-0.4c-0.6-1-1.4-1.9-2.2-2.8
			c-1.2-1.3-2.3-2.6-3.6-3.8c-0.8-0.7-1.7-1.4-2.7-1.6c0,0-0.1,0-0.1,0C135.9,264.8,134.6,270.6,134.1,271.8z M164.9,274.3
			c0-0.2-0.1-0.5-0.1-0.7c-0.7-5-3-8-7.7-9.9c-0.4,3.1-0.6,6.9-1.1,10.1c1,0,2,0,2.9,0c0.7,0,1.3-0.1,2-0.1
			C162.3,273.8,163.6,273.9,164.9,274.3z M23.9,255.6c2.7,3.3,6.5,5.3,9.9,7.8c2.5,1.8,5.3,3.7,7.7,5.4c5.8,3.5,11.9,6.3,17.7,9.7
			c5.7,2.9,11.8,4.6,17.9,6.5c4.9,1.1,9.9,1.1,14.7,2.6c2.7,0.8,5.3,1.8,8,2.5c4.2,1,8.4,2,12.6,3.2c4.5,1.2,9.1,1.6,13.7,2.1
			c2.7,0.3,5.5,0.6,8.2,0.7c7-0.1,14.1-0.5,20.9-2.1c4.5-1.1,8.6-3.9,11.1-7.9c2.2-3,1.4-6.3-1.3-8.6c-1.3-0.8-2.8-0.7-4.2-0.7
			c-2.3,0-4.7,0-7-0.1c-6.5-0.6-13-0.6-19.6-0.3c-3.3,0.1-6.6,0.2-9.8-0.2c-6-0.6-11.5-3.1-16.8-5.9c-2.9-1.2-6-2.1-8.9-3.2
			c-3-1.2-6-2.5-9.1-3.6c-6.5-2.1-12.9-4.9-19.7-5.9c-7.3-0.8-12.2-2.3-17.9-7.2c-5.3-3.9-8.9-7.6-12.1-12.4
			c-0.6-0.9-1.2-1.8-1.7-2.7c-0.1-0.1-0.1-0.2-0.2-0.3c-0.1-0.1-0.1-0.2-0.2-0.3c0-0.1-0.1-0.1-0.1-0.2c-0.4-0.6-0.7-1.2-1.1-1.9
			c-3-5.2-6.2-10.5-11-14.2c-2.5-1.9-6.2-4.3-9.3-2c-1.8,1.2-3.1,2.9-3.9,4.9c0,0,0,0,0,0c0,0.1-0.1,0.2-0.1,0.2c0,0,0,0.1,0,0.1
			c0,0.1-0.1,0.2-0.1,0.2c0,0,0,0.1,0,0.1c0,0.1-0.1,0.2-0.1,0.3c0,0,0,0,0,0c0,0.1-0.1,0.2-0.1,0.3c-0.1,0.5-0.2,1-0.3,1.4
			c-0.1,0.6-0.1,1.1-0.2,1.7c0,3.7,0.6,7.3,1.6,10.9c0.6,0.4,1.1,1,1.5,1.3c1.4,1.3,2.9,2.9,4.5,3.9c1.9,1.3,3.9,2.5,5.7,4
			c2.1,2,3.6,4.7,5.2,7.1c0.6,0.8-0.3,2.2-1.2,1.4c-1.9-2.1-3.1-4.6-5.2-6.5c-2.4-2-5.3-3.4-7.6-5.5c-0.4-0.3-0.7-0.7-1.1-1
			C16.5,246.8,20,251,23.9,255.6z M132.1,299c-6.1-0.6-12.2-1.1-18.2-2.4c-5.4-1.5-10.5-2.8-15.9-4.2c-2.5-0.7-4.9-1.7-7.5-2.3
			c-3.2-0.9-6.5-1.2-9.8-1.6c-3.3-0.3-6.4-1.4-9.5-2.4c-6.3-1.9-12.4-4.4-18-7.9c-3-1.7-6.1-3.2-9.2-4.9c-2.9-1.6-5.6-3.5-8.3-5.4
			c-1.4-0.9-2.7-1.9-4-2.9c-2.7-2-5.6-3.6-8-6c-3.8-4.3-7.7-8.7-9.9-14c-0.6-1.5-0.9-3.2-1.6-4.7c-0.6-1.4-2.9-3.7-1.6-5
			c-1.1-4.1-1.9-8.4-1.1-12.6c-0.7-0.4-1.4-0.9-2-1.5c-2.4-2.3-3.3-5.6-4.6-8.6c-1.8-3.5-2.9-7.4-2.8-11.3c0.1-4.2,0.4-8.3,0.9-12.5
			c0.5-3,1.4-5.8,2-8.7c0.1-0.7,0.3-1.4,0.4-2.2c0.3-1.1,0.1-2.6,1.2-3.2c0.2-5.2,0.6-10.5,2.3-15.4c2.1-5.2,5.2-10,8.6-14.3
			c6.4-7.2,13.7-13.1,23.9-10.8c2.3,0.5,4.5,1.5,6.8,2.2c2.3,0.6,4.5-0.9,6.6-1.7c3.7-1.6,7.5-3.2,11-5.2c2.7-1.7,4.8-4.2,7.3-6.1
			c6.8-5.5,15.7-8.1,24.4-8.3c4.3,0.1,8.8,0.4,12.8,2.1c6.7,2.9,13.2,13.1,17,19.3c2.2,3.7,4.1,7.7,5.5,11.8
			c1.4,4.5,2.6,9.2,5.1,13.2c1.9,3.1,5.4,4.4,8.4,6.1c1.9,1,3.8,2,5.6,3c5.2,2.9,9.6,7.1,15.1,9.4c3,1.4,6.2,2.5,9.2,4
			c2.9,1.5,5.6,3.3,8.6,4.6c4.9,2.3,10.3,3.5,15.2,5.7c2,0.9,3.9,1.9,5.8,3c2.9,1.6,5.8,3,8.3,5.1c6.9,5.4,8.6,12.4,8.3,20.9
			c-1.2,9.3-10.2,17.4-17.2,23c-0.8,0.7-1.7,1.4-2.7,1.9c-0.3,2.1-1.2,4.2-2.2,6.1c-1.1,2-2.8,3.7-4.5,5.3c-1.7,1.7-3.9,4.5-5.3,0.8
			c-0.7-1.6-1.1-3.3-1.7-4.9c-0.2-0.6-0.4-1.2-0.7-1.7c-0.2-0.5-0.5-1.1-0.5-1.7c-0.2,0-0.4,0-0.5,0c-0.4,0-0.9,0-1.3,0
			c-1.7,0-3.3,0-5,0.1c0.1,0.4,0,0.8-0.1,1.3c-0.5,2.9-4.1,10-7.5,9.6c-1-0.2-1.6-1-2.2-1.7c-0.9-1.1-1.6-2.3-2.4-3.5
			c-0.5-1.1-1.8-2.6-1.9-3.9c-0.3,0-0.6,0-0.9,0.1c-1.5,0.1-2.9,0.3-4.4,0.5c0.8,2.7,1.1,5.6,1.6,8.4c2.2,1.4,3.9,3.5,4.8,6
			c0.3,0.6,1.2,4.6,1.1,6.8c2.2,2.1,3.5,5.5,2.9,8.5c-1.1,3.7-3.9,6.9-6.9,9.3c-3.4,2.5-7.6,3.5-11.7,4.3
			c-5.4,0.9-10.9,1.3-16.4,1.3C134,299.1,133.1,299,132.1,299z"/>
		<path class="st1" d="M149.5,243.1c-1.6-0.7-2.9-2.6-2.3-4.3c0.1-2.5,1.2-4.9,2.9-6.7c3.1-3.2,7.9-3.4,12-3.7
			c1.8-0.1,3.7-0.1,5.2,0.8c3,1.8,2.9,6.7,0,8.6c-1.8,1.2-4.1,1.2-6.1,1.7c-3.5,0.8-6.6,3.7-10.2,3.7
			C150.4,243.3,150,243.3,149.5,243.1z"/>
		<path class="st1" d="M180.7,211.6c-0.6-2.7-0.7-6.2,1.8-8.1c1.4-1,3.7-1.3,5.3-0.4c3,0.5,2.7,4.8,2.6,7.2
			c-0.2,3.2-0.5,8.9-4.8,8.9C182.3,218.7,181.4,214.3,180.7,211.6z"/>
		<path class="st0" d="M90.5,136.9c-0.2,0.4,0,0.9,0.3,1.1c0.2,0.2,0.5,0.2,0.8,0.2c0.1,0,0.2,0,0.3,0c1.3-0.1,2.7-0.1,4-0.2
			c1.2-0.2,1.1-2.2-0.1-2.3c-0.2,0-0.4,0-0.7,0c-0.2,0-0.5,0-0.8,0C92.9,135.7,91.1,135.8,90.5,136.9z M112.3,159.5
			c-2.8,0.1-5.5,1.4-8.1,2.4c-5.4,2.3-9.2,5.1-10.4,11.1c-1.4,6.4-0.6,14.1,4.5,18.7c4,3.6,9.2,6,14.6,6c8.6-0.1,19.4-8,20.5-16.8
			c0.3-3.1-0.5-7.6-2.2-10.8c-0.6-3-1.2-6.2-2.8-8.9c-0.8-1.4-1.7-2.6-2.6-3.9c-0.4-0.4-0.7-1-1.2-1.1c-1.2-0.1-1.3,1.5-0.7,2.2
			c1.7,2.6,3.5,5.2,4.3,8.2c-1.1-0.8-2.4-1.5-3.7-2.2c-3.6-2.1-7.3-4.8-11.7-4.8C112.6,159.5,112.5,159.5,112.3,159.5z M143.5,191.4
			c-2.2,0.2-4.4,0.7-6.6,1.3c-2.3,0.6-4.7,1.4-6.7,2.8c-2,1.4-3.7,3.1-5.7,4.5c-3.4,2.1-7.2,3.3-10.5,5.5c-1.2,0.9-6.5,4.2-4.2,5.7
			c0.2,0.1,0.5,0,0.7-0.2c0.9-1.2,2.3-2,3.5-2.9c3.8-2.5,8.3-3.7,12-6.2c1.9-1.3,3.4-2.9,5.3-4.2c2.6-1.6,5.7-2.1,8.6-2.8
			c1.3-0.3,2.6-0.5,3.9-0.9c0.6-0.2,0.9-0.9,0.8-1.5C144.5,192,144.1,191.4,143.5,191.4C143.5,191.4,143.5,191.4,143.5,191.4z
			 M182.5,203.5c-2.5,1.8-2.4,5.3-1.8,8.1c0.7,2.7,1.6,7.1,4.9,7.7c4.3-0.1,4.6-5.7,4.8-8.9c0.1-2.3,0.4-6.7-2.6-7.2
			c-0.6-0.4-1.4-0.5-2.2-0.5C184.5,202.6,183.3,202.9,182.5,203.5z M31.1,186.4c-1.4,3.7-1.7,7.7-1.8,11.6c0,1.9-0.1,3.7,0.3,5.6
			c0.1,0.5,0.3,1.1,0.6,1.5c0.1,0.8,0.2,1.6,0.4,2.4c0.5,2,1.2,3.9,2.3,5.6c3.4,5.8,8.9,7,15.2,7.4c0.5,0,1.1,0.1,1.6,0.1
			c3,0,6-0.7,9-1.3c5.4-1.1,11.4-2.5,15.6-6.3c0.4-0.2,0.7-0.4,1-0.5c1.5-0.6,3.1-1.5,4.4-2.5c2.7-2,4.4-5.1,5-8.4
			c0.3-3.9-1.4-7.6-2.3-11.3c-0.4-0.8-0.3-3.2-1.7-2.5c-1,0.9,0.3,4,0.6,5.3c0.6,2.5,1.4,5,1.3,7.6c-0.3,3.2-2.3,5.9-4.9,7.7
			c1.6-3.8,1.3-8.2,0.5-12.2c-0.8-5-2.1-10.1-4.9-14.4c-4.5-6.3-12.9-7.9-20.2-8.4c0,0-0.1,0-0.1,0
			C44.9,173.5,34.3,178.5,31.1,186.4z M162.1,228.4c-4.2,0.3-8.9,0.5-12,3.7c-1.7,1.8-2.7,4.2-2.9,6.7c-0.6,1.7,0.7,3.6,2.3,4.3
			c4.2,1,7.8-2.7,11.7-3.6c2-0.6,4.3-0.6,6.1-1.7c2.9-1.9,3.1-6.7,0-8.6c-1.2-0.7-2.6-0.9-3.9-0.9
			C162.9,228.4,162.5,228.4,162.1,228.4z M127.3,249.4c-11.9-1.6-23.8-3-35.7-4.8c-12.2-1.5-24.5-2.1-36.4-4.9
			c-2.9-0.7-5.7-1.9-8.6-3c-1.7-0.6-3.5-1-5.2-1.4c-2.2-3.4-4.1-7-6.3-10.3c-3.4-5.1-11-14-17.8-12.2c-3.2,1.2-5.7,4-7,7.2
			c-0.6-0.4-1.1-0.8-1.6-1.3c-1.7-2.1-2.4-4.7-3.5-7.1c-0.8-1.8-1.7-3.7-2.1-5.6c-0.4-2.4-0.5-4.8-0.3-7.2c0.2-3.5,0.3-7.1,1-10.6
			c0.9-3.7,1.8-7.4,2.3-11.1c0.7-0.6,0.3-1.7,0.4-2.5c0.5-5.3,0.9-10.7,3.2-15.6c3-5.8,6.5-11.4,11.5-15.7c2-1.8,4.4-3.7,6.9-4.8
			c2.1-1,4.4-1.4,6.6-1.4c3.4,0,6.9,1,10.1,2.3c0.2,0.1,0.4,0.2,0.6,0.2c0.1,0.1,0.2,0.2,0.3,0.2c0.9,0.6,1.8,1.3,2.8,1.9
			c2.7,1.8,5.9,2.9,9.1,3.3c0.5,0,1,0.1,1.5,0.1c4,0,8-1.5,12-1.9c0.8-0.1,0.7-1.6-0.1-1.6c-3.4,0-6.7,0.3-10.1,0.9
			c-3.1,0.2-6.2-0.6-9.1-1.7c-0.8-0.4-1.6-0.8-2.4-1.2c1.2-0.3,2.4-0.9,3.6-1.4c3-1.3,5.9-2.6,8.8-4c3.8-1.6,6.8-4.4,9.7-7.2
			c6.5-5.8,15.4-8.3,23.9-8.6c4.7,0.2,9.9,0.4,14.1,2.9c6.5,4.8,13,15.2,16.6,22.5c3.5,7.1,4,15.8,9.6,21.9c3,2.8,7.1,4.4,10.6,6.4
			c5.3,2.6,9.7,6.5,14.8,9.4c3.7,2,7.8,3.3,11.7,5.1c3.9,2,7.6,4.5,11.7,6c4,1.7,8.2,2.8,12.2,4.5c4.3,2.1,8.5,4.3,12.5,6.8
			c4.1,2.7,7.4,6.7,8.3,11.6c0.4,2.9,0.9,6,0.4,9c-1,4.1-3.6,7.3-6.3,10.7c-3.3,3.9-7.3,7.2-11.4,10.2c-5.3,3.2-11.9,3.8-17.9,3.8
			c-4.9-0.1-9.6,1.4-14.4,1.6c-5.9,0.3-12.1,1.6-18,1.7c-0.2,0-0.4,0-0.6,0C141.7,252.4,134.6,250.3,127.3,249.4z"/>
		<path class="st0" d="M44.7,261.7c0.8,1.2,2.3,1.8,3.4,2.8c1.1,0.8,2.2,1.7,3.4,2.3c1.3,0.6,2-1.5,0.8-2.1c-2.3-1.2-4.4-2.7-6.6-4
			c-0.2-0.2-0.3-0.2-0.5-0.2C44.8,260.5,44.4,261.2,44.7,261.7z M126.1,295.3c-4.6-0.5-9.2-0.9-13.7-2.1c-4.2-1.2-8.4-2.2-12.6-3.2
			c-2.7-0.7-5.3-1.7-8-2.5c-4.8-1.5-9.9-1.5-14.7-2.6c-6.1-1.8-12.2-3.6-17.9-6.5c-5.8-3.4-12-6.2-17.7-9.7
			c-2.5-1.7-5.3-3.6-7.7-5.4c-3.4-2.5-7.2-4.5-9.9-7.8c-3.8-4.6-7.4-8.8-9-14.5c0.3,0.3,0.7,0.7,1.1,1c2.4,2.1,5.2,3.5,7.6,5.5
			c2.1,1.9,3.3,4.4,5.2,6.5c0.9,0.8,1.8-0.6,1.2-1.4c-1.6-2.4-3.1-5-5.2-7.1c-1.8-1.5-3.8-2.6-5.7-4c-1.6-1-3.1-2.5-4.5-3.9
			c-0.4-0.3-0.9-0.9-1.5-1.3c-1-3.5-1.6-7.2-1.6-10.9c0-0.6,0.1-1.1,0.2-1.7c0.1-0.5,0.2-1,0.3-1.4c0-0.1,0.1-0.2,0.1-0.3
			c0,0,0,0,0,0c0-0.1,0.1-0.2,0.1-0.3c0,0,0-0.1,0-0.1c0-0.1,0.1-0.2,0.1-0.2c0,0,0-0.1,0-0.1c0-0.1,0.1-0.2,0.1-0.2c0,0,0,0,0,0
			c0.8-1.9,2.1-3.7,3.9-4.9c3-2.2,6.7,0.1,9.3,2c4.8,3.7,8,9,11,14.2c0.4,0.6,0.7,1.3,1.1,1.9c0,0.1,0.1,0.1,0.1,0.2
			c0.1,0.1,0.1,0.2,0.2,0.3c0.1,0.1,0.1,0.2,0.2,0.3c0.6,0.9,1.1,1.8,1.7,2.7c3.3,4.8,6.8,8.5,12.1,12.4c5.6,4.9,10.6,6.4,17.9,7.2
			c6.8,1.1,13.2,3.8,19.7,5.9c3.1,1,6,2.4,9.1,3.6c2.9,1.2,6,2,8.9,3.2c5.3,2.8,10.8,5.3,16.8,5.9c3.3,0.4,6.6,0.4,9.8,0.2
			c6.5-0.3,13.1-0.3,19.6,0.3c2.3,0.1,4.7,0.1,7,0.1c1.4,0,3-0.1,4.2,0.7c2.7,2.3,3.6,5.6,1.3,8.6c-2.5,4-6.5,6.8-11.1,7.9
			c-6.8,1.7-13.9,2.1-20.9,2.1C131.6,296,128.9,295.7,126.1,295.3z"/>
		<path class="st0" d="M78,256.6c-2.2-0.8-4.4-1.3-6.7-1.7c0.1-0.1,0.2-0.2,0.2-0.2c1.5-1.5,3-3,4.7-4.1c1.8,2,2.8,4.6,4.4,6.8
			C79.8,257.2,78.9,256.9,78,256.6z"/>
		<path class="st0" d="M86.5,247.3c0-0.1,0-0.2,0-0.3c3.1,0.3,6.1,0.8,9.2,1.2c-0.3,0.3-0.5,0.7-0.8,1c-1.3,1.4-2.6,2.7-4.2,3.8
			C89.1,251.2,87.8,249.3,86.5,247.3z"/>
		<path class="st0" d="M100.7,264.8c-1.6-0.6-3.2-1.3-4.9-1.9c0.3-1.4,0.7-2.7,1.3-3.9c0.5-0.9,0.9-1.9,1.8-2.5
			c0.8,0.5,1.3,1.3,1.8,2.1c1.2,1.9,2.1,4,3,6.1c0.2,0.4,0.4,0.9,0.5,1.4C103.1,265.7,101.9,265.3,100.7,264.8z"/>
		<path class="st0" d="M113.8,270.3c-0.4-0.2-0.8-0.4-1.1-0.5c0.3-2.3,1-7.1,2.1-7.1l0,0c3.9,1.7,5.8,6.2,7,10.2
			C119,272.3,116.4,271.4,113.8,270.3z"/>
		<path class="st0" d="M117.1,251.1c2.6,0.3,5.2,0.7,7.9,1c0.3,0,0.7,0.1,1,0.1c-0.5,2.2-1,4.4-2.3,6.2
			C121,256.6,119.3,253.6,117.1,251.1z"/>
		<path class="st0" d="M134.1,271.8c0.6-1.3,1.9-7.3,3.4-7.1c1.1,0.2,1.9,0.9,2.7,1.6c1.3,1.2,2.5,2.5,3.6,3.8
			c0.8,0.9,1.5,1.8,2.2,2.8c0.1,0.1,0.1,0.2,0.2,0.4c-0.3,0-0.5,0-0.8,0c-4-0.1-8,0.2-12,0.2C133.7,273,133.9,272.4,134.1,271.8z"/>
		<path class="st0" d="M143,259.4c-1.7-1.5-3-3.4-4.7-4.9c-0.1-0.1-0.1-0.1-0.2-0.2c2.1,0.4,4.3,0.7,6.4,0.9c1.3,0.2,2.7,0.2,4,0.2
			c0,0.1,0,0.1,0,0.2c-0.5,1.4-1.2,2.7-2.1,3.8c-0.6,0.7-1.1,1.1-1.5,1.1C144.3,260.4,143.8,260,143,259.4z"/>
		<path class="st0" d="M158.9,273.9c-1,0-2,0.1-2.9,0c0.5-3.2,0.7-7,1.1-10.1c4.7,1.9,7,4.9,7.7,9.9c0.1,0.2,0.1,0.5,0.1,0.7
			C163,273.7,160.9,273.8,158.9,273.9z"/>
		<path class="st0" d="M171.1,260c-0.7-0.8-1.2-1.7-1.8-2.5c-0.8-1.2-1.6-2.4-2.3-3.7c2.8-0.2,5.7-0.5,8.5-1.1
			c0.3-0.1,0.7-0.1,1-0.2c0,0.1,0,0.2-0.1,0.3c-0.5,2.7-2,5.2-4,7.1c-0.3,0.2-0.5,0.5-0.8,0.5C171.5,260.4,171.3,260.3,171.1,260z"
			/>
		<path class="st0" d="M187.8,251.9c3.4-0.4,6.9-1,10-2.3c-0.1,0.3-0.1,0.6-0.2,0.8c-1.1,3.7-4.2,6.2-6.8,8.8
			C189.8,256.7,188.9,254.3,187.8,251.9z"/>
	</g>
</g>
</svg>
